<?xml version="1.0" encoding="utf-8"?>
<svg id="master-artboard" viewBox="0 0 336 235.2" version="1.1" xmlns="http://www.w3.org/2000/svg" x="0px" y="0px" style="enable-background:new 0 0 336 235.2;" width="336px" height="235.1999969482422px">

<path d="M 0.1 -0.2 H 335.999994 V 235.199994 H 0.1 V -0.2 Z" class="st0" style="fill: rgb(98, 155, 243);" transform="matrix(0.9999999999999999, 0, 0, 0.9999999999999999, 0, 0)"/>
<g id="table_2_" transform="matrix(0.9999999999999999, 0, 0, 0.9999999999999999, 0, 0)">
		<path d="M 331 183.6999969482422 L 14 183.6999969482422 L 14 193.1999969482422 L 61.70000076293945 193.1999969482422 L 61.70000076293945 220.6999969482422 L 72.80000305175781 220.6999969482422 L 72.80000305175781 193.1999969482422 L 271.79998779296875 193.1999969482422 L 271.79998779296875 220.6999969482422 L 282.8999938964844 220.6999969482422 L 282.8999938964844 193.1999969482422 L 331 193.1999969482422 Z" id="shadow_16_" class="st1" style="opacity: 0.4; fill: rgb(157, 157, 156);"/>
		<g id="table_3_">
			<path d="M 10.2 183.699997 H 327.2 V 193.199997 H 10.2 V 183.699997 Z" class="st2" style="fill: rgb(255, 255, 255);"/>
			<path d="M 57.900002 192.899994 H 69.100001 V 220.599995 H 57.900002 V 192.899994 Z" class="st3" style="fill: rgb(233, 239, 242);"/>
			<path d="M 268 192.899994 H 279.2 V 220.599995 H 268 V 192.899994 Z" class="st3" style="fill: rgb(233, 239, 242);"/>
			<path d="M 65.299999 206.199997 A 1.7 1.7 0 0 1 63.599998 207.899997 A 1.7 1.7 0 0 1 61.899998 206.199997 A 1.7 1.7 0 0 1 63.599998 204.499997 A 1.7 1.7 0 0 1 65.299999 206.199997 Z" class="st4" style="fill: rgb(102, 102, 102);"/>
			<path d="M 275.400012 206.199997 A 1.7 1.7 0 0 1 273.700012 207.899997 A 1.7 1.7 0 0 1 272.000012 206.199997 A 1.7 1.7 0 0 1 273.700012 204.499997 A 1.7 1.7 0 0 1 275.400012 206.199997 Z" class="st4" style="fill: rgb(102, 102, 102);"/>
		</g>
	</g><path d="M 194.5 28 H 251.200001 V 56.4 H 194.5 V 28 Z" id="shadow_8_" transform="matrix(1.0000000298023226, -0.001609946183411662, 0.001609946183411662, 1.0000000298023226, -0.06764697485112947, 0.3588000344872384)" class="st5" style="opacity: 0.4; fill-rule: evenodd; clip-rule: evenodd; fill: rgb(157, 157, 156);"/><path d="M 188.800003 28 H 245.500004 V 56.4 H 188.800003 V 28 Z" transform="matrix(-1.0000000298023226, 0.001609943040197879, -0.001609943040197879, -1.0000000298023226, 434.4455085529536, 84.04540503160364)" class="st6" style="fill-rule: evenodd; clip-rule: evenodd; fill: rgb(255, 255, 255);"/><path class="st7" d="M219.7,40.6l19.8,0c0.6,0,1,0.5,1,1l0,8.9c0,0.6-0.5,1-1,1l-19.8,0c-0.6,0-1-0.5-1-1l0-8.9&#10;&#9;&#9;&#9;&#9;C218.6,41.1,219.1,40.6,219.7,40.6z" style="fill-rule: evenodd; clip-rule: evenodd; fill: rgb(221, 221, 221);" transform="matrix(1.000000014901161, 0, 0, 1.000000014901161, 0, 0)"/><path d="M 217.899997 31.200001 A 1.2 1.2 0 0 1 216.699997 32.400001 A 1.2 1.2 0 0 1 215.499997 31.200001 A 1.2 1.2 0 0 1 216.699997 30.000001 A 1.2 1.2 0 0 1 217.899997 31.200001 Z" class="st8" style="fill-rule: evenodd; clip-rule: evenodd; fill: rgb(249, 151, 121);" transform="matrix(1.000000014901161, 0, 0, 1.000000014901161, 0, 0)"/><path d="M 263.200012 27.5 H 306.500011 V 70.799999 H 263.200012 V 27.5 Z" id="shadow_7_" class="st1" style="opacity: 0.4; fill: rgb(157, 157, 156);" transform="matrix(1.000000014901161, 0, 0, 1.000000014901161, 0, 0)"/><g transform="matrix(1.000000014901161, 0, 0, 1.000000014901161, 0, 0)">
				<path d="M 258.399994 27.5 H 301.699993 V 70.799999 H 258.399994 V 27.5 Z" class="st9" style="fill: rgb(181, 211, 203);"/>
			</g><path class="st10" d="M292.5,50.8c0-1-1-1.9-2.7-2.6c1.1-1.5,1.6-2.8,1.1-3.6c-0.5-0.8-1.8-1.1-3.7-0.9c0.2-1.8,0-3.2-0.9-3.7&#10;&#9;&#9;&#9;&#9;c-0.8-0.5-2.1-0.1-3.6,1.1c-0.7-1.7-1.6-2.7-2.6-2.7c-1,0-1.9,1-2.6,2.7c-1.5-1.1-2.8-1.6-3.6-1.1c-0.8,0.5-1.1,1.8-0.9,3.7&#10;&#9;&#9;&#9;&#9;c-1.8-0.2-3.2,0-3.7,0.9c-0.5,0.8-0.1,2.1,1.1,3.6c-1.7,0.7-2.7,1.6-2.7,2.6s1,1.9,2.7,2.6c-1.1,1.5-1.6,2.8-1.1,3.6&#10;&#9;&#9;&#9;&#9;c0.5,0.8,1.8,1.1,3.7,0.9c-0.2,1.8,0,3.2,0.9,3.7c0.8,0.5,2.1,0.1,3.6-1.1c0.7,1.7,1.6,2.7,2.6,2.7c1,0,1.9-1,2.6-2.7&#10;&#9;&#9;&#9;&#9;c1.5,1.1,2.8,1.6,3.6,1.1c0.8-0.5,1.1-1.8,0.9-3.7c1.8,0.2,3.2,0,3.7-0.9c0.5-0.8,0.1-2.1-1.1-3.6&#10;&#9;&#9;&#9;&#9;C291.5,52.6,292.5,51.7,292.5,50.8z" style="fill: rgb(255, 85, 26);" transform="matrix(1.000000014901161, 0, 0, 1.000000014901161, 0, 0)"/><path d="M 283.000006 50.900002 A 2.9 2.9 0 0 1 280.100006 53.800002 A 2.9 2.9 0 0 1 277.200006 50.900002 A 2.9 2.9 0 0 1 280.100006 48.000001 A 2.9 2.9 0 0 1 283.000006 50.900002 Z" class="st2" style="fill: rgb(255, 255, 255);" transform="matrix(1.000000014901161, 0, 0, 1.000000014901161, 0, 0)"/><path d="M 261.5 114.80000305175781 L 261.5 122.5999984741211 L 261.5 132.5 L 261.5 165.89999389648438 L 261.5 175.8000030517578 L 261.5 183.6999969482422 L 275.20001220703125 183.6999969482422 L 275.20001220703125 175.8000030517578 L 275.20001220703125 165.89999389648438 L 275.20001220703125 132.5 L 275.20001220703125 122.5999984741211 L 275.20001220703125 114.80000305175781 Z" id="shadow_15_" class="st1" style="opacity: 0.4; fill: rgb(157, 157, 156);" transform="matrix(1.000000014901161, 0, 0, 1.000000014901161, 0, 0)"/><path d="M 257.100006 114.800003 H 270.900006 V 183.700005 H 257.100006 V 114.800003 Z" class="st11" style="fill: rgb(249, 151, 121);" transform="matrix(1.000000014901161, 0, 0, 1.000000014901161, 0, 0)"/><path d="M 262.799988 136.899994 H 265.599988 V 161.099995 H 262.799988 V 136.899994 Z" class="st3" style="fill: rgb(233, 239, 242);" transform="matrix(1.000000014901161, 0, 0, 1.000000014901161, 0, 0)"/><path d="M 257.100006 165.899994 H 270.900006 V 175.699994 H 257.100006 V 165.899994 Z" class="st2" style="fill: rgb(255, 255, 255);" transform="matrix(1.000000014901161, 0, 0, 1.000000014901161, 0, 0)"/><path d="M 257.100006 122.599998 H 270.900006 V 132.399999 H 257.100006 V 122.599998 Z" class="st2" style="fill: rgb(255, 255, 255);" transform="matrix(1.000000014901161, 0, 0, 1.000000014901161, 0, 0)"/><path d="M 95.69999694824219 187.39999389648438 L 95.69999694824219 190.6999969482422 L 95.69999694824219 215.8000030517578 L 124.19999694824219 215.8000030517578 L 124.19999694824219 190.6999969482422 L 124.19999694824219 187.39999389648438 Z" id="shadow_14_" class="st1" style="opacity: 0.4; fill: rgb(157, 157, 156);" transform="matrix(1.000000014901161, 0, 0, 1.000000014901161, 0, 0)"/><path d="M 92.199997 187.399994 H 120.699997 V 215.899994 H 92.199997 V 187.399994 Z" class="st10" style="fill: rgb(255, 85, 26);" transform="matrix(1.000000014901161, 0, 0, 1.000000014901161, 0, 0)"/><path d="M 92.199997 187.399994 H 120.699997 V 190.799994 H 92.199997 V 187.399994 Z" class="st11" style="fill: rgb(249, 151, 121);" transform="matrix(1.000000014901161, 0, 0, 1.000000014901161, 0, 0)"/><g transform="matrix(1.000000014901161, 0, 0, 1.000000014901161, 0, 0)">
					<path class="st2" d="M105.7,194.5h2.3l5.5,15.3h-2.3l-1.6-4.6h-6l-1.7,4.6h-2.1L105.7,194.5z M109.1,203.5l-2.3-6.7l-2.4,6.7&#10;&#9;&#9;&#9;&#9;&#9;&#9;H109.1z" style="fill: rgb(255, 255, 255);"/>
				</g><g id="shadow_13_" class="st12" transform="matrix(1.000000014901161, 0, 0, 1.000000014901161, 0, 0)" style="opacity: 0.4;">
			<path d="M 78.0999984741211 114.5999984741211 L 78.0999984741211 122.5 L 78.0999984741211 124.5 L 78.0999984741211 173.6999969482422 L 78.0999984741211 175.60000610351562 L 78.0999984741211 183.5 L 88 183.5 L 88 175.60000610351562 L 88 173.6999969482422 L 88 124.5 L 88 122.5 L 88 114.5999984741211 Z" class="st13" style="fill: rgb(157, 157, 156);"/>
			<path d="M 53.900001525878906 122.5 L 53.900001525878906 124.5 L 53.900001525878906 173.6999969482422 L 53.900001525878906 175.60000610351562 L 53.900001525878906 183.5 L 63.79999923706055 183.5 L 63.79999923706055 175.60000610351562 L 63.79999923706055 173.6999969482422 L 63.79999923706055 124.5 L 63.79999923706055 122.5 L 63.79999923706055 114.5999984741211 L 53.900001525878906 114.5999984741211 Z" class="st13" style="fill: rgb(157, 157, 156);"/>
			<path d="M 64.0999984741211 122.5 L 64.0999984741211 132.3000030517578 L 64.0999984741211 165.8000030517578 L 64.0999984741211 175.60000610351562 L 64.0999984741211 183.5 L 77.9000015258789 183.5 L 77.9000015258789 175.60000610351562 L 77.9000015258789 165.8000030517578 L 77.9000015258789 132.3000030517578 L 77.9000015258789 122.5 L 77.9000015258789 114.5999984741211 L 64.0999984741211 114.5999984741211 Z" class="st13" style="fill: rgb(157, 157, 156);"/>
		</g><g id="book_7_" transform="matrix(1.000000014901161, 0, 0, 1.000000014901161, 0, 0)">
				<path d="M 74.099998 114.599998 H 83.899999 V 183.5 H 74.099998 V 114.599998 Z" class="st9" style="fill: rgb(181, 211, 203);"/>
				<path d="M 74.099998 122.5 H 83.899999 V 124.5 H 74.099998 V 122.5 Z" class="st11" style="fill: rgb(249, 151, 121);"/>
				<path d="M 74.099998 173.699997 H 83.899999 V 175.699997 H 74.099998 V 173.699997 Z" class="st11" style="fill: rgb(249, 151, 121);"/>
			</g><path d="M 49.900002 114.599998 H 59.700002 V 183.5 H 49.900002 V 114.599998 Z" class="st10" style="fill: rgb(255, 85, 26);" transform="matrix(1.000000014901161, 0, 0, 1.000000014901161, 0, 0)"/><path d="M 49.900002 122.5 H 59.700002 V 124.5 H 49.900002 V 122.5 Z" class="st14" style="fill: rgb(221, 221, 221);" transform="matrix(1.000000014901161, 0, 0, 1.000000014901161, 0, 0)"/><path d="M 49.900002 173.699997 H 59.700002 V 175.699997 H 49.900002 V 173.699997 Z" class="st14" style="fill: rgb(221, 221, 221);" transform="matrix(1.000000014901161, 0, 0, 1.000000014901161, 0, 0)"/><g transform="matrix(1.000000014901161, 0, 0, 1.000000014901161, 0, 0)">
					<path d="M 60 114.599998 H 73.8 V 183.5 H 60 V 114.599998 Z" class="st15" style="fill: rgb(54, 122, 145);"/>
				</g><path d="M 60 122.5 H 73.8 V 132.3 H 60 V 122.5 Z" class="st2" style="fill: rgb(255, 255, 255);" transform="matrix(1.000000014901161, 0, 0, 1.000000014901161, 0, 0)"/><path d="M 60 165.800003 H 73.8 V 175.600003 H 60 V 165.800003 Z" class="st2" style="fill: rgb(255, 255, 255);" transform="matrix(1.000000014901161, 0, 0, 1.000000014901161, 0, 0)"/><path id="shadow_12_" class="st1" d="M49.7,151.4L49.7,151.4l-27.1,0v3.4h0v6.1c-4.5,0-7.5-0.9-7.5,6.6c0,7.5,3.1,6.6,7.5,6.6v9.5&#10;&#9;&#9;&#9;h27.2L49.7,151.4L49.7,151.4z M22.5,172.1c-4.4,0-5.5,0.8-5.5-4.6c0-5.4,1.1-4.6,5.5-4.6V172.1z" style="opacity: 0.4; fill: rgb(157, 157, 156);" transform="matrix(1.000000014901161, 0, 0, 1.000000014901161, 0, 0)"/><g transform="matrix(1.000000014901161, 0, 0, 1.000000014901161, 0, 0)">
				<path class="st11" d="M11.5,167.5c0,7.5,3.1,6.6,7.5,6.6v9.5h27.2v-32.3h-25h-1.9h-0.2v9.5C14.6,160.9,11.5,160,11.5,167.5z&#10;&#9;&#9;&#9;&#9;&#9; M13.6,167.5c0-5.4,1.1-4.6,5.5-4.6v9.1C14.7,172.1,13.6,172.9,13.6,167.5z" style="fill: rgb(249, 151, 121);"/>
			</g><path d="M 19 151.300003 H 46.1 V 154.700003 H 19 V 151.300003 Z" class="st15" style="fill: rgb(54, 122, 145);" transform="matrix(1.000000014901161, 0, 0, 1.000000014901161, 0, 0)"/><path class="st1" d="M39.8,164.8c-0.1-0.7-0.7-1.3-1.4-1.3h-2.8v-12.2h-1v12.2h-2.8c-0.7,0-1.3,0.6-1.4,1.3h0v0.1v1.9v6.3&#10;&#9;&#9;&#9;&#9;c0,0.8,0.6,1.4,1.4,1.4h6.7c0.8,0,1.4-0.6,1.4-1.4v-6.3v-1.9L39.8,164.8L39.8,164.8z" style="opacity: 0.4; fill: rgb(157, 157, 156);" transform="matrix(1.000000014901161, 0, 0, 1.000000014901161, 0, 0)"/><path class="st2" d="M35.9,163.5H33v-12.2h-1v12.2h-2.8c-0.8,0-1.4,0.6-1.4,1.4v8.2c0,0.8,0.6,1.4,1.4,1.4h6.7&#10;&#9;&#9;&#9;&#9;&#9;c0.8,0,1.4-0.6,1.4-1.4v-8.2C37.3,164.1,36.6,163.5,35.9,163.5z" style="fill: rgb(255, 255, 255);" transform="matrix(1.000000014901161, 0, 0, 1.000000014901161, 0, 0)"/><path d="M 27.799999 164.800003 H 37.299999 V 166.800003 H 27.799999 V 164.800003 Z" class="st9" style="fill: rgb(181, 211, 203);" transform="matrix(1.000000014901161, 0, 0, 1.000000014901161, 0, 0)"/><path d="M 83.6 55.5 A 31.1 31.1 0 0 1 52.5 86.6 A 31.1 31.1 0 0 1 21.4 55.5 A 31.1 31.1 0 0 1 52.5 24.4 A 31.1 31.1 0 0 1 83.6 55.5 Z" id="shadow_2_" class="st1" style="opacity: 0.4; fill: rgb(157, 157, 156);" transform="matrix(1.000000014901161, 0, 0, 1.000000014901161, 0, 0)"/><path d="M 79.6 55.5 A 31.1 31.1 0 0 1 48.5 86.6 A 31.1 31.1 0 0 1 17.4 55.5 A 31.1 31.1 0 0 1 48.5 24.4 A 31.1 31.1 0 0 1 79.6 55.5 Z" class="st4" style="fill: rgb(102, 102, 102);" transform="matrix(1.000000014901161, 0, 0, 1.000000014901161, 0, 0)"/><path d="M 73.400002 55.599998 A 25 25 0 0 1 48.400002 80.599998 A 25 25 0 0 1 23.400002 55.599998 A 25 25 0 0 1 48.400002 30.599998 A 25 25 0 0 1 73.400002 55.599998 Z" class="st2" style="fill: rgb(255, 255, 255);" transform="matrix(1.000000014901161, 0, 0, 1.000000014901161, 0, 0)"/><path d="M 47.299999 30.6 H 48.899999 V 35.900001 H 47.299999 V 30.6 Z" transform="matrix(0.9998000562131414, -0.021579070659848158, 0.021579070659848158, 0.9998000562131414, -0.7051000209182803, 1.0445000244528018)" class="st10" style="fill: rgb(255, 85, 26);"/><path d="M 47.299999 75.300003 H 48.899999 V 80.600003 H 47.299999 V 75.300003 Z" transform="matrix(0.9998000562131414, -0.021579070659848158, 0.021579070659848158, 0.9998000562131414, -1.6715000173896613, 1.054900081601744)" class="st10" style="fill: rgb(255, 85, 26);"/><path d="M 70 52.299999 H 71.6 V 57.599999 H 70 V 52.299999 Z" transform="matrix(0.021901310142913744, 0.9998000562131414, -0.9998000562131414, 0.021901310142913744, 124.20410526407065, -16.99090054604114)" class="st10" style="fill: rgb(255, 85, 26);"/><path d="M 25.5 53.299999 H 27.1 V 58.599999 H 25.5 V 53.299999 Z" transform="matrix(0.021894399729204154, 0.9998000562131414, -0.9998000562131414, 0.021894399729204154, 81.60199980741734, 28.461600198197345)" class="st10" style="fill: rgb(255, 85, 26);"/><path d="M 62.099998474121094 55.5 L 62 53.900001525878906 L 49.099998474121094 54.20000076293945 L 48.79999923706055 37.79999923706055 L 47.20000076293945 37.900001525878906 L 47.599998474121094 55.29999923706055 L 47.70000076293945 55.29999923706055 L 47.70000076293945 55.79999923706055 Z" class="st15" style="fill: rgb(54, 122, 145);" transform="matrix(1.000000014901161, 0, 0, 1.000000014901161, 0, 0)"/><path id="shadow_11_" class="st1" d="M308.3,150.4v-12.8c0.2-0.1,0.4-0.2,0.6-0.3h10.9c2-0.8,3.3-2.7,3.3-5V102&#10;&#9;&#9;&#9;c0-3-2.4-5.4-5.4-5.4c-3,0-5.4,2.4-5.4,5.4v23.7l-4.1-0.1V94c0-3.3-2.7-6.1-6.1-6.1c-3.3,0-6.1,2.7-6.1,6.1v48.1v8.3h-17.7&#10;&#9;&#9;&#9;l5.2,33.4h36.1l5.2-33.4H308.3z" style="opacity: 0.4; fill: rgb(157, 157, 156);" transform="matrix(1.000000014901161, 0, 0, 1.000000014901161, 0, 0)"/><g transform="matrix(1.000000014901161, 0, 0, 1.000000014901161, 0, 0)">
				<path class="st16" d="M292.6,154.2v-3.3h12.2v-13.3c0.2-0.1,0.4-0.2,0.6-0.3h10.9c2-0.8,3.3-2.7,3.3-5V102c0-3-2.4-5.4-5.4-5.4&#10;&#9;&#9;&#9;&#9;&#9;c-3,0-5.4,2.4-5.4,5.4v23.7l-4.1-0.1V94c0-3.3-2.7-6.1-6.1-6.1c-3.3,0-6.1,2.7-6.1,6.1v48.1V154.2z" style="fill-rule: evenodd; clip-rule: evenodd; fill: rgb(54, 122, 145);"/>
				<path d="M 274.8999938964844 150.39999389648438 L 280.1000061035156 183.8000030517578 L 316.29998779296875 183.8000030517578 L 321.5 150.39999389648438 Z" class="st10" style="fill: rgb(255, 85, 26);"/>
			</g><path class="st2" d="M308,164.1c0-2.9-2.4-5.3-5.3-5.3c-1.6,0-3,0.7-3.9,1.8c-1-1.1-2.4-1.8-3.9-1.8c-2.9,0-5.3,2.4-5.3,5.3&#10;&#9;&#9;&#9;&#9;c0,0.5,0.1,0.9,0.2,1.4l0,0c0,0,0,0.2,0.2,0.5c0.1,0.2,0.1,0.3,0.2,0.5c0.8,1.6,3,5,8.6,8.2c0,0,0,0,0,0c0,0,0,0,0,0c0,0,0,0,0,0&#10;&#9;&#9;&#9;&#9;c0,0,0,0,0,0c7.8-4.3,9-9.1,9-9.1l0,0C307.9,165,308,164.6,308,164.1z" style="fill: rgb(255, 255, 255);" transform="matrix(1.000000014901161, 0, 0, 1.000000014901161, 0, 0)"/><path d="M 248.8000030517578 187.10000610351562 L 248.8000030517578 187.10000610351562 L 215.39999389648438 187 L 215.39999389648438 187 L 215.39999389648438 187 L 215.39999389648438 220.5 L 239.3000030517578 220.5 L 248.8000030517578 220.5 L 248.8000030517578 210.89999389648438 L 248.89999389648438 187.10000610351562 Z" id="shadow_10_" class="st1" style="opacity: 0.4; fill: rgb(157, 157, 156);" transform="matrix(1.000000014901161, 0, 0, 1.000000014901161, 0, 0)"/><g id="post_it_7_" transform="matrix(1.000000014901161, 0, 0, 1.000000014901161, 0, 0)">
				<path d="M 212 187 L 211.89999389648438 220.5 L 235.8000030517578 220.5 L 245.39999389648438 220.5 L 245.39999389648438 210.89999389648438 L 245.39999389648438 187.10000610351562 Z" class="st9" style="fill: rgb(181, 211, 203);"/>
				<path d="M 212 187 H 245.299999 V 193.7 H 212 V 187 Z" class="st15" style="fill: rgb(54, 122, 145);"/>
			</g><path d="M 216 198.899994 H 241.700001 V 200.899994 H 216 V 198.899994 Z" class="st2" style="fill: rgb(255, 255, 255);" transform="matrix(1.000000014901161, 0, 0, 1.000000014901161, 0, 0)"/><path d="M 216 204.199997 H 241.700001 V 206.199997 H 216 V 204.199997 Z" class="st2" style="fill: rgb(255, 255, 255);" transform="matrix(1.000000014901161, 0, 0, 1.000000014901161, 0, 0)"/><g id="computer_1_" transform="matrix(1.000000014901161, 0, 0, 1.000000014901161, 0, 0)">
			<g id="shadow" class="st12" style="opacity: 0.4;">
				<path class="st13" d="M252.6,72.7c0-0.4,0-0.7-0.1-1c0,0,0,0,0-0.1c-0.1-0.3-0.1-0.6-0.2-0.9c0,0,0-0.1,0-0.1&#10;&#9;&#9;&#9;&#9;&#9;c-0.1-0.3-0.2-0.6-0.4-0.8c0,0,0-0.1-0.1-0.1c-0.2-0.3-0.3-0.5-0.5-0.7c0,0,0,0,0-0.1c0,0,0,0-0.1-0.1c-0.1-0.1-0.1-0.2-0.2-0.2&#10;&#9;&#9;&#9;&#9;&#9;c-0.1-0.1-0.1-0.1-0.2-0.2c-0.1-0.1-0.2-0.1-0.2-0.2c-0.1-0.1-0.1-0.1-0.2-0.1c-0.1-0.1-0.2-0.1-0.2-0.2c-0.1,0-0.1-0.1-0.2-0.1&#10;&#9;&#9;&#9;&#9;&#9;c-0.1,0-0.2-0.1-0.3-0.1c-0.1,0-0.1-0.1-0.2-0.1c-0.1,0-0.2-0.1-0.3-0.1c-0.1,0-0.2-0.1-0.2-0.1c-0.1,0-0.2-0.1-0.3-0.1&#10;&#9;&#9;&#9;&#9;&#9;c-0.1,0-0.2,0-0.2-0.1c-0.1,0-0.2,0-0.4-0.1c-0.1,0-0.1,0-0.2,0c-0.2,0-0.4,0-0.6,0h-149c-3.1,0-5.4,2.5-5.4,5.7v102.6h159.9&#10;&#9;&#9;&#9;&#9;&#9;V72.7z" style="fill: rgb(157, 157, 156);"/>
				<path class="st13" d="M92.7,175.2H69.8v2.8c0,3.1,2.4,5.7,5.4,5.7h194.9c3,0,5.4-2.5,5.4-5.7v-2.8H92.7z" style="fill: rgb(157, 157, 156);"/>
			</g>
			<g id="computer_2_">
				<g id="laptop">
					<g>
						<path class="st17" d="M242.5,67h-149c-3.1,0-5.4,2.5-5.4,5.7v102.6H248V72.7C248,69.5,245.7,67,242.5,67" style="fill: rgb(18, 16, 15);"/>
						<path class="st4" d="M246.6,68.9c-1-1.1-2.4-1.8-4.1-1.8 M242.5,67h-149c-3.1,0-5.4,2.5-5.4,5.7v102.6H248V72.7&#10;&#9;&#9;&#9;&#9;&#9;&#9;&#9;c0-1.5-0.5-2.8-1.4-3.8" style="fill: rgb(102, 102, 102);"/>
						<path class="st14" d="M88.1,175.2H65.2v2.8c0,3.1,2.4,5.7,5.4,5.7h194.9c3,0,5.4-2.5,5.4-5.7v-2.8H88.1" style="fill: rgb(221, 221, 221);"/>
						<path d="M 96.400002 73.300003 H 240.599998 V 168.400002 H 96.400002 V 73.300003 Z" class="st11" style="fill: rgb(249, 151, 121);"/>
						<path d="M 171.6 70 A 1.6 1.6 0 0 1 170 71.6 A 1.6 1.6 0 0 1 168.4 70 A 1.6 1.6 0 0 1 170 68.4 A 1.6 1.6 0 0 1 171.6 70 Z" class="st9" style="fill: rgb(181, 211, 203);"/>
						<g>
							<path d="M 103.300003 84.400002 H 235.300003 V 156.700005 H 103.300003 V 84.400002 Z" class="st2" style="fill: rgb(255, 255, 255);"/>
							<path d="M 103.300003 84.400002 H 235.300003 V 89.300002 H 103.300003 V 84.400002 Z" class="st14" style="fill: rgb(221, 221, 221);"/>
							<path d="M 108.899997 86.800003 A 1.2 1.2 0 0 1 107.699997 88.000003 A 1.2 1.2 0 0 1 106.499997 86.800003 A 1.2 1.2 0 0 1 107.699997 85.600003 A 1.2 1.2 0 0 1 108.899997 86.800003 Z" class="st10" style="fill: rgb(255, 85, 26);"/>
							<path d="M 113.000003 86.800003 A 1.2 1.2 0 0 1 111.800003 88.000003 A 1.2 1.2 0 0 1 110.600003 86.800003 A 1.2 1.2 0 0 1 111.800003 85.600003 A 1.2 1.2 0 0 1 113.000003 86.800003 Z" class="st2" style="fill: rgb(255, 255, 255);"/>
							<path d="M 117.2 86.800003 A 1.2 1.2 0 0 1 116 88.000003 A 1.2 1.2 0 0 1 114.8 86.800003 A 1.2 1.2 0 0 1 116 85.600003 A 1.2 1.2 0 0 1 117.2 86.800003 Z" class="st9" style="fill: rgb(181, 211, 203);"/>
						</g>
						<path d="M 106.800003 98.400002 H 113.100003 V 104.700002 H 106.800003 V 98.400002 Z" class="st4" style="fill: rgb(102, 102, 102);"/>
						<path d="M 114.699997 98.400002 H 120.999997 V 104.700002 H 114.699997 V 98.400002 Z" class="st4" style="fill: rgb(102, 102, 102);"/>
						<path d="M 106.800003 106.699997 H 113.100003 V 112.999997 H 106.800003 V 106.699997 Z" class="st4" style="fill: rgb(102, 102, 102);"/>
						<path d="M 114.699997 106.699997 H 120.999997 V 112.999997 H 114.699997 V 106.699997 Z" class="st4" style="fill: rgb(102, 102, 102);"/>
						<path d="M 106.800003 115.099998 H 113.100003 V 121.399999 H 106.800003 V 115.099998 Z" class="st4" style="fill: rgb(102, 102, 102);"/>
						<path d="M 114.699997 115.099998 H 120.999997 V 121.399999 H 114.699997 V 115.099998 Z" class="st4" style="fill: rgb(102, 102, 102);"/>
						<path d="M 106.800003 123.400002 H 113.100003 V 129.700002 H 106.800003 V 123.400002 Z" class="st4" style="fill: rgb(102, 102, 102);"/>
						<path d="M 114.699997 123.400002 H 120.999997 V 129.700002 H 114.699997 V 123.400002 Z" class="st4" style="fill: rgb(102, 102, 102);"/>
						<path d="M 106.800003 131.699997 H 113.100003 V 137.999997 H 106.800003 V 131.699997 Z" class="st4" style="fill: rgb(102, 102, 102);"/>
						<path d="M 114.699997 131.699997 H 120.999997 V 137.999997 H 114.699997 V 131.699997 Z" class="st4" style="fill: rgb(102, 102, 102);"/>
						<path d="M 106.800003 140 H 113.100003 V 146.3 H 106.800003 V 140 Z" class="st4" style="fill: rgb(102, 102, 102);"/>
						<path d="M 114.699997 140 H 120.999997 V 146.3 H 114.699997 V 140 Z" class="st4" style="fill: rgb(102, 102, 102);"/>
					</g>
				</g>
				<path class="st2" d="M155.7,175.3h-3.5v0.9c0,1,0.4,1.8,0.8,1.8h30.1c0.5,0,0.8-0.8,0.8-1.8v-0.9H155.7" style="fill: rgb(255, 255, 255);"/>
				<g>
					<g id="Graphic_3_">
						<path class="st0" d="M130.8,147.5c0,0.3,0.2,0.5,0.5,0.5h36.5c0.3,0,0.5-0.2,0.5-0.5V96.9c0-0.3-0.2-0.5-0.5-0.5h-36.5&#10;&#9;&#9;&#9;&#9;&#9;&#9;&#9;c-0.3,0-0.5,0.2-0.5,0.5V147.5z" style="fill: rgb(98, 155, 243);"/>
						<path class="st2" d="M133.2,145.3c0,0.3,0.2,0.5,0.5,0.5h31.7c0.3,0,0.5-0.2,0.5-0.5v-37.4c0-0.3-0.2-0.5-0.5-0.5h-31.7&#10;&#9;&#9;&#9;&#9;&#9;&#9;&#9;c-0.3,0-0.5,0.2-0.5,0.5V145.3z" style="fill: rgb(255, 255, 255);"/>
					</g>
					<path d="M 133.699997 100.199997 H 164.699997 V 102.599997 H 133.699997 V 100.199997 Z" class="st2" style="fill: rgb(255, 255, 255);"/>
				</g>
				<g>
					<g id="Graphic_4_">
						<path class="st9" d="M173,147.5c0,0.3,0.2,0.5,0.5,0.5H210c0.3,0,0.5-0.2,0.5-0.5V96.9c0-0.3-0.2-0.5-0.5-0.5h-36.5&#10;&#9;&#9;&#9;&#9;&#9;&#9;&#9;c-0.3,0-0.5,0.2-0.5,0.5V147.5z" style="fill: rgb(181, 211, 203);"/>
						<path class="st2" d="M175.4,145.3c0,0.3,0.2,0.5,0.5,0.5h31.7c0.3,0,0.5-0.2,0.5-0.5v-37.4c0-0.3-0.2-0.5-0.5-0.5h-31.7&#10;&#9;&#9;&#9;&#9;&#9;&#9;&#9;c-0.3,0-0.5,0.2-0.5,0.5V145.3z" style="fill: rgb(255, 255, 255);"/>
					</g>
					<path d="M 176.300003 100.199997 H 207.300003 V 102.599997 H 176.300003 V 100.199997 Z" class="st2" style="fill: rgb(255, 255, 255);"/>
				</g>
				<g>
					<path d="M 137 114.900002 H 161.9 V 116.800002 H 137 V 114.900002 Z" class="st14" style="fill: rgb(221, 221, 221);"/>
					<path d="M 137 119.199997 H 161.9 V 121.099997 H 137 V 119.199997 Z" class="st14" style="fill: rgb(221, 221, 221);"/>
					<path d="M 137 123.599998 H 161.9 V 125.499998 H 137 V 123.599998 Z" class="st14" style="fill: rgb(221, 221, 221);"/>
					<path d="M 137 128 H 161.9 V 129.9 H 137 V 128 Z" class="st14" style="fill: rgb(221, 221, 221);"/>
					<path d="M 137 132.399994 H 161.9 V 134.299994 H 137 V 132.399994 Z" class="st14" style="fill: rgb(221, 221, 221);"/>
				</g>
				<g>
					<path d="M 179.199997 114.900002 H 204.099997 V 116.800002 H 179.199997 V 114.900002 Z" class="st14" style="fill: rgb(221, 221, 221);"/>
					<path d="M 179.199997 119.199997 H 204.099997 V 121.099997 H 179.199997 V 119.199997 Z" class="st14" style="fill: rgb(221, 221, 221);"/>
					<path d="M 179.199997 123.599998 H 204.099997 V 125.499998 H 179.199997 V 123.599998 Z" class="st14" style="fill: rgb(221, 221, 221);"/>
					<path d="M 179.199997 128 H 204.099997 V 129.9 H 179.199997 V 128 Z" class="st14" style="fill: rgb(221, 221, 221);"/>
					<path d="M 179.199997 132.399994 H 204.099997 V 134.299994 H 179.199997 V 132.399994 Z" class="st14" style="fill: rgb(221, 221, 221);"/>
				</g>
			</g>
		</g><path id="XMLID_510_" class="st2" d="M122.2,33.5c-2.4,0.7-3,1.3-3.7,3.7c-0.7-2.4-1.3-3-3.7-3.7c2.4-0.7,3-1.3,3.7-3.7&#10;&#9;&#9;&#9;C119.2,32.2,119.8,32.8,122.2,33.5z" style="fill: rgb(255, 255, 255);" transform="matrix(1.000000014901161, 0, 0, 1.000000014901161, 0, 0)"/><path id="XMLID_1_" class="st2" d="M267.9,104.6c-2.4,0.7-3,1.3-3.7,3.7c-0.7-2.4-1.3-3-3.7-3.7c2.4-0.7,3-1.3,3.7-3.7&#10;&#9;&#9;&#9;C264.9,103.3,265.5,103.9,267.9,104.6z" style="fill: rgb(255, 255, 255);" transform="matrix(1.000000014901161, 0, 0, 1.000000014901161, 0, 0)"/><path id="XMLID_51_" class="st2" d="M297.5,62.8c-2.4,0.7-3,1.3-3.7,3.7c-0.7-2.4-1.3-3-3.7-3.7c2.4-0.7,3-1.3,3.7-3.7&#10;&#9;&#9;&#9;C294.5,61.5,295.1,62.1,297.5,62.8z" style="fill: rgb(255, 255, 255);" transform="matrix(1.000000014901161, 0, 0, 1.000000014901161, 0, 0)"/><path id="XMLID_1025_" class="st2" d="M53.5,60.3c-3.1,0.9-3.9,1.7-4.8,4.8c-0.9-3.1-1.7-3.9-4.8-4.8c3.1-0.9,3.9-1.7,4.8-4.8&#10;&#9;&#9;&#9;C49.6,58.6,50.4,59.4,53.5,60.3z" style="fill: rgb(255, 255, 255);" transform="matrix(1.000000014901161, 0, 0, 1.000000014901161, 0, 0)"/><path id="XMLID_50_" class="st2" d="M325.7,87.7c-3.1,0.9-3.9,1.7-4.8,4.8c-0.9-3.1-1.7-3.9-4.8-4.8c3.1-0.9,3.9-1.7,4.8-4.8&#10;&#9;&#9;&#9;C321.8,86,322.6,86.7,325.7,87.7z" style="fill: rgb(255, 255, 255);" transform="matrix(1.000000014901161, 0, 0, 1.000000014901161, 0, 0)"/><path id="XMLID_53_" class="st2" d="M31.4,101.8c-3.1,0.9-3.9,1.7-4.8,4.8c-0.9-3.1-1.7-3.9-4.8-4.8c3.1-0.9,3.9-1.7,4.8-4.8&#10;&#9;&#9;&#9;C27.6,100.1,28.3,100.9,31.4,101.8z" style="fill: rgb(255, 255, 255);" transform="matrix(1.000000014901161, 0, 0, 1.000000014901161, 0, 0)"/><path id="XMLID_2_" class="st2" d="M82.3,85.7c-1.6,0.5-1.9,0.8-2.4,2.4c-0.5-1.6-0.8-1.9-2.4-2.4c1.6-0.5,1.9-0.8,2.4-2.4&#10;&#9;&#9;&#9;C80.4,84.8,80.8,85.2,82.3,85.7z" style="fill: rgb(255, 255, 255);" transform="matrix(1.000000014901161, 0, 0, 1.000000014901161, 0, 0)"/><path id="XMLID_3_" class="st2" d="M49.3,213.7c-1.6,0.5-1.9,0.8-2.4,2.4c-0.5-1.6-0.8-1.9-2.4-2.4c1.6-0.5,1.9-0.8,2.4-2.4&#10;&#9;&#9;&#9;C47.4,212.8,47.8,213.2,49.3,213.7z" style="fill: rgb(255, 255, 255);" transform="matrix(1.000000014901161, 0, 0, 1.000000014901161, 0, 0)"/><path id="XMLID_1027_" class="st2" d="M156.8,214.6c-3.6,1.1-4.4,1.9-5.5,5.5c-1.1-3.6-1.9-4.4-5.5-5.5c3.6-1.1,4.4-1.9,5.5-5.5&#10;&#9;&#9;&#9;C152.4,212.7,153.2,213.6,156.8,214.6z" style="fill: rgb(255, 255, 255);" transform="matrix(1.000000014901161, 0, 0, 1.000000014901161, 0, 0)"/>
</svg>