<?xml version="1.0" encoding="utf-8"?>
<svg id="master-artboard" viewBox="0 0 1400 980" version="1.1" xmlns="http://www.w3.org/2000/svg" x="0px" y="0px" width="1400px" height="980px" enable-background="new 0 0 1400 980">
<g transform="matrix(0.9999999999999999, 0, 0, 0.9999999999999999, 0, 0)">
		<g>
			<path d="M 0 0 H 1400 V 980 H 0 V 0 Z" fill="#FFFFFF" style="fill: rgb(255, 37, 8);"/>
		</g>
	</g><g transform="matrix(1.000000014901161, 0, 0, 1.000000014901161, 0, 0)">
			<g>
				<path fill="#F5F0E0" d="M496.1,151.7c16.3,0,29.6,13.3,29.6,29.6v1.8v58.5v11.4h-59.2v-11.4V222v-40.7&#10;&#9;&#9;&#9;&#9;&#9;C466.5,164.9,479.7,151.7,496.1,151.7z"/>
				<path d="M525.7,255.1h-59.2c-1.2,0-2.2-1-2.2-2.2v-71.6c0-17.5,14.3-31.8,31.8-31.8c17.5,0,31.8,14.3,31.8,31.8v71.6&#10;&#9;&#9;&#9;&#9;&#9;C527.9,254.1,526.9,255.1,525.7,255.1z M468.7,250.7h54.9v-69.4c0-15.1-12.3-27.4-27.4-27.4c-15.1,0-27.4,12.3-27.4,27.4V250.7z&#10;&#9;&#9;&#9;&#9;&#9;"/>
			</g>
			<g>
				<path fill="#FFFAEA" d="M633.5,151.7c16.4,0,29.6,13.3,29.6,29.6v1.8v58.5v163.7H525.7v-92.1v-71.6v-58.5v-1.8&#10;&#9;&#9;&#9;&#9;&#9;c0-16.4-13.3-29.6-29.6-29.6H633.5z"/>
				<path d="M663.1,407.4H525.7c-1.2,0-2.2-1-2.2-2.2V181.3c0-15.1-12.3-27.4-27.4-27.4c-1.2,0-2.2-1-2.2-2.2c0-1.2,1-2.2,2.2-2.2&#10;&#9;&#9;&#9;&#9;&#9;h137.4c17.5,0,31.8,14.3,31.8,31.8v223.9C665.3,406.4,664.3,407.4,663.1,407.4z M527.9,403.1h133.1V181.3&#10;&#9;&#9;&#9;&#9;&#9;c0-15.1-12.3-27.4-27.4-27.4H512.1c9.4,5.5,15.8,15.8,15.8,27.4V403.1z"/>
			</g>
		</g><path fill="#E4F2FA" d="M856.2,58.8c-21.4,0-38.8,17.4-38.8,38.8v2.3v76.7v93.9H895v-93.9V151V97.6&#10;&#9;&#9;&#9;&#9;C895,76.1,877.7,58.8,856.2,58.8z" transform="matrix(1.000000014901161, 0, 0, 1.000000014901161, 0, 0)"/><path d="M895,272.7h-77.7c-1.2,0-2.2-1-2.2-2.2V97.6c0-22.6,18.4-41,41-41c22.6,0,41,18.4,41,41v172.9&#10;&#9;&#9;&#9;&#9;C897.2,271.7,896.2,272.7,895,272.7z M819.6,268.3h73.3V97.6c0-20.2-16.4-36.7-36.7-36.7c-20.2,0-36.7,16.4-36.7,36.7V268.3z" transform="matrix(1.000000014901161, 0, 0, 1.000000014901161, 0, 0)"/><path fill="#EAF7FF" d="M714.8,58.8c-21.4,0-38.8,17.4-38.8,38.8v2.3v76.7v214.7h141.4V270.5v-93.9V99.9v-2.3&#10;&#9;&#9;&#9;&#9;c0-21.4,17.4-38.8,38.8-38.8H714.8z" transform="matrix(1.000000014901161, 0, 0, 1.000000014901161, 0, 0)"/><path d="M817.4,393.5H676c-1.2,0-2.2-1-2.2-2.2V97.6c0-22.6,18.4-41,41-41h141.4c1.2,0,2.2,1,2.2,2.2c0,1.2-1,2.2-2.2,2.2&#10;&#9;&#9;&#9;&#9;c-20.2,0-36.7,16.4-36.7,36.7v293.7C819.6,392.5,818.6,393.5,817.4,393.5z M678.2,389.1h137V97.6c0-16,9.2-29.9,22.6-36.7h-123&#10;&#9;&#9;&#9;&#9;c-20.2,0-36.7,16.4-36.7,36.7V389.1z" transform="matrix(1.000000014901161, 0, 0, 1.000000014901161, 0, 0)"/><path d="M 699.4000244140625 884.5 L 699.4000244140625 784.9000244140625 L 652.5999755859375 784.9000244140625 L 652.5999755859375 884.5 L 636.4000244140625 884.5 L 676 932.2000122070312 L 715.5999755859375 884.5 Z" fill="#FFB6A6" transform="matrix(1.000000014901161, 0, 0, 1.000000014901161, 0, 0)"/><path d="M676,934.4c-0.6,0-1.3-0.3-1.7-0.8l-39.6-47.7c-0.5-0.6-0.7-1.5-0.3-2.3c0.4-0.8,1.1-1.2,2-1.2h14v-97.4&#10;&#9;&#9;&#9;&#9;c0-1.2,1-2.2,2.2-2.2h46.8c1.2,0,2.2,1,2.2,2.2v97.4h14c0.8,0,1.6,0.5,2,1.2c0.4,0.8,0.2,1.7-0.3,2.3l-39.6,47.7&#10;&#9;&#9;&#9;&#9;C677.3,934.1,676.7,934.4,676,934.4z M641.1,886.6l34.9,42.2l34.9-42.2h-11.5c-1.2,0-2.2-1-2.2-2.2v-97.4h-42.5v97.4&#10;&#9;&#9;&#9;&#9;c0,1.2-1,2.2-2.2,2.2H641.1z" transform="matrix(1.000000014901161, 0, 0, 1.000000014901161, 0, 0)"/><path d="M906.3,722H508.1c-1.2,0-2.2-1-2.2-2.2c0-1.2,1-2.2,2.2-2.2h398.2c1.2,0,2.2,1,2.2,2.2C908.5,721,907.5,722,906.3,722z" transform="matrix(1.000000014901161, 0, 0, 1.000000014901161, 0, 0)"/><path d="M873.1,760.2H472.2c-1.2,0-2.2-1-2.2-2.2c0-1.2,1-2.2,2.2-2.2h400.9c1.2,0,2.2,1,2.2,2.2&#10;&#9;&#9;&#9;&#9;C875.3,759.2,874.3,760.2,873.1,760.2z" transform="matrix(1.000000014901161, 0, 0, 1.000000014901161, 0, 0)"/><path d="M839.3,801H437.1c-1.2,0-2.2-1-2.2-2.2c0-1.2,1-2.2,2.2-2.2h402.2c1.2,0,2.2,1,2.2,2.2C841.5,800,840.5,801,839.3,801z" transform="matrix(1.000000014901161, 0, 0, 1.000000014901161, 0, 0)"/><path d="M463.3,823.7c-0.6,0-1.1-0.2-1.5-0.6c-0.8-0.8-0.8-2.2,0-3.1L588.7,693c0.8-0.8,2.2-0.8,3.1,0c0.8,0.8,0.8,2.2,0,3.1&#10;&#9;&#9;&#9;&#9;L464.8,823C464.4,823.4,463.9,823.7,463.3,823.7z" transform="matrix(1.000000014901161, 0, 0, 1.000000014901161, 0, 0)"/><path d="M536.8,823.7c-0.6,0-1.1-0.2-1.5-0.6c-0.8-0.8-0.8-2.2,0-3.1L662.2,693c0.8-0.8,2.2-0.8,3.1,0c0.8,0.8,0.8,2.2,0,3.1&#10;&#9;&#9;&#9;&#9;L538.3,823C537.9,823.4,537.3,823.7,536.8,823.7z" transform="matrix(1.000000014901161, 0, 0, 1.000000014901161, 0, 0)"/><path d="M610.2,823.7c-0.6,0-1.1-0.2-1.5-0.6c-0.8-0.8-0.8-2.2,0-3.1L735.6,693c0.8-0.8,2.2-0.8,3.1,0c0.8,0.8,0.8,2.2,0,3.1&#10;&#9;&#9;&#9;&#9;L611.7,823C611.3,823.4,610.8,823.7,610.2,823.7z" transform="matrix(1.000000014901161, 0, 0, 1.000000014901161, 0, 0)"/><path d="M683.7,823.7c-0.6,0-1.1-0.2-1.5-0.6c-0.8-0.8-0.8-2.2,0-3.1L809.1,693c0.8-0.8,2.2-0.8,3.1,0c0.8,0.8,0.8,2.2,0,3.1&#10;&#9;&#9;&#9;&#9;L685.2,823C684.8,823.4,684.2,823.7,683.7,823.7z" transform="matrix(1.000000014901161, 0, 0, 1.000000014901161, 0, 0)"/><path d="M757.1,823.7c-0.6,0-1.1-0.2-1.5-0.6c-0.8-0.8-0.8-2.2,0-3.1L882.5,693c0.8-0.8,2.2-0.8,3.1,0c0.8,0.8,0.8,2.2,0,3.1&#10;&#9;&#9;&#9;&#9;L758.7,823C758.2,823.4,757.7,823.7,757.1,823.7z" transform="matrix(1.000000014901161, 0, 0, 1.000000014901161, 0, 0)"/><path d="M 494.799988 391.299988 H 857.199982 V 425.799988 H 494.799988 V 391.299988 Z" fill="#F1F2F2" transform="matrix(1.000000014901161, 0, 0, 1.000000014901161, 0, 0)" style="fill: rgb(220, 232, 0);"/><path d="M857.2,428H494.8c-1.2,0-2.2-1-2.2-2.2v-34.5c0-1.2,1-2.2,2.2-2.2h362.4c1.2,0,2.2,1,2.2,2.2v34.5&#10;&#9;&#9;&#9;&#9;C859.4,427,858.4,428,857.2,428z M497,423.6H855v-30.2H497V423.6z" transform="matrix(1.000000014901161, 0, 0, 1.000000014901161, 0, 0)"/><path fill="#E6E7E8" d="M676,425.8H494.8c0,0,16.9,114.2,151.8,204.4v106.2h58.1V630.2h0.6C840.3,540,857.2,425.8,857.2,425.8&#10;&#9;&#9;&#9;&#9;H676z" transform="matrix(1.000000014901161, 0, 0, 1.000000014901161, 0, 0)" style="fill: rgb(220, 232, 0);"/><path d="M704.8,738.6h-58.1c-1.2,0-2.2-1-2.2-2.2v-105c-133.3-89.7-151.6-204.1-151.8-205.3c-0.1-0.6,0.1-1.3,0.5-1.7&#10;&#9;&#9;&#9;&#9;c0.4-0.5,1-0.8,1.6-0.8h362.4c0.6,0,1.2,0.3,1.6,0.8c0.4,0.5,0.6,1.1,0.5,1.7c-0.2,1.1-18.6,116-152.4,205.7v104.6&#10;&#9;&#9;&#9;&#9;C707,737.6,706,738.6,704.8,738.6z M648.8,734.3h53.8v-104c0-1.2,0.9-2.1,2.1-2.2c121.1-81.3,146.4-183,149.9-200.1H497.4&#10;&#9;&#9;&#9;&#9;c3.5,17.1,28.9,119.1,150.4,200.5c0.6,0.4,1,1.1,1,1.8V734.3z" transform="matrix(1.000000014901161, 0, 0, 1.000000014901161, 0, 0)"/><path d="M684,738.6c-1.2,0-2.2-1-2.2-2.2V635.1c0-1.2,1-2.2,2.2-2.2c1.2,0,2.2,1,2.2,2.2v101.4&#10;&#9;&#9;&#9;&#9;C686.1,737.6,685.2,738.6,684,738.6z" transform="matrix(1.000000014901161, 0, 0, 1.000000014901161, 0, 0)"/><path d="M733.1,583.3c-0.6,0-1.2-0.2-1.6-0.7c-0.8-0.9-0.8-2.2,0.1-3.1c65.1-61.2,83.5-115.4,83.7-115.9c0.4-1.1,1.6-1.8,2.7-1.4&#10;&#9;&#9;&#9;&#9;c1.1,0.4,1.8,1.6,1.4,2.7c-0.2,0.6-18.9,55.7-84.9,117.7C734.2,583.1,733.6,583.3,733.1,583.3z" transform="matrix(1.000000014901161, 0, 0, 1.000000014901161, 0, 0)"/><g transform="matrix(1.000000014901161, 0, 0, 1.000000014901161, 0, 0)">
				<path d="M 696.0999755859375 197.5 L 580.5999755859375 197.5 L 580.5999755859375 391.29998779296875 L 745.5999755859375 391.29998779296875 L 745.5999755859375 247 Z" fill="#D5E4FF"/>
				<path d="M745.6,393.5h-165c-1.2,0-2.2-1-2.2-2.2V197.5c0-1.2,1-2.2,2.2-2.2h115.5c0.6,0,1.1,0.2,1.5,0.6l49.5,49.5&#10;&#9;&#9;&#9;&#9;&#9;c0.4,0.4,0.6,1,0.6,1.5v144.3C747.8,392.5,746.8,393.5,745.6,393.5z M582.8,389.1h160.7V247.9l-48.3-48.3H582.8V389.1z"/>
			</g><path d="M 696.0999755859375 247 L 745.5999755859375 247 L 696.0999755859375 197.5 Z" fill="#F0F4FF" transform="matrix(1.000000014901161, 0, 0, 1.000000014901161, 0, 0)"/><path d="M745.6,249.2h-49.5c-1.2,0-2.2-1-2.2-2.2v-49.5c0-0.9,0.5-1.7,1.3-2c0.8-0.3,1.7-0.1,2.4,0.5l49.5,49.5&#10;&#9;&#9;&#9;&#9;&#9;c0.6,0.6,0.8,1.6,0.5,2.4C747.3,248.7,746.5,249.2,745.6,249.2z M698.3,244.8h42.1l-42.1-42.1V244.8z" transform="matrix(1.000000014901161, 0, 0, 1.000000014901161, 0, 0)"/><g transform="matrix(1.000000014901161, 0, 0, 1.000000014901161, 0, 0)">
					<path d="M 847.4000244140625 305 L 690.0999755859375 305 L 768.7999877929688 362.1000061035156 Z" fill="#FFF1C4"/>
					<path d="M768.8,364.3c-0.4,0-0.9-0.1-1.3-0.4l-78.7-57.1c-0.8-0.6-1.1-1.5-0.8-2.4c0.3-0.9,1.1-1.5,2.1-1.5h157.3&#10;&#9;&#9;&#9;&#9;&#9;&#9;c0.9,0,1.8,0.6,2.1,1.5c0.3,0.9,0,1.9-0.8,2.4L770,363.8C769.7,364.1,769.2,364.3,768.8,364.3z M696.8,307.2l72,52.2l72-52.2&#10;&#9;&#9;&#9;&#9;&#9;&#9;H696.8z"/>
				</g><path d="M 768.7999877929688 362.1000061035156 L 690.0999755859375 305 L 690.0999755859375 391.29998779296875 L 847.4000244140625 391.29998779296875 L 847.4000244140625 305 Z" fill="#FFF1C4" transform="matrix(1.000000014901161, 0, 0, 1.000000014901161, 0, 0)"/><path d="M847.4,393.5H690.1c-1.2,0-2.2-1-2.2-2.2V305c0-0.8,0.5-1.6,1.2-1.9c0.7-0.4,1.6-0.3,2.3,0.2l77.4,56.2l77.4-56.2&#10;&#9;&#9;&#9;&#9;&#9;&#9;c0.7-0.5,1.5-0.6,2.3-0.2c0.7,0.4,1.2,1.1,1.2,1.9v86.3C849.6,392.5,848.6,393.5,847.4,393.5z M692.3,389.1h153v-79.9&#10;&#9;&#9;&#9;&#9;&#9;&#9;L770,363.8c-0.8,0.6-1.8,0.6-2.5,0l-75.2-54.6V389.1z" transform="matrix(1.000000014901161, 0, 0, 1.000000014901161, 0, 0)"/><g transform="matrix(1.000000014901161, 0, 0, 1.000000014901161, 0, 0)">
					<path d="M 504.600006 232 H 656.600006 V 391.300003 H 504.600006 V 232 Z" fill="#FFFFFF"/>
					<path d="M656.6,393.5h-152c-1.2,0-2.2-1-2.2-2.2V232c0-1.2,1-2.2,2.2-2.2h152c1.2,0,2.2,1,2.2,2.2v159.3&#10;&#9;&#9;&#9;&#9;&#9;&#9;C658.8,392.5,657.8,393.5,656.6,393.5z M506.8,389.1h147.7v-155H506.8V389.1z"/>
				</g><path d="M 523.299988 254.600006 L 637.799988 254.600006" fill="#FFFFFF" transform="matrix(1.000000014901161, 0, 0, 1.000000014901161, 0, 0)"/><path d="M637.8,256.7H523.3c-1.2,0-2.2-1-2.2-2.2s1-2.2,2.2-2.2h114.5c1.2,0,2.2,1,2.2,2.2S639,256.7,637.8,256.7z" transform="matrix(1.000000014901161, 0, 0, 1.000000014901161, 0, 0)"/><path d="M 523.299988 285.799988 L 637.799988 285.799988" fill="#FFFFFF" transform="matrix(1.000000014901161, 0, 0, 1.000000014901161, 0, 0)"/><path d="M637.8,287.9H523.3c-1.2,0-2.2-1-2.2-2.2c0-1.2,1-2.2,2.2-2.2h114.5c1.2,0,2.2,1,2.2,2.2&#10;&#9;&#9;&#9;&#9;&#9;&#9;C640,287,639,287.9,637.8,287.9z" transform="matrix(1.000000014901161, 0, 0, 1.000000014901161, 0, 0)"/><path d="M 523.299988 317 L 637.799988 317" fill="#FFFFFF" transform="matrix(1.000000014901161, 0, 0, 1.000000014901161, 0, 0)"/><path d="M637.8,319.1H523.3c-1.2,0-2.2-1-2.2-2.2c0-1.2,1-2.2,2.2-2.2h114.5c1.2,0,2.2,1,2.2,2.2&#10;&#9;&#9;&#9;&#9;&#9;&#9;C640,318.2,639,319.1,637.8,319.1z" transform="matrix(1.000000014901161, 0, 0, 1.000000014901161, 0, 0)"/><path d="M 523.299988 345.799988 H 580.499989 V 391.299988 H 523.299988 V 345.799988 Z" fill="#FFC4A1" transform="matrix(1.000000014901161, 0, 0, 1.000000014901161, 0, 0)"/><path d="M580.6,393.5h-57.2c-1.2,0-2.2-1-2.2-2.2v-45.5c0-1.2,1-2.2,2.2-2.2h57.2c1.2,0,2.2,1,2.2,2.2v45.5&#10;&#9;&#9;&#9;&#9;&#9;&#9;C582.8,392.5,581.8,393.5,580.6,393.5z M525.5,389.1h52.9V348h-52.9V389.1z" transform="matrix(1.000000014901161, 0, 0, 1.000000014901161, 0, 0)"/><path d="M 597.900024 344.5 L 637.799988 344.5" fill="#FFFFFF" transform="matrix(1.000000014901161, 0, 0, 1.000000014901161, 0, 0)"/><path d="M637.8,346.7h-40c-1.2,0-2.2-1-2.2-2.2c0-1.2,1-2.2,2.2-2.2h40c1.2,0,2.2,1,2.2,2.2C640,345.7,639,346.7,637.8,346.7z" transform="matrix(1.000000014901161, 0, 0, 1.000000014901161, 0, 0)"/><path d="M 597.900024 371.399994 L 637.799988 371.399994" fill="#FFFFFF" transform="matrix(1.000000014901161, 0, 0, 1.000000014901161, 0, 0)"/><path d="M637.8,373.6h-40c-1.2,0-2.2-1-2.2-2.2c0-1.2,1-2.2,2.2-2.2h40c1.2,0,2.2,1,2.2,2.2C640,372.6,639,373.6,637.8,373.6z" transform="matrix(1.000000014901161, 0, 0, 1.000000014901161, 0, 0)"/><path d="M 126.400002 555.099976 H 172.200001 V 600.899975 H 126.400002 V 555.099976 Z" fill="#E6E7E8" transform="matrix(1.000000014901161, 0, 0, 1.000000014901161, 0, 0)"/><path d="M172.2,603.1h-45.8c-1.2,0-2.2-1-2.2-2.2v-45.8c0-1.2,1-2.2,2.2-2.2h45.8c1.2,0,2.2,1,2.2,2.2v45.8&#10;&#9;&#9;&#9;C174.4,602.1,173.4,603.1,172.2,603.1z M128.5,598.7H170v-41.5h-41.5V598.7z" transform="matrix(1.000000014901161, 0, 0, 1.000000014901161, 0, 0)"/><path d="M 204.399994 555.099976 H 250.199993 V 600.899975 H 204.399994 V 555.099976 Z" fill="#E6E7E8" transform="matrix(1.000000014901161, 0, 0, 1.000000014901161, 0, 0)"/><path d="M250.2,603.1h-45.8c-1.2,0-2.2-1-2.2-2.2v-45.8c0-1.2,1-2.2,2.2-2.2h45.8c1.2,0,2.2,1,2.2,2.2v45.8&#10;&#9;&#9;&#9;C252.4,602.1,251.4,603.1,250.2,603.1z M206.5,598.7H248v-41.5h-41.5V598.7z" transform="matrix(1.000000014901161, 0, 0, 1.000000014901161, 0, 0)"/><path d="M 282.399994 555.099976 H 328.199993 V 600.899975 H 282.399994 V 555.099976 Z" fill="#E6E7E8" transform="matrix(1.000000014901161, 0, 0, 1.000000014901161, 0, 0)"/><path d="M328.2,603.1h-45.8c-1.2,0-2.2-1-2.2-2.2v-45.8c0-1.2,1-2.2,2.2-2.2h45.8c1.2,0,2.2,1,2.2,2.2v45.8&#10;&#9;&#9;&#9;C330.4,602.1,329.4,603.1,328.2,603.1z M284.5,598.7H326v-41.5h-41.5V598.7z" transform="matrix(1.000000014901161, 0, 0, 1.000000014901161, 0, 0)"/><path d="M 126.400002 626.200012 H 172.200001 V 672.000011 H 126.400002 V 626.200012 Z" fill="#E6E7E8" transform="matrix(1.000000014901161, 0, 0, 1.000000014901161, 0, 0)"/><path d="M172.2,674.2h-45.8c-1.2,0-2.2-1-2.2-2.2v-45.8c0-1.2,1-2.2,2.2-2.2h45.8c1.2,0,2.2,1,2.2,2.2v45.8&#10;&#9;&#9;&#9;C174.4,673.3,173.4,674.2,172.2,674.2z M128.5,669.9H170v-41.5h-41.5V669.9z" transform="matrix(1.000000014901161, 0, 0, 1.000000014901161, 0, 0)"/><path d="M 121.300003 762.099976 H 177.300003 V 818.099976 H 121.300003 V 762.099976 Z" fill="#D5E4FF" transform="matrix(1.000000014901161, 0, 0, 1.000000014901161, 0, 0)"/><path d="M177.3,820.3h-56c-1.2,0-2.2-1-2.2-2.2v-56c0-1.2,1-2.2,2.2-2.2h56c1.2,0,2.2,1,2.2,2.2v56&#10;&#9;&#9;&#9;C179.4,819.3,178.5,820.3,177.3,820.3z M123.4,816h51.7v-51.7h-51.7V816z" transform="matrix(1.000000014901161, 0, 0, 1.000000014901161, 0, 0)"/><path d="M 1184.199951 282.200012 H 1224.49995 V 322.500011 H 1184.199951 V 282.200012 Z" fill="#D5E4FF" transform="matrix(1.000000014901161, 0, 0, 1.000000014901161, 0, 0)"/><path d="M1224.5,324.6h-40.3c-1.2,0-2.2-1-2.2-2.2v-40.3c0-1.2,1-2.2,2.2-2.2h40.3c1.2,0,2.2,1,2.2,2.2v40.3&#10;&#9;&#9;&#9;C1226.7,323.7,1225.7,324.6,1224.5,324.6z M1186.4,320.3h35.9v-35.9h-35.9V320.3z" transform="matrix(1.000000014901161, 0, 0, 1.000000014901161, 0, 0)"/><path d="M 204.399994 626.200012 H 250.199993 V 672.000011 H 204.399994 V 626.200012 Z" fill="#E6E7E8" transform="matrix(1.000000014901161, 0, 0, 1.000000014901161, 0, 0)"/><path d="M250.2,674.2h-45.8c-1.2,0-2.2-1-2.2-2.2v-45.8c0-1.2,1-2.2,2.2-2.2h45.8c1.2,0,2.2,1,2.2,2.2v45.8&#10;&#9;&#9;&#9;C252.4,673.3,251.4,674.2,250.2,674.2z M206.5,669.9H248v-41.5h-41.5V669.9z" transform="matrix(1.000000014901161, 0, 0, 1.000000014901161, 0, 0)"/><path d="M 282.399994 626.200012 H 328.199993 V 672.000011 H 282.399994 V 626.200012 Z" fill="#E6E7E8" transform="matrix(1.000000014901161, 0, 0, 1.000000014901161, 0, 0)"/><path d="M328.2,674.2h-45.8c-1.2,0-2.2-1-2.2-2.2v-45.8c0-1.2,1-2.2,2.2-2.2h45.8c1.2,0,2.2,1,2.2,2.2v45.8&#10;&#9;&#9;&#9;C330.4,673.3,329.4,674.2,328.2,674.2z M284.5,669.9H326v-41.5h-41.5V669.9z" transform="matrix(1.000000014901161, 0, 0, 1.000000014901161, 0, 0)"/><path fill="#231F20" d="M363.1,699.3H91.4c-1.2,0-2.2-1-2.2-2.2V530c0-1.2,1-2.2,2.2-2.2h271.7c1.2,0,2.2,1,2.2,2.2v167.1&#10;&#9;&#9;&#9;C365.3,698.3,364.3,699.3,363.1,699.3z M93.6,694.9H361V532.2H93.6V694.9z" transform="matrix(1.000000014901161, 0, 0, 1.000000014901161, 0, 0)"/><path fill="#231F20" d="M149.3,743.2c-1.2,0-2.2-1-2.2-2.2v-91.9c0-1.2,1-2.2,2.2-2.2c1.2,0,2.2,1,2.2,2.2v91.9&#10;&#9;&#9;&#9;C151.4,742.3,150.5,743.2,149.3,743.2z" transform="matrix(1.000000014901161, 0, 0, 1.000000014901161, 0, 0)"/><path fill="#231F20" d="M407.3,580.1H305.3c-1.2,0-2.2-1-2.2-2.2c0-1.2,1-2.2,2.2-2.2h102.1c1.2,0,2.2,1,2.2,2.2&#10;&#9;&#9;&#9;C409.5,579.2,408.5,580.1,407.3,580.1z" transform="matrix(1.000000014901161, 0, 0, 1.000000014901161, 0, 0)"/><path fill="#231F20" d="M407.3,651.3H305.3c-1.2,0-2.2-1-2.2-2.2s1-2.2,2.2-2.2h102.1c1.2,0,2.2,1,2.2,2.2&#10;&#9;&#9;&#9;S408.5,651.3,407.3,651.3z" transform="matrix(1.000000014901161, 0, 0, 1.000000014901161, 0, 0)"/><path fill="#FFF1C4" d="M363.2,530v-24.9c0-19-15.3-34.4-34.1-34.4H125.5c-18.8,0-34.1,15.4-34.1,34.4V530H363.2z" transform="matrix(1.000000014901161, 0, 0, 1.000000014901161, 0, 0)" style="fill: rgb(220, 232, 0);"/><path d="M363.2,532.2H91.4c-1.2,0-2.2-1-2.2-2.2v-24.9c0-20.2,16.3-36.6,36.3-36.6h203.6c20,0,36.3,16.4,36.3,36.6V530&#10;&#9;&#9;&#9;C365.4,531.2,364.4,532.2,363.2,532.2z M93.6,527.9h267.5v-22.7c0-17.8-14.3-32.2-31.9-32.2H125.5c-17.6,0-31.9,14.5-31.9,32.2&#10;&#9;&#9;&#9;V527.9z" transform="matrix(1.000000014901161, 0, 0, 1.000000014901161, 0, 0)"/><path d="M 432.8999938964844 594.5 L 461.6000061035156 544.7999877929688 L 490.3999938964844 594.5 Z" fill="#FFF1C4" transform="matrix(1.000000014901161, 0, 0, 1.000000014901161, 0, 0)"/><path d="M490.4,596.7C490.4,596.7,490.4,596.7,490.4,596.7h-57.5c-0.8,0-1.5-0.4-1.9-1.1s-0.4-1.5,0-2.2l28.7-49.7&#10;&#9;&#9;&#9;c0.4-0.7,1.1-1.1,1.9-1.1l0,0c0.8,0,1.5,0.4,1.9,1.1L492,593c0.4,0.4,0.6,0.9,0.6,1.5C492.6,595.7,491.6,596.7,490.4,596.7z&#10;&#9;&#9;&#9; M436.7,592.4h49.9l-24.9-43.2L436.7,592.4z" transform="matrix(1.000000014901161, 0, 0, 1.000000014901161, 0, 0)"/><path d="M 950 157.3000030517578 L 975 114.0999984741211 L 999.9000244140625 157.3000030517578 Z" fill="#FFF1C4" transform="matrix(1.000000014901161, 0, 0, 1.000000014901161, 0, 0)"/><path d="M1000,159.5C1000,159.5,1000,159.5,1000,159.5H950c-0.8,0-1.5-0.4-1.9-1.1c-0.4-0.7-0.4-1.5,0-2.2l25-43.3&#10;&#9;&#9;&#9;c0.4-0.7,1.1-1.1,1.9-1.1l0,0c0.8,0,1.5,0.4,1.9,1.1l24.7,42.8c0.4,0.4,0.6,0.9,0.6,1.5C1002.2,158.5,1001.2,159.5,1000,159.5z&#10;&#9;&#9;&#9; M953.7,155.2h42.5L975,118.4L953.7,155.2z" transform="matrix(1.000000014901161, 0, 0, 1.000000014901161, 0, 0)"/><path fill="#FFB6A6" d="M486.7,649.2c0,13.9-11.2,25.1-25.1,25.1c-13.9,0-25.1-11.2-25.1-25.1s11.2-25.1,25.1-25.1&#10;&#9;&#9;&#9;C475.5,624.1,486.7,635.3,486.7,649.2z" transform="matrix(1.000000014901161, 0, 0, 1.000000014901161, 0, 0)"/><path d="M461.6,676.4c-15,0-27.3-12.2-27.3-27.3s12.2-27.3,27.3-27.3c15,0,27.3,12.2,27.3,27.3S476.7,676.4,461.6,676.4z&#10;&#9;&#9;&#9; M461.6,626.2c-12.6,0-22.9,10.3-22.9,22.9c0,12.6,10.3,22.9,22.9,22.9c12.6,0,22.9-10.3,22.9-22.9&#10;&#9;&#9;&#9;C484.6,636.5,474.3,626.2,461.6,626.2z" transform="matrix(1.000000014901161, 0, 0, 1.000000014901161, 0, 0)"/><path fill="#FFB6A6" d="M1202.3,170.3c0,12.1-9.8,21.8-21.8,21.8c-12.1,0-21.8-9.8-21.8-21.8c0-12.1,9.8-21.8,21.8-21.8&#10;&#9;&#9;&#9;C1192.5,148.5,1202.3,158.2,1202.3,170.3z" transform="matrix(1.000000014901161, 0, 0, 1.000000014901161, 0, 0)"/><path d="M1180.5,194.3c-13.2,0-24-10.8-24-24c0-13.2,10.8-24,24-24c13.2,0,24,10.8,24,24C1204.5,183.5,1193.7,194.3,1180.5,194.3z&#10;&#9;&#9;&#9; M1180.5,150.6c-10.8,0-19.7,8.8-19.7,19.7c0,10.8,8.8,19.7,19.7,19.7c10.8,0,19.7-8.8,19.7-19.7&#10;&#9;&#9;&#9;C1200.1,159.5,1191.3,150.6,1180.5,150.6z" transform="matrix(1.000000014901161, 0, 0, 1.000000014901161, 0, 0)"/><path fill="#231F20" d="M342.5,767.6H204.4c-1.2,0-2.2-1-2.2-2.2c0-1.2,1-2.2,2.2-2.2h138.1c1.2,0,2.2,1,2.2,2.2&#10;&#9;&#9;&#9;C344.7,766.7,343.7,767.6,342.5,767.6z" transform="matrix(1.000000014901161, 0, 0, 1.000000014901161, 0, 0)"/><path fill="#231F20" d="M342.5,792.3H204.4c-1.2,0-2.2-1-2.2-2.2s1-2.2,2.2-2.2h138.1c1.2,0,2.2,1,2.2,2.2&#10;&#9;&#9;&#9;S343.7,792.3,342.5,792.3z" transform="matrix(1.000000014901161, 0, 0, 1.000000014901161, 0, 0)"/><path fill="#231F20" d="M342.5,816.9H204.4c-1.2,0-2.2-1-2.2-2.2s1-2.2,2.2-2.2h138.1c1.2,0,2.2,1,2.2,2.2&#10;&#9;&#9;&#9;S343.7,816.9,342.5,816.9z" transform="matrix(1.000000014901161, 0, 0, 1.000000014901161, 0, 0)"/><path fill="#231F20" d="M234,844.9H121.3c-1.2,0-2.2-1-2.2-2.2c0-1.2,1-2.2,2.2-2.2H234c1.2,0,2.2,1,2.2,2.2&#10;&#9;&#9;&#9;C236.1,843.9,235.2,844.9,234,844.9z" transform="matrix(1.000000014901161, 0, 0, 1.000000014901161, 0, 0)"/><path fill="#231F20" d="M342.5,868.6H121.3c-1.2,0-2.2-1-2.2-2.2s1-2.2,2.2-2.2h221.2c1.2,0,2.2,1,2.2,2.2&#10;&#9;&#9;&#9;S343.7,868.6,342.5,868.6z" transform="matrix(1.000000014901161, 0, 0, 1.000000014901161, 0, 0)"/><path fill="#231F20" d="M184,892.3h-62.8c-1.2,0-2.2-1-2.2-2.2s1-2.2,2.2-2.2H184c1.2,0,2.2,1,2.2,2.2S185.2,892.3,184,892.3z" transform="matrix(1.000000014901161, 0, 0, 1.000000014901161, 0, 0)"/><path fill="#231F20" d="M342.5,844.9h-74.4c-1.2,0-2.2-1-2.2-2.2c0-1.2,1-2.2,2.2-2.2h74.4c1.2,0,2.2,1,2.2,2.2&#10;&#9;&#9;&#9;C344.7,843.9,343.7,844.9,342.5,844.9z" transform="matrix(1.000000014901161, 0, 0, 1.000000014901161, 0, 0)"/><path d="M 95.900002 226.399994 H 136.400002 V 334.799995 H 95.900002 V 226.399994 Z" fill="#FFF1C4" transform="matrix(1.000000014901161, 0, 0, 1.000000014901161, 0, 0)"/><path d="M136.4,337H95.9c-1.2,0-2.2-1-2.2-2.2V226.4c0-1.2,1-2.2,2.2-2.2h40.5c1.2,0,2.2,1,2.2,2.2v108.4&#10;&#9;&#9;&#9;C138.6,336,137.6,337,136.4,337z M98.1,332.6h36.1V228.5H98.1V332.6z" transform="matrix(1.000000014901161, 0, 0, 1.000000014901161, 0, 0)"/><path d="M 290.200012 282.200012 H 330.700012 V 334.800011 H 290.200012 V 282.200012 Z" fill="#FFFAEA" transform="matrix(1.000000014901161, 0, 0, 1.000000014901161, 0, 0)"/><path d="M330.6,337h-40.5c-1.2,0-2.2-1-2.2-2.2v-52.6c0-1.2,1-2.2,2.2-2.2h40.5c1.2,0,2.2,1,2.2,2.2v52.6&#10;&#9;&#9;&#9;C332.8,336,331.8,337,330.6,337z M292.3,332.6h36.1v-48.2h-36.1V332.6z" transform="matrix(1.000000014901161, 0, 0, 1.000000014901161, 0, 0)"/><path d="M 160.6999969482422 138.60000610351562 L 160.6999969482422 178.8000030517578 L 160.6999969482422 202.1999969482422 L 160.6999969482422 334.79998779296875 L 201.10000610351562 334.79998779296875 L 201.10000610351562 202.1999969482422 L 201.10000610351562 178.8000030517578 L 201.10000610351562 138.60000610351562 Z" fill="#FFB6A6" transform="matrix(1.000000014901161, 0, 0, 1.000000014901161, 0, 0)"/><path d="M201.1,337h-40.5c-1.2,0-2.2-1-2.2-2.2V138.6c0-1.2,1-2.2,2.2-2.2h40.5c1.2,0,2.2,1,2.2,2.2v196.2&#10;&#9;&#9;&#9;C203.3,336,202.3,337,201.1,337z M162.9,332.6H199V140.7h-36.1V332.6z" transform="matrix(1.000000014901161, 0, 0, 1.000000014901161, 0, 0)"/><path d="M 225.39999389648438 89 L 225.39999389648438 178.8000030517578 L 225.39999389648438 202.1999969482422 L 225.39999389648438 334.79998779296875 L 265.8999938964844 334.79998779296875 L 265.8999938964844 202.1999969482422 L 265.8999938964844 178.8000030517578 L 265.8999938964844 89 Z" fill="#EAF7FF" transform="matrix(1.000000014901161, 0, 0, 1.000000014901161, 0, 0)"/><path d="M265.9,337h-40.5c-1.2,0-2.2-1-2.2-2.2V89c0-1.2,1-2.2,2.2-2.2h40.5c1.2,0,2.2,1,2.2,2.2v245.8&#10;&#9;&#9;&#9;C268,336,267.1,337,265.9,337z M227.6,332.6h36.1V91.2h-36.1V332.6z" transform="matrix(1.000000014901161, 0, 0, 1.000000014901161, 0, 0)"/><path d="M 354.8999938964844 148.89999389648438 L 354.8999938964844 178.8000030517578 L 354.8999938964844 202.1999969482422 L 354.8999938964844 334.79998779296875 L 395.29998779296875 334.79998779296875 L 395.29998779296875 202.1999969482422 L 395.29998779296875 178.8000030517578 L 395.29998779296875 148.89999389648438 Z" fill="#D5E4FF" transform="matrix(1.000000014901161, 0, 0, 1.000000014901161, 0, 0)"/><path d="M395.3,337h-40.5c-1.2,0-2.2-1-2.2-2.2V148.9c0-1.2,1-2.2,2.2-2.2h40.5c1.2,0,2.2,1,2.2,2.2v185.9&#10;&#9;&#9;&#9;C397.5,336,396.5,337,395.3,337z M357.1,332.6h36.1V151.1h-36.1V332.6z" transform="matrix(1.000000014901161, 0, 0, 1.000000014901161, 0, 0)"/><path d="M395.3,379.8H95.9c-1.2,0-2.2-1-2.2-2.2c0-1.2,1-2.2,2.2-2.2h299.4c1.2,0,2.2,1,2.2,2.2&#10;&#9;&#9;&#9;C397.5,378.9,396.5,379.8,395.3,379.8z" transform="matrix(1.000000014901161, 0, 0, 1.000000014901161, 0, 0)"/><path d="M234,419.5h-138c-1.2,0-2.2-1-2.2-2.2s1-2.2,2.2-2.2h138c1.2,0,2.2,1,2.2,2.2S235.2,419.5,234,419.5z" transform="matrix(1.000000014901161, 0, 0, 1.000000014901161, 0, 0)"/><path d="M136.4,250h-20.2c-1.2,0-2.2-1-2.2-2.2c0-1.2,1-2.2,2.2-2.2h20.2c1.2,0,2.2,1,2.2,2.2C138.6,249,137.6,250,136.4,250z" transform="matrix(1.000000014901161, 0, 0, 1.000000014901161, 0, 0)"/><path d="M201.1,162.2h-20.2c-1.2,0-2.2-1-2.2-2.2c0-1.2,1-2.2,2.2-2.2h20.2c1.2,0,2.2,1,2.2,2.2&#10;&#9;&#9;&#9;C203.3,161.2,202.3,162.2,201.1,162.2z" transform="matrix(1.000000014901161, 0, 0, 1.000000014901161, 0, 0)"/><path d="M265.9,112.7h-20.2c-1.2,0-2.2-1-2.2-2.2c0-1.2,1-2.2,2.2-2.2h20.2c1.2,0,2.2,1,2.2,2.2&#10;&#9;&#9;&#9;C268,111.7,267.1,112.7,265.9,112.7z" transform="matrix(1.000000014901161, 0, 0, 1.000000014901161, 0, 0)"/><path d="M330.6,305.9h-20.2c-1.2,0-2.2-1-2.2-2.2c0-1.2,1-2.2,2.2-2.2h20.2c1.2,0,2.2,1,2.2,2.2&#10;&#9;&#9;&#9;C332.8,304.9,331.8,305.9,330.6,305.9z" transform="matrix(1.000000014901161, 0, 0, 1.000000014901161, 0, 0)"/><path d="M395.3,172.6h-20.2c-1.2,0-2.2-1-2.2-2.2c0-1.2,1-2.2,2.2-2.2h20.2c1.2,0,2.2,1,2.2,2.2&#10;&#9;&#9;&#9;C397.5,171.6,396.5,172.6,395.3,172.6z" transform="matrix(1.000000014901161, 0, 0, 1.000000014901161, 0, 0)"/><path fill="#E6E7E8" d="M1131.7,336.4c0.5-3.6,0.7-7.3,0.7-11.1c0-23.6-9.6-45-25.1-60.5l-60.5,60.5L1131.7,336.4z" transform="matrix(1.000000014901161, 0, 0, 1.000000014901161, 0, 0)"/><path d="M1131.7,338.5c-0.1,0-0.2,0-0.3,0l-84.9-11.1c-0.8-0.1-1.5-0.7-1.8-1.5c-0.3-0.8-0.1-1.6,0.5-2.2l60.5-60.5&#10;&#9;&#9;&#9;c0.8-0.8,2.2-0.8,3.1,0c16.6,16.6,25.7,38.6,25.7,62.1c0,3.7-0.2,7.4-0.8,11.3c-0.1,0.6-0.4,1.1-0.8,1.4&#10;&#9;&#9;&#9;C1132.6,338.4,1132.2,338.5,1131.7,338.5z M1051.5,323.7l78.3,10.2c0.3-3,0.5-5.8,0.5-8.6c0-21.6-8.1-41.9-22.9-57.4L1051.5,323.7&#10;&#9;&#9;&#9;z" transform="matrix(1.000000014901161, 0, 0, 1.000000014901161, 0, 0)"/><path fill="#FFB6A6" d="M1046.8,223.7c-20.6,0-39.7,6.2-55.8,16.7l8.8,13.4l47,71.6l60.5-60.5l11.3-11.3&#10;&#9;&#9;&#9;C1100.3,235,1074.9,223.7,1046.8,223.7z" transform="matrix(1.000000014901161, 0, 0, 1.000000014901161, 0, 0)"/><path d="M1046.8,327.5c-0.1,0-0.1,0-0.2,0c-0.6-0.1-1.2-0.4-1.6-1l-55.8-84.9c-0.7-1-0.4-2.3,0.6-3c17-11.2,36.7-17.1,57-17.1&#10;&#9;&#9;&#9;c27.7,0,53.8,10.8,73.4,30.4c0.8,0.8,0.8,2.2,0,3.1l-71.9,71.9C1047.9,327.2,1047.4,327.5,1046.8,327.5z M994.1,241l53.1,80.9&#10;&#9;&#9;&#9;l68.4-68.4c-18.6-17.8-42.9-27.6-68.8-27.6C1028.1,225.8,1009.9,231.1,994.1,241z" transform="matrix(1.000000014901161, 0, 0, 1.000000014901161, 0, 0)"/><path d="M1046.8,327.5c-0.7,0-1.4-0.3-1.8-1l-47-71.6c-0.2-0.4-0.4-0.8-0.4-1.2c0-0.7,0.3-1.4,1-1.8c1-0.7,2.3-0.4,3,0.6l47,71.6&#10;&#9;&#9;&#9;c0.2,0.4,0.4,0.8,0.4,1.2c0,0.7-0.3,1.4-1,1.8C1047.6,327.4,1047.2,327.5,1046.8,327.5z" transform="matrix(1.000000014901161, 0, 0, 1.000000014901161, 0, 0)"/><path fill="#FFF1C4" d="M999.8,253.7c-23.3,15.3-38.6,41.6-38.6,71.6c0,23.6,9.6,45,25.1,60.5l60.5-60.5L999.8,253.7z" transform="matrix(1.000000014901161, 0, 0, 1.000000014901161, 0, 0)"/><path d="M986.3,388c-0.6,0-1.1-0.2-1.5-0.6c-16.6-16.6-25.7-38.6-25.7-62.1c0-29.6,14.8-57.1,39.6-73.4c0.5-0.3,1.1-0.4,1.6-0.3&#10;&#9;&#9;&#9;c0.6,0.1,1.1,0.4,1.4,0.9l47,71.6c0.6,0.9,0.4,2-0.3,2.7l-60.5,60.5C987.4,387.8,986.8,388,986.3,388z M999.2,256.8&#10;&#9;&#9;&#9;c-22.5,15.6-35.9,41.1-35.9,68.5c0,21.6,8.1,41.9,22.9,57.4L1044,325L999.2,256.8z" transform="matrix(1.000000014901161, 0, 0, 1.000000014901161, 0, 0)"/><path d="M1131.7,338.5c-0.1,0-0.2,0-0.3,0l-84.9-11.1c-1.1-0.1-1.9-1.1-1.9-2.1c0-0.1,0-0.2,0-0.3c0.2-1.2,1.2-2,2.4-1.9&#10;&#9;&#9;&#9;l84.9,11.1c1.1,0.1,1.9,1.1,1.9,2.1c0,0.1,0,0.2,0,0.3C1133.7,337.7,1132.8,338.5,1131.7,338.5z" transform="matrix(1.000000014901161, 0, 0, 1.000000014901161, 0, 0)"/><path fill="#D5E4FF" d="M1131.7,336.4l-84.9-11.1l-60.5,60.5l-11.3,11.3c18.4,18.4,43.8,29.8,71.9,29.8&#10;&#9;&#9;&#9;c51.7,0,94.2-38.6,100.7-88.5L1131.7,336.4z" transform="matrix(1.000000014901161, 0, 0, 1.000000014901161, 0, 0)"/><path d="M1046.8,429.1c-27.7,0-53.8-10.8-73.4-30.4c-0.8-0.8-0.8-2.2,0-3.1l71.9-71.9c0.5-0.5,1.2-0.7,1.8-0.6l100.7,13.1&#10;&#9;&#9;&#9;c1.2,0.2,2,1.2,1.9,2.4C1143,390.2,1098.8,429.1,1046.8,429.1z M978,397.2c18.6,17.8,42.9,27.6,68.8,27.6&#10;&#9;&#9;&#9;c49.1,0,90.9-36.2,98.2-84.5l-97.5-12.7L978,397.2z" transform="matrix(1.000000014901161, 0, 0, 1.000000014901161, 0, 0)"/><path d="M1112.9,261.4c-0.6,0-1.1-0.2-1.5-0.6c-0.8-0.8-0.8-2.2,0-3.1l47.8-47.8c0.4-0.4,1-0.6,1.5-0.6h131.5c1.2,0,2.2,1,2.2,2.2&#10;&#9;&#9;&#9;s-1,2.2-2.2,2.2h-130.6l-47.2,47.2C1114,261.2,1113.4,261.4,1112.9,261.4z" transform="matrix(1.000000014901161, 0, 0, 1.000000014901161, 0, 0)"/><path d="M1313.6,345.2h-130.5l-84.2-11c-1.2-0.2-2-1.2-1.9-2.4c0.2-1.2,1.2-2.1,2.4-1.9l83.9,10.9l130.2,0c1.2,0,2.2,1,2.2,2.2&#10;&#9;&#9;&#9;C1315.8,344.3,1314.8,345.2,1313.6,345.2z" transform="matrix(1.000000014901161, 0, 0, 1.000000014901161, 0, 0)"/><path d="M991.1,242.5c-0.7,0-1.4-0.3-1.8-1l-39.6-60.3c-0.4-0.7-0.5-1.5-0.1-2.2c0.4-0.7,1.1-1.1,1.9-1.1h135.7&#10;&#9;&#9;&#9;c1.2,0,2.2,1,2.2,2.2s-1,2.2-2.2,2.2H955.5l37.4,56.9c0.7,1,0.4,2.3-0.6,3C991.9,242.4,991.5,242.5,991.1,242.5z" transform="matrix(1.000000014901161, 0, 0, 1.000000014901161, 0, 0)"/><path fill="#231F20" d="M1087.2,159.5h-66.4c-1.2,0-2.2-1-2.2-2.2c0-1.2,1-2.2,2.2-2.2h66.4c1.2,0,2.2,1,2.2,2.2&#10;&#9;&#9;&#9;C1089.4,158.5,1088.4,159.5,1087.2,159.5z" transform="matrix(1.000000014901161, 0, 0, 1.000000014901161, 0, 0)"/><path fill="#231F20" d="M1292.2,192.7h-66.4c-1.2,0-2.2-1-2.2-2.2s1-2.2,2.2-2.2h66.4c1.2,0,2.2,1,2.2,2.2&#10;&#9;&#9;&#9;S1293.4,192.7,1292.2,192.7z" transform="matrix(1.000000014901161, 0, 0, 1.000000014901161, 0, 0)"/><path fill="#231F20" d="M1313.6,324.6h-66.4c-1.2,0-2.2-1-2.2-2.2s1-2.2,2.2-2.2h66.4c1.2,0,2.2,1,2.2,2.2&#10;&#9;&#9;&#9;S1314.8,324.6,1313.6,324.6z" transform="matrix(1.000000014901161, 0, 0, 1.000000014901161, 0, 0)"/><path fill="#231F20" d="M1313.6,304.5h-66.4c-1.2,0-2.2-1-2.2-2.2s1-2.2,2.2-2.2h66.4c1.2,0,2.2,1,2.2,2.2&#10;&#9;&#9;&#9;S1314.8,304.5,1313.6,304.5z" transform="matrix(1.000000014901161, 0, 0, 1.000000014901161, 0, 0)"/><path fill="#231F20" d="M1313.6,284.4h-66.4c-1.2,0-2.2-1-2.2-2.2s1-2.2,2.2-2.2h66.4c1.2,0,2.2,1,2.2,2.2&#10;&#9;&#9;&#9;S1314.8,284.4,1313.6,284.4z" transform="matrix(1.000000014901161, 0, 0, 1.000000014901161, 0, 0)"/><path fill="#231F20" d="M1292.2,172.5h-66.4c-1.2,0-2.2-1-2.2-2.2c0-1.2,1-2.2,2.2-2.2h66.4c1.2,0,2.2,1,2.2,2.2&#10;&#9;&#9;&#9;C1294.4,171.5,1293.4,172.5,1292.2,172.5z" transform="matrix(1.000000014901161, 0, 0, 1.000000014901161, 0, 0)"/><path fill="#231F20" d="M1292.2,152.2h-66.4c-1.2,0-2.2-1-2.2-2.2c0-1.2,1-2.2,2.2-2.2h66.4c1.2,0,2.2,1,2.2,2.2&#10;&#9;&#9;&#9;C1294.4,151.2,1293.4,152.2,1292.2,152.2z" transform="matrix(1.000000014901161, 0, 0, 1.000000014901161, 0, 0)"/><path fill="#231F20" d="M1087.2,137.9h-66.4c-1.2,0-2.2-1-2.2-2.2c0-1.2,1-2.2,2.2-2.2h66.4c1.2,0,2.2,1,2.2,2.2&#10;&#9;&#9;&#9;C1089.4,136.9,1088.4,137.9,1087.2,137.9z" transform="matrix(1.000000014901161, 0, 0, 1.000000014901161, 0, 0)"/><path fill="#231F20" d="M1087.2,116.2h-66.4c-1.2,0-2.2-1-2.2-2.2c0-1.2,1-2.2,2.2-2.2h66.4c1.2,0,2.2,1,2.2,2.2&#10;&#9;&#9;&#9;C1089.4,115.3,1088.4,116.2,1087.2,116.2z" transform="matrix(1.000000014901161, 0, 0, 1.000000014901161, 0, 0)"/><path d="M1204.4,569.2H949.2c-1.2,0-2.2-1-2.2-2.2s1-2.2,2.2-2.2h254.3l84.4-84.5c0.8-0.8,2.2-0.8,3.1,0c0.8,0.8,0.8,2.2,0,3.1&#10;&#9;&#9;&#9;l-85.1,85.1C1205.5,568.9,1204.9,569.2,1204.4,569.2z" transform="matrix(1.000000014901161, 0, 0, 1.000000014901161, 0, 0)"/><path d="M1289.5,531c-1.2,0-2.2-1-2.2-2.2v-44.8h-44.8c-1.2,0-2.2-1-2.2-2.2c0-1.2,1-2.2,2.2-2.2h46.9c1.2,0,2.2,1,2.2,2.2v46.9&#10;&#9;&#9;&#9;C1291.6,530,1290.7,531,1289.5,531z" transform="matrix(1.000000014901161, 0, 0, 1.000000014901161, 0, 0)"/><path d="M 949.200012 533.799988 H 1171.300018 V 547.699987 H 949.200012 V 533.799988 Z" fill="#FFB6A6" transform="matrix(1.000000014901161, 0, 0, 1.000000014901161, 0, 0)"/><path d="M1171.3,549.9H949.2c-1.2,0-2.2-1-2.2-2.2v-13.9c0-1.2,1-2.2,2.2-2.2h222.1c1.2,0,2.2,1,2.2,2.2v13.9&#10;&#9;&#9;&#9;C1173.5,548.9,1172.5,549.9,1171.3,549.9z M951.3,545.5h217.8V536H951.3V545.5z" transform="matrix(1.000000014901161, 0, 0, 1.000000014901161, 0, 0)"/><path d="M 949.200012 501.100006 H 1171.300018 V 515.000006 H 949.200012 V 501.100006 Z" fill="#EAF7FF" transform="matrix(1.000000014901161, 0, 0, 1.000000014901161, 0, 0)"/><path d="M1171.3,517.2H949.2c-1.2,0-2.2-1-2.2-2.2v-13.9c0-1.2,1-2.2,2.2-2.2h222.1c1.2,0,2.2,1,2.2,2.2V515&#10;&#9;&#9;&#9;C1173.5,516.2,1172.5,517.2,1171.3,517.2z M951.3,512.8h217.8v-9.5H951.3V512.8z" transform="matrix(1.000000014901161, 0, 0, 1.000000014901161, 0, 0)"/><path d="M 949.200012 468.399994 H 1171.300018 V 482.299994 H 949.200012 V 468.399994 Z" fill="#FFF1C4" transform="matrix(1.000000014901161, 0, 0, 1.000000014901161, 0, 0)"/><path d="M1171.3,484.5H949.2c-1.2,0-2.2-1-2.2-2.2v-13.9c0-1.2,1-2.2,2.2-2.2h222.1c1.2,0,2.2,1,2.2,2.2v13.9&#10;&#9;&#9;&#9;C1173.5,483.5,1172.5,484.5,1171.3,484.5z M951.3,480.1h217.8v-9.5H951.3V480.1z" transform="matrix(1.000000014901161, 0, 0, 1.000000014901161, 0, 0)"/><path d="M1301.4,892.3h-240.1c-1.2,0-2.2-1-2.2-2.2V648.2c0-1.2,1-2.2,2.2-2.2h240.1c1.2,0,2.2,1,2.2,2.2v241.9&#10;&#9;&#9;&#9;C1303.5,891.3,1302.6,892.3,1301.4,892.3z M1063.4,887.9h235.8V650.3h-235.8V887.9z" transform="matrix(1.000000014901161, 0, 0, 1.000000014901161, 0, 0)"/><path d="M 1089.099976 678.099976 H 1271.899979 V 815.199982 H 1089.099976 V 678.099976 Z" fill="#EAF7FF" transform="matrix(1.000000014901161, 0, 0, 1.000000014901161, 0, 0)"/><path d="M1271.9,817.3h-182.8c-1.2,0-2.2-1-2.2-2.2V678.1c0-1.2,1-2.2,2.2-2.2h182.8c1.2,0,2.2,1,2.2,2.2v137.1&#10;&#9;&#9;&#9;C1274,816.4,1273.1,817.3,1271.9,817.3z M1091.3,813h178.4V680.2h-178.4V813z" transform="matrix(1.000000014901161, 0, 0, 1.000000014901161, 0, 0)"/><path d="M 1245.699951 771 H 1271.799952 V 815.099998 H 1245.699951 V 771 Z" fill="#FFB6A6" transform="matrix(1.000000014901161, 0, 0, 1.000000014901161, 0, 0)"/><path d="M1271.9,817.3h-26.1c-1.2,0-2.2-1-2.2-2.2V771c0-1.2,1-2.2,2.2-2.2h26.1c1.2,0,2.2,1,2.2,2.2v44.1&#10;&#9;&#9;&#9;C1274,816.4,1273.1,817.3,1271.9,817.3z M1247.9,813h21.8v-39.8h-21.8V813z" transform="matrix(1.000000014901161, 0, 0, 1.000000014901161, 0, 0)"/><path d="M 1219.599976 708.200012 H 1245.699976 V 815.200012 H 1219.599976 V 708.200012 Z" fill="#FFB6A6" transform="matrix(1.000000014901161, 0, 0, 1.000000014901161, 0, 0)"/><path d="M1245.7,817.3h-26.1c-1.2,0-2.2-1-2.2-2.2v-107c0-1.2,1-2.2,2.2-2.2h26.1c1.2,0,2.2,1,2.2,2.2v107&#10;&#9;&#9;&#9;C1247.9,816.4,1246.9,817.3,1245.7,817.3z M1221.8,813h21.8V710.4h-21.8V813z" transform="matrix(1.000000014901161, 0, 0, 1.000000014901161, 0, 0)"/><path d="M 1193.5 750.900024 H 1219.6 V 815.100021 H 1193.5 V 750.900024 Z" fill="#FFB6A6" transform="matrix(1.000000014901161, 0, 0, 1.000000014901161, 0, 0)"/><path d="M1219.6,817.3h-26.1c-1.2,0-2.2-1-2.2-2.2v-64.2c0-1.2,1-2.2,2.2-2.2h26.1c1.2,0,2.2,1,2.2,2.2v64.2&#10;&#9;&#9;&#9;C1221.8,816.4,1220.8,817.3,1219.6,817.3z M1195.7,813h21.8v-59.9h-21.8V813z" transform="matrix(1.000000014901161, 0, 0, 1.000000014901161, 0, 0)"/><path d="M 1167.400024 780.900024 H 1193.500025 V 815.200024 H 1167.400024 V 780.900024 Z" fill="#FFB6A6" transform="matrix(1.000000014901161, 0, 0, 1.000000014901161, 0, 0)"/><path d="M1193.5,817.3h-26.1c-1.2,0-2.2-1-2.2-2.2v-34.3c0-1.2,1-2.2,2.2-2.2h26.1c1.2,0,2.2,1,2.2,2.2v34.3&#10;&#9;&#9;&#9;C1195.7,816.4,1194.7,817.3,1193.5,817.3z M1169.6,813h21.8v-29.9h-21.8V813z" transform="matrix(1.000000014901161, 0, 0, 1.000000014901161, 0, 0)"/><path d="M 1141.300049 750.900024 H 1167.400049 V 815.100021 H 1141.300049 V 750.900024 Z" fill="#FFB6A6" transform="matrix(1.000000014901161, 0, 0, 1.000000014901161, 0, 0)"/><path d="M1167.4,817.3h-26.1c-1.2,0-2.2-1-2.2-2.2v-64.2c0-1.2,1-2.2,2.2-2.2h26.1c1.2,0,2.2,1,2.2,2.2v64.2&#10;&#9;&#9;&#9;C1169.6,816.4,1168.6,817.3,1167.4,817.3z M1143.5,813h21.8v-59.9h-21.8V813z" transform="matrix(1.000000014901161, 0, 0, 1.000000014901161, 0, 0)"/><path d="M 1115.199951 729.400024 H 1141.299952 V 815.200027 H 1115.199951 V 729.400024 Z" fill="#FFB6A6" transform="matrix(1.000000014901161, 0, 0, 1.000000014901161, 0, 0)"/><path d="M1141.3,817.3h-26.1c-1.2,0-2.2-1-2.2-2.2v-85.8c0-1.2,1-2.2,2.2-2.2h26.1c1.2,0,2.2,1,2.2,2.2v85.8&#10;&#9;&#9;&#9;C1143.5,816.4,1142.5,817.3,1141.3,817.3z M1117.4,813h21.8v-81.5h-21.8V813z" transform="matrix(1.000000014901161, 0, 0, 1.000000014901161, 0, 0)"/><path d="M 1089.099976 783 H 1115.199976 V 815.099998 H 1089.099976 V 783 Z" fill="#FFB6A6" transform="matrix(1.000000014901161, 0, 0, 1.000000014901161, 0, 0)"/><path d="M1115.2,817.3h-26.1c-1.2,0-2.2-1-2.2-2.2V783c0-1.2,1-2.2,2.2-2.2h26.1c1.2,0,2.2,1,2.2,2.2v32.1&#10;&#9;&#9;&#9;C1117.4,816.4,1116.4,817.3,1115.2,817.3z M1091.3,813h21.8v-27.8h-21.8V813z" transform="matrix(1.000000014901161, 0, 0, 1.000000014901161, 0, 0)"/><path d="M1271.9,855.2h-39.2c-1.2,0-2.2-1-2.2-2.2s1-2.2,2.2-2.2h39.2c1.2,0,2.2,1,2.2,2.2S1273.1,855.2,1271.9,855.2z" transform="matrix(1.000000014901161, 0, 0, 1.000000014901161, 0, 0)"/><path d="M1203.9,855.2h-114.8c-1.2,0-2.2-1-2.2-2.2s1-2.2,2.2-2.2h114.8c1.2,0,2.2,1,2.2,2.2S1205.1,855.2,1203.9,855.2z" transform="matrix(1.000000014901161, 0, 0, 1.000000014901161, 0, 0)"/><g transform="matrix(1.000000014901161, 0, 0, 1.000000014901161, 0, 0)">
			<path d="M1096.3,858.4c-0.2,0-0.5,0-0.7-0.1L960.4,812c-1.1-0.4-1.7-1.6-1.4-2.7l44.7-135.1l-133.1-45.6&#10;&#9;&#9;&#9;&#9;c-1.1-0.4-1.7-1.6-1.4-2.8c0.4-1.1,1.6-1.7,2.8-1.3l135.2,46.3c1.1,0.4,1.7,1.6,1.4,2.7l-44.7,135.1l133.1,45.6&#10;&#9;&#9;&#9;&#9;c1.1,0.4,1.7,1.6,1.3,2.8C1098,857.8,1097.2,858.4,1096.3,858.4z"/>
		</g><path fill="#D5E4FF" d="M894.7,626.4c0,12.9-10.5,23.4-23.4,23.4c-12.9,0-23.4-10.5-23.4-23.4c0-12.9,10.5-23.4,23.4-23.4&#10;&#9;&#9;&#9;&#9;C884.2,603,894.7,613.5,894.7,626.4z" transform="matrix(1.000000014901161, 0, 0, 1.000000014901161, 0, 0)"/><path d="M871.3,652c-14.1,0-25.6-11.5-25.6-25.6c0-14.1,11.5-25.6,25.6-25.6c14.1,0,25.6,11.5,25.6,25.6&#10;&#9;&#9;&#9;&#9;C896.8,640.5,885.4,652,871.3,652z M871.3,605.2c-11.7,0-21.2,9.5-21.2,21.2c0,11.7,9.5,21.2,21.2,21.2&#10;&#9;&#9;&#9;&#9;c11.7,0,21.2-9.5,21.2-21.2C892.5,614.7,883,605.2,871.3,605.2z" transform="matrix(1.000000014901161, 0, 0, 1.000000014901161, 0, 0)"/><path fill="#D5E4FF" d="M1028.1,674.4c0,12.9-10.5,23.4-23.4,23.4c-12.9,0-23.4-10.5-23.4-23.4c0-12.9,10.5-23.4,23.4-23.4&#10;&#9;&#9;&#9;&#9;C1017.6,651,1028.1,661.5,1028.1,674.4z" transform="matrix(1.000000014901161, 0, 0, 1.000000014901161, 0, 0)"/><path d="M1004.7,700c-14.1,0-25.6-11.5-25.6-25.6c0-14.1,11.5-25.6,25.6-25.6c14.1,0,25.6,11.5,25.6,25.6&#10;&#9;&#9;&#9;&#9;C1030.2,688.5,1018.8,700,1004.7,700z M1004.7,653.2c-11.7,0-21.2,9.5-21.2,21.2c0,11.7,9.5,21.2,21.2,21.2&#10;&#9;&#9;&#9;&#9;c11.7,0,21.2-9.5,21.2-21.2C1025.9,662.7,1016.4,653.2,1004.7,653.2z" transform="matrix(1.000000014901161, 0, 0, 1.000000014901161, 0, 0)"/><path fill="#D5E4FF" d="M986.2,808.2c0,12.9-10.5,23.4-23.4,23.4c-12.9,0-23.4-10.5-23.4-23.4c0-12.9,10.5-23.4,23.4-23.4&#10;&#9;&#9;&#9;&#9;C975.7,784.8,986.2,795.3,986.2,808.2z" transform="matrix(1.000000014901161, 0, 0, 1.000000014901161, 0, 0)"/><path d="M962.8,833.8c-14.1,0-25.6-11.5-25.6-25.6c0-14.1,11.5-25.6,25.6-25.6c14.1,0,25.6,11.5,25.6,25.6&#10;&#9;&#9;&#9;&#9;C988.3,822.3,976.9,833.8,962.8,833.8z M962.8,787c-11.7,0-21.2,9.5-21.2,21.2c0,11.7,9.5,21.2,21.2,21.2&#10;&#9;&#9;&#9;&#9;c11.7,0,21.2-9.5,21.2-21.2C984,796.5,974.5,787,962.8,787z" transform="matrix(1.000000014901161, 0, 0, 1.000000014901161, 0, 0)"/><path fill="#D5E4FF" d="M1119.7,856.2c0,12.9-10.5,23.4-23.4,23.4c-12.9,0-23.4-10.5-23.4-23.4c0-12.9,10.5-23.4,23.4-23.4&#10;&#9;&#9;&#9;&#9;C1109.2,832.8,1119.7,843.3,1119.7,856.2z" transform="matrix(1.000000014901161, 0, 0, 1.000000014901161, 0, 0)"/><path d="M1096.3,881.8c-14.1,0-25.6-11.5-25.6-25.6c0-14.1,11.5-25.6,25.6-25.6s25.6,11.5,25.6,25.6&#10;&#9;&#9;&#9;&#9;C1121.8,870.3,1110.4,881.8,1096.3,881.8z M1096.3,835c-11.7,0-21.2,9.5-21.2,21.2c0,11.7,9.5,21.2,21.2,21.2s21.2-9.5,21.2-21.2&#10;&#9;&#9;&#9;&#9;C1117.5,844.5,1108,835,1096.3,835z" transform="matrix(1.000000014901161, 0, 0, 1.000000014901161, 0, 0)"/>
</svg>