<?xml version="1.0" encoding="UTF-8" standalone="no"?>
<svg
   xmlns:dc="http://purl.org/dc/elements/1.1/"
   xmlns:cc="http://creativecommons.org/ns#"
   xmlns:rdf="http://www.w3.org/1999/02/22-rdf-syntax-ns#"
   xmlns:svg="http://www.w3.org/2000/svg"
   xmlns="http://www.w3.org/2000/svg"
   viewBox="0 0 1866.6667 1306.6667"
   height="1306.6667"
   width="1866.6667"
   xml:space="preserve"
   id="svg2"
   version="1.1"><metadata
     id="metadata8"><rdf:RDF><cc:Work
         rdf:about=""><dc:format>image/svg+xml</dc:format><dc:type
           rdf:resource="http://purl.org/dc/dcmitype/StillImage" /></cc:Work></rdf:RDF></metadata><defs
     id="defs6" /><g
     transform="matrix(1.3333333,0,0,-1.3333333,0,1306.6667)"
     id="g10"><g
       transform="scale(0.1)"
       id="g12"><path
         id="path14"
         style="fill:#b56cbd;fill-opacity:1;fill-rule:nonzero;stroke:none"
         d="M 0,9800 V 0 H 14000 V 9800 H 0" /><path
         id="path16"
         style="fill:#fab82b;fill-opacity:1;fill-rule:nonzero;stroke:none"
         d="m 12737.3,8468.44 c -247.3,0 -448.5,201.19 -448.5,448.52 0,247.35 201.2,448.57 448.5,448.57 247.3,0 448.5,-201.22 448.5,-448.57 0,-247.33 -201.2,-448.52 -448.5,-448.52" /><path
         id="path18"
         style="fill:#4d2559;fill-opacity:1;fill-rule:nonzero;stroke:none"
         d="m 12585,8661.55 v 541.98 l 428.2,-270.99 z" /><path
         id="path20"
         style="fill:#ffffff;fill-opacity:1;fill-rule:nonzero;stroke:none"
         d="m 12144.6,6176.04 -8.7,-0.09 c -335.9,0 -610.6,276.14 -612.3,615.49 -0.9,166.76 63.1,323.44 179.9,441.1 115.8,116.61 270,180.96 434.1,181.2 h 1.1 c 330.4,0 612,-279.14 614.9,-609.56 3,-341.62 -270.2,-623.36 -609,-628.14 z m 1044.2,450.63 -0.1,0.05 c -129.8,46.98 -183.5,101.99 -185.2,189.95 -1.4,65.49 16.3,146.96 166,195.4 l 0.2,0.09 c 47,15.19 70.4,67.86 50.2,112.92 l -114.7,255.04 c -19.5,43.45 -71.5,61.56 -113.8,39.6 l -0.3,-0.13 c -117.5,-61.19 -192,-61.19 -263.1,10.06 -51.5,51.52 -74,114.33 -16.4,253.41 v 0.18 c 17.7,42.68 -2.9,91.58 -45.8,108.75 l -254.1,101.68 c -44.1,17.66 -94,-5.33 -109.3,-50.36 l -0.1,-0.14 c -53.7,-158.64 -124.1,-181.69 -197,-183.07 -64.3,0 -131.9,20.53 -190.6,169.19 l -0.1,0.2 c -17.3,43.91 -67.7,64.5 -110.9,45.29 l -251.3,-112.03 c -42.8,-19.08 -61.3,-69.82 -40.9,-111.98 l 0.1,-0.09 c 67.8,-139.24 47.6,-204.8 -3.4,-260.31 -61.6,-67.02 -127.1,-71.97 -265.5,-23.37 l -0.2,0.05 c -42,14.79 -88.2,-6.33 -104.6,-47.8 l -99.6,-252.3 c -17.3,-43.99 5.6,-93.57 50.3,-108.9 l 0.1,-0.02 c 146.9,-50.47 178,-108.41 180.5,-185.74 2.7,-79.44 -24.4,-143.87 -165.1,-200.35 -43.5,-17.36 -63.9,-67.2 -45.3,-110.09 l 110.1,-253.05 c 19.1,-44.02 71.6,-62.64 114.2,-40.56 l 0.2,0.09 c 119,61.83 192.8,62.4 262.9,-8.6 46.6,-46.98 80.9,-110.04 17,-252.86 l -0.1,-0.11 c -19.3,-43.29 1.5,-93.97 45.7,-111.15 l 241.8,-93.97 c 36.5,-14.22 78.1,-0.86 99.5,32.03 l 0.1,0.12 c 82.9,127.24 164.2,197.27 228.7,197.27 75.9,0 145.7,-96.97 190.9,-178.36 v -0.06 c 20.7,-37.41 66.5,-52.93 105.7,-35.82 l 242.9,105.97 c 41.2,17.98 60.6,65.53 43.7,107.2 l -0.1,0.09 c -58.7,145.09 -53.2,219.18 21.2,282.96 67.4,57.61 133.9,57.12 235.9,5.35 v -0.02 c 43.4,-22.03 96.3,-2.25 114.5,42.79 l 103.8,256.4 c 17.7,43.57 -4.4,93.09 -48.6,109.11" /><path
         id="path22"
         style="fill:#fab82b;fill-opacity:1;fill-rule:nonzero;stroke:none"
         d="m 12137.9,7247.56 c -119.6,-0.17 -232,-47.15 -316.5,-132.11 -85.5,-86.09 -132.3,-200.91 -131.6,-323.2 1.2,-248.14 201.3,-450.11 446.1,-450.11 254,3.57 453.7,210.17 451.5,460.58 -2.1,241.16 -207.6,444.84 -448.7,444.84" /><path
         id="path24"
         style="fill:#100f0d;fill-opacity:1;fill-rule:nonzero;stroke:none"
         d="m 12108.8,7152.25 v 51.26 h 88.7 v -51.26 c 76.9,-15.77 116.4,-74.91 116.4,-168.55 v -21.69 h -102.6 v 28.59 c 0,49.29 -19.7,68.01 -54.2,68.01 -34.5,0 -54.2,-18.72 -54.2,-68.01 0,-49.29 19.7,-83.79 92.7,-141.94 88.7,-70.98 119.2,-125.19 119.2,-204.05 0,-93.64 -40.4,-153.77 -117.3,-169.54 v -50.27 h -88.7 v 50.27 c -77.8,15.77 -117.3,75.9 -117.3,169.54 v 47.32 h 102.5 v -54.22 c 0,-49.28 21.7,-67.03 56.2,-67.03 34.5,0 56.2,17.75 56.2,67.03 0,49.29 -19.7,84.77 -92.6,141.95 -88.8,69.98 -119.3,125.18 -119.3,204.04 0,92.66 38.4,151.8 114.3,168.55" /><path
         id="path26"
         style="fill:#ffffff;fill-opacity:1;fill-rule:nonzero;stroke:none"
         d="M 10431.6,3026.24 H 3323.21 v 4887.1 h 7108.39 v -4887.1" /><path
         id="path28"
         style="fill:#f0413a;fill-opacity:1;fill-rule:nonzero;stroke:none"
         d="M 10739.1,7898.42 H 3015.61 v 269.11 h 7723.49 v -269.11" /><path
         id="path30"
         style="fill:#f0413a;fill-opacity:1;fill-rule:nonzero;stroke:none"
         d="M 10739.1,2806.29 H 3015.61 v 269.11 h 7723.49 v -269.11" /><path
         id="path32"
         style="fill:#100f0d;fill-opacity:1;fill-rule:nonzero;stroke:none"
         d="m 6899.42,2151.68 h -44.11 v 654.61 h 44.11 v -654.61" /><path
         id="path34"
         style="fill:#100f0d;fill-opacity:1;fill-rule:nonzero;stroke:none"
         d="m 6877.36,2129.63 c -105.22,0 -190.81,-85.61 -190.81,-190.82 0,-105.22 85.59,-190.82 190.81,-190.82 105.22,0 190.82,85.6 190.82,190.82 0,105.21 -85.6,190.82 -190.82,190.82 z m 0,-425.74 c -129.53,0 -234.92,105.38 -234.92,234.92 0,129.54 105.39,234.92 234.92,234.92 129.54,0 234.93,-105.38 234.93,-234.92 0,-129.54 -105.39,-234.92 -234.93,-234.92" /><path
         id="path36"
         style="fill:#ffffff;fill-opacity:1;fill-rule:nonzero;stroke:none"
         d="m 3928.5,5800.75 c 66.22,251.24 197.73,488.82 394.8,685.88 216.57,216.58 482.12,354.02 761.1,412.66" /><path
         id="path38"
         style="fill:#100f0d;fill-opacity:1;fill-rule:nonzero;stroke:none"
         d="m 3939.17,5797.94 -21.33,5.62 c 68.65,260.47 206.16,499.37 397.66,690.87 210.81,210.81 475.91,354.54 766.64,415.65 l 4.53,-21.58 c -286.52,-60.23 -547.79,-201.88 -755.57,-409.66 -188.75,-188.75 -324.27,-424.2 -391.93,-680.9" /><path
         id="path40"
         style="fill:#ffffff;fill-opacity:1;fill-rule:nonzero;stroke:none"
         d="m 6370.4,4242.47 c -74.71,-62.27 -153.83,-116.16 -236.64,-161.84 -577.83,-319.91 -1319.95,-234.56 -1810.36,255.85 -314.73,314.73 -462.68,733.03 -443.74,1145.17" /><path
         id="path42"
         style="fill:#100f0d;fill-opacity:1;fill-rule:nonzero;stroke:none"
         d="m 5396.03,3880.38 c -67.35,0 -134.74,4.42 -201.69,13.37 -335.15,44.8 -639.01,195.21 -878.74,434.94 -303.77,303.76 -466.68,724.19 -446.96,1153.46 l 22.03,-1.01 c -19.43,-423.1 141.13,-837.47 440.52,-1136.86 473.34,-473.34 1212.39,-577.8 1797.23,-254.01 82.77,45.67 161.8,99.72 234.92,160.67 l 14.12,-16.94 c -74.19,-61.85 -154.39,-116.7 -238.37,-163.03 -225.99,-125.12 -484.01,-190.59 -743.06,-190.59" /><path
         id="path44"
         style="fill:#ffffff;fill-opacity:1;fill-rule:nonzero;stroke:none"
         d="m 5917.1,6840.93 c 203,-73.38 393.48,-191.7 556.26,-354.48 546.65,-546.66 590.18,-1406.34 129.72,-2002.45" /><path
         id="path46"
         style="fill:#100f0d;fill-opacity:1;fill-rule:nonzero;stroke:none"
         d="m 6611.8,4477.27 -17.45,13.47 c 461.9,597.97 406.53,1452.59 -128.79,1987.91 -158.26,158.26 -344.05,276.67 -552.21,351.91 l 7.5,20.74 c 211.22,-76.35 399.74,-196.49 560.31,-357.06 543.14,-543.14 599.3,-1410.26 130.64,-2016.97" /><path
         id="path48"
         style="fill:#fab82b;fill-opacity:1;fill-rule:nonzero;stroke:none"
         d="m 6490.38,5423.7 c 0,-598.89 -485.49,-1084.39 -1084.38,-1084.39 -598.89,0 -1084.39,485.5 -1084.39,1084.39 0,598.89 485.5,1084.38 1084.39,1084.38 598.89,0 1084.38,-485.49 1084.38,-1084.38" /><path
         id="path50"
         style="fill:#100f0d;fill-opacity:1;fill-rule:nonzero;stroke:none"
         d="m 5600.22,6621.02 c -42.94,6.91 -86.87,11.56 -130.54,13.81 l 2.27,44.05 c 45.26,-2.33 90.77,-7.15 135.29,-14.32 z m -392.38,-0.65 -7.15,43.53 c 44.49,7.31 89.99,12.28 135.24,14.77 l 2.42,-44.05 c -43.67,-2.4 -87.57,-7.19 -130.51,-14.25 z m 645.18,-68.92 c -40.52,16.08 -82.41,30.11 -124.51,41.69 l 11.7,42.53 c 43.64,-12.01 87.07,-26.55 129.08,-43.22 z m -897.69,-1.47 -16.4,40.94 c 42,16.82 85.37,31.51 128.9,43.64 l 11.83,-42.49 c -41.98,-11.7 -83.82,-25.86 -124.33,-42.09 z m 1129.53,-121.12 c -36.18,24.48 -74.06,47.23 -112.58,67.6 l 20.62,38.99 c 39.92,-21.11 79.18,-44.68 116.68,-70.05 z m -1360.88,-2.19 -24.83,36.45 c 37.4,25.48 76.56,49.17 116.39,70.4 l 20.75,-38.93 c -38.43,-20.48 -76.22,-43.34 -112.31,-67.92 z m 1560.99,-167.31 c -30.07,31.62 -62.2,61.95 -95.49,90.15 l 28.52,33.65 c 34.48,-29.22 67.77,-60.65 98.93,-93.4 z m -1760.54,-2.8 -32.05,30.29 c 31.06,32.87 64.25,64.4 98.64,93.71 l 28.61,-33.56 c -33.18,-28.29 -65.22,-58.72 -95.2,-90.44 z m 1919.74,-205.52 c -22.59,37.29 -47.47,73.78 -73.97,108.45 l 35.04,26.78 c 27.46,-35.92 53.25,-73.74 76.65,-112.39 z m -2078.33,-3.35 -37.8,22.73 c 23.28,38.71 48.96,76.61 76.33,112.66 l 35.13,-26.67 c -26.41,-34.79 -51.2,-71.37 -73.66,-108.72 z m 2188.99,-234.27 c -13.99,41.28 -30.43,82.27 -48.86,121.84 l 39.98,18.62 c 19.1,-41.02 36.15,-83.51 50.65,-126.3 z m -2298.94,-3.81 -41.81,14.03 c 14.38,42.88 31.29,85.44 50.26,126.5 l 40.04,-18.5 c -18.3,-39.61 -34.61,-80.66 -48.49,-122.03 z m 2355.59,-252.14 c -4.75,43.41 -11.93,86.99 -21.34,129.52 l 43.06,9.53 c 9.76,-44.09 17.21,-89.25 22.13,-134.25 z m -2411.42,-4.04 -43.85,4.66 c 4.78,45.03 12.08,90.22 21.68,134.31 l 43.1,-9.38 c -9.27,-42.55 -16.31,-86.15 -20.93,-129.59 z m 2455.57,-265.42 -43.86,4.7 c 4.65,43.25 7,87.36 7,131.12 v 2.59 h 44.11 v -2.46 c 0,-45.45 -2.44,-91.15 -7.25,-135.95 z m -2499.1,-1.57 c -4.86,44.79 -7.36,90.48 -7.42,135.82 l 44.11,0.05 c 0.05,-43.77 2.46,-87.87 7.16,-131.1 z m 2440.97,-263.93 -41.81,14.07 c 13.91,41.34 25.69,83.91 35.03,126.56 l 43.08,-9.43 c -9.67,-44.21 -21.89,-88.35 -36.3,-131.2 z M 4215,5021.07 c -14.46,42.82 -26.73,86.93 -36.46,131.09 l 43.07,9.5 c 9.39,-42.61 21.22,-85.16 35.18,-126.47 z m 2268.31,-245.22 -37.79,22.75 c 22.55,37.44 43.26,76.46 61.57,115.99 l 40.02,-18.53 c -18.97,-40.97 -40.44,-81.42 -63.8,-120.21 z m -2153.85,-1.2 c -23.39,38.72 -44.89,79.12 -63.92,120.07 l 40,18.58 c 18.36,-39.51 39.1,-78.49 61.68,-115.84 z m 1989.3,-215.11 -32.03,30.33 c 30.01,31.69 58.62,65.35 85.04,100.08 l 35.1,-26.71 c -27.38,-35.97 -57.02,-70.87 -88.11,-103.7 z M 4494.2,4558.6 c -31.12,32.8 -60.8,67.65 -88.21,103.58 l 35.07,26.76 c 26.45,-34.69 55.09,-68.32 85.13,-99.97 z m 1617.62,-175.09 -24.81,36.46 c 36.07,24.53 71.21,51.3 104.45,79.57 l 28.57,-33.59 c -34.44,-29.3 -70.85,-57.03 -108.21,-82.44 z m -1410.45,-0.76 c -37.35,25.34 -73.79,53.04 -108.33,82.34 l 28.54,33.63 c 33.33,-28.28 68.51,-55.02 104.55,-79.46 z m 1170.51,-126.77 -16.34,40.95 c 40.45,16.15 80.52,34.73 119.09,55.24 l 20.71,-38.95 c -39.98,-21.26 -81.52,-40.51 -123.46,-57.24 z m -930.37,-0.54 c -41.96,16.7 -83.52,35.92 -123.53,57.13 l 20.65,38.96 c 38.61,-20.46 78.71,-39 119.19,-55.11 z m 668.53,-72.16 -7.1,43.54 c 43.1,7.03 86.23,16.5 128.21,28.15 l 11.79,-42.5 c -43.51,-12.08 -88.22,-21.89 -132.9,-29.19 z m -406.55,-0.22 c -44.65,7.23 -89.38,17 -132.93,29.02 l 11.73,42.52 c 42.03,-11.6 85.18,-21.03 128.25,-28.01 z m 203.02,-16.24 c -22.69,-0.13 -45.29,0.58 -67.76,1.76 l 2.33,44.05 c 21.68,-1.15 43.45,-2.15 65.44,-1.71 21.84,0 44,0.6 65.88,1.79 l 2.39,-44.05 c -22.68,-1.23 -45.65,-1.84 -68.28,-1.84" /><path
         id="path52"
         style="fill:#fab82b;fill-opacity:1;fill-rule:nonzero;stroke:none"
         d="M 7878.65,4601.83 H 7585.3 v 624.63 h 293.35 v -624.63" /><path
         id="path54"
         style="fill:#f0413a;fill-opacity:1;fill-rule:nonzero;stroke:none"
         d="M 8448.44,4601.83 H 8155.1 v 1073.52 h 293.34 V 4601.83" /><path
         id="path56"
         style="fill:#4d2559;fill-opacity:1;fill-rule:nonzero;stroke:none"
         d="M 9017.65,4601.83 H 8724.3 v 1171.44 h 293.35 V 4601.83" /><path
         id="path58"
         style="fill:#f0413a;fill-opacity:1;fill-rule:nonzero;stroke:none"
         d="M 9587.15,4601.83 H 9293.8 v 1288.33 h 293.35 V 4601.83" /><path
         id="path60"
         style="fill:#fab82b;fill-opacity:1;fill-rule:nonzero;stroke:none"
         d="M 7876.28,6995.41 H 7585.3 v 342.84 h 290.98 v -342.84" /><path
         id="path62"
         style="fill:#4d2559;fill-opacity:1;fill-rule:nonzero;stroke:none"
         d="m 8441.47,6995.41 h -290.98 v 617.14 h 290.98 v -617.14" /><path
         id="path64"
         style="fill:#f0413a;fill-opacity:1;fill-rule:nonzero;stroke:none"
         d="M 9006.1,6995.41 H 8715.12 V 7637.5 H 9006.1 V 6995.41" /><path
         id="path66"
         style="fill:#4d2559;fill-opacity:1;fill-rule:nonzero;stroke:none"
         d="m 9571.15,6995.41 h -290.98 v 748.07 h 290.98 v -748.07" /><path
         id="path68"
         style="fill:#fab82b;fill-opacity:1;fill-rule:nonzero;stroke:none"
         d="m 7449.75,5708.45 -96.46,96.44 560.87,560.73 392.93,-210.8 488.35,398.76 222.21,-222.08 570.97,489.76 96.45,-96.45 -667.42,-586.22 -222.21,222.09 -488.35,-398.77 -392.93,210.81 -464.41,-464.27" /><path
         id="path70"
         style="fill:#4d2559;fill-opacity:1;fill-rule:nonzero;stroke:none"
         d="M 9742.96,3916.94 H 7429.5 v 136.42 h 2313.46 v -136.42" /><path
         id="path72"
         style="fill:#4d2559;fill-opacity:1;fill-rule:nonzero;stroke:none"
         d="M 9742.96,4206.98 H 7429.5 v 136.42 h 2313.46 v -136.42" /><path
         id="path74"
         style="fill:#4d2559;fill-opacity:1;fill-rule:nonzero;stroke:none"
         d="M 6635.45,7288.36 H 4021.11 v 277.88 h 2614.34 v -277.88" /><path
         id="path76"
         style="fill:#4d2559;fill-opacity:1;fill-rule:nonzero;stroke:none"
         d="M 9027.62,3631.05 H 7429.5 v 136.42 h 1598.12 v -136.42" /><path
         id="path78"
         style="fill:#211c1d;fill-opacity:1;fill-rule:nonzero;stroke:none"
         d="m 6314.57,5360.11 -1051.05,0.05 v 119.19 l 1051.05,-0.04 v -119.2" /><path
         id="path80"
         style="fill:#211c1d;fill-opacity:1;fill-rule:nonzero;stroke:none"
         d="M 5447.5,6319.52 V 5281.98 h -119.22 v 1037.54 h 119.22" /><path
         id="path82"
         style="fill:#ffffff;fill-opacity:1;fill-rule:nonzero;stroke:none"
         d="m 13129.7,3344.29 c 0,-450.29 -365,-815.31 -815.3,-815.31 -450.3,0 -815.3,365.02 -815.3,815.31 0,450.28 365,815.31 815.3,815.31 450.3,0 815.3,-365.03 815.3,-815.31" /><path
         id="path84"
         style="fill:#ffffff;fill-opacity:1;fill-rule:nonzero;stroke:none"
         d="m 11319.8,3611.7 -19.8,5.19 c 47.1,178.56 141.3,342.31 272.6,473.57 144.5,144.5 326.2,243.02 525.5,284.91 l 4.2,-19.98 c -195.4,-41.07 -373.6,-137.68 -515.3,-279.36 -128.7,-128.72 -221.1,-289.27 -267.2,-464.33" /><path
         id="path86"
         style="fill:#ffffff;fill-opacity:1;fill-rule:nonzero;stroke:none"
         d="m 12313.3,2298.64 c -46.2,0 -92.4,3.03 -138.3,9.17 -229.7,30.71 -438,133.8 -602.3,298.13 -208.3,208.22 -319.9,496.4 -306.4,790.65 l 20.4,-0.94 c -13.3,-288.52 96.2,-571.11 300.4,-775.28 322.8,-322.79 826.8,-394.01 1225.6,-173.22 56.5,31.17 110.4,68.03 160.2,109.57 l 13.1,-15.68 c -50.8,-42.37 -105.8,-79.98 -163.4,-111.75 -154.9,-85.76 -331.8,-130.65 -509.3,-130.65" /><path
         id="path88"
         style="fill:#ffffff;fill-opacity:1;fill-rule:nonzero;stroke:none"
         d="m 13146.6,2707.77 -16.2,12.48 c 315,407.79 277.3,990.58 -87.8,1355.65 -107.9,107.94 -234.6,188.68 -376.6,239.98 l 7,19.2 c 144.8,-52.34 274,-134.68 384.1,-244.75 372.3,-372.3 410.8,-966.67 89.5,-1382.56" /><path
         id="path90"
         style="fill:#fab82b;fill-opacity:1;fill-rule:nonzero;stroke:none"
         d="m 12938.3,3314.12 c 11.1,-311.87 -233.4,-574.64 -545.3,-585.81 -311.9,-11.17 -574.7,233.44 -585.9,545.31 l -1.6,45.54 h 572.1 v 538.95 l 31.5,0.5 c 291.2,-18.47 518.7,-252.59 529.2,-544.49" /><path
         id="path92"
         style="fill:#4d2559;fill-opacity:1;fill-rule:nonzero;stroke:none"
         d="m 12314.4,4014.91 v -632.54 h -652.3 l -1.6,45.54 c -11.1,311.88 233.5,574.66 545.3,585.82 19.1,0.69 38,0.34 56.6,-0.82 l 52,2" /><path
         id="path94"
         style="fill:#4d2559;fill-opacity:1;fill-rule:nonzero;stroke:none"
         d="m 1372.07,6246.05 h 575.58 l 131.82,-744.52 h -839.15 l 131.75,744.52" /><path
         id="path96"
         style="fill:#fab82b;fill-opacity:1;fill-rule:nonzero;stroke:none"
         d="M 2940.96,5949.57 H 378.762 v 1602.9 H 2940.96 v -1602.9" /><path
         id="path98"
         style="fill:#ffffff;fill-opacity:1;fill-rule:nonzero;stroke:none"
         d="M 2832.97,6044.6 H 486.754 V 7457.44 H 2832.97 V 6044.6" /><path
         id="path100"
         style="fill:#f0413a;fill-opacity:1;fill-rule:nonzero;stroke:none"
         d="m 2227.91,5463.69 h -1136.1 v 138.63 h 1136.1 v -138.63" /><path
         id="path102"
         style="fill:#4d2559;fill-opacity:1;fill-rule:nonzero;stroke:none"
         d="M 1783.2,7064.2 H 744.41 v 126.85 H 1783.2 V 7064.2" /><path
         id="path104"
         style="fill:#4d2559;fill-opacity:1;fill-rule:nonzero;stroke:none"
         d="m 1384.81,6831.86 h -640.4 v 126.85 h 640.4 v -126.85" /><path
         id="path106"
         style="fill:#4d2559;fill-opacity:1;fill-rule:nonzero;stroke:none"
         d="M 1783.2,6503.33 H 744.41 v 126.85 H 1783.2 v -126.85" /><path
         id="path108"
         style="fill:#4d2559;fill-opacity:1;fill-rule:nonzero;stroke:none"
         d="m 1384.81,6271 h -640.4 v 126.85 h 640.4 V 6271" /><path
         id="path110"
         style="fill:#f0413a;fill-opacity:1;fill-rule:nonzero;stroke:none"
         d="m 2540.51,6467.74 h -634.94 v 565.55 h 634.94 v -565.55" /><path
         id="path112"
         style="fill:#4d2559;fill-opacity:1;fill-rule:nonzero;stroke:none"
         d="m 1960.19,6538.65 h 525.71 v 423.73 h -525.71 v -423.73" /><path
         id="path114"
         style="fill:#4d2559;fill-opacity:1;fill-rule:nonzero;stroke:none"
         d="M 517.906,1822.43 V 649.82 c 0,-35.64 28.914,-64.48 64.477,-64.48 H 3724.48 c 35.65,0 64.48,28.84 64.48,64.48 v 1172.61 c 0,35.56 -28.83,64.41 -64.48,64.41 H 582.383 c -35.563,0 -64.477,-28.85 -64.477,-64.41" /><path
         id="path116"
         style="fill:#fab82b;fill-opacity:1;fill-rule:nonzero;stroke:none"
         d="M 3573.05,1685.6 V 762.141 H 733.895 V 1685.6 H 3573.05" /><path
         id="path118"
         style="fill:#4d2559;fill-opacity:1;fill-rule:nonzero;stroke:none"
         d="m 3514.81,1223.87 c 0,-209.35 -169.71,-379.069 -379.07,-379.069 -209.35,0 -379.06,169.719 -379.06,379.069 0,209.35 169.71,379.06 379.06,379.06 209.36,0 379.07,-169.71 379.07,-379.06" /><path
         id="path120"
         style="fill:#f0413a;fill-opacity:1;fill-rule:nonzero;stroke:none"
         d="m 3337.34,1223.87 c 0,-111.34 -90.26,-201.6 -201.6,-201.6 -111.34,0 -201.6,90.26 -201.6,201.6 0,111.34 90.26,201.6 201.6,201.6 111.34,0 201.6,-90.26 201.6,-201.6" /><path
         id="path122"
         style="fill:#4d2559;fill-opacity:1;fill-rule:nonzero;stroke:none"
         d="m 1572.36,1223.87 c 0,-209.35 -169.71,-379.069 -379.06,-379.069 -209.355,0 -379.07,169.719 -379.07,379.069 0,209.35 169.715,379.06 379.07,379.06 209.35,0 379.06,-169.71 379.06,-379.06" /><path
         id="path124"
         style="fill:#f0413a;fill-opacity:1;fill-rule:nonzero;stroke:none"
         d="m 1394.9,1223.87 c 0,-111.34 -90.26,-201.6 -201.6,-201.6 -111.34,0 -201.605,90.26 -201.605,201.6 0,111.34 90.265,201.6 201.605,201.6 111.34,0 201.6,-90.26 201.6,-201.6" /><path
         id="path126"
         style="fill:#ffffff;fill-opacity:1;fill-rule:nonzero;stroke:none"
         d="m 2558.13,2464.14 h -809.4 c -54.43,0 -98.49,-44.08 -98.49,-98.51 V 826.629 c 0,-54.418 44.06,-98.5 98.49,-98.5 h 809.4 c 54.35,0 98.5,44.082 98.5,98.5 V 2365.63 c 0,54.43 -44.15,98.51 -98.5,98.51" /><path
         id="path128"
         style="fill:#f0413a;fill-opacity:1;fill-rule:nonzero;stroke:none"
         d="m 2566.94,1021.3 h -827.02 v 1212.67 h 827.02 V 1021.3" /><path
         id="path130"
         style="fill:#f0413a;fill-opacity:1;fill-rule:nonzero;stroke:none"
         d="m 2334,2304.79 h -361.21 c -6.96,0 -12.53,11.17 -12.53,24.78 v 0 c 0,13.77 5.57,25.08 12.53,25.08 H 2334 c 6.96,0 12.68,-11.31 12.68,-25.08 v 0 c 0,-13.61 -5.72,-24.78 -12.68,-24.78" /><path
         id="path132"
         style="fill:#f0413a;fill-opacity:1;fill-rule:nonzero;stroke:none"
         d="m 2206.58,897.922 c 0,-29.383 -23.8,-53.121 -53.18,-53.121 -29.31,0 -53.12,23.738 -53.12,53.121 0,29.367 23.81,53.18 53.12,53.18 29.38,0 53.18,-23.813 53.18,-53.18" /><path
         id="path134"
         style="fill:#f0413a;fill-opacity:1;fill-rule:nonzero;stroke:none"
         d="m 2486.19,3963.83 c 0,-435.42 -352.89,-788.42 -788.38,-788.42 -435.48,0 -788.533,353 -788.533,788.42 0,435.49 353.053,788.59 788.533,788.59 435.49,0 788.38,-353.1 788.38,-788.59" /><path
         id="path136"
         style="fill:#211c1d;fill-opacity:1;fill-rule:nonzero;stroke:none"
         d="m 1697.81,4698.97 c -405.3,0 -735.076,-329.77 -735.076,-735.14 0,-405.25 329.776,-734.97 735.076,-734.97 405.26,0 734.92,329.72 734.92,734.97 0,405.37 -329.66,735.14 -734.92,735.14 z m 0,-1576.13 c -463.8,0 -841.095,377.3 -841.095,840.99 0,463.81 377.295,841.16 841.095,841.16 463.71,0 840.94,-377.35 840.94,-841.16 0,-463.69 -377.23,-840.99 -840.94,-840.99" /><path
         id="path138"
         style="fill:#fab82b;fill-opacity:1;fill-rule:nonzero;stroke:none"
         d="m 2084.9,3963.83 c 0,-435.42 -169.6,-788.42 -378.84,-788.42 -209.33,0 -378.89,353 -378.89,788.42 0,435.49 169.56,788.59 378.89,788.59 209.24,0 378.84,-353.1 378.84,-788.59" /><path
         id="path140"
         style="fill:#211c1d;fill-opacity:1;fill-rule:nonzero;stroke:none"
         d="m 1706.07,4752.42 c -180.38,0 -373.47,-316.9 -373.47,-788.59 0,-471.63 193.09,-788.42 373.47,-788.42 180.31,0 373.4,316.79 373.4,788.42 0,471.69 -193.09,788.59 -373.4,788.59 z m -0.01,-1630.47 c -233.86,0 -417.06,369.81 -417.06,841.88 0,472.19 183.2,842.05 417.06,842.05 233.87,0 417.02,-369.86 417.02,-842.05 0,-472.07 -183.15,-841.88 -417.02,-841.88" /><path
         id="path142"
         style="fill:#211c1d;fill-opacity:1;fill-rule:nonzero;stroke:none"
         d="m 1697.81,4342.63 c -212.52,0 -423.99,8.53 -628.63,25.34 -29.13,2.38 -48.86,16.13 -44.06,30.7 4.75,14.56 32.05,24.74 61.39,22.03 397.63,-32.68 824.56,-32.68 1222.5,0 29.13,2.61 56.65,-7.47 61.39,-22.03 4.81,-14.57 -14.93,-28.32 -44.06,-30.7 -204.63,-16.81 -416.11,-25.34 -628.53,-25.34" /><path
         id="path144"
         style="fill:#211c1d;fill-opacity:1;fill-rule:nonzero;stroke:none"
         d="m 2317.73,3499.48 c -2.87,0 -5.79,0.1 -8.77,0.36 -396.49,32.68 -826.01,32.68 -1222.4,0 -29.49,-2.63 -56.69,7.47 -61.44,22.01 -4.8,14.56 14.88,28.32 44.01,30.72 408.02,33.59 849.25,33.62 1257.27,0 29.13,-2.4 48.81,-16.16 44,-30.72 -4.27,-13.08 -26.99,-22.37 -52.67,-22.37" /><path
         id="path146"
         style="fill:#211c1d;fill-opacity:1;fill-rule:nonzero;stroke:none"
         d="M 2487.08,3941.45 H 910.168 c -29.547,0 -53.457,10.01 -53.457,22.38 0,12.38 23.91,22.39 53.457,22.39 H 2487.08 c 29.55,0 53.45,-10.01 53.45,-22.39 0,-12.37 -23.9,-22.38 -53.45,-22.38" /><path
         id="path148"
         style="fill:#ffffff;fill-opacity:1;fill-rule:nonzero;stroke:none"
         d="M 12465.4,525.641 H 8496.42 V 1953.27 H 12465.4 V 525.641" /><path
         id="path150"
         style="fill:#4d2559;fill-opacity:1;fill-rule:nonzero;stroke:none"
         d="M 12423.3,391.551 H 8538.51 c -23.27,0 -42.09,19.64 -42.09,43.898 V 1892.82 c 0,24.26 18.82,43.89 42.09,43.89 h 3884.79 c 23.2,0 42.1,-19.63 42.1,-43.89 V 435.449 c 0,-24.258 -18.9,-43.898 -42.1,-43.898" /><path
         id="path152"
         style="fill:#fab82b;fill-opacity:1;fill-rule:nonzero;stroke:none"
         d="M 8496.42,522.141 H 12465.4 V 1956.77 H 8496.42 V 522.141" /><path
         id="path154"
         style="fill:#4d2559;fill-opacity:1;fill-rule:nonzero;stroke:none"
         d="m 8915.15,1604.37 h -266.47 v 171.33 h 266.47 v -171.33" /><path
         id="path156"
         style="fill:#4d2559;fill-opacity:1;fill-rule:nonzero;stroke:none"
         d="m 8915.15,1561.38 h -266.47 c -23.77,0 -43,19.23 -43,42.99 v 171.33 c 0,23.76 19.23,43 43,43 h 266.47 c 23.76,0 42.99,-19.24 42.99,-43 v -171.33 c 0,-23.76 -19.23,-42.99 -42.99,-42.99" /><path
         id="path158"
         style="fill:#4d2559;fill-opacity:1;fill-rule:nonzero;stroke:none"
         d="m 9338.75,1561.38 h -266.56 c -23.77,0 -43,19.23 -43,42.99 v 171.33 c 0,23.76 19.23,43 43,43 h 266.56 c 23.76,0 43,-19.24 43,-43 v -171.33 c 0,-23.76 -19.24,-42.99 -43,-42.99" /><path
         id="path160"
         style="fill:#4d2559;fill-opacity:1;fill-rule:nonzero;stroke:none"
         d="m 9762.35,1561.38 h -266.56 c -23.76,0 -43,19.23 -43,42.99 v 171.33 c 0,23.76 19.24,43 43,43 h 266.56 c 23.77,0 43,-19.24 43,-43 v -171.33 c 0,-23.76 -19.23,-42.99 -43,-42.99" /><path
         id="path162"
         style="fill:#4d2559;fill-opacity:1;fill-rule:nonzero;stroke:none"
         d="m 10186,1561.38 h -266.69 c -23.77,0 -43,19.23 -43,42.99 v 171.33 c 0,23.76 19.23,43 43,43 H 10186 c 23.7,0 42.9,-19.24 42.9,-43 v -171.33 c 0,-23.76 -19.2,-42.99 -42.9,-42.99" /><path
         id="path164"
         style="fill:#4d2559;fill-opacity:1;fill-rule:nonzero;stroke:none"
         d="m 10609.4,1561.38 h -266.5 c -23.8,0 -43,19.23 -43,42.99 v 171.33 c 0,23.76 19.2,43 43,43 h 266.5 c 23.8,0 43,-19.24 43,-43 v -171.33 c 0,-23.76 -19.2,-42.99 -43,-42.99" /><path
         id="path166"
         style="fill:#4d2559;fill-opacity:1;fill-rule:nonzero;stroke:none"
         d="m 11033,1561.38 h -266.5 c -23.8,0 -43,19.23 -43,42.99 v 171.33 c 0,23.76 19.2,43 43,43 h 266.5 c 23.8,0 43,-19.24 43,-43 v -171.33 c 0,-23.76 -19.2,-42.99 -43,-42.99" /><path
         id="path168"
         style="fill:#4d2559;fill-opacity:1;fill-rule:nonzero;stroke:none"
         d="M 11456.5,1561.38 H 11190 c -23.8,0 -43,19.23 -43,42.99 v 171.33 c 0,23.76 19.2,43 43,43 h 266.5 c 23.8,0 43,-19.24 43,-43 v -171.33 c 0,-23.76 -19.2,-42.99 -43,-42.99" /><path
         id="path170"
         style="fill:#4d2559;fill-opacity:1;fill-rule:nonzero;stroke:none"
         d="m 11880.1,1561.38 h -266.6 c -23.7,0 -42.9,19.23 -42.9,42.99 v 171.33 c 0,23.76 19.2,43 42.9,43 h 266.6 c 23.8,0 43,-19.24 43,-43 v -171.33 c 0,-23.76 -19.2,-42.99 -43,-42.99" /><path
         id="path172"
         style="fill:#4d2559;fill-opacity:1;fill-rule:nonzero;stroke:none"
         d="m 12303.6,1604.37 h -266.5 v 171.33 h 266.5 v -171.33" /><path
         id="path174"
         style="fill:#4d2559;fill-opacity:1;fill-rule:nonzero;stroke:none"
         d="m 12303.6,1561.38 h -266.5 c -23.8,0 -43,19.23 -43,42.99 v 171.33 c 0,23.76 19.2,43 43,43 h 266.5 c 23.8,0 43,-19.24 43,-43 v -171.33 c 0,-23.76 -19.2,-42.99 -43,-42.99" /><path
         id="path176"
         style="fill:#4d2559;fill-opacity:1;fill-rule:nonzero;stroke:none"
         d="m 8915.15,952.172 h -266.47 c -23.77,0 -43,19.238 -43,43 v 471.138 c 0,23.77 19.23,42.99 43,42.99 h 266.47 c 23.76,0 42.99,-19.22 42.99,-42.99 V 995.172 c 0,-23.762 -19.23,-43 -42.99,-43" /><path
         id="path178"
         style="fill:#4d2559;fill-opacity:1;fill-rule:nonzero;stroke:none"
         d="m 9338.75,1252.07 h -266.56 c -23.77,0 -43,19.23 -43,43 v 171.24 c 0,23.77 19.23,42.99 43,42.99 h 266.56 c 23.76,0 43,-19.22 43,-42.99 v -171.24 c 0,-23.77 -19.24,-43 -43,-43" /><path
         id="path180"
         style="fill:#4d2559;fill-opacity:1;fill-rule:nonzero;stroke:none"
         d="m 9762.35,1295.07 h -266.56 v 171.24 h 266.56 v -171.24" /><path
         id="path182"
         style="fill:#4d2559;fill-opacity:1;fill-rule:nonzero;stroke:none"
         d="m 9762.35,1252.07 h -266.56 c -23.76,0 -43,19.23 -43,43 v 171.24 c 0,23.77 19.24,42.99 43,42.99 h 266.56 c 23.77,0 43,-19.22 43,-42.99 v -171.24 c 0,-23.77 -19.23,-43 -43,-43" /><path
         id="path184"
         style="fill:#4d2559;fill-opacity:1;fill-rule:nonzero;stroke:none"
         d="m 10186,1295.07 h -266.69 v 171.24 H 10186 v -171.24" /><path
         id="path186"
         style="fill:#4d2559;fill-opacity:1;fill-rule:nonzero;stroke:none"
         d="m 10186,1252.07 h -266.69 c -23.77,0 -43,19.23 -43,43 v 171.24 c 0,23.77 19.23,42.99 43,42.99 H 10186 c 23.7,0 42.9,-19.22 42.9,-42.99 v -171.24 c 0,-23.77 -19.2,-43 -42.9,-43" /><path
         id="path188"
         style="fill:#4d2559;fill-opacity:1;fill-rule:nonzero;stroke:none"
         d="m 10609.4,1295.07 h -266.5 v 171.24 h 266.5 v -171.24" /><path
         id="path190"
         style="fill:#4d2559;fill-opacity:1;fill-rule:nonzero;stroke:none"
         d="m 10609.4,1252.07 h -266.5 c -23.8,0 -43,19.23 -43,43 v 171.24 c 0,23.77 19.2,42.99 43,42.99 h 266.5 c 23.8,0 43,-19.22 43,-42.99 v -171.24 c 0,-23.77 -19.2,-43 -43,-43" /><path
         id="path192"
         style="fill:#4d2559;fill-opacity:1;fill-rule:nonzero;stroke:none"
         d="m 11033,1295.07 h -266.5 v 171.24 h 266.5 v -171.24" /><path
         id="path194"
         style="fill:#4d2559;fill-opacity:1;fill-rule:nonzero;stroke:none"
         d="m 11033,1252.07 h -266.5 c -23.8,0 -43,19.23 -43,43 v 171.24 c 0,23.77 19.2,42.99 43,42.99 h 266.5 c 23.8,0 43,-19.22 43,-42.99 v -171.24 c 0,-23.77 -19.2,-43 -43,-43" /><path
         id="path196"
         style="fill:#4d2559;fill-opacity:1;fill-rule:nonzero;stroke:none"
         d="M 11456.5,1295.07 H 11190 v 171.24 h 266.5 v -171.24" /><path
         id="path198"
         style="fill:#4d2559;fill-opacity:1;fill-rule:nonzero;stroke:none"
         d="M 11456.5,1252.07 H 11190 c -23.8,0 -43,19.23 -43,43 v 171.24 c 0,23.77 19.2,42.99 43,42.99 h 266.5 c 23.8,0 43,-19.22 43,-42.99 v -171.24 c 0,-23.77 -19.2,-43 -43,-43" /><path
         id="path200"
         style="fill:#4d2559;fill-opacity:1;fill-rule:nonzero;stroke:none"
         d="m 11880.1,1295.07 h -266.6 v 171.24 h 266.6 v -171.24" /><path
         id="path202"
         style="fill:#4d2559;fill-opacity:1;fill-rule:nonzero;stroke:none"
         d="m 11880.1,1252.07 h -266.6 c -23.7,0 -42.9,19.23 -42.9,43 v 171.24 c 0,23.77 19.2,42.99 42.9,42.99 h 266.6 c 23.8,0 43,-19.22 43,-42.99 v -171.24 c 0,-23.77 -19.2,-43 -43,-43" /><path
         id="path204"
         style="fill:#4d2559;fill-opacity:1;fill-rule:nonzero;stroke:none"
         d="m 12303.6,993.41 h -266.5 v 479.41 h 266.5 V 993.41" /><path
         id="path206"
         style="fill:#4d2559;fill-opacity:1;fill-rule:nonzero;stroke:none"
         d="m 12303.6,950.41 h -266.5 c -23.8,0 -43,19.242 -43,43 v 479.41 c 0,23.76 19.2,42.99 43,42.99 h 266.5 c 23.8,0 43,-19.23 43,-42.99 V 993.41 c 0,-23.758 -19.2,-43 -43,-43" /><path
         id="path208"
         style="fill:#4d2559;fill-opacity:1;fill-rule:nonzero;stroke:none"
         d="m 9338.75,985.68 h -266.56 v 171.33 h 266.56 V 985.68" /><path
         id="path210"
         style="fill:#4d2559;fill-opacity:1;fill-rule:nonzero;stroke:none"
         d="m 9338.75,942.68 h -266.56 c -23.77,0 -43,19.242 -43,43 v 171.33 c 0,23.76 19.23,42.99 43,42.99 h 266.56 c 23.76,0 43,-19.23 43,-42.99 V 985.68 c 0,-23.758 -19.24,-43 -43,-43" /><path
         id="path212"
         style="fill:#4d2559;fill-opacity:1;fill-rule:nonzero;stroke:none"
         d="m 9762.35,985.68 h -266.56 v 171.33 h 266.56 V 985.68" /><path
         id="path214"
         style="fill:#4d2559;fill-opacity:1;fill-rule:nonzero;stroke:none"
         d="m 9762.35,942.68 h -266.56 c -23.76,0 -43,19.242 -43,43 v 171.33 c 0,23.76 19.24,42.99 43,42.99 h 266.56 c 23.77,0 43,-19.23 43,-42.99 V 985.68 c 0,-23.758 -19.23,-43 -43,-43" /><path
         id="path216"
         style="fill:#4d2559;fill-opacity:1;fill-rule:nonzero;stroke:none"
         d="m 10186,985.68 h -266.69 v 171.33 H 10186 V 985.68" /><path
         id="path218"
         style="fill:#4d2559;fill-opacity:1;fill-rule:nonzero;stroke:none"
         d="m 10186,942.68 h -266.69 c -23.77,0 -43,19.242 -43,43 v 171.33 c 0,23.76 19.23,42.99 43,42.99 H 10186 c 23.7,0 42.9,-19.23 42.9,-42.99 V 985.68 c 0,-23.758 -19.2,-43 -42.9,-43" /><path
         id="path220"
         style="fill:#4d2559;fill-opacity:1;fill-rule:nonzero;stroke:none"
         d="m 10609.4,985.68 h -266.5 v 171.33 h 266.5 V 985.68" /><path
         id="path222"
         style="fill:#4d2559;fill-opacity:1;fill-rule:nonzero;stroke:none"
         d="m 10609.4,942.68 h -266.5 c -23.8,0 -43,19.242 -43,43 v 171.33 c 0,23.76 19.2,42.99 43,42.99 h 266.5 c 23.8,0 43,-19.23 43,-42.99 V 985.68 c 0,-23.758 -19.2,-43 -43,-43" /><path
         id="path224"
         style="fill:#4d2559;fill-opacity:1;fill-rule:nonzero;stroke:none"
         d="m 11033,985.68 h -266.5 v 171.33 H 11033 V 985.68" /><path
         id="path226"
         style="fill:#4d2559;fill-opacity:1;fill-rule:nonzero;stroke:none"
         d="m 11033,942.68 h -266.5 c -23.8,0 -43,19.242 -43,43 v 171.33 c 0,23.76 19.2,42.99 43,42.99 h 266.5 c 23.8,0 43,-19.23 43,-42.99 V 985.68 c 0,-23.758 -19.2,-43 -43,-43" /><path
         id="path228"
         style="fill:#4d2559;fill-opacity:1;fill-rule:nonzero;stroke:none"
         d="M 11456.5,985.68 H 11190 v 171.33 h 266.5 V 985.68" /><path
         id="path230"
         style="fill:#4d2559;fill-opacity:1;fill-rule:nonzero;stroke:none"
         d="M 11456.5,942.68 H 11190 c -23.8,0 -43,19.242 -43,43 v 171.33 c 0,23.76 19.2,42.99 43,42.99 h 266.5 c 23.8,0 43,-19.23 43,-42.99 V 985.68 c 0,-23.758 -19.2,-43 -43,-43" /><path
         id="path232"
         style="fill:#4d2559;fill-opacity:1;fill-rule:nonzero;stroke:none"
         d="m 11880.1,985.68 h -266.6 v 171.33 h 266.6 V 985.68" /><path
         id="path234"
         style="fill:#4d2559;fill-opacity:1;fill-rule:nonzero;stroke:none"
         d="m 12303.6,942.68 h -690.1 c -23.7,0 -42.9,19.242 -42.9,43 v 171.33 c 0,23.76 19.2,42.99 42.9,42.99 h 690.1 c 23.8,0 43,-19.23 43,-42.99 V 985.68 c 0,-23.758 -19.2,-43 -43,-43" /><path
         id="path236"
         style="fill:#4d2559;fill-opacity:1;fill-rule:nonzero;stroke:none"
         d="M 8915.15,676.301 H 8648.68 V 847.66 h 266.47 V 676.301" /><path
         id="path238"
         style="fill:#4d2559;fill-opacity:1;fill-rule:nonzero;stroke:none"
         d="m 8915.15,633.301 h -266.47 c -23.77,0 -43,19.23 -43,43 V 847.66 c 0,23.77 19.23,43 43,43 h 266.47 c 23.76,0 42.99,-19.23 42.99,-43 V 676.301 c 0,-23.77 -19.23,-43 -42.99,-43" /><path
         id="path240"
         style="fill:#4d2559;fill-opacity:1;fill-rule:nonzero;stroke:none"
         d="M 9338.75,676.301 H 9072.19 V 847.66 h 266.56 V 676.301" /><path
         id="path242"
         style="fill:#4d2559;fill-opacity:1;fill-rule:nonzero;stroke:none"
         d="m 9338.75,633.301 h -266.56 c -23.77,0 -43,19.23 -43,43 V 847.66 c 0,23.77 19.23,43 43,43 h 266.56 c 23.76,0 43,-19.23 43,-43 V 676.301 c 0,-23.77 -19.24,-43 -43,-43" /><path
         id="path244"
         style="fill:#4d2559;fill-opacity:1;fill-rule:nonzero;stroke:none"
         d="M 10837.3,633.301 H 9487.33 c -16.44,0 -29.75,19.23 -29.75,43 V 847.66 c 0,23.77 13.31,43 29.75,43 h 1349.97 c 16.5,0 29.8,-19.23 29.8,-43 V 676.301 c 0,-23.77 -13.3,-43 -29.8,-43" /><path
         id="path246"
         style="fill:#4d2559;fill-opacity:1;fill-rule:nonzero;stroke:none"
         d="m 11244.8,633.301 h -266.6 c -23.8,0 -43,19.23 -43,43 V 847.66 c 0,23.77 19.2,43 43,43 h 266.6 c 23.7,0 43,-19.23 43,-43 V 676.301 c 0,-23.77 -19.3,-43 -43,-43" /><path
         id="path248"
         style="fill:#4d2559;fill-opacity:1;fill-rule:nonzero;stroke:none"
         d="m 11668.3,633.301 h -266.5 c -23.8,0 -43,19.23 -43,43 V 847.66 c 0,23.77 19.2,43 43,43 h 266.5 c 23.8,0 43,-19.23 43,-43 V 676.301 c 0,-23.77 -19.2,-43 -43,-43" /><path
         id="path250"
         style="fill:#4d2559;fill-opacity:1;fill-rule:nonzero;stroke:none"
         d="m 12317.2,633.301 h -456.3 c -23.8,0 -43,19.23 -43,43 V 847.66 c 0,23.77 19.2,43 43,43 h 456.3 c 23.7,0 43,-19.23 43,-43 V 676.301 c 0,-23.77 -19.3,-43 -43,-43" /><path
         id="path252"
         style="fill:#ffffff;fill-opacity:1;fill-rule:nonzero;stroke:none"
         d="m 932.438,8534.5 c 0,-112.34 101.102,-203.24 225.942,-203.24 h 293.77 l 180.69,-365.65 180.8,365.65 h 316.28 c 124.68,0 226,90.9 226,203.24 v 690.57 c 0,112.24 -101.32,203.24 -226,203.24 h -971.54 c -124.84,0 -225.942,-91 -225.942,-203.24 V 8534.5" /><path
         id="path254"
         style="fill:#f0413a;fill-opacity:1;fill-rule:nonzero;stroke:none"
         d="m 1064.63,8883.18 c 0,-93.56 75.88,-169.34 169.19,-169.34 v 0 c 93.56,0 169.48,75.78 169.48,169.34 v 0 c 0,93.51 -75.92,169.33 -169.48,169.33 v 0 c -93.31,0 -169.19,-75.82 -169.19,-169.33 v 0" /><path
         id="path256"
         style="fill:#f0413a;fill-opacity:1;fill-rule:nonzero;stroke:none"
         d="m 1469.13,8883.18 c 0,-93.56 75.87,-169.34 169.19,-169.34 v 0 c 93.56,0 169.48,75.78 169.48,169.34 v 0 c 0,93.51 -75.92,169.33 -169.48,169.33 v 0 c -93.32,0 -169.19,-75.82 -169.19,-169.33 v 0" /><path
         id="path258"
         style="fill:#f0413a;fill-opacity:1;fill-rule:nonzero;stroke:none"
         d="m 1873.62,8883.18 c 0,-93.56 75.87,-169.34 169.19,-169.34 v 0 c 93.56,0 169.48,75.78 169.48,169.34 v 0 c 0,93.51 -75.92,169.33 -169.48,169.33 v 0 c -93.32,0 -169.19,-75.82 -169.19,-169.33 v 0" /><path
         id="path260"
         style="fill:#ffffff;fill-opacity:1;fill-rule:nonzero;stroke:none"
         d="m 6187.5,1770.24 c 0,353.94 -286.97,640.77 -640.87,640.77 -354.04,0 -640.91,-286.83 -640.91,-640.77 0,-255.4 149.33,-475.89 365.55,-578.85 v -27.76 h 550.67 v 27.81 c 216.04,102.95 365.56,323.4 365.56,578.8" /><path
         id="path262"
         style="fill:#4d2559;fill-opacity:1;fill-rule:nonzero;stroke:none"
         d="m 5207.07,679.352 h 679.08 V 1163.63 H 5207.07 V 679.352" /><path
         id="path264"
         style="fill:#4d2559;fill-opacity:1;fill-rule:nonzero;stroke:none"
         d="m 5954.93,979.301 h -816.52 v 95.069 h 816.52 v -95.069" /><path
         id="path266"
         style="fill:#4d2559;fill-opacity:1;fill-rule:nonzero;stroke:none"
         d="m 5954.93,789.492 h -816.52 v 95.067 h 816.52 v -95.067" /><path
         id="path268"
         style="fill:#b56cbd;fill-opacity:1;fill-rule:nonzero;stroke:none"
         d="m 5587.03,2227.15 v 0 c 1.59,-24.34 -15.52,-45.89 -39.57,-49.88 -199.75,-33.19 -349.64,-204.02 -356.58,-406.35 -0.84,-24.36 -19.98,-44.13 -44.31,-45.71 v 0 c -28.1,-1.84 -51.67,21.03 -50.7,49.17 8.54,247.29 191.72,456.03 435.81,496.64 27.77,4.62 53.51,-15.78 55.35,-43.87" /><path
         id="path270"
         style="fill:#fab82b;fill-opacity:1;fill-rule:nonzero;stroke:none"
         d="m 5618.34,534.621 h -143.57 c -50.54,0 -91.51,40.981 -91.51,91.52 v 53.211 h 326.59 v -53.211 c 0,-50.539 -40.97,-91.52 -91.51,-91.52" /><path
         id="path272"
         style="fill:#fab82b;fill-opacity:1;fill-rule:nonzero;stroke:none"
         d="m 5048.07,8785.1 h 350.83 c 61.52,0 111.54,50.02 111.54,111.48 v 413.21 c 0,61.51 -50.02,111.52 -111.54,111.52 h -362.27 c -12.91,0 -24.91,6.96 -31.21,18.21 l -20.02,35.34 c -19.71,34.94 -56.92,56.62 -97.06,56.62 h -266.73 c -61.51,0 -111.53,-50.01 -111.53,-111.48 v -523.42 c 0,-61.46 50.02,-111.48 111.53,-111.48 h 350.83 v -3.93 h 75.63 v 3.93" /><path
         id="path274"
         style="fill:#fab82b;fill-opacity:1;fill-rule:nonzero;stroke:none"
         d="m 6354.79,8785.1 h 350.83 c 61.46,0 111.48,50.02 111.48,111.48 v 413.21 c 0,61.51 -50.02,111.52 -111.48,111.52 h -362.33 c -12.91,0 -24.86,6.96 -31.21,18.21 l -20.02,35.34 c -19.71,34.94 -56.92,56.62 -97.06,56.62 h -266.72 c -61.52,0 -111.48,-50.01 -111.48,-111.48 v -523.42 c 0,-61.46 49.96,-111.48 111.48,-111.48 h 350.88 v -3.93 h 75.63 v 3.93" /><path
         id="path276"
         style="fill:#fab82b;fill-opacity:1;fill-rule:nonzero;stroke:none"
         d="m 7623.72,8785.1 h 350.83 c 61.47,0 111.48,50.02 111.48,111.48 v 413.21 c 0,61.51 -50.01,111.52 -111.48,111.52 h -362.32 c -12.91,0 -24.86,6.96 -31.21,18.21 l -20.02,35.34 c -19.72,34.94 -56.93,56.62 -97.06,56.62 h -266.73 c -61.51,0 -111.48,-50.01 -111.48,-111.48 v -523.42 c 0,-61.46 49.97,-111.48 111.48,-111.48 h 350.88 v -3.93 h 75.63 v 3.93" /><path
         id="path278"
         style="fill:#fab82b;fill-opacity:1;fill-rule:nonzero;stroke:none"
         d="m 8892.66,8785.1 h 350.83 c 61.46,0 111.48,50.02 111.48,111.48 v 413.21 c 0,61.51 -50.02,111.52 -111.48,111.52 h -362.33 c -12.9,0 -24.86,6.96 -31.21,18.21 l -20.02,35.34 c -19.71,34.94 -56.92,56.62 -97.06,56.62 h -266.72 c -61.52,0 -111.48,-50.01 -111.48,-111.48 v -523.42 c 0,-61.46 49.96,-111.48 111.48,-111.48 h 350.88 v -3.93 h 75.63 v 3.93" /><path
         id="path280"
         style="fill:#4d2559;fill-opacity:1;fill-rule:nonzero;stroke:none"
         d="m 6316.92,8419.85 c -45.88,0 -83.19,37.36 -83.19,83.2 0,45.88 37.31,83.19 83.19,83.19 45.89,0 83.2,-37.31 83.2,-83.19 0,-45.84 -37.31,-83.2 -83.2,-83.2 z m -1306.66,0 c -45.89,0 -83.2,37.36 -83.2,83.2 0,45.88 37.31,83.19 83.2,83.19 45.88,0 83.19,-37.31 83.19,-83.19 0,-45.84 -37.31,-83.2 -83.19,-83.2 z m 1772.7,121.01 h -311.8 c -14.02,57.28 -59.14,102.41 -116.37,116.42 v 123.89 h -75.63 v -123.84 c -57.28,-14.06 -102.41,-59.19 -116.48,-116.47 H 5164.5 c -14.02,57.28 -59.2,102.41 -116.43,116.47 v 123.84 h -75.63 v -123.89 c -57.28,-14.01 -102.4,-59.14 -116.42,-116.42 h -311.75 c -20.93,0 -37.82,-16.89 -37.82,-37.81 0,-20.88 16.89,-37.82 37.82,-37.82 h 311.75 c 16.99,-69.33 79.72,-121.01 154.24,-121.01 74.57,0 137.24,51.68 154.24,121.01 h 998.18 c 17.05,-69.33 79.72,-121.01 154.24,-121.01 74.57,0 137.25,51.68 154.24,121.01 h 311.8 c 20.88,0 37.82,16.94 37.82,37.82 0,20.92 -16.94,37.81 -37.82,37.81" /><path
         id="path282"
         style="fill:#f0413a;fill-opacity:1;fill-rule:nonzero;stroke:none"
         d="m 6316.92,8586.24 c 45.89,0 83.2,-37.31 83.2,-83.19 0,-45.84 -37.31,-83.2 -83.2,-83.2 -45.88,0 -83.19,37.36 -83.19,83.2 0,45.88 37.31,83.19 83.19,83.19" /><path
         id="path284"
         style="fill:#f0413a;fill-opacity:1;fill-rule:nonzero;stroke:none"
         d="m 5010.26,8586.24 c 45.88,0 83.19,-37.31 83.19,-83.19 0,-45.84 -37.31,-83.2 -83.19,-83.2 -45.89,0 -83.2,37.36 -83.2,83.2 0,45.88 37.31,83.19 83.2,83.19" /><path
         id="path286"
         style="fill:#4d2559;fill-opacity:1;fill-rule:nonzero;stroke:none"
         d="m 8896.2,8419.85 c -45.88,0 -83.19,37.36 -83.19,83.2 0,45.88 37.31,83.19 83.19,83.19 45.88,0 83.19,-37.31 83.19,-83.19 0,-45.84 -37.31,-83.2 -83.19,-83.2 z m -1306.66,0 c -45.89,0 -83.2,37.36 -83.2,83.2 0,45.88 37.31,83.19 83.2,83.19 45.88,0 83.19,-37.31 83.19,-83.19 0,-45.84 -37.31,-83.2 -83.19,-83.2 z m 1772.7,121.01 h -311.8 c -14.02,57.28 -59.15,102.41 -116.37,116.42 v 123.89 h -75.64 v -123.84 c -57.27,-14.06 -102.4,-59.19 -116.47,-116.47 h -998.19 c -14.01,57.28 -59.19,102.41 -116.42,116.47 v 123.84 h -75.63 v -123.89 c -57.28,-14.01 -102.41,-59.14 -116.42,-116.42 h -716.7 c -20.93,0 -37.82,-16.89 -37.82,-37.81 0,-20.88 16.89,-37.82 37.82,-37.82 h 716.7 c 16.99,-69.33 79.72,-121.01 154.24,-121.01 74.57,0 137.24,51.68 154.23,121.01 h 998.19 c 17.04,-69.33 79.72,-121.01 154.24,-121.01 74.57,0 137.25,51.68 154.24,121.01 h 311.8 c 20.88,0 37.82,16.94 37.82,37.82 0,20.92 -16.94,37.81 -37.82,37.81" /><path
         id="path288"
         style="fill:#f0413a;fill-opacity:1;fill-rule:nonzero;stroke:none"
         d="m 8896.2,8586.24 c 45.88,0 83.19,-37.31 83.19,-83.19 0,-45.84 -37.31,-83.2 -83.19,-83.2 -45.88,0 -83.19,37.36 -83.19,83.2 0,45.88 37.31,83.19 83.19,83.19" /><path
         id="path290"
         style="fill:#f0413a;fill-opacity:1;fill-rule:nonzero;stroke:none"
         d="m 7589.54,8586.24 c 45.88,0 83.19,-37.31 83.19,-83.19 0,-45.84 -37.31,-83.2 -83.19,-83.2 -45.89,0 -83.2,37.36 -83.2,83.2 0,45.88 37.31,83.19 83.2,83.19" /><path
         id="path292"
         style="fill:#4d2559;fill-opacity:1;fill-rule:nonzero;stroke:none"
         d="m 3788.96,9345.53 h -854.82 v 40 h 854.82 v -40" /><path
         id="path294"
         style="fill:#4d2559;fill-opacity:1;fill-rule:nonzero;stroke:none"
         d="m 3928.5,8912.54 h -566.95 v 40 h 566.95 v -40" /><path
         id="path296"
         style="fill:#4d2559;fill-opacity:1;fill-rule:nonzero;stroke:none"
         d="m 3645.02,8566.24 h -629.41 v 40 h 629.41 v -40" /><path
         id="path298"
         style="fill:#4d2559;fill-opacity:1;fill-rule:nonzero;stroke:none"
         d="m 10935.2,9345.53 h -882.6 v 40 h 882.6 v -40" /><path
         id="path300"
         style="fill:#4d2559;fill-opacity:1;fill-rule:nonzero;stroke:none"
         d="m 10299.9,9032.51 h -423.58 v 40 h 423.58 v -40" /><path
         id="path302"
         style="fill:#4d2559;fill-opacity:1;fill-rule:nonzero;stroke:none"
         d="m 11147,9032.51 h -380.5 v 40 h 380.5 v -40" /><path
         id="path304"
         style="fill:#4d2559;fill-opacity:1;fill-rule:nonzero;stroke:none"
         d="m 11958.6,9345.53 h -599.8 v 40 h 599.8 v -40" /><path
         id="path306"
         style="fill:#4d2559;fill-opacity:1;fill-rule:nonzero;stroke:none"
         d="m 11323.2,8483.05 h -1023.3 v 40 h 1023.3 v -40" /><path
         id="path308"
         style="fill:#4d2559;fill-opacity:1;fill-rule:nonzero;stroke:none"
         d="m 12037.1,8483.05 h -347.3 v 40 h 347.3 v -40" /><path
         id="path310"
         style="fill:#4d2559;fill-opacity:1;fill-rule:nonzero;stroke:none"
         d="m 13788.3,8012.97 h -544.8 v 40 h 544.8 v -40" /><path
         id="path312"
         style="fill:#4d2559;fill-opacity:1;fill-rule:nonzero;stroke:none"
         d="m 13431.5,7617.5 h -301.8 v 40 h 301.8 v -40" /><path
         id="path314"
         style="fill:#4d2559;fill-opacity:1;fill-rule:nonzero;stroke:none"
         d="m 13788.3,9136.33 h -272.4 v 40 h 272.4 v -40" /><path
         id="path316"
         style="fill:#4d2559;fill-opacity:1;fill-rule:nonzero;stroke:none"
         d="m 13652.1,5340.11 h -853 v 40 h 853 v -40" /><path
         id="path318"
         style="fill:#4d2559;fill-opacity:1;fill-rule:nonzero;stroke:none"
         d="m 13788.3,5753.27 h -356.8 v 40 h 356.8 v -40" /><path
         id="path320"
         style="fill:#4d2559;fill-opacity:1;fill-rule:nonzero;stroke:none"
         d="m 11456.5,4894.15 h -644.9 v 40 h 644.9 v -40" /><path
         id="path322"
         style="fill:#4d2559;fill-opacity:1;fill-rule:nonzero;stroke:none"
         d="m 11570.5,5340.11 h -459 v 40 h 459 v -40" /><path
         id="path324"
         style="fill:#4d2559;fill-opacity:1;fill-rule:nonzero;stroke:none"
         d="M 12799.1,4875.61 H 12089 v 39.99 h 710.1 v -39.99" /><path
         id="path326"
         style="fill:#4d2559;fill-opacity:1;fill-rule:nonzero;stroke:none"
         d="m 13788.3,4361.88 h -434 v 40 h 434 v -40" /><path
         id="path328"
         style="fill:#4d2559;fill-opacity:1;fill-rule:nonzero;stroke:none"
         d="m 11076,3921.46 h -309.5 v 40 h 309.5 v -40" /><path
         id="path330"
         style="fill:#4d2559;fill-opacity:1;fill-rule:nonzero;stroke:none"
         d="m 13571.3,1933.27 h -559.4 v 40 h 559.4 v -40" /><path
         id="path332"
         style="fill:#4d2559;fill-opacity:1;fill-rule:nonzero;stroke:none"
         d="m 13280.6,1405.47 h -481.5 v 40 h 481.5 v -40" /><path
         id="path334"
         style="fill:#4d2559;fill-opacity:1;fill-rule:nonzero;stroke:none"
         d="m 13788.3,714.672 h -434 v 40 h 434 v -40" /><path
         id="path336"
         style="fill:#4d2559;fill-opacity:1;fill-rule:nonzero;stroke:none"
         d="m 8715.12,2391.01 h -564.63 v 40 h 564.63 v -40" /><path
         id="path338"
         style="fill:#4d2559;fill-opacity:1;fill-rule:nonzero;stroke:none"
         d="m 10431.7,2213.96 h -802.63 v 40 h 802.63 v -40" /><path
         id="path340"
         style="fill:#4d2559;fill-opacity:1;fill-rule:nonzero;stroke:none"
         d="m 9876.32,2444.14 h -494.57 v 40 h 494.57 v -40" /><path
         id="path342"
         style="fill:#4d2559;fill-opacity:1;fill-rule:nonzero;stroke:none"
         d="m 7429.5,1137 h -612.4 v 40 h 612.4 v -40" /><path
         id="path344"
         style="fill:#4d2559;fill-opacity:1;fill-rule:nonzero;stroke:none"
         d="m 7429.35,565.332 -794.05,6.18 0.31,40 794.05,-6.18 -0.31,-40" /><path
         id="path346"
         style="fill:#4d2559;fill-opacity:1;fill-rule:nonzero;stroke:none"
         d="m 8301.77,659.352 h -569.8 v 40 h 569.8 v -40" /><path
         id="path348"
         style="fill:#4d2559;fill-opacity:1;fill-rule:nonzero;stroke:none"
         d="m 4421.7,2391.01 h -493.2 v 40 h 493.2 v -40" /><path
         id="path350"
         style="fill:#4d2559;fill-opacity:1;fill-rule:nonzero;stroke:none"
         d="m 4707.16,1405.47 h -535.99 v 40 h 535.99 v -40" /><path
         id="path352"
         style="fill:#4d2559;fill-opacity:1;fill-rule:nonzero;stroke:none"
         d="m 4814.2,973.41 h -307.75 v 40 h 307.75 v -40" /><path
         id="path354"
         style="fill:#4d2559;fill-opacity:1;fill-rule:nonzero;stroke:none"
         d="M 1193.3,2832.42 H 603.684 v 40 H 1193.3 v -40" /><path
         id="path356"
         style="fill:#4d2559;fill-opacity:1;fill-rule:nonzero;stroke:none"
         d="M 744.41,2444.14 H 378.762 v 40 H 744.41 v -40" /><path
         id="path358"
         style="fill:#4d2559;fill-opacity:1;fill-rule:nonzero;stroke:none"
         d="m 1403.3,2444.14 h -210 v 40 h 210 v -40" /><path
         id="path360"
         style="fill:#4d2559;fill-opacity:1;fill-rule:nonzero;stroke:none"
         d="m 1727.74,5118.59 h -685.87 v 40 h 685.87 v -40" /><path
         id="path362"
         style="fill:#4d2559;fill-opacity:1;fill-rule:nonzero;stroke:none"
         d="M 962.734,4785.88 H 378.762 v 40 h 583.972 v -40" /><path
         id="path364"
         style="fill:#4d2559;fill-opacity:1;fill-rule:nonzero;stroke:none"
         d="m 3015.61,5118.59 h -582.88 v 40 h 582.88 v -40" /><path
         id="path366"
         style="fill:#4d2559;fill-opacity:1;fill-rule:nonzero;stroke:none"
         d="m 2832.96,4732.42 h -266.02 v 40 h 266.02 v -40" /><path
         id="path368"
         style="fill:#4d2559;fill-opacity:1;fill-rule:nonzero;stroke:none"
         d="M 856.715,8147.52 H 378.762 v 40 h 477.953 v -40" /><path
         id="path370"
         style="fill:#4d2559;fill-opacity:1;fill-rule:nonzero;stroke:none"
         d="M 856.715,7878.42 H 486.754 v 40 h 369.961 v -40" /></g></g></svg>