<svg id="Illustrations" xmlns="http://www.w3.org/2000/svg" xmlns:xlink="http://www.w3.org/1999/xlink" viewBox="0 0 474 320"><defs><style>.cls-1{fill:#003178;}.cls-2{fill:#002050;}.cls-3{fill:#6dc2e9;}.cls-4{fill:#0072c6;}.cls-5{fill:#fff;}.cls-6{fill:#dfdfdf;}</style><symbol id="City-4" data-name="City" viewBox="0 0 474 320"><polygon class="cls-1" points="367.54 95.23 367.54 136.55 326.74 136.55 326.74 22.77 317.34 22.77 317.34 8.76 293.25 8.76 293.25 22.77 273.28 22.77 273.28 0 268.58 0 268.58 22.77 251.55 22.77 251.55 121.02 219.56 121.02 219.56 160 180.46 160 180.46 225.52 172.24 225.52 172.24 47.28 117.61 87.74 117.61 174.07 89.7 174.07 89.7 84.06 75.61 84.06 67.97 63.04 63.27 63.04 63.27 0 57.99 0 57.99 63.04 53.29 63.04 45.65 84.06 31.55 84.06 31.55 159.35 16.87 159.35 16.59 303.24 457.41 303.24 457.41 286.63 457.41 95.23 367.54 95.23"/><rect class="cls-2" y="303.24" width="474" height="16.76"/></symbol></defs><title>illus</title><use width="474" height="320" transform="translate(0)" xlink:href="#City-4"/><path class="cls-3" d="M239.58,46.31a104.45,104.45,0,0,0-104.5,104.82V303.24H308.7V262.4h-2.14c-14.47,0-26.79-8.06-33.76-19.89h35.9V212.94h35.9V151.13a104.91,104.91,0,0,0-105-104.82h0ZM276,176.93a12.48,12.48,0,0,1-12.33-12.36A12.15,12.15,0,0,1,276,152.2a12.48,12.48,0,0,1,12.33,12.36c0,6.45-5.89,12.36-12.33,12.36h0Z"/><path class="cls-4" d="M256.72,190.4h-0.54a8.85,8.85,0,0,1-8.61-8.64V135H245v46.73A11.25,11.25,0,0,0,256.19,193h0.54a8.25,8.25,0,0,1,8.61,8.64v65.69h2.61V201.66A11.25,11.25,0,0,0,256.72,190.4Z"/><path class="cls-4" d="M207.46,152.74A14.54,14.54,0,0,1,193,167.29h-8.57A17.49,17.49,0,0,0,166.73,185v49.41h2.61V185a15.08,15.08,0,0,1,15-15.09H193a17.16,17.16,0,0,0,17.11-17.16V135h-2.61v17.7Z"/><rect class="cls-4" x="215.54" y="135.04" width="2.61" height="67.12"/><polygon class="cls-5" points="282.93 266.85 249.7 266.85 249.7 303.25 282.93 303.25 282.93 268.85 282.93 266.85"/><polygon class="cls-5" points="233.68 201.66 200.46 201.66 200.46 303.25 233.68 303.25 233.68 201.66 233.68 201.66"/><polygon class="cls-3" points="207.96 213.48 204.21 213.48 204.21 207.57 207.96 207.57 207.96 213.48 207.96 213.48"/><polygon class="cls-4" points="214.92 213.48 211.71 213.48 211.71 207.57 214.92 207.57 214.92 213.48 214.92 213.48"/><polygon class="cls-4" points="221.89 213.48 218.68 213.48 218.68 207.57 221.89 207.57 221.89 213.48 221.89 213.48"/><polygon class="cls-4" points="207.96 223.16 204.21 223.16 204.21 217.24 207.96 217.24 207.96 223.16 207.96 223.16"/><polygon class="cls-3" points="214.92 223.16 211.71 223.16 211.71 217.24 214.92 217.24 214.92 223.16 214.92 223.16"/><polygon class="cls-4" points="221.89 223.16 218.68 223.16 218.68 217.24 221.89 217.24 221.89 223.16 221.89 223.16"/><polygon class="cls-4" points="229.39 223.16 225.64 223.16 225.64 217.24 229.39 217.24 229.39 223.16 229.39 223.16"/><polygon class="cls-4" points="207.96 232.83 204.21 232.83 204.21 226.92 207.96 226.92 207.96 232.83 207.96 232.83"/><polygon class="cls-3" points="214.92 232.83 211.71 232.83 211.71 226.92 214.92 226.92 214.92 232.83 214.92 232.83"/><polygon class="cls-4" points="221.89 232.83 218.68 232.83 218.68 226.92 221.89 226.92 221.89 232.83 221.89 232.83"/><polygon class="cls-4" points="229.39 232.83 225.64 232.83 225.64 226.92 229.39 226.92 229.39 232.83 229.39 232.83"/><polygon class="cls-3" points="207.96 242.51 204.21 242.51 204.21 236.59 207.96 236.59 207.96 242.51 207.96 242.51"/><polygon class="cls-3" points="221.89 242.51 218.68 242.51 218.68 236.59 221.89 236.59 221.89 242.51 221.89 242.51"/><polygon class="cls-4" points="229.39 242.51 225.64 242.51 225.64 236.59 229.39 236.59 229.39 242.51 229.39 242.51"/><polygon class="cls-4" points="207.96 252.18 204.21 252.18 204.21 246.27 207.96 246.27 207.96 252.18 207.96 252.18"/><polygon class="cls-4" points="214.92 252.18 211.71 252.18 211.71 246.27 214.92 246.27 214.92 252.18 214.92 252.18"/><polygon class="cls-4" points="221.89 252.18 218.68 252.18 218.68 246.27 221.89 246.27 221.89 252.18 221.89 252.18"/><polygon class="cls-4" points="229.39 252.18 225.64 252.18 225.64 246.27 229.39 246.27 229.39 252.18 229.39 252.18"/><polygon class="cls-4" points="207.96 261.86 204.21 261.86 204.21 255.94 207.96 255.94 207.96 261.86 207.96 261.86"/><polygon class="cls-3" points="214.92 261.86 211.71 261.86 211.71 255.94 214.92 255.94 214.92 261.86 214.92 261.86"/><polygon class="cls-3" points="229.39 261.86 225.64 261.86 225.64 255.94 229.39 255.94 229.39 261.86 229.39 261.86"/><polygon class="cls-3" points="207.96 271.53 204.21 271.53 204.21 265.62 207.96 265.62 207.96 271.53 207.96 271.53"/><polygon class="cls-4" points="214.92 271.53 211.71 271.53 211.71 265.62 214.92 265.62 214.92 271.53 214.92 271.53"/><polygon class="cls-3" points="221.89 271.53 218.68 271.53 218.68 265.62 221.89 265.62 221.89 271.53 221.89 271.53"/><polygon class="cls-4" points="229.39 271.53 225.64 271.53 225.64 265.62 229.39 265.62 229.39 271.53 229.39 271.53"/><polygon class="cls-4" points="207.96 281.21 204.21 281.21 204.21 275.3 207.96 275.3 207.96 281.21 207.96 281.21"/><polygon class="cls-4" points="221.89 281.21 218.68 281.21 218.68 275.3 221.89 275.3 221.89 281.21 221.89 281.21"/><polygon class="cls-4" points="229.39 281.21 225.64 281.21 225.64 275.3 229.39 275.3 229.39 281.21 229.39 281.21"/><polygon class="cls-4" points="207.96 290.88 204.21 290.88 204.21 284.97 207.96 284.97 207.96 290.88 207.96 290.88"/><polygon class="cls-3" points="214.92 290.88 211.71 290.88 211.71 284.97 214.92 284.97 214.92 290.88 214.92 290.88"/><polygon class="cls-3" points="229.39 290.88 225.64 290.88 225.64 284.97 229.39 284.97 229.39 290.88 229.39 290.88"/><polygon class="cls-5" points="184.91 233.91 151.69 233.91 151.69 303.25 184.91 303.25 184.91 233.91 184.91 233.91"/><polygon class="cls-3" points="265.24 276.91 261.49 276.91 261.49 271.53 265.24 271.53 265.24 276.91 265.24 276.91"/><polygon class="cls-4" points="271.67 276.91 267.92 276.91 267.92 271.53 271.67 271.53 271.67 276.91 271.67 276.91"/><polygon class="cls-4" points="278.1 276.91 274.35 276.91 274.35 271.53 278.1 271.53 278.1 276.91 278.1 276.91"/><polygon class="cls-4" points="258.81 286.58 255.06 286.58 255.06 281.21 258.81 281.21 258.81 286.58 258.81 286.58"/><polygon class="cls-4" points="265.24 286.58 261.49 286.58 261.49 281.21 265.24 281.21 265.24 286.58 265.24 286.58"/><polygon class="cls-3" points="271.67 286.58 267.92 286.58 267.92 281.21 271.67 281.21 271.67 286.58 271.67 286.58"/><polygon class="cls-4" points="265.24 296.26 261.49 296.26 261.49 290.88 265.24 290.88 265.24 296.26 265.24 296.26"/><polygon class="cls-3" points="271.67 296.26 267.92 296.26 267.92 290.88 271.67 290.88 271.67 296.26 271.67 296.26"/><polygon class="cls-4" points="278.1 296.26 274.35 296.26 274.35 290.88 278.1 290.88 278.1 296.26 278.1 296.26"/><polygon class="cls-6" points="229.39 213.48 225.64 213.48 225.64 207.57 229.39 207.57 229.39 213.48 229.39 213.48"/><polygon class="cls-6" points="214.92 242.51 211.71 242.51 211.71 236.59 214.92 236.59 214.92 242.51 214.92 242.51"/><polygon class="cls-6" points="221.89 261.86 218.68 261.86 218.68 255.94 221.89 255.94 221.89 261.86 221.89 261.86"/><polygon class="cls-6" points="214.92 281.21 211.71 281.21 211.71 275.3 214.92 275.3 214.92 281.21 214.92 281.21"/><polygon class="cls-6" points="221.89 290.88 218.68 290.88 218.68 284.97 221.89 284.97 221.89 290.88 221.89 290.88"/><polygon class="cls-6" points="156.51 242.51 160.26 242.51 160.26 296.8 156.51 296.8 156.51 242.51 156.51 242.51"/><polygon class="cls-6" points="162.94 242.51 166.69 242.51 166.69 296.8 162.94 296.8 162.94 242.51 162.94 242.51"/><polygon class="cls-6" points="169.37 242.51 173.13 242.51 173.13 296.8 169.37 296.8 169.37 242.51 169.37 242.51"/><polygon class="cls-6" points="175.81 242.51 179.56 242.51 179.56 296.8 175.81 296.8 175.81 242.51 175.81 242.51"/><polygon class="cls-6" points="258.81 276.91 255.06 276.91 255.06 271.53 258.81 271.53 258.81 276.91 258.81 276.91"/><polygon class="cls-6" points="278.1 286.58 274.35 286.58 274.35 281.21 278.1 281.21 278.1 286.58 278.1 286.58"/><polygon class="cls-6" points="258.81 296.26 255.06 296.26 255.06 290.88 258.81 290.88 258.81 296.26 258.81 296.26"/><path class="cls-5" d="M194,91.46h2.14A25.74,25.74,0,0,1,194,81.79a22.1,22.1,0,0,1,22-22c11.25,0,20.36,8.6,22,19.35a21.36,21.36,0,0,1,16.08-7,21.89,21.89,0,0,1,22,21,18.86,18.86,0,0,1,7.5-1.61c12.33,0,22.51,10.21,22.51,22a22.22,22.22,0,0,1-22.51,22H194a21.76,21.76,0,0,1-22-22,22.1,22.1,0,0,1,22-22h0Z"/><path class="cls-5" d="M431.73,300.4a2.71,2.71,0,0,1-2.44,2.84H373.58a2.71,2.71,0,0,1-2.44-2.84V182.56a2.71,2.71,0,0,1,2.44-2.84h55.71a2.71,2.71,0,0,1,2.44,2.84V300.4Z"/><path class="cls-6" d="M371.14,298.78v1.62a2.71,2.71,0,0,0,2.44,2.84h55.71a2.71,2.71,0,0,0,2.44-2.84v-1.62H371.14Z"/><polygon class="cls-4" points="431.73 291.48 371.14 291.48 371.14 298.78 431.73 298.78 431.73 291.48 431.73 291.48"/><rect class="cls-6" x="371.14" y="194.28" width="60.6" height="34.95"/><rect class="cls-3" x="387.88" y="176.24" width="2.61" height="36.08" transform="translate(194.9 583.46) rotate(-90)"/><path class="cls-4" d="M431.74,191.37H409.09a2.76,2.76,0,0,0-2.92,2.91,3.12,3.12,0,0,0,2.92,2.91h22.65v-5.83Z"/><rect class="cls-3" x="387.88" y="193.72" width="2.61" height="36.08" transform="translate(177.42 600.94) rotate(-90)"/><path class="cls-4" d="M431.74,208.84H409.09a2.76,2.76,0,0,0-2.92,2.91,3.12,3.12,0,0,0,2.92,2.91h22.65v-5.83Z"/><rect class="cls-3" x="387.88" y="211.19" width="2.61" height="36.08" transform="translate(159.95 618.41) rotate(-90)"/><path class="cls-4" d="M431.74,226.32H409.09a2.76,2.76,0,0,0-2.92,2.91,3.12,3.12,0,0,0,2.92,2.91h22.65v-5.83Z"/><circle class="cls-3" cx="401.43" cy="277.71" r="5.16"/><circle class="cls-4" cx="401.43" cy="277.71" r="2.66"/><path class="cls-6" d="M103.71,124.38H46.65a3.05,3.05,0,0,0-2.78,3.1V303.24H106.8V127.48a3.32,3.32,0,0,0-3.08-3.1h0Z"/><rect class="cls-3" x="94.8" y="120.68" width="2.61" height="15.53" transform="translate(-32.34 224.54) rotate(-90)"/><rect class="cls-3" x="94.8" y="125.67" width="2.61" height="15.53" transform="translate(-37.32 229.53) rotate(-90)"/><rect class="cls-3" x="94.8" y="130.65" width="2.61" height="15.53" transform="translate(-42.31 234.52) rotate(-90)"/><rect class="cls-3" x="53.11" y="120.68" width="2.61" height="15.53" transform="translate(-74.03 182.85) rotate(-90)"/><rect class="cls-3" x="53.11" y="125.67" width="2.61" height="15.53" transform="translate(-79.02 187.84) rotate(-90)"/><rect class="cls-3" x="53.11" y="130.65" width="2.61" height="15.53" transform="translate(-84.01 192.83) rotate(-90)"/><rect class="cls-5" x="46.65" y="142.33" width="57.22" height="10.79"/><path class="cls-4" d="M100.63,145.44H89.83a2.2,2.2,0,0,0,0,4.34h10.8v-4.34Z"/><rect class="cls-5" x="46.65" y="155.73" width="57.22" height="10.79"/><path class="cls-4" d="M100.63,158.85H89.83a2.2,2.2,0,0,0,0,4.34h10.8v-4.34Z"/><rect class="cls-5" x="46.65" y="169.14" width="57.22" height="10.79"/><path class="cls-4" d="M100.63,172.25H89.83a2.2,2.2,0,0,0,0,4.34h10.8v-4.34Z"/><rect class="cls-5" x="46.65" y="182.54" width="57.22" height="10.79"/><path class="cls-4" d="M100.63,185.65H89.83a2.2,2.2,0,0,0,0,4.34h10.8v-4.34Z"/><rect class="cls-5" x="46.65" y="195.94" width="57.22" height="10.79"/><path class="cls-4" d="M100.63,199.06H89.83a2.2,2.2,0,0,0,0,4.34h10.8v-4.34Z"/><rect class="cls-5" x="46.65" y="209.34" width="57.22" height="10.79"/><path class="cls-4" d="M100.63,212.46H89.83a2.2,2.2,0,0,0,0,4.34h10.8v-4.34Z"/><rect class="cls-5" x="46.65" y="222.75" width="57.22" height="10.79"/><path class="cls-4" d="M100.63,225.86H89.83a2.2,2.2,0,0,0,0,4.34h10.8v-4.34Z"/><rect class="cls-5" x="46.65" y="236.15" width="57.22" height="10.79"/><path class="cls-4" d="M100.63,239.26H89.83a2.2,2.2,0,0,0,0,4.34h10.8v-4.34Z"/><rect class="cls-5" x="46.65" y="249.55" width="57.22" height="10.79"/><rect class="cls-3" x="73.95" y="233.04" width="2.61" height="57.22" transform="translate(-186.4 336.91) rotate(-90)"/><rect class="cls-5" x="46.65" y="262.96" width="57.22" height="10.79"/><polygon class="cls-3" points="64.18 264.55 62.38 261.65 64.18 258.76 86.18 258.76 87.98 261.65 86.18 264.55 64.18 264.55 64.18 264.55"/><rect class="cls-3" x="73.95" y="246.46" width="2.61" height="57.22" transform="translate(-199.81 350.32) rotate(-90)"/><rect class="cls-5" x="46.65" y="276.37" width="57.22" height="10.79"/><polygon class="cls-3" points="64.18 277.96 62.38 275.07 64.18 272.17 86.18 272.17 87.98 275.07 86.18 277.96 64.18 277.96 64.18 277.96"/><rect class="cls-3" x="73.95" y="259.83" width="2.61" height="57.22" transform="translate(-213.18 363.7) rotate(-90)"/><rect class="cls-5" x="46.65" y="289.74" width="57.22" height="10.79"/><polygon class="cls-3" points="64.18 291.34 62.38 288.44 64.18 285.54 86.18 285.54 87.98 288.44 86.18 291.34 64.18 291.34 64.18 291.34"/></svg>