<?xml version="1.0" encoding="iso-8859-1"?>
<!-- Generator: Adobe Illustrator 19.0.0, SVG Export Plug-In . SVG Version: 6.00 Build 0)  -->
<svg version="1.1" id="Capa_1" xmlns="http://www.w3.org/2000/svg" xmlns:xlink="http://www.w3.org/1999/xlink" x="0px" y="0px"
	 viewBox="0 0 512 512" style="enable-background:new 0 0 512 512;" xml:space="preserve">
<rect x="76" y="452" style="fill:#555970;" width="180" height="30"/>
<rect x="256" y="452" style="fill:#735A52;" width="180" height="30"/>
<polygon style="fill:#555970;" points="76,210 76,240 256,240 241,210 "/>
<g>
	<polygon style="fill:#735A52;" points="436,210 271,210 256,240 436,240 	"/>
	<path style="fill:#735A52;" d="M316,60h-60l-20,15l20,15h60c24.813,0,45,20.187,45,45v332h30V135C391,93.645,357.355,60,316,60z"/>
</g>
<path style="fill:#555970;" d="M196,60c-41.355,0-75,33.645-75,75v332h30V135c0-24.813,20.187-45,45-45h60V60H196z"/>
<path style="fill:#735A52;" d="M256,0l-20,15l20,15c24.813,0,45,20.187,45,45h30C331,33.645,297.355,0,256,0z"/>
<g>
	<path style="fill:#555970;" d="M181,75h30c0-24.813,20.187-45,45-45V0C214.645,0,181,33.645,181,75z"/>
	<rect x="181" y="225" style="fill:#555970;" width="30" height="242"/>
</g>
<g>
	<rect x="241" y="210" style="fill:#735A52;" width="30" height="302"/>
	<rect x="301" y="225" style="fill:#735A52;" width="30" height="242"/>
	<polygon style="fill:#735A52;" points="376,120 256,120 236,135 256,150 376,150 	"/>
</g>
<rect x="136" y="120" style="fill:#555970;" width="120" height="30"/>
<rect x="451.5" y="115" style="fill:#735A52;" width="30" height="65"/>
<path style="fill:#FFEF4A;" d="M466.5,44C441.411,44,421,64.411,421,89.5s20.411,45.5,45.5,45.5S512,114.589,512,89.5
	S491.589,44,466.5,44z"/>
<rect x="421" y="165" style="fill:#F67547;" width="91" height="347"/>
<rect x="30.5" y="115" style="fill:#555970;" width="30" height="65"/>
<path style="fill:#FFF7A5;" d="M45.5,44C20.411,44,0,64.411,0,89.5S20.411,135,45.5,135S91,114.589,91,89.5S70.589,44,45.5,44z"/>
<rect y="165" style="fill:#F9A167;" width="91" height="347"/>
<g>
</g>
<g>
</g>
<g>
</g>
<g>
</g>
<g>
</g>
<g>
</g>
<g>
</g>
<g>
</g>
<g>
</g>
<g>
</g>
<g>
</g>
<g>
</g>
<g>
</g>
<g>
</g>
<g>
</g>
</svg>
