<svg xmlns="http://www.w3.org/2000/svg" xmlns:xlink="http://www.w3.org/1999/xlink" viewBox="0 0 446.51 447.25"><defs><style>.cls-1{fill:#c6c6c6;}.cls-2{fill:url(#gradient_grey);}.cls-3{fill:#fff;}</style><linearGradient id="gradient_grey" x1="-30" y1="223.63" x2="435.44" y2="223.63" gradientTransform="translate(30)" gradientUnits="userSpaceOnUse"><stop offset="0" stop-color="#a5a5a5"/><stop offset="0.16" stop-color="#a5a5a5" stop-opacity="0.98"/><stop offset="0.31" stop-color="#a5a5a5" stop-opacity="0.9"/><stop offset="0.47" stop-color="#a5a5a5" stop-opacity="0.78"/><stop offset="0.62" stop-color="#a5a5a5" stop-opacity="0.61"/><stop offset="0.78" stop-color="#a5a5a5" stop-opacity="0.4"/><stop offset="0.93" stop-color="#a5a5a5" stop-opacity="0.13"/><stop offset="1" stop-color="#a5a5a5" stop-opacity="0"/></linearGradient></defs><title>icon_bluetooth</title><g id="Ebene_2" data-name="Ebene 2"><g id="product_features_raute_v2" data-name="product features raute v2"><g id="bluetooth_grey" data-name="bluetooth grey"><path class="cls-1" d="M258.46,12.87c24,19.54,70.18,61,92.08,82.85s63.23,68.71,83.29,92.51c17.11,20.31,16.72,49.9,0,70.71-19.38,24.12-60.39,70.56-82.26,92.44-22,22-68.3,64-93.1,82.93-22.14,16.86-49.75,17.65-70.71,0-23.81-20-70.71-61.08-92.72-83.09s-64-67.57-82.65-92.28c-16.32-21.6-16.71-49.61,0-70.71C31.74,163.8,73.92,117.77,96,95.74c21.87-21.86,67.58-63.64,91.79-82.87C209.1-4.09,237.11-4.49,258.46,12.87Z"/><g id="shadow"><path class="cls-2" d="M203.5,252.33,160.62,295h0l42.89,19.66Zm0-73.14-42.9-19.66,42.9,42.65Zm230.32,9c-2.78-3.3-6-7.06-9.47-11.12l-2.08-2.3L204.61,75.08l98.1,77.8-74.39,74.38,74.39,74.38L203.5,380.32h0l77.58,35.55c24.38-20.74,54.11-48.12,70.48-64.49,21.87-21.88,62.89-68.32,82.26-92.44C450.54,238.14,450.94,208.55,433.82,188.23ZM223.89,115.7v88.13l49.21-49.21Zm0,223.13,49.21-38.94-49.21-49.21Z"/></g><path class="cls-3" d="M302.71,152.88,203.5,74.2v128l-42.9-42.65-14.34,14.21,53.46,53.51-53.55,53.51L160.62,295l42.89-42.64v128l99.21-78.68-74.39-74.38ZM223.89,115.7l49.21,38.93-49.21,49.21ZM273.1,299.89l-49.21,38.94V250.68Z"/></g></g></g></svg>