<?xml version="1.0" encoding="utf-8"?>
<!-- Generator: Adobe Illustrator 21.0.0, SVG Export Plug-In . SVG Version: 6.00 Build 0)  -->
<svg version="1.1" id="Layer_1" xmlns="http://www.w3.org/2000/svg" xmlns:xlink="http://www.w3.org/1999/xlink" x="0px" y="0px"
	 width="1400px" height="1400px" viewBox="0 0 1400 1400" enable-background="new 0 0 1400 1400" xml:space="preserve">
<g opacity="0.52">
	<defs>
		<filter id="Adobe_OpacityMaskFilter" filterUnits="userSpaceOnUse" x="0" y="0" width="1400" height="1145.1">
			<feFlood  style="flood-color:white;flood-opacity:1" result="back"/>
			<feBlend  in="SourceGraphic" in2="back" mode="normal"/>
		</filter>
	</defs>
	<mask maskUnits="userSpaceOnUse" x="0" y="0" width="1400" height="1145.1" id="SVGID_1_">
		<g filter="url(#Adobe_OpacityMaskFilter)">
			<defs>
				<filter id="Adobe_OpacityMaskFilter_1_" filterUnits="userSpaceOnUse" x="0" y="0" width="1400" height="1145.1">
					<feFlood  style="flood-color:white;flood-opacity:1" result="back"/>
					<feBlend  in="SourceGraphic" in2="back" mode="normal"/>
				</filter>
			</defs>
			<mask maskUnits="userSpaceOnUse" x="0" y="0" width="1400" height="1145.1" id="SVGID_1_">
				<g filter="url(#Adobe_OpacityMaskFilter_1_)">
				</g>
			</mask>
			
				<linearGradient id="SVGID_2_" gradientUnits="userSpaceOnUse" x1="700.9891" y1="-9.094947e-13" x2="700.9891" y2="1145.1023" gradientTransform="matrix(-1 0 0 1 1400.9891 0)">
				<stop  offset="0" style="stop-color:#B3B3B3"/>
				<stop  offset="9.544879e-02" style="stop-color:#AAAAAA"/>
				<stop  offset="0.4275" style="stop-color:#939393"/>
				<stop  offset="0.7371" style="stop-color:#848484"/>
				<stop  offset="1" style="stop-color:#808080"/>
			</linearGradient>
			<rect x="0" mask="url(#SVGID_1_)" fill="url(#SVGID_2_)" width="1400" height="1145.1"/>
		</g>
	</mask>
	
		<linearGradient id="SVGID_3_" gradientUnits="userSpaceOnUse" x1="700.9891" y1="-9.094947e-13" x2="700.9891" y2="1145.1023" gradientTransform="matrix(-1 0 0 1 1400.9891 0)">
		<stop  offset="0" style="stop-color:#00A2D4"/>
		<stop  offset="0.1104" style="stop-color:#08B3D5;stop-opacity:0.9117"/>
		<stop  offset="0.3571" style="stop-color:#17D4D6;stop-opacity:0.7143"/>
		<stop  offset="0.5936" style="stop-color:#21ECD7;stop-opacity:0.5251"/>
		<stop  offset="0.8134" style="stop-color:#28FAD8;stop-opacity:0.3492"/>
		<stop  offset="1" style="stop-color:#2AFFD8;stop-opacity:0.2"/>
	</linearGradient>
	<rect x="0" fill="url(#SVGID_3_)" width="1400" height="1145.1"/>
</g>
<path fill="#FFFFFF" d="M1191,196.5c-107.2,127.6-66.8,169.9-203.3,191.1c-136.6,21.2-565.9-129.6-637,0
	C322.3,439.2,171.3,454.3,0,453.7v63.5h1400V137.9C1348.3,121.8,1261.2,113,1191,196.5z"/>
<rect y="1116.3" fill="#C6B9B5" width="1400" height="283.7"/>
<ellipse opacity="0.55" fill="#8E8380" cx="700" cy="1234.8" rx="463" ry="34.8"/>
<g>
	<g>
		<path fill="#191919" d="M1004.4,1249c-31.2,0-56.6-27.7-56.6-61.8c0-34.1,25.4-61.8,56.6-61.8s56.6,27.7,56.6,61.8
			C1061,1221.3,1035.6,1249,1004.4,1249z M1004.4,1139.2c-23.5,0-42.7,21.5-42.7,47.9c0,26.4,19.1,47.9,42.7,47.9
			c23.5,0,42.7-21.5,42.7-47.9C1047.1,1160.7,1027.9,1139.2,1004.4,1139.2z"/>
	</g>
	<path fill="#383838" d="M817,857.2c-95.3,0-172.9,87.9-172.9,195.9S721.7,1249,817,1249c95.3,0,172.9-87.9,172.9-195.9
		S912.3,857.2,817,857.2z M817,1215.5c-79,0-143.4-72.9-143.4-162.4c0-89.6,64.3-162.4,143.4-162.4c79,0,143.4,72.9,143.4,162.4
		C960.4,1142.7,896.1,1215.5,817,1215.5z"/>
	<g>
		<path fill="#EDEDED" d="M817,878.3c-85,0-154.3,78.4-154.3,174.8S732,1227.9,817,1227.9s154.3-78.4,154.3-174.8
			S902.1,878.3,817,878.3z M817,1215.5c-79.1,0-143.4-72.9-143.4-162.4S738,890.7,817,890.7s143.4,72.9,143.4,162.4
			S896.1,1215.5,817,1215.5z"/>
	</g>
	<path fill="#594944" d="M966.1,947.3H580.3l0,0c0-10,8.1-18.1,18.1-18.1h367.6V947.3z"/>
	<rect x="580.3" y="947.3" fill="#333645" width="385.8" height="18.1"/>
	<polygon fill="#333645" points="1008.1,965.4 1000.3,965.4 1105.8,1138.4 1113.7,1138.4 	"/>
	<path fill="#333645" d="M803.4,829h-223v-93c0-18.9,15.3-34.3,34.3-34.3h188.8V829z"/>
	<path fill="#333645" d="M1022.3,866.9c0-41.4-33.7-75-75-75H743.1v13.9h204.2c33.7,0,61.1,27.4,61.1,61.1v248.4
		c-10.1,0.7-18.1,9.2-18.1,19.4v55.8c0,3.8,3.1,7,7,7s7-3.1,7-7v-55.8c0-3.1,2.5-5.6,5.6-5.6l12.5,0V866.9z"/>
	<path fill="#EDACA4" d="M975.3,819.4c-0.3,0-0.6-0.1-0.8-0.1l-0.1,0c0,0-0.5,0.2-1.3,0.4c-1.3,0.4-3.4,0.8-5.3,0.1
		c-0.2-0.1-0.4-0.1-0.6-0.3c0,0-0.7,0.3-1.6,0.6c-2,0.7-5.1,1.5-6.1,0c-1.4-2.1,2.1-18.5-8.1-20.6c-10.1-2.1-15.3-4.9-15.3-4.9
		l-125.3,4l-5.3,0.2c-5.2,0.2-9.5-4-9.5-9.2v-53.5h29.6l0.8,8.2l2.4,26.1c-0.2,2.5,1.8,4.7,4.3,4.7h117.8c3.1,0,6.2,0.7,9,2.1
		l4.7,2.3c5.7,2.8,9.8,8.1,11,14.4l3.8,20.2C980,816.9,977.9,819.4,975.3,819.4z"/>
	<polygon opacity="0.35" fill="#AFAFAF" points="826.4,744.3 796,744.3 796,736.1 825.6,736.1 	"/>
	<path fill="#605753" d="M556.5,1194.7l-38.6,4h-9.7c0,0-16.3-142.8-14.1-205.7l-0.1-7.4c-0.1-10.1-1.3-20.2-3.5-30
		c-5.7-25-17.4-77.4-24.1-119.9c-2.5-15.9-4.3-30.4-4.9-41.7l-7,1.3c0,0-12.8,142.4-14.5,161.3c-0.7,7.5-9.3,39.5-20,78
		c-16.3,58.9-37.5,133-42.9,158l-8.8,1.7l-36-2.7l-5.7-1.7l24.2-164.4c0.9-5.8,2.7-11.4,5.3-16.6l11.4-22c3.4-6.6,4.8-14,4.1-21.3
		C368.7,934,360,842.9,356,782c-0.4-5.2-0.7-10.1-0.9-14.8c-0.3-5.3-0.6-10.3-0.8-14.8h179.8l1.7,14.8l19.1,166
		c0.5,4.2,0.7,8.5,0.8,12.7L556.5,1194.7z"/>
	<path fill="#F9C7B2" d="M670.9,645.4v22c0,0-2.5,1.2-4.8,0.5c-0.4-0.1-0.8-0.3-1.1-0.5c0,0-0.4,0.2-1.1,0.4
		c-1.9,0.7-5.9,1.8-8.4,0.9c-0.4-0.1-0.8-0.3-1.1-0.6c0,0-0.4,0.2-1.1,0.4c-0.3,0.1-0.6,0.2-1,0.3c-3.7,1.1-7.4-1.7-7.4-5.6v-10
		c0,0-14.6-7.7-27.5-23.7l-79.7-48.1l-24.9-15.1c-6.3-3.8-9.9-10.9-9.3-18.3l0.2-2.3l0.9-10.1h42v2.7c0,2.6,0.6,5.1,1.6,7.4
		c1.1,2.3,2.6,4.4,4.6,6c15.7,13.5,57.1,48.3,76,56.5l7.7,1.8c2.9,0.7,5.6,2,7.9,4l20.5,17.7C668.7,635.2,670.9,640.1,670.9,645.4z"
		/>
	<path opacity="0.64" fill="#AFAFAF" d="M548,545.8h-44.5l0.9-10.1h42v2.7C546.4,541,547,543.5,548,545.8z"/>
	<path fill="#EAAF9B" d="M499.2,373.1c-4,13-12.5,26.3-30.3,26.3c-34.1,0-48.4-39.9-48.9-41.2c2.5-0.7,5.1-1.4,7.7-2v-37.6
		c0.4,0.6,0.8,1.1,1.2,1.7c4.8,6.2,14.1,12.9,21.4,17.5c6,3.9,13,5.9,20.2,5.9h14v19.8C484.4,363.5,490.8,366.9,499.2,373.1z"/>
	<path opacity="0.72" fill="#D69685" d="M468.9,391.9c-25.7,0-40.2-22.8-46-34.5c-1,0.3-2,0.5-2.9,0.7c0.4,1.3,14.8,41.2,48.9,41.2
		c17.8,0,26.3-13.3,30.3-26.3c-0.8-0.6-1.5-1.1-2.2-1.6C492.4,382.4,484,391.9,468.9,391.9z"/>
	<path fill="#443C39" d="M498.9,782l-29.5,18.5l-3,35.1l0-0.1c-2.5-15.9-4.3-30.5-4.9-41.7L498.9,782z"/>
	<path fill="#EAAF9B" d="M546.1,1207.1L546.1,1207.1c-4.3,2.4-9.3,3.1-14,2.2l-14.2-2.8v-7.9l32.8-3.3l0.3,2
		C551.5,1201.3,549.6,1205.2,546.1,1207.1z"/>
	<path fill="#332D2D" d="M623.3,1243.9H512.5v-7.4h110.2C623.3,1238.5,623.5,1241,623.3,1243.9z"/>
	<path fill="#D65B5B" d="M622.8,1236.5H512.5v-23.8c0-3.1,2.2-5.7,5.3-6.2l14.2,2.8c4.8,0.9,9.8,0.2,14.1-2.2
		c1.9-1.1,3.4-2.7,4.2-4.6c0.7-1.6,0.9-3.4,0.7-5.2l-0.3-2l5.9-0.6c4.3,0,8.3,2,10.8,5.5c2.3,3.2,5.6,7.5,9.3,11.5
		c5,5.4,10.8,10.3,16.4,12C605,1227.4,619.7,1224.4,622.8,1236.5z"/>
	<path fill="#F4E9E9" d="M550.3,1202.5c0.7-1.6,0.9-3.4,0.7-5.2l-0.3-2l5.9-0.6c4.3,0,8.3,2,10.8,5.5c2.3,3.2,5.6,7.5,9.3,11.5
		L550.3,1202.5z"/>
	<path fill="#F4E9E9" d="M622.8,1236.5h-46.2l16.4-12.9C605,1227.4,619.7,1224.4,622.8,1236.5z"/>
	<path fill="#332D2D" d="M524.8,1236.5h-12.3v-15.8C512.5,1220.7,519.6,1222.2,524.8,1236.5z"/>
	<path fill="#EAAF9B" d="M329.9,1207.2l11,2.2c4.8,0.9,9.8,0.2,14.1-2.2c1.9-1.1,3.4-2.7,4.2-4.6c0.7-1.6,0.9-3.4,0.7-5.2l-0.3-2
		l5.9-0.6c0.4,0,0.8,0,1.2,0.1c0-0.2,0-0.4,0-0.7l-32.7-2.4c-0.7,0.4-1.2,0.7-1.6,0.8L329.9,1207.2z"/>
	<path fill="#443C39" d="M381.9,752.5c0,0-1.4,24.9-25.9,29.6c-0.7-11-1.3-21-1.7-29.6H381.9z"/>
	<path fill="#28A3A3" d="M541.6,735.4v17.1H338.1l0.1-21.8c0.1-34.6,0.2-100.2,0.2-164.5c0-10.3,0-20.5,0-30.5h62.3v-88.1
		c0-1.3-0.1-2.5-0.1-3.7c0.1-0.1,0.1-0.2,0.1-0.2c0-40.7-14.1-56.3-14.1-56.3c-0.7-0.9-1.5-1.7-2.4-2.4c-2.1-1.6-4.8-2.3-7.6-2.1
		c-5.7,0.6-11.1,2.9-15.6,6.4c2.2-1.8,4.5-3.6,7.1-5.5c10.5-7.8,23.7-15.7,39.2-21.6c4.1-1.6,8.3-3,12.7-4.2
		c0.4,1.3,14.8,41.2,48.9,41.2c17.8,0,26.3-13.3,30.3-26.3c11.4,8.5,26.4,22,34,39.1l0.8,32.1l2.4,91.3l1.2,45.7L541.6,735.4z"/>
	<path opacity="0.44" fill="#AFAFAF" d="M670.9,645.4v22c0,0-2.5,1.2-4.8,0.5c-0.4-0.1-0.8-0.3-1.1-0.5c0,0-0.4,0.2-1.1,0.4
		c-1.9,0.7-5.9,1.8-8.4,0.9c-0.4-0.1-0.8-0.3-1.1-0.6c0,0-0.4,0.2-1.1,0.4c-0.3,0.1-0.6,0.2-1,0.3c-3.7,1.1-7.4-1.7-7.4-5.6v-10
		c0,0-14.6-7.7-27.5-23.7l-79.7-48.1l4,154v17.1h-7.5l1.7,14.8l19.1,166c0.5,4.2,0.7,8.5,0.8,12.7l0.8,248.7l-38.6,4h-9.7
		c0,0-16.3-142.8-14.1-205.7l-0.1-7.4c-0.1-10.1-1.3-20.2-3.5-30c-5.7-25-17.4-77.4-24.1-119.9c-2.5-15.9-4.3-30.4-4.9-41.7l-7,1.3
		c0,0-12.8,142.4-14.5,161.3c-0.7,7.5-9.3,39.5-20,78v-369c0-18.4,1.7-33.9,4.6-47.2c1.9-8.9,4.3-16.8,7-24
		c17.4-45.8,48.2-61.7,48.2-103.5c0-39.7,33.1-46.3,54.2-46.4c0.9,0,1.8,0,2.6,0l9.9,91.3h-0.1v2.7c0,2.6,0.6,5.1,1.6,7.4
		c1.1,2.3,2.6,4.4,4.6,6c15.7,13.5,57.1,48.3,76,56.5l7.7,1.8c2.9,0.7,5.6,2,7.9,4l20.5,17.7C668.7,635.2,670.9,640.1,670.9,645.4z"
		/>
	<path opacity="0.22" fill="#AFAFAF" d="M338.4,535.7h43.5v216.8h-43.8l0.1-21.8C338.2,690.6,338.4,608.8,338.4,535.7z"/>
	<path fill="#197270" d="M400.5,443.9c0.1,1.3,0.1,2.5,0.1,3.7v88.1h-77.7c0,0,2.1-15.6,4.8-35.7c2.7-20.1,5.9-44.7,8.1-62.8v0
		c0.3-2,0.5-3.9,0.7-5.7c0.4-3.2,0.9-6.4,1.7-9.4c3.9-14.4,11.2-22.1,12.5-23.4c2.9-2.8,6.3-5.8,10.1-9c4.5-3.7,10-6,15.9-6.6
		c2.8-0.3,5.4,0.5,7.6,2.1c0.9,0.7,1.7,1.5,2.4,2.4c0,0,14,15.5,14,56.3C400.6,443.7,400.6,443.8,400.5,443.9z"/>
	<polygon fill="#197270" points="546.5,535.7 536.4,535.7 534,444.4 533.2,412.2 536.7,444.4 	"/>
	<path fill="#D69685" d="M666.1,667.9c-0.4-0.1-0.8-0.3-1.1-0.5c0,0-0.4,0.2-1.1,0.4l1.1-15.9L666.1,667.9z"/>
	<path fill="#D69685" d="M655.5,668.6c-0.4-0.1-0.8-0.3-1.1-0.6c0,0-0.4,0.2-1.1,0.4l1.1-16.7L655.5,668.6z"/>
	<path fill="#E5A993" d="M533.2,253.1c0,0,10.9-4.3,10.9,12.9s-10.9,17.3-10.9,17.3V253.1z"/>
	<path fill="#F9C7B2" d="M533.2,218.8v80.5c0,17-8.6,32.9-22.9,42.1c-2.3,1.5-5,2.3-7.7,2.3h-32.2c-7.1,0-14.2-2-20.2-5.9
		c-7.9-5.1-18.3-12.6-22.6-19.2c0,0-6.6-13.5-11.2-28.3c0,0-20.8,0.3-23.1-23.1c0,0-2.3-13.2,5.9-14.5l8.1-0.5
		c2.4-0.1,4.8,0.2,7,0.9c2.8,0.9,5.3,2.5,7.4,4.5l8.2,8.2l-4.9-27.6c-0.6-3.4,1.1-6.8,4.2-8.4l6.1-3.1c0.1,0,0.1-0.1,0.2-0.1l2.3-35
		c24.6,23.9,75.1,27,75.1,27c-12.5-5.1-15.9-16.7-16.1-17.4C510.8,220.1,533.2,218.8,533.2,218.8z"/>
	<path fill="#CE8F7C" d="M419.8,278.6c0,0-5-1.1-7.2,1.8c-0.5,0.7-0.9,1.6-1,2.8c0,0-12.2-3.6-12.4-13.8c0-0.8,0-1.6,0.1-2.4
		c0.6-5.3,5.7-8.7,10.8-7.3c1.5,0.4,3.2,1.1,4.7,2.2c1.9,1.3,3.6,3.1,4.1,5.8C420.6,275.8,419.8,278.6,419.8,278.6z"/>
	<path fill="#BA7667" d="M419.8,278.6c0,0-5-1.1-7.2,1.8c-2.2-2.1-3.9-5-4-8.9c0-0.9,0-1.7,0.1-2.4c0.4-3.6,2.9-6.4,6.1-7.3
		c1.9,1.3,3.6,3.1,4.1,5.8C420.6,275.8,419.8,278.6,419.8,278.6z"/>
	<path fill="#262626" d="M510.5,300.3c-0.7,7.5-4.3,12.5-7.8,15.6c-0.1,0.1-0.2,0.2-0.4,0.3c-3.9,3.2-9.1,4.4-14,3.1
		c-5.4-1.4-9.5-4.3-12.4-7.4c-2-2.1-3.5-4.3-4.5-6.2c-1.7-3.1-2.4-5.5-2.4-5.5H510.5z"/>
	<path fill="#262626" d="M515.4,298c-0.8,9.3-5.3,15.4-9.7,19.3c-0.2,0.2-0.3,0.3-0.5,0.4c-4.8,4-11.3,5.5-17.3,3.9
		c-6.7-1.7-11.8-5.3-15.4-9.2c-2.4-2.6-4.3-5.3-5.6-7.6c-2.2-3.9-3-6.8-3-6.8H515.4z"/>
	<path opacity="0.65" fill="#CE8F7C" d="M502.9,324.2c-0.7,2.3-2.4,4.1-4.5,5.4c-2.1,1.3-4.6,2-7.1,1.9c-2.5-0.1-4.9-0.9-6.9-2.2
		c-1-0.6-1.9-1.5-2.7-2.2c-0.7-0.9-1.5-1.8-2-2.9c1.2,0.1,2.3,0.4,3.3,0.7c1.1,0.2,2,0.5,3,0.6c1.9,0.4,3.7,0.6,5.5,0.7
		C494.9,326.4,498.4,325.7,502.9,324.2z"/>
	<path fill="#FFFFFF" d="M507,300.3v1.7c0,2.1-1.7,3.8-3.8,3.8h-31.9c-1.7-3.1-2.4-5.5-2.4-5.5H507z"/>
	<path fill="#C66767" d="M502.7,315.9c-0.1,0.1-0.2,0.2-0.4,0.3c-3.9,3.2-9.1,4.4-14,3.1c-5.4-1.4-9.5-4.3-12.4-7.4
		c3.1-2.1,7-3.4,11.3-3.4C493.7,308.6,499.4,311.5,502.7,315.9z"/>
	<path fill="#30241B" d="M420,173.4c0,0-10.8-9.2-3.3-22.4L420,173.4z"/>
	<ellipse opacity="0.34" fill="#CE8F7C" cx="464.9" cy="259" rx="13.7" ry="12.2"/>
	<ellipse opacity="0.34" fill="#CE8F7C" cx="515.4" cy="259" rx="13.7" ry="12.2"/>
	<path fill="#FFFFFF" d="M477.5,256.8c0,1-0.2,2-0.6,2.9v0c-1.6,4-6.4,7-12,7c-1.3,0-2.5-0.1-3.7-0.4c0,0,0,0-0.1,0
		c-5.1-1.3-8.8-5-8.8-9.5c0-5.5,5.6-10,12.6-10C471.9,246.8,477.5,251.3,477.5,256.8z"/>
	<path fill="#FFFFFF" d="M528,256.8c0,1.2-0.3,2.3-0.8,3.4c-1.7,3.8-6.4,6.6-11.8,6.6c-1.4,0-2.7-0.2-4-0.5c0,0,0,0,0,0
		c-5-1.3-8.6-5-8.6-9.4c0-5.5,5.6-10,12.6-10C522.3,246.8,528,251.3,528,256.8z"/>
	<path fill="#30241B" d="M499.4,234.8c0.8-3.2,2.9-5.7,5.4-7.6c2.6-1.9,5.9-3.1,9.4-3.1c3.4,0,6.9,1,9.5,3.1
		c1.4,0.9,2.4,2.2,3.4,3.4c0.9,1.3,1.6,2.8,2,4.3c-1.7-0.3-3-0.8-4.3-1.2c-1.4-0.3-2.5-0.8-3.8-0.9c-2.4-0.6-4.5-0.7-6.6-0.7
		c-2.1,0-4.3,0.3-6.8,0.8C505.1,233.2,502.5,233.9,499.4,234.8z"/>
	<path fill="#30241B" d="M451.1,234.8c0.8-3.2,2.9-5.7,5.4-7.6c2.6-1.9,5.9-3.1,9.4-3.1c3.4,0,6.9,1,9.5,3.1
		c1.4,0.9,2.4,2.2,3.4,3.4c0.9,1.3,1.6,2.8,2,4.3c-1.7-0.3-3-0.8-4.3-1.2c-1.4-0.3-2.5-0.8-3.8-0.9c-2.4-0.6-4.5-0.7-6.6-0.7
		c-2.1,0-4.3,0.3-6.8,0.8C456.8,233.2,454.2,233.9,451.1,234.8z"/>
	<path fill="#47392D" d="M533.2,215.8v3c0,0-22.4,1.3-36.2-17.4c0.2,0.8,3.7,12.4,16.1,17.4c0,0-50.5-3.1-75.1-27l-2.3,35l-6.4,3.3
		c-3.1,1.6-4.8,5-4.2,8.4l4.9,27.6l-8.2-8.2c-3.8-3.8-9-5.8-14.4-5.4l-8.1,0.5l-5.4-33.9c-2.3-14.9,1.5-29.5,9.8-40.9
		c2.6-3.6,7-5.5,11.5-5.1l4.8,0.5l0.1-0.7c0.9-7.1,5.9-13.1,12.8-15.1c1.1-0.3,2.3-0.6,3.5-0.9c10-2.1,21.1-3,32.8-2
		C514.7,159.1,530.9,190.8,533.2,215.8z"/>
	<path opacity="0.51" fill="#30241B" d="M425.1,238.3l4.9,27.6l-8.2-8.2c-3.8-3.8-9-5.8-14.4-5.4l-8.1,0.5l-5.4-33.9
		c-2.3-14.9,1.5-29.5,9.8-40.9c2.6-3.6,7-5.5,11.5-5.1l4.8,0.5c4.9,7.4,18,18.3,18,18.3l-2.3,35l-6.4,3.3
		C426.2,231.5,424.5,234.9,425.1,238.3z"/>
	<path opacity="0.34" fill="#CE8F7C" d="M490.1,281.4l3.7,10.3c0.7,2,2.6,3.3,4.7,3.3l0,0c2.4,0,4.5-1.7,4.9-4l1.3-6.6
		c0,0-3.7-4.2-4.4-3.9S490.1,281.4,490.1,281.4z"/>
	<path fill="#E08585" d="M497,250.5l3.3,15c1,4.5,2.8,8.7,5.5,12.4l0.8,1.1c1.4,1.9,1.5,4.6,0,6.4c-1.8,2.3-5.3,4.2-12.1,1.5
		C482.2,282,497,250.5,497,250.5z"/>
	<path fill="#D69685" d="M484.3,343.7C484.3,343.7,484.4,343.7,484.3,343.7l0,0.2c-3.5,7.4-10.9,12.1-19.1,12.1h0
		c-6.8,0-13.2-3.3-17.1-8.8l-19.2-26.8c4.7,6.1,13.9,12.7,21.1,17.3c6.1,3.9,13.2,6,20.4,6H484.3z"/>
	<path fill="#EAAF9B" d="M484.5,343.9C484.5,343.9,484.4,343.9,484.5,343.9c-0.1-0.1-0.1-0.1-0.1-0.1l0-0.1
		C484.4,343.7,484.5,343.8,484.5,343.9z"/>
	<path opacity="0.26" fill="#CE8F7C" d="M484.4,343.7h-14c-7.1,0-14.2-2-20.2-5.9c-7.9-5.1-18.3-12.6-22.6-19.2
		c0,0-6.6-13.5-11.2-28.3c0,0-20.8,0.3-23.1-23.1c0,0-2.3-13.2,5.9-14.5l8.1-0.5c2.4-0.1,4.8,0.2,7,0.9c2.8,0.9,5.3,2.5,7.4,4.5
		l8.2,8.2l-4.9-27.6c-0.6-3.4,1.1-6.8,4.2-8.4l6.1-3.1c0.1,0,0.1-0.1,0.2-0.1l10.8,76.4C446.4,303.1,454.1,343.3,484.4,343.7z"/>
	<path fill="#30241B" d="M527.3,259.4c0,0.3,0,0.5-0.1,0.8c-1.7,3.8-6.4,6.6-11.8,6.6c-1.4,0-2.7-0.2-4-0.5c0,0,0,0,0,0
		c-2.7-1.4-4.5-3.9-4.5-6.8c0-4.5,4.5-8.2,10.1-8.2C522.7,251.2,527.3,254.9,527.3,259.4z"/>
	<path fill="#30241B" d="M477,259.4c0,0.1,0,0.2,0,0.3v0c-1.6,4-6.4,7-12,7c-1.3,0-2.5-0.1-3.7-0.4c0,0,0,0-0.1,0
		c-2.8-1.5-4.6-4-4.6-6.9c0-4.5,4.6-8.2,10.2-8.2S477,254.9,477,259.4z"/>
	<ellipse fill="#FFFFFF" cx="508.8" cy="259.6" rx="4.2" ry="2.8"/>
	<ellipse fill="#FFFFFF" cx="458.4" cy="259.6" rx="4.2" ry="2.8"/>
	<path opacity="0.64" fill="#AFAFAF" d="M535.8,767.3H355c-0.3-5.3-0.6-10.3-0.8-14.8h179.8L535.8,767.3z"/>
	<path fill="#332D2D" d="M432.1,1243.9H321.4v-7.4h110.2C432.1,1238.5,432.3,1241,432.1,1243.9z"/>
	<path fill="#D65B5B" d="M431.6,1236.5H321.4v-23.8c0-3.1,2.2-5.7,5.3-6.2l14.2,2.8c4.8,0.9,9.8,0.2,14.1-2.2
		c1.9-1.1,3.4-2.7,4.2-4.6c0.7-1.6,0.9-3.4,0.7-5.2l-0.3-2l5.9-0.6c4.3,0,8.3,2,10.8,5.5c2.3,3.2,5.6,7.5,9.3,11.5
		c5,5.4,10.8,10.3,16.4,12C413.8,1227.4,428.5,1224.4,431.6,1236.5z"/>
	<path fill="#F4E9E9" d="M359.1,1202.5c0.7-1.6,0.9-3.4,0.7-5.2l-0.3-2l5.9-0.6c4.3,0,8.3,2,10.8,5.5c2.3,3.2,5.6,7.5,9.3,11.5
		L359.1,1202.5z"/>
	<path fill="#F4E9E9" d="M431.6,1236.5h-46.2l16.4-12.9C413.8,1227.4,428.5,1224.4,431.6,1236.5z"/>
	<path fill="#332D2D" d="M333.6,1236.5h-12.3v-15.8C321.4,1220.7,328.4,1222.2,333.6,1236.5z"/>
	<path opacity="0.22" fill="#AFAFAF" d="M407.3,362.4l-10.9,7.4c-5.6,3.8-9.8,9.2-12.2,15.3c-2.1-1.6-4.8-2.3-7.6-2.1
		c-5.7,0.6-11.1,2.8-15.6,6.4c2.2-1.8,4.5-3.7,7.1-5.5C378.6,376.1,391.8,368.2,407.3,362.4z"/>
	<path opacity="0.22" fill="#AFAFAF" d="M384.2,385.1L381,388c-12.4,11.5-20.4,27-22.4,43.9l-12.6,103.9h-23.1
		c0,0,2.1-15.6,4.8-35.7c2.7-20.1,5.9-44.7,8.1-62.8v0c0.3-2,0.5-3.9,0.7-5.7c0.4-3.2,0.9-6.4,1.7-9.4c3.9-14.4,11.2-22.1,12.5-23.4
		c2.9-2.8,6.3-5.8,10.1-9c4.5-3.7,10-6,15.9-6.6C379.4,382.8,382,383.5,384.2,385.1z"/>
	<path fill="#9E3E3E" d="M813.8,630.2H644.1c-5.6-34.4,3.3-65.2,11.8-84.9c6.3-14.8,8.2-31.1,4.9-46.8c-6-29.1-9.1-77.4,26.5-106
		c53.5-43,93.7,0,93.7,0s45-15.2,59,46.4c8.6,38,14,101.8,16.9,145.1C858.6,609,838.8,630.2,813.8,630.2z"/>
	<path opacity="0.64" fill="#AFAFAF" d="M807,630.2H683.2l-4.3-2.3c0,0-3.4-46,10.6-66.9c13.9-20.9,2.5-56.7,2.5-56.7
		s60.5-25.6,60.7-25.6c0,0.3,47.7,23.1,47.7,23.1S854.8,630.2,807,630.2z"/>
	<path fill="#FFC5BB" d="M764.7,534.1v35.1l-8.1,43.9l-34.5-44.6v-18.3l11.2,0.8c0,0,0.1,0,0.1,0c5.2,0.4,10.5-1.1,14.9-3.8
		C755,543.3,760.4,538.7,764.7,534.1z"/>
	<path fill="#E5CD65" d="M803.4,702.3l-5.6,76.3H682.1v-82.4c0-11.3-1.3-22.6-3.9-33.6c0,0,0,0,0,0c-1.1-4.8-2.5-9.5-4.1-14.1
		l-17.7-51c-1.1-3.3,0.6-6.8,3.9-7.9l51.8-17.5l10.1-3.4l34.5,44.6l8.1-43.9c0,0,3.2,2.3,7.9,5.5c5.9,3.9,14,9,21,12.3
		c0,0,4.9,47,24.7,70c3.5,4,5.3,8.1,5.9,12c0,0,0,0,0,0C827,687.2,803.4,702.3,803.4,702.3z"/>
	<path opacity="0.45" fill="#AFAFAF" d="M803.4,702.3l-12.4,8.8c-3.6,2.6-8.3,3.2-12.5,1.8l-85.3-29.1c15-15.7,42.1-23.7,61.3-9.2
		c19.2,14.5,39.4,15.1,46,5.7c6.6-9.4,23.7-11.4,23.7-11.4s0,0,0,0C827,687.2,803.4,702.3,803.4,702.3z"/>
	<path fill="#FFFFFF" d="M772.7,574.6l-11.5,61.1L712,571.9l10.1-3.4l34.5,44.6l8.1-43.9C764.7,569.2,768,571.5,772.7,574.6z"/>
	<path fill="#B79E34" d="M656.8,591.4c3.2-1.2,6.8-0.6,9.4,1.7c5.4,4.7,13.7,16.8,12.9,46.8c-1.2,44.1-6.7,96.2-6.7,96.2h-63.2
		C609.2,736.1,621.3,605.2,656.8,591.4z"/>
	<path fill="#B79E34" d="M824.2,669C824.2,669,824.2,669,824.2,669c2.8,18.2-20.8,33.3-20.8,33.3l-2.5,33.8h34.8L819,634
		c-5.4-39-25.4-47-25.4-47s4.9,47.1,24.7,70C821.8,661,823.6,665.1,824.2,669z"/>
	<path fill="#D65B5B" d="M1032.8,1138.4c0,0,0.2-3.8-0.4-10.4c0.1-0.1,0.1-0.1,0.1-0.1h41.4c0,0-0.8-6.9-2.8-8.2
		c2.3,1.4,4.8,2.7,7.4,3.7c6.8,2.7,15.7,5,27.1,6c4.5,0.4,8,4.3,8,8.8H1032.8z"/>
	<path fill="#4885B7" d="M961.8,864.8h-53.9c0,0-54.6-6.4-59.8,58.7c-0.3,3.3-0.4,6.8-0.4,10.5H743.3c-11.1,0-22.1-2.2-32.2-6.8
		c-23.2-10.5-54.7-36.4-42-98.2l13-50.4h115.7c0,0,8.6,13.4,14.1,25.9c2.1,4.8,6.2,8.5,11.1,10.3C853.4,825.6,957,862.4,961.8,864.8
		z"/>
	<path opacity="0.45" fill="#AFAFAF" d="M848,923.5c-0.3,3.3-0.4,6.8-0.4,10.5H743.3c-11.1,0-22.1-2.2-32.2-6.8
		c-23.2-10.5-54.7-36.4-42-98.2l13-50.4v-82.4c0-11.3-1.3-22.6-3.9-33.6c0.5,0.8,15.1,26.4,15.1,70.6v45.4c0,17.4,0,27.2,0,27.2
		S632.5,912,848,923.5z"/>
	<path fill="#EDACA4" d="M1071.2,1119.8C1071.1,1119.8,1071.1,1119.7,1071.2,1119.8c-7.5-4.8-13.5-11.7-17.1-19.9
		c-21.2-47.7-54.9-174.1-66-216.1c-2.2-8.5-9-15.1-17.6-17l-8.7-2h-53.9c0,0,7.6,31.3,17.1,69.2h24.7c2.8,30.2,11.2,71.1,48.3,114.3
		c26.5,30.8,32.9,63.6,34.4,79.8c0.1-0.1,0.1-0.1,0.1-0.1h41.4C1074,1128,1073.1,1121.1,1071.2,1119.8z"/>
	<polygon opacity="0.45" fill="#AFAFAF" points="927.6,864.8 907.9,864.8 861.2,849.7 	"/>
	<path fill="#FFC5BB" d="M995.6,1128c0,0-0.5-4.4-1.8-6.8c-18.4-9.3-23-28.8-35.1-63.1c-13.2-37.6-50.9-193.3-50.9-193.3
		s-60.3-7.1-60.3,69.2h26.1c-5.2,73.9,47,126.5,67.6,151.2c14.6,17.6,17.1,34.4,17.4,42.7H995.6z"/>
	<path fill="#D65B5B" d="M1027.3,1129.6c-11.5-1-20.3-3.4-27.1-6c-2.6-1-5-2.3-7.4-3.7c2,1.3,2.8,8.2,2.8,8.2h-36.9l-4.2,10.5h80.8
		C1035.3,1133.9,1031.8,1130,1027.3,1129.6z"/>
	<path opacity="0.64" fill="#AFAFAF" d="M975.3,819.4c-0.3,0-0.6-0.1-0.8-0.1l-0.1,0c0,0-0.5,0.2-1.3,0.4l0.1-16.5L975.3,819.4z"/>
	<path opacity="0.64" fill="#AFAFAF" d="M967.7,819.8c-0.2-0.1-0.4-0.1-0.6-0.3c0,0-0.7,0.3-1.6,0.6l-1-16.9L967.7,819.8z"/>
	<path fill="#333645" d="M859.6,866.9c0-41.4-33.7-75-75-75H580.3v13.9h204.2c33.7,0,61.1,27.4,61.1,61.1v248.4
		c-10.1,0.7-18.1,9.2-18.1,19.4v55.8c0,3.8,3.1,7,7,7c3.8,0,7-3.1,7-7v-55.8c0-3.1,2.5-5.6,5.6-5.6l12.5,0V866.9z"/>
	<g>
		<path fill="#191919" d="M841.6,1249c-31.2,0-56.6-27.7-56.6-61.8c0-34.1,25.4-61.8,56.6-61.8s56.6,27.7,56.6,61.8
			C898.3,1221.3,872.9,1249,841.6,1249z M841.6,1139.2c-23.5,0-42.7,21.5-42.7,47.9c0,26.4,19.1,47.9,42.7,47.9
			c23.5,0,42.7-21.5,42.7-47.9C884.3,1160.7,865.2,1139.2,841.6,1139.2z"/>
	</g>
	<path fill="#333645" d="M1132.6,1151.8H898.3v0c0-7.4,6-13.4,13.4-13.4h207.6C1126.6,1138.4,1132.6,1144.4,1132.6,1151.8
		L1132.6,1151.8z"/>
	<polygon fill="#333645" points="813.9,965.4 806.1,965.4 911.6,1138.4 919.5,1138.4 	"/>
	<path fill="#333645" d="M824.1,1034.5v-69.1h-13.9v69.1c-4,1.9-7.3,5.4-9.2,9.8H602.1c-1.9-4.4-5.1-7.9-9.1-9.8v-342
		c0-25.4-20.6-46-46-46H438.7c-3.8,0-7,3.1-7,7c0,3.8,3.1,7,7,7h108.2c17.7,0,32.1,14.4,32.1,32.1v342c-6.4,3.1-10.9,10.3-10.9,18.7
		c0,11.2,8,20.3,17.9,20.3c7.1,0,13.2-4.7,16.1-11.4h198.9c2.9,6.8,9,11.4,16.1,11.4c9.9,0,17.9-9.1,17.9-20.3
		C834.9,1044.8,830.4,1037.6,824.1,1034.5z"/>
	<path fill="#EDA398" d="M682.3,464.2c0,0-9.6-4.6-10.8,11s8.7,16.5,8.7,16.5L682.3,464.2z"/>
	<path fill="#FFC5BB" d="M808.7,486.6c-3.7,21.2-22.6,19.5-22.6,19.5h-4.8c0,0-6.2,25-33,41.3c-4.5,2.7-9.7,4.1-14.9,3.8
		c0,0-0.1,0-0.1,0l-23.3-1.7h-0.2l-4.2-0.3l-1.7-0.1c-0.8-0.1-1.5-0.2-2.2-0.4c0,0-0.1,0-0.1,0c-1.6-0.4-3.2-1.2-4.6-2.2
		c-12.4-9.4-19.1-24.4-18-39.9l5.4-73.4c0,0,20.3,2.7,34.2-13.4c-0.2,0.6-4.2,11-15.9,14.8c0,0,46.3,0.6,70.3-19.6l21.4,57.1
		c0.8,0,1.5,0,2.3,0.1l7.3,1C811.7,474.7,808.7,486.6,808.7,486.6z"/>
	<path fill="#E59185" d="M783.9,495.1c0,0,4.6-0.6,6.4,2.1c0.4,0.7,0.7,1.5,0.7,2.6c0,0,11.4-2.5,12.2-11.8c0.1-0.8,0.1-1.5,0.1-2.2
		c-0.1-4.8-4.6-8.3-9.4-7.3c-1.4,0.3-3,0.8-4.5,1.6c-1.8,1-3.5,2.6-4.1,5C783.4,492.5,783.9,495.1,783.9,495.1z"/>
	<path fill="#CE746A" d="M783.9,495.1c0,0,4.6-0.6,6.4,2.1c2.1-1.8,3.9-4.3,4.2-7.8c0.1-0.8,0.1-1.5,0.1-2.2c-0.1-3.3-2.2-6-5.1-7
		c-1.8,1-3.5,2.6-4.1,5C783.4,492.5,783.9,495.1,783.9,495.1z"/>
	<path fill="#262626" d="M696.8,507.1c0.1,8,3.6,13.6,7.1,17.1c0.1,0.2,0.2,0.3,0.4,0.4c3.9,3.7,9.3,5.4,14.6,4.4
		c5.9-1.1,10.4-3.8,13.8-6.9c2.3-2.1,4-4.3,5.3-6.2c2.1-3.2,3-5.6,3-5.6L696.8,507.1z"/>
	<path fill="#FFFFFF" d="M703,509.1l-0.1,1.5c-0.1,1.9,1.3,3.6,3.2,3.7l29,2.2c1.8-2.7,2.6-4.8,2.6-4.8L703,509.1z"/>
	<path fill="#C66767" d="M705.9,523.5c0.1,0.1,0.2,0.2,0.3,0.3c3.3,3.2,8,4.6,12.5,3.8c5-0.9,8.9-3.3,11.8-5.9
		c-2.7-2.2-6.2-3.6-10.1-3.8C714.5,517.5,709.1,519.7,705.9,523.5z"/>
	
		<ellipse transform="matrix(7.396597e-02 -0.9973 0.9973 7.396597e-02 215.8805 1181.2415)" opacity="0.43" fill="#E59185" cx="744" cy="474.4" rx="11.3" ry="14.5"/>
	
		<ellipse transform="matrix(7.396597e-02 -0.9973 0.9973 7.396597e-02 176.1785 1131.574)" opacity="0.43" fill="#E59185" cx="697.4" cy="470.9" rx="11.3" ry="13.8"/>
	<path fill="#FFFFFF" d="M755.7,473c-0.4,5-5.8,8.7-12.1,8.2c-6.3-0.5-11.2-4.9-10.8-9.9c0.4-5,5.8-8.7,12.1-8.2
		c1.2,0.1,2.4,0.3,3.5,0.7C752.9,465.3,756,469,755.7,473z"/>
	<path fill="#FFFFFF" d="M709.7,469.6c-0.4,5-5.8,8.7-12.1,8.2c-6.3-0.4-11.2-4.9-10.8-9.9c0.1-0.7,0.2-1.4,0.5-2.1
		c1.5-3.9,6.2-6.6,11.6-6.1c2.1,0.2,4.1,0.8,5.8,1.7C707.9,463.3,709.9,466.3,709.7,469.6z"/>
	<path fill="#843131" d="M714.3,449.8c-0.5-2.9-2.2-5.4-4.4-7.3c-2.2-1.9-5.2-3.2-8.3-3.5c-3.1-0.3-6.4,0.5-8.9,2.2
		c-1.3,0.7-2.3,1.9-3.3,2.9c-0.9,1.2-1.6,2.4-2.1,3.8c1.5-0.1,2.8-0.6,4-0.8c1.3-0.1,2.4-0.6,3.5-0.6c2.2-0.4,4.2-0.3,6.1-0.2
		c1.9,0.2,3.9,0.5,6.1,1.2C709.3,448,711.6,448.9,714.3,449.8z"/>
	<path fill="#843131" d="M758.4,453.1c-0.5-2.9-2.2-5.4-4.4-7.3c-2.2-1.9-5.2-3.2-8.3-3.5c-3.1-0.3-6.4,0.5-8.9,2.2
		c-1.3,0.7-2.3,1.9-3.3,2.9c-0.9,1.2-1.6,2.4-2.1,3.8c1.5-0.1,2.8-0.6,4-0.8c1.3-0.1,2.4-0.6,3.5-0.6c2.2-0.4,4.2-0.3,6.1-0.2
		c1.9,0.2,3.9,0.5,6.1,1.2C753.3,451.3,755.6,452.1,758.4,453.1z"/>
	<path fill="#843131" d="M781,392.5c0,0,15.8-19.7,31.6-10.9C812.6,381.6,792.7,356.1,781,392.5z"/>
	<path opacity="0.68" fill="#E59185" d="M704.7,529.4c4.2,1.7,7.3,2.5,10.5,2.7c1.6,0,3.2,0,5.1-0.1c0.9-0.1,1.9-0.2,2.9-0.3
		c1-0.1,2-0.3,3.2-0.2c-0.5,1-1.3,1.9-2,2.7c-0.9,0.7-1.7,1.5-2.7,2c-2,1.1-4.4,1.6-6.8,1.5C710,537.4,705.4,534,704.7,529.4z"/>
	<path opacity="0.68" fill="#E59185" d="M706.2,497.3l2.2,5c0.6,1.4,2.5,1.7,3.5,0.6l6.4-7.2c0,0-1.1-2.7-3.9-1.9
		C711.6,494.6,706.2,497.3,706.2,497.3z"/>
	<path fill="#E08585" d="M715.5,464.3l-4,13.4c-1.2,4-3.2,7.7-5.8,10.9l-0.8,1c-1.4,1.7-1.6,4.1-0.4,5.9c1.5,2.2,4.5,4.2,10.9,2.2
		C726.9,494,715.5,464.3,715.5,464.3z"/>
	<path fill="#E59185" d="M701.8,548.5c1.3,0.2,2.6,0.4,3.9,0.5l-1.7-0.1C703.3,548.8,702.6,548.7,701.8,548.5z"/>
	<path opacity="0.35" fill="#E59185" d="M808.7,486.6c-3.7,21.2-22.6,19.5-22.6,19.5h-4.8c0,0-6.2,25-33,41.3
		c-4.5,2.7-9.7,4.1-14.9,3.8c0,0-0.1,0-0.1,0l-23.3-1.7c10.8,0.4,22-1.7,32.2-8.5c37-24.6,30.9-126,30.9-126l21.4,57.1
		c0.8,0,1.5,0,2.3,0.1l7.3,1C811.7,474.7,808.7,486.6,808.7,486.6z"/>
	<path fill="#9E3E3E" d="M773.3,414.7c0,0,13.6,45.7,3.1,72.6c0,0,5.9-13.9,18.3-15.5c12.4-1.6,11-26.9,10-27.5
		c-1-0.6-6.5-17.3-7.8-19.1c-1.3-1.7-6.9-7.5-10-10.5C783.7,411.7,773.3,414.7,773.3,414.7z"/>
	<path fill="#843131" d="M706.1,465.8c0,4.5-4.2,8.2-9.4,8.2c-5.2,0-9.4-3.7-9.4-8.1c1.5-3.9,6.2-6.6,11.6-6.1
		c2.1,0.2,4.1,0.8,5.8,1.7C705.6,462.7,706.1,464.2,706.1,465.8z"/>
	<path fill="#843131" d="M751.5,469.9c0,4.5-4.2,8.2-9.4,8.2c-4.6,0-8.5-2.9-9.3-6.7c0.4-5,5.8-8.7,12.1-8.2
		c1.2,0.1,2.4,0.3,3.5,0.7C750.3,465.3,751.5,467.4,751.5,469.9z"/>
	<path fill="#2B2727" d="M759.7,466c-3.6,1.9-7.6-1.4-7.6-1.4l0.1,0.1c-1.9-1.7-4.4-2.8-7.2-3.1c-6.4-0.5-11.9,3.7-12.3,9.5
		c0,0.2,0,0.4,0,0.6c1.2-5,6.2-8.5,12-8c6.2,0.5,10.9,5.3,10.9,10.9c0.1-0.5,0.2-1,0.3-1.6c0.1-1.9-0.4-3.8-1.3-5.5
		C757,468.1,759.7,466,759.7,466z"/>
	<path fill="#2B2727" d="M684.2,459.2c3.2,2.5,7.7,0.1,7.7,0.1l-0.1,0.1c2.2-1.3,4.8-2,7.6-1.7c6.4,0.6,11.1,5.8,10.4,11.6
		c0,0.2-0.1,0.4-0.1,0.6c-0.2-5.1-4.6-9.5-10.4-10c-6.2-0.6-11.7,3.3-12.7,8.7c0-0.5-0.1-1,0-1.6c0.2-1.9,1.1-3.7,2.3-5.1
		C686.5,461.7,684.2,459.2,684.2,459.2z"/>
	<ellipse fill="#FFFFFF" cx="702.7" cy="465.6" rx="4.8" ry="2.5"/>
	<ellipse fill="#FFFFFF" cx="748.2" cy="469.4" rx="4.8" ry="2.5"/>
	<path opacity="0.68" fill="#E59185" d="M764.7,534.1v7.6l-34.2,25.8l-8.4-11.1v-6.1l11.2,0.8c0,0,0.1,0,0.1,0
		c5.2,0.4,10.5-1.1,14.9-3.8C755,543.3,760.4,538.7,764.7,534.1z"/>
	<path fill="#FFC5BB" d="M809.5,819.4c-0.3,0-0.6-0.1-0.8-0.1l-0.1,0c0,0-0.5,0.2-1.3,0.4c-1.3,0.4-3.4,0.8-5.3,0.1
		c-0.2-0.1-0.4-0.1-0.6-0.3c0,0-0.7,0.3-1.6,0.6c-2,0.7-5.1,1.5-6.1,0c-1.4-2.1,2.1-18.5-8.1-20.6c-10.1-2.1-15.3-4.9-15.3-4.9
		l-130.5,4.2c-5.2,0.2-9.5-4-9.5-9.2v-53.5h35.9l-0.7,8.2l-2.4,26.1c-0.2,2.5,1.8,4.7,4.3,4.7h117.8c3.1,0,6.2,0.7,9,2.1l1.9,0.9
		l2.9,1.4c5.7,2.8,9.8,8.1,11,14.4l0.9,4.8l2.9,15.4C814.2,816.9,812.1,819.4,809.5,819.4z"/>
	<path opacity="0.64" fill="#AFAFAF" d="M809.5,819.4c-0.3,0-0.6-0.1-0.8-0.1l-0.1,0c0,0-0.5,0.2-1.3,0.4l0.1-16.5L809.5,819.4z"/>
	<path opacity="0.64" fill="#AFAFAF" d="M801.9,819.8c-0.2-0.1-0.4-0.1-0.6-0.3c0,0-0.7,0.3-1.6,0.6l-1-16.9L801.9,819.8z"/>
	<polygon opacity="0.35" fill="#AFAFAF" points="630.2,736.1 666.1,736.1 665.4,744.3 630.2,744.3 	"/>
	<path fill="#F9C7B2" d="M496.8,645.4v22c0,0-2.5,1.2-4.8,0.5c-0.4-0.1-0.8-0.3-1.1-0.5c0,0-0.4,0.2-1.1,0.4
		c-1.9,0.7-5.9,1.8-8.4,0.9c-0.4-0.1-0.8-0.3-1.1-0.6c0,0-0.4,0.2-1.1,0.4c-0.3,0.1-0.6,0.2-1,0.3c-3.7,1.1-7.4-1.7-7.4-5.6v-10
		c0,0-14.6-7.7-27.5-23.7l-104.6-63.1c-6.3-3.8-9.9-10.9-9.3-18.3l0.2-2.3l0.9-10.1h42v2.7c0,2.6,0.6,5.1,1.6,7.4
		c1.1,2.3,2.6,4.4,4.6,6c15.7,13.5,57.1,48.3,76,56.4l7.7,1.8c2.9,0.7,5.6,2,7.9,4l20.5,17.7C494.5,635.2,496.8,640.2,496.8,645.4z"
		/>
	<path fill="#D69685" d="M492,667.9c-0.4-0.1-0.8-0.3-1.1-0.5c0,0-0.4,0.2-1.1,0.4l1.1-15.9L492,667.9z"/>
	<path fill="#D69685" d="M481.3,668.6c-0.4-0.1-0.8-0.3-1.1-0.6c0,0-0.4,0.2-1.1,0.4l1.1-16.7L481.3,668.6z"/>
	<path opacity="0.64" fill="#AFAFAF" d="M372.3,538.4c0,2.6,0.6,5.1,1.6,7.4h-44.5l0.9-10.1h42V538.4z"/>
	<path fill="#383838" d="M586,857.2c-95.3,0-172.9,87.9-172.9,195.9S490.7,1249,586,1249c95.3,0,172.9-87.9,172.9-195.9
		S681.3,857.2,586,857.2z M586,1215.5c-79,0-143.4-72.9-143.4-162.4c0-89.6,64.3-162.4,143.4-162.4c79,0,143.4,72.9,143.4,162.4
		C729.3,1142.7,665,1215.5,586,1215.5z"/>
	<g>
		<path fill="#EDEDED" d="M586,878.3c-85,0-154.3,78.4-154.3,174.8s69.2,174.8,154.3,174.8s154.3-78.4,154.3-174.8
			S671,878.3,586,878.3z M586,1215.5c-79.1,0-143.4-72.9-143.4-162.4S506.9,890.7,586,890.7s143.4,72.9,143.4,162.4
			S665,1215.5,586,1215.5z"/>
	</g>
</g>
<rect y="1313" fill="#8E8380" width="1400" height="87"/>
<g>
	<defs>
		
			<rect id="SVGID_4_" x="0" y="1129.7" transform="matrix(-1 -4.489932e-11 4.489932e-11 -1 283.7907 2529.7195)" width="283.8" height="270.3"/>
	</defs>
	<clipPath id="SVGID_5_">
		<use xlink:href="#SVGID_4_"  overflow="visible"/>
	</clipPath>
	<g clip-path="url(#SVGID_5_)">
		<path fill="#578C49" d="M-68.1,1313c-2-3.7-3.1-8-3.1-12.5c0-7.6,3.1-14.4,8.2-19.2c-0.3-1.8-0.5-3.7-0.5-5.6
			c0-11.7,6.5-21.8,16.2-27c-5.3-7.5-8.5-16.6-8.5-26.5c0-25.3,20.5-45.9,45.9-45.9c7.5,0,14.5,1.8,20.7,5c-0.5-4.6-0.8-11,3.6-11.4
			c0.1,0,0.2,0,0.3,0c5.3-18.3,22.2-31.8,42.2-31.8c8.9,0,17.2,2.7,24.2,7.3c6.5,4.3,11.7,10.2,15.2,17.2c1.2-0.6,2.4-0.6,3.6,0.8
			c0.3,0.3,0.6,0.7,0.8,1.1c5.8-4.6,13.2-7.3,21.2-7.3c9.4,0,17.9,3.8,24.1,9.9c1.5-0.2,3-0.3,4.5-0.3c5.8,0,11.3,1.5,16.1,4
			c4.2,2.2,7.8,5.3,10.7,8.9c3.8,4.7,6.3,10.5,7.2,16.8c1.6-0.3,3.3-0.3,5.1-0.1c-0.6,1.6-1.3,3.2-2.1,4.8c0.4,0,0.8-0.1,1.1-0.1
			c5.8,0,11.3,1.5,16.1,4c10.9,5.8,18.3,17.2,18.3,30.4c0,5.3-1.2,10.3-3.4,14.8c3.3,3.7,5.3,8.6,5.3,13.9c0,0.4-0.1,0.8-0.1,1.3
			c4-0.1,8.1,0.5,10.3,3.6c0.2,0.3,0.1,0.6-0.1,0.9c-1.4,1.8-2.7,3.4-4.1,4.7c8.1,7.3,13.1,17.9,13.1,29.6
			c0,19.4-13.8,35.7-32.2,39.3c3.4,5.2,5.4,11.3,5.4,18c0,17.9-14.5,32.5-32.5,32.5c-1.4,0-2.7-0.1-4-0.3
			c-1.8,19.4-18.1,34.7-38,34.7c-5.6,0-10.9-1.2-15.6-3.4c-3.5,4.4-8.9,7.2-14.9,7.2c-2.1,0-4.1-0.4-6-1
			c-5.6,7.5-14.5,12.4-24.6,12.4c-11.4,0-21.4-6.3-26.6-15.5c-5.2,7.1-13.6,11.7-23.1,11.7c-14.3,0-26.1-10.5-28.3-24.2
			c-0.9-0.4-1.7-0.8-2.6-1.2c-3.4,1.6-7.2,2.5-11.2,2.5c-13.7,0-25-10.4-26.6-23.7c-10.1-3.8-17.4-13.6-17.4-25
			c0-2.3,0.3-4.6,0.9-6.8c-2.5-2.3-4.6-5-6.3-8c-7-4.3-12-11.5-13.3-20c-0.2-1.4-0.4-2.9-0.4-4.4
			C-73.1,1323.1-71.3,1317.6-68.1,1313z"/>
		<path fill="#3F722E" d="M37.8,1406.3c5.3,9.3,15.2,15.5,26.6,15.5c10.1,0,19-4.9,24.6-12.4c1.9,0.6,3.9,1,6,1c3,0,5.8-0.7,8.3-1.9
			c1.7,3.6,4.5,6.5,8.3,7.7c0.3,0.1,0.6-0.1,0.7-0.4c1.3-3.7,2.5-7.3,2-11c3.6,1.1,7.4,1.8,11.3,1.8c19.9,0,36.3-15.2,38-34.7
			c1.3,0.2,2.6,0.3,4,0.3c17.9,0,32.5-14.5,32.5-32.5c0-6.7-2-12.8-5.4-18c18.4-3.7,32.2-19.9,32.2-39.3c0-1.5-0.1-3-0.3-4.5
			c1.6-0.8,3-1.9,4.4-3.2c8.1,7.3,13.1,17.9,13.1,29.6c0,19.4-13.8,35.7-32.2,39.3c3.4,5.2,5.4,11.3,5.4,18
			c0,17.9-14.5,32.5-32.5,32.5c-1.4,0-2.7-0.1-4-0.3c-1.8,19.4-18.1,34.7-38,34.7c-5.6,0-10.9-1.2-15.6-3.4
			c-3.5,4.4-8.9,7.2-14.9,7.2c-2.1,0-4.1-0.4-6-1c-5.6,7.5-14.5,12.4-24.6,12.4c-11.4,0-21.4-6.3-26.6-15.5
			c-5.2,7.1-13.6,11.7-23.1,11.7c-14.3,0-26.1-10.5-28.3-24.2c3.4,1.4,7.1,2.2,11.1,2.2C24.3,1418,32.6,1413.4,37.8,1406.3z"/>
		<path fill="#8EBF7E" d="M123.9,1175.9c0.8-0.4,1.7-0.2,2.2,0.6c0.1,0.1,0.1,0.2,0.2,0.3c7.7,12.2,8.1,34.3-6.7,41.1c0,0,0,0,0,0
			c0,0,0,0-0.1,0c-0.1,0-0.2,0.1-0.3,0.1c2.7-8,2.1-17.8,3.8-25.5c0-0.1-0.1-0.2-0.2,0c-2,6.2-2.8,12.8-5.2,18.9
			c-0.4,1-0.8,1.9-1.2,2.9c-4.2-6.1-5.4-14.4-3.7-22.1C114.1,1185.5,117.9,1179.2,123.9,1175.9z"/>
		<path fill="#8EBF7E" d="M-9.6,1245.3c0.1,0.3,0,0.5-0.1,0.7c-8.7-6.2-19.2-9.8-29.1-13.8c0,0-0.1,0.1,0,0.1
			c9.4,4.7,18.7,8.6,27.3,14.2c-6,2.3-12.9,0.1-18.5-2.4c-6.1-2.7-15.2-8-17.2-14.9c-0.1-0.4,0.2-0.8,0.6-1
			c7.9-2.9,16.5-2.1,24.3,0.9C-15.3,1231.6-11.6,1238.7-9.6,1245.3z"/>
		<path fill="#8EBF7E" d="M-13,1292.7c0.2,0.2,0.3,0.4,0.3,0.6c-10.6-1.1-21.5,1.2-32.1,2.6c0,0,0,0.1,0,0.1
			c10.5-0.6,20.5-1.9,30.8-1.4c-4,5-11.1,6.5-17.2,7.2c-6.7,0.7-17.2,0.7-22.4-4.3c-0.3-0.3-0.3-0.8,0-1.1
			c5.4-6.5,13.3-10.1,21.5-11.4C-24.9,1283.7-18.1,1287.9-13,1292.7z"/>
		<path fill="#8EBF7E" d="M27.6,1184.9c1.4,3.5,4,14.6-1,16.1c-4.6-7.4-10-15.3-10.2-24.1c0-0.1-0.2-0.1-0.2,0
			c-0.2,3,0.3,5.8,1.3,8.7c0.9,2.5,1.4,6.8,2.9,8.9c1.3,2,2.3,4.7,3.7,7c-6.5-4-12.2-8-12.9-16.4c-0.1-0.8-0.3-2.1-0.4-3.6
			c-0.5-4.6-0.8-11,3.6-11.4c0.1,0,0.2,0,0.3,0C21.5,1169.5,25.6,1179.9,27.6,1184.9z"/>
		<path fill="#8EBF7E" d="M-19.8,1333.7c-0.5-0.2-0.6-0.6-0.4-1.1c5.3-11.8,22.7-21.8,34.9-14.1c0.2,0.1,0.3,0.4,0.3,0.6
			c-4.7,1.4-9.6,3.6-13.9,5.3c-4.9,1.9-9.6,4.4-14.5,6.5c-0.2,0.1,0,0.3,0.1,0.3c6.4-1.8,12.4-4.8,18.9-6.6c2.8-0.7,5.7-1.4,8.5-2.4
			C7.8,1333.7-7.6,1338-19.8,1333.7z"/>
		<path fill="#8EBF7E" d="M19.6,1381.7c-0.5,0.2-0.9-0.1-1-0.6c-2.9-12.6,5-31,19.3-32.3c0.3,0,0.5,0.1,0.6,0.3
			c-2.9,4-5.5,8.7-7.9,12.6c-2.8,4.5-5,9.3-7.6,13.9c-0.1,0.2,0.2,0.3,0.3,0.2c4.1-5.3,7-11.3,11.1-16.6c1.8-2.3,3.7-4.6,5.3-7.1
			C41.6,1365.1,31.9,1377.8,19.6,1381.7z"/>
		<path fill="#8EBF7E" d="M17.4,1224.5c-0.1-0.5,0.3-0.8,0.8-0.9c12.9-0.3,29.4,11.1,27.7,25.4c0,0.3-0.2,0.4-0.4,0.5
			c-3.3-3.7-7.4-7.1-10.8-10.3c-3.8-3.6-8.1-6.8-12.1-10.3c-0.1-0.1-0.3,0.1-0.2,0.2c4.4,5,9.7,9.2,14,14.2c1.9,2.2,3.7,4.5,5.8,6.6
			C29.2,1249.3,18.7,1237.3,17.4,1224.5z"/>
		<path fill="#8EBF7E" d="M78.3,1272.8c0.5-0.2,0.9,0,1.1,0.5c4.3,12.2-1.4,31.4-15.5,34.3c-0.3,0.1-0.5-0.1-0.6-0.2
			c2.5-4.3,4.5-9.2,6.4-13.4c2.3-4.8,3.9-9.8,6-14.7c0.1-0.2-0.2-0.3-0.3-0.1c-3.4,5.8-5.7,12.1-9.1,17.8c-1.5,2.4-3.1,5-4.5,7.6
			C58.4,1291.8,66.6,1278.1,78.3,1272.8z"/>
		<path fill="#8EBF7E" d="M3.6,1388.4c-2.8,1.9-5.6,3.9-8.4,5.8c-3.4,2.3-6.3,4.8-8.2,8.6c0,0.1,0,0.1,0.1,0
			c3-4.6,7.6-7.4,12.3-10.1c2.1-1.2,4.5-2.5,6.4-4.1c-1.5,5.8-2.7,11.5-6.6,16.3c-4.1,5-11.9,5.4-17.7,6.7c-0.4,0.1-0.7-0.1-0.9-0.5
			c-1.7-5.5,2.2-11.1,5.8-15C-9.7,1391.9-2.2,1389,3.6,1388.4z"/>
		<path fill="#8EBF7E" d="M124.5,1326.6c2.2,2.6,4.5,5.1,6.7,7.6c2.7,3.1,5.5,5.7,9.4,7.1c0.1,0,0.1-0.1,0-0.1
			c-4.9-2.4-8.2-6.7-11.4-11c-1.4-1.9-3-4.2-4.8-5.9c6,0.8,11.8,1.4,16.9,4.7c5.4,3.5,6.7,11.2,8.7,16.8c0.1,0.4,0,0.8-0.4,0.9
			c-5.2,2.3-11.3-1-15.5-4C129.4,1339.4,125.7,1332.3,124.5,1326.6z"/>
		<path fill="#8EBF7E" d="M138.9,1366.1c3.1,2.9,6.3,5.8,9.2,9c0,0,0.1,0,0.1-0.1c-2.5-3.5-5.4-6.6-8.5-9.7
			c-1.5-1.5-2.8-3.1-4.2-4.7c12,0.9,21,13.1,19.5,24.9c-0.1,0.4-0.4,0.7-0.9,0.5c-5.1-2.4-9.9-4.2-13.2-8.9c-3-4.2-6.2-9.8-6.5-15.2
			C135.8,1363.4,137.4,1364.7,138.9,1366.1z"/>
		<path fill="#8EBF7E" d="M226.6,1277.9c-1.5,0.8-3.2,1.3-5.2,1.6c-2.8,0.3-5.8-0.2-8.5-0.8c-1.2-0.2-2.6-1-4-1.8
			c-0.6-0.2-1.2-0.5-1.7-0.8c-0.4-0.2-0.8-0.3-1.2-0.5c1.7-0.3,3.3-0.7,4.9-1.1c4.8-1.3,10-1.1,14.6-3c0.2-0.1,0.1-0.3-0.1-0.3
			c-5.8,1.2-11.9,1.3-17.8,1.9c-1.1,0.1-2.3,0.2-3.4,0.4c0.5-0.4,1.1-0.7,1.5-0.5c2.6-4.3,8.8-6.4,13.5-7.1c1.6-0.2,3.6-0.5,5.6-0.5
			c4-0.1,8.1,0.5,10.3,3.6c0.2,0.3,0.1,0.6-0.1,0.9c-1.4,1.8-2.7,3.4-4.1,4.7C229.7,1276,228.3,1277.1,226.6,1277.9z"/>
		<path fill="#8EBF7E" d="M167,1244.9c-3.4,1.6-10.8,4.6-14.5,2c5.9-3,11.1-7.8,16.2-11.8c0.1-0.1,0-0.2-0.1-0.1
			c-4.4,2.5-8.5,5.4-12.8,8c-0.9,0.5-1.9,1-2.9,1.4c3.7-10.5,13.1-15.7,23.9-17.1c0.4-0.1,0.6,0.4,0.5,0.7
			C176,1235,173.8,1241.8,167,1244.9z"/>
		<path fill="#8EBF7E" d="M158.3,1313.1c1.4,1.4,2.9,2.7,4.4,4.1c3.2,3.1,6.5,6,10.2,8.6c0,0,0.1,0,0.1-0.1
			c-4-3.4-7.8-7.1-10.9-11.3c-0.6-0.8-1.2-1.6-1.9-2.4c12.5,2.4,22.1,9.8,22.9,23.3c0,0.3-0.3,0.6-0.5,0.5c-7-0.7-12.4-3.7-17.6-8.3
			c-3.9-3.5-8.9-8.7-6.8-14.3C158.2,1313.2,158.2,1313.2,158.3,1313.1z"/>
		<path fill="#8EBF7E" d="M111.4,1256.3c1.6-1.2,3.1-2.5,4.7-3.8c3.5-2.8,6.9-5.7,9.9-9c0,0,0-0.1-0.1-0.1
			c-3.9,3.5-8.1,6.8-12.6,9.4c-0.9,0.5-1.8,1-2.6,1.5c4-12,12.7-20.6,26.1-19.6c0.3,0,0.5,0.3,0.5,0.6c-1.6,6.9-5.3,11.8-10.5,16.3
			c-3.9,3.4-9.8,7.7-15.1,4.8C111.4,1256.4,111.4,1256.3,111.4,1256.3z"/>
		<path fill="#8EBF7E" d="M80.8,1328.8c0.1,0,0.1,0,0.2-0.1c-0.7,3.4-1.2,6.8-2.2,10.2c-1.4,4.9-3.1,9.7-4.3,14.6c0,0,0.1,0.1,0.1,0
			c3.7-7.9,6-16,7.6-24.4c2.8,9,3.2,17.6-0.2,26.5c-1.3,3.3-5.1,10.4-9.9,9.1c-5.1-1.4-3.8-11.6-3.6-15.3
			C69.1,1340.7,74.7,1334.6,80.8,1328.8z"/>
		<path fill="#8EBF7E" d="M112.3,1415.8c-0.1,0.3-0.4,0.5-0.7,0.4c-3.7-1.1-6.5-4.1-8.3-7.7c-2.5-5.1-2.8-11.6-0.5-16.5
			c1.7,6.2,3.8,12.3,6.4,18c0,0.1,0.2,0,0.2-0.1c-2.4-6.2-3.4-13.1-5.4-19.6c0.3,0,0.6,0.3,0.5,0.7c3.8,2.3,6.7,6.1,8.6,10.1
			c0.6,1.3,1,2.5,1.1,3.8C114.8,1408.5,113.6,1412.1,112.3,1415.8z"/>
	</g>
</g>
<g>
	<defs>
		
			<rect id="SVGID_6_" x="169.7" y="1264.9" transform="matrix(-1 -4.489576e-11 4.489576e-11 -1 954.7462 2664.8599)" width="615.4" height="135.1"/>
	</defs>
	<clipPath id="SVGID_7_">
		<use xlink:href="#SVGID_6_"  overflow="visible"/>
	</clipPath>
	<g clip-path="url(#SVGID_7_)">
		<g>
			<path fill="#468C68" d="M226.2,1528.3c-3.7-1.9-7.1-4.8-9.7-8.5c-4.3-6.2-5.6-13.6-4.3-20.5c-1.3-1.3-2.5-2.7-3.6-4.3
				c-6.7-9.6-7.1-21.6-2.1-31.4c-8.7-3.1-16.5-8.8-22.1-16.9c-14.5-20.8-9.3-49.4,11.5-63.8c6.1-4.3,13-6.8,19.9-7.7
				c-3-3.5-6.9-8.6-3.5-11.5c0.1-0.1,0.2-0.1,0.2-0.2c-6.1-18.1,0.1-38.7,16.5-50.2c7.3-5.1,15.7-7.6,24-7.8
				c7.8-0.2,15.5,1.7,22.3,5.5c0.6-1.2,1.7-1.9,3.4-1.4c0.4,0.1,0.9,0.3,1.3,0.5c2.2-7.1,6.6-13.6,13.2-18.1
				c7.7-5.4,16.9-7.1,25.4-5.6c1.1-1,2.3-2,3.5-2.9c4.8-3.3,10.1-5.3,15.5-5.9c4.7-0.6,9.4-0.1,13.9,1.2c5.8,1.7,11.2,5,15.5,9.7
				c1.2-1.1,2.5-2.2,4.2-3c0.5,1.6,0.8,3.4,1,5.2c0.3-0.2,0.6-0.5,0.9-0.7c4.8-3.3,10.1-5.3,15.5-5.9c12.2-1.5,24.8,3.7,32.3,14.5
				c3,4.3,4.9,9.1,5.7,14c4.8,1.2,9.2,4,12.3,8.4c0.2,0.4,0.4,0.7,0.7,1.1c3.2-2.4,7-4.2,10.5-2.9c0.3,0.1,0.4,0.5,0.4,0.8
				c-0.1,2.2-0.3,4.3-0.7,6.2c10.8,1.4,21,7.2,27.7,16.8c11.1,16,9,37.2-4,50.7c5.8,2.3,10.9,6.2,14.7,11.7
				c10.2,14.7,6.6,35-8.1,45.2c-1.1,0.8-2.3,1.4-3.4,2.1c9.6,17,4.9,38.8-11.4,50.2c-4.6,3.2-9.6,5.2-14.8,6.2
				c-0.4,5.6-3.2,11-8.1,14.4c-1.7,1.2-3.6,2.1-5.5,2.6c-0.3,9.4-4.8,18.5-13.1,24.2c-9.4,6.5-21.1,7-30.7,2.4
				c-0.2,8.8-4.5,17.4-12.3,22.8c-11.8,8.2-27.5,6.3-37-3.7c-0.9,0.2-1.9,0.3-2.8,0.4c-1.9,3.3-4.5,6.2-7.8,8.5
				c-11.3,7.8-26.5,5.8-35.3-4.3c-10.5,2.7-22-1.2-28.6-10.6c-1.3-1.9-2.4-4-3.1-6.1c-3.4-0.5-6.7-1.5-9.8-3
				c-8.2,0.5-16.5-2.6-22.4-8.8c-1-1.1-2-2.2-2.8-3.4C227.9,1539.5,226.2,1533.9,226.2,1528.3z"/>
			<path fill="#2C724A" d="M366.5,1544.5c9.6,4.6,21.3,4.1,30.7-2.4c8.3-5.8,12.8-14.9,13.1-24.2c1.9-0.6,3.8-1.4,5.5-2.6
				c2.5-1.7,4.4-3.9,5.7-6.3c3.5,2,7.4,2.8,11.2,1.6c0.3-0.1,0.4-0.4,0.3-0.7c-1-3.8-2.1-7.4-4.6-10.2c3.6-1.1,7.1-2.8,10.3-5
				c16.3-11.4,21.1-33.2,11.4-50.2c1.2-0.6,2.3-1.3,3.4-2.1c14.7-10.2,18.4-30.5,8.1-45.2c-3.8-5.5-9-9.4-14.7-11.7
				c13-13.5,15.1-34.7,4-50.7c-0.9-1.2-1.8-2.4-2.8-3.5c0.9-1.6,1.4-3.3,1.8-5.1c10.8,1.4,21,7.2,27.7,16.8c11.1,16,9,37.2-4,50.7
				c5.8,2.3,10.9,6.2,14.7,11.7c10.2,14.7,6.6,35-8.1,45.2c-1.1,0.8-2.3,1.4-3.4,2.1c9.6,17,4.9,38.8-11.4,50.2
				c-4.6,3.2-9.6,5.2-14.8,6.2c-0.4,5.6-3.2,11-8.1,14.4c-1.7,1.2-3.6,2.1-5.5,2.6c-0.3,9.4-4.8,18.5-13.1,24.2
				c-9.4,6.5-21.1,7-30.7,2.4c-0.2,8.8-4.5,17.4-12.3,22.8c-11.8,8.2-27.5,6.3-37-3.7c3.6-0.8,7.1-2.2,10.4-4.5
				C362,1561.8,366.2,1553.3,366.5,1544.5z"/>
			<path fill="#7BBF98" d="M305.6,1306.2c0.4-0.8,1.3-1.1,2.1-0.8c0.1,0,0.2,0.1,0.4,0.2c13.3,5.6,26.2,23.5,18,37.6c0,0,0,0,0,0
				c0,0,0,0-0.1,0.1c-0.1,0.1-0.1,0.2-0.2,0.3c-2.3-8.1-8.4-15.8-11.5-23.1c0-0.1-0.2-0.1-0.2,0.1c1.9,6.3,5,12.1,6.5,18.5
				c0.2,1,0.4,2,0.7,3.1c-6.9-2.6-12.7-8.8-15.6-16C303,1319.6,302.6,1312.4,305.6,1306.2z"/>
			<path fill="#7BBF98" d="M235.6,1439.4c0.2,0.2,0.3,0.4,0.3,0.6c-10.7-0.2-21.4,3-31.7,5.2c0,0,0,0.1,0,0.1
				c10.5-1.5,20.3-3.6,30.5-4c-3.6,5.3-10.5,7.4-16.6,8.6c-6.6,1.3-17.1,2.1-22.7-2.4c-0.4-0.3-0.4-0.8-0.1-1.1
				c4.8-6.9,12.4-11.1,20.5-13.2C223.1,1431.4,230.2,1435,235.6,1439.4z"/>
			<path fill="#7BBF98" d="M259.8,1480.2c0.3,0,0.5,0.2,0.6,0.3c-9.3,5.2-17,13.2-24.9,20.4c0,0,0,0.1,0.1,0.1
				c8.3-6.5,15.8-13.2,24.4-18.7c-0.4,6.4-5.4,11.7-10,15.7c-5.1,4.4-13.8,10.4-20.8,9.3c-0.5-0.1-0.7-0.5-0.7-0.9
				c0.7-8.4,5.2-15.8,11.1-21.6C245,1479.6,252.9,1479.2,259.8,1480.2z"/>
			<path fill="#7BBF98" d="M231.6,1368.5c3.2,2.1,11.6,9.7,8.3,13.8c-8-3.5-17-6.9-22.2-14c-0.1-0.1-0.2,0-0.1,0.1
				c1.6,2.6,3.6,4.6,6.1,6.4c2.1,1.5,5.1,4.8,7.4,5.7c2.2,0.9,4.6,2.6,7,3.6c-7.6,0.4-14.6,0.4-20-6.1c-0.5-0.6-1.4-1.6-2.4-2.7
				c-3-3.5-6.9-8.6-3.5-11.5c0.1-0.1,0.2-0.1,0.2-0.2C217.8,1359.4,227.2,1365.5,231.6,1368.5z"/>
			<path fill="#7BBF98" d="M277.7,1517.8c-0.5,0.1-0.9-0.1-1-0.6c-2.4-12.7,6.2-30.8,20.6-31.5c0.3,0,0.4,0.1,0.6,0.3
				c-3.1,3.8-5.8,8.4-8.4,12.3c-3,4.4-5.4,9.1-8.1,13.6c-0.1,0.2,0.2,0.3,0.3,0.2c4.3-5.2,7.5-11,11.8-16.2c1.8-2.2,3.9-4.4,5.6-6.8
				C300.3,1502.1,290.1,1514.4,277.7,1517.8z"/>
			<path fill="#7BBF98" d="M337.5,1534.7c-0.3,0.4-0.8,0.4-1.1,0.1c-9.6-8.7-13.7-28.3-2.6-37.5c0.2-0.2,0.4-0.2,0.6-0.1
				c-0.2,4.9,0.4,10.2,0.7,14.9c0.3,5.3,1.2,10.5,1.7,15.8c0,0.2,0.3,0.1,0.3,0c0.3-6.7-0.7-13.3-0.4-20c0.1-2.9,0.4-5.9,0.3-8.8
				C346.1,1508.5,345.3,1524.5,337.5,1534.7z"/>
			<path fill="#7BBF98" d="M245.9,1406.8c-0.3-0.4-0.2-0.9,0.1-1.1c10.5-7.6,30.5-7.7,37.3,5.1c0.1,0.2,0.1,0.5,0,0.6
				c-4.8-1.2-10.1-1.6-14.7-2.3c-5.2-0.8-10.6-0.9-15.8-1.5c-0.2,0-0.2,0.3,0,0.3c6.5,1.6,13.2,2,19.7,3.7c2.8,0.7,5.7,1.6,8.6,2.1
				C269.8,1420.5,254.3,1416.6,245.9,1406.8z"/>
			<path fill="#7BBF98" d="M323.5,1411.8c0.3-0.4,0.7-0.5,1.1-0.2c10.5,7.6,16.8,26.6,6.8,37c-0.2,0.2-0.4,0.2-0.6,0.2
				c-0.4-4.9-1.6-10.1-2.4-14.7c-0.9-5.2-2.4-10.3-3.5-15.5c0-0.2-0.3-0.1-0.3,0.1c0.5,6.7,2.2,13.2,2.6,19.8
				c0.2,2.9,0.3,5.9,0.7,8.8C318,1438.8,316.9,1422.8,323.5,1411.8z"/>
			<path fill="#7BBF98" d="M328.1,1549.3c-1.2,3.2-2.4,6.4-3.6,9.5c-1.5,3.8-2.4,7.6-1.8,11.7c0,0.1,0.1,0,0.1,0
				c-0.2-5.5,2.1-10.4,4.3-15.3c1-2.2,2.3-4.6,2.9-7.1c2.1,5.6,4.4,11,3.8,17.2c-0.5,6.4-6.6,11.2-10.7,15.6c-0.3,0.3-0.7,0.3-1,0.1
				c-4.5-3.5-4.5-10.4-3.8-15.6C319.2,1559.8,323.7,1553.2,328.1,1549.3z"/>
			<path fill="#7BBF98" d="M392.1,1429.6c3.3,0.8,6.6,1.6,9.8,2.5c4,1,7.8,1.5,11.8,0.5c0.1,0,0-0.1,0-0.1
				c-5.4,0.8-10.6-0.9-15.7-2.5c-2.3-0.7-4.8-1.8-7.3-2.1c5.4-2.8,10.4-5.6,16.6-5.8c6.5-0.2,11.9,5.3,16.7,8.8
				c0.3,0.2,0.4,0.6,0.2,1c-3,4.9-9.8,5.7-15,5.6C403.4,1437.2,396.4,1433.5,392.1,1429.6z"/>
			<path fill="#7BBF98" d="M426.5,1453.8c4.2,0.6,8.5,1.2,12.7,2.1c0,0,0.1-0.1,0-0.1c-4.1-1.4-8.2-2.3-12.5-3.1
				c-2-0.4-4.1-0.9-6.1-1.4c10.4-6.1,24.7-1.3,30.2,9.3c0.2,0.4,0,0.8-0.4,0.9c-5.5,0.9-10.5,2.2-16,0.2c-4.8-1.7-10.7-4.6-14-8.7
				C422.4,1453.3,424.5,1453.5,426.5,1453.8z"/>
			<path fill="#7BBF98" d="M448.2,1331.3c-0.8,1.5-1.9,2.9-3.4,4.3c-2.1,1.9-4.9,3.1-7.4,4.2c-1.1,0.5-2.8,0.7-4.3,0.9
				c-0.6,0.1-1.2,0.2-1.8,0.3c-0.5,0.1-0.9,0.2-1.3,0.3c1.2-1.2,2.3-2.4,3.4-3.7c3.2-3.8,7.6-6.6,10.3-10.9c0.1-0.2-0.1-0.4-0.2-0.2
				c-4.1,4.3-9,7.9-13.5,11.8c-0.9,0.7-1.7,1.5-2.6,2.3c0.1-0.6,0.5-1.2,1-1.3c-0.3-5.1,3.5-10.3,7.1-13.5c1.2-1.1,2.7-2.4,4.3-3.6
				c3.2-2.4,7-4.2,10.5-2.9c0.3,0.1,0.4,0.5,0.4,0.8c-0.1,2.2-0.3,4.3-0.7,6.2C449.6,1328,449,1329.7,448.2,1331.3z"/>
			<path fill="#7BBF98" d="M380.4,1338.3c-1.9,3.3-6.3,9.9-10.8,9.9c3.1-5.8,4.7-12.7,6.6-18.9c0-0.1-0.1-0.1-0.2-0.1
				c-2.2,4.5-3.9,9.3-6,13.8c-0.5,1-1,1.9-1.6,2.9c-2.9-10.7,1.8-20.3,9.9-27.6c0.3-0.3,0.7,0,0.9,0.3
				C382.1,1324.9,384.2,1331.8,380.4,1338.3z"/>
			<path fill="#7BBF98" d="M412.2,1399.2c2,0.3,4,0.6,6,0.9c4.4,0.7,8.8,1.2,13.3,1.2c0,0,0.1-0.1,0-0.1c-5.2-0.5-10.4-1.4-15.4-3
				c-1-0.3-1.9-0.6-2.9-0.9c11.6-5.2,23.8-4.5,32.1,6.1c0.2,0.2,0.1,0.6-0.1,0.7c-6.1,3.5-12.2,4-19.1,3.2
				c-5.2-0.6-12.3-2.1-13.8-7.9C412.1,1399.3,412.1,1399.3,412.2,1399.2z"/>
			<path fill="#7BBF98" d="M341.2,1379.3c0.6-1.9,1.1-3.8,1.7-5.8c1.3-4.3,2.4-8.6,3-13c0,0-0.1-0.1-0.1,0c-1.2,5.1-2.8,10.2-5,14.9
				c-0.4,0.9-0.9,1.8-1.3,2.8c-3.6-12.1-1.3-24.2,10.3-31c0.2-0.1,0.6,0,0.7,0.2c2.6,6.5,2.4,12.7,0.6,19.4
				c-1.3,5-3.7,11.9-9.6,12.6C341.3,1379.4,341.2,1379.3,341.2,1379.3z"/>
			<path fill="#7BBF98" d="M357.5,1456.3c0-0.1,0.1-0.1,0.1-0.1c1.4,3.2,2.9,6.3,4,9.6c1.7,4.8,3,9.7,4.8,14.5c0,0,0.1,0,0.1,0
				c-1.4-8.6-4.2-16.5-7.7-24.4c7.4,5.8,12.7,12.6,15,21.9c0.9,3.5,1.8,11.4-3,13.1c-5,1.8-9.8-7.3-11.7-10.5
				C354.7,1472.7,355.7,1464.6,357.5,1456.3z"/>
			<path fill="#7BBF98" d="M433,1509.8c0.1,0.3,0,0.6-0.3,0.7c-3.7,1.2-7.7,0.4-11.2-1.6c-4.9-2.8-8.9-8-9.8-13.3
				c4.9,4.1,10.2,7.9,15.5,11.1c0.1,0.1,0.2-0.1,0.1-0.2c-5.5-3.7-10.3-8.8-15.6-13c0.3-0.2,0.7-0.1,0.8,0.3
				c4.5-0.3,8.9,1.2,12.8,3.4c1.2,0.7,2.2,1.5,3.1,2.4C430.9,1502.3,432,1506,433,1509.8z"/>
		</g>
		<g>
			<path fill="#468C68" d="M484.4,1510.2c-2.9-3.1-5.1-6.9-6.2-11.3c-2-7.3-0.7-14.7,2.9-20.7c-0.8-1.7-1.5-3.4-2-5.3
				c-3-11.3,0.7-22.8,8.6-30.2c-7.1-5.9-12.5-13.9-15.1-23.4c-6.6-24.5,8-49.6,32.4-56.2c7.2-1.9,14.5-2,21.3-0.5
				c-1.7-4.3-3.6-10.4,0.6-12c0.1,0,0.2,0,0.3-0.1c0.4-19.1,13.2-36.4,32.5-41.6c8.6-2.3,17.3-1.9,25.2,0.8
				c7.4,2.5,14,6.9,19.1,12.7c1-0.9,2.2-1.2,3.7-0.2c0.4,0.2,0.7,0.5,1.1,0.9c4.5-5.9,10.8-10.5,18.6-12.6c9.1-2.4,18.3-1,25.9,3.3
				c1.4-0.6,2.8-1.1,4.3-1.5c5.6-1.5,11.3-1.5,16.6-0.3c4.6,1.1,8.9,3.1,12.7,5.8c4.9,3.6,8.8,8.5,11.3,14.3
				c1.5-0.7,3.1-1.2,4.9-1.4c-0.1,1.7-0.4,3.5-0.8,5.2c0.4-0.1,0.7-0.3,1.1-0.4c5.6-1.5,11.3-1.5,16.6-0.3
				c12,2.8,22.1,11.9,25.5,24.6c1.4,5.1,1.5,10.3,0.6,15.1c4.1,2.7,7.3,6.9,8.7,12.1c0.1,0.4,0.2,0.8,0.2,1.2
				c3.8-1.1,8-1.6,10.9,0.8c0.3,0.2,0.2,0.6,0.1,0.9c-0.9,2-1.7,3.9-2.7,5.6c9.7,5,17.3,13.9,20.3,25.2c5,18.8-4.1,38-20.9,46.3
				c4.6,4.1,8.2,9.5,9.9,16c4.6,17.3-5.6,35.1-23,39.8c-1.3,0.4-2.6,0.6-3.9,0.8c3.3,19.2-8.5,38.2-27.8,43.3
				c-5.4,1.4-10.8,1.6-16,0.8c-2.2,5.1-6.7,9.2-12.6,10.8c-2,0.5-4.1,0.7-6,0.6c-3.4,8.7-10.8,15.8-20.5,18.4
				c-11,3-22.2-0.5-29.7-8.1c-3.2,8.2-10.1,14.8-19.3,17.3c-13.8,3.7-28-3.4-33.6-16.1c-0.9-0.1-1.9-0.3-2.8-0.5
				c-2.9,2.4-6.3,4.3-10.2,5.3c-13.3,3.6-26.9-3.5-31.8-16c-10.8-1-20.3-8.6-23.3-19.7c-0.6-2.3-0.9-4.5-0.9-6.8
				c-3-1.6-5.8-3.7-8.2-6.1c-7.9-2.3-14.6-8-18.1-15.9c-0.6-1.3-1.1-2.7-1.5-4.1C482.1,1521.4,482.5,1515.5,484.4,1510.2z"/>
			<path fill="#2C724A" d="M610.9,1572.9c7.5,7.6,18.7,11.1,29.7,8.1c9.7-2.6,17.1-9.7,20.5-18.4c2,0.1,4-0.1,6-0.6
				c2.9-0.8,5.4-2.2,7.5-4c2.6,3,6.1,5.1,10,5.3c0.3,0,0.5-0.2,0.5-0.5c0.3-3.9,0.6-7.7-0.9-11.1c3.7,0.2,7.6-0.2,11.4-1.2
				c19.2-5.2,31.1-24.1,27.8-43.3c1.3-0.2,2.6-0.4,3.9-0.8c17.3-4.6,27.6-22.5,23-39.8c-1.7-6.4-5.3-11.9-9.9-16
				c16.8-8.3,26-27.5,20.9-46.3c-0.4-1.5-0.9-2.9-1.4-4.2c1.3-1.2,2.4-2.6,3.4-4.2c9.7,5,17.3,13.9,20.3,25.2
				c5,18.8-4.1,38-20.9,46.3c4.6,4.1,8.2,9.5,9.9,16c4.6,17.3-5.6,35.1-23,39.8c-1.3,0.4-2.6,0.6-3.9,0.8
				c3.3,19.2-8.5,38.2-27.8,43.3c-5.4,1.4-10.8,1.6-16,0.8c-2.2,5.1-6.7,9.2-12.6,10.8c-2,0.5-4.1,0.7-6,0.6
				c-3.4,8.7-10.8,15.8-20.5,18.4c-11,3-22.2-0.5-29.7-8.1c-3.2,8.2-10.1,14.8-19.3,17.3c-13.8,3.7-28-3.4-33.6-16.1
				c3.7,0.5,7.5,0.3,11.3-0.7C600.8,1587.8,607.7,1581.1,610.9,1572.9z"/>
			<path fill="#7BBF98" d="M634.3,1328.1c0.6-0.6,1.6-0.6,2.2,0c0.1,0.1,0.2,0.2,0.3,0.3c10.6,9.8,16.7,31,4.2,41.5c0,0,0,0,0,0
				c0,0,0,0-0.1,0c-0.1,0.1-0.2,0.1-0.3,0.2c0.6-8.4-2.6-17.7-3-25.6c0-0.1-0.2-0.1-0.2,0c-0.3,6.5,0.6,13.1-0.1,19.6
				c-0.1,1-0.3,2.1-0.4,3.1c-5.6-4.8-8.9-12.6-9.3-20.3C627.3,1339.9,629.4,1332.9,634.3,1328.1z"/>
			<path fill="#7BBF98" d="M523.4,1429.7c0.1,0.2,0.2,0.5,0.1,0.7c-10-3.8-21.1-4.5-31.6-5.8c0,0-0.1,0.1,0,0.1
				c10.3,2.1,20.3,3.5,30.1,6.6c-5.1,3.8-12.4,3.4-18.5,2.5c-6.6-1.1-16.8-3.8-20.5-10c-0.2-0.4-0.1-0.9,0.3-1.1
				c6.9-4.9,15.4-6.3,23.7-5.4C514.3,1418,519.7,1423.8,523.4,1429.7z"/>
			<path fill="#7BBF98" d="M532.3,1476.4c0.2,0.1,0.4,0.3,0.4,0.5c-10.5,1.7-20.5,6.7-30.3,10.8c0,0,0,0.1,0,0.1
				c10-3.3,19.3-7.1,29.3-9.3c-2.6,5.9-9.1,9.2-14.8,11.4c-6.3,2.4-16.5,5.1-22.8,1.7c-0.4-0.2-0.5-0.7-0.3-1.1
				c3.5-7.7,10.2-13.2,17.8-16.6C518.6,1470.7,526.2,1473.1,532.3,1476.4z"/>
			<path fill="#7BBF98" d="M543.7,1361.7c2.3,3,7.6,13.1,3.2,15.8c-6.3-5.9-13.7-12.2-16.1-20.7c0-0.1-0.2-0.1-0.2,0
				c0.6,3,1.8,5.5,3.6,8.1c1.5,2.2,3.2,6.2,5.1,7.8c1.8,1.6,3.4,4,5.4,5.8c-7.3-2.2-13.8-4.6-16.7-12.5c-0.3-0.8-0.8-2-1.3-3.3
				c-1.7-4.3-3.6-10.4,0.6-12c0.1,0,0.2,0,0.3-0.1C533.7,1348.4,540.5,1357.4,543.7,1361.7z"/>
			<path fill="#7BBF98" d="M536.4,1517.7c-0.5,0-0.8-0.4-0.7-0.9c2.1-12.8,16.3-26.9,30.1-22.6c0.3,0.1,0.4,0.3,0.4,0.5
				c-4.2,2.6-8.3,6-12.1,8.7c-4.3,3.1-8.2,6.8-12.3,10.1c-0.1,0.1,0,0.3,0.2,0.2c5.8-3.4,10.8-7.9,16.6-11.2
				c2.5-1.4,5.1-2.8,7.6-4.5C563,1510.6,549.2,1518.8,536.4,1517.7z"/>
			<path fill="#7BBF98" d="M586.9,1553.9c-0.4,0.3-0.9,0.1-1.1-0.3c-6.1-11.4-3.3-31.3,10.3-36.2c0.3-0.1,0.5,0,0.6,0.1
				c-1.8,4.6-3.1,9.8-4.4,14.2c-1.5,5.1-2.4,10.3-3.7,15.4c0,0.2,0.2,0.2,0.3,0.1c2.5-6.2,3.8-12.8,6.4-18.9
				c1.1-2.6,2.4-5.4,3.3-8.2C603.9,1532.2,597.8,1547,586.9,1553.9z"/>
			<path fill="#7BBF98" d="M544,1402.6c-0.2-0.5,0.1-0.9,0.5-1c12.4-3.6,31.3,3.1,33.3,17.4c0,0.3-0.1,0.5-0.3,0.6
				c-4.1-2.7-9-5-13.1-7.2c-4.6-2.5-9.6-4.5-14.4-6.8c-0.2-0.1-0.3,0.2-0.1,0.3c5.6,3.7,11.7,6.3,17.3,10.1c2.4,1.6,4.8,3.4,7.4,4.9
				C561.9,1423.6,548.7,1414.6,544,1402.6z"/>
			<path fill="#7BBF98" d="M615.4,1433.6c0.4-0.3,0.9-0.2,1.1,0.2c7.3,10.7,6.8,30.7-6.1,37.1c-0.3,0.1-0.5,0.1-0.6-0.1
				c1.3-4.8,1.9-10.1,2.7-14.7c0.9-5.2,1.2-10.5,1.9-15.8c0-0.2-0.3-0.2-0.3,0c-1.8,6.4-2.4,13.1-4.2,19.6c-0.8,2.7-1.8,5.6-2.3,8.5
				C601.1,1457.1,605.4,1441.7,615.4,1433.6z"/>
			<path fill="#7BBF98" d="M573.1,1564.5c-2.2,2.6-4.4,5.2-6.6,7.7c-2.7,3.1-4.8,6.3-5.7,10.4c0,0.1,0.1,0.1,0.1,0
				c1.7-5.2,5.5-9.1,9.2-12.9c1.7-1.7,3.7-3.5,5.1-5.7c0.1,6,0.4,11.8-2.2,17.4c-2.7,5.9-10.1,8.3-15.3,11.1c-0.3,0.2-0.8,0.1-1-0.3
				c-3.1-4.8-0.7-11.3,1.7-15.9C561.2,1571.3,567.7,1566.6,573.1,1564.5z"/>
			<path fill="#7BBF98" d="M673.9,1473.5c2.8,1.9,5.7,3.8,8.4,5.6c3.4,2.3,6.8,4.1,11,4.4c0.1,0,0.1-0.1,0-0.1
				c-5.4-1.1-9.7-4.4-13.9-7.7c-1.9-1.5-3.9-3.3-6.2-4.4c6-0.8,11.7-1.7,17.6,0.2c6.2,2,9.4,9,12.7,13.9c0.2,0.3,0.2,0.7-0.1,1
				c-4.4,3.6-11.2,2-16,0.1C682,1484.6,676.6,1478.7,673.9,1473.5z"/>
			<path fill="#7BBF98" d="M698.1,1508c3.8,2,7.6,4,11.2,6.3c0,0,0.1,0,0.1-0.1c-3.4-2.7-7-5-10.7-7.1c-1.8-1-3.5-2.3-5.3-3.4
				c11.9-2.2,23.7,7.2,25.3,19c0.1,0.4-0.2,0.8-0.7,0.7c-5.5-1.1-10.6-1.5-15.1-5.2c-4-3.3-8.5-7.9-10.2-13
				C694.4,1506.2,696.3,1507,698.1,1508z"/>
			<path fill="#7BBF98" d="M760,1400.1c-1.3,1.1-2.8,2.1-4.6,2.9c-2.6,1.1-5.6,1.3-8.4,1.4c-1.2,0.1-2.8-0.3-4.4-0.7
				c-0.6-0.1-1.3-0.2-1.8-0.4c-0.5-0.1-0.9-0.1-1.3-0.1c1.5-0.7,3-1.5,4.5-2.3c4.3-2.5,9.4-3.7,13.3-6.7c0.2-0.1,0-0.4-0.2-0.3
				c-5.3,2.7-11.1,4.4-16.7,6.5c-1.1,0.4-2.1,0.8-3.2,1.3c0.4-0.5,0.9-1,1.3-0.9c1.4-4.9,6.8-8.5,11.2-10.3c1.5-0.6,3.4-1.4,5.3-2
				c3.8-1.1,8-1.6,10.9,0.8c0.3,0.2,0.2,0.6,0.1,0.9c-0.9,2-1.7,3.9-2.7,5.6C762.4,1397.4,761.3,1398.8,760,1400.1z"/>
			<path fill="#7BBF98" d="M693.9,1383.7c-2.9,2.4-9.3,7.2-13.5,5.6c4.9-4.4,8.7-10.4,12.6-15.5c0.1-0.1-0.1-0.2-0.1-0.1
				c-3.6,3.5-6.8,7.4-10.3,11c-0.8,0.8-1.6,1.5-2.4,2.2c0.9-11.1,8.6-18.5,18.6-22.7c0.4-0.2,0.7,0.2,0.7,0.5
				C699.9,1371.7,699.6,1378.8,693.9,1383.7z"/>
			<path fill="#7BBF98" d="M703.1,1451.8c1.7,1,3.5,1.9,5.3,2.9c3.9,2.2,7.9,4.1,12.1,5.7c0,0,0.1-0.1,0-0.1
				c-4.8-2.2-9.4-4.8-13.5-8.1c-0.8-0.6-1.6-1.2-2.4-1.9c12.6-1,23.9,3.8,28.1,16.6c0.1,0.3-0.1,0.6-0.4,0.6
				c-6.9,1.2-12.9-0.3-19.1-3.5c-4.6-2.3-10.9-6.1-10.3-12.1C703,1451.9,703,1451.8,703.1,1451.8z"/>
			<path fill="#7BBF98" d="M643,1409c1.2-1.6,2.3-3.3,3.5-4.9c2.7-3.6,5.1-7.3,7.2-11.3c0,0-0.1-0.1-0.1,0c-2.8,4.4-6,8.6-9.8,12.3
				c-0.7,0.7-1.4,1.4-2.2,2.2c0.7-12.6,6.9-23.2,20.2-25.7c0.3,0,0.6,0.2,0.6,0.5c0.3,7-2.1,12.7-6,18.5c-2.9,4.3-7.5,10-13.4,8.6
				C643.1,1409.1,643.1,1409,643,1409z"/>
			<path fill="#7BBF98" d="M632.3,1486.9c0-0.1,0.1-0.1,0.1-0.1c0.2,3.5,0.6,6.9,0.5,10.4c-0.1,5.1-0.5,10.2-0.4,15.3
				c0,0.1,0.1,0.1,0.1,0c1.6-8.6,1.7-17,1.1-25.6c5,7.9,7.7,16.1,6.7,25.7c-0.4,3.6-2.2,11.4-7.2,11.3c-5.3,0-6.7-10.2-7.4-13.8
				C624.1,1501.4,627.9,1494.2,632.3,1486.9z"/>
			<path fill="#7BBF98" d="M685.2,1562.8c0,0.3-0.2,0.5-0.5,0.5c-3.9-0.1-7.4-2.2-10-5.3c-3.7-4.3-5.7-10.5-4.7-15.8
				c3.3,5.5,6.9,10.9,10.8,15.7c0.1,0.1,0.2,0,0.1-0.1c-3.9-5.4-6.7-11.8-10.3-17.5c0.3-0.1,0.7,0.1,0.7,0.5c4.3,1.3,8,4.1,10.9,7.5
				c0.9,1.1,1.6,2.2,2.1,3.3C685.8,1555.2,685.6,1559,685.2,1562.8z"/>
		</g>
	</g>
</g>
</svg>
