<?xml version="1.0" encoding="iso-8859-1"?>
<!-- Generator: Adobe Illustrator 19.0.0, SVG Export Plug-In . SVG Version: 6.00 Build 0)  -->
<svg version="1.1" id="Layer_1" xmlns="http://www.w3.org/2000/svg" xmlns:xlink="http://www.w3.org/1999/xlink" x="0px" y="0px"
	 viewBox="0 0 512 512" style="enable-background:new 0 0 512 512;" xml:space="preserve">
<path style="fill:#CEA656;" d="M460.8,385.347H51.2c-23.812,0-43.116-19.304-43.116-43.116V51.2
	c0-23.812,19.304-43.116,43.116-43.116h409.6c23.812,0,43.116,19.304,43.116,43.116v291.032
	C503.916,366.043,484.612,385.347,460.8,385.347z"/>
<path style="fill:#697900;" d="M439.242,342.232H72.758c-11.906,0-21.558-9.651-21.558-21.558V72.758
	c0-11.906,9.651-21.558,21.558-21.558h366.484c11.906,0,21.558,9.651,21.558,21.558v247.916
	C460.8,332.58,451.148,342.232,439.242,342.232z"/>
<path style="fill:#FF5200;" d="M288.337,428.463v75.453H94.316v-75.453c0-53.578,43.433-97.011,97.011-97.011l0,0
	C244.904,331.453,288.337,374.885,288.337,428.463z"/>
<path style="fill:#CC0000;" d="M288.337,428.463v75.453H94.316v-53.895h43.116c41.671,0,75.453-33.781,75.453-75.453l0,0
	c0-15.204-3.501-29.588-9.734-42.397C251.149,338.004,288.337,378.889,288.337,428.463z"/>
<path style="fill:#28749E;" d="M450.021,428.463v75.453H256v-75.453c0-53.578,43.433-97.011,97.011-97.011l0,0
	C406.588,331.453,450.021,374.885,450.021,428.463z"/>
<path style="fill:#2C4D67;" d="M450.021,428.463v75.453H256v-53.895h43.116c41.671,0,75.453-33.781,75.453-75.453l0,0
	c0-15.204-3.501-29.588-9.734-42.397C412.834,338.004,450.021,378.889,450.021,428.463z"/>
<path style="fill:#CE7F49;" d="M256,266.779c0,21.634-10.633,40.774-26.947,52.514v17.549c0,20.836-16.891,37.726-37.726,37.726l0,0
	c-20.836,0-37.726-16.891-37.726-37.726v-17.549c-16.314-11.74-26.947-30.88-26.947-52.514c0-35.718,28.955-64.674,64.674-64.674
	S256,231.061,256,266.779z M417.684,266.779c0-35.718-28.956-64.674-64.674-64.674s-64.674,28.955-64.674,64.674
	c0,21.634,10.633,40.774,26.947,52.514v17.549c0,20.836,16.891,37.726,37.726,37.726l0,0c20.836,0,37.726-16.891,37.726-37.726
	v-17.549C407.051,307.552,417.684,288.413,417.684,266.779z"/>
<path style="fill:#FFC02C;" d="M209.189,266.779c-8.88,25.116-32.822,43.116-60.979,43.116c-1.779,0-3.535-0.092-5.278-0.233
	c-10.123-11.415-16.279-26.427-16.279-42.883c0-35.718,28.955-64.674,64.674-64.674c0.922,0,1.837,0.026,2.748,0.069
	C228.516,203.615,256,231.981,256,266.779H209.189z"/>
<path style="fill:#FFE52C;" d="M94.316,245.221c0-23.812,19.304-43.116,43.116-43.116h51.739v21.558
	c0,23.812-19.304,43.116-43.116,43.116H94.316V245.221z"/>
<path style="fill:#E7EDE2;" d="M355.705,105.095c0,4.465-3.62,8.084-8.084,8.084H164.379c-4.465,0-8.084-3.62-8.084-8.084
	s3.62-8.084,8.084-8.084h183.242C352.086,97.011,355.705,100.63,355.705,105.095z M310.434,140.126h-75.453
	c-4.465,0-8.084,3.62-8.084,8.084c0,4.465,3.62,8.084,8.084,8.084h75.453c4.465,0,8.084-3.62,8.084-8.084
	C318.518,143.746,314.898,140.126,310.434,140.126z M202.644,140.126h-1.078c-4.465,0-8.084,3.62-8.084,8.084
	c0,4.465,3.62,8.084,8.084,8.084h1.078c4.465,0,8.084-3.62,8.084-8.084C210.728,143.746,207.109,140.126,202.644,140.126z"/>
<path style="fill:#602812;" d="M417.684,266.779H288.337c0-35.718,28.956-64.674,64.674-64.674S417.684,231.061,417.684,266.779z"/>
<path style="fill:#823E20;" d="M353.01,202.105c1.779,0,3.535,0.092,5.278,0.233c10.122,11.415,16.279,26.427,16.279,42.883
	c0,35.718-28.955,64.674-64.674,64.674c-1.779,0-3.535-0.092-5.278-0.233c-10.122-11.415-16.279-26.427-16.279-42.883
	C288.337,231.061,317.292,202.105,353.01,202.105z"/>
<path d="M512,51.2v291.032c0,18.221-9.808,35.213-25.594,44.346c-3.865,2.234-8.81,0.915-11.046-2.95
	c-2.236-3.864-0.915-8.81,2.949-11.045c10.808-6.253,17.522-17.882,17.522-30.35V51.2c0-19.317-15.715-35.032-35.032-35.032H51.2
	c-19.317,0-35.032,15.715-35.032,35.032v291.032c0,19.317,15.715,35.032,35.032,35.032h21.558c4.466,0,8.084,3.618,8.084,8.084
	s-3.618,8.084-8.084,8.084H51.2c-28.231,0-51.2-22.969-51.2-51.2V51.2C0,22.969,22.969,0,51.2,0h409.6
	C489.031,0,512,22.969,512,51.2z M439.242,334.147c-4.466,0-8.084,3.618-8.084,8.084s3.618,8.084,8.084,8.084
	c16.344,0,29.642-13.298,29.642-29.642V72.758c0-16.344-13.298-29.642-29.642-29.642H72.758c-16.344,0-29.642,13.298-29.642,29.642
	v247.916c0,16.344,13.298,29.642,29.642,29.642h21.558c4.466,0,8.084-3.618,8.084-8.084s-3.618-8.084-8.084-8.084H72.758
	c-7.43,0-13.474-6.044-13.474-13.474V72.758c0-7.43,6.044-13.474,13.474-13.474h366.484c7.43,0,13.474,6.044,13.474,13.474v247.916
	C452.716,328.104,446.672,334.147,439.242,334.147z M479.663,503.916c0,4.466-3.618,8.084-8.084,8.084h-21.558H256H40.421
	c-4.466,0-8.084-3.618-8.084-8.084s3.618-8.084,8.084-8.084h45.811v-67.368c0-43.258,26.274-80.492,63.7-96.592
	c0.377-0.197,0.773-0.363,1.184-0.499c1.305-0.542,2.621-1.064,3.953-1.554c-19.579-11.305-33.428-31.452-36.038-54.954H94.316
	c-4.466,0-8.084-3.618-8.084-8.084v-21.558c0-28.231,22.969-51.2,51.2-51.2h43.116h10.779c40.119,0,72.758,32.639,72.758,72.758
	c0,26.919-14.707,50.454-36.496,63.037c1.394,0.512,2.778,1.048,4.147,1.618c0.127,0.045,0.249,0.098,0.373,0.151
	c15.419,6.488,29.198,16.638,40.091,29.767c10.56-12.694,24.049-22.87,39.419-29.482c0.377-0.197,0.773-0.363,1.184-0.499
	c1.305-0.542,2.621-1.064,3.953-1.554c-21.793-12.583-36.501-36.118-36.501-63.039c0-40.119,32.639-72.758,72.758-72.758
	s72.758,32.639,72.758,72.758c0,26.92-14.708,50.455-36.499,63.039c1.331,0.49,2.647,1.011,3.953,1.554
	c0.411,0.136,0.806,0.302,1.184,0.499c37.426,16.101,63.699,53.334,63.699,96.592v67.368h13.474
	C476.045,495.832,479.663,499.45,479.663,503.916z M308.695,301.909c0.392-0.058,0.791-0.098,1.2-0.098
	c31.203,0,56.589-25.387,56.589-56.589c0-4.466,3.618-8.084,8.084-8.084c4.466,0,8.084,3.618,8.084,8.084
	c0,4.605-0.449,9.104-1.271,13.474h27.632c-3.936-27.386-27.545-48.505-56.003-48.505c-31.203,0-56.589,25.387-56.589,56.589
	C296.421,280.046,301.021,292.25,308.695,301.909z M353.01,323.368c28.458,0,52.067-21.119,56.003-48.505h-32.698
	c-9.299,20.755-28.037,36.383-50.729,41.392C333.716,320.78,343.065,323.368,353.01,323.368z M353.01,339.537
	c-10.037,0-19.68,1.696-28.688,4.776c3.321,12.808,14.974,22.171,28.688,22.171c13.714,0,25.367-9.365,28.688-22.171
	C372.691,341.232,363.048,339.537,353.01,339.537z M102.4,258.695h35.032c19.317,0,35.032-15.715,35.032-35.032v-13.474h-35.032
	c-19.317,0-35.032,15.715-35.032,35.032V258.695z M147.011,301.909c0.392-0.058,0.791-0.098,1.2-0.098
	c31.203,0,56.589-25.387,56.589-56.589c0-4.466,3.618-8.084,8.084-8.084s8.084,3.618,8.084,8.084c0,4.605-0.449,9.104-1.271,13.474
	h27.632c-3.936-27.386-27.545-48.505-56.003-48.505h-2.695v13.474c0,28.231-22.969,51.2-51.2,51.2h-2.108
	C136.778,284.988,140.925,294.249,147.011,301.909z M191.326,323.368c28.457,0,52.067-21.119,56.003-48.505h-32.698
	c-9.3,20.755-28.037,36.383-50.729,41.392C172.032,320.78,181.381,323.368,191.326,323.368z M191.326,339.537
	c-10.037,0-19.68,1.696-28.688,4.776c3.321,12.808,14.974,22.171,28.688,22.171c13.723,0,25.382-9.376,28.695-22.195
	C210.91,341.186,201.235,339.537,191.326,339.537z M102.4,495.832h145.516v-67.368c0-19.454,5.319-37.685,14.571-53.329
	c-7.519-10.024-16.938-18.209-27.576-24.192c-5.969,18.471-23.318,31.711-43.585,31.711c-20.25,0-37.587-13.219-43.568-31.666
	c-27.045,15.269-45.358,44.267-45.358,77.477V495.832z M441.937,495.832v-67.368c0-33.21-18.312-62.207-45.358-77.477
	c-5.981,18.447-23.317,31.666-43.569,31.666c-20.251,0-37.587-13.219-43.568-31.666c-27.045,15.269-45.358,44.267-45.358,77.477
	v67.368H441.937z M9.162,495.832H8.084c-4.466,0-8.084,3.618-8.084,8.084S3.618,512,8.084,512h1.078
	c4.466,0,8.084-3.618,8.084-8.084S13.628,495.832,9.162,495.832z"/>
<g>
</g>
<g>
</g>
<g>
</g>
<g>
</g>
<g>
</g>
<g>
</g>
<g>
</g>
<g>
</g>
<g>
</g>
<g>
</g>
<g>
</g>
<g>
</g>
<g>
</g>
<g>
</g>
<g>
</g>
</svg>
