<?xml version="1.0" encoding="utf-8"?>
<svg id="master-artboard" viewBox="0 0 1096 780" version="1.1" xmlns="http://www.w3.org/2000/svg" x="0px" y="0px" style="enable-background:new 0 0 1096 780;" width="1096px" height="780px">

<g>
	<g>
		<path d="M 0 0 H 1096 V 780 H 0 V 0 Z" class="st0" style="fill: rgb(2, 163, 158);"/>
	</g>
</g>
<path class="st1" d="M625.5,562L625.5,562l-0.2-0.3c-0.9-1.2-1.9-2.4-2.9-3.5l-93.2-111.1l-26.8,41.8l61.3,93.6&#10;&#9;c0.4,18.5,15.5,33.4,34.1,33.4c18.8,0,34.1-15.3,34.1-34.1C631.9,574.4,629.5,567.6,625.5,562z M538,497.6c-4.1,3-9.9,2.1-12.9-2&#10;&#9;c-3-4.1-2.1-9.9,2-12.9c4.1-3,9.9-2.1,12.9,2C543,488.8,542.1,494.6,538,497.6z M558.1,525.1c-4.1,3-9.9,2.1-12.9-2&#10;&#9;c-3-4.1-2.1-9.9,2-12.9c4.1-3,9.9-2.1,12.9,2C563.1,516.3,562.2,522.1,558.1,525.1z M578.2,552.6c-4.1,3-9.9,2.1-12.9-2&#10;&#9;c-3-4.1-2.1-9.9,2-12.9c4.1-3,9.9-2.1,12.9,2C583.2,543.8,582.3,549.6,578.2,552.6z" style="fill: rgb(255, 255, 255);"/>
<path class="st2" d="M535,456.9c0-14.2-11.5-25.7-25.7-25.7c-7.4,0-14,3.1-18.7,8.1l0,0l0,0.1c-2.1,2.3-3.9,4.9-5.1,7.8L437.7,521&#10;&#9;l26.4,22.6l63.2-68.3c0.5-0.5,1-1,1.5-1.6l0.2-0.2h0C532.7,469,535,463.2,535,456.9z M472.3,510.7c-3.8,0-6.9-3.1-6.9-6.9&#10;&#9;c0-3.8,3.1-6.9,6.9-6.9c3.8,0,6.9,3.1,6.9,6.9C479.2,507.6,476.1,510.7,472.3,510.7z M488.2,490.8c-4.4,0-8-3.6-8-8c0-4.4,3.6-8,8-8&#10;&#9;c4.4,0,8,3.6,8,8C496.2,487.3,492.6,490.8,488.2,490.8z" style="fill: rgb(170, 210, 97);"/>
<g>
	<g>
		<path d="M 892.4000244140625 177.5 L 862.9000244140625 229.6999969482422 L 869.2000122070312 239.3000030517578 L 899.4000244140625 185.89999389648438 Z" class="st1" style="fill: rgb(255, 255, 255);"/>
		<path d="M 880 162.6999969482422 L 851.7000122070312 212.60000610351562 L 858 222.3000030517578 L 887 171.10000610351562 Z" class="st1" style="fill: rgb(255, 255, 255);"/>
		<path d="M 849 125.69999694824219 L 822.2000122070312 167.60000610351562 L 846.7999877929688 205.1999969482422 L 874.5 156.1999969482422 Z" class="st1" style="fill: rgb(255, 255, 255);"/>
		<path class="st1" d="M945.3,240.6L945.3,240.6l-0.2-0.3c-0.9-1.2-1.9-2.4-3-3.5l-37.2-44.4l-30.8,54.4l9.4,14.4&#10;&#9;&#9;&#9;c0.3,13.9,8.8,25.7,21,30.8h26.2c12.3-5.1,21-17.3,21-31.5C951.7,253.1,949.3,246.2,945.3,240.6z" style="fill: rgb(255, 255, 255);"/>
	</g>
	<g>
		<path class="st3" d="M854.8,135.6c0-14.2-11.5-25.7-25.7-25.7c-7.4,0-14,3.1-18.7,8.1l0,0l0,0.1c-2.1,2.3-3.9,4.9-5.1,7.9&#10;&#9;&#9;&#9;L786,155.6l34.8,26.8l26.4-28.5c0.5-0.5,1-1,1.5-1.6l0.2-0.2l0,0C852.6,147.6,854.8,141.9,854.8,135.6z" style="fill: rgb(27, 45, 245);"/>
		<path d="M 757.5 199.60000610351562 L 784 222.1999969482422 L 804.5 200 L 773 175.6999969482422 Z" class="st3" style="fill: rgb(27, 45, 245);"/>
		<path d="M 776.5 170.3000030517578 L 808.9000244140625 195.3000030517578 L 816.4000244140625 187.10000610351562 L 782.5 161 Z" class="st3" style="fill: rgb(27, 45, 245);"/>
	</g>
	<g>
		<path class="st3" d="M989.6,342.8c0,6.9-5.6,12.6-12.6,12.6H865.7c-6.9,0-12.6-5.6-12.6-12.6v-5c0-6.9,5.6-12.6,12.6-12.6H977&#10;&#9;&#9;&#9;c6.9,0,12.6,5.6,12.6,12.6V342.8z" style="fill: rgb(27, 45, 245);"/>
		<path d="M 883.4000244140625 299.1000061035156 L 882.0999755859375 305.79998779296875 L 958.7999877929688 305.79998779296875 L 956.7000122070312 299.1000061035156 Z" class="st3" style="fill: rgb(27, 45, 245);"/>
		<path class="st3" d="M884.6,292.4h69.9l-7.2-22.9c0.8-2.7,1.2-5.6,1.2-8.6c0-17.1-13.9-31-31-31c-17.1,0-31,13.9-31,31&#10;&#9;&#9;&#9;c0,3.7,0.7,7.2,1.8,10.5L884.6,292.4z" style="fill: rgb(27, 45, 245);"/>
		<path d="M 880.9000244140625 312.3999938964844 L 879.5 319.8999938964844 L 963.2000122070312 319.8999938964844 L 960.9000244140625 312.3999938964844 Z" class="st3" style="fill: rgb(27, 45, 245);"/>
	</g>
	<path d="M 935.999975 260.5 A 18.4 18.4 0 0 1 917.599976 278.9 A 18.4 18.4 0 0 1 899.199976 260.5 A 18.4 18.4 0 0 1 917.599976 242.1 A 18.4 18.4 0 0 1 935.999975 260.5 Z" class="st1" style="fill: rgb(255, 255, 255);"/>
	<path class="st1" d="M790,210.9c0-1.1-0.1-2.1-0.3-3.1l0,0l0,0c-1.5-9.7-9.8-17.1-19.9-17.1c-11.2,0-20.2,9-20.2,20.2&#10;&#9;&#9;c0,0.8,0.1,1.6,0.1,2.3h0l0,0c0.3,2.3,0.9,4.4,1.9,6.4l6.6,22.4l27.8-3.3l2.4-20C789.4,216.3,790,213.7,790,210.9z" style="fill: rgb(255, 255, 255);"/>
	<path d="M 844.999988 134.199997 A 15.7 15.7 0 0 1 829.299988 149.899997 A 15.7 15.7 0 0 1 813.599988 134.199997 A 15.7 15.7 0 0 1 829.299988 118.499997 A 15.7 15.7 0 0 1 844.999988 134.199997 Z" class="st1" style="fill: rgb(255, 255, 255);"/>
	<path class="st1" d="M780.5,244.2c0.2,1.8-1.1,3.5-2.9,3.8l-8.6,1c-1.9,0.2-3.5-1.1-3.8-2.9l0,0c-0.2-1.9,1.1-3.5,2.9-3.8l8.6-1&#10;&#9;&#9;C778.6,241,780.2,242.3,780.5,244.2L780.5,244.2z" style="fill: rgb(255, 255, 255);"/>
	<path class="st1" d="M801.6,262.3c-0.4-1-0.7-2.1-1.1-3.2l-2-6.4l-0.5-1.5l-1.5-0.2l-13.9-1.9l-0.6-0.1l-0.6,0.2l-7.7,3l-8.2-0.8&#10;&#9;&#9;l-0.6-0.1l-0.6,0.2l-12.8,5.5l-1.4,0.6l-0.1,1.5l-0.2,6.7c-0.1,1.1,0,2.2-0.2,3.3c-0.1,0.6,0.1,1.1,0.2,1.7l0.3,1.7l0.2,1.1&#10;&#9;&#9;l0.3,0.2c1.1,1,2.3,1.9,3.4,2.8c1.1,0.9,2.4,1.8,3.5,2.8c-0.6-1.4-1.3-2.7-2-4c-0.5-1-1-2-1.6-3l0.3-1.4c0.1-0.6,0.3-1.1,0.3-1.7&#10;&#9;&#9;c-0.1-1.1,0-2.2,0.1-3.4l0.2-5.2l10.9-4.7l8.2,0.8l0.6,0.1l0.5-0.2l7.7-3l11.7,1.6l1.6,4.9c0.3,1.1,0.7,2.1,1,3.2&#10;&#9;&#9;c0.1,0.6,0.4,1,0.7,1.5l0.7,1.2c-0.6,2.5-1.1,5.1-1.5,7.7c1.8-2.4,3.6-4.8,5.3-7.2l0.2-0.3l-0.1-1.1l-0.2-1.7&#10;&#9;&#9;C801.9,263.4,801.8,262.8,801.6,262.3z" style="fill: rgb(255, 255, 255);"/>
	<path d="M 782.899988 210.199997 A 13.1 13.1 0 0 1 769.799988 223.299997 A 13.1 13.1 0 0 1 756.699987 210.199997 A 13.1 13.1 0 0 1 769.799988 197.099997 A 13.1 13.1 0 0 1 782.899988 210.199997 Z" class="st3" style="fill: rgb(113, 208, 246);"/>
</g>
<g>
	<path class="st1" d="M625.4,242.7L625.4,242.7l-0.2-0.3c-0.9-1.2-1.9-2.4-3-3.5l-93.1-111.1l-26.8,41.8l61.3,93.6&#10;&#9;&#9;c0.4,18.5,15.5,33.4,34.1,33.4c18.8,0,34.1-15.3,34.1-34.1C631.8,255.1,629.5,248.3,625.4,242.7z" style="fill: rgb(255, 255, 255);"/>
	<path class="st4" d="M669.7,342.8c0,6.9-5.6,12.6-12.6,12.6H545.8c-6.9,0-12.6-5.6-12.6-12.6v-5c0-6.9,5.6-12.6,12.6-12.6h111.3&#10;&#9;&#9;c6.9,0,12.6,5.6,12.6,12.6V342.8z" style="fill: rgb(161, 122, 182);"/>
	<path class="st4" d="M643.4,321.6l-15.9-50.4c0.8-2.7,1.2-5.6,1.2-8.6c0-17.1-13.9-31-31-31c-17.1,0-31,13.9-31,31&#10;&#9;&#9;c0,3.7,0.7,7.2,1.8,10.5l-9,48.6H643.4z" style="fill: rgb(161, 122, 182);"/>
	<g>
		<path class="st1" d="M609.2,248.1c-6.7-5.3-16.3-5.4-23.2,0.2c-6.8,5.6-8.6,15.1-4.6,22.7L609.2,248.1z" style="fill: rgb(255, 255, 255);"/>
		<path class="st1" d="M613.7,253.4l-28,23.1c6.7,5.8,16.7,6.1,23.8,0.3C616.5,270.9,618.1,261,613.7,253.4z" style="fill: rgb(255, 255, 255);"/>
	</g>
	<path class="st4" d="M528.9,154.2c3.8-4.5,6-10.2,6-16.6c0-14.2-11.5-25.7-25.7-25.7c-7.4,0-14,3.1-18.7,8.1l0,0l-0.1,0.1&#10;&#9;&#9;c-2.1,2.3-3.9,4.9-5.1,7.9l-47.8,73.8l26.4,22.6l63.2-68.3c0.5-0.5,1-1,1.5-1.6L528.9,154.2L528.9,154.2z" style="fill: rgb(161, 122, 182);"/>
	<path class="st1" d="M470.1,213c0-1.1-0.1-2.1-0.3-3.1l0,0l0,0c-1.5-9.7-9.8-17.1-19.9-17.1c-11.2,0-20.2,9-20.2,20.2&#10;&#9;&#9;c0,0.8,0.1,1.6,0.1,2.3h0l0,0c0.3,2.3,0.9,4.4,1.9,6.4l6.6,22.4l27.8-3.3l2.4-20C469.5,218.4,470.1,215.7,470.1,213z" style="fill: rgb(255, 255, 255);"/>
	<g>
		<path class="st1" d="M522.1,126.9c-4.7-6.4-13.6-8.3-20.6-4.2c-7,4.1-9.6,12.8-6.4,20L522.1,126.9z" style="fill: rgb(255, 255, 255);"/>
		<path class="st1" d="M497.4,146.3c4.8,5.8,13.3,7.5,20,3.5c6.7-4,9.4-12.1,6.7-19.2L497.4,146.3z" style="fill: rgb(255, 255, 255);"/>
	</g>
	<path class="st1" d="M460.6,246.2c0.2,1.8-1.1,3.5-2.9,3.8l-8.6,1c-1.8,0.2-3.5-1.1-3.8-3l0,0c-0.2-1.9,1.1-3.5,2.9-3.8l8.6-1&#10;&#9;&#9;C458.7,243.1,460.4,244.4,460.6,246.2L460.6,246.2z" style="fill: rgb(255, 255, 255);"/>
	<path class="st1" d="M481.7,264.4c-0.4-1-0.7-2.1-1.1-3.2l-2-6.4l-0.5-1.5l-1.5-0.2l-13.9-1.9l-0.6-0.1l-0.6,0.2l-7.7,3l-8.2-0.8&#10;&#9;&#9;l-0.6-0.1l-0.6,0.2l-12.8,5.5l-1.4,0.6l-0.1,1.5l-0.2,6.7c-0.1,1.1,0,2.2-0.2,3.3c-0.1,0.6,0.1,1.1,0.2,1.7l0.3,1.7l0.2,1.1&#10;&#9;&#9;l0.3,0.2c1.1,1,2.3,1.9,3.4,2.8c1.1,0.9,2.4,1.8,3.5,2.8c-0.6-1.4-1.3-2.7-2-4c-0.5-1-1-2-1.6-3l0.3-1.4c0.1-0.6,0.3-1.1,0.3-1.7&#10;&#9;&#9;c0-1.1,0-2.2,0.1-3.4l0.2-5.2l10.9-4.7l8.2,0.8l0.6,0.1l0.5-0.2l7.7-3l11.7,1.6l1.6,4.9c0.3,1.1,0.7,2.1,1,3.2&#10;&#9;&#9;c0.1,0.6,0.4,1,0.7,1.5l0.7,1.2c-0.6,2.5-1.1,5.1-1.5,7.7c1.9-2.4,3.6-4.8,5.3-7.2l0.2-0.3l-0.1-1.1L482,266&#10;&#9;&#9;C482,265.5,481.9,264.9,481.7,264.4z" style="fill: rgb(255, 255, 255);"/>
	<g>
		<path class="st4" d="M459.8,220.5c4-5.4,3.4-13.1-1.8-17.6c-5.1-4.5-12.8-4.3-17.7,0.4L459.8,220.5z" style="fill: rgb(161, 122, 182);"/>
		<path class="st4" d="M438,206.2c-3,5.3-2,12.1,2.7,16.3c4.7,4.2,11.7,4.3,16.5,0.7L438,206.2z" style="fill: rgb(161, 122, 182);"/>
	</g>
</g>
<g>
	<path class="st1" d="M305.6,242.7L305.6,242.7l-0.2-0.3c-0.9-1.2-1.9-2.4-2.9-3.5l-93.2-111.1l-26.8,41.8l61.3,93.6&#10;&#9;&#9;c0.4,18.5,15.5,33.4,34.1,33.4c18.8,0,34.1-15.3,34.1-34.1C312,255.1,309.6,248.3,305.6,242.7z" style="fill: rgb(255, 255, 255);"/>
	<path class="st5" d="M349.8,342.8c0,6.9-5.6,12.6-12.6,12.6H226c-6.9,0-12.6-5.6-12.6-12.6v-5c0-6.9,5.6-12.6,12.6-12.6h111.3&#10;&#9;&#9;c6.9,0,12.6,5.6,12.6,12.6V342.8z" style="fill: rgb(236, 141, 34);"/>
	<path class="st5" d="M323.5,321.6l-15.9-50.4c0.8-2.7,1.2-5.6,1.2-8.6c0-17.1-13.9-31-31-31c-17.1,0-31,13.9-31,31&#10;&#9;&#9;c0,3.7,0.7,7.2,1.8,10.5l-9,48.6H323.5z" style="fill: rgb(236, 141, 34);"/>
	<path class="st1" d="M140.7,246.2c0.2,1.8-1.1,3.5-2.9,3.8l-8.6,1c-1.9,0.2-3.5-1.1-3.8-3l0,0c-0.2-1.9,1.1-3.5,3-3.8l8.6-1&#10;&#9;&#9;C138.8,243.1,140.5,244.4,140.7,246.2L140.7,246.2z" style="fill: rgb(255, 255, 255);"/>
	<path class="st1" d="M161.8,264.4c-0.4-1-0.7-2.1-1.1-3.2l-2-6.4l-0.5-1.5l-1.5-0.2l-13.9-1.9l-0.6-0.1l-0.6,0.2l-7.7,3l-8.2-0.8&#10;&#9;&#9;l-0.6-0.1l-0.6,0.2l-12.8,5.5l-1.4,0.6l-0.1,1.5l-0.2,6.7c-0.1,1.1,0,2.2-0.2,3.3c-0.1,0.6,0.1,1.1,0.2,1.7l0.3,1.7l0.2,1.1&#10;&#9;&#9;l0.3,0.2c1.1,1,2.3,1.9,3.4,2.8c1.1,0.9,2.4,1.8,3.5,2.8c-0.6-1.4-1.3-2.7-2-4c-0.5-1-1-2-1.6-3l0.3-1.4c0.1-0.6,0.3-1.1,0.3-1.7&#10;&#9;&#9;c0-1.1,0-2.2,0.1-3.4l0.2-5.2l10.9-4.7l8.2,0.8l0.6,0.1l0.5-0.2l7.7-3l11.7,1.6l1.6,4.9c0.3,1.1,0.7,2.1,1,3.2&#10;&#9;&#9;c0.1,0.6,0.4,1,0.7,1.5l0.7,1.2c-0.6,2.5-1.1,5.1-1.5,7.7c1.9-2.4,3.6-4.8,5.3-7.2l0.2-0.3l-0.1-1.1l-0.2-1.7&#10;&#9;&#9;C162.1,265.5,162.1,264.9,161.8,264.4z" style="fill: rgb(255, 255, 255);"/>
	<path d="M 296.299994 262.5 A 18.4 18.4 0 0 1 277.899994 280.9 A 18.4 18.4 0 0 1 259.499994 262.5 A 18.4 18.4 0 0 1 277.899994 244.1 A 18.4 18.4 0 0 1 296.299994 262.5 Z" class="st6" style="fill: rgb(194, 219, 121);"/>
	<path class="st6" d="M250.2,230.7c1.3,1.8,1,4.3-0.8,5.7l0,0c-1.8,1.3-4.3,1-5.7-0.8l-50.3-66.8c-1.3-1.8-1-4.3,0.8-5.7l0,0&#10;&#9;&#9;c1.8-1.3,4.3-1,5.7,0.8L250.2,230.7z" style="fill: rgb(194, 219, 121);"/>
	<path class="st6" d="M269.3,219.7c1.4,1.7,1.1,4.3-0.6,5.7l0,0c-1.7,1.4-4.3,1.1-5.7-0.6l-56.5-70.6c-1.4-1.7-1.1-4.3,0.6-5.7l0,0&#10;&#9;&#9;c1.7-1.4,4.3-1.1,5.7,0.6L269.3,219.7z" style="fill: rgb(194, 219, 121);"/>
	<path class="st5" d="M209,154.2c3.8-4.5,6-10.2,6-16.6c0-14.2-11.5-25.7-25.7-25.7c-7.4,0-14,3.1-18.7,8.1l0,0l0,0.1&#10;&#9;&#9;c-2.1,2.3-3.9,4.9-5.1,7.9l-47.8,73.8l26.4,22.6l63.2-68.3c0.5-0.5,1-1,1.5-1.6L209,154.2L209,154.2z" style="fill: rgb(236, 141, 34);"/>
	<path class="st1" d="M150.2,213c0-1.1-0.1-2.1-0.3-3.1l0,0l0,0c-1.5-9.7-9.8-17.1-19.9-17.1c-11.2,0-20.2,9-20.2,20.2&#10;&#9;&#9;c0,0.8,0.1,1.6,0.1,2.3h0l0,0c0.3,2.3,0.9,4.4,1.9,6.4l6.6,22.4l27.8-3.3l2.4-20C149.7,218.4,150.2,215.7,150.2,213z" style="fill: rgb(255, 255, 255);"/>
	<path d="M 205.499997 136.199997 A 15.8 15.8 0 0 1 189.699997 151.999997 A 15.8 15.8 0 0 1 173.899997 136.199997 A 15.8 15.8 0 0 1 189.699997 120.399997 A 15.8 15.8 0 0 1 205.499997 136.199997 Z" class="st6" style="fill: rgb(194, 219, 121);"/>
	<path d="M 142.5 212.800003 A 13 13 0 0 1 129.5 225.800003 A 13 13 0 0 1 116.5 212.800003 A 13 13 0 0 1 129.5 199.800003 A 13 13 0 0 1 142.5 212.800003 Z" class="st6" style="fill: rgb(194, 219, 121);"/>
	<path class="st6" d="M147.4,184c-1.2,1.6-3.4,2-5,0.8l0,0c-1.6-1.2-2-3.4-0.8-5l23.3-31.2c1.2-1.6,3.4-1.9,5-0.8l0,0&#10;&#9;&#9;c1.6,1.2,2,3.4,0.8,5L147.4,184z" style="fill: rgb(194, 219, 121);"/>
	<path class="st6" d="M159.8,194.2c-1.2,1.6-3.4,2-5,0.8l0,0c-1.6-1.2-2-3.4-0.8-5l23.3-31.2c1.2-1.6,3.4-1.9,5-0.8l0,0&#10;&#9;&#9;c1.6,1.2,2,3.4,0.8,5L159.8,194.2z" style="fill: rgb(194, 219, 121);"/>
	<path class="st6" d="M264.8,321.7v-18.9c0-3.4-2.8-6.1-6.1-6.1c-3.4,0-6.1,2.7-6.1,6.1v18.9H264.8z" style="fill: rgb(194, 219, 121);"/>
	<path class="st6" d="M287,321.7v-18.9c0-3.4-2.8-6.1-6.1-6.1c-3.4,0-6.1,2.7-6.1,6.1v18.9H287z" style="fill: rgb(194, 219, 121);"/>
	<path class="st6" d="M309.2,321.7v-18.9c0-3.4-2.7-6.1-6.1-6.1c-3.4,0-6.1,2.7-6.1,6.1v18.9H309.2z" style="fill: rgb(194, 219, 121);"/>
</g>
<path class="st2" d="M669.8,662.1c0,6.9-5.6,12.6-12.6,12.6H545.9c-6.9,0-12.6-5.6-12.6-12.6v-5c0-6.9,5.6-12.6,12.6-12.6h111.3&#10;&#9;c6.9,0,12.6,5.6,12.6,12.6V662.1z" style="fill: rgb(170, 210, 97);"/>
<path class="st1" d="M470.1,532.3c0-1.1-0.1-2.1-0.3-3.1l0,0l0,0c-1.5-9.7-9.8-17.1-19.9-17.1c-11.2,0-20.2,9-20.2,20.2&#10;&#9;c0,0.8,0.1,1.6,0.1,2.3h0l0,0c0.3,2.3,0.9,4.4,1.9,6.4l6.6,22.4l27.8-3.3l2.4-20C469.6,537.7,470.1,535,470.1,532.3z" style="fill: rgb(255, 255, 255);"/>
<path class="st1" d="M460.6,565.5c0.2,1.8-1.1,3.5-2.9,3.8l-8.6,1c-1.9,0.2-3.5-1.1-3.8-2.9l0,0c-0.2-1.9,1.1-3.5,3-3.8l8.6-1&#10;&#9;C458.7,562.4,460.4,563.7,460.6,565.5L460.6,565.5z" style="fill: rgb(255, 255, 255);"/>
<path class="st1" d="M481.8,583.7c-0.4-1-0.7-2.1-1.1-3.2l-2-6.4l-0.5-1.5l-1.5-0.2l-13.9-1.9l-0.6-0.1l-0.6,0.2l-7.7,3l-8.2-0.8&#10;&#9;l-0.6-0.1l-0.6,0.2l-12.8,5.5l-1.4,0.6l-0.1,1.5l-0.2,6.7c-0.1,1.1,0,2.2-0.2,3.3c-0.1,0.6,0.1,1.1,0.2,1.7l0.3,1.7l0.2,1.1l0.3,0.2&#10;&#9;c1.1,1,2.3,1.9,3.4,2.8c1.1,0.9,2.4,1.8,3.5,2.8c-0.7-1.4-1.3-2.7-2-4c-0.5-1-1-2-1.6-3l0.3-1.4c0.1-0.6,0.3-1.1,0.3-1.7&#10;&#9;c0-1.1,0-2.2,0.1-3.4l0.2-5.2l10.9-4.7l8.2,0.8l0.6,0.1l0.5-0.2l7.7-3l11.7,1.6l1.6,4.9c0.3,1.1,0.7,2.1,1,3.2&#10;&#9;c0.1,0.6,0.4,1,0.7,1.5l0.7,1.2c-0.6,2.5-1.1,5.1-1.5,7.7c1.9-2.4,3.6-4.8,5.3-7.2l0.2-0.3l-0.1-1.1l-0.2-1.7&#10;&#9;C482,584.8,482,584.2,481.8,583.7z" style="fill: rgb(255, 255, 255);"/>
<path d="M 525.400006 455.5 A 15.8 15.8 0 0 1 509.600006 471.3 A 15.8 15.8 0 0 1 493.800006 455.5 A 15.8 15.8 0 0 1 509.600006 439.7 A 15.8 15.8 0 0 1 525.400006 455.5 Z" class="st0" style="fill: rgb(35, 31, 32);"/>
<path d="M 462.5 532.099976 A 13 13 0 0 1 449.5 545.099976 A 13 13 0 0 1 436.5 532.099976 A 13 13 0 0 1 449.5 519.099976 A 13 13 0 0 1 462.5 532.099976 Z" class="st0" style="fill: rgb(35, 31, 32);"/>
<path class="st1" d="M945.1,562L945.1,562l-0.2-0.3c-0.9-1.2-1.9-2.4-2.9-3.5l-93.2-111.1L822,488.9l61.3,93.6&#10;&#9;c0.4,18.5,15.5,33.4,34.1,33.4c18.8,0,34.1-15.3,34.1-34.1C951.5,574.4,949.1,567.6,945.1,562z" style="fill: rgb(255, 255, 255);"/>
<g>
	<path class="st0" d="M917.4,605.9c-13,0-23.8-10.6-24-23.6l-0.1-2.9l-63.1-96.1l20.1-18.7l84.3,100.5c0.7,0.7,1.4,1.6,2.1,2.5&#10;&#9;&#9;l0.2,0.3c2.9,4.1,4.5,8.9,4.5,13.9C941.4,595.1,930.7,605.9,917.4,605.9z M836.7,484.1l61.6,93.8l0.1,4.3&#10;&#9;&#9;c0.2,10.3,8.7,18.6,19,18.6c10.5,0,19-8.5,19-19c0-3.9-1.2-7.7-3.5-10.9l-0.2-0.3c-0.5-0.8-1.1-1.4-1.6-2l-0.3-0.3l-80.9-96.4&#10;&#9;&#9;L836.7,484.1z" style="fill: rgb(35, 31, 32);"/>
</g>
<path class="st7" d="M989.4,662.1c0,6.9-5.6,12.6-12.6,12.6H865.5c-6.9,0-12.6-5.6-12.6-12.6v-5c0-6.9,5.6-12.6,12.6-12.6h111.3&#10;&#9;c6.9,0,12.6,5.6,12.6,12.6V662.1z" style="fill: rgb(254, 228, 61);"/>
<path class="st7" d="M963,640.9l-15.9-50.4c0.8-2.7,1.2-5.6,1.2-8.6c0-17.1-13.9-31-31-31c-17.1,0-31,13.9-31,31&#10;&#9;c0,3.7,0.7,7.2,1.8,10.5l-9,48.6H963z" style="fill: rgb(254, 228, 61);"/>
<path class="st7" d="M848.6,473.5c3.8-4.5,6-10.2,6-16.6c0-14.2-11.5-25.7-25.7-25.7c-7.4,0-14,3.1-18.7,8.1l0,0l0,0.1&#10;&#9;c-2.1,2.3-3.9,4.9-5.1,7.8L757.3,521l26.4,22.6l63.2-68.3c0.5-0.5,1-1,1.5-1.6L848.6,473.5L848.6,473.5z" style="fill: rgb(254, 228, 61);"/>
<g>
	<path class="st0" d="M783,531.4l-14.2-12.1l44.1-68.1l0.2-0.7c0.8-1.9,1.9-3.6,3.4-5.2c3.3-3.5,7.6-5.3,12.3-5.3&#10;&#9;&#9;c9.3,0,16.9,7.6,16.9,16.9c0,4-1.3,7.7-3.9,10.8l-0.2,0.2c-0.3,0.3-0.6,0.7-1,1l-0.3,0.3L783,531.4z M772.2,518.8l10.7,9.1&#10;&#9;&#9;l56.1-60.7c0.3-0.3,0.6-0.6,0.9-0.9l0.2-0.2c2.1-2.6,3.3-5.7,3.3-9.1c0-8-6.5-14.4-14.4-14.4c-4,0-7.7,1.6-10.5,4.5&#10;&#9;&#9;c-1.3,1.3-2.2,2.8-2.9,4.4l-0.4,0.9L772.2,518.8z" style="fill: rgb(35, 31, 32);"/>
</g>
<path class="st1" d="M789.7,532.3c0-1.1-0.1-2.1-0.3-3.1l0,0l0,0c-1.5-9.7-9.8-17.1-19.9-17.1c-11.2,0-20.2,9-20.2,20.2&#10;&#9;c0,0.8,0.1,1.6,0.1,2.3h0l0,0c0.3,2.3,0.9,4.4,1.9,6.4l6.6,22.4l27.8-3.3l2.4-20C789.2,537.7,789.7,535,789.7,532.3z" style="fill: rgb(255, 255, 255);"/>
<path class="st1" d="M780.2,565.5c0.2,1.8-1.1,3.5-2.9,3.8l-8.6,1c-1.9,0.2-3.5-1.1-3.8-2.9l0,0c-0.2-1.9,1.1-3.5,3-3.8l8.6-1&#10;&#9;C778.3,562.4,780,563.7,780.2,565.5L780.2,565.5z" style="fill: rgb(255, 255, 255);"/>
<path class="st1" d="M801.4,583.7c-0.4-1-0.7-2.1-1.1-3.2l-2-6.4l-0.5-1.5l-1.5-0.2l-13.9-1.9l-0.6-0.1l-0.6,0.2l-7.7,3l-8.2-0.8&#10;&#9;l-0.6-0.1l-0.6,0.2l-12.8,5.5l-1.4,0.6l-0.1,1.5l-0.2,6.7c-0.1,1.1,0,2.2-0.2,3.3c-0.1,0.6,0.1,1.1,0.2,1.7l0.3,1.7l0.2,1.1l0.3,0.2&#10;&#9;c1.1,1,2.3,1.9,3.4,2.8c1.1,0.9,2.4,1.8,3.5,2.8c-0.6-1.4-1.3-2.7-2-4c-0.5-1-1-2-1.6-3l0.3-1.4c0.1-0.6,0.3-1.1,0.3-1.7&#10;&#9;c-0.1-1.1,0-2.2,0.1-3.4l0.2-5.2l10.9-4.7l8.2,0.8l0.6,0.1l0.5-0.2l7.7-3l11.7,1.6l1.6,4.9c0.3,1.1,0.7,2.1,1,3.2&#10;&#9;c0.1,0.6,0.4,1,0.7,1.5l0.7,1.2c-0.6,2.5-1.1,5.1-1.5,7.7c1.8-2.4,3.6-4.8,5.3-7.2l0.2-0.3l-0.1-1.1l-0.2-1.7&#10;&#9;C801.6,584.8,801.6,584.2,801.4,583.7z" style="fill: rgb(255, 255, 255);"/>
<path class="st3" d="M935.8,581.8c0,10.2-8.2,18.4-18.4,18.4c-10.2,0-18.4-8.2-18.4-18.4c0-10.2,8.2-18.4,18.4-18.4&#10;&#9;C927.5,563.4,935.8,571.7,935.8,581.8z" style="fill: rgb(113, 208, 246);"/>
<path d="M 847.200012 455.899994 A 17.5 17.5 0 0 1 829.700012 473.399994 A 17.5 17.5 0 0 1 812.200012 455.899994 A 17.5 17.5 0 0 1 829.700012 438.399994 A 17.5 17.5 0 0 1 847.200012 455.899994 Z" class="st3" style="fill: rgb(113, 208, 246);"/>
<path d="M 782.099976 532.099976 A 13 13 0 0 1 769.099976 545.099976 A 13 13 0 0 1 756.099976 532.099976 A 13 13 0 0 1 769.099976 519.099976 A 13 13 0 0 1 782.099976 532.099976 Z" class="st3" style="fill: rgb(113, 208, 246);"/>
<g>
	<path class="st1" d="M305.6,562L305.6,562l-0.2-0.3c-0.9-1.2-1.9-2.4-2.9-3.5l-93.2-111.1l-26.8,41.8l61.3,93.6&#10;&#9;&#9;c0.4,18.5,15.5,33.4,34.1,33.4c18.8,0,34.1-15.3,34.1-34.1C312,574.4,309.6,567.6,305.6,562z" style="fill: rgb(255, 255, 255);"/>
	<path class="st8" d="M209.1,473.5c3.8-4.5,6-10.2,6-16.6c0-14.2-11.5-25.7-25.7-25.7c-7.4,0-14,3.1-18.7,8.1l0,0l0,0.1&#10;&#9;&#9;c-2.1,2.3-3.9,4.9-5.1,7.8L117.8,521l26.4,22.6l63.2-68.3c0.5-0.5,1-1,1.5-1.6L209.1,473.5L209.1,473.5z" style="fill: rgb(238, 39, 36);"/>
	<path class="st1" d="M140.8,565.5c0.2,1.8-1.1,3.5-2.9,3.8l-8.6,1c-1.9,0.2-3.5-1.1-3.8-2.9l0,0c-0.2-1.9,1.1-3.5,3-3.8l8.6-1&#10;&#9;&#9;C138.9,562.4,140.5,563.7,140.8,565.5L140.8,565.5z" style="fill: rgb(255, 255, 255);"/>
	<path class="st1" d="M161.9,583.7c-0.4-1-0.7-2.1-1.1-3.2l-2-6.4l-0.5-1.5l-1.5-0.2l-13.9-1.9l-0.6-0.1l-0.6,0.2l-7.7,3l-8.2-0.8&#10;&#9;&#9;l-0.6-0.1l-0.6,0.2l-12.8,5.5l-1.4,0.6l-0.1,1.5l-0.2,6.7c-0.1,1.1,0,2.2-0.2,3.3c-0.1,0.6,0.1,1.1,0.2,1.7l0.3,1.7l0.2,1.1&#10;&#9;&#9;l0.3,0.2c1.1,1,2.3,1.9,3.4,2.8c1.1,0.9,2.4,1.8,3.5,2.8c-0.6-1.4-1.3-2.7-2-4c-0.5-1-1-2-1.6-3l0.3-1.4c0.1-0.6,0.3-1.1,0.3-1.7&#10;&#9;&#9;c-0.1-1.1,0-2.2,0.1-3.4l0.2-5.2l10.9-4.7l8.2,0.8l0.6,0.1l0.5-0.2l7.7-3l11.7,1.6l1.6,4.9c0.3,1.1,0.7,2.1,1,3.2&#10;&#9;&#9;c0.1,0.6,0.4,1,0.7,1.5l0.7,1.2c-0.6,2.5-1.1,5.1-1.5,7.7c1.8-2.4,3.6-4.8,5.3-7.2l0.2-0.3l-0.1-1.1l-0.2-1.7&#10;&#9;&#9;C162.1,584.8,162.1,584.2,161.9,583.7z" style="fill: rgb(255, 255, 255);"/>
	<path d="M 205.499997 455.5 A 15.8 15.8 0 0 1 189.699997 471.3 A 15.8 15.8 0 0 1 173.899997 455.5 A 15.8 15.8 0 0 1 189.699997 439.7 A 15.8 15.8 0 0 1 205.499997 455.5 Z" class="st1" style="fill: rgb(255, 255, 255);"/>
	<path d="M 129.60000610351562 514.7000122070312 L 169.6999969482422 452.29998779296875 L 177.3000030517578 471.29998779296875 L 142.60000610351562 519 Z" class="st9" style="fill: rgb(200, 34, 30);"/>
	<path class="st1" d="M150.3,532.3c0-1.1-0.1-2.1-0.3-3.1l0,0l0,0c-1.5-9.7-9.8-17.1-19.9-17.1c-11.2,0-20.2,9-20.2,20.2&#10;&#9;&#9;c0,0.8,0.1,1.6,0.1,2.3h0l0,0c0.3,2.3,0.9,4.4,1.9,6.4l6.6,22.4l27.8-3.3l2.4-20C149.7,537.7,150.3,535,150.3,532.3z" style="fill: rgb(255, 255, 255);"/>
	<path d="M 142.600006 532.099976 A 13 13 0 0 1 129.600006 545.099976 A 13 13 0 0 1 116.600006 532.099976 A 13 13 0 0 1 129.600006 519.099976 A 13 13 0 0 1 142.600006 532.099976 Z" class="st8" style="fill: rgb(238, 39, 36);"/>
	<path d="M 281.70001220703125 553.5999755859375 L 256.3999938964844 563.4000244140625 L 205.5 487.3999938964844 L 217.5 469.5 L 289.3999938964844 555.7000122070312 Z" class="st10" style="fill: rgb(213, 215, 216);"/>
	<path class="st8" d="M323.5,640.9l-15.9-50.4c0.8-2.7,1.2-5.6,1.2-8.6c0-17.1-13.9-31-31-31c-17.1,0-31,13.9-31,31&#10;&#9;&#9;c0,3.7,0.7,7.2,1.8,10.5l-9,48.6H323.5z" style="fill: rgb(238, 39, 36);"/>
	<path class="st1" d="M296.3,581.8c0,10.2-8.2,18.4-18.4,18.4c-10.2,0-18.4-8.2-18.4-18.4c0-10.2,8.2-18.4,18.4-18.4&#10;&#9;&#9;C288.1,563.4,296.3,571.7,296.3,581.8z" style="fill: rgb(255, 255, 255);"/>
	<path class="st9" d="M262.9,602.1c0,0,15,9.8,29.8,0.6l16,29.3h-55L262.9,602.1z" style="fill: rgb(200, 34, 30);"/>
	<path class="st8" d="M349.9,657.1c0-6.9-5.6-12.6-12.6-12.6H226c-6.9,0-12.6,5.6-12.6,12.6v2.5h136.4V657.1z" style="fill: rgb(238, 39, 36);"/>
	<path class="st9" d="M213.5,659.6v2.5c0,6.9,5.6,12.6,12.6,12.6h111.3c6.9,0,12.6-5.6,12.6-12.6v-2.5H213.5z" style="fill: rgb(200, 34, 30);"/>
</g>
<path class="st2" d="M643.4,640.9l-15.9-50.4c0.8-2.7,1.2-5.6,1.2-8.6c0-17.1-13.9-31-31-31c-17.1,0-31,13.9-31,31&#10;&#9;c0,3.7,0.7,7.2,1.8,10.5l-9,48.6H643.4z M617.4,616c5,0,9.1,4.1,9.1,9.1c0,5-4.1,9.1-9.1,9.1c-5,0-9.1-4.1-9.1-9.1&#10;&#9;C608.3,620,612.4,616,617.4,616z M580.6,616c5,0,9.1,4.1,9.1,9.1c0,5-4.1,9.1-9.1,9.1c-5,0-9.1-4.1-9.1-9.1&#10;&#9;C571.5,620,575.6,616,580.6,616z" style="fill: rgb(170, 210, 97);"/>
<path d="M 616.199987 581.799988 A 18.4 18.4 0 0 1 597.799988 600.199987 A 18.4 18.4 0 0 1 579.399988 581.799988 A 18.4 18.4 0 0 1 597.799988 563.399988 A 18.4 18.4 0 0 1 616.199987 581.799988 Z" class="st0" style="fill: rgb(35, 31, 32);"/>
</svg>