<?xml version="1.0" encoding="iso-8859-1"?>
<!-- Generator: Adobe Illustrator 21.0.0, SVG Export Plug-In . SVG Version: 6.00 Build 0)  -->
<svg version="1.1" id="Layer_1" xmlns="http://www.w3.org/2000/svg" xmlns:xlink="http://www.w3.org/1999/xlink" x="0px" y="0px"
	 viewBox="0 0 208 170" style="enable-background:new 0 0 208 170;" xml:space="preserve">
<linearGradient id="SVGID_1_" gradientUnits="userSpaceOnUse" x1="104" y1="-0.9595" x2="104" y2="179.3884">
	<stop  offset="0" style="stop-color:#3992CF"/>
	<stop  offset="0.1753" style="stop-color:#3A90BB"/>
	<stop  offset="0.5564" style="stop-color:#358D92"/>
	<stop  offset="1" style="stop-color:#2C8A5F"/>
</linearGradient>
<rect style="fill:url(#SVGID_1_);" width="208" height="170"/>
<linearGradient id="SVGID_2_" gradientUnits="userSpaceOnUse" x1="98.2211" y1="23.0715" x2="98.2211" y2="34.1673">
	<stop  offset="0" style="stop-color:#C7EAFB"/>
	<stop  offset="0.3601" style="stop-color:#B9E3E3"/>
	<stop  offset="1" style="stop-color:#9BD4B7"/>
</linearGradient>
<path style="fill:url(#SVGID_2_);" d="M106.296,34.065c0,0.576-0.467,1.044-1.044,1.044H91.19c-0.577,0-1.044-0.467-1.044-1.044
	v-8.84c0-0.576,0.467-1.044,1.044-1.044h14.063c0.577,0,1.044,0.467,1.044,1.044V34.065z"/>
<linearGradient id="SVGID_3_" gradientUnits="userSpaceOnUse" x1="103.9042" y1="22.6657" x2="103.9042" y2="45.1983">
	<stop  offset="0" style="stop-color:#5EC6F1"/>
	<stop  offset="0.2047" style="stop-color:#5EC0D9"/>
	<stop  offset="0.6454" style="stop-color:#57B4A7"/>
	<stop  offset="1" style="stop-color:#4EAA7E"/>
</linearGradient>
<path style="fill:url(#SVGID_3_);" d="M116.355,40.62c0,0.889-0.721,1.609-1.609,1.609H93.063c-0.889,0-1.609-0.721-1.609-1.609
	V26.991c0-0.889,0.721-1.609,1.609-1.609h21.682c0.889,0,1.609,0.72,1.609,1.609V40.62z"/>
<linearGradient id="SVGID_4_" gradientUnits="userSpaceOnUse" x1="130.3024" y1="6.0751" x2="130.3024" y2="17.171">
	<stop  offset="0" style="stop-color:#C7EAFB"/>
	<stop  offset="0.3601" style="stop-color:#B9E3E3"/>
	<stop  offset="1" style="stop-color:#9BD4B7"/>
</linearGradient>
<path style="fill:url(#SVGID_4_);" d="M138.378,17.069c0,0.576-0.467,1.044-1.044,1.044h-14.063c-0.577,0-1.044-0.467-1.044-1.044
	v-8.84c0-0.576,0.467-1.044,1.044-1.044h14.063c0.577,0,1.044,0.467,1.044,1.044V17.069z"/>
<linearGradient id="SVGID_5_" gradientUnits="userSpaceOnUse" x1="136.2872" y1="5.2312" x2="136.2872" y2="45.2238">
	<stop  offset="0" style="stop-color:#5EC6F1"/>
	<stop  offset="0.2047" style="stop-color:#5EC0D9"/>
	<stop  offset="0.6454" style="stop-color:#57B4A7"/>
	<stop  offset="1" style="stop-color:#4EAA7E"/>
</linearGradient>
<path style="fill:url(#SVGID_5_);" d="M148.738,24.148c0,0.889-0.72,1.609-1.609,1.609h-21.682c-0.889,0-1.609-0.721-1.609-1.609
	V10.519c0-0.889,0.72-1.609,1.609-1.609h21.682c0.889,0,1.609,0.72,1.609,1.609V24.148z"/>
<linearGradient id="SVGID_6_" gradientUnits="userSpaceOnUse" x1="62.5721" y1="73.5166" x2="62.5721" y2="62.9869">
	<stop  offset="0" style="stop-color:#C7EAFB"/>
	<stop  offset="0.3601" style="stop-color:#B9E3E3"/>
	<stop  offset="1" style="stop-color:#9BD4B7"/>
</linearGradient>
<path style="fill:url(#SVGID_6_);" d="M71.643,66.201c0,1.111-0.901,2.012-2.012,2.012H55.513c-1.111,0-2.012-0.901-2.012-2.012
	v-8.644c0-1.111,0.901-2.012,2.012-2.012h14.118c1.111,0,2.012,0.901,2.012,2.012V66.201z"/>
<linearGradient id="SVGID_7_" gradientUnits="userSpaceOnUse" x1="58.99" y1="46.1425" x2="58.99" y2="70.7964">
	<stop  offset="0" style="stop-color:#5EC6F1"/>
	<stop  offset="0.2047" style="stop-color:#5EC0D9"/>
	<stop  offset="0.6454" style="stop-color:#57B4A7"/>
	<stop  offset="1" style="stop-color:#4EAA7E"/>
</linearGradient>
<path style="fill:url(#SVGID_7_);" d="M71.095,65.536c0,1.111-0.901,2.012-2.012,2.012H48.897c-1.111,0-2.012-0.901-2.012-2.012
	V51.126c0-1.111,0.901-2.012,2.012-2.012h20.187c1.111,0,2.012,0.901,2.012,2.012V65.536z"/>
<g>
	<g>
		
			<linearGradient id="SVGID_8_" gradientUnits="userSpaceOnUse" x1="-312.4915" y1="-3.5916" x2="-312.4915" y2="31.9172" gradientTransform="matrix(0.2809 -0.9597 0.9597 0.2809 160.3276 -280.264)">
			<stop  offset="0" style="stop-color:#5EC6F1"/>
			<stop  offset="0.2047" style="stop-color:#5EC0D9"/>
			<stop  offset="0.6454" style="stop-color:#57B4A7"/>
			<stop  offset="1" style="stop-color:#4EAA7E"/>
		</linearGradient>
		<path style="fill:url(#SVGID_8_);" d="M80.712,20.6c-1.023,0.905-2.472,1.285-3.877,0.874c-1.405-0.411-2.421-1.513-2.795-2.826
			l-0.888-0.26c0.318,1.779,1.608,3.318,3.457,3.859c1.849,0.541,3.764-0.06,4.992-1.386L80.712,20.6z"/>
		
			<linearGradient id="SVGID_9_" gradientUnits="userSpaceOnUse" x1="-305.3961" y1="-3.5917" x2="-305.3961" y2="31.9165" gradientTransform="matrix(0.2809 -0.9597 0.9597 0.2809 160.3276 -280.264)">
			<stop  offset="0" style="stop-color:#5EC6F1"/>
			<stop  offset="0.2047" style="stop-color:#5EC0D9"/>
			<stop  offset="0.6454" style="stop-color:#57B4A7"/>
			<stop  offset="1" style="stop-color:#4EAA7E"/>
		</linearGradient>
		<path style="fill:url(#SVGID_9_);" d="M74.377,14.2l0.888,0.26c1.023-0.905,2.473-1.285,3.877-0.874
			c1.405,0.411,2.421,1.513,2.795,2.826l0.888,0.26c-0.318-1.779-1.608-3.318-3.457-3.859C77.52,12.273,75.604,12.874,74.377,14.2z"
			/>
	</g>
	<g>
		
			<linearGradient id="SVGID_10_" gradientUnits="userSpaceOnUse" x1="-307.0671" y1="-3.5915" x2="-307.0671" y2="31.9154" gradientTransform="matrix(0.2809 -0.9597 0.9597 0.2809 160.3276 -280.264)">
			<stop  offset="0" style="stop-color:#5EC6F1"/>
			<stop  offset="0.2047" style="stop-color:#5EC0D9"/>
			<stop  offset="0.6454" style="stop-color:#57B4A7"/>
			<stop  offset="1" style="stop-color:#4EAA7E"/>
		</linearGradient>
		<path style="fill:url(#SVGID_10_);" d="M71.723,18.597c-0.159-0.923-0.116-1.894,0.165-2.852c0.985-3.364,4.522-5.3,7.887-4.316
			c0.811,0.237,1.538,0.624,2.162,1.12l0.735-0.435c-0.753-0.653-1.653-1.16-2.67-1.457c-3.79-1.109-7.776,1.072-8.885,4.862
			c-0.346,1.183-0.372,2.386-0.128,3.514L71.723,18.597z"/>
		
			<linearGradient id="SVGID_11_" gradientUnits="userSpaceOnUse" x1="-311.5428" y1="-3.5908" x2="-311.5428" y2="31.9155" gradientTransform="matrix(0.2809 -0.9597 0.9597 0.2809 160.3276 -280.264)">
			<stop  offset="0" style="stop-color:#5EC6F1"/>
			<stop  offset="0.2047" style="stop-color:#5EC0D9"/>
			<stop  offset="0.6454" style="stop-color:#57B4A7"/>
			<stop  offset="1" style="stop-color:#4EAA7E"/>
		</linearGradient>
		<path style="fill:url(#SVGID_11_);" d="M84.323,18.068c-0.035,0.415-0.112,0.832-0.233,1.247c-0.985,3.364-4.522,5.3-7.886,4.316
			c-0.272-0.08-0.534-0.177-0.786-0.289l-0.829,0.491c0.434,0.234,0.897,0.427,1.389,0.571c3.79,1.109,7.775-1.072,8.885-4.862
			c0.191-0.653,0.283-1.313,0.287-1.962L84.323,18.068z"/>
	</g>
	<g>
		
			<linearGradient id="SVGID_12_" gradientUnits="userSpaceOnUse" x1="-312.0766" y1="-3.5916" x2="-312.0766" y2="31.918" gradientTransform="matrix(0.2809 -0.9597 0.9597 0.2809 160.3276 -280.264)">
			<stop  offset="0" style="stop-color:#5EC6F1"/>
			<stop  offset="0.2047" style="stop-color:#5EC0D9"/>
			<stop  offset="0.6454" style="stop-color:#57B4A7"/>
			<stop  offset="1" style="stop-color:#4EAA7E"/>
		</linearGradient>
		<path style="fill:url(#SVGID_12_);" d="M78.124,25.879c-0.819,0.014-1.653-0.094-2.48-0.336c-4.419-1.293-6.961-5.94-5.668-10.358
			c0.22-0.751,0.538-1.447,0.935-2.08l-0.444-0.787c-0.546,0.787-0.979,1.672-1.262,2.641c-1.418,4.844,1.37,9.939,6.215,11.356
			c1.052,0.308,2.115,0.417,3.15,0.35L78.124,25.879z"/>
		
			<linearGradient id="SVGID_13_" gradientUnits="userSpaceOnUse" x1="-305.5121" y1="-3.5924" x2="-305.5121" y2="31.9175" gradientTransform="matrix(0.2809 -0.9597 0.9597 0.2809 160.3276 -280.264)">
			<stop  offset="0" style="stop-color:#5EC6F1"/>
			<stop  offset="0.2047" style="stop-color:#5EC0D9"/>
			<stop  offset="0.6454" style="stop-color:#57B4A7"/>
			<stop  offset="1" style="stop-color:#4EAA7E"/>
		</linearGradient>
		<path style="fill:url(#SVGID_13_);" d="M78.499,9.198c0.61,0.037,1.224,0.14,1.835,0.319c4.418,1.293,6.961,5.939,5.668,10.358
			c-0.157,0.536-0.364,1.045-0.614,1.522l0.464,0.821c0.388-0.65,0.7-1.358,0.922-2.117c1.418-4.844-1.37-9.939-6.214-11.356
			c-0.841-0.246-1.689-0.363-2.524-0.367L78.499,9.198z"/>
	</g>
</g>
<g>
	<g>
		
			<linearGradient id="SVGID_14_" gradientUnits="userSpaceOnUse" x1="-509.603" y1="126.6903" x2="-509.603" y2="178.24" gradientTransform="matrix(0.9192 -0.3938 0.3938 0.9192 568.5989 -220.5048)">
			<stop  offset="0" style="stop-color:#5EC6F1"/>
			<stop  offset="0.2047" style="stop-color:#5EC0D9"/>
			<stop  offset="0.6454" style="stop-color:#57B4A7"/>
			<stop  offset="1" style="stop-color:#4EAA7E"/>
		</linearGradient>
		<path style="fill:url(#SVGID_14_);" d="M158.573,111.46c-1.958-0.311-3.722-1.583-4.559-3.537
			c-0.837-1.954-0.541-4.108,0.586-5.741l-0.529-1.235c-1.699,1.999-2.232,4.865-1.131,7.436c1.101,2.571,3.543,4.162,6.163,4.312
			L158.573,111.46z"/>
		
			<linearGradient id="SVGID_15_" gradientUnits="userSpaceOnUse" x1="-499.3026" y1="126.691" x2="-499.3026" y2="178.2382" gradientTransform="matrix(0.9192 -0.3938 0.3938 0.9192 568.5989 -220.5048)">
			<stop  offset="0" style="stop-color:#5EC6F1"/>
			<stop  offset="0.2047" style="stop-color:#5EC0D9"/>
			<stop  offset="0.6454" style="stop-color:#57B4A7"/>
			<stop  offset="1" style="stop-color:#4EAA7E"/>
		</linearGradient>
		<path style="fill:url(#SVGID_15_);" d="M159.892,98.454l0.529,1.235c1.959,0.311,3.723,1.583,4.56,3.537
			c0.837,1.954,0.541,4.109-0.586,5.741l0.529,1.235c1.699-1.999,2.232-4.865,1.131-7.436
			C164.953,100.195,162.511,98.603,159.892,98.454z"/>
	</g>
	<g>
		
			<linearGradient id="SVGID_16_" gradientUnits="userSpaceOnUse" x1="-501.7278" y1="126.6904" x2="-501.7278" y2="178.241" gradientTransform="matrix(0.9192 -0.3938 0.3938 0.9192 568.5989 -220.5048)">
			<stop  offset="0" style="stop-color:#5EC6F1"/>
			<stop  offset="0.2047" style="stop-color:#5EC0D9"/>
			<stop  offset="0.6454" style="stop-color:#57B4A7"/>
			<stop  offset="1" style="stop-color:#4EAA7E"/>
		</linearGradient>
		<path style="fill:url(#SVGID_16_);" d="M152.516,99.541c0.887-1.03,2.015-1.879,3.347-2.449
			c4.678-2.004,10.113,0.172,12.117,4.849c0.483,1.128,0.721,2.299,0.741,3.456l1.166,0.421c0.037-1.446-0.227-2.923-0.833-4.337
			c-2.258-5.27-8.381-7.721-13.651-5.464c-1.645,0.705-3.016,1.787-4.054,3.102L152.516,99.541z"/>
		
			<linearGradient id="SVGID_17_" gradientUnits="userSpaceOnUse" x1="-508.2262" y1="126.6901" x2="-508.2262" y2="178.2392" gradientTransform="matrix(0.9192 -0.3938 0.3938 0.9192 568.5989 -220.5048)">
			<stop  offset="0" style="stop-color:#5EC6F1"/>
			<stop  offset="0.2047" style="stop-color:#5EC0D9"/>
			<stop  offset="0.6454" style="stop-color:#57B4A7"/>
			<stop  offset="1" style="stop-color:#4EAA7E"/>
		</linearGradient>
		<path style="fill:url(#SVGID_17_);" d="M164.743,113.167c-0.497,0.344-1.035,0.643-1.612,0.89
			c-4.678,2.004-10.114-0.172-12.117-4.849c-0.162-0.378-0.294-0.762-0.402-1.147l-1.315-0.475c0.138,0.701,0.35,1.399,0.643,2.082
			c2.257,5.27,8.381,7.72,13.651,5.463c0.909-0.389,1.732-0.896,2.463-1.49L164.743,113.167z"/>
	</g>
	<g>
		
			<linearGradient id="SVGID_18_" gradientUnits="userSpaceOnUse" x1="-508.9999" y1="126.691" x2="-508.9999" y2="178.2371" gradientTransform="matrix(0.9192 -0.3938 0.3938 0.9192 568.5989 -220.5048)">
			<stop  offset="0" style="stop-color:#5EC6F1"/>
			<stop  offset="0.2047" style="stop-color:#5EC0D9"/>
			<stop  offset="0.6454" style="stop-color:#57B4A7"/>
			<stop  offset="1" style="stop-color:#4EAA7E"/>
		</linearGradient>
		<path style="fill:url(#SVGID_18_);" d="M150.269,113.435c-0.772-0.905-1.422-1.939-1.914-3.088
			c-2.632-6.144,0.225-13.283,6.369-15.915c1.044-0.447,2.118-0.732,3.193-0.874l0.471-1.224c-1.386,0.115-2.777,0.447-4.124,1.025
			c-6.736,2.885-9.869,10.713-6.983,17.449c0.626,1.462,1.486,2.754,2.516,3.852L150.269,113.435z"/>
		
			<linearGradient id="SVGID_19_" gradientUnits="userSpaceOnUse" x1="-499.4717" y1="126.6916" x2="-499.4717" y2="178.2381" gradientTransform="matrix(0.9192 -0.3938 0.3938 0.9192 568.5989 -220.5048)">
			<stop  offset="0" style="stop-color:#5EC6F1"/>
			<stop  offset="0.2047" style="stop-color:#5EC0D9"/>
			<stop  offset="0.6454" style="stop-color:#57B4A7"/>
			<stop  offset="1" style="stop-color:#4EAA7E"/>
		</linearGradient>
		<path style="fill:url(#SVGID_19_);" d="M169.303,98.452c0.521,0.717,0.973,1.501,1.336,2.35
			c2.632,6.144-0.225,13.283-6.369,15.914c-0.746,0.32-1.507,0.557-2.272,0.718l-0.492,1.278c1.086-0.166,2.168-0.47,3.224-0.922
			c6.736-2.886,9.869-10.713,6.984-17.448c-0.501-1.169-1.153-2.226-1.92-3.166L169.303,98.452z"/>
	</g>
</g>
<linearGradient id="SVGID_20_" gradientUnits="userSpaceOnUse" x1="98.553" y1="97.2892" x2="98.553" y2="117.797">
	<stop  offset="0" style="stop-color:#C7EAFB"/>
	<stop  offset="0.3601" style="stop-color:#B9E3E3"/>
	<stop  offset="1" style="stop-color:#9BD4B7"/>
</linearGradient>
<path style="fill:url(#SVGID_20_);" d="M109.285,97.583H87.821c-1.005,0-1.822,0.817-1.822,1.822v12.825
	c0,1.005,0.817,1.822,1.822,1.822h21.465c1.005,0,1.822-0.817,1.822-1.822V99.405C111.107,98.401,110.29,97.583,109.285,97.583z
	 M110.564,112.23c0,0.706-0.572,1.278-1.278,1.278H87.821c-0.706,0-1.278-0.572-1.278-1.278V99.405c0-0.706,0.572-1.278,1.278-1.278
	h21.465c0.706,0,1.278,0.572,1.278,1.278V112.23z"/>
<linearGradient id="SVGID_21_" gradientUnits="userSpaceOnUse" x1="84.1357" y1="106.5272" x2="84.1357" y2="127.035">
	<stop  offset="0" style="stop-color:#C7EAFB"/>
	<stop  offset="0.3601" style="stop-color:#B9E3E3"/>
	<stop  offset="1" style="stop-color:#9BD4B7"/>
</linearGradient>
<path style="fill:url(#SVGID_21_);" d="M94.868,106.821H73.403c-1.005,0-1.822,0.817-1.822,1.822v12.825
	c0,1.005,0.817,1.822,1.822,1.822h21.465c1.005,0,1.822-0.817,1.822-1.822v-12.825C96.69,107.639,95.873,106.821,94.868,106.821z
	 M96.146,121.468c0,0.706-0.572,1.278-1.278,1.278H73.403c-0.706,0-1.278-0.572-1.278-1.278v-12.825
	c0-0.706,0.572-1.278,1.278-1.278h21.465c0.706,0,1.278,0.572,1.278,1.278V121.468z"/>
<g>
	<linearGradient id="SVGID_22_" gradientUnits="userSpaceOnUse" x1="81.685" y1="49.3625" x2="155.3762" y2="49.3625">
		<stop  offset="0" style="stop-color:#130E10"/>
		<stop  offset="1" style="stop-color:#010101"/>
	</linearGradient>
	<path style="fill:url(#SVGID_22_);" d="M152.893,47.82c-7.586-12.682-20.042-18.65-32.112-18.65s-24.526,5.968-32.112,18.65
		c-5.23,8.742-6.199,21.089-6.199,21.089l1.346,0.646l1.508-1.224c0,0,0.831-9.216,5.835-18.566
		c6.808-12.723,18.457-17.242,29.622-17.242s22.814,4.519,29.622,17.242c5.004,9.35,5.835,18.566,5.835,18.566l1.508,1.224
		l1.346-0.646C159.092,68.909,158.122,56.562,152.893,47.82z"/>
	<linearGradient id="SVGID_23_" gradientUnits="userSpaceOnUse" x1="90.1752" y1="88.7329" x2="96.8391" y2="81.5137">
		<stop  offset="0" style="stop-color:#FBB46E"/>
		<stop  offset="0.2015" style="stop-color:#F0A86B"/>
		<stop  offset="0.5583" style="stop-color:#DB8D65"/>
		<stop  offset="1" style="stop-color:#C16A5C"/>
	</linearGradient>
	<path style="fill:url(#SVGID_23_);" d="M94.277,77.92l2.783,15.316c0,0-9.12-2.911-9.432-11.846
		C87.434,75.832,94.277,77.92,94.277,77.92z"/>
	
		<linearGradient id="SVGID_24_" gradientUnits="userSpaceOnUse" x1="526.2941" y1="88.7329" x2="532.9579" y2="81.5137" gradientTransform="matrix(-1 0 0 1 677.6797 0)">
		<stop  offset="0" style="stop-color:#FBB46E"/>
		<stop  offset="0.2015" style="stop-color:#F0A86B"/>
		<stop  offset="0.5583" style="stop-color:#DB8D65"/>
		<stop  offset="1" style="stop-color:#C16A5C"/>
	</linearGradient>
	<path style="fill:url(#SVGID_24_);" d="M147.284,77.92l-2.783,15.316c0,0,9.12-2.911,9.432-11.846
		C154.127,75.832,147.284,77.92,147.284,77.92z"/>
	<linearGradient id="SVGID_25_" gradientUnits="userSpaceOnUse" x1="120.3861" y1="119.3271" x2="120.3861" y2="141.5789">
		<stop  offset="0" style="stop-color:#FBB46E"/>
		<stop  offset="0.2015" style="stop-color:#F0A86B"/>
		<stop  offset="0.5583" style="stop-color:#DB8D65"/>
		<stop  offset="1" style="stop-color:#C16A5C"/>
	</linearGradient>
	<path style="fill:url(#SVGID_25_);" d="M149.547,130.19c0,0-9.991-7.745-10.288-9.317c-0.179-0.946-1.019-7.8-1.659-13.106
		l-17.213-6.343l-17.214,6.343c-0.641,5.307-1.481,12.16-1.659,13.106c-0.297,1.572-10.288,9.317-10.288,9.317
		s-2.029,17.577,29.161,17.577S149.547,130.19,149.547,130.19z"/>
	<linearGradient id="SVGID_26_" gradientUnits="userSpaceOnUse" x1="120.5961" y1="195.3124" x2="120.5961" y2="113.3451">
		<stop  offset="0" style="stop-color:#1F4426"/>
		<stop  offset="0.4365" style="stop-color:#1B3620"/>
		<stop  offset="1" style="stop-color:#0E1E11"/>
	</linearGradient>
	<path style="fill:url(#SVGID_26_);" d="M161.483,127.13c-9.589-1.643-19.312-5.264-19.312-5.264s-4.157,9.833-7.846,15.466
		c-3.688,5.633-13.939,9.79-13.939,9.79s-10.251-4.158-13.939-9.79c-3.688-5.633-7.846-15.466-7.846-15.466
		s-9.723,3.621-19.312,5.264c-9.589,1.643-15.717,4.157-15.717,4.157V170h56.814h57.234v-38.713
		C177.62,131.287,171.072,128.773,161.483,127.13z"/>
	<linearGradient id="SVGID_27_" gradientUnits="userSpaceOnUse" x1="80.3623" y1="120.0514" x2="81.7704" y2="129.8079">
		<stop  offset="0" style="stop-color:#73C4EE"/>
		<stop  offset="0.1041" style="stop-color:#65A0B5"/>
		<stop  offset="0.2679" style="stop-color:#4D7579"/>
		<stop  offset="0.4299" style="stop-color:#395551"/>
		<stop  offset="0.5867" style="stop-color:#294037"/>
		<stop  offset="0.737" style="stop-color:#1E3226"/>
		<stop  offset="0.8779" style="stop-color:#16291A"/>
		<stop  offset="1" style="stop-color:#132616"/>
	</linearGradient>
	<path style="fill:url(#SVGID_27_);" d="M83.156,127.474c8.71-1.683,13.995-4.205,16.166-5.411
		c-0.456-1.193-0.721-1.931-0.721-1.931s-9.723,3.621-19.312,5.264c-9.589,1.643-15.717,4.157-15.717,4.157v3.523
		C65.88,132.163,73.398,129.36,83.156,127.474z"/>
	<linearGradient id="SVGID_28_" gradientUnits="userSpaceOnUse" x1="159.7579" y1="119.7232" x2="159.5064" y2="130.8881">
		<stop  offset="0" style="stop-color:#73C4EE"/>
		<stop  offset="0.1041" style="stop-color:#65A0B5"/>
		<stop  offset="0.2679" style="stop-color:#4D7579"/>
		<stop  offset="0.4299" style="stop-color:#395551"/>
		<stop  offset="0.5867" style="stop-color:#294037"/>
		<stop  offset="0.737" style="stop-color:#1E3226"/>
		<stop  offset="0.8779" style="stop-color:#16291A"/>
		<stop  offset="1" style="stop-color:#132616"/>
	</linearGradient>
	<path style="fill:url(#SVGID_28_);" d="M142.171,120.132c0,0-0.227,0.631-0.621,1.67c1.811,1.061,7.222,3.855,16.625,5.673
		c9.571,1.85,16.987,4.582,19.446,5.547v-3.468c0,0-6.549-2.515-16.137-4.157C151.894,123.753,142.171,120.132,142.171,120.132z"/>
	<linearGradient id="SVGID_29_" gradientUnits="userSpaceOnUse" x1="140.2975" y1="138.667" x2="140.2975" y2="114.5997">
		<stop  offset="0" style="stop-color:#1F4426"/>
		<stop  offset="0.2885" style="stop-color:#1E3F23"/>
		<stop  offset="0.7979" style="stop-color:#182F1B"/>
		<stop  offset="1" style="stop-color:#142817"/>
	</linearGradient>
	<path style="fill:url(#SVGID_29_);" d="M138.581,115.748c0,0,0.338,5.525-0.333,9.136s-2.815,9.452-5.234,12.243
		c-5.231,6.035-12.628,9.995-12.628,9.995s5.892-0.939,12.43-4.057c1.811-2.464,2.448-5.465,2.448-5.465s6.353,0.838,13.167,2.146
		c4.428,0.85,11.778-1.341,11.778-1.341s-2.611-0.864-4.868-3.835c-2.257-2.971-6.264-10.984-8.476-13.331
		C144.652,118.891,138.581,115.748,138.581,115.748z"/>
	<linearGradient id="SVGID_30_" gradientUnits="userSpaceOnUse" x1="120.3861" y1="122.1499" x2="120.3861" y2="109.8574">
		<stop  offset="0" style="stop-color:#FBB46E"/>
		<stop  offset="0.1187" style="stop-color:#EBA16A"/>
		<stop  offset="0.3483" style="stop-color:#D78863"/>
		<stop  offset="0.5746" style="stop-color:#CB775F"/>
		<stop  offset="0.7944" style="stop-color:#C46D5D"/>
		<stop  offset="1" style="stop-color:#C16A5C"/>
	</linearGradient>
	<path style="fill:url(#SVGID_30_);" d="M137.14,103.939h-33.507c-0.127,1.063-0.286,2.389-0.46,3.828
		c2.656,3.215,9.728,14.176,17.214,14.176s14.557-10.961,17.213-14.176C137.426,106.328,137.267,105.002,137.14,103.939z"/>
	<linearGradient id="SVGID_31_" gradientUnits="userSpaceOnUse" x1="120.7804" y1="89.6579" x2="120.7804" y2="16.979">
		<stop  offset="0" style="stop-color:#FBB46E"/>
		<stop  offset="0.2015" style="stop-color:#F0A86B"/>
		<stop  offset="0.5583" style="stop-color:#DB8D65"/>
		<stop  offset="1" style="stop-color:#C16A5C"/>
	</linearGradient>
	<path style="fill:url(#SVGID_31_);" d="M149.145,71.298c0.003-5.633-0.699-11.495-2.464-15.49
		c-4.392-9.941-15.238-14.585-25.951-14.585s-21.458,4.644-25.85,14.585c-1.765,3.995-2.467,9.857-2.464,15.49
		c0.001,1.612,1.308,4.979,1.559,6.991c0.161,1.286,0.012,3.522,0.082,5.675c0.039,1.214,0.148,2.401,0.421,3.378
		c0.85,3.035,2.258,6.355,3.9,9.583c3.801,7.471,8.855,14.448,11.137,16.239c1.399,1.098,7.225,1.308,10.871,1.308
		c3.646,0,10.261-0.21,11.66-1.308c2.287-1.794,7.356-8.793,11.159-16.28c1.633-3.215,3.033-6.52,3.879-9.541
		c0.273-0.976,0.382-2.164,0.421-3.378c0.07-2.153-0.079-4.389,0.082-5.675C147.838,76.277,149.144,72.911,149.145,71.298z"/>
	<linearGradient id="SVGID_32_" gradientUnits="userSpaceOnUse" x1="120.5568" y1="97.9698" x2="120.5568" y2="92.6877">
		<stop  offset="0" style="stop-color:#FBB46E"/>
		<stop  offset="0.1187" style="stop-color:#EBA16A"/>
		<stop  offset="0.3483" style="stop-color:#D78863"/>
		<stop  offset="0.5746" style="stop-color:#CB775F"/>
		<stop  offset="0.7944" style="stop-color:#C46D5D"/>
		<stop  offset="1" style="stop-color:#C16A5C"/>
	</linearGradient>
	<path style="fill:url(#SVGID_32_);" d="M144.223,94.798l0.261-1.562h-24.098H96.63c0.537,1.229,1.126,2.465,1.749,3.689
		c3.487,0.18,12.011,0.605,13.425,0.526c1.785-0.101,1.575-0.889,8.583-0.889s6.797,0.788,8.583,0.889
		c1.541,0.087,11.529-0.426,14.235-0.568C143.556,96.19,143.896,95.495,144.223,94.798z"/>
	<g>
		<linearGradient id="SVGID_33_" gradientUnits="userSpaceOnUse" x1="118.2572" y1="93.4725" x2="118.2572" y2="79.6364">
			<stop  offset="0" style="stop-color:#FFEEDF"/>
			<stop  offset="0.1437" style="stop-color:#FFE9D4"/>
			<stop  offset="0.3982" style="stop-color:#FEDCBA"/>
			<stop  offset="0.7314" style="stop-color:#FDC790"/>
			<stop  offset="1" style="stop-color:#FBB46E"/>
		</linearGradient>
		<path style="fill:url(#SVGID_33_);" d="M121.648,92.257c0,0-3.759-1.396-4.137-2.829c-0.377-1.433,2.439-5.733,2.188-8.927
			c-0.251-3.194-1.836-4.401-1.836-4.401s0.214,2.273,0.025,4.577c-0.259,3.162-2.816,8.248-3.018,10.411
			C114.661,93.348,121.648,92.257,121.648,92.257z"/>
		<linearGradient id="SVGID_34_" gradientUnits="userSpaceOnUse" x1="120.3861" y1="94.0259" x2="120.3861" y2="90.252">
			<stop  offset="0" style="stop-color:#FBB46E"/>
			<stop  offset="0.2015" style="stop-color:#F0A86B"/>
			<stop  offset="0.5583" style="stop-color:#DB8D65"/>
			<stop  offset="1" style="stop-color:#C16A5C"/>
		</linearGradient>
		<path style="fill:url(#SVGID_34_);" d="M114.628,91.924c0,0,1.308-0.759,2.615-0.671c1.274,0.087,1.995,0.942,2.984,0.942
			c0.989,0,1.634-0.817,2.649-0.942c1.049-0.128,2.85,0.486,3.219,1.123c0.369,0.637-1.391,1.66-2.917,1.66
			c-1.525,0-2.339-0.358-2.883-0.358c-0.545,0-0.956,0.356-1.777,0.352C118.517,94.03,115.357,94.357,114.628,91.924z"/>
		<linearGradient id="SVGID_35_" gradientUnits="userSpaceOnUse" x1="116.3422" y1="73.2537" x2="116.3422" y2="95.0911">
			<stop  offset="0" style="stop-color:#FBB46E"/>
			<stop  offset="0.1625" style="stop-color:#E49968"/>
			<stop  offset="0.3582" style="stop-color:#D48462"/>
			<stop  offset="0.5601" style="stop-color:#C9755F"/>
			<stop  offset="0.7699" style="stop-color:#C36D5D"/>
			<stop  offset="1" style="stop-color:#C16A5C"/>
		</linearGradient>
		<path style="fill:url(#SVGID_35_);" d="M116.682,74.416c0,0,1.501,0.842,1.66,2.867c0.511,6.538-3.269,11.668-3.269,14.434
			c0,2.251,3.445,2.313,3.445,2.313c-0.595,0.251-4.35,0.226-4.35-2.188c0-3.445,3.722-6.877,3.42-14.61
			C117.526,75.671,116.682,74.416,116.682,74.416z"/>
		<path style="fill:#C16A5C;" d="M121.859,92.43c0,0,0.866-0.418,1.588-0.393c1.134,0.039,1.732,0.622,1.725,0.762
			c-0.007,0.14-0.273,0.583-1.207,0.389c-0.668-0.139-0.527-0.527-0.892-0.671C122.588,92.326,121.859,92.43,121.859,92.43z"/>
		<path style="fill:#C16A5C;" d="M119.048,92.43c0,0-0.866-0.418-1.588-0.393c-1.134,0.039-1.732,0.622-1.725,0.762
			c0.007,0.14,0.273,0.583,1.207,0.389c0.668-0.139,0.527-0.527,0.893-0.671C118.319,92.326,119.048,92.43,119.048,92.43z"/>
	</g>
	<g>
		<path style="fill:#692222;" d="M120.764,99.079c-2.308,0-10.277,0.831-10.277,0.831c0.526,0.813,1.436,1.864,2.806,3.048
			l7.471-0.025h7.505c1.366-1.176,2.296-2.219,2.829-3.027C131.097,99.906,123.071,99.079,120.764,99.079z"/>
		<linearGradient id="SVGID_36_" gradientUnits="userSpaceOnUse" x1="120.7803" y1="105.5327" x2="120.7803" y2="100.6027">
			<stop  offset="0" style="stop-color:#C65A59"/>
			<stop  offset="0.2972" style="stop-color:#BE5454"/>
			<stop  offset="0.7542" style="stop-color:#A94647"/>
			<stop  offset="1" style="stop-color:#9B3D3E"/>
		</linearGradient>
		<path style="fill:url(#SVGID_36_);" d="M128.268,102.933c-1.518-1.652-4.298-2.76-7.477-2.76c-3.195,0-5.986,1.119-7.499,2.785
			c0.295,0.255,0.611,0.516,0.95,0.783c1.794,1.412,4.456,1.594,6.521,1.594c2.065,0,4.727-0.183,6.521-1.594
			C127.635,103.466,127.962,103.196,128.268,102.933z"/>
		<linearGradient id="SVGID_37_" gradientUnits="userSpaceOnUse" x1="120.7804" y1="103.483" x2="120.7804" y2="96.8311">
			<stop  offset="0" style="stop-color:#FFFFFF"/>
			<stop  offset="0.1826" style="stop-color:#F8F6F6"/>
			<stop  offset="0.3777" style="stop-color:#E9E5E4"/>
			<stop  offset="0.5787" style="stop-color:#D4CCCB"/>
			<stop  offset="0.7838" style="stop-color:#B9AEAD"/>
			<stop  offset="0.9901" style="stop-color:#9B8C8C"/>
			<stop  offset="1" style="stop-color:#9A8A8A"/>
		</linearGradient>
		<path style="fill:url(#SVGID_37_);" d="M120.764,98.396c-2.308,0-10.507-0.645-10.803-0.076c-0.13,0.251,0.023,0.812,0.526,1.59
			c0,0,3.867,0.809,10.277,0.809c6.41,0,10.333-0.814,10.333-0.814c0.512-0.776,0.657-1.335,0.47-1.586
			C131.142,97.751,123.071,98.396,120.764,98.396z"/>
	</g>
	<linearGradient id="SVGID_38_" gradientUnits="userSpaceOnUse" x1="120.7617" y1="108.8817" x2="120.7617" y2="104.9822">
		<stop  offset="0" style="stop-color:#FBB46E"/>
		<stop  offset="0.2015" style="stop-color:#F0A86B"/>
		<stop  offset="0.5583" style="stop-color:#DB8D65"/>
		<stop  offset="1" style="stop-color:#C16A5C"/>
	</linearGradient>
	<path style="fill:url(#SVGID_38_);" d="M124.006,106.753c-0.604-0.251-1.938,0.134-3.244,0.134c-1.306,0-2.64-0.386-3.244-0.134
		c-0.604,0.251-3.024,2.615-0.828,1.693c2.121-0.891,4.072-0.637,4.072-0.637s1.95-0.253,4.072,0.637
		C127.029,109.368,124.609,107.004,124.006,106.753z"/>
	<linearGradient id="SVGID_39_" gradientUnits="userSpaceOnUse" x1="122.3555" y1="106.0552" x2="124.1492" y2="105.9546">
		<stop  offset="0" style="stop-color:#FFEEDF"/>
		<stop  offset="0.1437" style="stop-color:#FFE9D4"/>
		<stop  offset="0.3982" style="stop-color:#FEDCBA"/>
		<stop  offset="0.7314" style="stop-color:#FDC790"/>
		<stop  offset="1" style="stop-color:#FBB46E"/>
	</linearGradient>
	<path style="fill:url(#SVGID_39_);" d="M124.226,105.878c0.032,0.252-0.392,0.515-0.947,0.586
		c-0.556,0.071-1.032-0.076-1.064-0.328c-0.032-0.253,0.392-0.515,0.947-0.586C123.717,105.478,124.193,105.625,124.226,105.878z"/>
	<g>
		<linearGradient id="SVGID_40_" gradientUnits="userSpaceOnUse" x1="120.6807" y1="35.2722" x2="120.6807" y2="68.1341">
			<stop  offset="0" style="stop-color:#7D4030"/>
			<stop  offset="0.6337" style="stop-color:#562F25"/>
			<stop  offset="1" style="stop-color:#45271E"/>
		</linearGradient>
		<path style="fill:url(#SVGID_40_);" d="M147.284,47.208c0,0,1.267-5.364-0.604-10.662c-13.83,1.157-21.195,0.008-27.681-1.675
			c-2.929-0.76-9.736-0.8-13.726,1.642c-4.839,2.961-5.616,5.716-5.616,5.716s-3.018,1.559-4.476,3.42
			c-1.302,1.661-5.365,7.058-4.225,17.787s2.364,17.787,2.565,18.943c0.201,1.157,0.535,1.584,0.535,1.584s0.32-4.028,0.069-5.838
			c-0.19-1.37-0.459-2.73-0.369-3.709c0.134-1.458,2.095-2.464,2.095-2.464s0-3.017,1.006-5.432c0,0,6.262-4.459,10.868-5.163
			c4.606-0.704,8.428,1.006,13.055,1.006c4.627,0,7.652-1.811,13.055-1.006s10.867,5.163,10.867,5.163
			c1.006,2.414,1.006,5.432,1.006,5.432s2.418,1.484,2.347,2.464c-0.071,0.981-0.43,2.339-0.62,3.709
			c-0.251,1.811,0.069,5.838,0.069,5.838s0.334-0.428,0.535-1.584s2.564-14.919,2.565-18.943
			C150.606,50.98,147.284,47.208,147.284,47.208z"/>
		<linearGradient id="SVGID_41_" gradientUnits="userSpaceOnUse" x1="120.5924" y1="70.9724" x2="120.5924" y2="57.8801">
			<stop  offset="0" style="stop-color:#7D4030"/>
			<stop  offset="0.1001" style="stop-color:#743C2D"/>
			<stop  offset="0.7108" style="stop-color:#46251E"/>
			<stop  offset="1" style="stop-color:#351B15"/>
		</linearGradient>
		<path style="fill:url(#SVGID_41_);" d="M132.197,59.188c-3.777-0.657-7.896,0.493-11.811,0.493s-7.552-1.257-11.726-0.493
			c-2.918,0.535-5.62,2.985-6.984,4.413c1.922-1.004,4.13-1.95,6.05-2.244c4.606-0.704,8.428,1.006,13.055,1.006
			c4.627,0,7.652-1.811,13.055-1.006c1.973,0.294,3.953,1.062,5.674,1.919C138.171,61.867,135.682,59.795,132.197,59.188z"/>
		<linearGradient id="SVGID_42_" gradientUnits="userSpaceOnUse" x1="106.0928" y1="33.0058" x2="96.4368" y2="58.6882">
			<stop  offset="0" style="stop-color:#7D4030"/>
			<stop  offset="0.1001" style="stop-color:#743C2D"/>
			<stop  offset="0.7108" style="stop-color:#46251E"/>
			<stop  offset="1" style="stop-color:#351B15"/>
		</linearGradient>
		<path style="fill:url(#SVGID_42_);" d="M99.658,42.229c0,0-3.018,1.559-4.476,3.42c-1.302,1.661-5.365,7.058-4.225,17.787
			s2.364,17.787,2.565,18.943c0.201,1.157,0.535,1.584,0.535,1.584s0.32-4.028,0.069-5.838c-0.19-1.37-0.459-2.73-0.369-3.709
			c0.134-1.458,2.095-2.464,2.095-2.464s0-3.017,1.006-5.432c0,0,0.422-0.3,1.123-0.755c0,0-2.373-5.534-0.687-11.383
			c1.073-3.722,2.967-5.901,2.967-5.901s-2.446,1.225-4.174,4.862c-2.246,4.727-2.213,8.851-2.213,8.851s-1.458-6.37,1.257-13.126
			C97.178,43.977,99.658,42.229,99.658,42.229z"/>
		<linearGradient id="SVGID_43_" gradientUnits="userSpaceOnUse" x1="137.4523" y1="30.9203" x2="133.429" y2="58.4803">
			<stop  offset="0" style="stop-color:#7D4030"/>
			<stop  offset="0.1001" style="stop-color:#743C2D"/>
			<stop  offset="0.7108" style="stop-color:#46251E"/>
			<stop  offset="1" style="stop-color:#351B15"/>
		</linearGradient>
		<path style="fill:url(#SVGID_43_);" d="M117.964,39.514c5.683,2.062,10.003,1.043,14.836,2.431
			c7.183,2.062,12.003,7.418,12.003,7.418s3.554,7.234,2.28,14.073c-2.213-8.65-5.432-12.338-5.432-12.338
			c2.414,10.796,1.806,14.516,1.806,14.516c0.784,0.54,1.245,0.907,1.245,0.907c1.006,2.414,1.006,5.432,1.006,5.432
			s2.418,1.484,2.347,2.464c-0.071,0.981-0.43,2.339-0.62,3.709c-0.251,1.811,0.069,5.838,0.069,5.838s0.334-0.428,0.535-1.584
			s2.564-14.919,2.565-18.943c0.002-12.456-3.319-16.228-3.319-16.228s-4.577-4.577-13.076-6.412
			C127.388,39.323,125.684,40.796,117.964,39.514z"/>
		<linearGradient id="SVGID_44_" gradientUnits="userSpaceOnUse" x1="120.6967" y1="36.4792" x2="120.6967" y2="49.5874">
			<stop  offset="0" style="stop-color:#7D4030"/>
			<stop  offset="0.1001" style="stop-color:#743C2D"/>
			<stop  offset="0.7108" style="stop-color:#46251E"/>
			<stop  offset="1" style="stop-color:#351B15"/>
		</linearGradient>
		<path style="fill:url(#SVGID_44_);" d="M105.106,48.482c0,0,5.828-5.227,13.813-5.767c9.924-0.671,17.368,3.42,17.368,3.42
			s-9.488-2.213-16.999-1.811C111.949,44.718,105.106,48.482,105.106,48.482z"/>
		
			<linearGradient id="SVGID_45_" gradientUnits="userSpaceOnUse" x1="-177.271" y1="15.3295" x2="-177.271" y2="24.0693" gradientTransform="matrix(0.9782 -0.2075 0.2075 0.9782 280.2404 -18.1863)">
			<stop  offset="0" style="stop-color:#7D4030"/>
			<stop  offset="0.1001" style="stop-color:#743C2D"/>
			<stop  offset="0.7108" style="stop-color:#46251E"/>
			<stop  offset="1" style="stop-color:#351B15"/>
		</linearGradient>
		<path style="fill:url(#SVGID_45_);" d="M101.82,43.512c0,0,1.776-3.922,7.121-5.439c6.642-1.885,12.285-0.18,12.285-0.18
			s-6.759-0.129-11.802,1.219C105.29,40.218,101.82,43.512,101.82,43.512z"/>
		<linearGradient id="SVGID_46_" gradientUnits="userSpaceOnUse" x1="104.3098" y1="43.6376" x2="104.3098" y2="55.9923">
			<stop  offset="0" style="stop-color:#7D4030"/>
			<stop  offset="0.1001" style="stop-color:#743C2D"/>
			<stop  offset="0.7108" style="stop-color:#46251E"/>
			<stop  offset="1" style="stop-color:#351B15"/>
		</linearGradient>
		<path style="fill:url(#SVGID_46_);" d="M98.803,62.346c0,0,0.203-6.793,3.37-10.26c3.847-4.212,7.644-4.627,7.644-4.627
			s-3.772,1.961-6.488,5.683S98.803,62.346,98.803,62.346z"/>
		<linearGradient id="SVGID_47_" gradientUnits="userSpaceOnUse" x1="108.4086" y1="39.3125" x2="108.4086" y2="58.0265">
			<stop  offset="0" style="stop-color:#945D49"/>
			<stop  offset="0.2069" style="stop-color:#80503F"/>
			<stop  offset="0.745" style="stop-color:#543228"/>
			<stop  offset="1" style="stop-color:#45271E"/>
		</linearGradient>
		<path style="fill:url(#SVGID_47_);" d="M100.462,46.856c0,0,1.358-2.816,4.644-4.979c1.998-1.315,4.007-1.785,4.007-1.785
			s-2.284,1.214-3.621,2.313c-1.836,1.509-2.464,2.665-2.464,2.665s2.375-1.79,5.557-3.043c4.266-1.679,7.77-1.458,7.77-1.458
			s-4.543,0.838-8.298,2.64s-6.437,4.25-6.437,4.25s0.084-0.775,0.855-1.898C101.572,46,100.462,46.856,100.462,46.856z"/>
		<linearGradient id="SVGID_48_" gradientUnits="userSpaceOnUse" x1="123.6303" y1="43.3191" x2="123.6303" y2="60.5683">
			<stop  offset="0" style="stop-color:#945D49"/>
			<stop  offset="0.2069" style="stop-color:#80503F"/>
			<stop  offset="0.745" style="stop-color:#543228"/>
			<stop  offset="1" style="stop-color:#45271E"/>
		</linearGradient>
		<path style="fill:url(#SVGID_48_);" d="M107.118,50.796c0,0,6.303-3.99,14.819-4.56c8.516-0.57,18.206,3.655,18.206,3.655
			s-8.08-1.911-15.222-1.878c4.811,0.486,8.717,2.146,8.717,2.146s-6.169-1.241-10.427-0.922c3.822,0.503,5.968,1.559,5.968,1.559
			s-3.621-0.687-7.779-0.469c-4.157,0.218-12.573,2.749-12.573,2.749s4.778-2.464,10.26-3.42c-2.666-0.218-6.773,1.19-6.773,1.19
			s3.688-1.978,7.661-2.917C114.192,48.348,107.118,50.796,107.118,50.796z"/>
	</g>
	<g>
		
			<linearGradient id="SVGID_49_" gradientUnits="userSpaceOnUse" x1="-161.6892" y1="41.0379" x2="-160.3815" y2="41.0379" gradientTransform="matrix(1.0133 -0.2053 0.2066 1.0198 238.1564 11.8366)">
			<stop  offset="0" style="stop-color:#B61F24"/>
			<stop  offset="1" style="stop-color:#580E0E"/>
		</linearGradient>
		<path style="fill:url(#SVGID_49_);" d="M82.795,86.882c0.771,3.803,2.352,4.8,2.352,4.8l-1.027-5.068l-1.027-5.068
			C83.093,81.545,82.024,83.078,82.795,86.882z"/>
		
			<linearGradient id="SVGID_50_" gradientUnits="userSpaceOnUse" x1="-157.5007" y1="50.7521" x2="-157.5007" y2="40.7287" gradientTransform="matrix(1.0133 -0.2053 0.2066 1.0198 238.1564 11.8366)">
			<stop  offset="0" style="stop-color:#130E10"/>
			<stop  offset="1" style="stop-color:#010101"/>
		</linearGradient>
		<path style="fill:url(#SVGID_50_);" d="M82.757,80.848c0.426,2.103,1.176,5.804,1.176,5.804s0.75,3.701,1.176,5.804
			c0.361,1.781,5.414,2.795,6.748,3.038l0.307-0.142l-2.017-9.958l-2.018-9.958C88.128,75.434,82.331,78.745,82.757,80.848z"/>
		
			<linearGradient id="SVGID_51_" gradientUnits="userSpaceOnUse" x1="-157.9301" y1="23.5104" x2="-157.9301" y2="32.2485" gradientTransform="matrix(1.0133 -0.2053 0.2066 1.0198 238.1564 11.8366)">
			<stop  offset="0" style="stop-color:#302C2D"/>
			<stop  offset="1" style="stop-color:#130E10"/>
		</linearGradient>
		<path style="fill:url(#SVGID_51_);" d="M81.696,73.338c0,0,0.243-2.772,0.774-4.428l2.854-0.578l0.831,4.103l-2.149,1.681
			L81.696,73.338z"/>
		
			<linearGradient id="SVGID_52_" gradientUnits="userSpaceOnUse" x1="-157.795" y1="26.5112" x2="-157.795" y2="39.3079" gradientTransform="matrix(1.0133 -0.2053 0.2066 1.0198 238.1564 11.8366)">
			<stop  offset="0" style="stop-color:#302C2D"/>
			<stop  offset="1" style="stop-color:#130E10"/>
		</linearGradient>
		<path style="fill:url(#SVGID_52_);" d="M84.368,86.269c0,0-0.3-1.479-0.674-3.325c-0.452-2.231-1.726-2.934-1.726-2.934
			s-0.74-3.177-0.272-6.672c0,0,2.235-1.058,4.459-0.904c0,0,0.616,2.67,1.46,4.83c0.81,2.071,1.525,3.162,1.525,3.162l1.006,4.966
			c0,0-3.793,0.769-4.43,0.897C85.079,86.419,84.368,86.269,84.368,86.269z"/>
		
			<linearGradient id="SVGID_53_" gradientUnits="userSpaceOnUse" x1="-154.4853" y1="41.0373" x2="-149.7607" y2="41.0373" gradientTransform="matrix(1.0133 -0.2053 0.2066 1.0198 238.1564 11.8366)">
			<stop  offset="0" style="stop-color:#130E10"/>
			<stop  offset="1" style="stop-color:#010101"/>
		</linearGradient>
		<polygon style="fill:url(#SVGID_53_);" points="92.977,73.788 92.61,73.636 88.278,74.513 87.999,74.797 92.207,95.562 
			92.66,96.14 96.992,95.262 97.261,94.932 		"/>
		<path style="fill:#302C2D;" d="M87.708,75.016c-0.066-0.324,0.57-0.503,0.57-0.503L92.66,96.14c0,0-0.714-0.205-0.803-0.647
			C91.808,95.254,87.757,75.26,87.708,75.016z"/>
		
			<linearGradient id="SVGID_54_" gradientUnits="userSpaceOnUse" x1="-149.5227" y1="30.8364" x2="-149.5227" y2="52.4699" gradientTransform="matrix(1.0133 -0.2053 0.2066 1.0198 238.1564 11.8366)">
			<stop  offset="0" style="stop-color:#302C2D"/>
			<stop  offset="1" style="stop-color:#130E10"/>
		</linearGradient>
		<path style="fill:url(#SVGID_54_);" d="M92.61,73.636c0,0,0.652-0.096,0.721,0.241c0.056,0.276,4.175,20.605,4.244,20.947
			s-0.583,0.438-0.583,0.438L92.61,73.636z"/>
	</g>
	<g>
		
			<linearGradient id="SVGID_55_" gradientUnits="userSpaceOnUse" x1="234.9092" y1="120.8787" x2="236.2169" y2="120.8787" gradientTransform="matrix(-1.0133 -0.2053 -0.2066 1.0198 421.7726 11.8366)">
			<stop  offset="0" style="stop-color:#B61F24"/>
			<stop  offset="1" style="stop-color:#580E0E"/>
		</linearGradient>
		<path style="fill:url(#SVGID_55_);" d="M158.766,86.882c-0.77,3.803-2.352,4.8-2.352,4.8l1.027-5.068l1.027-5.068
			C158.468,81.545,159.536,83.078,158.766,86.882z"/>
		
			<linearGradient id="SVGID_56_" gradientUnits="userSpaceOnUse" x1="239.0976" y1="130.5929" x2="239.0976" y2="120.5695" gradientTransform="matrix(-1.0133 -0.2053 -0.2066 1.0198 421.7726 11.8366)">
			<stop  offset="0" style="stop-color:#130E10"/>
			<stop  offset="1" style="stop-color:#010101"/>
		</linearGradient>
		<path style="fill:url(#SVGID_56_);" d="M158.804,80.848c-0.426,2.103-1.176,5.804-1.176,5.804s-0.75,3.701-1.176,5.804
			c-0.361,1.781-5.414,2.795-6.748,3.038l-0.307-0.142l2.018-9.958l2.018-9.958C153.432,75.434,159.23,78.745,158.804,80.848z"/>
		
			<linearGradient id="SVGID_57_" gradientUnits="userSpaceOnUse" x1="238.6682" y1="103.3511" x2="238.6682" y2="112.0893" gradientTransform="matrix(-1.0133 -0.2053 -0.2066 1.0198 421.7726 11.8366)">
			<stop  offset="0" style="stop-color:#302C2D"/>
			<stop  offset="1" style="stop-color:#130E10"/>
		</linearGradient>
		<path style="fill:url(#SVGID_57_);" d="M159.865,73.338c0,0-0.243-2.772-0.774-4.428l-2.854-0.578l-0.831,4.103l2.149,1.681
			L159.865,73.338z"/>
		
			<linearGradient id="SVGID_58_" gradientUnits="userSpaceOnUse" x1="238.8033" y1="106.352" x2="238.8033" y2="119.1486" gradientTransform="matrix(-1.0133 -0.2053 -0.2066 1.0198 421.7726 11.8366)">
			<stop  offset="0" style="stop-color:#302C2D"/>
			<stop  offset="1" style="stop-color:#130E10"/>
		</linearGradient>
		<path style="fill:url(#SVGID_58_);" d="M157.193,86.269c0,0,0.3-1.479,0.674-3.325c0.452-2.231,1.726-2.934,1.726-2.934
			s0.74-3.177,0.273-6.672c0,0-2.235-1.058-4.459-0.904c0,0-0.616,2.67-1.46,4.83c-0.809,2.071-1.525,3.162-1.525,3.162
			l-1.006,4.966c0,0,3.793,0.769,4.43,0.897C156.482,86.419,157.193,86.269,157.193,86.269z"/>
		
			<linearGradient id="SVGID_59_" gradientUnits="userSpaceOnUse" x1="242.113" y1="120.8781" x2="246.8375" y2="120.8781" gradientTransform="matrix(-1.0133 -0.2053 -0.2066 1.0198 421.7726 11.8366)">
			<stop  offset="0" style="stop-color:#130E10"/>
			<stop  offset="1" style="stop-color:#010101"/>
		</linearGradient>
		<polygon style="fill:url(#SVGID_59_);" points="148.584,73.788 148.951,73.636 153.283,74.513 153.562,74.797 149.354,95.562 
			148.901,96.14 144.569,95.262 144.3,94.932 		"/>
		<path style="fill:#302C2D;" d="M153.853,75.016c0.066-0.324-0.57-0.503-0.57-0.503l-4.382,21.626c0,0,0.714-0.205,0.803-0.647
			C149.753,95.254,153.804,75.26,153.853,75.016z"/>
		
			<linearGradient id="SVGID_60_" gradientUnits="userSpaceOnUse" x1="247.0756" y1="110.6771" x2="247.0756" y2="132.3107" gradientTransform="matrix(-1.0133 -0.2053 -0.2066 1.0198 421.7726 11.8366)">
			<stop  offset="0" style="stop-color:#302C2D"/>
			<stop  offset="1" style="stop-color:#130E10"/>
		</linearGradient>
		<path style="fill:url(#SVGID_60_);" d="M148.951,73.636c0,0-0.652-0.096-0.721,0.241c-0.056,0.276-4.175,20.605-4.244,20.947
			c-0.069,0.342,0.583,0.438,0.583,0.438L148.951,73.636z"/>
	</g>
	<g>
		<linearGradient id="SVGID_61_" gradientUnits="userSpaceOnUse" x1="120.3861" y1="67.0711" x2="120.3861" y2="97.5776">
			<stop  offset="0" style="stop-color:#FFFEF1"/>
			<stop  offset="0.1455" style="stop-color:#F5F2E6"/>
			<stop  offset="0.37" style="stop-color:#DFDCCE"/>
			<stop  offset="0.6454" style="stop-color:#C1BEAB"/>
			<stop  offset="0.9584" style="stop-color:#9B9A82"/>
			<stop  offset="1" style="stop-color:#96957D"/>
		</linearGradient>
		<path style="fill:url(#SVGID_61_);" d="M145.802,66.725c-1.855-0.573-15.705-1.344-25.416-1.344
			c-9.711,0-23.561,0.771-25.416,1.344c-1.855,0.573-3.745,1.875-3.745,3.953s1.19,18.172,1.658,20.706
			c0.292,1.582,1.291,3.967,4.696,4.109c3.405,0.142,12.825,0.559,13.556,0.581c0,0,2.956-2.341,3.695-2.373
			c0.739-0.032,5.555,0.183,5.555,0.183s4.816-0.215,5.555-0.183c0.739,0.032,3.695,2.373,3.695,2.373
			c0.731-0.022,10.151-0.439,13.556-0.581c3.405-0.142,4.404-2.526,4.696-4.109c0.468-2.534,1.658-18.627,1.658-20.706
			S147.657,67.298,145.802,66.725z"/>
		<linearGradient id="SVGID_62_" gradientUnits="userSpaceOnUse" x1="146.9505" y1="90.4775" x2="141.5944" y2="94.0734">
			<stop  offset="0" style="stop-color:#B7B5A0"/>
			<stop  offset="0.0101" style="stop-color:#B7B7A2"/>
			<stop  offset="0.2005" style="stop-color:#C1D0CE"/>
			<stop  offset="0.3446" style="stop-color:#C6E1EB"/>
			<stop  offset="0.4247" style="stop-color:#C8EBFB"/>
			<stop  offset="0.7834" style="stop-color:#AFB8AD"/>
			<stop  offset="1" style="stop-color:#A1A18A"/>
		</linearGradient>
		<path style="fill:url(#SVGID_62_);" d="M144.559,88.577l-3.227,2.922l0.422,4.055c0.547-0.023,1.035-0.044,1.438-0.061
			c3.405-0.142,4.404-2.526,4.696-4.109L144.559,88.577z"/>
		<linearGradient id="SVGID_63_" gradientUnits="userSpaceOnUse" x1="93.8671" y1="90.3225" x2="99.3659" y2="94.6478">
			<stop  offset="0" style="stop-color:#B7B5A0"/>
			<stop  offset="0.0101" style="stop-color:#B7B7A2"/>
			<stop  offset="0.2005" style="stop-color:#C1D0CE"/>
			<stop  offset="0.3446" style="stop-color:#C6E1EB"/>
			<stop  offset="0.4247" style="stop-color:#C8EBFB"/>
			<stop  offset="0.7834" style="stop-color:#AFB8AD"/>
			<stop  offset="1" style="stop-color:#A1A18A"/>
		</linearGradient>
		<path style="fill:url(#SVGID_63_);" d="M92.884,91.384c0.292,1.582,1.291,3.967,4.696,4.109c0.403,0.017,0.891,0.038,1.438,0.061
			l0.422-4.055l-3.227-2.922L92.884,91.384z"/>
		<linearGradient id="SVGID_64_" gradientUnits="userSpaceOnUse" x1="120.3861" y1="95.5892" x2="120.3861" y2="90.996">
			<stop  offset="0" style="stop-color:#96957D"/>
			<stop  offset="0.0507" style="stop-color:#8E8D77"/>
			<stop  offset="0.2175" style="stop-color:#7C7B67"/>
			<stop  offset="0.4061" style="stop-color:#706F5D"/>
			<stop  offset="0.6328" style="stop-color:#696857"/>
			<stop  offset="1" style="stop-color:#676655"/>
		</linearGradient>
		<path style="fill:url(#SVGID_64_);" d="M128.491,91.236h-8.105h-8.105l-1.145,4.838c0.731,0.022,2.956-1.591,3.695-1.623
			c0.739-0.032,3.149,0.182,5.555,0.182s4.816-0.215,5.555-0.182c0.739,0.032,2.964,1.645,3.695,1.623L128.491,91.236z"/>
		<linearGradient id="SVGID_65_" gradientUnits="userSpaceOnUse" x1="120.3861" y1="67.3252" x2="120.3861" y2="90.26">
			<stop  offset="0" style="stop-color:#535650"/>
			<stop  offset="1" style="stop-color:#130E10"/>
		</linearGradient>
		<path style="fill:url(#SVGID_65_);" d="M144.311,68.561c-1.746-0.491-23.925-1.151-23.925-1.151s-22.179,0.66-23.925,1.151
			c-1.746,0.491-3.525,1.605-3.525,3.386c0,1.78,1.12,15.564,1.561,17.734c0.275,1.355,1.215,3.397,4.42,3.519
			c3.205,0.121,12.073,0.479,12.761,0.498c0.688,0.019,2.782-1.363,3.478-1.39c0.696-0.028,5.229,0.156,5.229,0.156
			s4.533-0.184,5.229-0.156c0.696,0.028,2.79,1.409,3.478,1.39c0.688-0.019,9.555-0.376,12.761-0.498
			c3.205-0.122,4.145-2.164,4.42-3.519c0.441-2.17,1.561-15.953,1.561-17.734C147.836,70.166,146.057,69.051,144.311,68.561z"/>
		<linearGradient id="SVGID_66_" gradientUnits="userSpaceOnUse" x1="120.3861" y1="68.411" x2="120.3861" y2="95.3785">
			<stop  offset="0" style="stop-color:#130E10"/>
			<stop  offset="1" style="stop-color:#010101"/>
		</linearGradient>
		<path style="fill:url(#SVGID_66_);" d="M144.53,68.105c-1.762-0.507-17.648-1.188-24.144-1.188s-22.382,0.682-24.144,1.188
			c-1.762,0.506-3.557,1.657-3.557,3.495c0,1.837,1.131,16.064,1.575,18.304c0.278,1.399,1.226,3.507,4.461,3.632
			c3.235,0.126,12.183,0.494,12.878,0.514c0.695,0.02,2.808-1.406,3.51-1.435c0.702-0.028,2.922,0.161,5.277,0.161
			s4.575-0.19,5.277-0.161c0.702,0.028,2.816,1.455,3.51,1.435c0.695-0.02,9.643-0.388,12.878-0.514
			c3.235-0.125,4.183-2.233,4.461-3.632c0.445-2.24,1.575-16.466,1.575-18.304C148.087,69.762,146.292,68.611,144.53,68.105z
			 M145.869,88.95c-0.271,1.28-1.196,3.208-4.351,3.323c-3.155,0.115-11.883,0.452-12.561,0.47
			c-0.677,0.018-2.739-1.287-3.423-1.313c-0.685-0.026-2.751,0.148-5.147,0.148c-2.397,0-4.462-0.174-5.147-0.148
			c-0.685,0.026-2.746,1.331-3.424,1.313c-0.678-0.018-9.406-0.355-12.561-0.47c-3.155-0.115-4.08-2.043-4.351-3.323
			c-0.434-2.049-1.537-15.063-1.537-16.744c0-1.681,1.751-2.734,3.47-3.197c1.718-0.463,17.473-1.087,23.55-1.087
			s21.831,0.624,23.55,1.087c1.719,0.463,3.47,1.516,3.47,3.197C147.406,73.887,146.303,86.901,145.869,88.95z"/>
	</g>
	<linearGradient id="SVGID_67_" gradientUnits="userSpaceOnUse" x1="120.3862" y1="66.3863" x2="120.3862" y2="84.6485">
		<stop  offset="0" style="stop-color:#94DAF8"/>
		<stop  offset="0.1325" style="stop-color:#769CAC"/>
		<stop  offset="0.2911" style="stop-color:#576A72"/>
		<stop  offset="0.448" style="stop-color:#3F484C"/>
		<stop  offset="0.5999" style="stop-color:#2E3032"/>
		<stop  offset="0.7454" style="stop-color:#201F21"/>
		<stop  offset="0.8818" style="stop-color:#171315"/>
		<stop  offset="1" style="stop-color:#130E10"/>
	</linearGradient>
	<path style="fill:url(#SVGID_67_);" d="M143.076,69.362c-2.137-0.478-15.088-1.031-22.69-1.031s-20.552,0.553-22.69,1.031
		c-2.137,0.478-3.797,1.936-3.722,3.847s0.277,4.638,0.277,4.638s0.551-3.436,0.843-4.903c0.293-1.467,1.118-2.174,3.607-2.4
		c2.489-0.226,14.249-1.232,21.684-1.232s19.195,1.006,21.684,1.232c2.489,0.226,3.315,0.933,3.607,2.4
		c0.293,1.467,0.844,4.903,0.844,4.903s0.201-2.727,0.277-4.638S145.213,69.84,143.076,69.362z"/>
	<linearGradient id="SVGID_68_" gradientUnits="userSpaceOnUse" x1="100.4747" y1="138.667" x2="100.4747" y2="114.5997">
		<stop  offset="0" style="stop-color:#1F4426"/>
		<stop  offset="0.2885" style="stop-color:#1E3F23"/>
		<stop  offset="0.7979" style="stop-color:#182F1B"/>
		<stop  offset="1" style="stop-color:#142817"/>
	</linearGradient>
	<path style="fill:url(#SVGID_68_);" d="M102.191,115.748c0,0-0.338,5.525,0.333,9.136s2.815,9.452,5.234,12.243
		c5.231,6.035,12.628,9.995,12.628,9.995s-5.892-0.939-12.43-4.057c-1.811-2.464-2.448-5.465-2.448-5.465s-6.353,0.838-13.167,2.146
		c-4.429,0.85-11.778-1.341-11.778-1.341s2.612-0.864,4.868-3.835c2.257-2.971,6.263-10.984,8.476-13.331
		C96.121,118.891,102.191,115.748,102.191,115.748z"/>
	<g>
		<g>
			<linearGradient id="SVGID_69_" gradientUnits="userSpaceOnUse" x1="120.5962" y1="144.8951" x2="120.5962" y2="139.0245">
				<stop  offset="0" style="stop-color:#302C2D"/>
				<stop  offset="1" style="stop-color:#130E10"/>
			</linearGradient>
			<polygon style="fill:url(#SVGID_69_);" points="120.386,140.939 101.981,140.939 101.981,144.057 103.423,145.465 
				120.386,145.465 137.77,145.465 139.211,144.057 139.211,140.939 			"/>
			<linearGradient id="SVGID_70_" gradientUnits="userSpaceOnUse" x1="120.2734" y1="142.2257" x2="120.982" y2="155.4915">
				<stop  offset="0" style="stop-color:#130E10"/>
				<stop  offset="1" style="stop-color:#010101"/>
			</linearGradient>
			<path style="fill:url(#SVGID_70_);" d="M120.386,144.057H93.465v8.423c0,0,2.079,2.75,7.712,2.75c5.633,0,7.711-2.75,7.711-2.75
				h11.498h11.918c0,0,2.079,2.75,7.711,2.75s7.712-2.75,7.712-2.75v-8.423H120.386z"/>
			<linearGradient id="SVGID_71_" gradientUnits="userSpaceOnUse" x1="120.3565" y1="148.4341" x2="120.4109" y2="149.4521">
				<stop  offset="0" style="stop-color:#B61F24"/>
				<stop  offset="1" style="stop-color:#580E0E"/>
			</linearGradient>
			<path style="fill:url(#SVGID_71_);" d="M121.363,149.27c0,0.111-0.09,0.201-0.201,0.201h-1.552c-0.111,0-0.201-0.09-0.201-0.201
				v-0.564c0-0.111,0.09-0.201,0.201-0.201h1.552c0.111,0,0.201,0.09,0.201,0.201V149.27z"/>
			<path style="fill:#F2696A;" d="M121.125,148.547c-0.085,0-0.738,0-0.738,0s-0.654,0-0.738,0c-0.085,0-0.179,0.035-0.179,0.151
				h0.918h0.918C121.304,148.581,121.209,148.547,121.125,148.547z"/>
			<linearGradient id="SVGID_72_" gradientUnits="userSpaceOnUse" x1="175.7513" y1="147.1283" x2="165.0894" y2="167.245">
				<stop  offset="0" style="stop-color:#FBB46E"/>
				<stop  offset="0.2015" style="stop-color:#F0A86B"/>
				<stop  offset="0.5583" style="stop-color:#DB8D65"/>
				<stop  offset="1" style="stop-color:#C16A5C"/>
			</linearGradient>
			<polygon style="fill:url(#SVGID_72_);" points="161.67,147.441 177.62,164.073 177.62,170 157.417,170 152.993,163.67 			"/>
			<g>
				<linearGradient id="SVGID_73_" gradientUnits="userSpaceOnUse" x1="146.1892" y1="137.7213" x2="142.0652" y2="158.3412">
					<stop  offset="0" style="stop-color:#FBB46E"/>
					<stop  offset="0.2015" style="stop-color:#F0A86B"/>
					<stop  offset="0.5583" style="stop-color:#DB8D65"/>
					<stop  offset="1" style="stop-color:#C16A5C"/>
				</linearGradient>
				<path style="fill:url(#SVGID_73_);" d="M128.096,132.728c3.168,0.654,7.893,0.708,9.891,1.153
					c3.236,0.721,7.865,1.062,9.075,1.565c1.211,0.503,8.863,3.682,8.863,3.682l5.745,8.313c0,0,1.882,5.115,1.128,9.993
					s-3.42,6.639-3.42,6.639l-6.337,1.66l-0.536-23.051l-11.483-0.126l-4.753-4.082c0,0-3.286,0.226-6.211-1.006
					c-1.994-0.84-3.269-2.263-3.611-3.81C126.507,132.938,127.005,132.503,128.096,132.728z"/>
				<linearGradient id="SVGID_74_" gradientUnits="userSpaceOnUse" x1="140.0167" y1="133.2243" x2="136.0941" y2="144.59">
					<stop  offset="0" style="stop-color:#FBB46E"/>
					<stop  offset="0.2015" style="stop-color:#F0A86B"/>
					<stop  offset="0.5583" style="stop-color:#DB8D65"/>
					<stop  offset="1" style="stop-color:#C16A5C"/>
				</linearGradient>
				<path style="fill:url(#SVGID_74_);" d="M137.576,137.921c-0.98-0.407-2.917,0.186-7.519-1.308
					c-2.55-0.828-3.611-2.955-3.611-2.955c-0.115,1.371,1.358,3.774,3.351,4.614c2.925,1.232,5.929,1.232,5.929,1.232l5.295,3.051
					l9.909-2.07C150.931,140.486,143.033,140.184,137.576,137.921z"/>
				<linearGradient id="SVGID_75_" gradientUnits="userSpaceOnUse" x1="141.6939" y1="152.8515" x2="141.6939" y2="170.1012">
					<stop  offset="0" style="stop-color:#FBB46E"/>
					<stop  offset="0.2015" style="stop-color:#F0A86B"/>
					<stop  offset="0.5583" style="stop-color:#DB8D65"/>
					<stop  offset="1" style="stop-color:#C16A5C"/>
				</linearGradient>
				<path style="fill:url(#SVGID_75_);" d="M157.132,147.67c0.134-5.994-2.833-7.938-4.543-8.391
					c-1.71-0.453-15.171,2.196-15.171,2.196s-9.522,4.292-11.198,5.163c-1.677,0.872-0.704,3.722,1.073,3.755
					c1.777,0.034,11.165-1.71,11.165-1.71l7.619-0.704v1.075l-3.436,1.383l-3.479,2.471l-1.66,1.011l1.587,7.448l2.568,1.901
					c0.347,0.185,0.683,0.36,0.691,0.617c2.863,1.888,10.695,1.847,10.695,1.847c0,0,3.864-4.129,4.929-10.545
					C158.333,152.999,157.079,150.018,157.132,147.67z"/>
				<linearGradient id="SVGID_76_" gradientUnits="userSpaceOnUse" x1="128.4751" y1="158.5968" x2="140.6962" y2="156.0822">
					<stop  offset="0" style="stop-color:#FBB46E"/>
					<stop  offset="0.2015" style="stop-color:#F0A86B"/>
					<stop  offset="0.5583" style="stop-color:#DB8D65"/>
					<stop  offset="1" style="stop-color:#C16A5C"/>
				</linearGradient>
				<path style="fill:url(#SVGID_76_);" d="M139.311,158.817v-1.157l-0.754-1.97l0.604-2.783l-5.633-1.308
					c0,0-0.201-0.57-0.704-0.905c-0.503-0.335-2.582-0.067-2.917,0.704c-0.335,0.771,0.168,3.051,0.637,3.621
					c0.469,0.57,3.386,1.911,3.386,1.911s0.466,0.273,0.293,0.609c0.403,0.738,1.251,1.996,2.725,2.911
					c0.335,0.218,0.646,0.351,0.519,0.668c1.369,1.345,4.188,2.149,4.188,2.149l-0.86-2.188L139.311,158.817z"/>
				<linearGradient id="SVGID_77_" gradientUnits="userSpaceOnUse" x1="147.0619" y1="150.7555" x2="147.0619" y2="147.1309">
					<stop  offset="0" style="stop-color:#FBB46E"/>
					<stop  offset="0.2015" style="stop-color:#F0A86B"/>
					<stop  offset="0.5583" style="stop-color:#DB8D65"/>
					<stop  offset="1" style="stop-color:#C16A5C"/>
				</linearGradient>
				<path style="fill:url(#SVGID_77_);" d="M146.076,147.979l-3.436,2.458c0,0,8.845-1.905,8.845-2.484
					C151.484,147.301,146.076,147.979,146.076,147.979z"/>
				<path style="fill:#8A3C34;" d="M139.295,157.434l-5.365-0.503c0,0,0.09,0.239,0.293,0.609l5.156,0.313l7.577-1.375l1.743-0.101
					l-1.542-0.151L139.295,157.434z"/>
				<path style="fill:#8A3C34;" d="M140.518,160.854l-3.571-0.402c0.127,0.235,0.306,0.458,0.519,0.668l3.202,0.187l7.644-0.821
					l1.492,0.084l-1.458-0.285L140.518,160.854z"/>
				<path style="fill:#8A3C34;" d="M141.655,163.268c0.173,0.226,0.408,0.431,0.691,0.617l6.739-0.03l1.609,0.218l-1.458-0.486
					L141.655,163.268z"/>
			</g>
			<linearGradient id="SVGID_78_" gradientUnits="userSpaceOnUse" x1="138.53" y1="149.2663" x2="138.53" y2="153.7655">
				<stop  offset="0" style="stop-color:#302C2D"/>
				<stop  offset="1" style="stop-color:#130E10"/>
			</linearGradient>
			<path style="fill:url(#SVGID_78_);" d="M141.187,149.471c-0.434,0-2.657,0-2.657,0s-2.223,0-2.657,0
				c-0.434,0-0.551,0.205-0.551,0.506c0,0.631,0,1.684,0,2.148c0,0.685,0.264,1.553,0.671,1.553c0.352,0,2.537,0,2.537,0
				s2.185,0,2.537,0c0.407,0,0.671-0.868,0.671-1.553c0-0.464,0-1.517,0-2.148C141.738,149.677,141.621,149.471,141.187,149.471z"/>
			<linearGradient id="SVGID_79_" gradientUnits="userSpaceOnUse" x1="138.53" y1="149.6149" x2="138.53" y2="154.1488">
				<stop  offset="0" style="stop-color:#130E10"/>
				<stop  offset="1" style="stop-color:#010101"/>
			</linearGradient>
			<path style="fill:url(#SVGID_79_);" d="M140.72,150.292c-0.339,0-2.19,0-2.19,0s-1.851,0-2.19,0s-0.578,0.231-0.578,0.631
				c0,0.4,0,1.355,0,1.924c0,0.569,0.239,0.662,0.528,0.662s2.24,0,2.24,0s1.951,0,2.24,0c0.289,0,0.528-0.093,0.528-0.662
				c0-0.569,0-1.524,0-1.924C141.298,150.523,141.059,150.292,140.72,150.292z"/>
			<g>
				<linearGradient id="SVGID_80_" gradientUnits="userSpaceOnUse" x1="130.1587" y1="138.5858" x2="130.1587" y2="142.8766">
					<stop  offset="0" style="stop-color:#130E10"/>
					<stop  offset="1" style="stop-color:#010101"/>
				</linearGradient>
				<path style="fill:url(#SVGID_80_);" d="M130.159,139.227h-1.006v2.667c0,0,0.151,0.377,1.006,0.377
					c0.855,0,1.006-0.377,1.006-0.377v-2.667H130.159z"/>
				<linearGradient id="SVGID_81_" gradientUnits="userSpaceOnUse" x1="130.1587" y1="136.8901" x2="130.1587" y2="140.2209">
					<stop  offset="0" style="stop-color:#302C2D"/>
					<stop  offset="1" style="stop-color:#130E10"/>
				</linearGradient>
				<ellipse style="fill:url(#SVGID_81_);" cx="130.159" cy="138.969" rx="2.892" ry="0.729"/>
			</g>
		</g>
		<g>
			
				<linearGradient id="SVGID_82_" gradientUnits="userSpaceOnUse" x1="-88.5124" y1="147.1283" x2="-99.1742" y2="167.245" gradientTransform="matrix(-1 0 0 1 -23.0713 0)">
				<stop  offset="0" style="stop-color:#FBB46E"/>
				<stop  offset="0.2015" style="stop-color:#F0A86B"/>
				<stop  offset="0.5583" style="stop-color:#DB8D65"/>
				<stop  offset="1" style="stop-color:#C16A5C"/>
			</linearGradient>
			<polygon style="fill:url(#SVGID_82_);" points="79.522,147.441 63.572,164.073 63.572,170 83.775,170 88.199,163.67 			"/>
			<g>
				
					<linearGradient id="SVGID_83_" gradientUnits="userSpaceOnUse" x1="-118.0744" y1="137.7213" x2="-122.1983" y2="158.3412" gradientTransform="matrix(-1 0 0 1 -23.0713 0)">
					<stop  offset="0" style="stop-color:#FBB46E"/>
					<stop  offset="0.2015" style="stop-color:#F0A86B"/>
					<stop  offset="0.5583" style="stop-color:#DB8D65"/>
					<stop  offset="1" style="stop-color:#C16A5C"/>
				</linearGradient>
				<path style="fill:url(#SVGID_83_);" d="M113.096,132.728c-3.168,0.654-7.893,0.708-9.891,1.153
					c-3.236,0.721-7.865,1.062-9.075,1.565c-1.211,0.503-8.863,3.682-8.863,3.682l-5.745,8.313c0,0-1.882,5.115-1.128,9.993
					c0.754,4.878,3.42,6.639,3.42,6.639l6.337,1.66l0.536-23.051l11.483-0.126l4.753-4.082c0,0,3.286,0.226,6.211-1.006
					c1.994-0.84,3.269-2.263,3.611-3.81C114.686,132.938,114.187,132.503,113.096,132.728z"/>
				
					<linearGradient id="SVGID_84_" gradientUnits="userSpaceOnUse" x1="-124.2469" y1="133.2243" x2="-128.1695" y2="144.59" gradientTransform="matrix(-1 0 0 1 -23.0713 0)">
					<stop  offset="0" style="stop-color:#FBB46E"/>
					<stop  offset="0.2015" style="stop-color:#F0A86B"/>
					<stop  offset="0.5583" style="stop-color:#DB8D65"/>
					<stop  offset="1" style="stop-color:#C16A5C"/>
				</linearGradient>
				<path style="fill:url(#SVGID_84_);" d="M103.616,137.921c0.98-0.407,2.917,0.186,7.519-1.308
					c2.55-0.828,3.611-2.955,3.611-2.955c0.115,1.371-1.358,3.774-3.351,4.614c-2.925,1.232-5.929,1.232-5.929,1.232l-5.295,3.051
					l-9.909-2.07C90.261,140.486,98.159,140.184,103.616,137.921z"/>
				
					<linearGradient id="SVGID_85_" gradientUnits="userSpaceOnUse" x1="-122.5697" y1="152.8515" x2="-122.5697" y2="170.1012" gradientTransform="matrix(-1 0 0 1 -23.0713 0)">
					<stop  offset="0" style="stop-color:#FBB46E"/>
					<stop  offset="0.2015" style="stop-color:#F0A86B"/>
					<stop  offset="0.5583" style="stop-color:#DB8D65"/>
					<stop  offset="1" style="stop-color:#C16A5C"/>
				</linearGradient>
				<path style="fill:url(#SVGID_85_);" d="M84.061,147.67c-0.134-5.994,2.833-7.938,4.543-8.391
					c1.71-0.453,15.171,2.196,15.171,2.196s9.522,4.292,11.198,5.163c1.677,0.872,0.704,3.722-1.073,3.755
					c-1.777,0.034-11.165-1.71-11.165-1.71l-7.619-0.704v1.075l3.436,1.383l3.479,2.471l1.66,1.011l-1.587,7.448l-2.568,1.901
					c-0.347,0.185-0.683,0.36-0.691,0.617c-2.863,1.888-10.695,1.847-10.695,1.847c0,0-3.864-4.129-4.929-10.545
					C82.859,152.999,84.113,150.018,84.061,147.67z"/>
				
					<linearGradient id="SVGID_86_" gradientUnits="userSpaceOnUse" x1="-135.7885" y1="158.5968" x2="-123.5674" y2="156.0822" gradientTransform="matrix(-1 0 0 1 -23.0713 0)">
					<stop  offset="0" style="stop-color:#FBB46E"/>
					<stop  offset="0.2015" style="stop-color:#F0A86B"/>
					<stop  offset="0.5583" style="stop-color:#DB8D65"/>
					<stop  offset="1" style="stop-color:#C16A5C"/>
				</linearGradient>
				<path style="fill:url(#SVGID_86_);" d="M101.881,158.817v-1.157l0.754-1.97l-0.604-2.783l5.633-1.308
					c0,0,0.201-0.57,0.704-0.905c0.503-0.335,2.582-0.067,2.917,0.704c0.335,0.771-0.168,3.051-0.637,3.621
					c-0.469,0.57-3.386,1.911-3.386,1.911s-0.466,0.273-0.293,0.609c-0.403,0.738-1.251,1.996-2.725,2.911
					c-0.335,0.218-0.646,0.351-0.519,0.668c-1.369,1.345-4.188,2.149-4.188,2.149l0.86-2.188L101.881,158.817z"/>
				
					<linearGradient id="SVGID_87_" gradientUnits="userSpaceOnUse" x1="-117.2017" y1="150.7555" x2="-117.2017" y2="147.1309" gradientTransform="matrix(-1 0 0 1 -23.0713 0)">
					<stop  offset="0" style="stop-color:#FBB46E"/>
					<stop  offset="0.2015" style="stop-color:#F0A86B"/>
					<stop  offset="0.5583" style="stop-color:#DB8D65"/>
					<stop  offset="1" style="stop-color:#C16A5C"/>
				</linearGradient>
				<path style="fill:url(#SVGID_87_);" d="M95.117,147.979l3.436,2.458c0,0-8.845-1.905-8.845-2.484
					C89.708,147.301,95.117,147.979,95.117,147.979z"/>
				<path style="fill:#8A3C34;" d="M101.898,157.434l5.365-0.503c0,0-0.09,0.239-0.293,0.609l-5.156,0.313l-7.577-1.375
					l-1.743-0.101l1.542-0.151L101.898,157.434z"/>
				<path style="fill:#8A3C34;" d="M100.674,160.854l3.571-0.402c-0.127,0.235-0.306,0.458-0.519,0.668l-3.202,0.187l-7.644-0.821
					l-1.492,0.084l1.458-0.285L100.674,160.854z"/>
				<path style="fill:#8A3C34;" d="M99.537,163.268c-0.173,0.226-0.408,0.431-0.691,0.617l-6.739-0.03l-1.609,0.218l1.458-0.486
					L99.537,163.268z"/>
			</g>
			
				<linearGradient id="SVGID_88_" gradientUnits="userSpaceOnUse" x1="-125.7336" y1="149.2663" x2="-125.7336" y2="153.7655" gradientTransform="matrix(-1 0 0 1 -23.0713 0)">
				<stop  offset="0" style="stop-color:#302C2D"/>
				<stop  offset="1" style="stop-color:#130E10"/>
			</linearGradient>
			<path style="fill:url(#SVGID_88_);" d="M100.005,149.471c0.434,0,2.657,0,2.657,0s2.223,0,2.657,0s0.551,0.205,0.551,0.506
				c0,0.631,0,1.684,0,2.148c0,0.685-0.264,1.553-0.671,1.553c-0.352,0-2.537,0-2.537,0s-2.185,0-2.537,0
				c-0.407,0-0.671-0.868-0.671-1.553c0-0.464,0-1.517,0-2.148C99.454,149.677,99.572,149.471,100.005,149.471z"/>
			
				<linearGradient id="SVGID_89_" gradientUnits="userSpaceOnUse" x1="-125.7336" y1="149.6149" x2="-125.7336" y2="154.1488" gradientTransform="matrix(-1 0 0 1 -23.0713 0)">
				<stop  offset="0" style="stop-color:#130E10"/>
				<stop  offset="1" style="stop-color:#010101"/>
			</linearGradient>
			<path style="fill:url(#SVGID_89_);" d="M100.472,150.292c0.339,0,2.19,0,2.19,0s1.851,0,2.19,0s0.578,0.231,0.578,0.631
				c0,0.4,0,1.355,0,1.924c0,0.569-0.239,0.662-0.528,0.662s-2.24,0-2.24,0s-1.951,0-2.24,0c-0.289,0-0.528-0.093-0.528-0.662
				c0-0.569,0-1.524,0-1.924C99.894,150.523,100.133,150.292,100.472,150.292z"/>
			<g>
				
					<linearGradient id="SVGID_90_" gradientUnits="userSpaceOnUse" x1="-134.1049" y1="138.5858" x2="-134.1049" y2="142.8766" gradientTransform="matrix(-1 0 0 1 -23.0713 0)">
					<stop  offset="0" style="stop-color:#130E10"/>
					<stop  offset="1" style="stop-color:#010101"/>
				</linearGradient>
				<path style="fill:url(#SVGID_90_);" d="M111.034,139.227h1.006v2.667c0,0-0.151,0.377-1.006,0.377s-1.006-0.377-1.006-0.377
					v-2.667H111.034z"/>
				
					<linearGradient id="SVGID_91_" gradientUnits="userSpaceOnUse" x1="-134.1049" y1="136.8901" x2="-134.1049" y2="140.2209" gradientTransform="matrix(-1 0 0 1 -23.0713 0)">
					<stop  offset="0" style="stop-color:#302C2D"/>
					<stop  offset="1" style="stop-color:#130E10"/>
				</linearGradient>
				<ellipse style="fill:url(#SVGID_91_);" cx="111.034" cy="138.969" rx="2.892" ry="0.729"/>
			</g>
		</g>
	</g>
</g>
<linearGradient id="SVGID_92_" gradientUnits="userSpaceOnUse" x1="541.0594" y1="83.2709" x2="541.0594" y2="38.3423" gradientTransform="matrix(-1 0 0 1 698.25 0)">
	<stop  offset="0" style="stop-color:#C7EAFB"/>
	<stop  offset="0.3601" style="stop-color:#B9E3E3"/>
	<stop  offset="1" style="stop-color:#9BD4B7"/>
</linearGradient>
<path style="fill:url(#SVGID_92_);" d="M149.669,82.418c0.391,0,0.727,0.222,0.899,0.545c0,0,13.179,0,13.645,0
	c0.465,0,0.566-0.238,0.566-0.628s0-39.753,0-39.753h0.956c0,0,0,39.17,0,39.975c0,0.805-0.578,1.362-1.509,1.362
	c-0.44,0-13.657,0-13.657,0c-0.172,0.323-0.508,0.545-0.899,0.545c-0.565,0-1.023-0.458-1.023-1.023
	C148.647,82.876,149.105,82.418,149.669,82.418z"/>
<g>
	<linearGradient id="SVGID_93_" gradientUnits="userSpaceOnUse" x1="177.6203" y1="4.7067" x2="177.6203" y2="58.6366">
		<stop  offset="0" style="stop-color:#8DD8F8"/>
		<stop  offset="0.2092" style="stop-color:#85CDDD"/>
		<stop  offset="0.6598" style="stop-color:#6BB8A7"/>
		<stop  offset="1" style="stop-color:#53AA80"/>
	</linearGradient>
	<path style="fill:url(#SVGID_93_);" d="M197.292,12.649h-39.344c-1.842,0-3.339,1.498-3.339,3.34v23.507
		c0,1.842,1.498,3.34,3.339,3.34h39.344c1.842,0,3.339-1.498,3.339-3.34V15.989C200.632,14.147,199.134,12.649,197.292,12.649z"/>
	<g>
		<linearGradient id="SVGID_94_" gradientUnits="userSpaceOnUse" x1="177.6201" y1="11.9406" x2="177.6201" y2="20.7411">
			<stop  offset="0" style="stop-color:#61807A"/>
			<stop  offset="1" style="stop-color:#28341E"/>
		</linearGradient>
		<polygon style="fill:url(#SVGID_94_);" points="177.62,13.138 177.004,13.138 177.004,17.53 177.62,17.53 178.237,17.53 
			178.237,13.138 		"/>
		<linearGradient id="SVGID_95_" gradientUnits="userSpaceOnUse" x1="177.6202" y1="13.49" x2="177.6202" y2="26.1274">
			<stop  offset="0" style="stop-color:#8DD8F8"/>
			<stop  offset="0.2092" style="stop-color:#85CDDD"/>
			<stop  offset="0.6598" style="stop-color:#6BB8A7"/>
			<stop  offset="1" style="stop-color:#53AA80"/>
		</linearGradient>
		<path style="fill:url(#SVGID_95_);" d="M170.183,16.624c0-0.907,0.736-1.728,1.643-1.728h11.589c0.907,0,1.643,0.82,1.643,1.728
			v1.779c0,0.907-0.736,1.761-1.643,1.761h-11.589c-0.907,0-1.643-0.854-1.643-1.761V16.624z"/>
		<linearGradient id="SVGID_96_" gradientUnits="userSpaceOnUse" x1="182.2941" y1="21.0924" x2="182.2941" y2="15.2828">
			<stop  offset="0" style="stop-color:#236A82"/>
			<stop  offset="0.33" style="stop-color:#307B83"/>
			<stop  offset="1" style="stop-color:#53AA80"/>
		</linearGradient>
		<path style="fill:url(#SVGID_96_);" d="M183.764,14.938l-0.336,0.412l-0.333-0.455h-1.365l-0.842,1.536l-0.327-0.176l-0.679,0.377
			l-0.352,2.339l5.265,0.355c0.165-0.276,0.262-0.596,0.262-0.923v-1.779C185.057,15.836,184.503,15.116,183.764,14.938z"/>
		<linearGradient id="SVGID_97_" gradientUnits="userSpaceOnUse" x1="172.8829" y1="21.0924" x2="172.8829" y2="15.2827">
			<stop  offset="0" style="stop-color:#236A82"/>
			<stop  offset="0.33" style="stop-color:#307B83"/>
			<stop  offset="1" style="stop-color:#53AA80"/>
		</linearGradient>
		<path style="fill:url(#SVGID_97_);" d="M171.685,15.351l-0.312-0.383c-0.687,0.217-1.19,0.906-1.19,1.656v1.779
			c0,0.324,0.095,0.641,0.257,0.915l5.143-0.346l-0.352-2.339l-0.679-0.377l-0.327,0.176l-0.842-1.536h-1.365L171.685,15.351z"/>
		<linearGradient id="SVGID_98_" gradientUnits="userSpaceOnUse" x1="177.6202" y1="17.6642" x2="177.6202" y2="21.2895">
			<stop  offset="0" style="stop-color:#6BCAF3"/>
			<stop  offset="0.0314" style="stop-color:#70C1E2"/>
			<stop  offset="0.1417" style="stop-color:#79AABE"/>
			<stop  offset="0.2613" style="stop-color:#7D98A4"/>
			<stop  offset="0.3917" style="stop-color:#7F8A92"/>
			<stop  offset="0.5384" style="stop-color:#808186"/>
			<stop  offset="0.7146" style="stop-color:#807C7F"/>
			<stop  offset="1" style="stop-color:#807A7D"/>
		</linearGradient>
		<path style="fill:url(#SVGID_98_);" d="M177.62,18.582c-4.678,0-7.349,0.363-7.349,0.363c0.22,0.678,0.832,1.22,1.554,1.22h11.589
			c0.722,0,1.334-0.541,1.554-1.22C184.969,18.945,182.298,18.582,177.62,18.582z"/>
		<linearGradient id="SVGID_99_" gradientUnits="userSpaceOnUse" x1="177.6202" y1="13.2557" x2="177.6202" y2="24.3408">
			<stop  offset="0" style="stop-color:#61807A"/>
			<stop  offset="1" style="stop-color:#28341E"/>
		</linearGradient>
		<path style="fill:url(#SVGID_99_);" d="M183.297,14.764h-11.354c-1.045,0-1.894,0.85-1.894,1.894v1.743
			c0,1.045,0.85,1.894,1.894,1.894h11.354c1.045,0,1.894-0.85,1.894-1.894v-1.743C185.192,15.614,184.342,14.764,183.297,14.764z
			 M184.907,18.402c0,0.889-0.721,1.609-1.609,1.609h-11.354c-0.889,0-1.609-0.72-1.609-1.609v-1.743
			c0-0.889,0.721-1.609,1.609-1.609h11.354c0.889,0,1.609,0.72,1.609,1.609V18.402z"/>
		<g>
			<linearGradient id="SVGID_100_" gradientUnits="userSpaceOnUse" x1="180.372" y1="17.2367" x2="180.372" y2="19.2409">
				<stop  offset="0" style="stop-color:#71C199"/>
				<stop  offset="1" style="stop-color:#236A82"/>
			</linearGradient>
			<path style="fill:url(#SVGID_100_);" d="M181.973,17.863c-0.032-0.031-0.184-0.062-0.212-0.047
				c-0.028,0.015-0.053,0.037-0.043,0.075c0.01,0.038,0.015,0.059,0.015,0.059l-0.042,0.002c-0.049-0.096-0.104-0.206-0.146-0.279
				c-0.076-0.131-0.137-0.196-0.172-0.236c-0.076-0.087-0.711-0.103-1-0.103c-0.289,0-0.924,0.016-1,0.103
				c-0.036,0.04-0.096,0.105-0.172,0.236c-0.042,0.073-0.097,0.182-0.147,0.279l-0.042-0.002c0,0,0.006-0.022,0.015-0.059
				c0.009-0.038-0.016-0.06-0.043-0.075c-0.027-0.014-0.18,0.016-0.212,0.047c-0.032,0.031-0.111,0.146-0.027,0.171
				c0.064,0.019,0.196,0.018,0.258,0.016c-0.018,0.033-0.033,0.062-0.045,0.08c-0.049,0.08-0.159,0.201-0.186,0.317
				c-0.027,0.116,0.005,0.9,0.005,0.9s0.006,0.199,0.036,0.286c0.03,0.086,0.366,0.071,0.385,0c0.018-0.071,0.02-0.286,0.02-0.286
				h1.156h1.156c0,0,0.002,0.215,0.02,0.286c0.018,0.071,0.355,0.086,0.384,0c0.03-0.086,0.036-0.286,0.036-0.286
				s0.032-0.783,0.005-0.9c-0.027-0.116-0.137-0.238-0.186-0.317c-0.012-0.019-0.027-0.047-0.045-0.08
				c0.062,0.002,0.194,0.003,0.258-0.016C182.084,18.009,182.005,17.894,181.973,17.863z"/>
			<linearGradient id="SVGID_101_" gradientUnits="userSpaceOnUse" x1="179.1471" y1="18.0621" x2="179.1471" y2="18.7165">
				<stop  offset="0" style="stop-color:#8DD8F8"/>
				<stop  offset="0.2092" style="stop-color:#85CDDD"/>
				<stop  offset="0.6598" style="stop-color:#6BB8A7"/>
				<stop  offset="1" style="stop-color:#53AA80"/>
			</linearGradient>
			<path style="fill:url(#SVGID_101_);" d="M179.332,18.39c-0.027-0.016-0.321-0.193-0.346-0.211
				c-0.025-0.018-0.102,0.055-0.111,0.192c-0.005,0.067,0.013,0.134,0.044,0.15c0.031,0.016,0.099,0.006,0.134,0.013
				c0.035,0.007,0.34,0.082,0.362,0.072C179.438,18.595,179.359,18.407,179.332,18.39z"/>
			<linearGradient id="SVGID_102_" gradientUnits="userSpaceOnUse" x1="180.372" y1="16.4222" x2="180.372" y2="18.9892">
				<stop  offset="0" style="stop-color:#8DD8F8"/>
				<stop  offset="0.2092" style="stop-color:#85CDDD"/>
				<stop  offset="0.6598" style="stop-color:#6BB8A7"/>
				<stop  offset="1" style="stop-color:#53AA80"/>
			</linearGradient>
			<path style="fill:url(#SVGID_102_);" d="M181.596,17.904c-0.053-0.132-0.248-0.433-0.288-0.454
				c-0.04-0.022-0.519-0.059-0.936-0.059c-0.418,0-0.896,0.038-0.936,0.059c-0.04,0.022-0.235,0.322-0.288,0.454
				c-0.02,0.05-0.002,0.058,0.062,0.062c0.064,0.003,0.615-0.03,1.163-0.03s1.099,0.033,1.162,0.03
				C181.598,17.963,181.616,17.954,181.596,17.904z"/>
			
				<linearGradient id="SVGID_103_" gradientUnits="userSpaceOnUse" x1="-895.8977" y1="18.0621" x2="-895.8977" y2="18.7165" gradientTransform="matrix(-1 0 0 1 -714.3008 0)">
				<stop  offset="0" style="stop-color:#8DD8F8"/>
				<stop  offset="0.2092" style="stop-color:#85CDDD"/>
				<stop  offset="0.6598" style="stop-color:#6BB8A7"/>
				<stop  offset="1" style="stop-color:#53AA80"/>
			</linearGradient>
			<path style="fill:url(#SVGID_103_);" d="M181.412,18.39c0.027-0.016,0.321-0.193,0.345-0.211
				c0.025-0.018,0.102,0.055,0.111,0.192c0.005,0.067-0.013,0.134-0.044,0.15c-0.031,0.016-0.099,0.006-0.134,0.013
				c-0.035,0.007-0.34,0.082-0.362,0.072C181.306,18.595,181.385,18.407,181.412,18.39z"/>
		</g>
	</g>
	<linearGradient id="SVGID_104_" gradientUnits="userSpaceOnUse" x1="193.2747" y1="12.1069" x2="193.2747" y2="39.4776">
		<stop  offset="0" style="stop-color:#53AA80"/>
		<stop  offset="0.0729" style="stop-color:#499C81"/>
		<stop  offset="0.2215" style="stop-color:#3A8983"/>
		<stop  offset="0.3799" style="stop-color:#307A83"/>
		<stop  offset="0.5507" style="stop-color:#297183"/>
		<stop  offset="0.7427" style="stop-color:#246B82"/>
		<stop  offset="1" style="stop-color:#236A82"/>
	</linearGradient>
	<path style="fill:url(#SVGID_104_);" d="M197.292,12.649h-3.05l0.427,2.247l-1.006,2.211l-1.408-0.373c0,0-2.112,0.93-2.316,2.162
		c-0.204,1.232-1.19,7.192-1.19,7.192s-2.026,0.201-2.177,1.654c-0.151,1.453-0.654,6.292-0.654,6.292l14.714,1.68V15.989
		C200.632,14.147,199.134,12.649,197.292,12.649z"/>
	
		<linearGradient id="SVGID_105_" gradientUnits="userSpaceOnUse" x1="283.3427" y1="12.1068" x2="283.3427" y2="39.4775" gradientTransform="matrix(-1 0 0 1 445.3086 0)">
		<stop  offset="0" style="stop-color:#53AA80"/>
		<stop  offset="0.0729" style="stop-color:#499C81"/>
		<stop  offset="0.2215" style="stop-color:#3A8983"/>
		<stop  offset="0.3799" style="stop-color:#307A83"/>
		<stop  offset="0.5507" style="stop-color:#297183"/>
		<stop  offset="0.7427" style="stop-color:#246B82"/>
		<stop  offset="1" style="stop-color:#236A82"/>
	</linearGradient>
	<path style="fill:url(#SVGID_105_);" d="M157.948,12.649h3.05l-0.427,2.247l1.006,2.211l1.408-0.373c0,0,2.112,0.93,2.316,2.162
		c0.204,1.232,1.19,7.192,1.19,7.192s2.026,0.201,2.177,1.654c0.151,1.453,0.654,6.292,0.654,6.292l-14.714,1.68V15.989
		C154.609,14.147,156.107,12.649,157.948,12.649z"/>
	<linearGradient id="SVGID_106_" gradientUnits="userSpaceOnUse" x1="177.6203" y1="26.3229" x2="177.6203" y2="55.8287">
		<stop  offset="0" style="stop-color:#6BCAF3"/>
		<stop  offset="0.0314" style="stop-color:#70C1E2"/>
		<stop  offset="0.1417" style="stop-color:#79AABE"/>
		<stop  offset="0.2613" style="stop-color:#7D98A4"/>
		<stop  offset="0.3917" style="stop-color:#7F8A92"/>
		<stop  offset="0.5384" style="stop-color:#808186"/>
		<stop  offset="0.7146" style="stop-color:#807C7F"/>
		<stop  offset="1" style="stop-color:#807A7D"/>
	</linearGradient>
	<path style="fill:url(#SVGID_106_);" d="M200.632,39.496V33.76c-4.188-0.851-13.479-2.487-23.011-2.487
		c-9.532,0-18.824,1.636-23.011,2.487v5.736c0,1.842,1.498,3.34,3.339,3.34h39.344C199.134,42.836,200.632,41.338,200.632,39.496z"
		/>
	<linearGradient id="SVGID_107_" gradientUnits="userSpaceOnUse" x1="177.6203" y1="37.9905" x2="177.6203" y2="54.4424">
		<stop  offset="0" style="stop-color:#61807A"/>
		<stop  offset="1" style="stop-color:#28341E"/>
	</linearGradient>
	<path style="fill:url(#SVGID_107_);" d="M177.62,36.964c-9.532,0-18.824,0.627-23.011,0.952v1.58c0,1.842,1.498,3.34,3.339,3.34
		h39.344c1.842,0,3.339-1.498,3.339-3.34v-1.58C196.444,37.59,187.152,36.964,177.62,36.964z"/>
	<linearGradient id="SVGID_108_" gradientUnits="userSpaceOnUse" x1="177.6203" y1="30.3127" x2="177.6203" y2="50.0294">
		<stop  offset="0" style="stop-color:#61807A"/>
		<stop  offset="1" style="stop-color:#28341E"/>
	</linearGradient>
	<path style="fill:url(#SVGID_108_);" d="M177.62,32.995c-5.728,0-10.45,4.295-11.128,9.84h1.698
		c0.562-3.883,3.464-7.008,7.232-7.898c0.118,0.388,0.232,0.833,0.262,1.183c0.031,0.364,0.166,1.966,0.304,3.602
		c-1.408,0.512-2.504,1.669-2.938,3.113h9.14c-0.434-1.444-1.53-2.6-2.938-3.113c0.138-1.635,0.273-3.238,0.304-3.602
		c0.03-0.351,0.144-0.795,0.262-1.183c3.767,0.89,6.67,4.014,7.232,7.898h1.698C188.07,37.291,183.348,32.995,177.62,32.995z"/>
	<linearGradient id="SVGID_109_" gradientUnits="userSpaceOnUse" x1="154.1489" y1="27.7424" x2="201.0915" y2="27.7424">
		<stop  offset="0" style="stop-color:#C7EAFB"/>
		<stop  offset="0.3601" style="stop-color:#B9E3E3"/>
		<stop  offset="1" style="stop-color:#9BD4B7"/>
	</linearGradient>
	<path style="fill:url(#SVGID_109_);" d="M197.685,12.348h-40.13c-1.878,0-3.406,1.528-3.406,3.406v23.977
		c0,1.878,1.528,3.406,3.406,3.406h40.13c1.878,0,3.406-1.528,3.406-3.406V15.754C201.092,13.876,199.564,12.348,197.685,12.348z
		 M200.075,39.731c0,1.32-1.07,2.39-2.39,2.39h-40.13c-1.32,0-2.39-1.07-2.39-2.39V15.754c0-1.32,1.07-2.39,2.39-2.39h40.13
		c1.32,0,2.39,1.07,2.39,2.39V39.731z"/>
</g>
<g>
	<linearGradient id="SVGID_110_" gradientUnits="userSpaceOnUse" x1="40.6786" y1="15.4466" x2="40.6786" y2="69.3765">
		<stop  offset="0" style="stop-color:#8DD8F8"/>
		<stop  offset="0.2092" style="stop-color:#85CDDD"/>
		<stop  offset="0.6598" style="stop-color:#6BB8A7"/>
		<stop  offset="1" style="stop-color:#53AA80"/>
	</linearGradient>
	<path style="fill:url(#SVGID_110_);" d="M60.35,23.389H21.007c-1.842,0-3.34,1.498-3.34,3.339v23.507c0,1.842,1.498,3.34,3.34,3.34
		H60.35c1.842,0,3.34-1.498,3.34-3.34V26.729C63.69,24.887,62.192,23.389,60.35,23.389z"/>
	<linearGradient id="SVGID_111_" gradientUnits="userSpaceOnUse" x1="40.6786" y1="40.0183" x2="40.6786" y2="63.0228">
		<stop  offset="0" style="stop-color:#6BCAF3"/>
		<stop  offset="0.0314" style="stop-color:#70C1E2"/>
		<stop  offset="0.1417" style="stop-color:#79AABE"/>
		<stop  offset="0.2613" style="stop-color:#7D98A4"/>
		<stop  offset="0.3917" style="stop-color:#7F8A92"/>
		<stop  offset="0.5384" style="stop-color:#808186"/>
		<stop  offset="0.7146" style="stop-color:#807C7F"/>
		<stop  offset="1" style="stop-color:#807A7D"/>
	</linearGradient>
	<path style="fill:url(#SVGID_111_);" d="M40.679,46.456c-11.703,0-23.011,1.04-23.011,1.04v2.741c0,1.842,1.498,3.34,3.34,3.34
		H60.35c1.842,0,3.34-1.498,3.34-3.34v-2.741C63.69,47.495,52.382,46.456,40.679,46.456z"/>
	<g>
		<linearGradient id="SVGID_112_" gradientUnits="userSpaceOnUse" x1="26.6974" y1="61.0596" x2="26.6974" y2="20.0541">
			<stop  offset="0" style="stop-color:#236A82"/>
			<stop  offset="0.33" style="stop-color:#307B83"/>
			<stop  offset="1" style="stop-color:#53AA80"/>
		</linearGradient>
		<path style="fill:url(#SVGID_112_);" d="M25.363,39.314c0,0,0.278-0.335,0.517-0.535c-0.058-0.17-0.111-0.46-0.111-0.46
			s-0.246-0.221-0.406-0.716c-0.16-0.495,0-0.449,0-0.449s-0.72-2.285,1.401-2.556c2.121-0.271,1.882,2.267,1.882,2.267
			s0.26-0.028,0.16,0.588c-0.1,0.617-0.31,0.652-0.31,0.652l-0.032,0.877l0.823,0.813c0,0,1.689,0.513,2.245,1.23
			c0.556,0.716,0.674,12.073,0.674,12.073h-9.217v-0.707c0,0-1.091-0.289-1.304-0.791c0,0,1.679-5.079,1.689-5.988
			c0.011-0.909-0.556-3.507-0.556-3.507s-1.262-1.139-1.433-1.518c-0.171-0.38-0.155-1.534-0.192-1.828
			c-0.038-0.294,0.192-0.444,0.192-0.444s0.064-0.583,0.198-0.679c0.134-0.096,0.716-0.283,0.957-0.283s0.861,0.262,0.861,0.262
			l0.417,0.866c0,0,0.829,0.353,1.085,0.481C25.16,39.09,25.363,39.314,25.363,39.314z"/>
		<linearGradient id="SVGID_113_" gradientUnits="userSpaceOnUse" x1="23.5025" y1="38.0844" x2="23.5025" y2="40.4616">
			<stop  offset="0" style="stop-color:#6BCAF3"/>
			<stop  offset="0.0314" style="stop-color:#70C1E2"/>
			<stop  offset="0.1417" style="stop-color:#79AABE"/>
			<stop  offset="0.2613" style="stop-color:#7D98A4"/>
			<stop  offset="0.3917" style="stop-color:#7F8A92"/>
			<stop  offset="0.5384" style="stop-color:#808186"/>
			<stop  offset="0.7146" style="stop-color:#807C7F"/>
			<stop  offset="1" style="stop-color:#807A7D"/>
		</linearGradient>
		<path style="fill:url(#SVGID_113_);" d="M24.251,38.234c-0.1,0-0.422,0-0.659,0c-0.064-0.064-0.151-0.103-0.249-0.103
			c-0.162,0-0.297,0.111-0.338,0.26h-0.252c-0.079,0-0.143,0.064-0.143,0.143c0,0.079,0.064,0.143,0.143,0.143h0.298
			c0.06,0.09,0.16,0.149,0.274,0.155v0.082h0.09c0,0,0.011,0.12,0.12,0.138c0.109,0.018,0.715,0.118,0.715,0.118v-0.257
			C24.467,38.761,24.414,38.234,24.251,38.234z M23.33,38.65c-0.096,0-0.173-0.077-0.173-0.173s0.077-0.173,0.173-0.173
			c0.095,0,0.173,0.078,0.173,0.173S23.425,38.65,23.33,38.65z"/>
		<linearGradient id="SVGID_114_" gradientUnits="userSpaceOnUse" x1="23.3251" y1="38.0842" x2="23.3251" y2="40.4624">
			<stop  offset="0" style="stop-color:#6BCAF3"/>
			<stop  offset="0.0314" style="stop-color:#70C1E2"/>
			<stop  offset="0.1417" style="stop-color:#79AABE"/>
			<stop  offset="0.2613" style="stop-color:#7D98A4"/>
			<stop  offset="0.3917" style="stop-color:#7F8A92"/>
			<stop  offset="0.5384" style="stop-color:#808186"/>
			<stop  offset="0.7146" style="stop-color:#807C7F"/>
			<stop  offset="1" style="stop-color:#807A7D"/>
		</linearGradient>
		<circle style="fill:url(#SVGID_114_);" cx="23.325" cy="38.476" r="0.083"/>
	</g>
	<linearGradient id="SVGID_115_" gradientUnits="userSpaceOnUse" x1="40.6786" y1="41.765" x2="40.6786" y2="56.9267">
		<stop  offset="0" style="stop-color:#61807A"/>
		<stop  offset="1" style="stop-color:#28341E"/>
	</linearGradient>
	<path style="fill:url(#SVGID_115_);" d="M46.112,50.683c-1.116-3.299-3.137-4.523-4.375-4.975v-3.407h-1.058H39.62v3.407
		c-1.238,0.451-3.259,1.676-4.375,4.975c-0.599,1.77-0.905,2.892-0.905,2.892h6.338h6.338
		C47.017,53.575,46.711,52.454,46.112,50.683z"/>
	<linearGradient id="SVGID_116_" gradientUnits="userSpaceOnUse" x1="40.6786" y1="22.5377" x2="40.6786" y2="60.8784">
		<stop  offset="0" style="stop-color:#C7EAFB"/>
		<stop  offset="0.3601" style="stop-color:#B9E3E3"/>
		<stop  offset="1" style="stop-color:#9BD4B7"/>
	</linearGradient>
	<path style="fill:url(#SVGID_116_);" d="M60.744,23.088h-40.13c-1.878,0-3.406,1.528-3.406,3.406v23.977
		c0,1.878,1.528,3.406,3.406,3.406h40.13c1.878,0,3.406-1.528,3.406-3.406V26.494C64.15,24.615,62.622,23.088,60.744,23.088z
		 M63.134,50.471c0,1.32-1.07,2.39-2.39,2.39h-40.13c-1.32,0-2.39-1.07-2.39-2.39V26.494c0-1.32,1.07-2.39,2.39-2.39h40.13
		c1.32,0,2.39,1.07,2.39,2.39V50.471z"/>
	<g>
		<linearGradient id="SVGID_117_" gradientUnits="userSpaceOnUse" x1="42.2628" y1="38.0656" x2="42.2628" y2="39.0676">
			<stop  offset="0" style="stop-color:#C7EAFB"/>
			<stop  offset="0.3601" style="stop-color:#B9E3E3"/>
			<stop  offset="1" style="stop-color:#9BD4B7"/>
		</linearGradient>
		<rect x="41.609" y="38.08" style="fill:url(#SVGID_117_);" width="1.308" height="0.805"/>
		<linearGradient id="SVGID_118_" gradientUnits="userSpaceOnUse" x1="40.6786" y1="36.2209" x2="40.6786" y2="37.8492">
			<stop  offset="0" style="stop-color:#C7EAFB"/>
			<stop  offset="0.3601" style="stop-color:#B9E3E3"/>
			<stop  offset="1" style="stop-color:#9BD4B7"/>
		</linearGradient>
		<rect x="40.276" y="36.244" style="fill:url(#SVGID_118_);" width="0.805" height="1.308"/>
		<linearGradient id="SVGID_119_" gradientUnits="userSpaceOnUse" x1="39.0944" y1="38.0656" x2="39.0944" y2="39.0676">
			<stop  offset="0" style="stop-color:#C7EAFB"/>
			<stop  offset="0.3601" style="stop-color:#B9E3E3"/>
			<stop  offset="1" style="stop-color:#9BD4B7"/>
		</linearGradient>
		<rect x="38.441" y="38.08" style="fill:url(#SVGID_119_);" width="1.308" height="0.805"/>
		<linearGradient id="SVGID_120_" gradientUnits="userSpaceOnUse" x1="40.6786" y1="39.3893" x2="40.6786" y2="41.0176">
			<stop  offset="0" style="stop-color:#C7EAFB"/>
			<stop  offset="0.3601" style="stop-color:#B9E3E3"/>
			<stop  offset="1" style="stop-color:#9BD4B7"/>
		</linearGradient>
		<rect x="40.276" y="39.413" style="fill:url(#SVGID_120_);" width="0.805" height="1.308"/>
	</g>
</g>
<linearGradient id="SVGID_121_" gradientUnits="userSpaceOnUse" x1="70.4359" y1="86.3472" x2="70.4359" y2="66.3004">
	<stop  offset="0" style="stop-color:#C7EAFB"/>
	<stop  offset="0.3601" style="stop-color:#B9E3E3"/>
	<stop  offset="1" style="stop-color:#9BD4B7"/>
</linearGradient>
<path style="fill:url(#SVGID_121_);" d="M77.957,84.834c-0.391,0-0.727,0.222-0.899,0.545c0,0-13.179,0-13.645,0
	s-0.566-0.238-0.566-0.628c0-0.39,0-16.559,0-16.559h-0.956c0,0,0,15.976,0,16.781s0.578,1.362,1.509,1.362
	c0.44,0,13.657,0,13.657,0c0.172,0.323,0.508,0.545,0.899,0.545c0.565,0,1.023-0.458,1.023-1.023
	C78.98,85.292,78.522,84.834,77.957,84.834z"/>
<linearGradient id="SVGID_122_" gradientUnits="userSpaceOnUse" x1="32.8002" y1="88.4923" x2="32.8002" y2="104.5063">
	<stop  offset="0" style="stop-color:#C7EAFB"/>
	<stop  offset="0.3601" style="stop-color:#B9E3E3"/>
	<stop  offset="1" style="stop-color:#9BD4B7"/>
</linearGradient>
<path style="fill:url(#SVGID_122_);" d="M44.455,104.359c0,0.832-0.674,1.506-1.506,1.506H22.652c-0.832,0-1.506-0.674-1.506-1.506
	V91.601c0-0.832,0.674-1.506,1.506-1.506h20.296c0.832,0,1.506,0.674,1.506,1.506V104.359z"/>
<linearGradient id="SVGID_123_" gradientUnits="userSpaceOnUse" x1="41.4376" y1="87.2743" x2="41.4376" y2="144.9932">
	<stop  offset="0" style="stop-color:#5EC6F1"/>
	<stop  offset="0.2047" style="stop-color:#5EC0D9"/>
	<stop  offset="0.6454" style="stop-color:#57B4A7"/>
	<stop  offset="1" style="stop-color:#4EAA7E"/>
</linearGradient>
<path style="fill:url(#SVGID_123_);" d="M59.407,114.576c0,1.283-1.04,2.323-2.323,2.323H25.791c-1.283,0-2.323-1.04-2.323-2.323
	v-19.67c0-1.283,1.04-2.323,2.323-2.323h31.293c1.283,0,2.323,1.04,2.323,2.323V114.576z"/>
</svg>
