<?xml version="1.0" encoding="utf-8"?>
<!-- Generator: Adobe Illustrator 21.0.0, SVG Export Plug-In . SVG Version: 6.00 Build 0)  -->
<svg version="1.1" id="Layer_1" xmlns="http://www.w3.org/2000/svg" xmlns:xlink="http://www.w3.org/1999/xlink" x="0px" y="0px"
     width="2800px" height="1800px" viewBox="0 0 2800 1800" style="enable-background:new 0 0 2800 1800;" xml:space="preserve">
    <style type="text/css">
        .st0{fill:#64A1D7;}
        .st1{fill:#3A6992;}
        .st2{fill:#97BEE0;}
        .st3{fill:#F2DDC7;}
        .st4{fill:#E2C6AC;}
        .st5{fill:#F2A07C;}
        .st6{fill:#594C64;}
        .st7{fill:#D7E1E2;}
        .st8{fill:#61A0D7;}
        .st9{fill:#E45D49;}
        .st10{fill:#CA4A3D;}
        .st11{fill:#CE7C5F;}
        .st12{fill:#973363;}
        .st13{fill:#EEECE4;}
        .st14{fill:#D875A7;}
        .st15{fill:#7C4F41;}
        .st16{fill:#F1BE55;}
        .st17{fill:#D09D41;}
        .st18{fill:#FFDCA4;}
        .st19{fill:#5A4D3B;}
        .st20{fill:#332A1E;}
        .st21{fill:#C78C45;}
        .st22{fill:#755934;}
        .st23{fill:#4D371C;}
        .st24{fill:#A67130;}
        .st25{fill:#FFDEA4;}
        .st26{fill:#A6ABB0;}
        .st27{fill:#BBC0C4;}
        .st28{fill:#D7DEE2;}
        .st29{fill:#D6B28E;}
        .st30{fill:#F6E8DC;}
        .st31{fill:#E5796E;}
        .st32{fill:#DD8D71;}
        .st33{fill:#DBBF93;}
        .st34{fill:#F3D5B0;}
        .st35{fill:#DD876B;}
        .st36{fill:#3C3047;}
        .st37{fill:#B29166;}
        .st38{fill:#6B3F2D;}
        .st39{fill:#473B37;}
        .st40{fill:#52405B;}
        .st41{fill:#F4EFF7;}
        .st42{fill:#895422;}
        .st43{fill:#B77930;}
        .st44{fill:#D99B50;}
        .st45{fill:#BF853B;}
        .st46{fill:#F2D142;}
        .st47{fill:#5F534F;}
        .st48{fill:#2A2530;}
        .st49{fill:#CC9046;}
        .st50{fill:#A67538;}
    </style>
    <rect class="st0" width="2800" height="1800"/>
    <path class="st1" d="M179.66217,1228.49084c3.83542-10.06079,13.56779-17.21069,24.97551-17.21069
                         c4.94698,0,9.57657,1.34937,13.5504,3.69226c7.40608-20.63025,27.13261-35.38892,50.3118-35.38892
                         c1.08698,0,2.16351,0.04248,3.23428,0.10645c-0.01941-0.84595-0.03223-1.69336-0.03223-2.54395
                         c0-60.40686,48.96948-109.37634,109.37643-109.37634c60.40677,0,109.37625,48.96948,109.37625,109.37634
                         c0,2.88354-0.11322,5.74036-0.3324,8.56763c2.5849-0.43066,5.23578-0.66626,7.94284-0.66626
                         c24.96851,0,45.47504,19.07336,47.76312,43.44348H179.66217z"/>
    <path class="st2" d="M757.15179,1248.46851c-3.94867,0-7.70111,0.81213-11.11786,2.29639
                         c-0.01129,0.00488-0.02222,0.01074-0.03381,0.01563c6.94183-8.07324,11.14722-18.56738,11.14722-30.04993
                         c0-25.47546-20.65192-46.12732-46.12756-46.12732c-1.92419,0-3.81665,0.13171-5.67908,0.36047
                         c1.01324-5.1698,1.5578-10.50781,1.5578-15.97449c0-45.62512-36.98657-82.61169-82.61157-82.61169
                         c-45.62506,0-82.61163,36.98657-82.61163,82.61169c0,3.49023,0.2417,6.922,0.6618,10.29846
                         c-2.52216-0.23401-5.07501-0.36438-7.66278-0.36438c-34.59885,0-64.2272,21.26892-76.52066,51.45728
                         c-8.4292-9.19934-20.55511-14.96814-34.01083-14.96814c-10.61359,0-20.38693,3.58447-28.17212,9.60535
                         c-13.48373-27.30383-41.6138-46.09448-74.12634-46.09448c-44.2973,0-80.45457,34.88342-82.5118,78.67236
                         c-3.77328-0.59668-7.7233-0.91602-11.79297-0.91602c-6.73401,0-13.13368,0.86389-18.96043,2.44263
                         c-6.92474,1.86169-13.01404,4.70654-17.76602,8.26624c-1.02621,0.75964-1.98201,1.54895-2.88927,2.36804
                         c-5.20528,4.78113-8.2617,10.56006-8.2617,16.78589h63.42111h32.33307h109.95511h15.23398h55.30777h6.98697h98.09787h52.43732
                         h19.25269h57.40808h38.98163H746.104h39.12146C785.22546,1261.04224,772.65173,1248.46851,757.15179,1248.46851z"/>
    <path class="st1" d="M2437.30688,731.25214c-3.94873,0-7.70117,0.81213-11.11792,2.29639
                         c-0.01123,0.00494-0.02222,0.01074-0.03394,0.01569c6.94189-8.0733,11.14722-18.56738,11.14722-30.04993
                         c0-25.47552-20.65186-46.12738-46.12744-46.12738c-1.92432,0-3.81665,0.13171-5.67896,0.36053
                         c1.01318-5.16986,1.55762-10.50787,1.55762-15.97455c0-45.62512-36.98657-82.61163-82.61157-82.61163
                         s-82.61157,36.98651-82.61157,82.61163c0,3.49023,0.2417,6.922,0.66187,10.29852c-2.52222-0.23401-5.0752-0.36444-7.66284-0.36444
                         c-34.59888,0-64.22729,21.26898-76.52075,51.45728c-8.4292-9.19934-20.55518-14.96814-34.01074-14.96814
                         c-10.61353,0-20.38696,3.58447-28.17212,9.60535c-13.48364-27.30383-41.61389-46.09448-74.12634-46.09448
                         c-44.29736,0-80.45459,34.88342-82.51184,78.67236c-3.77332-0.59662-7.72327-0.91608-11.79297-0.91608
                         c-6.73401,0-13.13367,0.86395-18.96045,2.44269c-6.92468,1.86176-13.01404,4.70654-17.76599,8.26624
                         c-1.02625,0.75964-1.98206,1.54901-2.88928,2.3681c-5.2052,4.78107-8.26172,10.56006-8.26172,16.78583h63.42114h32.33313h109.95496
                         h15.23413h55.30762h6.98706h98.0979h52.43726h19.25269h57.4082h38.98145h17.02637h39.12134
                         C2465.38037,743.82593,2452.80664,731.25214,2437.30688,731.25214z"/>
    <path class="st2" d="M2433.79077,1342.58557c-49.6416,0-92.02295,31.01697-108.84253,74.72913
                         c-4.30396-3.23059-8.96509-6.00854-13.93359-8.22986c-7.25708-3.25879-15.14868-5.32959-23.43188-6.03369
                         c13.05762-12.03503,21.2439-29.27563,21.2439-48.43359c0-36.37488-29.48755-65.86255-65.86255-65.86255
                         c-20.46875,0-38.7561,9.33765-50.83618,23.98523c-12.10449-7.39307-25.43213-12.98474-39.62793-16.35754h-0.01782
                         c-4.34546-1.0354-8.77856-1.84802-13.27759-2.45581c0.00342-0.41821,0.01611-0.83411,0.01611-1.2533
                         c0-86.1051-69.802-155.90698-155.90723-155.90698c-86.1051,0-155.9071,69.80188-155.9071,155.90698
                         c0,9.25183,0.81116,18.31384,2.3562,27.1228c-6.29688-2.75061-12.86157-5.00281-19.66602-6.65137
                         c-9.10938-2.2196-18.62683-3.3916-28.42859-3.3916c-66.41052,0-120.23145,53.83838-120.23145,120.2489
                         c0,10.06799,1.24341,19.85193,3.56958,29.20984h200.97095h32.37061h88.09143h3.90649h220.14832h44.35645h62.31421h35.04565
                         h198.20752C2550.41772,1394.79053,2498.2124,1342.58557,2433.79077,1342.58557z"/>
    <path class="st2" d="M1072.35132,934.68243c-8.23718-21.60706-29.13904-36.96252-53.63879-36.96252
                         c-10.62439,0-20.56714,2.89795-29.10156,7.92963c-15.90564-44.3067-58.27142-76.00293-108.05225-76.00293
                         c-2.33441,0-4.64648,0.09106-6.94611,0.22852c0.04169-1.81683,0.06915-3.63672,0.06915-5.46344
                         c0-129.73303-105.16937-234.9024-234.90253-234.9024c-129.73276,0-234.90216,105.16937-234.90216,234.9024
                         c0,6.19275,0.2431,12.32831,0.71387,18.40033c-5.55145-0.92517-11.24463-1.43091-17.0585-1.43091
                         c-53.62369,0-97.66452,40.96271-102.57858,93.30133H1072.35132z"/>
    <g>
        <g>
            <g>
                <rect x="1902.93188" y="1222.44373" class="st3" width="45.11367" height="376.54575"/>
                <rect x="1902.93188" y="1222.44373" class="st4" width="45.11367" height="22.51634"/>
            </g>
            <g>
                <rect x="1665.73645" y="1222.44373" class="st3" width="45.11367" height="376.54575"/>
                <rect x="1665.73645" y="1222.44373" class="st4" width="45.11367" height="22.51634"/>
            </g>
            <g>
                <rect x="1428.54089" y="1222.44373" class="st3" width="45.11367" height="376.54575"/>
                <rect x="1428.54089" y="1222.44373" class="st4" width="45.11367" height="22.51634"/>
            </g>
            <g>
                <rect x="1191.34546" y="1222.44373" class="st3" width="45.11367" height="376.54575"/>
                <rect x="1191.34546" y="1222.44373" class="st4" width="45.11367" height="22.51634"/>
            </g>
            <g>
                <rect x="954.1499" y="1222.44373" class="st3" width="45.11367" height="376.54575"/>
                <rect x="954.1499" y="1222.44373" class="st4" width="45.11367" height="22.51634"/>
            </g>
            <g>
                <rect x="716.95441" y="1222.44373" class="st3" width="45.11367" height="376.54575"/>
                <rect x="716.95441" y="1222.44373" class="st4" width="45.11367" height="22.51634"/>
            </g>
        </g>
        <path class="st3" d="M2087.29004,1234.27759H577.70996c-12.6709,0-22.94269-10.27185-22.94269-22.94275l0,0
                             c0-12.6709,10.27179-22.94263,22.94269-22.94263h1509.58008c12.6709,0,22.94263,10.27173,22.94263,22.94263l0,0
                             C2110.23267,1224.00574,2099.96094,1234.27759,2087.29004,1234.27759z"/>
    </g>
    <g>
        <circle class="st5" cx="1436.16248" cy="883.96094" r="39.98185"/>
        <path class="st6" d="M1734.08838,1150.35828l-3.35034,9.45117l-4.40674,12.44934
                             c-8.15686,23.0332-29.81006,37.41467-52.92883,37.41467c-6.22461,0-12.55408-1.03735-18.75977-3.23608
                             c-29.22925-10.35535-44.53394-42.44958-34.16895-71.68848l4.302-12.13525l3.10291-8.76599
                             C1653.92883,1122.71838,1701.70862,1139.02246,1734.08838,1150.35828z"/>
        <path class="st5" d="M1693.94202,983.58081c-1.91199,0-3.85547-0.25287-5.78784-0.78076l-235.36719-64.37476
                             c-11.66211-3.18903-18.53003-15.22858-15.34106-26.89075c3.18994-11.66168,15.23608-18.5296,26.89075-15.34009l235.36719,64.37378
                             c11.66211,3.19,18.53003,15.22949,15.34094,26.89075C1712.38379,977.18787,1703.56299,983.58081,1693.94202,983.58081z"/>

        <rect x="1646.7467" y="898.51068" transform="matrix(0.26382 -0.96457 0.96457 0.26382 310.85452 2320.73071)" class="st7" width="58.05999" height="116.41737"/>
        <path class="st5" d="M1864.06348,1014.14667c-0.95361,0-1.91199-0.00745-2.88049-0.02045
                             c-26.34424-0.3653-59.75891-5.80737-102.15247-16.63763c-11.71423-2.992-18.78467-14.91443-15.79175-26.62769
                             c2.99292-11.71423,14.91345-18.78662,26.62769-15.79187c93.47107,23.87646,125.02869,15.31226,135.04297,3.92426
                             c11.12585-12.65393,7.72852-43.57764-9.56531-87.07306c-4.46704-11.23456,1.01868-23.96332,12.2533-28.43042
                             c11.2356-4.46753,23.96289,1.02014,28.42993,12.25378c24.71765,62.16583,25.29395,105.39496,1.76135,132.1593
                             C1922.27478,1005.5481,1898.13623,1014.14667,1864.06348,1014.14667z"/>
        <path class="st7" d="M1845.90698,1021.13727c-26.04858-2.63226-76.65405-14.06018-102.43311-20.64648l14.36975-56.25201
                             c30.0426,7.67468,74.48462,17.17212,93.90051,19.1333L1845.90698,1021.13727z"/>
        <g>
            <path class="st8" d="M1833.1239,960.63745c-6.09045-1.06311-12.83423-2.35065-19.87366-3.77545l-6.74402,57.86163
                                 c6.89697,1.36261,13.62354,2.61121,19.88452,3.6637L1833.1239,960.63745z"/>
            <path class="st8" d="M1760.58435,1004.69116c6.17383,1.4649,12.86914,3.00549,19.78259,4.53748l6.7594-57.9751
                                 c-6.79163-1.53552-13.47534-3.10468-19.77258-4.64227L1760.58435,1004.69116z"/>
        </g>
        <g>
            <polygon class="st8" points="1739.58215,944.07422 1736.96729,943.35907 1722.44788,999.58038 1724.2644,1000.07715 		"/>
            <polygon class="st8" points="1711.30969,936.34161 1691.84521,931.01794 1677.32581,987.2392 1696.78833,992.56232 		"/>
            <polygon class="st8" points="1632.20386,974.89813 1651.66602,980.22113 1666.18738,924.00037 1646.72314,918.67682 		"/>
        </g>
        <circle class="st5" cx="1915.6853" cy="843.97913" r="37.05825"/>
        <path class="st7" d="M1784.02844,1009.42731l-45.55237,128.55768l-4.3877,12.37329
                             c-32.37976-11.33582-80.15955-27.63989-106.20972-36.51062l4.63501-13.06799l45.65723-128.86224
                             c10.35547-29.22931,42.44971-44.52454,71.68848-34.17859C1779.08875,948.10376,1794.39343,980.19794,1784.02844,1009.42731z"/>
        <path class="st6" d="M1817.71228,827.96124h11.3175c11.3468,0,20.54517-9.19836,20.54517-20.54504v-50.37701h-31.86267V827.96124z"
              />
        <path class="st9" d="M1609.83557,785.01007c-6.43799,14.2674-4.63123,30.31079,3.3999,43.42798
                             c15.14905-2.65753,28.3739-11.91821,34.81177-26.18561c6.43799-14.2674,4.63123-30.31085-3.3999-43.42798
                             C1629.49829,761.48193,1616.27344,770.74261,1609.83557,785.01007z"/>
        <path class="st10" d="M1600.90137,751.51849c-13.17786,8.44678-20.41431,22.87909-20.83765,38.25366
                              c14.14673,6.03552,30.28235,5.487,43.46021-2.95978c13.17798-8.44678,20.41431-22.87903,20.83765-38.25366
                              C1630.21484,742.52325,1614.07935,743.07178,1600.90137,751.51849z"/>
        <rect x="1634.96936" y="758.72107" class="st6" width="42.06344" height="106.90813"/>
        <g>
            <path class="st5" d="M1677.03284,881.29138h-24.00098c-11.47949,0-20.7854-9.30597-20.7854-20.78546v-0.00006
                                 c0-11.47949,9.30591-20.78546,20.7854-20.78546h24.00098V881.29138z"/>
            <path class="st11" d="M1653.0321,870.82153c-5.68799,0-10.3158-4.62787-10.3158-10.3158s4.62781-10.31586,10.3158-10.31586
                                  h13.53088v20.63165H1653.0321z"/>
        </g>
        <path class="st5" d="M1760.32458,935.26678h-19.33215c-43.15076,0-78.13135-34.98065-78.13135-78.13141V757.03918h175.59485
                             v100.09619C1838.45593,900.28613,1803.47534,935.26678,1760.32458,935.26678z"/>
        <ellipse class="st6" cx="1728.02258" cy="827.96124" rx="13.37811" ry="16.01789"/>
        <ellipse class="st6" cx="1816.26831" cy="827.19025" rx="13.37811" ry="16.01789"/>
        <path class="st6" d="M1758.03931,810.14203c-2.1759,0-4.30859-1.0647-5.58606-3.02313
                             c-5.10339-7.82385-17.52954-18.79681-43.40161-4.40662c-3.2146,1.78925-7.27173,0.63202-9.06104-2.5835
                             c-1.7887-3.21558-0.63196-7.27228,2.5835-9.06104c37.66064-20.95093,56.24182,1.4165,61.03931,8.77057
                             c2.0105,3.08215,1.14185,7.20996-1.93982,9.2204C1760.55029,809.79163,1759.2876,810.14203,1758.03931,810.14203z"/>
        <path class="st6" d="M1841.78186,804.38586c-1.89343,0.29358-3.89294-0.34515-5.26892-1.87695
                             c-5.49646-6.11963-17.79016-13.99139-38.36182,2.02161c-2.55591,1.99072-6.24255,1.53113-8.2334-1.02551
                             c-1.99036-2.55676-1.53125-6.24292,1.02551-8.23334c29.9447-23.31262,49.13184-6.35608,54.29871-0.60406
                             c2.16541,2.41077,1.96655,6.11993-0.44385,8.28522C1843.91956,803.74213,1842.86804,804.21741,1841.78186,804.38586z"/>
        <path class="st6" d="M1673.40283,857.3186h-0.00012c-7.27148,0-13.16626-5.89478-13.16626-13.16638v-49.93481h26.33264v49.93481
                             C1686.56909,851.42383,1680.67432,857.3186,1673.40283,857.3186z"/>
        <path class="st6" d="M1662.29419,807.51447h-12.27258v-67.87354h65.45142v14.6947
                             C1715.47302,783.70551,1691.66406,807.51447,1662.29419,807.51447z"/>
        <path class="st9" d="M1754.36182,648.66742h-25.42627c-55.22522,0-99.99414,44.76892-99.99414,99.99414v10.34125
                             c0,4.9043,3.97571,8.88,8.88,8.88h207.65454c4.9043,0,8.88-3.97571,8.88-8.88v-10.34125
                             C1854.35596,693.43634,1809.58704,648.66742,1754.36182,648.66742z"/>
        <g>
            <path class="st12" d="M1783.66956,912.48523h-0.00012c-10.61523,0-19.2207-8.60541-19.2207-19.2207v-11.18872
                                  c0-6.21558,5.0387-11.25427,11.25427-11.25427h27.18726v22.44299C1802.89026,903.87982,1794.28479,912.48523,1783.66956,912.48523
                                  z"/>
            <path class="st13" d="M1798.93909,881.29138v-10.46985h-23.23596c-5.95081,0-10.8103,4.62189-11.21472,10.46985H1798.93909z"/>
            <path class="st14" d="M1773.26416,891.20172c-3.12756,0-6.10645,0.6355-8.81543,1.78381v0.27893
                                  c0,10.61536,8.60535,19.22076,19.2207,19.22076h0.00024c4.35669,0,8.36133-1.46649,11.58496-3.90961
                                  C1792.89331,898.61462,1783.94727,891.20172,1773.26416,891.20172z"/>
        </g>
        <path class="st5" d="M1739.38928,969.15857h-0.00012c-13.04346-1.93298-22.05042-14.07373-20.11743-27.11725l4.73804-31.97284
                             l47.23474,6.99982l-4.73804,31.97278C1764.57349,962.08459,1752.43274,971.09149,1739.38928,969.15857z"/>
        <polygon class="st15" points="1738.47607,1137.98499 1730.73804,1159.80945 1624.77576,1122.61365 1632.51367,1100.77966 	"/>
        <g>
            <polygon class="st8" points="1746.48462,1115.3833 1754.21887,1093.55554 1648.20911,1056.4812 1640.47375,1078.31348 		"/>
            <path class="st8" d="M1686.77014,956.20502c-3.59631,4.62592-6.53528,9.88678-8.59924,15.7124l-1.83411,5.1767l106.01294,37.07068
                                 l1.67871-4.73749c2.11987-5.97803,3.14905-12.07434,3.22205-18.08167L1686.77014,956.20502z"/>
            <polygon class="st8" points="1666.14075,1005.87128 1658.40527,1027.70386 1764.41711,1064.77405 1772.15149,1042.94604 		"/>
        </g>
        <path class="st16" d="M1686.47314,1155.34082l-44.229-15.52466c-2.72803-0.95764-4.16309-3.94568-3.20569-6.67322
                              l11.66345-33.22852c0.9574-2.72754,3.94519-4.16321,6.6731-3.20557l44.229,15.52466c2.72754,0.9574,4.16309,3.94556,3.20569,6.6731
                              l-11.66345,33.22852C1692.18884,1154.86267,1689.20068,1156.2981,1686.47314,1155.34082z M1650.651,1131.67114l34.35022,12.05713
                              l8.19592-23.34985l-34.35022-12.05713L1650.651,1131.67114z"/>
        <g>
            <rect x="1813.05237" y="809.42755" class="st17" width="46.53843" height="32.28321"/>
            <path class="st16" d="M1868.18066,854.90149h147.0033c4.74402,0,8.58984-3.84583,8.58984-8.58984v-41.48492
                                  c0-4.74408-3.84583-8.5899-8.58984-8.5899h-147.0033c-4.74402,0-8.58984,3.84583-8.58984,8.5899v41.48492
                                  C1859.59082,851.05566,1863.43665,854.90149,1868.18066,854.90149z"/>
            <path class="st16" d="M1820.49121,801.95123h-11.60156c-2.32751,0-4.21448,1.88696-4.21448,4.2146v38.80664
                                  c0,2.32764,1.88696,4.2146,4.21448,4.2146h11.60156c2.32751,0,4.21436-1.88696,4.21436-4.2146v-38.80664
                                  C1824.70557,803.8382,1822.81873,801.95123,1820.49121,801.95123z"/>
            <path class="st17" d="M2038.40564,865.56537H2013.901c-4.79773,0-8.68701-3.88928-8.68701-8.68695v-62.61847
                                  c0-4.79773,3.88928-8.68701,8.68701-8.68701h24.50464c4.79761,0,8.68689,3.88928,8.68689,8.68701v62.61847
                                  C2047.09253,861.67609,2043.20325,865.56537,2038.40564,865.56537z"/>
            <path class="st18" d="M1990.80017,807.51447h-31.83826c-2.18127,0-3.94946-1.76819-3.94946-3.9494l0,0
                                  c0-2.18121,1.76819-3.9494,3.94946-3.9494h31.83826c2.18115,0,3.94934,1.76819,3.94934,3.9494l0,0
                                  C1994.74951,805.74628,1992.98132,807.51447,1990.80017,807.51447z"/>
            <path class="st18" d="M1941.30725,807.51447h-7.15991c-2.18115,0-3.94934-1.76819-3.94934-3.9494l0,0
                                  c0-2.18121,1.76819-3.9494,3.94934-3.9494h7.15991c2.18127,0,3.94946,1.76819,3.94946,3.9494l0,0
                                  C1945.25671,805.74628,1943.48853,807.51447,1941.30725,807.51447z"/>
        </g>
        <path class="st6" d="M1688.93579,1446.93958l-40.18506-33.54858c47.56885-56.97693,75.4104-98.29407,82.22815-112.83398
                             c-7.09277-18.19263-29.52856-68.5564-70.61243-99.14832l31.26392-41.98645
                             c59.29883,44.15393,86.32434,116.28796,91.14001,130.30078c5.48755,15.96936-1.58289,33.80603-29.09644,73.4093
                             C1736.94897,1387.20483,1713.9574,1416.96863,1688.93579,1446.93958z"/>
        <path class="st6" d="M1526.61365,1443.98486l-45.98132-25.02161c1.14697-2.10706,114.97827-211.41357,139.91895-266.96936
                             l47.75659,21.43933C1642.55396,1230.80151,1531.33533,1435.30627,1526.61365,1443.98486z"/>
        <g>
            <g>

                <rect x="1437.54871" y="1458.67712" transform="matrix(0.85825 0.51323 -0.51323 0.85825 979.02783 -537.93494)" class="st19" width="51.62763" height="89.46995"/>

                <rect x="1466.08789" y="1402.29736" transform="matrix(0.85825 0.51323 -0.51323 0.85825 949.71375 -567.40204)" class="st19" width="71.92654" height="66.625"/>

                <rect x="1451.45618" y="1455.27429" transform="matrix(0.85825 0.51323 -0.51323 0.85825 960.19739 -556.42426)" class="st16" width="71.92654" height="9.60695"/>
            </g>
            <g>
                <polygon class="st19" points="1659.97681,1478.15112 1622.65552,1442.47852 1547.40503,1516.5625 1598.15674,1542.82849 			"/>

                <rect x="1627.21838" y="1401.8197" transform="matrix(0.72289 0.69096 -0.69096 0.72289 1452.4939 -751.50635)" class="st19" width="71.92654" height="66.625"/>

                <rect x="1607.51978" y="1450.93774" transform="matrix(0.72289 0.69096 -0.69096 0.72289 1461.27527 -732.18457)" class="st16" width="71.92654" height="9.60695"/>
            </g>
            <g>
                <path class="st19" d="M1628.31702,1516.5625h-80.91199v52.25781h33.51807c0.06824-4.22888,3.51208-7.63745,7.75745-7.63745
                                      c4.24512,0,7.68896,3.40857,7.75708,7.63745h59.64551v-24.4917C1656.08313,1528.99377,1643.65198,1516.5625,1628.31702,1516.5625
                                      z"/>
                <path class="st20" d="M1547.40503,1557.57849v11.24182h33.51807c0.06824-4.22888,3.51208-7.63745,7.75745-7.63745
                                      c4.24512,0,7.68896,3.40857,7.75708,7.63745h59.64551v-11.24182H1547.40503z"/>
            </g>
            <g>
                <path class="st19" d="M1383.19824,1516.5625h80.91199v52.25781h-33.51807c-0.06824-4.22888-3.51208-7.63745-7.75745-7.63745
                                      c-4.24512,0-7.68896,3.40857-7.75708,7.63745h-59.64551v-24.4917
                                      C1355.43213,1528.99377,1367.86328,1516.5625,1383.19824,1516.5625z"/>
                <path class="st20" d="M1464.11023,1557.57849v11.24182h-33.51807c-0.06824-4.22888-3.51208-7.63745-7.75745-7.63745
                                      c-4.24512,0-7.68896,3.40857-7.75708,7.63745h-59.64551v-11.24182H1464.11023z"/>
            </g>
        </g>
        <path class="st5" d="M1907.75452,808.87469l-0.23718-0.18066c-2.41821-1.84174-5.87146-1.37457-7.71338,1.04346l-18.08081,24.3161
                             c-5.12183,6.88812-3.74866,16.61487,3.07983,21.81592l21.00989,16.00293l5.91553-7.76672l0.42834-0.56207l0.00024-0.00055
                             l2.4989-3.28058l-0.32104-0.24426c4.38916-8.93207,2.00793-20.00635-6.20813-26.26459l-0.42566-0.32416l2.85596-3.83875
                             C1915.50354,823.09631,1914.24902,813.82135,1907.75452,808.87469z"/>
    </g>
    <rect x="1243.40674" y="103.4297" class="st21" width="178.18652" height="1495.55981"/>
    <rect x="1243.40674" y="870.68579" class="st22" width="178.18652" height="515.0517"/>
    <polygon class="st23" points="1243.40674,870.68579 1421.59326,870.68579 1421.59326,934.92566 1243.40674,898.24121 "/>
    <path class="st24" d="M1226.46008,823.13745h212.07983c12.80017,0,23.17676,10.37659,23.17676,23.17676v9.79083
                          c0,12.80017-10.37659,23.17676-23.17676,23.17676h-212.07983c-12.80017,0-23.17676-10.37659-23.17676-23.17676v-9.79083
                          C1203.28333,833.51404,1213.65991,823.13745,1226.46008,823.13745z"/>
    <path class="st24" d="M1226.46008,1380.38623h212.07983c12.80017,0,23.17676,10.37659,23.17676,23.17676v9.79089
                          c0,12.80017-10.37659,23.17676-23.17676,23.17676h-212.07983c-12.80017,0-23.17676-10.37659-23.17676-23.17676v-9.79089
                          C1203.28333,1390.76282,1213.65991,1380.38623,1226.46008,1380.38623z"/>
    <g>
        <circle class="st16" cx="975.18634" cy="1136.46777" r="20.67601"/>
        <path class="st5" d="M1067.91235,968.30084c-13.31995,24.63708-26.70618,49.18317-40.27148,73.73468
                             c-6.77716,12.27612-13.61627,24.53931-20.55133,36.82263c-6.96808,12.30872-13.89978,24.51416-21.5885,37.13281l-61.98138-51.93347
                             c9.99298-8.56885,20.26379-17.9447,30.42639-27.26941c10.18335-9.36072,20.36536-18.8186,30.51941-28.3335
                             c20.31165-19.01886,40.58447-38.21246,60.75208-57.44592L1067.91235,968.30084z"/>
        <circle class="st5" cx="933.99194" cy="1096.85974" r="61.87038"/>
        <g>

            <ellipse transform="matrix(0.96559 -0.26008 0.26008 0.96559 -247.38231 271.88681)" class="st16" cx="903.73694" cy="1070.77185" rx="62.57847" ry="56.80251"/>
            <path class="st17" d="M964.16187,1054.4967c-8.15869-30.29163-41.82605-47.56116-75.19781-38.57269
                                  c-7.71509,2.07806-14.72736,5.38959-20.86652,9.60907c3.73395,5.23718,6.50299,9.11926,6.79309,9.31274
                                  c0.95178,0.63452,13.00781,39.97498,13.00781,39.97498c17.76666,3.80713,34.58154,36.16785,3.14746,52.47034
                                  c8.80353,1.29712,18.14465,0.83875,27.46399-1.67139C951.88159,1116.63123,972.32086,1084.78833,964.16187,1054.4967z"/>
            <path class="st25" d="M864.65845,1096.10059c-6.65771-4.27771-8.06647-12.56836-9.25549-19.7998
                                  c-0.88721-5.39453-9.09485-3.10583-8.21173,2.26404c1.60205,9.74207,4.43896,19.27966,13.16907,24.88904
                                  C864.98456,1106.42505,869.25934,1099.05688,864.65845,1096.10059z"/>
            <g>
                <path class="st26" d="M913.33856,1049.63171c-40.48102-58.33246-135.71771-173.13947-134.97046-300.06641
                                      c0.10559-17.93958-154.31586,173.56744,80.41626,328.71936C893.09991,1100.96643,923.94946,1064.92188,913.33856,1049.63171z"/>
                <g>
                    <path class="st27" d="M846.10815,952.10394c-4.53784-7.35406-9.03357-14.92383-13.42352-22.69574
                                          c-1.43475,42.30634-2.86932,84.61267-4.30396,126.91907c4.42896,3.50684,9.04431,7.0011,13.83759,10.48096
                                          C843.51489,1028.57349,844.81152,990.33862,846.10815,952.10394z"/>
                    <path class="st27" d="M796.62805,1028.01685c4.30511,4.35278,8.8454,8.69812,13.65161,13.03064
                                          c1.57422-43.97461,5.79773-87.85443,11.6911-131.47284c-3.82733-7.43054-7.51575-15.01727-11.02155-22.74243
                                          C804.09192,933.638,798.87848,980.76056,796.62805,1028.01685z"/>
                </g>
                <path class="st28" d="M858.7843,1078.28467c11.0318,7.29175,21.70233,8.50818,30.75525,6.302
                                      C704.30286,944.42004,756.33728,817.67261,778.3681,749.56525C778.47375,731.62573,624.05231,923.13275,858.7843,1078.28467z"/>
            </g>
        </g>
        <path class="st16" d="M904.67114,1120.77649c-0.72559,0.7948-1.5979,1.84717-2.24152,3.35559
                              c-0.60974,1.51392-1.19531,3.27844-1.40802,5.27869c-0.33527,1.9635-0.27667,4.10864-0.19159,6.28174
                              c0.24286,2.16772,0.53802,4.4054,1.18054,6.57849c1.20105,4.36243,3.16492,8.63318,5.92023,12.27161
                              c2.75903,3.63196,6.22925,6.69275,10.32721,8.88208c4.09052,2.19812,8.83246,3.49585,13.90875,3.80225
                              c5.07715,0.31897,10.43506-0.32861,15.79633-1.61096c10.69305-2.86255,21.22943-8.15698,31.04279-14.66187l3.56543,4.46094
                              c-8.86816,8.37915-18.83533,15.97546-30.59418,21.46545c-5.94647,2.58911-12.35889,4.61816-19.23901,5.41772
                              c-6.85474,0.81067-14.19287,0.29016-21.20923-1.95691c-7.01984-2.21716-13.59961-6.11597-19.08856-11.13562
                              c-5.49945-5.03113-9.87335-11.15393-13.13885-17.86438c-1.67175-3.34656-2.91522-6.9104-3.98651-10.57117
                              c-0.91791-3.7135-1.69385-7.52136-1.87-11.54468c-0.2948-3.98352-0.00104-8.18298,0.79419-12.46851
                              c0.24268-1.08032,0.49988-2.16284,0.77106-3.24463c0.1178-0.5387,0.30188-1.08459,0.49817-1.63184l0.58368-1.63867
                              c0.70148-2.18311,1.91327-4.35767,3.03931-6.50293L904.67114,1120.77649z"/>
    </g>
    <g>
        <path class="st29" d="M2081.05518,733.63H583.94489c-13.73639,0-24.87201-11.13556-24.87201-24.87201v-0.00006
                              c0-13.73639,11.13562-24.87195,24.87201-24.87195h1497.11035c13.73633,0,24.87183,11.13556,24.87183,24.87195v0.00006
                              C2105.927,722.49445,2094.7915,733.63,2081.05518,733.63z"/>
        <g>
            <path class="st30" d="M2089.19238,90.35714H575.80768c-215.95685,533,10.37115,605.33575,10.37115,605.33575
                                  C717.52527,630.97144,1005.4505,589.09283,1332.5,589.09283s614.97461,41.8786,746.32104,106.60004
                                  C2078.82104,695.69287,2305.14917,623.35712,2089.19238,90.35714z"/>
            <path class="st31" d="M726.56909,648.13245c108.67584-26.52783,251.27991-45.41058,411.09644-53.94165
                                  c61.49792-6.1626,127.0481-9.45581,194.83447-9.45581s133.33655,3.29321,194.83447,9.45581
                                  c159.81641,8.53107,302.42053,27.41382,411.09631,53.94165c36.12329-66.30768,68.34033-219.06287-27.5957-557.77533H754.1651
                                  C658.22882,429.06958,690.4458,581.82477,726.56909,648.13245z"/>
            <path class="st30" d="M914.30078,614.23547c94.85699-12.42096,201.66492-20.62219,315.06921-23.73584
                                  c33.08655-3.7746,67.65295-5.76465,103.13-5.76465s70.04333,1.99005,103.13,5.76465
                                  c113.4043,3.11365,220.21228,11.31488,315.06921,23.73584c18.76892-79.71576,26.8335-233.42267-28.58862-523.87836H942.88947
                                  C887.46741,380.81281,895.5318,534.51971,914.30078,614.23547z"/>
            <path class="st31" d="M1163.83594,592.89441c54.57751-2.49841,111.0116-3.80157,168.66406-3.80157
                                  s114.08643,1.30316,168.66406,3.80157c5.09497-90.04395,4.88135-243.64029-14.15698-502.53726h-309.01416
                                  C1158.95459,349.25412,1158.74097,502.85046,1163.83594,592.89441z"/>
        </g>
    </g>
    <path class="st32" d="M1246.19141,1063.41394c-0.70911,0-1.42529-0.02319-2.15125-0.07251
                          c-5.75952-0.38477-14.46497-0.96753-57.75085-32.45081c-12.28296-8.9342-42.68628-31.698-59.66357-50.07568l37.75256-34.87585
                          c17.11633,18.5282,57.34839,47.9964,77.8313,61.05182c7.14343-10.33112,18.56348-30.10486,32.84119-60.72467
                          c17.20093-36.8891,28.36682-67.56189,29.81396-75.521l50.56738,9.1944c-3.46143,19.03754-22.60913,65.07458-38.86804,98.72546
                          c-7.15002,14.79822-17.89661,35.85925-28.49084,52.15582C1277.02869,1047.80994,1264.31531,1063.41394,1246.19141,1063.41394z
                          M1252.97058,1013.18402c0-0.00092,0-0.00092-0.00049-0.00092L1252.97058,1013.18402z"/>
    <g>
        <path class="st19" d="M1238.6394,1515.28638c-21.22461-109.89783-68.0387-275.31714-96.58484-323.88513l40.2074-23.63098
                              c20.09534,34.18982,43.0553,106.97546,54.95349,147.31946c18.61279,63.11255,36.26355,134.64612,47.2157,191.35168
                              L1238.6394,1515.28638z"/>
        <g>
            <path class="st19" d="M1145.97791,1224.16235c-4.61621,0.98987-9.2323,1.46582-13.77234,1.46582
                                  c-30.06702,0-57.09766-20.91077-63.67444-51.50122l-2.41748-11.22156c35.42542-8.42322,88.10657-20.80603,127.06335-29.36255
                                  l2.82678,13.16321C1203.57996,1181.9126,1181.18445,1216.58618,1145.97791,1224.16235z"/>
            <path class="st33" d="M1193.177,1133.54285c-38.95679,8.55652-91.63794,20.93933-127.06335,29.36255l-34.0835-158.44379
                                  c-7.56665-35.20654,14.82874-69.88007,50.03528-77.4563c35.18762-7.57617,69.87061,14.82886,77.44678,50.02588
                                  L1193.177,1133.54285z"/>
            <g>

                <rect x="1057.49194" y="1136.53967" transform="matrix(0.98403 -0.17798 0.17798 0.98403 -186.3232 219.18257)" class="st15" width="142.05298" height="23.16004"/>
                <path class="st16" d="M1155.64709,1166.42688l-46.1261,8.34265c-2.84497,0.51465-5.56848-1.375-6.08301-4.21948l-6.2677-34.65381
                                      c-0.5144-2.8446,1.37463-5.56848,4.2196-6.08301l46.1261-8.34265c2.8446-0.51453,5.56848,1.375,6.08301,4.2196l6.2677,34.65381
                                      C1160.3811,1163.18848,1158.49158,1165.91248,1155.64709,1166.42688z M1112.80884,1163.5354l35.82361-6.47925l-4.4043-24.35144
                                      l-35.82361,6.47937L1112.80884,1163.5354z"/>
            </g>
            <path class="st6" d="M1126.94214,946.4884c5.23486,29.02948,58.53479,183.70007,58.53479,224.14551
                                 c0,9.99377,45.80798-0.98706,34.80139-23.09839c-11.00671-22.11145-32.1709-200.68427-81.43884-214.28717
                                 C1126.46631,929.83215,1126.94214,946.4884,1126.94214,946.4884z"/>
            <path class="st6" d="M1060.89734,971.2348c4.65466,34.74017,22.46973,189.90497,19.86926,206.53754
                                 c-1.4137,9.04199-29.60852,11.42139-32.88123,0s5.13135-65.00854-10.72998-136.72485
                                 c-15.86145-71.71625-4.3689-101.94733,10.72998-103.26398C1051.7511,937.44641,1060.89734,971.2348,1060.89734,971.2348z"/>
        </g>
        <path class="st34" d="M1089.69287,921.86279c0,0,40.79028-1.38879,45.7146,1.83502s34.85107,28.37836,41.44617,35.07062
                              c2.43677,2.47266-34.54675-1.10217-43.58044-5.28925c-2.76184-1.28009-9.04871,27.84344-28.22205,41.31232
                              c-5.15527,3.6214-41.71313-11.93353-54.48975-18.32184c-4.28308-2.14154-24.24133,5.6864-29.98126,10.4696
                              c-2.85541,2.37946,3.02545-33.24554,24.27057-54.89728C1048.4198,928.40448,1089.69287,921.86279,1089.69287,921.86279z"/>
        <path class="st5" d="M1082.06091,927.00745c-9.15332,1.96875-17.42981,5.78284-24.55005,10.94934
                             c-9.98474,27.64276,33.4198,57.00372,48.01611,63.25928c23.29456-27.3576,18.74023-59.1731,13.96912-71.19391
                             C1107.97913,925.50946,1095.05737,924.20923,1082.06091,927.00745z"/>
        <g>
            <path class="st5" d="M1084.88794,955.53033h-0.00012c-12.51868,0-22.66711-10.14838-22.66711-22.66705v-17.78381h45.33423
                                 v17.78381C1107.55493,945.38196,1097.40662,955.53033,1084.88794,955.53033z"/>
            <path class="st35" d="M1062.2207,931.18988c5.71655,1.33167,11.66541,2.05847,17.78748,2.05847h27.53711
                                  c0.0022-0.12866,0.00964-0.25592,0.00964-0.38513v-17.78375h-45.33423V931.18988z"/>
        </g>
        <path class="st15" d="M1120.64734,976.58582c-21.5918,0-42.78772-3.84338-63.00793-11.42609
                              c-0.98438-0.36993-1.48352-1.46667-1.11401-2.45099c0.36804-0.9834,1.46301-1.48254,2.45056-1.11444
                              c19.92383,7.47205,40.77148,11.22809,62.09753,11.18347c0.00183,0,0.00317,0,0.00464,0c1.04932,0,1.90125,0.84955,1.90356,1.89893
                              c0.00232,1.05121-0.84766,1.9054-1.89893,1.9082C1120.93823,976.5849,1120.79224,976.58582,1120.64734,976.58582z"/>
        <path class="st15" d="M1070.5387,983.23999c-0.84167,0-1.61182-0.56329-1.8385-1.41565
                              c-0.27002-1.01587,0.33496-2.05878,1.35095-2.32831c19.77979-5.25714,38.33533-15.20721,53.66113-28.77478
                              c0.78625-0.69714,1.98901-0.62463,2.68713,0.16266c0.69653,0.78723,0.62366,1.99091-0.1637,2.68713
                              c-15.76721,13.95886-34.8573,24.19617-55.20679,29.60388C1070.86536,983.21857,1070.70081,983.23999,1070.5387,983.23999z"/>
        <path class="st15" d="M1115.6792,992.84796c-0.00879,0-0.0177,0-0.02649,0c-11.85547-0.16266-23.73279-1.5578-35.302-4.14636
                              c-1.02576-0.22961-1.67126-1.24738-1.44165-2.2735c0.22913-1.02618,1.2478-1.66846,2.27356-1.44257
                              c11.3136,2.53186,22.92883,3.89636,34.52222,4.0553c1.05115,0.01489,1.89185,0.87836,1.87744,1.92963
                              C1117.56787,992.01239,1116.71838,992.84796,1115.6792,992.84796z"/>
        <path class="st15" d="M1092.34656,998.48712c-0.71106,0-1.39331-0.39966-1.7196-1.08374
                              c-0.45264-0.94904-0.05017-2.08575,0.8988-2.53748c9.00208-4.29419,17.77405-9.27625,26.07092-14.80664
                              c0.87378-0.58459,2.05701-0.34668,2.63977,0.52795c0.58325,0.87463,0.34668,2.05695-0.52795,2.63971
                              c-8.44751,5.6308-17.37842,10.70294-26.54407,15.07526C1092.90002,998.42761,1092.62122,998.48712,1092.34656,998.48712z"/>
        <path class="st19" d="M1034.43579,1423.60168c-0.19983-0.39783-20.1933-40.27612-38.74341-80.65369
                              c-11.01337-23.97302-19.41541-43.53027-24.97229-58.12769c-3.58221-9.41003-6.01837-16.83093-7.44745-22.68579
                              c-1.32404-5.42529-5.35376-21.93469,7.25134-32.73523c3.13794-2.68896,10.4859-8.98438,64.93573-27.80078
                              c24.67615-8.52795,58.79358-19.36841,80.54199-24.21838l10.15271,45.51831c-30.40833,6.78247-88.87952,26.73096-114.77893,37.39294
                              c3.87549,11.14905,12.39319,32.52527,31.10962,72.72888c16.81287,36.11401,33.46729,69.33167,33.63367,69.6626
                              L1034.43579,1423.60168z M999.68219,1265.72424c-0.00049,0.00085,0,0-0.00092,0.00085
                              C999.68127,1265.7251,999.68219,1265.7251,999.68219,1265.72424z"/>

        <rect x="1030.70825" y="1367.7439" transform="matrix(0.90273 -0.43021 0.43021 0.90273 -505.07675 591.09796)" class="st6" width="47.82227" height="89.46995"/>
        <path class="st36" d="M1090.98926,1436.17615c-54.27478-66.86902-92.53815-19.02966-95.91052-4.81238v1.64575
                              C995.07874,1433.00952,1145.26404,1503.04504,1090.98926,1436.17615z"/>

        <rect x="986.39758" y="1309.3457" transform="matrix(0.90273 -0.43021 0.43021 0.90273 -478.43494 569.28821)" class="st6" width="66.625" height="66.625"/>

        <rect x="998.66241" y="1363.5907" transform="matrix(0.90273 -0.43021 0.43021 0.90273 -488.31375 577.06799)" class="st16" width="66.625" height="9.60695"/>
        <g>
            <path class="st33" d="M1087.65112,1477.95081v0.00012c-8.72839,16.51379-29.19116,22.8252-45.70508,14.09692l-31.86285-16.84094
                                  c-16.51385-8.72839-22.82532-29.19116-14.09698-45.70508h0.00006c8.72827-16.51392,29.1911-22.82532,45.70502-14.09705
                                  l31.86292,16.84106C1090.06799,1440.97412,1096.37939,1461.43701,1087.65112,1477.95081z"/>
            <path class="st37" d="M1077.60107,1472.63916c-5.7854,10.9458-19.39722,15.14453-30.34351,9.35889l-31.86279-16.84082
                                  c-10.94629-5.78564-15.14435-19.39771-9.35901-30.34363c5.78564-10.94629,19.39746-15.14502,30.34375-9.35938l31.86279,16.84094
                                  C1079.1886,1448.08081,1083.38672,1461.69287,1077.60107,1472.63916z"/>
        </g>
        <g>

            <rect x="1236.80078" y="1461.85767" transform="matrix(0.97506 -0.22196 0.22196 0.97506 -302.95251 317.4595)" class="st6" width="48.25742" height="89.46995"/>

            <rect x="1208.53784" y="1397.51013" transform="matrix(0.97506 -0.22196 0.22196 0.97506 -286.60284 311.40189)" class="st6" width="67.23125" height="66.625"/>

            <rect x="1214.86572" y="1453.81702" transform="matrix(0.97506 -0.22196 0.22196 0.97506 -292.61508 313.49985)" class="st16" width="67.23125" height="9.60695"/>
            <path class="st6" d="M1315.02087,1526.89246h-72.74207v46.98132h30.13367c0.0614-3.80188,3.15747-6.86633,6.97412-6.86633
                                 c3.81641,0,6.9126,3.06445,6.97388,6.86633h53.62292v-22.0188C1339.9834,1538.06848,1328.80737,1526.89246,1315.02087,1526.89246z
                                 "/>
            <path class="st36" d="M1242.27881,1563.76697v10.10681h30.13367c0.0614-3.80188,3.15747-6.86633,6.97412-6.86633
                                  c3.81641,0,6.9126,3.06445,6.97388,6.86633h53.62292v-10.10681H1242.27881z"/>
        </g>
    </g>
    <g>
        <path class="st6" d="M1301.87085,748.10773c0.44739,47.71301-67.22473,52.71936-100.68945,53.18579v-54.75629
                             c-90.94312-53.80444-205.03357-27.05927-238.24146-7.31921v62.0755c-33.4552-0.45691-101.1463-5.47278-100.69891-53.18579
                             c0.47589-51.25372,44.63879-50.61597,61.54254-56.58368c16.90369-5.97723,27.75397-15.86627,41.87854-48.39838
                             c14.12445-32.52246,41.6311-76.64728,116.39392-76.64728c74.7627,0,102.26929,44.12482,116.40332,76.64728
                             c14.12451,32.5321,24.97485,42.42114,41.87854,48.39838C1257.2417,697.49176,1301.39502,696.854,1301.87085,748.10773z"/>
        <path class="st16" d="M1240.33789,691.52405c-16.90369-5.97723-27.75403-15.86627-41.87854-48.39838
                              c-14.13403-32.52246-41.64063-76.64728-116.40332-76.64728c-74.76282,0-102.26947,44.12482-116.39392,76.64728
                              c-14.12457,32.5321-24.97485,42.42114-41.87854,48.39838c-16.90375,5.96771-61.06665,5.32996-61.54254,56.58368
                              c-0.44739,47.71301,67.24371,52.72888,100.69891,53.18579v-10.77728l-10.46967,0.00012
                              c-19.91406-0.90253-36.41931-3.58173-49.1731-7.98981c-30.80896-10.64899-30.64166-28.4657-30.58685-34.32098
                              c0.29419-31.67383,18.66907-38.3089,42.66028-43.69196c4.33093-0.9718,8.422-1.88965,11.89825-3.117
                              c21.64801-7.65521,33.75818-21.30646,47.9964-54.1012c14.22473-32.75208,39.21796-70.34711,106.79053-70.34711
                              c67.56384,0,92.56677,37.59644,106.80078,70.35034c14.23865,32.7915,26.3479,46.44275,47.99084,54.09607
                              c3.48083,1.22925,7.57056,2.14709,11.901,3.11841c23.98706,5.38263,42.35913,12.0177,42.65283,43.69153
                              c0.05579,5.85571,0.22217,23.67242-30.578,34.31818c-12.74219,4.40436-29.24878,7.08405-49.17212,7.99121l-10.46973,0.00012
                              v10.77936c33.46472-0.46643,101.13684-5.47278,100.68945-53.18579C1301.39502,696.854,1257.2417,697.49176,1240.33789,691.52405z"
              />
        <path class="st38" d="M1201.1814,746.53723v88.02112H962.93994v-95.34033
                              C996.14783,719.47797,1110.23828,692.73279,1201.1814,746.53723z"/>
        <g>
            <g>
                <path class="st5" d="M994.9978,864.70844h-24.00092c-11.47949,0-20.78546-9.30597-20.78546-20.78546v-0.00006
                                     c0-11.47949,9.30597-20.78546,20.78546-20.78546h24.00092V864.70844z"/>
                <path class="st11" d="M970.99707,854.23859c-5.68793,0-10.3158-4.62787-10.3158-10.3158s4.62787-10.3158,10.3158-10.3158
                                      h13.53088v20.63159H970.99707z"/>
            </g>
            <g>
                <path class="st5" d="M1169.12219,864.70844h24.00085c11.47949,0,20.78552-9.30597,20.78552-20.78546v-0.00006
                                     c0-11.47949-9.30603-20.78546-20.78552-20.78546h-24.00085V864.70844z"/>
                <path class="st11" d="M1193.12292,854.23859c5.68787,0,10.3158-4.62787,10.3158-10.3158s-4.62793-10.3158-10.3158-10.3158
                                      h-13.53088v20.63159H1193.12292z"/>
            </g>
        </g>
        <path class="st5" d="M1100.29211,927.53772h-36.46423c-43.15076,0-78.13141-34.98065-78.13141-78.13141v-74.60388
                             c0-14.07898,11.41333-25.49231,25.49237-25.49231h141.74231c14.07898,0,25.49231,11.41333,25.49231,25.49231v74.60388
                             C1178.42346,892.55707,1143.44287,927.53772,1100.29211,927.53772z"/>
        <ellipse class="st39" cx="1030.93958" cy="809.58508" rx="13.64226" ry="16.33416"/>
        <path class="st38" d="M1059.60938,796.75549c-2.1759,0-4.30859-1.0647-5.58618-3.02313
                              c-5.10327-7.82385-17.52954-18.79681-43.40149-4.40668c-3.2146,1.78925-7.27179,0.63208-9.06104-2.58344
                              c-1.78876-3.21558-0.63208-7.27228,2.5835-9.06104c37.66052-20.95093,56.24182,1.4165,61.03931,8.77057
                              c2.0105,3.08215,1.14185,7.20996-1.93982,9.2204C1062.12036,796.40509,1060.85767,796.75549,1059.60938,796.75549z"/>
        <path class="st38" d="M1099.53101,795.32782c2.1759,0,4.30859-1.0647,5.58618-3.02313
                              c5.10327-7.82391,17.52954-18.79681,43.40149-4.40668c3.2146,1.78925,7.27185,0.63208,9.06104-2.5835
                              c1.78882-3.21552,0.63208-7.27222-2.5835-9.06097c-37.66052-20.95093-56.2417,1.4165-61.03931,8.77057
                              c-2.01038,3.08209-1.14185,7.20996,1.93994,9.2204C1097.02002,794.97742,1098.28271,795.32782,1099.53101,795.32782z"/>
        <g>
            <path class="st12" d="M1050.44727,862.43481c-5.35498,0-9.84265,4.27173-9.86047,9.62671
                                  c-0.00012,0.03375-0.00012,0.0675-0.00012,0.10126c0,19.60602,18.56824,35.49982,41.47327,35.49982
                                  c22.90515,0,41.47339-15.8938,41.47339-35.49982c0-0.03375-0.00012-0.0675-0.00024-0.1012
                                  c-0.01782-5.35498-4.50537-9.62677-9.86035-9.62677H1050.44727z"/>
            <path class="st13" d="M1116.23462,862.78009c-0.8208-0.21857-1.67749-0.34528-2.56189-0.34528h-63.22546
                                  c-0.8844,0-1.74109,0.12665-2.56189,0.34521v7.29828c0,2.90729,2.35681,5.2641,5.26416,5.2641h57.82092
                                  c2.90735,0,5.26416-2.35681,5.26416-5.2641V862.78009z"/>
            <path class="st14" d="M1082.05994,907.6626c9.61633,0,18.46069-2.8092,25.495-7.51056
                                  c-3.90918-10.27655-13.84644-17.58154-25.495-17.58154c-11.64844,0-21.58569,7.30499-25.495,17.58154
                                  C1063.59937,904.85339,1072.44373,907.6626,1082.05994,907.6626z"/>
        </g>
        <path class="st40" d="M1210.21875,758.03528c-1.172,0-2.35486-0.35968-3.37256-1.10608
                              c-16.81104-12.32764-54.7677-28.20917-98.37744-33.94684c-39.0116-5.13074-97.63837-4.17896-155.37897,29.51508
                              c-2.7243,1.58899-6.22101,0.66968-7.81042-2.05414c-1.58984-2.72382-0.67017-6.22101,2.05414-7.81042
                              c60.52765-35.32153,121.84485-36.3407,162.62524-30.97437c45.85168,6.03278,85.09229,22.45807,103.64148,36.06049
                              c2.54346,1.86499,3.09326,5.43884,1.22827,7.98193C1213.70984,757.22662,1211.97595,758.03528,1210.21875,758.03528z"/>
        <path class="st40" d="M1203.44421,819.74011c-0.32288,0-0.65015-0.02747-0.97913-0.08411
                              c-8.70093-1.50299-32.47925-10.16528-42.29871-13.81952c-19.66357-7.31311-42.00732-16.25562-62.91541-25.17908
                              c-26.75928-11.41309-75.31427-33.15173-99.83344-50.50226c-2.57471-1.82227-3.18488-5.38586-1.3631-7.96057
                              c1.82227-2.57416,5.38538-3.18439,7.96051-1.36304c17.53046,12.4057,52.23431,29.92126,97.71832,49.32043
                              c20.74878,8.85559,42.91455,17.72699,62.41589,24.98016c23.34717,8.68878,36.1051,12.55121,40.26038,13.2688
                              c3.10767,0.53723,5.19202,3.49158,4.65527,6.59973C1208.58472,817.77936,1206.17139,819.74011,1203.44421,819.74011z"/>
        <path class="st40" d="M1162.1582,800.48444v6.32941c0,16.16394-13.10339,29.2674-29.26733,29.2674h-7.85229
                              c-16.16394,0-29.26733-13.10345-29.26733-29.2674v-31.40894C1095.77124,775.40491,1143.9126,793.69818,1162.1582,800.48444z"/>
        <g>
            <path class="st41" d="M1122.31152,680.6814l-33.42432-7.80615l33.42432-7.80615c1.58704-0.37048,2.57349-1.95752,2.20239-3.54456
                                  c-0.37085-1.5874-1.95801-2.57422-3.54456-2.20251l-45.05713,10.52295l-45.05725-10.52295
                                  c-1.58447-0.37012-3.17371,0.61548-3.54456,2.20251c-0.37061,1.58704,0.61536,3.17407,2.20239,3.54456l33.42432,7.80615
                                  l-33.42432,7.80615c-1.58704,0.37048-2.573,1.95752-2.20239,3.54456c0.31775,1.36145,1.53064,2.2807,2.87097,2.2807
                                  c0.22241,0,0.448-0.02551,0.67358-0.07819l45.05725-10.52301l45.05713,10.52301c0.22559,0.05267,0.45129,0.07819,0.67358,0.07819
                                  c1.33997,0,2.55334-0.91925,2.87097-2.2807C1124.88501,682.63892,1123.89856,681.05188,1122.31152,680.6814z"/>
            <path class="st41" d="M1053.42957,648.51337h3.89404v11.5625h7.76416v-5.72821c0-2.1344,1.73022-3.86462,3.8645-3.86462
                                  c2.1344,0,3.86475,1.73022,3.86475,3.86462v5.72821h6.19055v-5.72821c0-2.1344,1.73022-3.86462,3.8645-3.86462
                                  c2.13452,0,3.86487,1.73022,3.86487,3.86462v5.72821h7.76392v-11.5625h3.89404c3.38367,0,6.12671-2.74304,6.12671-6.12677
                                  v-26.54492c0-3.38379-2.74304-6.12683-6.12671-6.12683h-44.96533c-3.38367,0-6.12683,2.74304-6.12683,6.12683v26.54492
                                  C1047.30273,645.77032,1050.0459,648.51337,1053.42957,648.51337z M1085.03333,620.15302
                                  c0-2.14313,1.7373-3.88037,3.88013-3.88037c2.14331,0,3.88037,1.73724,3.88037,3.88037v13.43158
                                  c0,2.14294-1.73706,3.88025-3.88037,3.88025c-2.14282,0-3.88013-1.7373-3.88013-3.88025V620.15302z M1059.03052,620.15302
                                  c0-2.14313,1.73706-3.88037,3.88037-3.88037c2.14294,0,3.88013,1.73724,3.88013,3.88037v13.43158
                                  c0,2.14294-1.73718,3.88025-3.88013,3.88025c-2.14331,0-3.88037-1.7373-3.88037-3.88025V620.15302z"/>
        </g>
    </g>
    <g>
        <g>
            <path class="st42" d="M1316.82336,1089.41516c-5.78223,0-10.4696-4.68738-10.4696-10.4696V901.09637
                                  c0-5.78229,4.68738-10.4696,10.4696-10.4696c5.78235,0,10.46973,4.68732,10.46973,10.4696v177.84918
                                  C1327.29309,1084.72778,1322.60571,1089.41516,1316.82336,1089.41516z"/>
            <path class="st42" d="M1303.97437,938.28418l-6.53845-83.67993c-0.83667-10.7074,7.16516-20.06567,17.87268-20.90234
                                  c10.7074-0.83667,20.06567,7.16522,20.90234,17.87262c0.07715,0.98682,0.06824,2.07147,0,3.02972l-6.53845,83.67993
                                  c-0.55444,7.09637-6.75671,12.3996-13.85303,11.84515C1309.4032,949.62793,1304.45422,944.5061,1303.97437,938.28418z"/>
            <path class="st43" d="M1347.63196,935.58563h-61.61743c-6.30798,0-11.42151-5.11401-11.42151-11.42145
                                  s5.11353-11.42145,11.42151-11.42145h61.61743c6.30737,0,11.42139,5.11401,11.42139,11.42145
                                  S1353.93933,935.58563,1347.63196,935.58563z"/>
        </g>
        <g>
            <path class="st42" d="M1316.82336,1089.41516c-2.67969,0-5.3584-1.02148-7.4032-3.06628l-125.75793-125.75842
                                  c-4.08838-4.08881-4.08838-10.71783,0-14.80658c4.08875-4.08881,10.7168-4.08972,14.80652,0l125.75793,125.75836
                                  c4.08838,4.08875,4.08838,10.71777,0,14.80664C1322.18237,1088.39282,1319.50269,1089.41516,1316.82336,1089.41516z"/>
            <path class="st42" d="M1208.27539,988.56854l-63.79407-54.5473c-8.16284-6.97968-9.12207-19.25519-2.14233-27.41809
                                  c6.97961-8.16284,19.25513-9.12201,27.41809-2.14233c0.75232,0.64325,1.51294,1.4165,2.14233,2.14233l54.54736,63.79401
                                  c4.62573,5.40997,3.99011,13.54559-1.41992,18.17139C1220.13538,992.7511,1213.01428,992.6286,1208.27539,988.56854z"/>
            <path class="st43" d="M1185.59131,1002.70508c-2.92322,0-5.84595-1.11536-8.07617-3.34515
                                  c-4.46021-4.46057-4.46021-11.69196,0-16.15247l43.57019-43.57025c4.46057-4.45966,11.69189-4.45966,16.15247,0
                                  c4.46008,4.46057,4.46008,11.69189,0,16.15247l-43.57019,43.57025
                                  C1191.43726,1001.58972,1188.51453,1002.70508,1185.59131,1002.70508z"/>
        </g>
        <g>
            <path class="st42" d="M1316.82336,1089.41516h-177.84863c-5.78223,0-10.4696-4.68738-10.4696-10.4696
                                  c0-5.78235,4.68738-10.4696,10.4696-10.4696h177.84863c5.78235,0,10.46973,4.68726,10.46973,10.4696
                                  C1327.29309,1084.72778,1322.60571,1089.41516,1316.82336,1089.41516z"/>
            <path class="st42" d="M1176.16235,1091.79431l-83.67993,6.53845c-10.7074,0.83655-20.0658-7.16528-20.90247-17.87268
                                  c-0.83643-10.7074,7.16528-20.0658,17.8728-20.90247c0.98669-0.07703,2.07141-0.06812,3.02966,0l83.67993,6.53845
                                  c7.09631,0.55457,12.39954,6.75671,11.84509,13.85315C1187.5061,1086.3656,1182.38428,1091.31433,1176.16235,1091.79431z"/>
            <path class="st43" d="M1162.04211,1121.17542c-6.30798,0-11.42151-5.11389-11.42151-11.42139v-61.61792
                                  c0-6.30737,5.11353-11.42139,11.42151-11.42139c6.30786,0,11.42139,5.11401,11.42139,11.42139v61.61792
                                  C1173.4635,1116.06152,1168.34998,1121.17542,1162.04211,1121.17542z"/>
        </g>
        <g>
            <path class="st42" d="M1191.06543,1215.17261c-2.67969,0-5.3584-1.02148-7.4032-3.06628
                                  c-4.08838-4.08875-4.08838-10.71777,0-14.80664l125.75793-125.75745c4.08826-4.08777,10.71643-4.08972,14.80652,0
                                  c4.08838,4.08875,4.08838,10.71777,0,14.80664l-125.75793,125.75745
                                  C1196.42444,1214.15027,1193.74475,1215.17261,1191.06543,1215.17261z"/>
            <path class="st42" d="M1226.44678,1187.49329l-54.54736,63.79407c-6.97974,8.16284-19.25525,9.12195-27.41809,2.14233
                                  c-8.16284-6.97974-9.12207-19.25525-2.14233-27.41809c0.64331-0.75232,1.4165-1.51306,2.14233-2.14233l63.79407-54.54724
                                  c5.40991-4.62598,13.54553-3.99023,18.17139,1.41968C1230.62915,1175.6333,1230.50684,1182.75427,1226.44678,1187.49329z"/>
            <path class="st43" d="M1229.1615,1221.59912c-2.92322,0-5.84595-1.1145-8.07617-3.34521l-43.57019-43.57117
                                  c-4.46021-4.46057-4.46021-11.69189,0-16.15247c4.46143-4.45959,11.69275-4.46057,16.15247,0l43.57019,43.57117
                                  c4.46008,4.46057,4.46008,11.69189,0,16.15247C1235.00745,1220.48376,1232.08423,1221.59912,1229.1615,1221.59912z"/>
        </g>
        <g>
            <path class="st42" d="M1316.82336,1267.26343c-5.78223,0-10.4696-4.68738-10.4696-10.4696v-177.84827
                                  c0-5.78235,4.68738-10.4696,10.4696-10.4696c5.78235,0,10.46973,4.68726,10.46973,10.4696v177.84827
                                  C1327.29309,1262.57605,1322.60571,1267.26343,1316.82336,1267.26343z"/>
            <path class="st42" d="M1329.67249,1219.60632l6.53845,83.67981c0.83667,10.70752-7.16528,20.0658-17.87268,20.90247
                                  s-20.06567-7.16516-20.90234-17.87268c-0.07715-0.98682-0.06824-2.07141,0-3.02979l6.53845-83.67981
                                  c0.55432-7.09644,6.75671-12.39966,13.85303-11.84521C1324.24365,1208.26245,1329.19263,1213.3844,1329.67249,1219.60632z"/>
            <path class="st43" d="M1347.63196,1245.14832h-61.61743c-6.30798,0-11.42151-5.11401-11.42151-11.42139
                                  c0-6.3075,5.11353-11.42139,11.42151-11.42139h61.61743c6.30737,0,11.42139,5.11389,11.42139,11.42139
                                  C1359.05334,1240.0343,1353.93933,1245.14832,1347.63196,1245.14832z"/>
        </g>
        <g>
            <path class="st42" d="M1442.58179,1215.17261c-2.67969,0-5.3584-1.02234-7.4032-3.06628l-125.75842-125.75745
                                  c-4.08838-4.08887-4.08838-10.7179,0-14.80664c4.08875-4.08777,10.71777-4.08777,14.80652,0l125.75842,125.75745
                                  c4.08875,4.08887,4.08875,10.7179,0,14.80664C1447.94031,1214.15027,1445.26147,1215.17261,1442.58179,1215.17261z"/>
            <path class="st42" d="M1425.37146,1169.32202l63.79407,54.54724c8.16284,6.97961,9.12207,19.25513,2.14233,27.41809
                                  c-6.97986,8.16284-19.25513,9.12195-27.41809,2.14233c-0.75232-0.64319-1.51294-1.41663-2.14233-2.14233l-54.54736-63.79407
                                  c-4.62573-5.40991-3.99011-13.54553,1.41992-18.17126C1413.51147,1165.1394,1420.63257,1165.26172,1425.37146,1169.32202z"/>
            <path class="st43" d="M1404.48535,1221.59912c-2.92322,0-5.84558-1.11536-8.07629-3.34521
                                  c-4.46057-4.46057-4.46057-11.69189,0-16.15247l43.57019-43.57117c4.45972-4.45959,11.69104-4.45959,16.15247,0
                                  c4.46057,4.46057,4.46057,11.69189,0,16.15247l-43.57019,43.57117
                                  C1410.33167,1220.48376,1407.40857,1221.59912,1404.48535,1221.59912z"/>
        </g>
        <g>
            <path class="st42" d="M1494.67163,1089.41516h-177.84827c-5.78223,0-10.4696-4.68738-10.4696-10.4696
                                  c0-5.78235,4.68738-10.4696,10.4696-10.4696h177.84827c5.78235,0,10.4696,4.68726,10.4696,10.4696
                                  C1505.14124,1084.72778,1500.45398,1089.41516,1494.67163,1089.41516z"/>
            <path class="st42" d="M1457.4845,1066.09607l83.67993-6.53845c10.7074-0.83655,20.0658,7.16528,20.90234,17.8728
                                  c0.83655,10.7074-7.16528,20.06567-17.87268,20.90234c-0.98682,0.07715-2.07141,0.06824-3.02966,0l-83.67993-6.53845
                                  c-7.09631-0.55444-12.39954-6.75671-11.84509-13.85303C1446.14063,1071.5249,1451.26257,1066.57617,1457.4845,1066.09607z"/>
            <path class="st43" d="M1471.60474,1121.17542c-6.30737,0-11.42139-5.11389-11.42139-11.42139v-61.61792
                                  c0-6.30737,5.11401-11.42139,11.42139-11.42139c6.3075,0,11.42151,5.11401,11.42151,11.42139v61.61792
                                  C1483.02625,1116.06152,1477.91223,1121.17542,1471.60474,1121.17542z"/>
        </g>
        <g>
            <path class="st42" d="M1316.82336,1089.41516c-2.6792,0-5.35889-1.02234-7.4032-3.06628
                                  c-4.08838-4.08887-4.08838-10.7179,0-14.80664l125.75842-125.75836c4.0896-4.08789,10.7168-4.08789,14.80652,0
                                  c4.08875,4.08875,4.08875,10.71777,0,14.80658l-125.75842,125.75842
                                  C1322.18237,1088.39282,1319.50269,1089.41516,1316.82336,1089.41516z"/>
            <path class="st42" d="M1407.20007,970.39716l54.54736-63.79401c6.97974-8.16284,19.25513-9.12201,27.41809-2.14233
                                  c8.16284,6.97974,9.12207,19.25525,2.14233,27.41809c-0.64331,0.75232-1.4165,1.513-2.14233,2.14233l-63.79407,54.5473
                                  c-5.40991,4.62579-13.54553,3.99011-18.17139-1.41992C1403.01758,982.25714,1403.14001,975.13605,1407.20007,970.39716z"/>
            <path class="st43" d="M1448.05554,1002.70508c-2.92322,0-5.84644-1.11536-8.07629-3.34515l-43.57019-43.57025
                                  c-4.46057-4.46057-4.46057-11.69189,0-16.15247c4.45959-4.45966,11.69287-4.45966,16.15247,0l43.57019,43.57025
                                  c4.46057,4.46051,4.46057,11.69189,0,16.15247C1453.90198,1001.58972,1450.97876,1002.70508,1448.05554,1002.70508z"/>
        </g>
        <path class="st43" d="M1316.82336,1223.35864c-79.62976,0-144.41345-64.78381-144.41345-144.41309
                              c0-79.63025,64.78369-144.414,144.41345-144.414c79.62939,0,144.41309,64.78375,144.41309,144.414
                              C1461.23645,1158.57483,1396.45276,1223.35864,1316.82336,1223.35864z M1316.82336,960.2298
                              c-65.45984,0-118.71521,53.25537-118.71521,118.71576c0,65.45947,53.25537,118.71484,118.71521,118.71484
                              c65.45947,0,118.71484-53.25537,118.71484-118.71484C1435.53821,1013.48517,1382.28284,960.2298,1316.82336,960.2298z"/>
        <circle class="st43" cx="1316.82336" cy="1078.94519" r="44.41667"/>
    </g>
    <path class="st5" d="M1358.70203,870.68579c0,24.72394-10.92126,44.76666-37.94739,44.76666s-48.93506-20.04272-48.93506-44.76666
                         c0-24.72388,21.90894-44.7666,48.93506-44.7666S1358.70203,845.96191,1358.70203,870.68579z"/>
    <path class="st44" d="M1338.71448,1508.04199h-44.12v-436.54211c0-12.18347,9.87659-22.05994,22.05994-22.05994h0.00012
                          c12.18335,0,22.05994,9.87646,22.05994,22.05994V1508.04199z"/>
    <g>
        <rect x="962.44189" y="1433.00952" class="st45" width="135.52711" height="140.86429"/>
        <path class="st45" d="M1097.96887,1433.00952h0.00012c27.85974,0,50.44458,22.58484,50.44458,50.44458v90.41968h-100.88928
                              v-90.41968C1047.52429,1455.59436,1070.10913,1433.00952,1097.96887,1433.00952z"/>
        <path class="st46" d="M1097.96899,1433.00952L1097.96899,1433.00952c-2.36975,0-4.69714,0.17578-6.97974,0.49194
                              c24.55444,3.40051,43.46472,24.4624,43.46472,49.95264v90.41968h13.95959v-90.41968
                              C1148.41357,1455.59424,1125.82874,1433.00952,1097.96899,1433.00952z"/>
        <path class="st46" d="M980.52588,1433.00952L980.52588,1433.00952h-0.00012h-18.08392v3.35242
                              c-18.92358,7.27209-32.3606,25.60767-32.3606,47.09216v90.41968h32.3606h18.08405h50.44458v-90.41968
                              C1030.97046,1455.59424,1008.38562,1433.00952,980.52588,1433.00952z"/>
        <path class="st45" d="M962.44183,1433.00952h0.00006c27.8598,0,50.44464,22.58484,50.44464,50.44458v90.41968H911.99725v-90.41968
                              C911.99725,1455.59436,934.58203,1433.00952,962.44183,1433.00952z"/>
        <rect x="1019.71008" y="1499.63452" class="st46" width="120.7157" height="11.57967"/>
        <g>
            <g>
                <rect x="1075.86304" y="1496.46191" class="st39" width="23.0808" height="23.16012"/>
                <path class="st47" d="M1075.86304,1519.62207L1075.86304,1519.62207c-1.66467,0-3.01404-1.34949-3.01404-3.01404v-17.1322
                                      c0-1.66455,1.34937-3.01392,3.01404-3.01392l0,0c1.66455,0,3.01392,1.34937,3.01392,3.01392v17.1322
                                      C1078.87695,1518.27258,1077.52759,1519.62207,1075.86304,1519.62207z"/>
                <path class="st39" d="M1098.94385,1519.62207L1098.94385,1519.62207c-1.66467,0-3.01404-1.34949-3.01404-3.01404v-17.1322
                                      c0-1.66455,1.34937-3.01392,3.01404-3.01392l0,0c1.66455,0,3.01392,1.34937,3.01392,3.01392v17.1322
                                      C1101.95776,1518.27258,1100.6084,1519.62207,1098.94385,1519.62207z"/>
            </g>
            <g>
                <circle class="st48" cx="1090.25879" cy="1507.16675" r="4.83556"/>
                <path class="st48" d="M1090.25879,1515.29932L1090.25879,1515.29932c-0.72839,0-1.31885-0.59045-1.31885-1.31873v-3.40723
                                      c0-0.72839,0.59045-1.31885,1.31885-1.31885l0,0c0.72827,0,1.31873,0.59045,1.31873,1.31885v3.40723
                                      C1091.57751,1514.70886,1090.98706,1515.29932,1090.25879,1515.29932z"/>
            </g>
        </g>
    </g>
    <path class="st43" d="M1365.93445,1489.48218h-98.55981c-18.75513,0-34.72302,13.64441-37.64807,32.16992l-8.24548,52.22168
                          H1411.828l-8.24561-52.22168C1400.65735,1503.12659,1384.68945,1489.48218,1365.93445,1489.48218z"/>
    <g>
        <path class="st44" d="M612.44623,1591.73511v19.31787c0,11.83691,9.59576,21.43274,21.4328,21.43274h1365.5509
                              c11.83704,0,21.43286-9.59583,21.43286-21.43274v-19.31787c0-11.83704-9.59583-21.43274-21.43286-21.43274H633.87903
                              C622.04199,1570.30237,612.44623,1579.89807,612.44623,1591.73511z"/>
        <rect x="679.15259" y="1632.48572" class="st49" width="1275.00391" height="167.51428"/>
        <rect x="679.15259" y="1691.49646" class="st45" width="1275.00391" height="23.80628"/>
        <rect x="679.15259" y="1762.88037" class="st45" width="1275.00391" height="23.80628"/>
        <rect x="679.15259" y="1632.48572" class="st50" width="1275.00391" height="22.84286"/>
        <g>
            <g>
                <path class="st50" d="M1687.13477,1717.50867c-49.99731,0-91.73328,35.38745-101.51758,82.49133h18.63599
                                      c8.48047-33.27441,36.47253-58.74414,71.06982-63.52222V1800h23.62329v-63.52222
                                      c34.58801,4.77808,62.57996,30.2478,71.06042,63.52222h18.63586
                                      C1778.8678,1752.89612,1737.13196,1717.50867,1687.13477,1717.50867z"/>
                <path class="st46" d="M1770.00671,1800h-71.06042v-63.52222C1733.5343,1741.25586,1761.52625,1766.72559,1770.00671,1800z"/>
                <path class="st46" d="M1675.323,1736.47778V1800h-71.06982C1612.73364,1766.72559,1640.72571,1741.25586,1675.323,1736.47778z"/>
            </g>
            <g>
                <path class="st50" d="M1349.9989,1717.50867c-49.99731,0-91.73315,35.38745-101.51758,82.49133h18.63611
                                      c8.48035-33.27441,36.47241-58.74414,71.0697-63.52222V1800h23.62341v-63.52222
                                      c34.58801,4.77808,62.57983,30.2478,71.0603,63.52222h18.63599
                                      C1441.73193,1752.89612,1399.99622,1717.50867,1349.9989,1717.50867z"/>
                <path class="st46" d="M1432.87085,1800h-71.0603v-63.52222C1396.39856,1741.25586,1424.39038,1766.72559,1432.87085,1800z"/>
                <path class="st46" d="M1338.18713,1736.47778V1800h-71.0697C1275.59778,1766.72559,1303.58984,1741.25586,1338.18713,1736.47778z
                                      "/>
            </g>
        </g>
    </g>
</svg>
