<svg xmlns="http://www.w3.org/2000/svg" viewBox="0 0 408 257.6042">
  <title>AI Systems Getting better all the time</title>
  <g style="isolation: isolate">
    <g id="Layer_2" data-name="Layer 2">
      <g id="Layer_1-2" data-name="Layer 1">
        <g>
          <path d="M303.1929,168.162l-6.43-4.7025a17.7179,17.7179,0,0,0-6.7689,13.9455c.0128.7374-1.0968.1567-1.28.7533-.2329.7573,3.0048,2.2468,3.7522,2.4579a3.3127,3.3127,0,0,0,3.7764-1.449l-.0456-1.68,1.55-.7017.11-1.8092,1.4831-.7136.1584-1.7209,1.4619-.8449.85-1.3459Z" fill="#324877"/>
          <path d="M294.1817,162.8092a17.7179,17.7179,0,0,0-6.7689,13.9456,3.3872,3.3872,0,0,0,6.2483,1.7622l-.0456-1.68,1.55-.7017.11-1.8092,1.483-.7136.1585-1.7209,1.4619-.8449.85-1.3459,1.3825-2.1891Z" fill="#576ca7"/>
          <path d="M165.658,29.7678l-7.356,3.057a17.718,17.718,0,0,1-3.2961-15.147c.1861-.7136-2.3919-1.4486-2.43-2.0717-.0481-.7908,4.812-.4382,5.5881-.4674a3.3126,3.3126,0,0,1,3.3292,2.2971l-.44,1.6221,1.3411,1.0467-.3187,1.7843,1.2734,1.0427-.2511,1.71,1.222,1.1653.5093,1.5081Z" fill="#b72c2c"/>
          <path d="M153.8206,32.8247a17.718,17.718,0,0,1-3.2961-15.147,3.3872,3.3872,0,0,1,6.4876-.2419l-.44,1.6221,1.3411,1.0467-.3187,1.7843,1.2734,1.0427-.2511,1.71,1.222,1.1653.5093,1.5081.8284,2.453Z" fill="#eb4040"/>
          <line x1="4.2591" y1="253.7364" x2="396.165" y2="253.7364" fill="none" stroke="#716f82" stroke-miterlimit="10" stroke-width="2.6977"/>
          <g>
            <rect x="226.8331" y="48.4848" width="3.699" height="22.8828" fill="#716f82"/>
            <rect x="237.2659" y="48.4848" width="3.6992" height="22.8828" fill="#716f82"/>
            <rect x="226.8331" y="48.4848" width="3.699" height="6.0694" fill="#4c4c5b"/>
            <rect x="237.2659" y="48.4848" width="3.6992" height="6.0694" fill="#4c4c5b"/>
          </g>
          <g>
            <path d="M155.1337,159.31c0,.6415,3.9784,13.5969,7.2353,24.0955,2.487,8.0169,9.701,13.9385,18.137,13.9385s14.6761-7.8357,15.3309-18.6148l1.6042-26.4076a29.6466,29.6466,0,0,1,9.9772-20.4325h0" fill="none" stroke="#df3a3a" stroke-miterlimit="10" stroke-width="1.3748"/>
            <g>
              <g>
                <g>
                  <g>
                    <g>
                      <g>
                        <path d="M87.4506,155.97h8.0942a1.0744,1.0744,0,0,1,1.0744,1.0744v0a1.0746,1.0746,0,0,1-1.0746,1.0746H87.4535a1.0758,1.0758,0,0,1-1.0758-1.0758v0a1.0729,1.0729,0,0,1,1.0729-1.0729Z" transform="translate(136.1754 333.2239) rotate(-164.0034)" fill="#f6af97"/>
                        <path d="M89.6281,158.3276h6.4977A1.0743,1.0743,0,0,1,97.2,159.4018v0a1.0748,1.0748,0,0,1-1.0748,1.0748H89.6276a1.0743,1.0743,0,0,1-1.0743-1.0743v0a1.0748,1.0748,0,0,1,1.0748-1.0748Z" transform="matrix(-0.9613, -0.2756, 0.2756, -0.9613, 138.2285, 338.2269)" fill="#f6af97"/>
                        <path d="M87.8306,159.9425h7.69a1.0745,1.0745,0,0,1,1.0745,1.0745v0a1.0745,1.0745,0,0,1-1.0745,1.0745H87.8287a1.0735,1.0735,0,0,1-1.0735-1.0735v0a1.0755,1.0755,0,0,1,1.0755-1.0755Z" transform="matrix(-0.9613, -0.2756, 0.2756, -0.9613, 135.4273, 341.0629)" fill="#f6af97"/>
                        <path d="M85.6832,156.1543h.0205a1.0651,1.0651,0,0,1,1.0651,1.0651v8.1147a1.0617,1.0617,0,0,1-1.0617,1.0617h-.0247a1.0626,1.0626,0,0,1-1.0626-1.0626v-8.1155A1.0634,1.0634,0,0,1,85.6832,156.1543Z" transform="translate(-89.2192 213.7958) rotate(-78.7291)" fill="#f6af97"/>
                      </g>
                      <path d="M93.2312,156.5036c-.0818-.0273-.9639-.4547-1.9184-.921a11.56,11.56,0,0,0-5.2985-1.17l-3.5118.0682s-.6744,5.8241-.4291,5.7628,7.7246,1.2874,7.7246,1.2874Z" fill="#f6af97"/>
                    </g>
                    <rect x="80.3772" y="153.9067" width="3.3515" height="8.9796" fill="#fff"/>
                  </g>
                  <path d="M63.9127,163.9136c-6.88,0-9.7443-3.1877-12.1161-8.32l-.2282-.494-5.9749-25.3058,10.5014-2.4794,5.72,24.2262a9.1682,9.1682,0,0,0,.8372,1.4954,6.9205,6.9205,0,0,0,1.3785.0869l17.6831-.1749.1068,10.79-17.6831.1749C64.0622,163.9134,63.987,163.9136,63.9127,163.9136Z" fill="#1d1d2e"/>
                </g>
                <g>
                  <path d="M133.1557,165.9507H90.1749l11.46-41.3586a2.7636,2.7636,0,0,1,2.6628-2.0239h40.2679a2.7636,2.7636,0,0,1,2.6628,3.5032l-10.242,36.9655A3.9752,3.9752,0,0,1,133.1557,165.9507Z" fill="#a2a6c6"/>
                  <path d="M130.7585,165.0184H87.7777l11.46-41.3586a2.7635,2.7635,0,0,1,2.6627-2.0239h40.268a2.7636,2.7636,0,0,1,2.6628,3.5032l-10.242,36.9655A3.9752,3.9752,0,0,1,130.7585,165.0184Z" fill="#2e2e3c"/>
                  <path d="M142.512,126.7636,132.3958,163.18H89.8l.586-2.11,9.9085-35.6761a2.5606,2.5606,0,0,1,2.4665-1.8752h37.2849A2.5592,2.5592,0,0,1,142.512,126.7636Z" fill="#305892"/>
                  <g>
                    <g>
                      <polygon points="117.421 127.618 104.309 127.618 104.601 126.696 117.713 126.696 117.421 127.618" fill="#edeff1"/>
                      <polygon points="129.315 127.618 123.107 127.618 123.398 126.696 129.607 126.696 129.315 127.618" fill="#df3a3a"/>
                      <polygon points="138.278 127.618 132.07 127.618 132.362 126.696 138.57 126.696 138.278 127.618" fill="#a09cae"/>
                      <polygon points="131.336 127.618 129.867 127.618 130.159 126.696 131.628 126.696 131.336 127.618" fill="#7299e9"/>
                      <polygon points="122.388 127.618 118.036 127.618 118.328 126.696 122.679 126.696 122.388 127.618" fill="#a09cae"/>
                    </g>
                    <g>
                      <polygon points="109.948 151.218 96.837 151.218 97.129 150.296 110.24 150.296 109.948 151.218" fill="#7299e9"/>
                      <polygon points="121.842 151.218 115.634 151.218 115.926 150.296 122.134 150.296 121.842 151.218" fill="#a09cae"/>
                      <polygon points="130.805 151.218 124.597 151.218 124.889 150.296 131.097 150.296 130.805 151.218" fill="#edad52"/>
                      <polygon points="123.863 151.218 122.395 151.218 122.686 150.296 124.155 150.296 123.863 151.218" fill="#7299e9"/>
                      <polygon points="114.915 151.218 110.563 151.218 110.855 150.296 115.207 150.296 114.915 151.218" fill="#a09cae"/>
                    </g>
                    <g>
                      <polygon points="108.291 143.351 114.499 143.351 114.791 142.429 108.583 142.429 108.291 143.351" fill="#c9c9ce"/>
                      <polygon points="99.328 143.351 105.536 143.351 105.828 142.429 99.619 142.429 99.328 143.351" fill="#edad52"/>
                      <polygon points="106.27 143.351 107.738 143.351 108.03 142.429 106.562 142.429 106.27 143.351" fill="#7299e9"/>
                    </g>
                    <g>
                      <polygon points="107.981 131.551 103.064 131.551 103.356 130.629 108.273 130.629 107.981 131.551" fill="#df3a3a"/>
                      <polygon points="119.874 131.551 117.764 131.551 118.056 130.629 120.166 130.629 119.874 131.551" fill="#7299e9"/>
                      <polygon points="137.033 131.551 126.727 131.551 127.019 130.629 137.325 130.629 137.033 131.551" fill="#df3a3a"/>
                      <polygon points="125.993 131.551 120.427 131.551 120.719 130.629 126.285 130.629 125.993 131.551" fill="#7299e9"/>
                      <polygon points="117.045 131.551 108.595 131.551 108.887 130.629 117.337 130.629 117.045 131.551" fill="#7299e9"/>
                    </g>
                    <g>
                      <polygon points="100.508 155.151 95.591 155.151 95.883 154.229 100.8 154.229 100.508 155.151" fill="#2d3969"/>
                      <polygon points="112.402 155.151 110.291 155.151 110.583 154.229 112.694 154.229 112.402 155.151" fill="#2d3969"/>
                      <polygon points="129.56 155.151 119.254 155.151 119.546 154.229 129.852 154.229 129.56 155.151" fill="#7299e9"/>
                      <polygon points="118.52 155.151 112.954 155.151 113.246 154.229 118.812 154.229 118.52 155.151" fill="#7299e9"/>
                      <polygon points="109.572 155.151 101.123 155.151 101.415 154.229 109.864 154.229 109.572 155.151" fill="#7299e9"/>
                    </g>
                    <g>
                      <polygon points="102.999 147.284 98.082 147.284 98.374 146.362 103.291 146.362 102.999 147.284" fill="#edeff1"/>
                      <polygon points="114.893 147.284 112.782 147.284 113.074 146.362 115.184 146.362 114.893 147.284" fill="#7299e9"/>
                      <polygon points="132.051 147.284 121.745 147.284 122.037 146.362 132.343 146.362 132.051 147.284" fill="#a09cae"/>
                      <polygon points="121.011 147.284 115.445 147.284 115.737 146.362 121.303 146.362 121.011 147.284" fill="#7299e9"/>
                      <polygon points="112.063 147.284 103.614 147.284 103.906 146.362 112.355 146.362 112.063 147.284" fill="#df3a3a"/>
                    </g>
                    <g>
                      <polygon points="106.735 135.485 101.818 135.485 102.11 134.563 107.027 134.563 106.735 135.485" fill="#c9c9ce"/>
                      <polygon points="114.76 135.485 109.843 135.485 110.135 134.563 115.052 134.563 114.76 135.485" fill="#c9c9ce"/>
                      <polygon points="134.422 135.485 125.973 135.485 126.265 134.563 134.714 134.563 134.422 135.485" fill="#7299e9"/>
                    </g>
                    <polygon points="100.573 139.418 109.022 139.418 109.314 138.496 100.865 138.496 100.573 139.418" fill="#7299e9"/>
                    <polygon points="113.594 139.418 122.043 139.418 122.335 138.496 113.886 138.496 113.594 139.418" fill="#7299e9"/>
                    <polygon points="124.95 139.418 133.399 139.418 133.691 138.496 125.242 138.496 124.95 139.418" fill="#edeff1"/>
                  </g>
                  <polygon points="136.801 121.588 112.21 163.18 95.043 163.18 95.365 160.968 118.645 121.588 136.801 121.588" fill="#ccd2f0" style="mix-blend-mode: overlay"/>
                  <path d="M111.1924,165.0754H58.8806a2.23,2.23,0,0,1-2.2232-2.2232h0a2.23,2.23,0,0,1,2.2232-2.2232h52.3118a2.23,2.23,0,0,1,2.2232,2.2232h0A2.23,2.23,0,0,1,111.1924,165.0754Z" fill="#807c89"/>
                  <g>
                    <path d="M131.0234,164.9377H100.7461a2.23,2.23,0,0,1-2.2232-2.2232h0a2.23,2.23,0,0,1,2.2232-2.2232h30.2773a2.23,2.23,0,0,1,2.2232,2.2232h0A2.23,2.23,0,0,1,131.0234,164.9377Z" fill="#e2e2e2"/>
                    <g>
                      <rect x="110.5211" y="162.0202" width="3.8608" height="2.1584" fill="#807c89" opacity="0.37"/>
                      <rect x="116.381" y="162.0202" width="3.8608" height="2.1584" fill="#807c89" opacity="0.37"/>
                      <rect x="117.4376" y="161.965" width="3.9859" height="1.2972" fill="#07123f"/>
                      <rect x="111.3868" y="161.965" width="3.1349" height="1.2972" fill="#fff"/>
                    </g>
                  </g>
                </g>
                <rect x="129.7563" y="191.9326" width="28.7015" height="5.7775" transform="translate(288.2141 389.6426) rotate(180)" fill="#757387"/>
                <rect x="153.8387" y="172.2851" width="6.5281" height="80.6193" fill="#757387"/>
                <rect x="127.626" y="171.7971" width="6.5281" height="80.9311" fill="#b9b5c8"/>
                <rect x="127.626" y="167.2554" width="6.5281" height="35.6183" fill="#757387"/>
                <path d="M78.1213,164.9358h84.5936a3.2319,3.2319,0,0,1,3.2319,3.2319v4.0545a0,0,0,0,1,0,0H74.8893a0,0,0,0,1,0,0v-4.0545A3.2319,3.2319,0,0,1,78.1213,164.9358Z" fill="#c15543"/>
                <g>
                  <path d="M139.4064,167.4259V172.22H10.7871v-4.7944a2.4885,2.4885,0,0,1,2.4932-2.4879H136.9132A2.4885,2.4885,0,0,1,139.4064,167.4259Z" fill="#e88e6b"/>
                  <polygon points="74.585 164.938 70.835 172.22 47.326 172.22 47.326 164.938 74.585 164.938" fill="#c15543"/>
                </g>
                <g>
                  <rect x="16.8307" y="191.4446" width="31.3329" height="5.7775" transform="translate(64.9943 388.6667) rotate(180)" fill="#07123f"/>
                  <rect x="43.5445" y="171.7971" width="6.5281" height="80.9531" fill="#757387"/>
                  <rect x="15.8679" y="171.7971" width="6.5281" height="80.6193" fill="#b9b5c8"/>
                  <g>
                    <path d="M61.7848,198.4031l-44.9412,3.3725L4.373,138.4815l30.1862-.1059A17.8476,17.8476,0,0,1,52.0833,152.53Z" fill="#5c133b"/>
                    <path d="M-19.4919,165.99h55.887a4.5281,4.5281,0,0,1,4.5281,4.5281v0a4.5258,4.5258,0,0,1-4.5258,4.5258H-19.49a4.5277,4.5277,0,0,1-4.5277-4.5277v0a4.5261,4.5261,0,0,1,4.5261-4.5261Z" transform="translate(176.3063 139.3322) rotate(82.3133)" fill="#ed5746"/>
                    <g>
                      <g>
                        <rect x="33.3048" y="206.4016" width="5.2659" height="31.0588" fill="#b9b5c8"/>
                        <path d="M38.5707,208.2092v7.0192l-5.2659-2.0377v-4.7519C34.6226,208.3767,37.1589,208.2711,38.5707,208.2092Z" fill="#161624"/>
                      </g>
                      <path d="M24.6083,204.207H48.1378a2.3529,2.3529,0,0,1,2.3529,2.3529v0a2.353,2.353,0,0,1-2.353,2.353H24.6083a2.3529,2.3529,0,0,1-2.3529-2.3529v0a2.3529,2.3529,0,0,1,2.3529-2.3529Z" fill="#161624"/>
                      <rect x="26.726" y="194.3228" width="38.8107" height="11.7665" rx="5.8833" ry="5.8833" fill="#5c133b"/>
                      <path d="M14.2563,194.48H35.8887a5.8832,5.8832,0,0,1,5.8832,5.8832v0a5.8833,5.8833,0,0,1-5.8833,5.8833H14.2564a5.8833,5.8833,0,0,1-5.8833-5.8833v0a5.8832,5.8832,0,0,1,5.8832-5.8832Z" fill="#ed5746"/>
                      <g>
                        <path d="M58.2554,247.8148H54.9612a7.1453,7.1453,0,0,0-7.1372-7.1372h-24a7.1453,7.1453,0,0,0-7.1373,7.1372H13.3927a10.4431,10.4431,0,0,1,10.4314-10.4313h24A10.4431,10.4431,0,0,1,58.2554,247.8148Z" fill="#07123f"/>
                        <rect x="32.0593" y="232.4423" width="7.6863" height="5.0196" fill="#07123f"/>
                      </g>
                      <g>
                        <circle cx="14.9141" cy="251.0001" r="2.7363" fill="#07123f"/>
                        <path d="M15.1159,246.3266h0a3.7443,3.7443,0,0,1,3.7443,3.7443v.6879a0,0,0,0,1,0,0H11.3716a0,0,0,0,1,0,0v-.6879A3.7443,3.7443,0,0,1,15.1159,246.3266Z" fill="#2d3969"/>
                        <circle cx="56.7629" cy="251.0001" r="2.7363" fill="#07123f"/>
                        <path d="M56.9646,246.3266h0a3.7443,3.7443,0,0,1,3.7443,3.7443v.6879a0,0,0,0,1,0,0H53.22a0,0,0,0,1,0,0v-.6879A3.7443,3.7443,0,0,1,56.9646,246.3266Z" fill="#2d3969"/>
                      </g>
                      <rect x="33.8774" y="238.4031" width="4.3603" height="9.8823" fill="#07123f"/>
                      <g>
                        <circle cx="36.1494" cy="251.0001" r="2.7363" fill="#07123f"/>
                        <path d="M36.3511,246.3266h0a3.7443,3.7443,0,0,1,3.7443,3.7443v.6879a0,0,0,0,1,0,0H32.6069a0,0,0,0,1,0,0v-.6879A3.7442,3.7442,0,0,1,36.3511,246.3266Z" fill="#2d3969"/>
                      </g>
                    </g>
                  </g>
                  <g>
                    <g>
                      <path d="M70.7027,250.8783l20.4128-.7672a2.2055,2.2055,0,0,0,2.1212-2.2868h0a2.2055,2.2055,0,0,0-1.5563-2.0255l-10.232-3.1435-11.029.6842Z" fill="#aa6842"/>
                      <path d="M70.843,249.613H93.0039a0,0,0,0,1,0,0v0a1.4822,1.4822,0,0,1-1.4822,1.4822H70.843a0,0,0,0,1,0,0V249.613a0,0,0,0,1,0,0Z" transform="translate(-11.1736 3.9366) rotate(-2.577)" fill="#07123f"/>
                    </g>
                    <path d="M54.83,185.3965a9.2267,9.2267,0,0,1-9.2253,9.22H30.1014a8.7917,8.7917,0,0,1-1.3537-.103,8.9975,8.9975,0,0,1-3.1683-1.0839c-.1716-.0932-.3384-.1961-.5-.3041a9.21,9.21,0,0,1-4.1982-7.7294l.6512-6.6812,34.533-2.92Z" fill="#1d1d2e"/>
                    <g>
                      <line x1="81.3331" y1="245.6505" x2="83.6142" y2="242.9814" fill="none" stroke="#07123f" stroke-linecap="round" stroke-miterlimit="10" stroke-width="0.6209"/>
                      <line x1="83.1221" y1="246.3121" x2="85.4033" y2="243.6429" fill="none" stroke="#07123f" stroke-linecap="round" stroke-miterlimit="10" stroke-width="0.6209"/>
                      <line x1="84.8481" y1="247.2276" x2="87.415" y2="244.2019" fill="none" stroke="#07123f" stroke-linecap="round" stroke-miterlimit="10" stroke-width="0.6209"/>
                    </g>
                    <g>
                      <path d="M69.6125,243.64c1.1853-19.9247.8655-38.3457-.6866-42.0764-1.5919-2.3166-11.1513-8.015-20.5653-12.2388l5.2906-11.8017c6.6075,2.9613,22.4148,10.6017,26.4817,17.5774,1.717,2.9442,3.3635,8.6934,2.5592,29.01-.4213,10.6413-.9408,18.9774-.9408,18.9774Z" fill="#1d1d2e"/>
                      <path d="M75.2124,243.3887l-5.599.2531c1.1862-19.9284.8647-38.3491-.6854-42.0764-1.5922-2.32-11.1557-8.0188-20.5663-12.2418l-5.9154-3.5165-.0224-4.0294,5.4859,1.8758s22.7264,7.6946,25.5047,14.5588C76.1033,204.86,75.27,241.1112,75.2124,243.3887Z" fill="#161624"/>
                    </g>
                    <g>
                      <path d="M45.2015,247.3646l19.1017,7.2385a2.2056,2.2056,0,0,0,2.844-1.2809h0a2.2057,2.2057,0,0,0-.6452-2.4715L58.3,243.9725,47.8748,240.31Z" fill="#aa6842"/>
                      <path d="M44.661,250.5082H66.8224a0,0,0,0,1,0,0v.0007a1.4812,1.4812,0,0,1-1.4812,1.4812H44.661a0,0,0,0,1,0,0v-1.4819A0,0,0,0,1,44.661,250.5082Z" transform="translate(90.7601 -3.7155) rotate(20.3294)" fill="#07123f"/>
                    </g>
                    <path d="M60.9364,223.4362c-.27,10.55-1.2017,20.1967-1.2408,20.5991l-6.8467-.6672-6.0228-.5836c1.7461-17.9849,1.6675-36.0779-.152-39.9376-2.109-1.9865-10.3045-5.606-17.9262-8.3329-1.0741-.3824-2.1383-.7455-3.1683-1.0839-.1814-.0637-.3629-.1226-.5445-.1815l.0442-.1226s2.4153-13.16,15.7267-9.3407c2.8056.8049,9.012,5.53,11.9106,7.4819a20.471,20.471,0,0,1,3.7128,3.0653C59.0873,197.2555,61.4709,202.8026,60.9364,223.4362Z" fill="#1d1d2e"/>
                    <g>
                      <line x1="56.3702" y1="246.0314" x2="59.5581" y2="244.56" fill="none" stroke="#07123f" stroke-linecap="round" stroke-miterlimit="10" stroke-width="0.6209"/>
                      <line x1="57.719" y1="247.3801" x2="60.9069" y2="245.9088" fill="none" stroke="#07123f" stroke-linecap="round" stroke-miterlimit="10" stroke-width="0.6209"/>
                      <line x1="58.9042" y1="248.9332" x2="62.5009" y2="247.2575" fill="none" stroke="#07123f" stroke-linecap="round" stroke-miterlimit="10" stroke-width="0.6209"/>
                    </g>
                  </g>
                  <path d="M52.8488,243.1644l-6.0228-.5836c1.7461-17.9849,1.6675-36.0779-.152-39.9376-2.109-1.9864-10.3045-5.606-17.9262-8.3329a8.9985,8.9985,0,0,1-3.1683-1.0838c-.1814-.0637-.3629-.1226-.5445-.1816l.0442-.1226a9.21,9.21,0,0,1-4.1982-7.7294l.2844-4.9195,5.3264.731c-.1275.3824-.8485,4.1394.4659,6.3956a3.1957,3.1957,0,0,0,1.6626,1.4517c2.0844.7946,10.0152,2.7368,16.3273,5.5617,4.0806,1.8294,7.4892,4.0317,8.1955,6.5378C54.8008,206.8365,53.1185,238.353,52.8488,243.1644Z" fill="#161624"/>
                  <path d="M40.2174,98.862h.3812a5.1041,5.1041,0,0,1,5.1041,5.1041v9.4188a5.104,5.104,0,0,1-5.104,5.104h-.3812a5.1041,5.1041,0,0,1-5.1041-5.1041V103.966A5.1041,5.1041,0,0,1,40.2174,98.862Z" fill="#f6af97"/>
                  <path d="M61.601,88.6194q-.0261.3709-.0673.7408A16.6774,16.6774,0,0,1,51.079,102.9723a16.5932,16.5932,0,0,1-7.2846,1.1161c-4.1581-.2921-7.7516,1.3264-10.4861-1.4013a16.5276,16.5276,0,0,1-2.327-2.8969c-.26-.4138-.5045-.8316-.7278-1.2631-1.3619-2.6313-2.1507-9.0761-1.9281-12.2452A16.6871,16.6871,0,0,1,45.3743,70.77q.38.0114.758.0381A16.654,16.654,0,0,1,59.21,78.77l.0046.0054a16.6529,16.6529,0,0,1,2.3868,9.8436Z" fill="#c15543"/>
                  <g>
                    <path d="M39.3858,92.0434a2.8082,2.8082,0,0,1-.25,1.03A3.2223,3.2223,0,0,1,38.4,94.1472a3.0239,3.0239,0,0,1-2.1531.8241l-1.7706-.0932-1.3585-.0687.201-4.0314h.0049l.0344-.7455.0295-.5788.0293-.53.005-.1372h.0049l3.1242.1616a2.9816,2.9816,0,0,1,2.6877,2.0454A2.6866,2.6866,0,0,1,39.3858,92.0434Z" fill="#ffcbc3"/>
                    <path d="M60.8922,90.3316,60.5587,96.85l-.0491.9759a13.3091,13.3091,0,0,1-.23,1.8933,13.69,13.69,0,0,1-11.7561,10.9028,4.9877,4.9877,0,0,1-.5345.0539,12.9948,12.9948,0,0,1-1.908.0393,13.9665,13.9665,0,0,1-5.1841-1.3.015.015,0,0,1-.01-.005A13.686,13.686,0,0,1,33.03,97.5313c-.005-.1568-.01-.3089-.005-.4658a5.2337,5.2337,0,0,1,.01-.5541v-.0982l.02-.4414.0638-1.1624.1961-3.9921.0049-.0393v-.005l.0393-.7405.0295-.5788.0293-.53.01-.1372a10.9774,10.9774,0,0,1,.51-2.668,14.7784,14.7784,0,0,1,.6573-1.7413c.0342-.0932.0686-.1717.1079-.2551a12.5754,12.5754,0,0,1,.7062-1.3488.0175.0175,0,0,1,.0049-.01,13.7448,13.7448,0,0,1,3.8844-4.1787c.314-.2206.6376-.4315.9663-.6277a13.9572,13.9572,0,0,1,17.3719,2.58,13.2161,13.2161,0,0,1,2.7121,4.8165,10.0568,10.0568,0,0,1,.4709,2.1138A16.303,16.303,0,0,1,60.8922,90.3316Z" fill="#ffceb8"/>
                    <path d="M34.6823,90.8319l-.2061,4.0463L34.3341,97.61,33.26,97.556a1.735,1.735,0,0,1-.23-.0247,3.5275,3.5275,0,0,1-3.0507-3.6439,3.2446,3.2446,0,0,1,1.133-2.2954,3.3333,3.3333,0,0,1,2.207-.814h.0049a1.3327,1.3327,0,0,1,.28,0Z" fill="#ffcbc3"/>
                  </g>
                  <rect x="55.3484" y="92.6007" width="1.2261" height="3.188" rx="0.6131" ry="0.6131" fill="#07123f"/>
                  <rect x="46.3567" y="92.6007" width="1.2261" height="3.188" rx="0.6131" ry="0.6131" fill="#07123f"/>
                  <path d="M45.7028,110.6658a9.1211,9.1211,0,0,1-4.8065-1.2506.015.015,0,0,1-.01-.005A13.686,13.686,0,0,1,33.03,97.5313a3.5275,3.5275,0,0,1-3.0507-3.6439,3.2446,3.2446,0,0,1,1.133-2.2954,3.3333,3.3333,0,0,1,2.207-.814v-.005l.0393-.7405.0295-.5788.0293-.53.005-.1372h.0049a10.9774,10.9774,0,0,1,.51-2.668c1.8539-1.0351,3.7422-1.2312,4.8163,1.0886,0,0-.108,1.05-.2012,2.6484-.0735,1.1967-.1422,2.6975-.152,4.2915-.0294,3.2763.1668,6.94,1.01,9.1618A16.1164,16.1164,0,0,0,45.7028,110.6658Z" fill="#f6af97"/>
                  <path d="M39.3221,75.6044h22.11a2.64,2.64,0,0,1,2.64,2.64v0a2.64,2.64,0,0,1-2.64,2.64h-22.11a2.64,2.64,0,0,1-2.64-2.64v0a2.64,2.64,0,0,1,2.64-2.64Z" fill="#c15543"/>
                  <path d="M66.245,83.0236a3.4809,3.4809,0,0,1-3.4156,4.1h-20.16a5.2354,5.2354,0,0,0-5.2354,5.2354v3.2591a1.9726,1.9726,0,0,1-1.9669,1.9669h-.4659a1.9667,1.9667,0,0,1-1.9667-1.9667V85.8a1.6916,1.6916,0,0,1,.0147-.2256,3.4239,3.4239,0,0,1-.5885-1.9225,3.4831,3.4831,0,0,1,3.4725-3.4773H62.6865A3.5774,3.5774,0,0,1,66.245,83.0236Z" fill="#c15543"/>
                  <g>
                    <rect x="54.2857" y="89.2493" width="5.8855" height="1.5531" rx="0.7765" ry="0.7765" fill="#c15543"/>
                    <rect x="43.741" y="89.2493" width="5.8854" height="1.5531" rx="0.7765" ry="0.7765" fill="#c15543"/>
                    <g opacity="0.49">
                      <polygon points="47.338 92.355 49.381 96.361 50.934 96.197 48.809 92.355 47.338 92.355" fill="#fff"/>
                      <polygon points="56.902 92.355 58.945 96.361 60.498 96.197 58.373 92.355 56.902 92.355" fill="#fff"/>
                    </g>
                    <path d="M55.08,92.1716H59.222a1.1711,1.1711,0,0,1,1.1711,1.1711v2.0719a1.1711,1.1711,0,0,1-1.1711,1.1711H55.08a1.171,1.171,0,0,1-1.171-1.171v-2.072A1.1711,1.1711,0,0,1,55.08,92.1716Z" fill="none" stroke="#07123f" stroke-miterlimit="10" stroke-width="0.5601"/>
                    <path d="M45.6215,92.1716h4.5748a1.2177,1.2177,0,0,1,1.2177,1.2177v1.9788a1.2176,1.2176,0,0,1-1.2176,1.2176H45.6215a1.2177,1.2177,0,0,1-1.2177-1.2177V93.3893A1.2177,1.2177,0,0,1,45.6215,92.1716Z" fill="none" stroke="#07123f" stroke-miterlimit="10" stroke-width="0.5824"/>
                    <path d="M54.0047,101.8557a3.9926,3.9926,0,0,1-3.0882,1.1272,4.12,4.12,0,0,1-2.6128-1.0606" fill="none" stroke="#e88e6b" stroke-miterlimit="10" stroke-width="0.6209"/>
                    <path d="M54.3135,98.3171c.002.0208-.0837-.0024-.0837-.0024-.02.6966-.6241,1.25-2.1184,1.2066l-.1757-5.49C53.53,96.0544,54.204,97.1783,54.3135,98.3171Z" fill="#f6af97"/>
                    <line x1="51.5065" y1="94.399" x2="54.1222" y2="94.4808" fill="none" stroke="#07123f" stroke-miterlimit="10" stroke-width="0.5824"/>
                  </g>
                  <path d="M58.06,178.6449l-25.4479,3.8781a22.1981,22.1981,0,0,0-8.3049,3.0418L20.7437,187.76l-.8471-56.2709c0-.277.0053-.5487.0214-.82a16.123,16.123,0,0,1,16.1413-15.3423h5.4656a16.167,16.167,0,0,1,16.1627,16.1627l.1918,24.3345.0852,10.7928Z" fill="#26263c"/>
                  <path d="M54.8534,122.3474a16.0868,16.0868,0,0,0-6.936-1.5609H42.4519a16.2344,16.2344,0,0,0-2.8074.24c-2.083.3676-4.7011.8069-6.4353,1.8805-2.7967,1.7313-2.7523,3.6846-1.8645,6.6146.0789.26-5.0555,7.1508-5.0555,7.4278l.1225,12.0607-6.2541-12.1193-.261-5.4018c0-.277.0053-.5487.0214-.82a16.123,16.123,0,0,1,16.1413-15.3423h5.4656A16.147,16.147,0,0,1,54.8534,122.3474Z" fill="#393952"/>
                  <polygon points="44.007 137.438 42.108 148.451 33.441 114.344 47.91 114.344 44.007 137.438" fill="#edeff1"/>
                  <polygon points="48.168 118.402 41.384 114.417 33.455 118.402 33.455 113.498 48.168 113.498 48.168 118.402" fill="#fff"/>
                  <g>
                    <g>
                      <g>
                        <path d="M65.47,159.1241l8.013-1.2808a1.0665,1.0665,0,0,0,.8822-1.218l-.0035-.0219a1.0665,1.0665,0,0,0-1.2179-.8822l-8.013,1.2809a1.0665,1.0665,0,0,0-.8822,1.2179l.0035.0219A1.0665,1.0665,0,0,0,65.47,159.1241Z" fill="#f6af97"/>
                        <path d="M67.8151,158.6346h6.4981a1.0739,1.0739,0,0,1,1.0739,1.0739v0a1.0752,1.0752,0,0,1-1.0752,1.0752H67.8133a1.073,1.073,0,0,1-1.073-1.073v-.0013A1.0748,1.0748,0,0,1,67.8151,158.6346Z" transform="translate(166.4451 306.1995) rotate(170.9184)" fill="#f6af97"/>
                        <path d="M66.5308,164.0865l7.6163-1.2174a1.0665,1.0665,0,0,0,.8822-1.2179l-.0035-.0219a1.0665,1.0665,0,0,0-1.2179-.8822l-7.6164,1.2174a1.0665,1.0665,0,0,0-.8822,1.2179l.0035.0219A1.0665,1.0665,0,0,0,66.5308,164.0865Z" fill="#f6af97"/>
                      </g>
                      <path d="M68.93,157.0562c-.0857.01-1.0659-.0033-2.1279-.021a11.5605,11.5605,0,0,0-5.2951,1.1858l-3.1519,1.55s1.8052,5.3565,2.0539,5.4015c6.0766,1.0984,8.1611-1.66,8.1611-1.66Z" fill="#f6af97"/>
                    </g>
                    <rect x="61.5279" y="157.0351" width="2.6975" height="8.7669" fill="#fff"/>
                  </g>
                  <path d="M61.6936,166.5788l-3.729.0373-13.9518.1386h-.16a16.38,16.38,0,0,1-14.8469-9.4931l-.1332-.2877L19.918,130.6685a16.1358,16.1358,0,0,1,7.5752-12.8812l11.4214,35.1806a5.57,5.57,0,0,0,4.9917,2.9939l13.9731-.1385,3.7077-.0373Z" fill="#393952"/>
                </g>
              </g>
              <g>
                <rect x="142.1959" y="158.6503" width="21.1945" height="6.3212" fill="#07123f"/>
                <rect x="136.2465" y="158.6503" width="21.1946" height="6.3212" fill="#5065a0"/>
              </g>
              <path d="M120.3971,162.5545l3.238.0925a3.4454,3.4454,0,0,1,3.346,3.3629l.46,19.5567a9.2652,9.2652,0,0,0,8.9848,9.0431h0a9.2652,9.2652,0,0,0,9.5394-9.52l-.5618-20.1147a3.4454,3.4454,0,0,1,3.2529-3.5363h0" fill="none" stroke="#07123f" stroke-miterlimit="10" stroke-width="1.4122"/>
              <rect x="146.7973" y="160.6954" width="5.7634" height="1.6733" fill="#07123f"/>
              <rect x="139.9649" y="159.9982" width="5.7634" height="1.6733" fill="#fff"/>
              <path d="M113.9733,162.5734h0a6.9593,6.9593,0,0,1,6.3118,6.4625l.0518.769a6.0456,6.0456,0,0,0,6.1153,5.6384l7.0749-.0976a7.671,7.671,0,0,0,7.5636-7.5152l.055-2.7241a4.364,4.364,0,0,1,3.7-4.225h0" fill="none" stroke="#fff" stroke-miterlimit="10" stroke-width="1.4122"/>
            </g>
          </g>
          <g>
            <g>
              <path d="M250.7235,240.2817h27.2554a0,0,0,0,1,0,0v13.123a0,0,0,0,1,0,0H237.6005a0,0,0,0,1,0,0v0A13.123,13.123,0,0,1,250.7235,240.2817Z" fill="#0c1746"/>
              <path d="M250.7235,237.9263h27.2554a0,0,0,0,1,0,0v13.123a0,0,0,0,1,0,0H237.6005a0,0,0,0,1,0,0v0A13.123,13.123,0,0,1,250.7235,237.9263Z" fill="#476f79"/>
            </g>
            <g>
              <path d="M194.7587,79.1792a40.366,40.366,0,0,0-32.1529,3.3143s10.7836-20.7672,5.5354-40.9685" fill="none" stroke="#375f9a" stroke-miterlimit="10" stroke-width="1.704"/>
              <rect x="179.0845" y="64.4132" width="3.7014" height="41.3407" transform="translate(279.4896 -88.8813) rotate(94.3474)" fill="#6e95a4"/>
              <rect x="178.2937" y="74.8142" width="3.7014" height="41.3408" transform="translate(289.0124 -76.9017) rotate(94.3483)" fill="#6e95a4"/>
              <rect x="161.6888" y="41.0911" width="3.7014" height="41.3407" transform="translate(317.3361 144.8653) rotate(-172.3048)" fill="#6e95a4"/>
              <rect x="153.7925" y="39.2686" width="3.7013" height="41.3407" transform="translate(301.8598 140.1771) rotate(-172.3056)" fill="#6e95a4"/>
            </g>
            <path d="M291.1228,111.3814a39.9209,39.9209,0,0,0,17.6415,4.3138,83.9136,83.9136,0,0,0-10.7717,38.7871" fill="none" stroke="#0c1746" stroke-miterlimit="10" stroke-width="1.704"/>
            <path d="M254.7908,76.749s6.2811-12.5622,6.2811-38.5838S235.05,16.63,235.05,16.63" fill="none" stroke="#0c1746" stroke-miterlimit="10" stroke-width="1.704"/>
            <path d="M249.1827,79.6652s6.2811-12.5621,6.2811-38.5838-26.0216-21.5352-26.0216-21.5352" fill="none" stroke="#0c1746" stroke-miterlimit="10" stroke-width="1.704"/>
            <rect x="292.3785" y="83.5616" width="3.7013" height="41.3408" transform="translate(41.4643 287.385) rotate(-55.4339)" fill="#6e95a4"/>
            <rect x="298.2967" y="74.9719" width="3.7014" height="41.3407" transform="translate(51.0959 288.5393) rotate(-55.4333)" fill="#6e95a4"/>
            <rect x="305.2447" y="116.1945" width="3.7014" height="41.3408" transform="translate(44.8956 -73.589) rotate(14.7308)" fill="#6e95a4"/>
            <rect x="312.8582" y="118.9706" width="3.7014" height="41.3408" transform="matrix(0.9671, 0.2543, -0.2543, 0.9671, 45.8547, -75.4374)" fill="#6e95a4"/>
            <rect x="201.9329" y="69.6828" width="83.4488" height="53.7617" rx="7.7334" ry="7.7334" fill="#7d7b8f"/>
            <rect x="192.1767" y="69.6857" width="83.4447" height="53.7564" rx="6.1711" ry="6.1711" fill="#c1bed2"/>
            <rect x="203.6153" y="79.7774" width="57.8758" height="4.3743" rx="2.1872" ry="2.1872" fill="#283669"/>
            <rect x="203.6153" y="87.8531" width="57.8758" height="4.3743" rx="2.1872" ry="2.1872" fill="#283669"/>
            <rect x="204.793" y="96.4335" width="4.0378" height="3.5331" rx="1.7665" ry="1.7665" fill="#fff"/>
            <path d="M213.9622,96.4335h.5049A1.7665,1.7665,0,0,1,216.2336,98.2v0a1.7665,1.7665,0,0,1-1.7665,1.7665h-.5048A1.7666,1.7666,0,0,1,212.1957,98.2v0A1.7665,1.7665,0,0,1,213.9622,96.4335Z" fill="#ffd64c"/>
            <rect x="219.262" y="96.4335" width="4.0378" height="3.5331" rx="1.7665" ry="1.7665" fill="#ffd64c"/>
            <rect x="254.0883" y="96.4335" width="4.0378" height="3.5331" rx="1.7665" ry="1.7665" fill="#eb4040"/>
            <rect x="247.0221" y="96.4335" width="4.0378" height="3.5331" rx="1.7665" ry="1.7665" fill="#eb4040"/>
            <rect x="204.2883" y="103.0792" width="4.0378" height="3.5331" rx="1.7665" ry="1.7665" fill="#fff"/>
            <g>
              <rect x="260.1271" y="124.2694" width="3.7014" height="59.1363" transform="translate(527.6417 301.2182) rotate(178.5978)" fill="#6e95a4"/>
              <rect x="249.6992" y="124.5245" width="3.7013" height="59.1363" transform="translate(506.7951 301.9837) rotate(178.5978)" fill="#6e95a4"/>
              <path d="M264.75,130.25s12.7865,28.6014.8444,59.8083c0,0,10.2616,17.9227,10.5961,39.7918" fill="none" stroke="#b0bf1f" stroke-miterlimit="10" stroke-width="1.704"/>
              <rect x="265.413" y="190.5581" width="3.7014" height="41.3408" transform="translate(579.4534 347.5549) rotate(165.2692)" fill="#6e95a4"/>
              <rect x="257.7994" y="193.3343" width="3.7014" height="41.3408" transform="translate(565.1844 354.9477) rotate(165.2684)" fill="#6e95a4"/>
              <g>
                <path d="M273.2633,237.8618H254.8206a9.4982,9.4982,0,0,1-.2822-3.9847,11.998,11.998,0,0,1,.5114-2.1629,8.5506,8.5506,0,0,1,2.61-3.91,9.8623,9.8623,0,0,1,6.4725-2.0828h5.54S273.3752,237.4409,273.2633,237.8618Z" fill="#7bb7c2"/>
                <path d="M263.9354,227.804v3.91H255.05a8.5506,8.5506,0,0,1,2.61-3.91Z" fill="#99e2ea"/>
              </g>
              <g>
                <path d="M263.0884,177.5742v22.3315l-6.2487.213a11.2729,11.2729,0,0,1,.245-22.5446Z" fill="#7bb7c2"/>
                <path d="M256.6533,180.7491v3.91h-10.159a11.2371,11.2371,0,0,1,2.6316-3.91Z" fill="#99e2ea"/>
                <circle cx="261.552" cy="188.844" r="11.2723" transform="translate(-40.2166 74.7948) rotate(-15.1264)" fill="#3b626b"/>
                <path d="M261.554,194.9567a6.1147,6.1147,0,1,1,1.5926-.2125,6.1252,6.1252,0,0,1-1.5926.2125Z" fill="#c1bed2"/>
              </g>
              <g>
                <circle cx="269.3973" cy="235.2167" r="9.5899" transform="matrix(0.1401, -0.9901, 0.9901, 0.1401, -1.251, 468.9929)" fill="#476f79"/>
                <path d="M269.4017,240.149a4.9987,4.9987,0,0,1-.6956-.0492,4.932,4.932,0,0,1,.687-9.8152,5.0094,5.0094,0,0,1,.6955.0491,4.932,4.932,0,0,1-.6865,9.8152Z" fill="#c1bed2"/>
              </g>
            </g>
            <g>
              <path d="M208.1018,240.2817h27.2555a0,0,0,0,1,0,0v13.123a0,0,0,0,1,0,0H194.9788a0,0,0,0,1,0,0v0A13.123,13.123,0,0,1,208.1018,240.2817Z" fill="#0c1746"/>
              <path d="M208.1018,237.9263h27.2555a0,0,0,0,1,0,0v13.123a0,0,0,0,1,0,0H194.9788a0,0,0,0,1,0,0v0A13.123,13.123,0,0,1,208.1018,237.9263Z" fill="#476f79"/>
            </g>
            <g>
              <rect x="217.5054" y="124.2694" width="3.7014" height="59.1363" transform="translate(442.411 302.2612) rotate(178.5978)" fill="#6e95a4"/>
              <rect x="207.0775" y="124.5245" width="3.7014" height="59.1363" transform="translate(421.5644 303.0266) rotate(178.5978)" fill="#6e95a4"/>
              <path d="M222.1286,130.25s12.7865,28.6014.8444,59.8083c0,0,10.2616,17.9227,10.5961,39.7918" fill="none" stroke="#eb4040" stroke-miterlimit="10" stroke-width="1.704"/>
              <rect x="222.7913" y="190.5581" width="3.7014" height="41.3407" transform="translate(495.611 358.3926) rotate(165.2692)" fill="#6e95a4"/>
              <rect x="215.1777" y="193.3343" width="3.7014" height="41.3407" transform="translate(481.3421 365.786) rotate(165.2684)" fill="#6e95a4"/>
              <g>
                <path d="M227.3239,225.7233s3.7051,11.72,3.5913,12.1387H212.4737a9.4522,9.4522,0,0,1-.2813-3.9864c.7422-5.2493,4.2992-8.1524,9.5949-8.1524Z" fill="#7bb7c2"/>
                <path d="M221.4956,227.804v3.91H212.61a8.5506,8.5506,0,0,1,2.61-3.91Z" fill="#99e2ea"/>
              </g>
              <g>
                <circle cx="226.7756" cy="235.2167" r="9.5899" transform="matrix(0.1401, -0.9901, 0.9901, 0.1401, -37.8997, 426.7918)" fill="#476f79"/>
                <path d="M226.78,240.149a4.9985,4.9985,0,0,1-.6955-.0492,4.932,4.932,0,0,1,.687-9.8152,5.0094,5.0094,0,0,1,.6955.0491,4.932,4.932,0,0,1-.6865,9.8152Z" fill="#c1bed2"/>
              </g>
            </g>
            <g>
              <path d="M313.1331,104.2166v20.3922l5.7013.1945a10.294,10.294,0,0,0-.2189-20.5868Z" fill="#6fa8b2"/>
              <path d="M317.7108,107.1159v3.5706h10.5755a10.2606,10.2606,0,0,0-2.4032-3.5706Z" fill="#8bd0d8"/>
              <circle cx="314.5346" cy="114.5078" r="10.2934" transform="translate(121.9169 388.264) rotate(-74.8737)" fill="#335860"/>
              <path d="M314.5327,120.09a5.5439,5.5439,0,1,0-.0007,0Z" fill="#b1aec1"/>
            </g>
            <g>
              <path d="M300.91,151.3478v17.8873l5.001.1707a9.0295,9.0295,0,0,0-.1921-18.0579Z" fill="#6fa8b2"/>
              <path d="M304.925,153.8909v3.132h9.2765a9.0007,9.0007,0,0,0-2.108-3.132Z" fill="#8bd0d8"/>
              <circle cx="302.139" cy="160.3748" r="9.029" transform="matrix(0.2609, -0.9654, 0.9654, 0.2609, 68.4782, 410.1961)" fill="#335860"/>
              <path d="M302.1374,165.271a4.8644,4.8644,0,1,0-.0006,0Z" fill="#b1aec1"/>
            </g>
            <path d="M279.3125,102.3766a38.4942,38.4942,0,0,0,11.81,9.0048" fill="none" stroke="#0c1746" stroke-miterlimit="10" stroke-width="1.704"/>
          </g>
          <polygon points="260.885 69.686 229.108 123.442 201.676 123.442 233.447 69.686 260.885 69.686" fill="#c5cbed" opacity="0.58" style="mix-blend-mode: overlay"/>
          <path d="M270.1327,123.1846V124.98a9.4044,9.4044,0,0,1-.1975,1.8975,8.9788,8.9788,0,0,1-8.7688,7.0749h-9.32a8.9787,8.9787,0,0,1-8.7688-7.0749,9.3892,9.3892,0,0,1-.1976-1.8975v-1.7957Z" fill="#5e5d70"/>
          <path d="M270.1327,123.1846V124.98a9.4044,9.4044,0,0,1-.1975,1.8975H243.078a9.3892,9.3892,0,0,1-.1976-1.8975v-1.7957Z" fill="#4c4c5b"/>
          <path d="M277.6666,87.1343H288.97a8.0516,8.0516,0,0,1,8.0516,8.0516V96.43a0,0,0,0,1,0,0H269.615a0,0,0,0,1,0,0V95.1859A8.0516,8.0516,0,0,1,277.6666,87.1343Z" transform="translate(375.1004 -191.5359) rotate(90)" fill="#5e5d70"/>
          <path d="M227.5095,123.1846V124.98a9.4006,9.4006,0,0,1-.1975,1.8975,8.9737,8.9737,0,0,1-8.7688,7.0749H209.23a8.9807,8.9807,0,0,1-8.7749-7.0749,9.4044,9.4044,0,0,1-.1974-1.8975v-1.7957Z" fill="#5e5d70"/>
          <path d="M200.2572,123.1846h27.2523V124.98a9.4006,9.4006,0,0,1-.1975,1.8975H200.4546a9.4044,9.4044,0,0,1-.1974-1.8975Z" fill="#4c4c5b"/>
          <path d="M243.1525,5.4138h0a3.9817,3.9817,0,0,1,3.9817,3.9817v5.44a0,0,0,0,1,0,0h-7.9635a0,0,0,0,1,0,0v-5.44a3.9818,3.9818,0,0,1,3.9818-3.9818Z" fill="#d93838"/>
          <path d="M231.0535,2.7942h0a5.0888,5.0888,0,0,1,5.0888,5.0888v6.9524a0,0,0,0,1,0,0H225.9647a0,0,0,0,1,0,0V7.883A5.0888,5.0888,0,0,1,231.0535,2.7942Z" fill="#ffc543"/>
          <g>
            <path d="M223.9068,12.5825H255.49a10.1181,10.1181,0,0,1,10.1181,10.1181V38.8051a10.118,10.118,0,0,1-10.118,10.118h-31.583a10.118,10.118,0,0,1-10.118-10.118V22.7005A10.118,10.118,0,0,1,223.9068,12.5825Z" fill="#716f82"/>
            <path d="M257.1141,20.6579V40.8472a8.0979,8.0979,0,0,1-8.0745,8.0745H213.3715a7.9239,7.9239,0,0,1-1.9693-.2454,8.1064,8.1064,0,0,1-6.1052-7.8291V20.6579a8.0979,8.0979,0,0,1,8.0745-8.0745H249.04A8.0979,8.0979,0,0,1,257.1141,20.6579Z" fill="#b1aec1"/>
          </g>
          <rect x="214.6072" y="20.5557" width="31.6298" height="19.8527" rx="1.1756" ry="1.1756" fill="#212e5e"/>
          <path d="M234.3509,33.4457a1.3629,1.3629,0,0,1-1.3629,1.3629h-5.1317a1.3629,1.3629,0,0,1-1.3629-1.3629" fill="none" stroke="#83b0ff" stroke-linecap="round" stroke-linejoin="round" stroke-width="2.0232"/>
          <g>
            <rect x="220.347" y="26.6125" width="6.2421" height="2.0189" rx="1.0094" ry="1.0094" fill="#83b0ff"/>
            <path d="M234.666,26.6125h4.8218a1.0094,1.0094,0,0,1,1.0094,1.0094v0a1.0094,1.0094,0,0,1-1.0094,1.0094h-4.8219a1.0094,1.0094,0,0,1-1.0094-1.0094v0A1.0095,1.0095,0,0,1,234.666,26.6125Z" fill="#83b0ff"/>
          </g>
          <path d="M247.8665,12.5834,226.3842,48.9217H213.3715a7.9239,7.9239,0,0,1-1.9693-.2454l21.3327-36.0929Z" fill="#c5cbed" opacity="0.74" style="mix-blend-mode: overlay"/>
          <path d="M218.8827,237.9263H206.9109a11.9323,11.9323,0,0,0-11.9321,11.9322v1.1909h11.9719v-1.1909A11.9322,11.9322,0,0,1,218.8827,237.9263Z" fill="#6a9ca8"/>
          <path d="M261.68,237.9263H249.7077a11.9323,11.9323,0,0,0-11.9321,11.9322v1.1909h11.9718v-1.1909A11.9322,11.9322,0,0,1,261.68,237.9263Z" fill="#6fa8b2"/>
          <g>
            <path d="M220.29,177.5742v22.3315l-6.2436.213a11.2729,11.2729,0,0,1,.24-22.5446Z" fill="#6fa8b2"/>
            <path d="M215.277,180.7491v3.91H203.6957a11.2367,11.2367,0,0,1,2.6318-3.91Z" fill="#8bd0d8"/>
            <circle cx="218.7552" cy="188.844" r="11.2723" transform="translate(-41.6994 63.627) rotate(-15.1264)" fill="#335860"/>
            <path d="M218.7572,194.9567a6.0715,6.0715,0,1,1,.0008,0Z" fill="#b1aec1"/>
          </g>
          <g>
            <path d="M365.5457,234.4506c.0574.7679.3595,11.73.3595,11.73l-8.0828.1512.1792-13.7406Z" fill="#591239"/>
            <path d="M369.27,159.926c.0139.0924.0059.6016-.0211,1.4741-.3959,12.7665-2.626,82.4006-2.626,82.4006l-10.4257-.3554L353.44,161.9269Z" fill="#07113d"/>
            <g>
              <path d="M366.6541,252.8981l-21.3241.1547a2.3109,2.3109,0,0,1-2.3177-2.3063h0a2.3238,2.3238,0,0,1,1.53-2.2046l10.5261-3.79,11.5339.2Z" fill="#884c2e"/>
              <path d="M343.3609,252.0948h21.5728a1.5612,1.5612,0,0,1,1.5612,1.5612v0a0,0,0,0,1,0,0h-23.134a0,0,0,0,1,0,0v-1.5608A0,0,0,0,1,343.3609,252.0948Z" transform="translate(709.7996 505.8293) rotate(-179.9873)" fill="#07113d"/>
              <g>
                <line x1="355.3265" y1="247.8984" x2="352.8244" y2="245.1974" fill="none" stroke="#07113d" stroke-linecap="round" stroke-miterlimit="10" stroke-width="0.6511"/>
                <line x1="353.4912" y1="248.6788" x2="350.9891" y2="245.9778" fill="none" stroke="#07113d" stroke-linecap="round" stroke-miterlimit="10" stroke-width="0.6511"/>
                <line x1="351.7334" y1="249.7234" x2="348.9168" y2="246.6608" fill="none" stroke="#07113d" stroke-linecap="round" stroke-miterlimit="10" stroke-width="0.6511"/>
              </g>
            </g>
            <path d="M383.8441,234.3167c.0439.7643.1534,11.6664.1534,11.6664l-8.0841.0066.4206-13.655Z" fill="#591239"/>
            <path d="M388.8768,160.3053c.0122.0921-.0046.5981-.047,1.4648-.62,12.6829-4.0729,81.86-4.0729,81.86l-10.4178-.5386-1.3253-81.0787Z" fill="#07113d"/>
            <g>
              <path d="M384.7924,252.7156l-21.3084.8263a2.3054,2.3054,0,0,1-2.39-2.2186h0a2.31,2.31,0,0,1,1.4589-2.2388l10.4-4.0978,11.5344-.165Z" fill="#a36440"/>
              <path d="M361.5024,252.287H383.09a1.5482,1.5482,0,0,1,1.5482,1.5482v.0035a0,0,0,0,1,0,0H361.5024a0,0,0,0,1,0,0V252.287A0,0,0,0,1,361.5024,252.287Z" transform="translate(753.8839 494.3164) rotate(178.2051)" fill="#07113d"/>
              <g>
                <line x1="373.3119" y1="248.1049" x2="370.7253" y2="245.5" fill="none" stroke="#07113d" stroke-linecap="round" stroke-miterlimit="10" stroke-width="0.6492"/>
                <line x1="371.5022" y1="248.9382" x2="368.9157" y2="246.3333" fill="none" stroke="#07113d" stroke-linecap="round" stroke-miterlimit="10" stroke-width="0.6492"/>
                <line x1="369.7785" y1="250.0317" x2="366.8661" y2="247.0773" fill="none" stroke="#07113d" stroke-linecap="round" stroke-miterlimit="10" stroke-width="0.6492"/>
              </g>
            </g>
            <path d="M352.8808,158.0792a9.6556,9.6556,0,0,0,8.66,10.5394L377.65,170.18a9.1393,9.1393,0,0,0,1.4169.029,9.368,9.368,0,0,0,3.4009-.8106c.1877-.08.3713-.17.55-.2666a9.6445,9.6445,0,0,0,5.1383-7.6334l.1984-5.156-34.6711-3.6649Z" fill="#07113d"/>
            <g>
              <path d="M371.7348,97.2384l1.4821.2637a4.79,4.79,0,0,0,5.535-3.8792L381.58,77.6262a4.8021,4.8021,0,0,0-3.8674-5.552l-1.482-.2637a4.79,4.79,0,0,0-5.535,3.8793l-2.8286,15.9966A4.8022,4.8022,0,0,0,371.7348,97.2384Z" fill="#f4a891"/>
              <path d="M357.0556,57.5064q-.0409.3872-.066.776a17.4892,17.4892,0,0,0,8.2645,15.9465,17.2865,17.2865,0,0,0,7.2842,2.4829c4.3274.4593,7.7259,2.7851,11.0339.4727a17.2659,17.2659,0,0,0,2.92-2.5612c.3427-.3791.67-.7652.9783-1.1693,1.88-2.4639,3.8653-8.9645,4.2143-12.2727A17.4635,17.4635,0,0,0,376.9887,42.07q-.3922-.0576-.7861-.0994a17.358,17.358,0,0,0-14.8934,5.8183l-.0058.0047a17.4629,17.4629,0,0,0-4.2478,9.7127Z" fill="#07113d"/>
              <g>
                <path d="M379.2658,65.0991a2.9508,2.9508,0,0,0,.0695,1.1075,3.38,3.38,0,0,0,.56,1.2419,3.1551,3.1551,0,0,0,2.0628,1.2433l1.8369.2278,1.4089.1776.5283-4.1933-.0051-.0009.1006-.7749.0752-.6022.0664-.5516.02-.1423-.0051-.0009-3.2408-.4047a3.1111,3.1111,0,0,0-3.1355,1.6174A2.8186,2.8186,0,0,0,379.2658,65.0991Z" fill="#ffc4bc"/>
                <path d="M357.472,59.4013l-.8455,6.7814-.1274,1.0151a13.9841,13.9841,0,0,0-.1083,1.9943,14.3287,14.3287,0,0,0,10.0962,13.391,5.1833,5.1833,0,0,0,.54.1533,13.5273,13.5273,0,0,0,1.9539.3894,14.5346,14.5346,0,0,0,5.5656-.392.0157.0157,0,0,0,.011-.0034A14.312,14.312,0,0,0,384.7987,71.92c.0337-.1609.0664-.3167.09-.4793a5.494,5.494,0,0,0,.0909-.5732l.0179-.1012.06-.4586.1464-1.21.5262-4.1519.0021-.0414.0009-.0052.0946-.7706.0752-.6022.0664-.5516.0149-.1432a11.5291,11.5291,0,0,0-.0379-2.8441,15.5222,15.5222,0,0,0-.3581-1.9155c-.0182-.1023-.0392-.19-.0644-.2827a13.1922,13.1922,0,0,0-.48-1.52.0184.0184,0,0,0-.0033-.011,14.3972,14.3972,0,0,0-3.2308-5.0187c-.2825-.2848-.5768-.5615-.8789-.8239a14.5357,14.5357,0,0,0-18.3264-.517,13.8291,13.8291,0,0,0-3.6658,4.47,10.5459,10.5459,0,0,0-.8695,2.0933A17.1174,17.1174,0,0,0,357.472,59.4013Z" fill="#ffc7b0"/>
                <path d="M384.3212,64.71l-.5258,4.2095-.3519,2.8425,1.1139.1409a1.8125,1.8125,0,0,0,.2413.0167,3.6857,3.6857,0,0,0,3.8-3.1991,3.4048,3.4048,0,0,0-.7461-2.5738,3.4778,3.4778,0,0,0-2.12-1.2429l-.0051-.0009a1.3875,1.3875,0,0,0-.2874-.0511Z" fill="#ffc4bc"/>
              </g>
              <path d="M369.3776,83.1443a9.4938,9.4938,0,0,0,5.1684-.41.0157.0157,0,0,0,.011-.0034A14.312,14.312,0,0,0,384.7987,71.92a3.6857,3.6857,0,0,0,3.8-3.1991,3.4048,3.4048,0,0,0-.7461-2.5738,3.4778,3.4778,0,0,0-2.12-1.2429l.0009-.0052.0946-.7706.0752-.6022.0664-.5516.02-.1423-.0051-.0009a11.5291,11.5291,0,0,0-.0379-2.8441c-1.7169-1.4062-3.6221-1.9537-5.149.2417,0,0-.08,1.102-.276,2.7674-.1426,1.2473-.3456,2.8072-.6261,4.4525-.5672,3.3834-1.4366,7.1247-2.7088,9.2614A16.8305,16.8305,0,0,1,369.3776,83.1443Z" fill="#f4a891"/>
              <g>
                <path d="M358.9254,60.1606l4.4532.7922a.8132.8132,0,0,0,.94-.6586h0a.8153.8153,0,0,0-.6566-.9426l-4.4531-.7923a.8133.8133,0,0,0-.94.6586h0A.8153.8153,0,0,0,358.9254,60.1606Z" fill="#07113d"/>
                <path d="M369.7641,62.0889l4.4531.7923a.8133.8133,0,0,0,.94-.6587h0A.8154.8154,0,0,0,374.5,61.28l-4.4531-.7922a.8132.8132,0,0,0-.94.6586h0A.8153.8153,0,0,0,369.7641,62.0889Z" fill="#07113d"/>
                <path d="M367.1122,73.3775a3.669,3.669,0,0,1-5.8478-1.1112Z" fill="#fff"/>
                <path d="M362.7782,68.8376c-.0059.0211.0865.0128.0865.0128-.106.722.4137,1.4025,1.9575,1.6314l1.1814-5.6283C363.9964,66.6481,363.0983,67.6835,362.7782,68.8376Z" fill="#f4a891"/>
              </g>
            </g>
            <path d="M387.46,165.5828s-14.1652-1.5407-13.9945-2.0543.1707-6.5052.1707-6.5052-11.2639-1.8831-11.2639-1.1983-1.0239,5.9916-1.0239,5.9916l-8.3626-1.5407.1707-8.9018,36.3515,3.7662Z" fill="#080b2e"/>
            <polygon points="360.196 152.497 377.09 154.192 382.863 84.993 377.654 84.711 372.904 95.339 371.643 84.673 367.235 84.287 360.196 152.497" fill="#ffc543"/>
            <path d="M375.81,161.6685a36.8839,36.8839,0,0,0,4.65,1.1016c1.0094.1779,2.1582.3474,3.417.4829a48.7236,48.7236,0,0,0,5.8793.2711,1.217,1.217,0,0,0,.3716-.0848l3.4381-45.4039c.0422-.3559.08-.7075.1182-1.0464.7645-6.94.5279-10.88.6209-16.8576.0169-.86.0337-1.7667.0675-2.7241a5.741,5.741,0,0,0-.1689-1.6142c-.6674-2.6648-3.18-4.5247-5.93-5.91a51.1547,51.1547,0,0,0-4.8657-2.0506c-.6843-.2626-.27-.0381-1.0053-.144Z" fill="#d93838"/>
            <path d="M350.9391,158.9064l2.7955.2618,6.42.5959S367.64,87.2738,366.98,87.52a15.4909,15.4909,0,0,0-3.5174,1.9259,17.9755,17.9755,0,0,0-6.103,7.4673,13.4035,13.4035,0,0,0-.85,2.82.8982.8982,0,0,0-.0256.1129C355.3679,106.04,350.9391,158.9064,350.9391,158.9064Z" fill="#d93838"/>
            <g>
              <circle cx="372.2104" cy="102.0438" r="0.8473" transform="translate(237.6954 463.7885) rotate(-84.9336)" fill="#2c3765"/>
              <circle cx="371.4607" cy="110.5545" r="0.8473" transform="translate(228.5344 470.8008) rotate(-84.9336)" fill="#2c3765"/>
              <circle cx="370.7109" cy="119.0652" r="0.8473" transform="translate(219.3845 477.8178) rotate(-84.9354)" fill="#2c3765"/>
              <circle cx="369.9611" cy="127.5759" r="0.8473" transform="translate(210.2235 484.8304) rotate(-84.9354)" fill="#2c3765"/>
              <circle cx="369.2114" cy="136.0866" r="0.8473" transform="translate(201.0514 491.8377) rotate(-84.9336)" fill="#2c3765"/>
            </g>
            <polygon points="377.654 84.711 378.358 89.654 382.44 89.654 382.863 84.993 377.654 84.711" fill="#fff"/>
            <polygon points="371.643 84.673 370.086 88.912 366.074 88.7 366.602 84.146 371.643 84.673" fill="#fff"/>
            <path d="M386.3825,63.81l-.6941,3.3817a1.146,1.146,0,0,1-1.6036.8123h0a1.1446,1.1446,0,0,1-.638-.7914,49.9725,49.9725,0,0,0-2.5551-8.4866,5.8728,5.8728,0,0,0-4.7868-3.1068l-4.4921,1.0876a1.6915,1.6915,0,0,1-1.8819-2.4482l.1794-.3341-5.78,1.338c-1.2519.29-2.0367-.941-1.6514-2.1705.0057-.0181-.0036-.0236-.03-.0148-.2282.0763-3.333.1526-6.1395.2066a1.6935,1.6935,0,0,1-1.1-3.0027c3.4747-2.8692,8.9779-6.809,13.7156-7.513,7.6026-1.13,17.3169,8.05,18.0209,10.1679S386.3825,63.81,386.3825,63.81Z" fill="#07113d"/>
            <path d="M370.7681,66.9244h0a.6.6,0,0,0,.7089-.4636l.29-1.3819a.602.602,0,0,0-.4622-.711h0a.6.6,0,0,0-.7088.4636l-.29,1.3819A.6019.6019,0,0,0,370.7681,66.9244Z" fill="#07113d"/>
            <path d="M360.4554,64.8414h0a.6.6,0,0,0,.7089-.4636l.29-1.3819a.602.602,0,0,0-.4622-.711h0a.6.6,0,0,0-.7088.4636l-.29,1.3819A.6019.6019,0,0,0,360.4554,64.8414Z" fill="#07113d"/>
            <path d="M386.1762,163.16a16.8368,16.8368,0,0,0,3.58.3644,1.217,1.217,0,0,0,.3716-.0848l3.6506-47.0237c.0422-.3559-1.8682-3.1916-1.83-3.53C390.5083,117.9946,384.9175,163.0243,386.1762,163.16Z" fill="#591239" opacity="0.62"/>
            <g>
              <path d="M314.6945,101.57l-2.7164-8.4238a1.1768,1.1768,0,0,1,.761-1.4775h0a1.18,1.18,0,0,1,1.4823.7595l2.7164,8.4238a1.1768,1.1768,0,0,1-.761,1.4775h0A1.1831,1.1831,0,0,1,314.6945,101.57Z" fill="#ffc7b0"/>
              <g>
                <path d="M305.5631,97.2325c.09-.03,4.5762-4.0578,5.4791-3.3236a24.1354,24.1354,0,0,1,4.1938,4.4683l2.2443,3.1219s-4.1145,3.3453-4.3228,3.5275c-2.8985,2.5358-6.5955-4.1939-6.5955-4.1939S303.5628,97.9094,305.5631,97.2325Z" fill="#ffc7b0"/>
                <path d="M310.7936,97.4664l-5.31-7.0914a1.1755,1.1755,0,0,1,.239-1.6439h0a1.1843,1.1843,0,0,1,1.6491.2392l5.31,7.0913a1.1756,1.1756,0,0,1-.239,1.644h0A1.1844,1.1844,0,0,1,310.7936,97.4664Z" fill="#ffc7b0"/>
                <path d="M307.4286,97.6149l-4.2633-5.6938a1.1755,1.1755,0,0,1,.239-1.6439h0a1.1843,1.1843,0,0,1,1.6491.2392l4.2633,5.6938a1.1756,1.1756,0,0,1-.239,1.644h0A1.1842,1.1842,0,0,1,307.4286,97.6149Z" fill="#ffc7b0"/>
                <path d="M307.2532,102.0114l-5.0461-6.7393a1.1755,1.1755,0,0,1,.239-1.6439h0a1.1842,1.1842,0,0,1,1.6491.2392l5.0462,6.7393a1.1757,1.1757,0,0,1-.239,1.644h0A1.1844,1.1844,0,0,1,307.2532,102.0114Z" fill="#ffc7b0"/>
              </g>
              <polygon points="317.641 99.434 318.324 100.346 319.837 102.373 313.316 107.224 311.948 108.238 311.658 107.848 311.014 106.995 309.75 105.303 310.114 105.033 314.711 101.615 316.57 100.23 316.703 100.13 317.641 99.434" fill="#ffc543"/>
              <path d="M360.9341,107.9144c-.1113.0786-8.6934,16.4343-22.6811,14.9962-13.04-1.3407-26.5457-13.9163-27.1456-14.4462l.55-.616,1.0072-1.1343,4.1519-4.67.58-.658.9283-1.0395.6261-.7066c.1175.1,9.2007,10.6182,20.4522,12.1983,6.9123.9707,16.122-11.3053,20.12-17.7551C360.0643,93.2092,360.9341,107.9144,360.9341,107.9144Z" fill="#d93838"/>
            </g>
            <g>
              <path d="M378.4042,158.5336l6.8433-2.4364a1.46,1.46,0,0,1,1.9061.801l.0459.133a1.4938,1.4938,0,0,1-.9958,1.8342l-6.8433,2.4364a1.46,1.46,0,0,1-1.9061-.8009l-.046-.133A1.4938,1.4938,0,0,1,378.4042,158.5336Z" fill="#ffc7b0"/>
              <g>
                <path d="M388.8523,177.9411a3.7363,3.7363,0,0,1-1.1079,1.15l-12.0286,8.1118a3.7909,3.7909,0,0,1-5.2657-1.0244l-13.9013-20.6087a3.79,3.79,0,0,1,1.0244-5.2656l.1344-.0927,11.8942-8.0191a3.7938,3.7938,0,0,1,5.2657,1.02l5.3352,7.9079,5.3214,7.8938,3.2447,4.8115A3.8071,3.8071,0,0,1,388.8523,177.9411Z" fill="#c2c2c7"/>
                <ellipse cx="368.9111" cy="164.9066" rx="1.5065" ry="1.8541" transform="translate(-28.0764 240.3418) rotate(-34.8441)" fill="#fff"/>
              </g>
              <path d="M385.5241,169.0134l-5.0711,4.39c-.8344.7695-1.91.9364-2.3872.3755a1.0382,1.0382,0,0,1-.2318-.6908,2.5094,2.5094,0,0,1,.8807-1.7336l3.5229-3.05-.3106-.4542-4.9644,4.3062c-.8344.76-1.91.9316-2.3872.3661a1.0375,1.0375,0,0,1-.2318-.6906,2.5088,2.5088,0,0,1,.8807-1.729l5.1869-4.4962-.0417-.07c-.07-.1529-.1391-.2966-.204-.4357l-4.093,3.5461c-.839.7695-1.919.9364-2.3965.3709a1.0512,1.0512,0,0,1-.2271-.6908,2.5188,2.5188,0,0,1,.8807-1.7289L379.6372,162a.526.526,0,0,1,.0788-.0648,3.6993,3.6993,0,0,1,.4867-.8158Z" fill="#2c3765" opacity="0.6"/>
              <path d="M391.45,162.8786s-3.6155,3.2162-4.6353,4.1718c-1.9727,1.8484-3.4182,2.324-4.7512,1.2747l-2.028-2.8391c-.8691-1.7382-1.192-2.6045-.1239-3.9246l3.5161-4.3458a3.1456,3.1456,0,0,1,4.3657-.4924l2.6618,2.0952C391.7886,159.8676,392.5184,161.5585,391.45,162.8786Z" fill="#ffc7b0"/>
              <path d="M380.9716,164.1768l-4.9335,4.0424c-.7768.6766-1.7764.8246-2.2212.3287h0c-.4449-.4958-.1733-1.4551.6035-2.1318l4.9335-4.0423c.7768-.6766,1.7764-.8246,2.2212-.3288h0C382.02,162.5408,381.7484,163.5,380.9716,164.1768Z" fill="#ffc7b0"/>
              <path d="M381.805,167.2634l-4.9335,4.0423c-.7768.6767-1.7764.8246-2.2212.3288h0c-.4449-.4958-.1732-1.4551.6035-2.1318l4.9335-4.0423c.7768-.6767,1.7764-.8246,2.2212-.3288h0C382.8534,165.6275,382.5818,166.5867,381.805,167.2634Z" fill="#ffc7b0"/>
              <path d="M385.05,168.3643l-4.9335,4.0424c-.7768.6766-1.7764.8246-2.2212.3287h0c-.4449-.4958-.1732-1.4551.6036-2.1318l4.9334-4.0423c.7768-.6766,1.7764-.8246,2.2212-.3288h0C386.0981,166.7283,385.8265,167.6877,385.05,168.3643Z" fill="#ffc7b0"/>
            </g>
            <g>
              <polygon points="385.851 154.968 386.7 154.208 388.588 152.524 393.988 158.597 395.118 159.872 394.755 160.196 393.961 160.91 392.386 162.318 392.085 161.978 388.279 157.696 386.738 155.966 386.626 155.842 385.851 154.968" fill="#ffc543"/>
              <path d="M387.4032,99.08l4.2043-5.0528.7048-.6006c.088.104,1.2891,1.532,2.9836,3.8607,1.4458,1.99,3.2569,4.6407,5.0445,7.6926,5.4733,9.3446,8.0334,17.7129,7.6155,24.878-.8686,14.8919-12.0638,30.1879-12.5394,30.8317l-.6615-.4943-1.2178-.9045-5.0143-3.729-.7059-.52L386.7,154.208l-.7585-.5622c.09-.1258,9.5739-13.1387,10.2378-24.4811.5042-8.644-3.5587-17.6587-7.9318-23.4118C387.6235,104.9363,387.8752,99.6373,387.4032,99.08Z" fill="#d93838"/>
            </g>
          </g>
          <path d="M230.9922,4.9119a.809.809,0,0,0-.983-.5581,3.0179,3.0179,0,0,0-1.9109,1.6251.8242.8242,0,0,0,.2866,1.0933.8051.8051,0,0,0,1.0933-.2866,1.4384,1.4384,0,0,1,.9558-.8907A.8142.8142,0,0,0,230.9922,4.9119Z" fill="#fff"/>
          <path d="M227.9717,7.84a.8.8,0,0,0,0,1.5982A.8.8,0,0,0,227.9717,7.84Z" fill="#fff"/>
          <path d="M241.8223,7.1739a.8.8,0,0,0,0,1.5982A.8.8,0,0,0,241.8223,7.1739Z" fill="#fff"/>
          <g>
            <path d="M153.1256,77.0654V97.4576l5.7014.1945a10.2939,10.2939,0,0,0-.219-20.5867Z" fill="#6fa8b2"/>
            <path d="M157.7032,79.9646v3.5706h10.5755a10.2606,10.2606,0,0,0-2.4032-3.5706Z" fill="#8bd0d8"/>
            <circle cx="154.5271" cy="87.3566" r="10.2934" transform="translate(29.8733 213.7339) rotate(-74.8735)" fill="#335860"/>
            <path d="M154.5252,92.9384a5.5442,5.5442,0,1,0-.0007,0Z" fill="#b1aec1"/>
          </g>
          <g>
            <path d="M173.2888,37.7039a9.1907,9.1907,0,0,1-.1529,1.7556,9.0351,9.0351,0,0,1-8.7781,7.37l-5.0032-.1687,1.4025-17.8882h3.4057a8.9762,8.9762,0,0,1,6.3739,2.5411.84.84,0,0,1,.0686.0685,8.9734,8.9734,0,0,1,2.6835,6.3212Z" fill="#6fa8b2"/>
            <circle cx="160.5838" cy="37.7991" r="9.029" transform="translate(82.1903 182.9555) rotate(-74.8737)" fill="#335860"/>
            <path d="M160.5822,42.6952a4.8644,4.8644,0,1,0-.0006,0Z" fill="#b1aec1"/>
            <path d="M173.2888,37.7039a9.1907,9.1907,0,0,1-.1529,1.7556,30.3818,30.3818,0,0,1-3.1844-3.5059l.6537-4.5709a8.9734,8.9734,0,0,1,2.6835,6.3212Z" fill="#335860"/>
          </g>
          <path d="M180.6661,23.2532a17.6511,17.6511,0,0,1-7.6392,12.7c-.4937.06-3.6131-.0281-3.6131-.0281s.6655-5.4374-1.9648-6.8361l5.5675-9.1559c1.0505-.5911,3.5127-.4872,4.5466-.3928A3.3786,3.3786,0,0,1,180.6661,23.2532Z" fill="#b72c2c"/>
          <path d="M177.0635,23.2532a17.6514,17.6514,0,0,1-7.6392,12.7,9.0494,9.0494,0,0,0-5.3143-6.4688l1.37-1.7121,1.0955-1.3692,1.191-.2863.1432-1.3812,1.5373-.431.07-1.5781,1.4454-.333.0907-1.5869A3.3851,3.3851,0,0,1,177.0635,23.2532Z" fill="#eb4040"/>
          <path d="M315.87,180.17a17.3241,17.3241,0,0,0-2.828-14.381c-.4448-.2225-3.103-.8632-3.103-.8632s-1.204,5.344-4.1517,5.7755L307.39,181.379c.79.91,3.3029.9833,4.3082,1.2424A3.3786,3.3786,0,0,0,315.87,180.17Z" fill="#324877"/>
          <path d="M312.7621,179.5147a17.86,17.86,0,0,0-2.8229-14.5884,9.3292,9.3292,0,0,1-7.235,4.4794l.6721,1.9533.5705,1.658,1.025.6706-.33,1.3488,1.3024.9235-.4652,1.51,1.2489.8-.4489,1.5248A3.3851,3.3851,0,0,0,312.7621,179.5147Z" fill="#576ca7"/>
          <rect width="408" height="257.6042" fill="none"/>
        </g>
      </g>
    </g>
  </g>
</svg>
