<?xml version="1.0" encoding="utf-8"?>
<svg id="master-artboard" viewBox="0 0 1400 980" version="1.1" xmlns="http://www.w3.org/2000/svg" x="0px" y="0px" style="enable-background:new 0 0 1400 980;" width="1400px" height="980px">

<path d="M 0 0 L 0 749.2000122070312 L 0 800.2999877929688 L 0 805.5999755859375 L 0 980 L 1400 980 L 1400 805.5999755859375 L 1400 800.2999877929688 L 1400 749.2000122070312 L 1400 0 Z" class="st0" style="fill: rgb(181, 127, 184);"/>
<g>
	<g>
		<g>
			
				<path d="M 185.600006 60 H 256.400009 V 319 H 185.600006 V 60 Z" transform="matrix(0.9999 -1.281846e-002 1.281846e-002 0.9999 -2.4108 2.849)" class="st1" style="fill: rgb(254, 191, 67);"/>
		</g>
		<g>
			
				<path d="M 191.800003 83.300003 H 249.100002 V 197.800003 H 191.800003 V 83.300003 Z" transform="matrix(0.9999 -1.281853e-002 1.281853e-002 0.9999 -1.7832 2.8369)" class="st2" style="fill: rgb(255, 255, 255);"/>
		</g>
		<g>
			<g>
				<path d="M 204.399994 248.600006 L 239.199997 248.199997" class="st2" style="fill: rgb(255, 255, 255);"/>
				
					<path d="M 204.399994 243.899994 H 239.299995 V 252.999994 H 204.399994 V 243.899994 Z" transform="matrix(0.9999 -1.281846e-002 1.281846e-002 0.9999 -3.1661 2.8636)" class="st2" style="fill: rgb(255, 255, 255);"/>
			</g>
			<g>
				<path d="M 204.699997 272.700012 L 239.5 272.299988" class="st2" style="fill: rgb(255, 255, 255);"/>
				
					<path d="M 204.699997 267.899994 H 239.599998 V 276.999994 H 204.699997 V 267.899994 Z" transform="matrix(0.9999 -1.281846e-002 1.281846e-002 0.9999 -3.4745 2.8695)" class="st2" style="fill: rgb(255, 255, 255);"/>
			</g>
		</g>
	</g>
	<g>
		<g>
			
				<path d="M 94.800003 60 H 165.600006 V 319 H 94.800003 V 60 Z" transform="matrix(0.9999 -1.281846e-002 1.281846e-002 0.9999 -2.4183 1.6843)" class="st3" style="fill: rgb(86, 42, 93);"/>
		</g>
		<g>
			
				<path d="M 100.900002 83.300003 H 158.200001 V 197.800003 H 100.900002 V 83.300003 Z" transform="matrix(0.9999 -1.281853e-002 1.281853e-002 0.9999 -1.7906 1.6722)" class="st2" style="fill: rgb(255, 255, 255);"/>
		</g>
		<g>
			<g>
				<path d="M 113.5 248.600006 L 148.399994 248.199997" class="st2" style="fill: rgb(255, 255, 255);"/>
				
					<path d="M 113.5 243.899994 H 148.400002 V 252.999994 H 113.5 V 243.899994 Z" transform="matrix(0.9999 -1.281846e-002 1.281846e-002 0.9999 -3.1735 1.6989)" class="st2" style="fill: rgb(255, 255, 255);"/>
			</g>
			<g>
				<path d="M 113.800003 272.700012 L 148.699997 272.299988" class="st2" style="fill: rgb(255, 255, 255);"/>
				
					<path d="M 113.800003 267.899994 H 148.700005 V 276.999994 H 113.800003 V 267.899994 Z" transform="matrix(0.9999 -1.281846e-002 1.281846e-002 0.9999 -3.482 1.7048)" class="st2" style="fill: rgb(255, 255, 255);"/>
			</g>
		</g>
	</g>
	<g>
		<g>
			
				<path d="M 271.899994 58.900002 H 342.699997 V 317.900002 H 271.899994 V 58.900002 Z" transform="matrix(0.9999 -1.281846e-002 1.281846e-002 0.9999 -2.3895 3.9553)" class="st4" style="fill: rgb(241, 88, 65);"/>
		</g>
		<g>
			
				<path d="M 278.200012 82.099998 H 335.300011 V 196.599998 H 278.200012 V 82.099998 Z" transform="matrix(0.9999 -1.281853e-002 1.281853e-002 0.9999 -1.7619 3.9432)" class="st2" style="fill: rgb(255, 255, 255);"/>
		</g>
		<g>
			<g>
				<path d="M 290.700012 247.5 L 325.5 247.100006" class="st2" style="fill: rgb(255, 255, 255);"/>
				
					<path d="M 290.700012 242.800003 H 325.600014 V 251.900003 H 290.700012 V 242.800003 Z" transform="matrix(0.9999 -1.281846e-002 1.281846e-002 0.9999 -3.1448 3.9697)" class="st2" style="fill: rgb(255, 255, 255);"/>
			</g>
			<g>
				<path d="M 291 271.600006 L 325.799988 271.100006" class="st2" style="fill: rgb(255, 255, 255);"/>
				
					<path d="M 291 266.799988 H 325.900002 V 275.899988 H 291 V 266.799988 Z" transform="matrix(0.9999 -1.281846e-002 1.281846e-002 0.9999 -3.4532 3.9757)" class="st2" style="fill: rgb(255, 255, 255);"/>
			</g>
		</g>
	</g>
	<g>
		<g>
			
				<path d="M 374.799988 53.299999 H 445.599991 V 312.199993 H 374.799988 V 53.299999 Z" transform="matrix(0.9803 -0.1975 0.1975 0.9803 -28.011 84.6043)" class="st3" style="fill: rgb(86, 42, 93);"/>
		</g>
		<g>
			<path d="M 438.5 185.5 L 385.20001220703125 196.3000030517578 L 362.5 84 L 415.8999938964844 73.19999694824219 Z" class="st2" style="fill: rgb(255, 255, 255);"/>
		</g>
		<g>
			<g>
				<path d="M 404.799988 244 L 438.899994 237.100006" class="st2" style="fill: rgb(255, 255, 255);"/>
				
					<path d="M 404.399994 236 H 439.299995 V 245.1 H 404.399994 V 236 Z" transform="matrix(0.9804 -0.1972 0.1972 0.9804 -39.1465 87.9108)" class="st2" style="fill: rgb(255, 255, 255);"/>
			</g>
			<g>
				<path d="M 409.5 267.600006 L 443.700012 260.700012" class="st2" style="fill: rgb(255, 255, 255);"/>
				
					<path d="M 409.200012 259.600006 H 444.100014 V 268.700006 H 409.200012 V 259.600006 Z" transform="matrix(0.9804 -0.1973 0.1973 0.9804 -43.7166 89.3393)" class="st2" style="fill: rgb(255, 255, 255);"/>
			</g>
		</g>
	</g>
</g>
<path d="M 45.099998474121094 759.0999755859375 L 453.70001220703125 759.0999755859375 L 452.6000061035156 510.1000061035156 L 528 443.79998779296875 L 45.099998474121094 443.79998779296875 Z" class="st2" style="fill: rgb(255, 255, 255);"/>
<g>
	<path d="M 359.70001220703125 483.8999938964844 L 353.70001220703125 494.8999938964844 L 365.70001220703125 494.8999938964844 Z" class="st3" style="fill: rgb(86, 42, 93);"/>
	<path d="M 341.600006 689.099976 H 377.800007 V 707.299976 H 341.600006 V 689.099976 Z" class="st4" style="fill: rgb(241, 88, 65);"/>
	<path d="M 377.79998779296875 517.2000122070312 L 365.70001220703125 494.8999938964844 L 353.70001220703125 494.8999938964844 L 341.6000061035156 517.2000122070312 L 341.6000061035156 517.2000122070312 L 377.79998779296875 517.2000122070312 Z" class="st2" style="fill: rgb(255, 255, 255);"/>
	<path d="M 341.600006 517.200012 H 377.800007 V 671.100006 H 341.600006 V 517.200012 Z" class="st1" style="fill: rgb(254, 191, 67);"/>
	<path d="M 341.600006 670.200012 H 377.800007 V 689.200012 H 341.600006 V 670.200012 Z" class="st3" style="fill: rgb(86, 42, 93);"/>
	<path d="M 356.600006 517.200012 H 362.800006 V 670.200012 H 356.600006 V 517.200012 Z" class="st3" style="fill: rgb(86, 42, 93);"/>
</g>
<g>
	<g>
		<g>
			<path class="st2" d="M300.6,677.3h-1.3v0.1C299.8,677.4,300.2,677.3,300.6,677.3z" style="fill: rgb(255, 255, 255);"/>
		</g>
		<path class="st4" d="M270.2,721.3v-43.8h31.9V518v-43.8H114c-9.9,0.9-17.7,9.8-17.7,20.8v2.1v208.7c0,11.9,8.8,21.6,19.7,21.6&#10;&#9;&#9;&#9;h186.1v-6.1H270.2z" style="fill: rgb(241, 88, 65);"/>
		<g>
			<path class="st1" d="M102,693.4c-0.3,1.6-0.6,3.2-0.6,4.9v2.1c0,11.6,8.3,20.9,18.6,20.9h180.6c-10.3,0-18.6-9.4-18.6-20.9v-2.1&#10;&#9;&#9;&#9;&#9;c0-1.7,0.2-3.3,0.6-4.9c1.9-8.8,8.6-15.3,16.8-15.9v-0.1H120.1C111.3,677.3,104,684.2,102,693.4z" style="fill: rgb(254, 191, 67);"/>
		</g>
		<path class="st2" d="M123.5,657.1L123.5,657.1c-2.9,0-5.3-2.4-5.3-5.3V491.3c0-2.9,2.4-5.3,5.3-5.3h0c2.9,0,5.3,2.4,5.3,5.3v160.4&#10;&#9;&#9;&#9;C128.8,654.7,126.4,657.1,123.5,657.1z" style="fill: rgb(255, 255, 255);"/>
	</g>
	<g>
		<path d="M 121.5 500.700012 L 121.5 657.099976" class="st2" style="fill: rgb(255, 255, 255);"/>
	</g>
	<g>
		<g>
			<path d="M 156.899994 546.900024 H 249.699997 V 559.800024 H 156.899994 V 546.900024 Z" class="st2" style="fill: rgb(255, 255, 255);"/>
		</g>
		<g>
			<path d="M 156.899994 574.5 H 249.699997 V 587.4 H 156.899994 V 574.5 Z" class="st2" style="fill: rgb(255, 255, 255);"/>
		</g>
	</g>
</g>
<g>
	<path d="M 1347.9000244140625 721 L 939.2999877929688 721 L 940.5 472 L 865 405.70001220703125 L 1347.9000244140625 405.70001220703125 Z" class="st2" style="fill: rgb(255, 255, 255);"/>
	<path d="M 975.700012 436.200012 H 1065.800011 V 452.200012 H 975.700012 V 436.200012 Z" class="st4" style="fill: rgb(241, 88, 65);"/>
	<path d="M 975.700012 474 H 1029.100014 V 490 H 975.700012 V 474 Z" class="st4" style="fill: rgb(241, 88, 65);"/>
	<path d="M 975.700012 669.599976 H 1065.800011 V 685.599976 H 975.700012 V 669.599976 Z" class="st4" style="fill: rgb(241, 88, 65);"/>
	<path d="M 1259.099976 436.200012 H 1312.499977 V 452.200012 H 1259.099976 V 436.200012 Z" class="st4" style="fill: rgb(241, 88, 65);"/>
	<g>
		<path class="st3" d="M1264.8,560.9c0,60.1-48.7,108.7-108.7,108.7c-60,0-108.7-48.7-108.7-108.7c0-60,48.7-108.7,108.7-108.7&#10;&#9;&#9;&#9;C1216.1,452.2,1264.8,500.8,1264.8,560.9z" style="fill: rgb(86, 42, 93);"/>
	</g>
	<path d="M 1251.599976 560.900024 A 95.5 95.5 0 0 1 1156.099976 656.400024 A 95.5 95.5 0 0 1 1060.599976 560.900024 A 95.5 95.5 0 0 1 1156.099976 465.400024 A 95.5 95.5 0 0 1 1251.599976 560.900024 Z" class="st1" style="fill: rgb(254, 191, 67);"/>
	<path class="st4" d="M1236.1,566.5l-92.5,0V556l82,0C1231.4,556,1236.1,560.7,1236.1,566.5L1236.1,566.5z" style="fill: rgb(241, 88, 65);"/>
	<path class="st2" d="M1159.7,482v91.3h-10.5v-80.8C1149.2,486.7,1153.9,482,1159.7,482L1159.7,482z" style="fill: rgb(255, 255, 255);"/>
</g>
<g>
	<path d="M 1347.9000244140625 338.29998779296875 L 865 338.29998779296875 L 940.5 260.70001220703125 L 940.5 22.899999618530273 L 1347.9000244140625 22.899999618530273 Z" class="st2" style="fill: rgb(255, 255, 255);"/>
	<g>
		<g>
			<path d="M 1014.400024 43.700001 H 1285.900024 V 314.999989 H 1014.400024 V 43.700001 Z" class="st3" style="fill: rgb(86, 42, 93);"/>
		</g>
		<g>
			<path d="M 1014.400024 73.099998 H 1285.900024 V 301.599998 H 1014.400024 V 73.099998 Z" class="st4" style="fill: rgb(241, 88, 65);"/>
		</g>
		<g>
			<g>
				<g>
					<path d="M 1248.5 106.80000305175781 L 1201.699951171875 153.60000610351562 L 1178 129.89999389648438 L 1123.699951171875 184.1999969482422 L 1089.699951171875 150.3000030517578 L 1059 180.89999389648438 L 1059 188.39999389648438 L 1089.699951171875 157.6999969482422 L 1123.699951171875 191.60000610351562 L 1178 137.3000030517578 L 1201.699951171875 161 L 1252.199951171875 110.5999984741211 Z" class="st2" style="fill: rgb(255, 255, 255);"/>
				</g>
				<g>
					<path d="M 1045.599976 230 L 1045.599976 268.5" class="st2" style="fill: rgb(255, 255, 255);"/>
				</g>
				<g>
					<path d="M 1059.199951 217.300003 L 1059.199951 268.5" class="st2" style="fill: rgb(255, 255, 255);"/>
				</g>
				<g>
					<path d="M 1072.800049 204.300003 L 1072.800049 268.5" class="st2" style="fill: rgb(255, 255, 255);"/>
				</g>
				<g>
					<path d="M 1086.300049 190.199997 L 1086.300049 268.5" class="st2" style="fill: rgb(255, 255, 255);"/>
				</g>
				<g>
					<path d="M 1099.900024 198.699997 L 1099.900024 268.5" class="st2" style="fill: rgb(255, 255, 255);"/>
				</g>
				<g>
					<path d="M 1113.5 212 L 1113.5 268.5" class="st2" style="fill: rgb(255, 255, 255);"/>
				</g>
				<g>
					<path d="M 1127 217.600006 L 1127 268.5" class="st2" style="fill: rgb(255, 255, 255);"/>
				</g>
				<g>
					<path d="M 1140.599976 204.899994 L 1140.599976 268.5" class="st2" style="fill: rgb(255, 255, 255);"/>
				</g>
				<g>
					<path d="M 1154.199951 190.5 L 1154.199951 268.5" class="st2" style="fill: rgb(255, 255, 255);"/>
				</g>
				<g>
					<path d="M 1167.800049 177.699997 L 1167.800049 268.5" class="st2" style="fill: rgb(255, 255, 255);"/>
					<path d="M 1170.4000244140625 268.5 L 1138 268.5 L 1138 209.3000030517578 L 1170.4000244140625 177.6999969482422 Z" class="st1" style="fill: rgb(254, 191, 67);"/>
					<path d="M 1091.800048828125 268.5 L 1059.4000244140625 268.5 L 1059.4000244140625 223.10000610351562 L 1091.800048828125 191.60000610351562 Z" class="st1" style="fill: rgb(254, 191, 67);"/>
				</g>
				<path d="M 1181.400024 170.699997 L 1181.400024 268.5" class="st2" style="fill: rgb(255, 255, 255);"/>
				<g>
					<path d="M 1194.900024 185.100006 L 1194.900024 268.5" class="st2" style="fill: rgb(255, 255, 255);"/>
				</g>
				<g>
					<path d="M 1208.5 184 L 1208.5 268.5" class="st2" style="fill: rgb(255, 255, 255);"/>
					<path d="M 1202.4000244140625 193.8000030517578 L 1178.699951171875 170.6999969482422 L 1178.699951171875 268.5 L 1214.0999755859375 268.5 L 1214.0999755859375 182.1999969482422 Z" class="st2" style="fill: rgb(255, 255, 255);"/>
					<path d="M 1123.5 223.5 L 1099.9000244140625 200.39999389648438 L 1099.9000244140625 268.5 L 1132.300048828125 268.5 L 1132.300048828125 214.8000030517578 Z" class="st3" style="fill: rgb(86, 42, 93);"/>
				</g>
				<g>
					<path d="M 1222.099976 170.699997 L 1222.099976 268.5" class="st2" style="fill: rgb(255, 255, 255);"/>
				</g>
				<g>
					<path d="M 1235.599976 157.899994 L 1235.599976 268.5" class="st2" style="fill: rgb(255, 255, 255);"/>
				</g>
				<g>
					<path d="M 1249.199951 143.5 L 1249.199951 268.5" class="st2" style="fill: rgb(255, 255, 255);"/>
					<path d="M 1251.800048828125 268.5 L 1222.0999755859375 268.5 L 1222.0999755859375 174.89999389648438 L 1251.800048828125 143.5 Z" class="st3" style="fill: rgb(86, 42, 93);"/>
				</g>
			</g>
			<g>
				<path class="st1" d="M1099.3,157.2c0,5.8-4.7,10.5-10.5,10.5c-5.8,0-10.5-4.7-10.5-10.5c0-5.8,4.7-10.5,10.5-10.5&#10;&#9;&#9;&#9;&#9;&#9;C1094.5,146.6,1099.3,151.3,1099.3,157.2z" style="fill: rgb(254, 191, 67);"/>
			</g>
			<g>
				<path class="st1" d="M1188.9,131.1c0,5.8-4.7,10.5-10.5,10.5c-5.8,0-10.5-4.7-10.5-10.5c0-5.8,4.7-10.5,10.5-10.5&#10;&#9;&#9;&#9;&#9;&#9;C1184.2,120.6,1188.9,125.3,1188.9,131.1z" style="fill: rgb(254, 191, 67);"/>
			</g>
			<g>
				<path class="st1" d="M1258.8,106.9c0,5.8-4.7,10.5-10.5,10.5c-5.8,0-10.5-4.7-10.5-10.5c0-5.8,4.7-10.5,10.5-10.5&#10;&#9;&#9;&#9;&#9;&#9;C1254.1,96.4,1258.8,101.1,1258.8,106.9z" style="fill: rgb(254, 191, 67);"/>
			</g>
			<g>
				<path d="M 1043.599976 277 L 1258.300049 277" class="st2" style="fill: rgb(255, 255, 255);"/>
				<path d="M 1050.699951 274.399994 H 1258.299957 V 279.599994 H 1050.699951 V 274.399994 Z" class="st5" style="fill: rgb(35, 31, 32);"/>
			</g>
		</g>
		<g>
			<g>
				<path d="M 1045.800049 102.400002 L 1142.599976 102.400002" class="st2" style="fill: rgb(255, 255, 255);"/>
			</g>
			<g>
				<path d="M 1045.800049 118.800003 L 1093.5 118.800003" class="st2" style="fill: rgb(255, 255, 255);"/>
				<path d="M 1034.699951 96 H 1132.29995 V 109.6 H 1034.699951 V 96 Z" class="st2" style="fill: rgb(255, 255, 255);"/>
			</g>
		</g>
	</g>
</g>
<g>
	<g>
		<path class="st2" d="M847.3,818.4V647.6c0-83.1-67.4-150.5-150.5-150.5l0,0c-83.1,0-150.5,67.4-150.5,150.5v170.8" style="fill: rgb(255, 255, 255);"/>
	</g>
	<g>
		<path class="st1" d="M667.7,510c0,16.1,13,29.1,29.1,29.1l0,0c16.1,0,29.1-13,29.1-29.1v-96.9c0-16.1-13-29.1-29.1-29.1l0,0&#10;&#9;&#9;&#9;c-16.1,0-29.1,13-29.1,29.1V510z" style="fill: rgb(254, 191, 67);"/>
	</g>
	<g>
		<path class="st1" d="M580.2,198.4v154.1c0,65,52.7,117.6,117.6,117.6l0,0c65,0,117.6-52.7,117.6-117.6V194.9" style="fill: rgb(254, 191, 67);"/>
	</g>
	<g>
		<path class="st3" d="M622.6,174.1c7.6-25.5,37.7-37.9,64.3-37.1c26.6,0.8,52.1,11,78.4,14.8c26.4,3.8,57-0.7,72.7-22.3&#10;&#9;&#9;&#9;c-1.8,16.6-3.7,33.7-11.6,48.4c-12.6,23.4-38.2,36.8-63.8,43.9c-20.8,5.8-42.6,8.2-64.2,7.2c-12-0.6-24.1-2.2-34.9-7.5&#10;&#9;&#9;&#9;c-10.8-5.3-23.5-13.3-26.4-24.9" style="fill: rgb(86, 42, 93);"/>
	</g>
	<g>
		<path class="st3" d="M580.4,315.1h15.3l-1.1-58.9c-0.2-5.1-0.4-10.3,1.2-15.2c1.6-4.8,5.6-9.2,10.6-9.9c6.1-0.8,12,3.9,18,2.6&#10;&#9;&#9;&#9;c-0.4-13.3,14.7-24.5,27.3-20.2l-27.1-37.7c-6.5-8-18.1-11-28-8.1c-9.9,2.9-17.7,11.2-21.1,20.9c-3.6,10.3-2.5,21.6-1.4,32.4&#10;&#9;&#9;&#9;C576.2,240.8,578.3,295.3,580.4,315.1z" style="fill: rgb(86, 42, 93);"/>
	</g>
	<g>
		<path class="st3" d="M771.9,233.7c6,1.3,11.9-3.4,18-2.6c5.1,0.7,9,5.1,10.6,9.9c1.6,4.8,1.4,10.1,1.2,15.2l-1.1,58.9H816&#10;&#9;&#9;&#9;c2.1-19.8,4.2-74.3,6.3-94.1c1.1-10.9,2.2-22.1-1.4-32.4c-3.4-9.7-11.3-18-21.1-20.9c-9.9-2.9-21.5,0.1-28,8.1l-27.1,37.7&#10;&#9;&#9;&#9;C757.2,209.2,772.4,220.4,771.9,233.7z" style="fill: rgb(86, 42, 93);"/>
	</g>
	<g>
		<g>
			<path class="st2" d="M737.2,392.9c-2.1,21.4-20.1,38-42,38c-21.9,0-39.9-16.7-42-38H737.2z" style="fill: rgb(255, 255, 255);"/>
		</g>
	</g>
	<g>
		<path class="st3" d="M749.7,306.5c0,4.8,3.9,8.6,8.6,8.6c4.8,0,8.6-3.9,8.6-8.6c0-4.7-3.9-8.6-8.6-8.6&#10;&#9;&#9;&#9;C753.6,297.9,749.7,301.7,749.7,306.5z" style="fill: rgb(86, 42, 93);"/>
	</g>
	<g>
		<path class="st3" d="M634.5,306.5c0,4.8,3.9,8.6,8.6,8.6c4.8,0,8.6-3.9,8.6-8.6c0-4.8-3.9-8.6-8.6-8.6&#10;&#9;&#9;&#9;C638.4,297.9,634.5,301.7,634.5,306.5z" style="fill: rgb(86, 42, 93);"/>
	</g>
	<g>
		<g>
			<path class="st6" d="M698.1,291.6l0.4,39.6c0,2.1-1.7,3.9-3.8,3.9h-6.4c-6.2,0-11.2,5-11.2,11.2l0,0c0,6.2,5,11.3,11.2,11.3h10.3&#10;&#9;&#9;&#9;&#9;" style="fill: none; stroke: rgb(86, 42, 93); stroke-width: 4; stroke-linecap: round; stroke-linejoin: round; stroke-miterlimit: 10;"/>
		</g>
	</g>
	<path d="M 740.5 268.899994 H 779.099998 V 280.799994 H 740.5 V 268.899994 Z" class="st3" style="fill: rgb(86, 42, 93);"/>
	<path d="M 628 265.600006 H 663.299999 V 277.500006 H 628 V 265.600006 Z" class="st3" style="fill: rgb(86, 42, 93);"/>
	<path d="M 607.200012 315.100006 A 27 27 0 0 1 580.200012 342.100006 A 27 27 0 0 1 553.200012 315.100006 A 27 27 0 0 1 580.200012 288.100006 A 27 27 0 0 1 607.200012 315.100006 Z" class="st1" style="fill: rgb(254, 191, 67);"/>
	<path d="M 842.400024 315.100006 A 27 27 0 0 1 815.400024 342.100006 A 27 27 0 0 1 788.400024 315.100006 A 27 27 0 0 1 815.400024 288.100006 A 27 27 0 0 1 842.400024 315.100006 Z" class="st1" style="fill: rgb(254, 191, 67);"/>
</g>
<path d="M 58.200001 911.799988 H 1335.399952 V 954.299988 H 58.200001 V 911.799988 Z" class="st7" style="fill: rgb(251, 202, 1);"/>
<path d="M 22.299999 861.099976 H 1371.299999 V 921.899975 H 22.299999 V 861.099976 Z" class="st3" style="fill: rgb(86, 42, 93);"/>
<path d="M 0 316.799988 H 484.600006 V 367.499989 H 0 V 316.799988 Z" class="st3" style="fill: rgb(86, 42, 93);"/>
<g>
	<g>
		<g>
			<g>
				<path class="st7" d="M447.7,843.4c0,12,9.7,21.7,21.7,21.7h454.9c12,0,21.7-9.7,21.7-21.7v-8.7H447.7V843.4z" style="fill: rgb(251, 202, 1);"/>
			</g>
		</g>
	</g>
	<g>
		<path class="st3" d="M914.5,830.6c0,12-9.7,21.7-21.7,21.7h-392c-12,0-21.7-9.7-21.7-21.7V581.5c0-12,9.7-21.7,21.7-21.7h392&#10;&#9;&#9;&#9;c12,0,21.7,9.7,21.7,21.7V830.6z" style="fill: rgb(86, 42, 93);"/>
	</g>
	<path class="st2" d="M704.8,670.2H660c0,0,0,0,0,0v73.6c0,0,0,0,0,0h73.6c0,0,0,0,0,0V699C717.7,699,704.8,686.1,704.8,670.2z" style="fill: rgb(255, 255, 255);"/>
</g>
<g>
	<path d="M 31.700001 29 L 66 29" class="st8" style="fill: none; stroke: rgb(86, 42, 93); stroke-width: 4; stroke-miterlimit: 10;"/>
	<path d="M 31.700001 152.800003 L 66 152.800003" class="st8" style="fill: none; stroke: rgb(86, 42, 93); stroke-width: 4; stroke-miterlimit: 10;"/>
	<path d="M 31.700001 206 L 56.099998 206" class="st8" style="fill: none; stroke: rgb(86, 42, 93); stroke-width: 4; stroke-miterlimit: 10;"/>
	<path d="M 14.7 117.300003 L 66 117.300003" class="st8" style="fill: none; stroke: rgb(86, 42, 93); stroke-width: 4; stroke-miterlimit: 10;"/>
	<path d="M 491 43.700001 L 667.700012 43.700001" class="st8" style="fill: none; stroke: rgb(86, 42, 93); stroke-width: 4; stroke-miterlimit: 10;"/>
	<path d="M 455.5 96.400002 L 553.200012 96.400002" class="st8" style="fill: none; stroke: rgb(86, 42, 93); stroke-width: 4; stroke-miterlimit: 10;"/>
	<path d="M 612.400024 96 L 663.299988 96" class="st8" style="fill: none; stroke: rgb(86, 42, 93); stroke-width: 4; stroke-miterlimit: 10;"/>
	<path d="M 740.5 43.700001 L 830.799988 43.700001" class="st8" style="fill: none; stroke: rgb(86, 42, 93); stroke-width: 4; stroke-miterlimit: 10;"/>
	<path d="M 797.700012 82.900002 L 876.299988 82.900002" class="st8" style="fill: none; stroke: rgb(86, 42, 93); stroke-width: 4; stroke-miterlimit: 10;"/>
	<path d="M 744.599976 117.300003 L 797.700012 117.300003" class="st8" style="fill: none; stroke: rgb(86, 42, 93); stroke-width: 4; stroke-miterlimit: 10;"/>
	<path d="M 862.700012 219.600006 L 914.5 219.600006" class="st8" style="fill: none; stroke: rgb(86, 42, 93); stroke-width: 4; stroke-miterlimit: 10;"/>
	<path d="M 847.299988 253.199997 L 876.299988 253.199997" class="st8" style="fill: none; stroke: rgb(86, 42, 93); stroke-width: 4; stroke-miterlimit: 10;"/>
	<path d="M 504.299988 256.200012 L 546.299988 256.200012" class="st8" style="fill: none; stroke: rgb(86, 42, 93); stroke-width: 4; stroke-miterlimit: 10;"/>
	<path d="M 463.700012 411.899994 L 565.799988 411.899994" class="st8" style="fill: none; stroke: rgb(86, 42, 93); stroke-width: 4; stroke-miterlimit: 10;"/>
	<path d="M 554.599976 444.200012 L 590.900024 444.200012" class="st8" style="fill: none; stroke: rgb(86, 42, 93); stroke-width: 4; stroke-miterlimit: 10;"/>
	<path d="M 514.700012 506.100006 L 572.700012 506.100006" class="st8" style="fill: none; stroke: rgb(86, 42, 93); stroke-width: 4; stroke-miterlimit: 10;"/>
	<path d="M 242.300003 405.700012 L 312.5 405.700012" class="st8" style="fill: none; stroke: rgb(86, 42, 93); stroke-width: 4; stroke-miterlimit: 10;"/>
	<path d="M 113.800003 405.700012 L 167.300003 405.700012" class="st8" style="fill: none; stroke: rgb(86, 42, 93); stroke-width: 4; stroke-miterlimit: 10;"/>
	<path d="M 121.5 424.899994 L 148.699997 424.899994" class="st8" style="fill: none; stroke: rgb(86, 42, 93); stroke-width: 4; stroke-miterlimit: 10;"/>
	<path d="M 84.699997 790.200012 L 148.399994 790.200012" class="st8" style="fill: none; stroke: rgb(86, 42, 93); stroke-width: 4; stroke-miterlimit: 10;"/>
	<path d="M 113.5 834.799988 L 156.899994 834.799988" class="st8" style="fill: none; stroke: rgb(86, 42, 93); stroke-width: 4; stroke-miterlimit: 10;"/>
	<path d="M 274 790.200012 L 388.600006 790.200012" class="st8" style="fill: none; stroke: rgb(86, 42, 93); stroke-width: 4; stroke-miterlimit: 10;"/>
	<path d="M 274 834.799988 L 344.399994 834.799988" class="st8" style="fill: none; stroke: rgb(86, 42, 93); stroke-width: 4; stroke-miterlimit: 10;"/>
	<path d="M 830.799988 452.200012 L 899.099976 452.200012" class="st8" style="fill: none; stroke: rgb(86, 42, 93); stroke-width: 4; stroke-miterlimit: 10;"/>
	<path d="M 806 494.899994 L 861.799988 494.899994" class="st8" style="fill: none; stroke: rgb(86, 42, 93); stroke-width: 4; stroke-miterlimit: 10;"/>
	<path d="M 865 527.700012 L 899.099976 527.700012" class="st8" style="fill: none; stroke: rgb(86, 42, 93); stroke-width: 4; stroke-miterlimit: 10;"/>
	<path d="M 1060.599976 367.5 L 1127 367.5" class="st8" style="fill: none; stroke: rgb(86, 42, 93); stroke-width: 4; stroke-miterlimit: 10;"/>
	<path d="M 1149.199951 392.899994 L 1208.5 392.899994" class="st8" style="fill: none; stroke: rgb(86, 42, 93); stroke-width: 4; stroke-miterlimit: 10;"/>
	<path d="M 1291.300049 357.5 L 1337.199951 357.5" class="st8" style="fill: none; stroke: rgb(86, 42, 93); stroke-width: 4; stroke-miterlimit: 10;"/>
	<path d="M 996.299988 759.099976 L 1106.5 759.099976" class="st8" style="fill: none; stroke: rgb(86, 42, 93); stroke-width: 4; stroke-miterlimit: 10;"/>
	<path d="M 1002.400024 811.5 L 1065.699951 811.5" class="st8" style="fill: none; stroke: rgb(86, 42, 93); stroke-width: 4; stroke-miterlimit: 10;"/>
	<path d="M 1122 815.900024 L 1178.400024 815.900024" class="st8" style="fill: none; stroke: rgb(86, 42, 93); stroke-width: 4; stroke-miterlimit: 10;"/>
	<path d="M 1201.199951 766.900024 L 1302.300049 766.900024" class="st8" style="fill: none; stroke: rgb(86, 42, 93); stroke-width: 4; stroke-miterlimit: 10;"/>
	<path d="M 1270.599976 798.099976 L 1321.800049 798.099976" class="st8" style="fill: none; stroke: rgb(86, 42, 93); stroke-width: 4; stroke-miterlimit: 10;"/>
	<path d="M 1251.5 837.799988 L 1321.800049 837.799988" class="st8" style="fill: none; stroke: rgb(86, 42, 93); stroke-width: 4; stroke-miterlimit: 10;"/>
</g>
</svg>