<?xml version="1.0" encoding="iso-8859-1"?>
<!-- Generator: Adobe Illustrator 19.0.0, SVG Export Plug-In . SVG Version: 6.00 Build 0)  -->
<svg version="1.1" id="Layer_1" xmlns="http://www.w3.org/2000/svg" xmlns:xlink="http://www.w3.org/1999/xlink" x="0px" y="0px"
	 viewBox="0 0 511.999 511.999" style="enable-background:new 0 0 511.999 511.999;" xml:space="preserve">
<path style="fill:#874D20;" d="M332.355,416.002v85.993c0,5.525-4.481,10.004-10.008,10.004s-10.009-4.479-10.009-10.004v-85.993
	c0-5.525,4.481-10.004,10.009-10.004S332.355,410.477,332.355,416.002z M275.878,405.998c-5.527,0-10.008,4.479-10.008,10.004
	v85.993c0,5.525,4.481,10.004,10.008,10.004s10.008-4.479,10.008-10.004v-85.993C285.887,410.477,281.406,405.998,275.878,405.998z"
	/>
<path style="fill:#0D3131;" d="M285.887,501.992c0,5.525-4.481,10.004-10.008,10.004h-32.894c-5.527,0-10.008-4.479-10.008-10.004
	c0-5.525,4.481-10.004,10.008-10.004h32.894C281.406,491.988,285.887,496.467,285.887,501.992z M355.239,491.988h-32.894
	c-5.527,0-10.008,4.479-10.008,10.004c0,5.525,4.481,10.004,10.008,10.004h32.894c5.527,0,10.009-4.479,10.009-10.004
	C365.248,496.467,360.767,491.988,355.239,491.988z"/>
<path style="fill:#FFCE76;" d="M214.119,324.729c-0.095,0.112-0.171,0.236-0.27,0.344l-28.272,30.625
	c-1.972,2.137-4.661,3.22-7.358,3.22c-2.426,0-4.86-0.877-6.784-2.651c-4.063-3.746-4.317-10.075-0.569-14.136l16.066-17.402
	L214.119,324.729L214.119,324.729z M409.803,324.729h-27.189c0.095,0.112,0.171,0.236,0.27,0.344l28.271,30.625
	c3.749,4.06,10.081,4.315,14.143,0.569c4.063-3.748,4.318-10.076,0.569-14.137L409.803,324.729z"/>
<path style="fill:#97BAA8;" d="M411.034,340.815c-1.924,1.774-4.358,2.651-6.784,2.651c-2.697,0-5.386-1.083-7.359-3.22
	l-14.007-15.173c-0.711-0.77-1.297-1.648-1.735-2.6l-17.132-37.195c-1.34-2.907-2.607-5.797-3.831-8.589
	c-7.307-16.661-12.734-29.003-26.489-34.026v137.521h-69.168V242.141c-14.856,4.649-20.408,17.278-27.981,34.544
	c-1.225,2.794-2.493,5.683-3.833,8.592l-17.131,37.195c-0.439,0.952-1.024,1.83-1.735,2.6l-14.002,15.169
	c-3.749,4.06-10.08,4.315-14.143,0.569c-4.063-3.746-4.318-10.075-0.569-14.137l12.928-14.005l16.47-35.758
	c1.263-2.743,2.493-5.546,3.683-8.258c9.902-22.574,21.123-48.159,60.249-48.477l26.217,0.001l13.503-0.002
	c39.213,0.319,50.434,25.905,60.336,48.479c1.189,2.711,2.419,5.514,3.681,8.255l16.471,35.759l12.932,14.01
	C415.352,330.739,415.097,337.068,411.034,340.815z"/>
<path style="fill:#FFCE76;" d="M299.112,119.209c19.552,0,35.406,15.843,35.406,35.387c0,19.544-15.854,35.387-35.406,35.387
	c-19.554,0-35.406-15.843-35.406-35.387C263.706,135.053,279.558,119.209,299.112,119.209L299.112,119.209z"/>
<path style="fill:#FFBB5E;" d="M334.518,154.596c0,19.544-15.854,35.387-35.406,35.387c-13.891,0-25.907-7.999-31.705-19.637
	c4.747,2.363,10.095,3.699,15.758,3.699c19.552,0,35.406-15.843,35.406-35.387c0-5.66-1.337-11.005-3.701-15.748
	C326.514,128.704,334.518,140.713,334.518,154.596z"/>
<path style="fill:#CAEEC5;" d="M212.817,99.941l6.151,35.485l-35.501-6.151c-25.791,13.354-58.295,9.22-79.93-12.403
	c-26.745-26.736-26.745-70.084,0-96.82c26.75-26.736,70.12-26.736,96.869,0C222.044,41.673,226.177,74.162,212.817,99.941z"/>
<path style="fill:#5B7F81;" d="M179.225,51.86c0,12.063-7.751,22.345-18.536,26.148c-1.53,3.566-5.072,6.064-9.2,6.064
	c-5.527,0-10.008-4.478-10.008-10.003v-4.49c0-5.525,4.481-10.004,10.008-10.004c4.255,0,7.718-3.46,7.718-7.715
	s-3.463-7.713-7.718-7.713c-3.062,0-5.835,1.809-7.066,4.608c-2.224,5.058-8.129,7.357-13.19,5.133
	c-5.06-2.223-7.359-8.125-5.136-13.183c4.424-10.063,14.392-16.564,25.391-16.564C166.783,24.138,179.225,36.574,179.225,51.86z
	 M151.49,92.752c-5.527,0-10.008,4.503-10.008,10.029s4.481,10.004,10.008,10.004s10.008-4.479,10.008-10.004v-0.05
	C161.499,97.205,157.019,92.752,151.49,92.752z"/>
<g>
</g>
<g>
</g>
<g>
</g>
<g>
</g>
<g>
</g>
<g>
</g>
<g>
</g>
<g>
</g>
<g>
</g>
<g>
</g>
<g>
</g>
<g>
</g>
<g>
</g>
<g>
</g>
<g>
</g>
</svg>
