<?xml version="1.0" encoding="iso-8859-1"?>
<!-- Generator: Adobe Illustrator 19.0.0, SVG Export Plug-In . SVG Version: 6.00 Build 0)  -->
<svg version="1.1" id="Layer_1" xmlns="http://www.w3.org/2000/svg" xmlns:xlink="http://www.w3.org/1999/xlink" x="0px" y="0px"
	 viewBox="0 0 297 297" style="enable-background:new 0 0 297 297;" xml:space="preserve">
<g>
	<g>
		<g>
			<g>
				<circle style="fill:#ebb400;" cx="148.5" cy="148.5" r="148.5"/>
			</g>
		</g>
	</g>
	<path style="fill:#ebb400;" d="M202.207,56.368L95.471,241.333l55.58,55.635c79.961-1.348,144.527-65.889,145.916-145.84
		L202.207,56.368z"/>
	<g>
		<path style="fill:#E3E5E4;" d="M106.083,245.25h84.833c9.021,0,16.333-7.313,16.333-16.333V68.084
			c0-9.021-7.313-16.334-16.333-16.334h-84.833c-9.021,0-16.334,7.313-16.334,16.334v160.833
			C89.75,237.937,97.063,245.25,106.083,245.25z"/>
	</g>
	<g>
		<rect x="99" y="62.25" style="fill:#32373B;" width="99" height="156"/>
	</g>
	<g>
		<path style="fill:#32373B;" d="M154.771,233h-12.543c-1.381,0-2.5-1.119-2.5-2.5s1.119-2.5,2.5-2.5h12.543
			c1.381,0,2.5,1.119,2.5,2.5S156.152,233,154.771,233z"/>
	</g>
	<g>
		<path style="fill:#32373B;" d="M128.043,233H115.5c-1.381,0-2.5-1.119-2.5-2.5s1.119-2.5,2.5-2.5h12.543
			c1.381,0,2.5,1.119,2.5,2.5S129.424,233,128.043,233z"/>
	</g>
	<g>
		<path style="fill:#32373B;" d="M181.5,233h-12.543c-1.381,0-2.5-1.119-2.5-2.5s1.119-2.5,2.5-2.5H181.5c1.381,0,2.5,1.119,2.5,2.5
			S182.881,233,181.5,233z"/>
	</g>
</g>
<g>
</g>
<g>
</g>
<g>
</g>
<g>
</g>
<g>
</g>
<g>
</g>
<g>
</g>
<g>
</g>
<g>
</g>
<g>
</g>
<g>
</g>
<g>
</g>
<g>
</g>
<g>
</g>
<g>
</g>
</svg>
