<?xml version="1.0" encoding="utf-8"?>
<!-- Generator: Adobe Illustrator 18.0.0, SVG Export Plug-In . SVG Version: 6.00 Build 0)  -->
<!DOCTYPE svg PUBLIC "-//W3C//DTD SVG 1.1//EN" "http://www.w3.org/Graphics/SVG/1.1/DTD/svg11.dtd">
<svg version="1.1" id="Layer_1" xmlns="http://www.w3.org/2000/svg" xmlns:xlink="http://www.w3.org/1999/xlink" x="0px" y="0px"
	 viewBox="0 0 1400 980" enable-background="new 0 0 1400 980" xml:space="preserve">
<g>
	<rect fill="#C695C3" width="1400" height="980"/>
	<g>
		<g>
			<path fill="#775BA6" d="M962.2,692.4c-28.1-29.7-78-47.5-115.9-32.2c-30.2-28.1-69.4-45.1-109.6-54.4
				c-111.3-25.7-234.6,8.4-316.8,87.7c-48.6,46.9-81.9,108.6-96.6,174.5h695.2c-0.8-21.8-3.2-43.5-7.1-65
				C1003.9,762.8,990.3,722.2,962.2,692.4z"/>
			<path fill="#7A63AA" d="M1046.3,541.8c41.2-4.4,83.6,4.3,119.8,24.5c-20.9-39-55.1-70.7-95.7-88.4
				c-40.5-17.7-92.1-22.3-134.9-11.2c-40.9-51.4-99.4-88.5-163.3-103.8s-132.8-8.4-192.5,19c78.2,3.2,154.3,41.8,203.2,103
				C706.5,445,615,441,530.6,458.6C424.8,480.6,324.5,537,259,623.1c-52.7,69.4-80.7,158.6-73.6,245h137.8
				c14.7-65.8,48-127.6,96.6-174.5c82.2-79.3,205.5-113.4,316.8-87.7c40.2,9.3,79.4,26.3,109.6,54.4c37.9-15.3,87.8,2.5,115.9,32.2
				c28.1,29.7,41.7,70.4,49.1,110.6c3.9,21.5,6.3,43.2,7.1,65h126c-0.7-37.7-3.2-75.3-9.2-112.6
				C1122.6,677.4,1099.3,600.4,1046.3,541.8z"/>
			<path fill="#7E6CAD" d="M1303.5,662.2c-8.1-76.6-46.1-149.6-104.2-200.2s-135.2-73.7-212.2-71.1c-20.7-79.9-88.3-142.3-165.7-171
				c-77.4-28.7-163.2-27.2-244.2-11.4c43,1,86.9,13.7,122.7,37.6c-154-12.5-312,33.6-435.1,126.9c-31.6,23.9-63.3,55.9-63.2,95.5
				c63.8-41.4,141.2-67.5,214.2-88.8c-95.7,35.7-178.1,106.2-228,195.3s-67,192.8-47.6,293h45.1c-7.1-86.3,20.9-175.5,73.6-245
				c65.4-86.1,165.7-142.4,271.6-164.5C615,441,706.5,445,782.9,485c-48.9-61.2-125-99.8-203.2-103c59.7-27.4,128.6-34.2,192.5-19
				s122.4,52.4,163.3,103.8c42.8-11.2,94.4-6.6,134.9,11.2c40.5,17.7,74.8,49.4,95.7,88.4c-36.1-20.2-78.6-28.9-119.8-24.5
				c53,58.6,76.3,135.6,88.8,213.6c6,37.3,8.5,74.9,9.2,112.6h118.2c0-49.5,6-243-57.6-322.2
				C1244.8,577.5,1280.4,616.9,1303.5,662.2z"/>
		</g>
		<g>
			<path fill="#A98FC3" d="M919.2,722.5c-23.8-25.1-65.9-40.1-98-27.2c-25.6-23.7-58.7-38.1-92.7-46
				c-94.1-21.7-198.3,7.1-267.8,74.1c-41.1,39.6-69.3,91.8-81.7,147.5h587.6c-0.7-18.4-2.7-36.8-6-54.9
				C954.4,782,942.9,747.6,919.2,722.5z"/>
			<path fill="#AE99C9" d="M990.3,595.2c34.8-3.7,70.7,3.6,101.2,20.7c-17.6-33-46.6-59.8-80.9-74.8c-34.3-15-77.9-18.9-114.1-9.4
				c-34.6-43.4-84-74.9-138-87.7c-54-12.9-112.3-7.1-162.8,16.1c66.1,2.7,130.5,35.4,171.8,87.1c-64.6-33.9-141.9-37.2-213.2-22.4
				c-89.5,18.6-174.3,66.3-229.6,139c-44.6,58.7-68.3,134.1-62.2,207.1H379c12.4-55.7,40.6-107.9,81.7-147.5
				c69.5-67,173.7-95.9,267.8-74.1c34,7.9,67.1,22.3,92.7,46c32.1-12.9,74.2,2.1,98,27.2s35.2,59.5,41.5,93.5
				c3.3,18.1,5.3,36.5,6,54.9h106.5c-0.6-31.9-2.7-63.7-7.8-95.2C1054.8,709.8,1035.1,644.7,990.3,595.2z"/>
			<path fill="#B6A5D0" d="M1207.7,696.9c-6.8-64.7-39-126.5-88.1-169.2c-49.1-42.7-114.3-62.3-179.4-60.1
				c-17.5-67.5-74.6-120.3-140-144.6c-65.4-24.3-137.9-23-206.4-9.7c36.4,0.8,73.5,11.6,103.7,31.8
				c-130.2-10.6-263.7,28.4-367.8,107.3c-26.7,20.2-53.5,47.2-53.4,80.7c53.9-35,119.4-57,181.1-75
				c-80.9,30.2-150.5,89.8-192.8,165.1s-56.7,162.9-40.2,247.7h38.1c-6-73,17.7-148.4,62.2-207.1c55.3-72.8,140.1-120.4,229.6-139
				c71.4-14.9,148.7-11.5,213.2,22.4c-41.3-51.7-105.6-84.4-171.8-87.1c50.5-23.2,108.7-28.9,162.8-16.1
				c54,12.9,103.4,44.3,138,87.7c36.2-9.5,79.8-5.6,114.1,9.4c34.3,15,63.3,41.8,80.9,74.8c-30.6-17.1-66.4-24.4-101.2-20.7
				c44.8,49.6,64.5,114.6,75.1,180.6c5,31.5,7.2,63.3,7.8,95.2h99.9c0-41.8,5.1-205.4-48.7-272.3
				C1158.1,625.3,1188.2,658.7,1207.7,696.9z"/>
		</g>
		<path fill="#9F9E9E" d="M1058.8,852.1H899.2c-2.5,0-4.5,2-4.5,4.5v6.9c0,2.5,2,4.5,4.5,4.5h159.6c2.5,0,4.5-2,4.5-4.5v-6.9
			C1063.3,854.1,1061.3,852.1,1058.8,852.1z"/>
		<g>
			<path fill="#C03A27" d="M527,505.4L527,505.4c-75,0-135.8,60.8-135.8,135.8V868h271.6V641.2C662.8,566.2,602,505.4,527,505.4z"/>
			<circle fill="#AF2B24" cx="544" cy="538.6" r="51.4"/>
			<g>
				<path fill="#C03A27" d="M660.5,635.1l-30-55.4l130.7-70.9c6-3.6,7.1-9.2,7.3-12.2c0.1-3.1-0.5-8.9-6.4-13l-134.5-93.3l35.9-51.8
					L798,431.9c22.1,15.3,34.6,40.5,33.5,67.4c-1.1,26.9-15.7,50.9-39,64.3c-0.2,0.1-0.5,0.3-0.7,0.4L660.5,635.1z"/>
			</g>
			<path fill="#FCB64E" d="M544,562.6L544,562.6c-16.7,0-30.2-13.5-30.2-30.2v-61.9h60.5v61.9C574.3,549,560.7,562.6,544,562.6z"/>
			<path fill="#FFCD80" d="M589.2,536.4L589.2,536.4c-53.4,0-96.7-43.3-96.7-96.7V315.3c0-19.6,15.9-35.5,35.5-35.5h122.5
				c19.6,0,35.5,15.9,35.5,35.5v124.4C686,493.1,642.7,536.4,589.2,536.4z"/>
			<path fill="#8B5E3C" d="M527,400.5h-34.5V286.1c0-8.4,6.8-15.3,15.3-15.3H527V400.5z"/>
			<circle fill="#FFCD80" cx="496.5" cy="408.1" r="34.5"/>
			<g>
				<path fill="#726658" d="M498.7,423.2c-2.8,0-5-2.2-5-5s2.2-5,5-5c2.8,0,5-2.2,5-5s-2.2-5-5-5c-2.8,0-5-2.2-5-5s2.2-5,5-5
					c8.3,0,15,6.7,15,15S507,423.2,498.7,423.2z"/>
			</g>
			<g>
				<path fill="#8B5E3C" d="M567.7,386.2c-5.6,0-11.2-1.3-16.3-3.9c-3.7-1.9-5.2-6.4-3.3-10.1c1.9-3.7,6.4-5.2,10.1-3.3
					c5.1,2.6,11,3,16.4,1.2c5.5-1.8,9.9-5.6,12.5-10.8c1.9-3.7,6.4-5.2,10.1-3.3c3.7,1.9,5.2,6.4,3.3,10.1
					c-4.4,8.7-11.9,15.2-21.1,18.3C575.5,385.5,571.6,386.2,567.7,386.2z"/>
			</g>
			<path fill="#8B5E3C" d="M665.7,331.4h-156v-67.7c0-15.3,12.4-27.7,27.7-27.7h128.3c26.3,0,47.7,21.3,47.7,47.7v0
				C713.4,310.1,692.1,331.4,665.7,331.4z"/>
			<path fill="#916546" d="M631.8,256.9H547c-20.6,0-37.3,16.7-37.3,37.3v0c0,20.6,16.7,37.3,37.3,37.3h84.8
				c20.6,0,37.3-16.7,37.3-37.3v0C669.1,273.6,652.4,256.9,631.8,256.9z"/>
			<g>
				<path fill="#594A42" d="M593.7,405.5h-32.5c-2.8,0-5-2.2-5-5s2.2-5,5-5h32.5c2.8,0,5,2.2,5,5S596.5,405.5,593.7,405.5z"/>
			</g>
			<g>
				<path fill="#8B5E3C" d="M671.3,386.2c-13.4,0-26.3-7.4-32.7-20.1c-1.9-3.7-0.4-8.2,3.3-10.1c3.7-1.9,8.2-0.4,10.1,3.3
					c5.3,10.6,18.3,14.9,28.9,9.6c3.7-1.9,8.2-0.4,10.1,3.3s0.4,8.2-3.3,10.1C682.3,384.9,676.7,386.2,671.3,386.2z"/>
			</g>
			<g>
				<path fill="#594A42" d="M677.8,405.5h-32.5c-2.8,0-5-2.2-5-5s2.2-5,5-5h32.5c2.8,0,5,2.2,5,5S680.5,405.5,677.8,405.5z"/>
			</g>
			<g>
				<path fill="#FAA62C" d="M623.2,457.4L623.2,457.4c-8.3,0-15-6.7-15-15v-27c0-8.3,6.7-15,15-15h0c8.3,0,15,6.7,15,15v27
					C638.2,450.7,631.5,457.4,623.2,457.4z"/>
			</g>
			<path fill="#FCB64E" d="M487.3,266.4l-19.9,27.4c-5.8,7.9-8.9,17.5-8.9,27.3v68h32c18.1,0,32.8-14.7,32.8-32.8v-37.8
				c0-8.2,2.6-16.1,7.4-22.7l11.1-15.3c5.8-8,0.1-19.2-9.8-19.2H497C493.2,261.4,489.5,263.3,487.3,266.4z"/>
			<g>
				<path fill="#C03A27" d="M432.5,623.7L328,563.6c-23.3-13.4-37.9-37.5-39-64.3c-1.1-26.9,11.4-52.1,33.5-67.4l134.5-93.3
					l35.9,51.8l-134.5,93.3c-5.9,4.1-6.6,9.9-6.4,13c0.1,3.1,1.3,8.8,7.5,12.4l104.5,60.1L432.5,623.7z"/>
			</g>
		</g>
		<path fill="#BDBDBD" d="M1182.2,505.4H813.5c-14.9,0-27,12.1-27,27v221.3c0,14.9,12.1,27,27,27h368.7c14.9,0,27-12.1,27-27V532.5
			C1209.2,517.5,1197.1,505.4,1182.2,505.4z"/>
		<path fill="#E1E2E2" d="M1198.2,505.4H829.5c-14.9,0-27,12.1-27,27v221.3c0,14.9,12.1,27,27,27h368.7c14.9,0,27-12.1,27-27V532.5
			C1225.2,517.5,1213.1,505.4,1198.2,505.4z"/>
		<path fill="#757677" d="M907.9,718.8h-66.6c-2.1,0-3.7,1.7-3.7,3.7c0,2.1,1.7,3.7,3.7,3.7h66.6c2.1,0,3.7-1.7,3.7-3.7
			C911.7,720.4,910,718.8,907.9,718.8z"/>
		<path fill="#757677" d="M907.9,731.1h-66.6c-2.1,0-3.7,1.7-3.7,3.7c0,2.1,1.7,3.7,3.7,3.7h66.6c2.1,0,3.7-1.7,3.7-3.7
			C911.7,732.8,910,731.1,907.9,731.1z"/>
		<path fill="#757677" d="M907.9,743.4h-66.6c-2.1,0-3.7,1.7-3.7,3.7c0,2.1,1.7,3.7,3.7,3.7h66.6c2.1,0,3.7-1.7,3.7-3.7
			C911.7,745.1,910,743.4,907.9,743.4z"/>
		<path fill="#757677" d="M1066.8,663.4h-64.3c-9.7,0-17.5,7.8-17.5,17.5v187h99.3V681C1084.3,671.3,1076.5,663.4,1066.8,663.4z"/>
		<path fill="#9F9E9E" d="M1072.1,663.4h-64.3c-9.7,0-17.5,7.8-17.5,17.5v187h99.3V681C1089.7,671.3,1081.8,663.4,1072.1,663.4z"/>
		<rect x="979" y="780.8" fill="#757677" width="11.3" height="87.2"/>
		<path fill="#BDBDBD" d="M1109.5,852.1H949.9c-2.5,0-4.5,2-4.5,4.5v6.9c0,2.5,2,4.5,4.5,4.5h159.6c2.5,0,4.5-2,4.5-4.5v-6.9
			C1114,854.1,1112,852.1,1109.5,852.1z"/>
		<g>
			<rect x="531" y="868" fill="#8B5E3C" width="753" height="43.4"/>
			<rect x="116" y="868" fill="#BB8B5D" width="415" height="43.4"/>
		</g>
		<g>
			<path fill="#FFFFFF" d="M1054.8,109.7H857.2c-33.8,0-61.1,27.4-61.1,61.1v87.3c0,33.8,27.4,61.1,61.1,61.1h2.8l-22.4,54.3
				l81.8-54.3h135.3c33.8,0,61.1-27.4,61.1-61.1v-87.3C1116,137.1,1088.6,109.7,1054.8,109.7z"/>
			<path fill="#FFFFFF" d="M330.1,168.8H205.2c-33.8,0-61.1,27.4-61.1,61.1v39.7c0,33.8,27.4,61.1,61.1,61.1h90.7l63.2,42l-17.7-43
				c28.4-5.3,49.9-30.2,49.9-60.1V230C391.2,196.2,363.9,168.8,330.1,168.8z"/>
			<path fill="#FFFFFF" d="M313.3,649.2l17.7-43l-63.2,42h-90.7c-33.8,0-61.1,27.4-61.1,61.1v39.7c0,33.8,27.4,61.1,61.1,61.1H302
				c33.8,0,61.1-27.4,61.1-61.1v-39.7C363.2,679.3,341.7,654.5,313.3,649.2z"/>
		</g>
		<g>
			<rect x="599.7" y="761.4" fill="#D1D3D4" width="77" height="106.6"/>
			<path fill="#D1D3D4" d="M596.9,781.4h-13.4c-4.1,0-7.4,3.3-7.4,7.4v51.7c0,4.1,3.3,7.4,7.4,7.4h13.4l-5.8-10.5v-49.5L596.9,781.4
				z"/>
			<g>
				<path fill="#BDBDBD" d="M613.5,847.9h-18.7c-6,0-10.8-4.8-10.8-10.8v-44.9c0-6,4.8-10.8,10.8-10.8h18.7c2.2,0,4,1.8,4,4l0,0
					c0,2.2-1.8,4-4,4h-18.7c-1.6,0-2.8,1.3-2.8,2.8v44.9c0,1.6,1.3,2.8,2.8,2.8h18.7c2.2,0,4,1.8,4,4l0,0
					C617.5,846.2,615.7,847.9,613.5,847.9z"/>
			</g>
		</g>
		<g>
			<path fill="#FFFFFF" d="M662.5,700.4c-7.5,0-13.6,5.7-14.1,13.1c-1.3-0.5-2.6-0.7-4.1-0.7c-6.6,0-12,5.4-12,12
				c0,5.2,3.4,9.7,8,11.3c0,0.9,0.2,1.7,0.5,2.5c-0.2,0-0.3,0-0.5,0c-4.4,0-8,3.6-8,8s3.6,8,8,8s8-3.6,8-8c0-0.6-0.1-1.2-0.2-1.8
				c0.5,0.1,1,0.1,1.5,0.1c5.2,0,9.3-4.2,9.3-9.3c0-2.8-1.3-5.4-3.3-7.1c0.1-0.4,0.2-0.8,0.3-1.2c1.9,1,4.1,1.6,6.5,1.6
				c7.8,0,14.2-6.4,14.2-14.2S670.4,700.4,662.5,700.4z"/>
			<circle fill="#FFFFFF" cx="690.5" cy="725.9" r="5.2"/>
			<circle fill="#FFFFFF" cx="635.8" cy="700.3" r="6.2"/>
			<circle fill="#FFFFFF" cx="616.8" cy="728" r="5.5"/>
			<circle fill="#FFFFFF" cx="683.2" cy="697.3" r="3.2"/>
		</g>
		<g>
			<g>
				<path fill="#83D3F5" d="M485.9,327.3c-35.6,0-57.4-7.7-61.4-21.6c-3.2-11.1,5.1-24.8,24.1-39.7c18.2-14.3,44.7-28.6,76.7-41.5
					c17.2-6.9,35.5-13.2,54.5-18.7c44.9-13,88.7-20.2,123.3-20.2c35.6,0,57.4,7.7,61.4,21.6c4,13.8-10.2,31.9-39.9,50.8
					c-29.3,18.6-70.3,36.1-115.4,49.2C564.3,320.1,520.5,327.3,485.9,327.3z M703.2,188.5c-34.3,0-77.8,7.1-122.5,20.1
					c-18.8,5.5-37.1,11.7-54.2,18.6c-31.7,12.8-58,27-76,41.1c-17.7,13.9-25.9,26.9-23.1,36.5c3.6,12.3,24.9,19.4,58.5,19.4
					c34.3,0,77.8-7.1,122.5-20.1c44.9-13,85.6-30.4,114.6-48.8c28.1-17.9,42.2-35.2,38.6-47.4C758.1,195.6,736.8,188.5,703.2,188.5z
					"/>
			</g>
			<polygon fill="#FDD836" points="591.7,295.2 595.5,303 604.1,304.2 597.9,310.3 599.3,318.8 591.7,314.8 584,318.8 585.5,310.3 
				579.3,304.2 587.8,303 			"/>
			<polygon fill="#FDD836" points="679,264.2 686.1,269.1 694.1,266.1 691.6,274.4 697,281.1 688.4,281.3 683.6,288.5 680.8,280.4 
				672.5,278.1 679.3,272.8 			"/>
			<polygon fill="#FDD836" points="765.7,207 764.3,215.6 770.6,221.5 762.1,222.9 758.3,230.7 754.4,223 745.8,221.8 752,215.7 
				750.4,207.2 758.1,211.1 			"/>
			<polygon fill="#FDD836" points="685.2,176.8 683.8,185.3 690.1,191.3 681.6,192.6 677.8,200.4 673.9,192.7 665.3,191.6 
				671.5,185.5 669.9,177 677.6,180.9 			"/>
			<polygon fill="#FDD836" points="572.1,196.4 577.9,202.8 586.5,201.6 582.3,209.1 586.1,216.9 577.6,215.2 571.4,221.2 
				570.4,212.6 562.7,208.5 570.6,204.9 			"/>
			<polygon fill="#FDD836" points="465.1,241.6 473.5,243.8 480.1,238.2 480.6,246.8 488,251.3 479.9,254.4 478,262.8 472.5,256.2 
				463.9,256.9 468.5,249.6 			"/>
			<polygon fill="#FDD836" points="470.5,315.8 478.8,317.9 485.4,312.3 485.9,320.9 493.3,325.4 485.3,328.5 483.3,337 
				477.8,330.3 469.2,331 473.8,323.7 			"/>
		</g>
		<g>
			<g>
				<path fill="#83D3F5" d="M584.7,307.1c-45.2-13.1-86.2-30.6-115.4-49.2c-29.8-18.9-43.9-37-39.9-50.8c4-13.9,25.8-21.6,61.4-21.6
					c34.6,0,78.4,7.2,123.3,20.2c18.9,5.5,37.3,11.8,54.5,18.7c32,12.9,58.5,27.3,76.7,41.5c19,14.9,27.3,28.6,24.1,39.7
					c-4,13.9-25.8,21.6-61.4,21.6C673.5,327.3,629.7,320.1,584.7,307.1z M432.3,207.9c-3.6,12.3,10.5,29.6,38.6,47.4
					c29,18.5,69.7,35.8,114.6,48.8c44.7,13,88.2,20.1,122.5,20.1c33.6,0,54.9-7.1,58.5-19.4c2.8-9.7-5.4-22.6-23.1-36.5
					c-18-14.1-44.3-28.3-76-41.1c-17.1-6.9-35.4-13.2-54.2-18.6c-44.7-13-88.2-20.1-122.5-20.1C457.2,188.5,435.9,195.6,432.3,207.9
					z"/>
			</g>
			<polygon fill="#FDD836" points="602.3,295.2 598.5,303 589.9,304.2 596.1,310.3 594.7,318.8 602.3,314.8 610,318.8 608.5,310.3 
				614.7,304.2 606.2,303 			"/>
			<polygon fill="#FDD836" points="515,264.2 507.9,269.1 499.9,266.1 502.4,274.4 497,281.1 505.6,281.3 510.4,288.5 513.2,280.4 
				521.5,278.1 514.7,272.8 			"/>
			<polygon fill="#FDD836" points="428.3,207 429.7,215.6 423.4,221.5 431.9,222.9 435.7,230.7 439.6,223 448.2,221.8 442,215.7 
				443.6,207.2 435.9,211.1 			"/>
			<polygon fill="#FDD836" points="508.8,176.8 510.2,185.3 503.9,191.3 512.4,192.6 516.2,200.4 520.1,192.7 528.7,191.6 
				522.5,185.5 524.1,177 516.4,180.9 			"/>
			<polygon fill="#FDD836" points="621.9,196.4 616.1,202.8 607.5,201.6 611.7,209.1 607.9,216.9 616.4,215.2 622.6,221.2 
				623.6,212.6 631.3,208.5 623.4,204.9 			"/>
			<polygon fill="#FDD836" points="728.9,241.6 720.5,243.8 713.9,238.2 713.4,246.8 706,251.3 714.1,254.4 716,262.8 721.5,256.2 
				730.1,256.9 725.5,249.6 			"/>
			<polygon fill="#FDD836" points="723.5,315.8 715.2,317.9 708.6,312.3 708.1,320.9 700.7,325.4 708.7,328.5 710.7,337 
				716.2,330.3 724.8,331 720.2,323.7 			"/>
		</g>
		<g>
			<path fill="#368DCC" d="M880.3,230.1c-2.4-7.9-4.7-15.8-6.9-23.7c3.2-1.8,6.5-3.5,9.9-5.2c0.7,0.2,1.5,0,2.2-0.6
				c0.5-0.4,0.9-0.8,1.4-1.3c2.2-2-0.6-5.1-3-3.9c-4,1.9-7.9,3.9-11.7,6c-0.7-2.7-1.5-5.5-2.2-8.3c5.6-3.5,11.3-6.9,17.1-10.1
				c2.8-1.5,0.3-5.8-2.5-4.3c-5.4,2.9-10.7,6-15.9,9.3c-1.6-6.4-3.1-12.8-4.6-19.2c-0.7-3.1-5.5-1.8-4.8,1.3
				c1.6,6.9,3.2,13.8,4.9,20.7c-3.2,2.1-6.3,4.2-9.4,6.4c-1.8-7.5-3.6-15.1-5.4-22.6c-0.8-3.1-5.6-1.8-4.8,1.3
				c2,8.1,3.9,16.3,5.9,24.4c-6.2,4.6-12.2,9.4-17.9,14.5c-2.4,2.1,1.1,5.7,3.5,3.5c5.1-4.4,10.3-8.7,15.7-12.7
				c0.6,2.5,1.2,4.9,1.8,7.4c-4.7,3.3-9.3,6.8-13.7,10.5c-2.5,2.1,1.1,5.6,3.5,3.5c3.7-3.1,7.5-6,11.3-8.8c0.4,2.5,0.9,5.2,3.1,6.4
				c0.9,0.5,2.3,0.5,3-0.4c0.1-0.1,0.2-0.2,0.2-0.3c0.5-0.7,1-1.6,0.6-2.4c-0.1-0.1-0.1-0.3-0.2-0.4c-0.2-0.6-0.6-1.1-1.1-1.4
				c-0.2-0.9-0.8-2.5-0.9-2.9c-0.1-0.6-0.3-1.2-0.4-1.8c3.2-2.2,6.5-4.3,9.8-6.3c2.1,7.5,4.3,15,6.5,22.5
				C876.4,234.5,881.2,233.1,880.3,230.1z M857.9,210c-0.6-2.5-1.2-5-1.8-7.6c3.1-2.2,6.2-4.4,9.4-6.5c0.7,2.7,1.4,5.3,2.1,8
				C864.3,205.9,861,207.9,857.9,210z"/>
			<path fill="#368DCC" d="M1003.5,276.1c-4.7,1.1-12.4,2.8-14.4-3.2c-0.4-1-0.4-2-0.3-2.9c5-2.6,9.1-6.8,12.2-11.4
				c1.5-2.2-1.3-4.5-3.4-3.4c-4.9,2.6-10.2,6.2-12.5,11c-1.5,0.7-3.1,1.2-4.8,1.3c-5.3,0.5-1.6-7.7-1-9c1.4-3.3,3.3-6.2,5.6-8.9
				c4.4-2.9,8.5-6.3,12.3-10.1c2-2-0.6-5.3-3-3.9c-4.7,2.7-9.1,6.1-12.6,10.2c-7.6,5-16.1,8.6-25.2,10.6c0.4-4.8,2.1-9.2,4.5-13.3
				c10.3-5.1,19.5-12.6,26.9-21.4c1-1.1,0.9-2.4,0-3.5c-6.2-8-19.1,7.6-22.9,11.6c-2.8,2.9-5.3,6.1-7.5,9.4c-1.6,0.8-3.3,1.5-5,2.1
				c-2.1,0.8-4.4,1.2-6.7,0.7c-4.7-1-1.4-7.9-0.5-10c0.2-0.4,0.4-0.8,0.6-1.2c16.4-7.3,30.5-19.3,40.2-34.7c0.9-1.4,0-3.3-1.5-3.7
				c-10.9-3-21.1,7.1-28,14.2c-4.2,4.3-7.9,9.3-11.1,14.4c-1.1,1.8-2.4,3.8-3.5,5.9c-5.5,2.3-11.2,4-17.1,5.1
				c-2.2-6.3-0.4-12.9,3.2-19.1c2.2,0,4.5-0.3,6.4-0.9c11.2-3.4,21.8-9.9,31.1-16.8c2.8-2.1,20-14,12-18.7
				c-3.6-2.1-9.7-0.7-13.5,0.2c-5.7,1.4-10.9,4.7-15.6,8.1c-7.5,5.3-17,13.6-23.2,23.1c-0.3-0.1-0.6-0.2-0.8-0.3
				c-4.4-2.1-1.4-9.3,0.1-12.2c7.1-14.1,20-25,34.2-31.2c3-1.3,0.4-5.6-2.5-4.3c-9.8,4.3-18.5,10.5-25.8,18.4
				c-6.1,6.7-12.8,15.6-13.2,24.9c-0.2,4.8,2.2,7.5,5.6,8.8c-4,7.7-5.5,16.1-1.8,24.1c0.5,1.1,1.8,1.3,2.8,1.1
				c5.2-0.8,10.3-2.2,15.2-3.9c-0.3,1.1-0.6,2.2-0.7,3.3c-0.4,3.9,0.8,8.1,4.7,9.7c3.5,1.4,7.1,0.8,10.6-0.3
				c-1.7,4.2-2.6,8.6-2.5,13.4c0,1.7,1.6,2.7,3.2,2.4c7.3-1.3,14.2-3.5,20.8-6.7c-1.9,3.5-3.2,7.4-2.6,10.8
				c1.1,5.9,6.3,7.2,11.4,5.9c0.1,1.2,0.3,2.4,0.7,3.6c2.8,8.2,13.6,7,20.1,5.4C1008,280.1,1006.7,275.3,1003.5,276.1z M946.3,192.7
				c6.6-5.6,14.6-10.9,23.4-12c0.8-0.1,5.6-0.9,3,1.9c-1.5,1.6-3.3,3-5,4.5c-3.2,2.8-6.7,5.3-10.2,7.7c-6.7,4.6-14,8.3-21.6,11.4
				c-1.4,0.6-2.9,1.2-4.5,1.6C936.1,201.8,941.9,196.5,946.3,192.7z M959,211.3c4.7-5.2,12.6-13.7,20.5-14.4
				c-7.7,11-17.8,19.9-29.4,26.2C952.7,218.9,955.7,215,959,211.3z M980.5,222.2c-3.2,3.4-6.7,6.5-10.4,9.3
				C973.3,228,977.4,224,980.5,222.2z"/>
			<path fill="#368DCC" d="M1024.1,180.2c-2.4-5.6-4.7-11.3-6.7-17c1.2-1,2.3-1.9,3.5-2.8c1.8-1.3,1.5-4.9-1.3-4.7
				c-1.6,0.1-3.1,0.3-4.7,0.4c-0.7-2.2-1.4-4.5-2.1-6.8c-0.7-2.4-4.1-2.3-4.8,0c-0.9,2.8-1.8,5.5-2.7,8.3c-3.3,0.7-6.6,1.5-9.9,2.5
				c-2.1,0.6-2.5,3.4-0.6,4.6c2.3,1.4,4.5,2.8,6.8,4.3c-0.5,1.4-0.9,2.8-1.4,4.1c-0.5,0.6-1.1,1.2-1.6,1.9c-2,2.5,1.5,6,3.5,3.5
				c1.6-1.9,3.3-3.8,5-5.7c4.5,3.2,8.8,6.7,13,10.3C1022.4,185.2,1025.2,182.8,1024.1,180.2z M1011.5,161.6
				C1011.5,161.6,1011.6,161.7,1011.5,161.6c-1.1,1.1-2.2,2.1-3.3,3.1c0.3-0.9,0.6-1.8,0.9-2.7
				C1009.9,161.9,1010.7,161.7,1011.5,161.6z M1002.2,163.5c0.4-0.1,0.9-0.2,1.3-0.3c-0.1,0.3-0.2,0.6-0.3,0.9
				C1002.8,163.9,1002.5,163.7,1002.2,163.5z M1013.4,166.7c0.8,2.2,1.6,4.3,2.5,6.5c-1.7-1.3-3.4-2.6-5.2-3.9
				C1011.5,168.4,1012.4,167.6,1013.4,166.7z"/>
			<path fill="#368DCC" d="M1050.7,244.2c1.3,1.9,4.9,1.4,4.7-1.3c-0.7-6.9-1.5-13.8-2.2-20.7c4-2.2,8.1-4.1,12.4-5.9
				c2.6-1.1,2.3-4.7-0.7-4.9c-4.3-0.3-8.6-0.5-12.9-0.5c-0.2-2.3-0.5-4.6-0.7-6.9c-0.3-2.7-0.4-5.2-2.6-7.1c-1.2-1-3.1-1-3.9,0.5
				c-2.7,4.6-5.2,9.3-7.7,14.1c-4.1,0.3-8.2,0.8-12.3,1.4c-2.3,0.4-2.2,3.5-0.6,4.6c2.6,1.7,5,3.5,7.4,5.5c-1.3,2.8-2.5,5.6-3.7,8.4
				c-0.1,0.3-0.2,0.5-0.2,0.8c-0.8,0.5-1.5,1-2.3,1.5c-2.7,1.8-0.2,6.1,2.5,4.3c3.8-2.6,7.7-5.2,11.6-7.7
				C1043.6,234.6,1047.4,239.2,1050.7,244.2z M1047.9,219.5c-2.6,1.5-5.2,3-7.7,4.6c-0.9-0.8-1.7-1.6-2.6-2.4
				c0.9-1.8,1.7-3.6,2.6-5.4c2.4-0.2,4.9-0.3,7.3-0.3C1047.6,217.1,1047.8,218.3,1047.9,219.5z M1049.4,234.1
				c-1.8-2.2-3.7-4.4-5.7-6.4c1.6-1,3.1-1.9,4.7-2.8C1048.8,227.9,1049.1,231,1049.4,234.1z M1054.6,215.9c-0.7,0.3-1.3,0.7-2,1
				c0-0.3-0.1-0.7-0.1-1C1053.2,215.9,1053.9,215.9,1054.6,215.9z M1046.5,204.3c0.2,2,0.2,4.2,0.3,5.6c0,0.4,0.1,0.8,0.1,1.1
				c-1.4,0-2.8,0.1-4.2,0.2C1044,208.8,1045.3,206.6,1046.5,204.3z M1031.9,217c0.9-0.1,1.7-0.2,2.6-0.3c-0.3,0.5-0.5,1.1-0.8,1.6
				C1033.1,217.9,1032.5,217.5,1031.9,217z M1035.4,226.4c0.1,0.1,0.3,0.3,0.4,0.4c-0.3,0.2-0.6,0.4-0.9,0.6
				C1035.1,227,1035.3,226.7,1035.4,226.4z"/>
			<path fill="#368DCC" d="M1077.1,170.7c1.5-1.6,0.5-4.2-1.8-4.3c-1.8,0-3.6,0-5.4,0.1c-0.6-3-1.2-6-1.7-9.1c-0.4-2.7-4-2-4.8,0
				c-1.3,3.5-2.6,6.9-3.9,10.4c-3.3,0.7-6.6,1.6-9.9,2.8c-2.1,0.8-2.4,3.3-0.6,4.6c2,1.4,4.1,2.8,6.1,4.2c-0.5,1.4-1,2.7-1.5,4.1
				c-0.1,0.2-0.1,0.4-0.2,0.6c0,0-0.1,0-0.1,0.1c-2.7,1.7-0.2,6,2.5,4.3c2.2-1.4,4.3-2.9,6.4-4.4c3.1,2,6.2,3.9,9.3,5.8
				c1.9,1.1,4.3-0.7,3.7-2.8c-1.1-3.7-2.2-7.5-3.1-11.2C1073.8,174.2,1075.4,172.5,1077.1,170.7z M1061.1,177.5
				c0.7-1.7,1.3-3.5,2-5.2c0.9-0.2,1.9-0.3,2.8-0.4c0.2,0.8,0.3,1.5,0.5,2.3c-1.5,1.3-3,2.6-4.5,3.8
				C1061.7,177.9,1061.4,177.7,1061.1,177.5z M1055.8,174c0.5-0.1,1-0.3,1.5-0.4c-0.1,0.4-0.3,0.8-0.4,1.1
				C1056.5,174.4,1056.2,174.2,1055.8,174z M1068.6,182.3c-0.7-0.5-1.4-0.9-2.2-1.4c0.5-0.4,1-0.8,1.5-1.2
				C1068.1,180.5,1068.3,181.4,1068.6,182.3z"/>
			<path fill="#368DCC" d="M898.7,255.7c-9.7,4.5-13.3,16.2-6.1,24.4c1.2,1.4,2.7,2.4,4.4,3.1c-5.4-0.3-10.2-3.1-13-7.8
				c-3.7-6.1-0.3-14.1,6.4-16c3.1-0.9,1.8-5.7-1.3-4.8c-10.4,2.9-13.9,14.1-9.4,23.3c5.1,10.4,19.3,12.4,29,8
				c7.4-3.3,23.3-15.7,16.7-25.6C919.7,251.9,907.2,251.8,898.7,255.7z M909.8,273.4c0,0.3,0,0.5,0,0.8c-3.4,1-7.3-1.3-5.4-5.3
				c1.9-3.9,8.2-0.5,9.7,1.6c0.5,0.7,0.7,1.5,0.7,2.2C914.1,270.3,910,270.5,909.8,273.4z M921.3,266.8c-0.3,1.5-1,2.9-1.9,4.1
				c-1-6.8-10.2-10.5-16.8-7.1c-7.5,3.8-3,13.8,3.7,15.5c-2.9,0.6-5.8,0-8.4-1.4c-7.2-4-4.1-12.7,1.1-16.6
				c4.5-3.4,10.6-3.8,15.9-2.4C918.8,259.9,922.1,262.4,921.3,266.8z"/>
			<path fill="#368DCC" d="M903.3,162.1c4.8,1.1,11.5-0.3,16.7-3.3c1.1-0.4,2.1-0.9,2.9-1.9c0.2-0.2,0.3-0.3,0.4-0.5
				c4.5-3.9,6.5-9.2,2.3-15.2c-3.5-5-10.1-5.1-14.8-2c-5.1,3.3-5.3,10-2.7,14.9c0.5,1,1.4,1.9,2.4,2.7c-1.4,0.2-2.7,0.4-3.9,0.5
				c-3.7,0.4-5.7-2.1-5.8-5.9c0-1.1,0.4-10.9,2.5-10c2.9,1.3,5.5-3,2.5-4.3c-6.6-3-9,3.7-9.7,8.9
				C895.3,152.7,895.5,160.3,903.3,162.1z M912.9,143.9c2-2.4,5.6-2.5,7.9-0.6c0.7,0.6,1.2,1.2,1.5,1.9c-0.3-0.2-0.5-0.4-0.8-0.6
				c-0.9-0.6-2.3-0.4-3,0.4c-1.1,1.1-2.2,2.2-3.3,3.3c-2.3,2.3,1.3,5.8,3.5,3.5c0.5-0.5,0.9-0.9,1.4-1.4c0.6,1.4-0.4,2.6-2.9,3.6
				c-2.1,0-3.7-0.8-4.8-2.5C910.8,149.2,911.2,146,912.9,143.9z"/>
			<path fill="#368DCC" d="M861.3,252.5c-3-2.4-6-2.9-8.7-2.2c-0.3-0.2-0.6-0.3-1-0.4c-7.2-1.5-11.6,4.9-13.4,11.1
				c-1.9,6.8,1.2,14.1,7.5,17.1C859.3,284.3,872.8,261.8,861.3,252.5z M860.7,264c-1.1,6.6-9.3,12.9-15.2,7.9
				c-3.3-2.8-3.4-12.2,0.3-15.9c-2.6,4.5-3.1,10.7,0.4,15c4.2,5.1,11.2,0.4,13.5-3.9c2.9-5.5-0.6-12.5-7.2-11.3
				c-0.8,0.2-1.6,1-1.7,1.7c-0.7,3.4,0.4,6.2,3.6,7.8c0,0,0.1,0,0.1,0.1c-1.3,2.9-3.9,5.3-5.7,0.5c-0.8-2.3,0.1-5.2,1-7.3
				c1.5-3.2,4.3-4.2,7.4-2.8C860.5,257.3,861.2,260.8,860.7,264z"/>
			<path fill="#368DCC" d="M1045.3,265.6c-2.6-1.3-5.6,0.4-7.1,2.9c-2.3,3.8-2.6,8-1.4,12.2c3.2,10.8,16.1,10.6,24,5.3
				c7.4-4.9,16-16.5,8.2-24.7C1061.6,253.4,1050.2,257,1045.3,265.6z M1064.4,272.1c0-0.2-0.1-0.5-0.2-0.7c-0.8-3.1-5.7-1.8-4.8,1.3
				c-1.2-0.3-2.5-0.5-3.7-0.8c0.1-2.6,1.5-4,4.4-4.3C1063.3,267.3,1064.6,269.7,1064.4,272.1z M1064.2,263.5c-2.6-1.1-5.6-1.4-8.3,0
				c-3.4,1.9-6.5,6.2-5,10.3c1.2,3.5,4.2,5.3,7.1,5.4c-2,0.8-4.1,1-6.2,0.6C1042.9,278.2,1052.2,254.4,1064.2,263.5z M1041.7,279.3
				c-0.5-1.3-0.6-2.7-0.6-4c0-0.5,1.3-5.7,2.4-4.9c0,0,0,0,0,0c-1.4,6.4,1.4,12.7,7.5,14.4C1047.1,285.1,1043.3,283.2,1041.7,279.3z
				"/>
			<path fill="#368DCC" d="M256.5,265.2c-0.1,5.9,1.4,11.4,3.4,16.9c1.7,4.7,3.3,9.5,7.6,12.4c0.9,0.6,2.3,0.4,3-0.4
				c0.9-1.1,1.7-2.2,2.2-3.4c1.7,2.1,3.9,3.4,6.8,2.6c3-0.8,4.2-2.7,4.5-5c2.1,2,4.6,3.2,7.3,2.2c2.8-1.1,4.2-3.4,4.8-6
				c0.6,0.5,1.3,1,2.2,1.4c3,1.4,7.2,0.7,8.6-2.6c4-9.5-6.6-18-8.8-26.8c17.2-4,19.6-27.9,13.1-41.5c-8-16.9-26.9-18.2-43.3-15.4
				c-17.3,3-37,10.9-41.5,29.8C221.9,248.4,240.2,261.9,256.5,265.2z M231.6,229.3c3.7-15.4,21.2-21.4,34.8-24.3
				c13-2.9,29.7-3.6,38.4,8.5c7.8,11,7.2,35.4-8.9,38.4c-1.3,0.2-1.8,1.2-1.8,2.2c-0.7,0.5-1.2,1.4-1,2.5c0.9,5.4,4,9.8,6.7,14.3
				c1.7,2.8,2.9,5.6,3,8.9c0.1,4.6-5.2-1.6-5.5-2c-1-1.8-1.8-3.5-3.1-5.2c-1.9-2.5-5.9-0.4-4.3,2.5c0.6,1.1,3.4,12.2-1.3,9.7
				c-3.3-1.8-5-5.6-5.7-9c-0.6-2.8-4.9-2.1-4.9,0.7c0,3.1,1.2,5.8,1.6,8.9c0.4,3.5-3.2,1.6-4.3-0.1c-0.6-1-1-2.1-1.5-3.1
				c-0.3-1.3-0.8-2.7-1.6-4c-1.4-2.4-5.7-0.7-4.6,1.9c0.4,0.9,0.8,2.1,1.3,3.4c0.4,1.7,0.2,3.5-0.7,5.1c-2.2-2.6-3.1-6.5-4.2-9.5
				c-1.8-4.9-2.9-9.8-2.6-15.1c0.1-1.4-0.8-2.2-1.9-2.4c-0.3-0.6-0.8-1-1.6-1.2C243.3,257.5,227.5,246.4,231.6,229.3z"/>
			<path fill="#368DCC" d="M245.5,245.6c6.1,2.9,12.8,3.6,16.8-2.7c3.7-5.9,0.7-13.5-4.9-16.8c-0.2-0.1-0.4-0.2-0.6-0.3
				C246.4,218,233.2,239.7,245.5,245.6z M246.2,234.7c0.9-3,4.6-7.6,7.9-4.5c0.4,0.4,0.9,0.6,1.3,0.7c2.2,1.6,3.4,3.7,3.4,6.6
				c0,2-1.2,4-2.8,5.2c-1.2,0.9-4-0.1-5.2-0.4c-1.5-0.4-3-1-4.3-1.8C244.5,239.4,245.8,236.2,246.2,234.7z"/>
			<path fill="#368DCC" d="M293.2,236.6c5.1-2.9,5.9-9.7,3.7-14.6c-2.6-5.6-10.2-7-15.1-3.9c-0.5,0-1,0.2-1.5,0.6
				c-4.3,3.7-5.2,10.3-1.9,15C281.7,238.5,288.4,239.3,293.2,236.6z M292.6,224.6c1.7,2.8,0.1,6.6-2.5,8.1c-2.5,1.4-6.2,0.2-7.7-2
				c-1.6-2.3-1-5.3,0.6-7.3c0.2-0.1,0.5-0.2,0.7-0.4C286.7,220.6,290.6,221.2,292.6,224.6z"/>
			<path fill="#368DCC" d="M270.8,258.2c3.4-0.8,9.5-2.6,10.6-6.4c1.1-4-4.3-7.7-7.1-9.5c-1.7-1.1-3.3,0.2-3.6,1.8
				c-0.5,0.3-0.9,0.7-1.2,1.3c-1.3,3.3-1.9,6.8-1.8,10.4C267.7,257.5,269.2,258.6,270.8,258.2z M276.4,250.5
				c-1.1,0.8-2.3,1.4-3.6,1.9c0.2-1.4,0.5-2.8,0.9-4.2C275,249.3,276.4,250.5,276.4,250.5z"/>
			<path fill="#368DCC" d="M195.2,228.8c11.4-1.3,20.7-12,23.4-22.6c2.8-11.3-4-20.5-15.7-20c-10.1,0.4-18.3,8.5-18.8,18.5
				c-0.5,9.1,6.9,17.8,16,17.4c-4.7,2.2-9.9,2.6-14.6,0.1c-7-3.8-6.9-13.6-5.2-20.2c1.7-6.7,6.2-13.2,13.2-14.9
				c3.1-0.8,1.8-5.6-1.3-4.8C169.4,188,167.1,231.9,195.2,228.8z M201.6,207.9c-0.2,0.7-0.1,1.3,0.2,1.7c-0.3,0-0.5-0.1-0.8-0.1
				c-6.4-1.2,1.6-10.4,5.9-4.7C204.8,204.1,202.4,205,201.6,207.9z M189.1,205.9c-0.6-6.2,3.7-11.4,9.2-13.7c3-1.3,6.3-1.3,9.4-0.7
				c4.8,1,6.2,5.4,6.4,9.6c0.1,2.9-0.5,5.8-1.8,8.5c0.9-4.1,0.2-8.1-3.6-10.2c-8.2-4.4-21.9,5.8-12.6,13.1c1.8,1.4,5,2.3,7.8,2.1
				c-0.3,0.4-0.7,0.7-1,1C196.6,222,189.7,211.3,189.1,205.9z"/>
			<path fill="#368DCC" d="M176.8,280.1c0.1,0,0.2,0,0.2,0c0,0,0,0,0,0c1.3,8.8,10,7.7,17.3,5.3c-0.6,1.6-1,3.3-1.1,5
				c-0.3,3.4,1.7,6.4,4.7,7.7c3.4,1.5,7.7,0.1,11.2-1.3c-1.5,3.2-2.6,6.6-3.3,10.2c-0.3,1.4,0.7,3.4,2.4,3.2
				c5.3-0.6,10.2-2.2,14.7-4.5c0.1,2.4,1.7,4.1,4.3,4.6c2.2,0.4,4.7-1.1,6.9-2.8c1.6,2.2,4.6,2.8,7.5,3.1c3.2,0.3,3.2-4.7,0-5
				c-1.5,0.2-2.7-0.3-3.6-1.4c0.2-0.1,0.3-0.3,0.5-0.4c2.1-1.6,0.9-5.6-1.9-4.6c-1,0.3-1.8,0.9-2.5,1.6c-1.2,0.8-2.3,1.7-3.5,2.5
				c-2.3,1.7-2.9,1.4-2-1.2c0-0.1,0-0.1,0.1-0.2c3.8-2.8,7.2-6.4,9.9-10.5c1.4-2-0.9-4-2.8-3.7c-5.6,0.8-9.5,5.9-11.5,11.2
				c-3.8,2.6-8.1,4.5-12.7,5.5c1.2-4,2.9-7.7,5.1-11.1c7.4-3.8,14-9.3,19.3-15.8c1.4-1.7,0.1-5.2-2.4-4.2c-8.2,3.4-15.2,9-20.2,16
				c-6.4,3.1-16.4,6.6-14.8-1.1c0.4-1.9,1.2-3.8,2.3-5.6c0.2-0.1,0.5-0.2,0.7-0.3c12.5-5.3,23.8-12.7,33.7-22.1
				c1.3-1.2,0.8-3.8-1.1-4.2c-4-0.7-7.8-0.2-11.4,1.2c3.9-4.1,5.9-8.8,2-13.8c-3.2-4.2-10.3-0.8-13.9,0.7
				c-5.2,2.2-10.1,5.1-14.6,8.5c-4.7,3.7-9,7.8-12.7,12.6c-2.1,2.7-4.6,6-5.9,9.5c-3.4-0.6-5.8-3-5-7.4c0.8-4.7,5.8-8.3,9.3-11.1
				c7.2-5.8,15.7-10.2,24.4-13.3c3-1.1,1.7-5.9-1.3-4.8c-12,4.3-23.9,10.9-32.8,20.2C166,265,165.1,279.2,176.8,280.1z M187.5,282.1
				c-3.6,0.8-5-0.3-5.2-2.2c7.1-0.8,14.2-4.1,20.5-8c-2,2.2-3.9,4.6-5.5,7.2C194.1,280.4,190.8,281.4,187.5,282.1z M210.9,271
				c4.1-3.8,9.9-8.3,15.8-9.6c-6,5.1-12.6,9.7-19.7,13.4C208.4,273.4,209.7,272.1,210.9,271z M193.7,261.6
				c6-5.9,13.5-10.4,21.3-13.5c1.6-0.6,6.6-2.9,6.8,1.5c0.1,2.6-3.2,4.8-5,6.3c-3.7,3-7.6,5.9-11.5,8.6c-6.7,4.6-13.9,8.1-21.7,10
				c0.5-1,1-1.9,1.4-2.6C187.5,268.1,190.5,264.7,193.7,261.6z"/>
			<path fill="#368DCC" d="M353.7,272.8c-1.6,0.8-3.3,1.6-4.9,2.5c-0.6-1.3-1.2-2.7-1.9-4c1.7-0.8,3.5-1.6,5.2-2.4
				c0.2,0,0.4-0.1,0.6-0.2c0.5-0.3,1.1-0.5,1.6-0.8c2.9-1.5,0.4-5.7-2.5-4.3c-2.3,1.1-4.7,2.2-7,3.3c-3.4-7.1-6.9-14.1-10.6-21.1
				c-1.5-2.9-5.8-0.3-4.3,2.5c3.5,6.7,6.9,13.5,10.2,20.3c0.1,0.1,0.1,0.2,0.2,0.4c-2.1,1-4.3,2-6.4,3c-0.5,0.2-1,0.4-1.4,0.7
				c-2.2-5-4.5-10.1-6.7-15.1c-1.3-2.9-5.6-0.4-4.3,2.5c2.2,4.9,4.4,9.8,6.5,14.7c-1,0.5-2,0.9-3,1.4c-1.7,0.8-2.7,1.1-3.4,2.9
				c-0.5,1.4,0.6,2.6,1.7,3.1c0.1,0,0.2,0.1,0.3,0.1c1.1,0.4,2-0.2,2.7-1c0.3-0.1,0.7-0.4,1.3-0.8c0.8-0.4,1.7-0.8,2.5-1.2
				c0.6,1.3,1.2,2.6,1.7,3.9c0.3,0.6,0.5,1.2,0.8,1.9c-3.6,2.4-7,4.9-10.4,7.6c-2.5,2,1,5.5,3.5,3.5c2.9-2.3,5.9-4.5,8.9-6.5
				c0.6,1.4,1.3,2.8,1.9,4.2c1,2.2,1.4,4.3,3.7,5.3c1.3,0.5,2.6-0.6,3.1-1.7c0-0.1,0.1-0.2,0.1-0.3c0.4-1.1-0.2-2.1-1.1-2.7
				c-0.1-0.3-0.4-0.7-0.7-1.2c-0.8-1.8-1.6-3.6-2.4-5.3c-0.1-0.3-0.3-0.6-0.4-0.9c2.6-1.6,5.2-3.2,7.9-4.7c1.4,2.6,3,5.9,2.6,6.6
				c-1.6,2.8,2.7,5.3,4.3,2.5c1.3-2.3,0.5-3.9-0.5-6.3c-0.7-1.7-1.5-3.4-2.2-5.1c1.8-0.9,3.5-1.8,5.3-2.7
				C359.1,275.7,356.5,271.4,353.7,272.8z M334.4,277.1c1.2-0.6,2.5-1.2,3.7-1.7c1.4-0.7,2.8-1.3,4.2-2c0.7,1.4,1.3,2.9,2,4.3
				c-2.6,1.5-5.2,3-7.7,4.5C336,280.5,335.2,278.8,334.4,277.1z"/>
			<path fill="#368DCC" d="M355.4,195.6c-2.9,0.3-5.7,0.7-8.6,1c-0.8-1.8-1.6-3.7-2.4-5.5c0.9-3-3.9-4.3-4.8-1.3
				c-0.9,2.7-1.7,5.3-2.5,8c-2.4,0.3-4.9,0.6-7.3,1c-2,0.3-2.2,2.9-1.1,4.2c1.6,1.9,3.5,3.5,5.5,4.9c-0.7,2.8-1.4,5.5-2.1,8.3
				c-1.9,2.1-3.8,4.2-5.6,6.4c-2.1,2.5,1.5,6,3.5,3.5c0.7-0.9,1.5-1.7,2.2-2.5c1.2,0.7,3,0.3,3.6-1.4c0.2-0.5,0.3-1,0.5-1.5
				c0.1-0.4,0.2-0.8,0.1-1.1c0.1-0.3,0.1-0.6,0.2-0.9c1.8-1.9,3.6-3.7,5.4-5.6c4.1,2.7,7.9,5.5,10.5,9.7c1.7,2.8,5.6,0.4,4.3-2.5
				c-2.1-5-4.3-10-6.4-14.9c2.2-1.9,4.4-3.7,6.6-5.5C358.9,198.5,357.5,195.4,355.4,195.6z M340,205.9c0.3-1.2,0.7-2.5,1.1-3.7
				c0.9-0.1,1.8-0.2,2.7-0.3c0.3,0.7,0.6,1.3,0.9,2c-1.1,1-2.1,1.9-3.2,2.9C340.9,206.6,340.5,206.3,340,205.9z M347.6,211
				c-0.6-0.4-1.3-0.9-1.9-1.3c0.3-0.3,0.6-0.6,1-0.9C347,209.5,347.3,210.3,347.6,211z"/>
			<path fill="#368DCC" d="M246.2,197.9c11-4.8,22.8-7.2,34.8-7.3c3.2,0,3.2-5,0-5c-13,0.1-25.5,2.8-37.3,8
				C240.7,194.9,243.3,199.2,246.2,197.9z"/>
			<path fill="#368DCC" d="M253.7,187.9c4.6-1.8,9.3-2.7,14.3-2.7c3.2,0,3.2-5,0-5c-5.4-0.1-10.6,0.9-15.7,2.8
				C249.4,184.2,250.7,189.1,253.7,187.9z"/>
			<path fill="#368DCC" d="M257.5,297.4c6,4.3,13,6.5,20.4,6.4c3.2-0.1,3.2-5.1,0-5c-6.6,0.1-12.6-1.8-17.9-5.7
				C257.4,291.1,255,295.5,257.5,297.4z"/>
			<path fill="#368DCC" d="M269,304.8c-3.2-0.2-6.3-1-9.4-2.3c-3-1.2-4.3,3.6-1.3,4.8c3.4,1.4,7,2.2,10.7,2.4
				C272.2,310.1,272.2,305.1,269,304.8z"/>
			<path fill="#368DCC" d="M238.4,750.5c0.1,0.6,0.2,1.1,0.3,1.7c0.6,3.2,5.5,1.8,4.8-1.3c-3.9-19.6-7.9-39.2-11.8-58.8
				c-0.4-2.2-3-2.2-4.2-0.9c-0.1-0.3-0.2-0.7-0.2-1c-0.7-3.1-5.5-1.8-4.8,1.3c0.3,1.4,0.6,2.7,0.9,4.1c-1.6-0.3-3.5,1-2.9,3
				c4.8,16.8,9.6,33.5,14.5,50.3C235.4,750.2,237.1,750.9,238.4,750.5z"/>
			<path fill="#368DCC" d="M245,760.4c-3.2,1.7-6,3.9-8.4,6.6c-1.4,1.6-0.3,3.7,1.2,4.2c-0.4,0.5-0.7,1-1.1,1.5
				c-1.8,2.7,2.6,5.2,4.3,2.5c0.6-1,1.3-1.9,2-2.8c0.2,0,0.3-0.1,0.5-0.2c1.1-0.5,2.2-1,3.3-1.5c1.2-0.6,1.5-2.3,0.9-3.4
				c-0.1-0.2-0.3-0.4-0.5-0.6c0-0.6-0.2-1.1-0.5-1.6c0.2-0.1,0.5-0.3,0.7-0.4C250.4,763.3,247.8,758.9,245,760.4z"/>
			<path fill="#368DCC" d="M193.5,722c8.8-7.2,15-20.3,14-31.8c-1-11.2-11.6-16-21.6-16.3c-11.9-0.4-21.6,5.6-24.2,17.4
				c-2.4,10.9,3.9,22.4,15.4,23.6c8.5,0.9,21.9-10.1,20.3-19.2c-1.6-9.4-17.8-15.6-23.9-6.8c-3.3,4.7-2.5,10.3,1.9,14
				c4.1,3.5,8,1.1,9.3-3.6c0.8-3.1-4-4.4-4.8-1.3c-1.9,1.1-3,0.5-3.4-2c-0.3-2.4,0.6-4.2,2.5-5.5c2.3-1.7,6.4-0.4,8.8,0.6
				c6,2.7,5,7.7,1.5,12c-3.1,3.7-7.2,6.7-12.2,6.7c-5.8,0.1-9.5-5.7-10.6-10.5c-1.2-4.9,0.5-11,3.6-14.9c3-3.9,8.5-5.1,13.2-5.5
				c9.8-0.9,19.3,3.4,19.4,14.3c0.1,8.7-5.3,18.5-11.6,24.2c-7.7,7.1-20,5.7-27.7-0.6c-16-13-8-36.7,6.5-46.8
				c2.6-1.8,0.1-6.2-2.5-4.3c-9.1,6.4-16.5,16.1-17.5,27.5c-1.1,11.5,3.4,22.6,12.8,29.3C171.5,728.9,185,728.8,193.5,722z"/>
			<path fill="#368DCC" d="M193,750c-9,4.8-12.8,15.2-6.2,23.6c5.9,7.5,19.1,3.6,22-4.8c3.3-9.6-10.4-14-13-4.2
				c-0.8,3.1,4,4.4,4.8,1.3c2.6,1.6,2.9,2.9,1,4.1c-1.7,1.7-4,2.6-6.4,2.7c-4.2,0.2-6.9-4.6-7.1-8.1c-0.5-8,8.8-11.7,15.3-11.6
				c7.4,0,14.3,3.7,14.7,11.7c0.3,6-2.5,11.9-6.4,16.3c-8.8,9.9-26.3,6-35.4-1.7c-10.6-9.1,0.2-26.2,8-33.2c2.4-2.2-1.1-5.7-3.5-3.5
				c-8.1,7.2-14.1,18-13.7,29c0.4,10.1,10.6,15.7,19.1,18.4c11,3.4,22,2.5,30-6.4c6.3-7.1,10-20.2,3.9-28.4
				C214.7,747.5,200.7,745.9,193,750z"/>
			<path fill="#368DCC" d="M303.5,705.9c-3.1,0.9-1.8,5.7,1.3,4.8c3.2-0.9,5-4.1,4.3-7.4c-1-4.3-4.4-6.3-8.5-6.5
				c-12.1-0.8-10.8,14.5-6.1,21.2c6.6,9.3,18.7,5.1,23.3-3.7c5-9.6-1.4-24.6-9.6-30.4c-8.3-5.9-22.3-1.7-28.8,4.9
				c-7.9,8.1-5,23.7,0.4,32.3c5.2,8.4,15.6,12.4,25.1,12.2c10.5-0.2,19.3-6.9,24.2-15.8c9.4-17,1-36.8-14.8-46.2
				c-15.8-9.4-39-5.2-47.8,11.7c-1.5,2.9,2.8,5.4,4.3,2.5c10.5-20.3,39.2-16.9,51.5-0.5c12.6,16.7,2.2,44-20,43.4
				c-10.6-0.3-18.8-7.5-21.5-17.4c-1.7-6.1-2.2-13.5,2-18.6c3.3-4,8.9-5.6,13.9-5.9c7.3-0.5,11.3,3.2,14.6,9.3
				c3.2,5.9,4.7,13.6,0.2,19.2c-5.2,6.5-12.6,3-15.1-3.7c-1.3-3.4-1.4-7.7,2.6-9.1C301.6,701.2,306.4,705.1,303.5,705.9z"/>
			<path fill="#368DCC" d="M307.4,753.1c-8-7.7-20.6-7.8-28.9-0.9c-1.5,1.2-0.8,3,0.5,3.7c-7.5,2-13.6,8.2-14.7,16.2
				c-1.3,9.5,5.6,18.5,14.6,21.1c5.7,1.6,12.3-0.1,17.9-1.5c6.2-1.6,12-4.6,15.9-9.7C319.6,772.9,314.8,760.2,307.4,753.1z
				 M280.1,788.4c-5.4-1-9.2-6-10.6-11c-1.8-6.2,1.9-12,7-15.2c5.5-3.4,14.5-2.5,17.1,4.2c1.5,3.8-1.2,7-4.7,7.9
				c-1.8,0.5-4.1,0.3-5.9,0c-0.7-0.2-1.3-0.5-2-0.7c-2.7-1.4-2.9-2.8-0.5-4c0.8,3.1,5.6,1.8,4.8-1.3c-0.9-3.6-4.4-5-7.8-4
				c-4,1.2-4.2,6.3-3,9.4c3.6,8.7,18.2,7.4,22.8,0.7c5.9-8.5-3.5-18.3-11.9-19c-1-0.1-2-0.1-3,0c11.3-8.8,24.9,1,28.2,12.9
				C314.8,783.7,291.4,790.6,280.1,788.4z"/>
			<path fill="#368DCC" d="M150.1,747.7c0-0.7-0.1-1.5-0.1-2.2c0-5.6-0.6-11.2-1.4-16.7c-0.5-3.2-5.3-1.8-4.8,1.3
				c0.4,3,0.7,6.1,1,9.1c-0.9,0.2-1.9,0.5-2.8,0.7c0.1-2.8,0.2-5.7,0.3-8.5c0.1-3.2-4.9-3.2-5,0c-0.1,3.3-0.2,6.5-0.4,9.8
				c-2.2,0.5-4.4,1.1-6.6,1.6c-3.1,0.8-1.8,5.6,1.3,4.8c1.7-0.4,3.4-0.8,5.1-1.3c-0.1,1.8-0.1,3.6-0.2,5.4c-1.2,0.4-2.3,0.7-3.5,1.1
				c-3.1,1-1.8,5.8,1.3,4.8c0.7-0.2,1.5-0.5,2.2-0.7c0.3,1.5,1.2,2.6,3.3,2.7c0.8,0,1.8-0.5,2.2-1.2c0.1-0.2,0.1-0.3,0.2-0.5
				c0.4-1,0.2-1.9-0.3-2.7c0.6-0.2,1.1-0.4,1.7-0.5c0.2,0.8,0.7,1.4,1.7,1.6c0.2,0,0.4,0.1,0.6,0.1c0.8,0.2,1.8,0,2.4-0.6
				c0.8-0.9,1.3-2,1.5-3.1c0.2-0.1,0.3-0.1,0.5-0.2C153,751.7,152.4,747.9,150.1,747.7z M141.7,745.1c1.1-0.3,2.2-0.6,3.4-0.8
				c0.1,1.4,0.3,3.1,0.3,4.6c-1.3,0.4-2.6,0.8-3.9,1.2C141.6,748.5,141.7,746.8,141.7,745.1z"/>
			<path fill="#368DCC" d="M345,756.4c-0.5,0.1-1,0.1-1.5,0.2c0-1.1,0-2.2,0-3.3c0.1,0,0.1,0,0.2,0c3.2-0.3,3.2-5.3,0-5
				c-0.1,0-0.1,0-0.2,0c0-2.3,0-4.5,0-6.8c0-3.2-5-3.2-5,0c0,2.4,0,4.9,0,7.3c-1.2,0.1-2.4,0.3-3.5,0.5c-0.4-3.1-0.8-6.1-1.2-9.2
				c-0.4-3.2-5.4-3.2-5,0c0.4,3.3,0.8,6.7,1.3,10c-2.6,0.5-5.2,1-7.7,1.6c-3.1,0.7-1.8,5.6,1.3,4.8c2.3-0.6,4.7-1,7-1.5
				c0.1,0.9,0.2,1.7,0.3,2.6c-1.3,0-2.7,0.1-4,0c-3.2,0-3.2,5,0,5c1.6,0,3.1,0,4.7-0.1c0.1,0.5,0.1,1.1,0.2,1.6c0.4,3.2,5.4,3.2,5,0
				c-0.1-0.6-0.2-1.3-0.2-1.9c0.3,0,0.5-0.1,0.8-0.1c-0.8,1.7,0.5,4.3,2.8,3.6c2.2-0.6,2.9-2.3,3.2-4.2c1-0.1,1.9-0.2,2.9-0.4
				C349.5,760.7,348.2,755.9,345,756.4z M335.6,754.2c1-0.1,1.9-0.3,2.9-0.4c0,1,0,2.2,0.1,3.4c-0.9,0.1-1.7,0.2-2.6,0.2
				C335.9,756.3,335.7,755.3,335.6,754.2z"/>
		</g>
		<circle fill="#7E6CAD" cx="109.3" cy="405.4" r="34.7"/>
		<circle fill="#7E6CAD" cx="155" cy="501.9" r="14.7"/>
		<circle fill="#7E6CAD" cx="451.5" cy="105" r="36.4"/>
		<circle fill="#7E6CAD" cx="530.1" cy="110.9" r="13.9"/>
		<circle fill="#7E6CAD" cx="1218" cy="309.7" r="45.5"/>
		<circle fill="#7E6CAD" cx="1226.5" cy="166.3" r="30"/>
		<circle fill="#7E6CAD" cx="1331.7" cy="261.3" r="28.2"/>
		<circle fill="#7E6CAD" cx="1313.2" cy="787.9" r="22.2"/>
		<circle fill="#7E6CAD" cx="1302.1" cy="708.4" r="11.1"/>
		<circle fill="#7E6CAD" cx="62.6" cy="601" r="24"/>
		<circle fill="#7E6CAD" cx="1325.1" cy="522" r="23"/>
		<circle fill="#7E6CAD" cx="729.6" cy="127.1" r="16.2"/>
		<circle fill="#7E6CAD" cx="778.3" cy="96.6" r="13.1"/>
		<circle fill="#7E6CAD" cx="690.6" cy="91.5" r="15.4"/>
		<circle fill="#7E6CAD" cx="97.8" cy="120.2" r="23.2"/>
		<circle fill="#7E6CAD" cx="163.4" cy="121" r="11.3"/>
	</g>
</g>
</svg>
