<?xml version="1.0" encoding="utf-8"?>
<svg id="master-artboard" viewBox="0 0 1400 980" version="1.1" xmlns="http://www.w3.org/2000/svg" x="0px" y="0px" style="enable-background:new 0 0 1400 980;" width="1400px" height="980px">

<path d="M 0 0 H 1400 V 980 H 0 V 0 Z" class="st0" style="fill: rgb(36, 52, 67);"/>
<g>
	<g>
		<g>
			<path class="st1" d="M417.4,671.9c0,13.6-11.1,24.7-24.7,24.7c-13.6,0-24.7-11.1-24.7-24.7c0-13.6,11.1-24.7,24.7-24.7&#10;&#9;&#9;&#9;&#9;C406.3,647.2,417.4,658.3,417.4,671.9z M409.9,671.9c0-9.5-7.7-17.2-17.2-17.2c-9.5,0-17.2,7.7-17.2,17.2&#10;&#9;&#9;&#9;&#9;c0,9.5,7.7,17.2,17.2,17.2C402.2,689.1,409.9,681.4,409.9,671.9z" style="fill: rgb(255, 255, 255);"/>
		</g>
		<g>
			<path class="st1" d="M417.4,343.4c0,13.6-11.1,24.7-24.7,24.7c-13.6,0-24.7-11.1-24.7-24.7c0-13.6,11.1-24.7,24.7-24.7&#10;&#9;&#9;&#9;&#9;C406.3,318.7,417.4,329.8,417.4,343.4z M409.9,343.4c0-9.5-7.7-17.2-17.2-17.2c-9.5,0-17.2,7.7-17.2,17.2&#10;&#9;&#9;&#9;&#9;c0,9.5,7.7,17.2,17.2,17.2C402.2,360.6,409.9,352.9,409.9,343.4z" style="fill: rgb(255, 255, 255);"/>
		</g>
		<g>
			<path class="st1" d="M537.5,273.9c0,13.6-11.1,24.7-24.7,24.7c-13.6,0-24.7-11.1-24.7-24.7c0-13.6,11.1-24.7,24.7-24.7&#10;&#9;&#9;&#9;&#9;C526.4,249.2,537.5,260.3,537.5,273.9z M530,273.9c0-9.5-7.7-17.2-17.2-17.2c-9.5,0-17.2,7.7-17.2,17.2c0,9.5,7.7,17.2,17.2,17.2&#10;&#9;&#9;&#9;&#9;C522.3,291.1,530,283.4,530,273.9z" style="fill: rgb(255, 255, 255);"/>
		</g>
		<g>
			<path class="st1" d="M841.5,588.2c0,13.6-11.1,24.7-24.7,24.7c-13.6,0-24.7-11.1-24.7-24.7c0-13.6,11.1-24.7,24.7-24.7&#10;&#9;&#9;&#9;&#9;C830.5,563.6,841.5,574.6,841.5,588.2z M834,588.2c0-9.5-7.7-17.2-17.2-17.2c-9.5,0-17.2,7.7-17.2,17.2c0,9.5,7.7,17.2,17.2,17.2&#10;&#9;&#9;&#9;&#9;C826.3,605.4,834,597.7,834,588.2z" style="fill: rgb(255, 255, 255);"/>
		</g>
		<g>
			<path class="st1" d="M984.7,612.4c0,13.6-11.1,24.7-24.7,24.7c-13.6,0-24.7-11.1-24.7-24.7c0-13.6,11.1-24.7,24.7-24.7&#10;&#9;&#9;&#9;&#9;C973.7,587.7,984.7,598.8,984.7,612.4z M977.3,612.4c0-9.5-7.7-17.2-17.2-17.2c-9.5,0-17.2,7.7-17.2,17.2&#10;&#9;&#9;&#9;&#9;c0,9.5,7.7,17.2,17.2,17.2C969.6,629.6,977.3,621.8,977.3,612.4z" style="fill: rgb(255, 255, 255);"/>
		</g>
		<g>
			<path class="st1" d="M450,872.9c0-6.7-5.4-12.2-12.2-12.2c-6.7,0-12.2,5.5-12.2,12.2c0,6.7,5.5,12.2,12.2,12.2&#10;&#9;&#9;&#9;&#9;C444.5,885,450,879.6,450,872.9z" style="fill: rgb(255, 255, 255);"/>
		</g>
		<g>
			<path class="st1" d="M255.1,796.3c0-6.7-5.5-12.2-12.2-12.2c-6.7,0-12.2,5.4-12.2,12.2c0,6.7,5.5,12.2,12.2,12.2&#10;&#9;&#9;&#9;&#9;C249.6,808.5,255.1,803,255.1,796.3z" style="fill: rgb(255, 255, 255);"/>
		</g>
		<g>
			<path class="st1" d="M244.5,597.6c0-6.7-5.4-12.2-12.2-12.2c-6.7,0-12.2,5.5-12.2,12.2c0,6.7,5.5,12.2,12.2,12.2&#10;&#9;&#9;&#9;&#9;C239,609.8,244.5,604.4,244.5,597.6z" style="fill: rgb(255, 255, 255);"/>
		</g>
		<g>
			<path class="st1" d="M282.8,309.1c0-6.7-5.4-12.2-12.2-12.2c-6.7,0-12.2,5.4-12.2,12.2c0,6.7,5.5,12.2,12.2,12.2&#10;&#9;&#9;&#9;&#9;C277.4,321.3,282.8,315.8,282.8,309.1z" style="fill: rgb(255, 255, 255);"/>
		</g>
		<g>
			<path class="st1" d="M547.4,146.2c0-6.7-5.5-12.2-12.2-12.2c-6.7,0-12.2,5.4-12.2,12.2c0,6.7,5.5,12.2,12.2,12.2&#10;&#9;&#9;&#9;&#9;C541.9,158.3,547.4,152.9,547.4,146.2z" style="fill: rgb(255, 255, 255);"/>
		</g>
		<g>
			<path class="st1" d="M736.7,237c0-6.7-5.5-12.2-12.2-12.2c-6.7,0-12.2,5.4-12.2,12.2c0,6.7,5.4,12.2,12.2,12.2&#10;&#9;&#9;&#9;&#9;C731.3,249.1,736.7,243.7,736.7,237z" style="fill: rgb(255, 255, 255);"/>
		</g>
		<g>
			<path class="st1" d="M814.7,291.1c0-6.7-5.4-12.2-12.2-12.2c-6.7,0-12.2,5.5-12.2,12.2c0,6.7,5.4,12.2,12.2,12.2&#10;&#9;&#9;&#9;&#9;C809.3,303.2,814.7,297.8,814.7,291.1z" style="fill: rgb(255, 255, 255);"/>
		</g>
		<g>
			<path class="st1" d="M875.3,488.4c0-6.7-5.5-12.2-12.2-12.2c-6.7,0-12.2,5.4-12.2,12.2c0,6.7,5.4,12.2,12.2,12.2&#10;&#9;&#9;&#9;&#9;C869.8,500.6,875.3,495.2,875.3,488.4z" style="fill: rgb(255, 255, 255);"/>
		</g>
		<g>
			<path class="st1" d="M1186.3,828.2c0-6.7-5.5-12.2-12.2-12.2c-6.7,0-12.2,5.4-12.2,12.2c0,6.7,5.5,12.2,12.2,12.2&#10;&#9;&#9;&#9;&#9;C1180.8,840.4,1186.3,835,1186.3,828.2z" style="fill: rgb(255, 255, 255);"/>
		</g>
		<g>
			<path class="st1" d="M1121,304.8c-6.7,0-12.2,5.4-12.2,12.2c0,6.7,5.4,12.2,12.2,12.2c6.7,0,12.2-5.5,12.2-12.2&#10;&#9;&#9;&#9;&#9;C1133.2,310.2,1127.8,304.8,1121,304.8z" style="fill: rgb(255, 255, 255);"/>
		</g>
		<g>
			<path d="M 376.20001220703125 684.7999877929688 L 241.89999389648438 795.0999755859375 L 243.89999389648438 797.5 L 378.20001220703125 687.2000122070312 Z" class="st1" style="fill: rgb(255, 255, 255);"/>
		</g>
		<g>
			<path d="M 232.89999389648438 596.2000122070312 L 231.60000610351562 599.0999755859375 L 373.5 663.7000122070312 L 374.79998779296875 660.9000244140625 Z" class="st1" style="fill: rgb(255, 255, 255);"/>
		</g>
		<g>
			<path d="M 412.70001220703125 677.7000122070312 L 411.8999938964844 680.7000122070312 L 548.7999877929688 714.2999877929688 L 549.5 711.2000122070312 Z" class="st1" style="fill: rgb(255, 255, 255);"/>
		</g>
		<g>
			<path d="M 833.299988 759.099976 L 831.799988 758.900024 L 638.099976 730.799988 L 637.599976 733.900024 L 829.900024 761.799988" class="st1" style="fill: rgb(255, 255, 255);"/>
			<path d="M 587.900024 734.700012 L 557.200012 762.200012 L 436.700012 871.700012 L 438.799988 874 L 559.299988 764.5 L 588.400024 738.5" class="st1" style="fill: rgb(255, 255, 255);"/>
		</g>
		<g>
			<path class="st1" d="M1177.5,827.1l-159.1-31.4l0.6-3.1l159.3,31.5C1178.1,825.1,1177.8,826.1,1177.5,827.1z" style="fill: rgb(255, 255, 255);"/>
		</g>
		<g>
			<path class="st1" d="M1151,668.7L1008,745.3l-1.5-2.7l143.1-76.7C1150.1,666.8,1150.5,667.8,1151,668.7z" style="fill: rgb(255, 255, 255);"/>
		</g>
		<g>
			<path class="st1" d="M536.8,146.4l-1.5,8.8l-3.1-0.5l1.5-8.8L536.8,146.4z M533.5,165.1l-1.7,9.8l-3.1-0.5l1.7-9.8L533.5,165.1z&#10;&#9;&#9;&#9;&#9; M530.1,184.7l-1.7,9.8l-3.1-0.5l1.7-9.8L530.1,184.7z M526.6,204.4l-1.7,9.8l-3.1-0.5l1.7-9.8L526.6,204.4z M523.2,224.1&#10;&#9;&#9;&#9;&#9;l-1.7,9.8l-3.1-0.5l1.7-9.8L523.2,224.1z M519.8,243.7l-1.7,9.8L515,253l1.7-9.8L519.8,243.7z" style="fill: rgb(255, 255, 255);"/>
		</g>
		<g>
			<path class="st1" d="M691.8,391.2l-2.9,9.6l-3-0.9l2.9-9.6L691.8,391.2z M686,410.4l-2.9,9.6l-3-0.9l2.9-9.6L686,410.4z&#10;&#9;&#9;&#9;&#9; M680.3,429.5l-2.9,9.6l-3-0.9l2.9-9.6L680.3,429.5z M674.6,448.6l-2.9,9.6l-3-0.9l2.8-9.6L674.6,448.6z M668.9,467.8l-2.9,9.6&#10;&#9;&#9;&#9;&#9;l-3-0.9l2.9-9.6L668.9,467.8z M663.2,486.9l-2.9,9.6l-3-0.9l2.9-9.6L663.2,486.9z M657.5,506l-2.9,9.6l-3-0.9l2.9-9.6L657.5,506z&#10;&#9;&#9;&#9;&#9; M651.8,525.2l-2.9,9.6l-3-0.9l2.9-9.6L651.8,525.2z M646.1,544.3l-2.9,9.6l-3-0.9l2.9-9.6L646.1,544.3z M640.4,563.4l-2.9,9.6&#10;&#9;&#9;&#9;&#9;l-3-0.9l2.9-9.6L640.4,563.4z M634.6,582.6l-2.9,9.6l-3-0.9l2.9-9.6L634.6,582.6z M628.9,601.7l-2.9,9.6l-3-0.9l2.9-9.6&#10;&#9;&#9;&#9;&#9;L628.9,601.7z M623.2,620.8l-2.9,9.6l-3-0.9l2.9-9.6L623.2,620.8z M617.5,640l-2.9,9.6l-3-0.9l2.9-9.6L617.5,640z M611.8,659.1&#10;&#9;&#9;&#9;&#9;l-2.9,9.6l-3-0.9l2.9-9.6L611.8,659.1z M606.1,678.2l-0.4,1.5l-3-0.9l0.4-1.4L606.1,678.2z" style="fill: rgb(255, 255, 255);"/>
		</g>
		<g>
			<path class="st1" d="M797.6,296l-8.5,5.2l-1.6-2.7l8.5-5.2L797.6,296z M780.6,306.4l-8.5,5.2l-1.6-2.7l8.5-5.2L780.6,306.4z&#10;&#9;&#9;&#9;&#9; M763.6,316.9l-8.5,5.2l-1.6-2.7l8.5-5.2L763.6,316.9z M746.6,327.3l-8.5,5.2l-1.6-2.7l8.5-5.2L746.6,327.3z M729.5,337.8&#10;&#9;&#9;&#9;&#9;L721,343l-1.6-2.7l8.5-5.2L729.5,337.8z" style="fill: rgb(255, 255, 255);"/>
		</g>
		<g>
			<path class="st1" d="M280.7,310.3l-0.9,3l-9.6-2.7l0.8-3L280.7,310.3z M299.9,315.7l-0.8,3l-9.6-2.7l0.9-3L299.9,315.7z&#10;&#9;&#9;&#9;&#9; M319.2,321.1l-0.9,3l-9.6-2.7l0.8-3L319.2,321.1z M338.4,326.5l-0.8,3l-9.6-2.7l0.9-3L338.4,326.5z M357.6,331.8l-0.8,3&#10;&#9;&#9;&#9;&#9;l-9.6-2.7l0.9-3L357.6,331.8z M372.2,335.9l-0.8,3l-4.9-1.4l0.8-3L372.2,335.9z" style="fill: rgb(255, 255, 255);"/>
		</g>
		<g>
			<path class="st1" d="M239.6,445.2c6.7,0,12.2-5.4,12.2-12.2c0-6.7-5.4-12.2-12.2-12.2c-6.7,0-12.2,5.5-12.2,12.2&#10;&#9;&#9;&#9;&#9;C227.4,439.8,232.9,445.2,239.6,445.2z" style="fill: rgb(255, 255, 255);"/>
		</g>
		<g>
			<path class="st1" d="M238.4,443.1l-3-0.9l2.7-9.6l3,0.8L238.4,443.1z M233,462.3l-3-0.8l2.7-9.6l3,0.9L233,462.3z M227.6,481.5&#10;&#9;&#9;&#9;&#9;l-3-0.9l2.7-9.6l3,0.8L227.6,481.5z M222.2,500.8l-3-0.8l2.7-9.6l3,0.9L222.2,500.8z M216.8,520l-3-0.8l2.7-9.6l3,0.9L216.8,520z&#10;&#9;&#9;&#9;&#9; M212.7,534.5l-3-0.8l1.4-4.9l3,0.8L212.7,534.5z" style="fill: rgb(255, 255, 255);"/>
		</g>
		<g>
			<path class="st1" d="M413,202c-5-4.5-12.7-4.1-17.2,0.9c-4.5,5-4.1,12.7,0.9,17.2c5,4.5,12.7,4.1,17.2-0.9&#10;&#9;&#9;&#9;&#9;C418.4,214.2,418,206.5,413,202z" style="fill: rgb(255, 255, 255);"/>
		</g>
		<g>
			<path class="st1" d="M412.5,204.4l1.7,2.6l-8.4,5.3l-1.7-2.6L412.5,204.4z M429.3,193.7l1.7,2.6l-8.4,5.3l-1.7-2.6L429.3,193.7z&#10;&#9;&#9;&#9;&#9; M446.2,183l1.7,2.6l-8.4,5.3l-1.7-2.6L446.2,183z M463.1,172.3l1.7,2.6l-8.4,5.4l-1.7-2.6L463.1,172.3z M479.9,161.6l1.7,2.6&#10;&#9;&#9;&#9;&#9;l-8.4,5.4l-1.7-2.6L479.9,161.6z M492.7,153.5l1.7,2.6l-4.3,2.7l-1.7-2.6L492.7,153.5z" style="fill: rgb(255, 255, 255);"/>
		</g>
		<g>
			<path class="st1" d="M656.4,459.3c-4.2,5.3-3.3,12.9,2,17.1c5.3,4.2,12.9,3.3,17.1-2c4.2-5.3,3.3-12.9-2-17.1&#10;&#9;&#9;&#9;&#9;C668.2,453.2,660.6,454,656.4,459.3z" style="fill: rgb(255, 255, 255);"/>
		</g>
		<g>
			<path class="st1" d="M1119.1,477.1l0.9-3l9.6,2.8l-0.9,3L1119.1,477.1z M1100,471.4l0.9-3l9.6,2.8l-0.9,3L1100,471.4z&#10;&#9;&#9;&#9;&#9; M1080.9,465.8l0.9-3l9.6,2.8l-0.9,3L1080.9,465.8z M1061.7,460.1l0.9-3l9.6,2.8l-0.9,3L1061.7,460.1z M1042.6,454.4l0.9-3&#10;&#9;&#9;&#9;&#9;l9.6,2.8l-0.9,3L1042.6,454.4z M1028.1,450.1l0.9-3l4.9,1.5l-0.9,3L1028.1,450.1z" style="fill: rgb(255, 255, 255);"/>
		</g>
		<g>
			<path class="st1" d="M717.2,224.6l2.9-1l3.3,9.4l-2.9,1L717.2,224.6z M710.6,205.8l2.9-1l3.3,9.4l-2.9,1L710.6,205.8z M704,187&#10;&#9;&#9;&#9;&#9;l2.9-1l3.3,9.4l-2.9,1L704,187z M697.3,168.1l2.9-1l3.3,9.4l-3,1L697.3,168.1z" style="fill: rgb(255, 255, 255);"/>
		</g>
		<g>
			
				<path d="M 401 302.399994 H 499.300003 V 305.499994 H 401 V 302.399994 Z" transform="matrix(0.8604 -0.5096 0.5096 0.8604 -92.062 271.8787)" class="st1" style="fill: rgb(255, 255, 255);"/>
		</g>
		<g>
			<path d="M 523.2000122070312 286.6000061035156 L 523.5999755859375 292.1000061035156 L 666.0999755859375 472.1000061035156 L 665.7000122070312 466.6000061035156 Z" class="st1" style="fill: rgb(255, 255, 255);"/>
		</g>
		<g>
			<path d="M 535.5 527.7999877929688 L 534.9000244140625 530.7999877929688 L 755.5 572.5999755859375 L 797.4000244140625 581.4000244140625 L 798 578.2999877929688 L 756.0999755859375 569.5999755859375 Z" class="st1" style="fill: rgb(255, 255, 255);"/>
		</g>
		<g>
			<path d="M 838.0999755859375 586.7000122070312 L 837.5 589.7999877929688 L 939.0999755859375 610.7000122070312 L 939.7000122070312 607.5999755859375 Z" class="st1" style="fill: rgb(255, 255, 255);"/>
		</g>
		<g>
			
				<path d="M 757.099976 374.899994 H 760.199975 V 582 H 757.099976 V 374.899994 Z" transform="matrix(0.8952 -0.4456 0.4456 0.8952 -133.7197 388.1539)" class="st1" style="fill: rgb(255, 255, 255);"/>
		</g>
		<g>
			<path class="st1" d="M832.6,614.9l-2.8,1.4l-4.4-8.9l2.8-1.4L832.6,614.9z M841.4,632.8l-2.8,1.4l-4.4-9l2.8-1.4L841.4,632.8z&#10;&#9;&#9;&#9;&#9; M850.3,650.7l-2.8,1.4l-4.4-8.9l2.8-1.4L850.3,650.7z M859.1,668.6l-2.8,1.4l-4.4-8.9l2.8-1.4L859.1,668.6z M867.9,686.6&#10;&#9;&#9;&#9;&#9;l-2.8,1.4l-4.4-8.9l2.8-1.4L867.9,686.6z" style="fill: rgb(255, 255, 255);"/>
		</g>
		<g>
			<path class="st1" d="M1030.4,410.6l-15.4,9l-17.9,15.4l-133.4,55l-1.2-2.9l133-54.8l17.7-15.2l17.4-10.1&#10;&#9;&#9;&#9;&#9;C1030.5,408.1,1030.4,409.3,1030.4,410.6z" style="fill: rgb(255, 255, 255);"/>
		</g>
		<g>
			<path d="M 868.9000244140625 210.10000610351562 L 866.9000244140625 210.5 L 724.2999877929688 235.39999389648438 L 533.0999755859375 268.29998779296875 L 533.5999755859375 271.3999938964844 L 724.7999877929688 238.5 L 865.4000244140625 213.89999389648438 L 861.5999755859375 252.39999389648438 L 811.4000244140625 282.20001220703125 L 812.9000244140625 284.8999938964844 L 864.5999755859375 254.3000030517578 Z" class="st1" style="fill: rgb(255, 255, 255);"/>
		</g>
		<g>
			<path class="st1" d="M998.8,470.3l12.6-14.4c0.4,1,1,2.1,1.5,3.1l-11.2,12.9L968.3,593l-3-0.8l33.4-121.5L998.8,470.3z" style="fill: rgb(255, 255, 255);"/>
		</g>
		<g>
			<path d="M 951 631.5 L 939.5 674 L 942.5 674.7999877929688 L 954 632.2999877929688 Z" class="st1" style="fill: rgb(255, 255, 255);"/>
		</g>
		<g>
			<path class="st1" d="M1012.8,251.1l109,64.5l-1.6,2.7l-105.1-62.2C1014.4,254.4,1013.7,252.7,1012.8,251.1z" style="fill: rgb(255, 255, 255);"/>
		</g>
		<g>
			<path d="M 725.5 235.6999969482422 L 723.7000122070312 238.3000030517578 L 999.2999877929688 434.79998779296875 L 1001.0999755859375 432.29998779296875 Z" class="st1" style="fill: rgb(255, 255, 255);"/>
		</g>
		<path d="M 972.2000122070312 420.6000061035156 L 1000.2000122070312 434.79998779296875 L 1028.199951171875 420.6000061035156 Z" class="st1" style="fill: rgb(255, 255, 255);"/>
	</g>
	<g>
		<path class="st2" d="M547.1,520.8c0-52.4-42.5-94.8-94.8-94.8c-52.4,0-94.8,42.5-94.8,94.8c0,52.4,42.5,94.8,94.8,94.8&#10;&#9;&#9;&#9;C504.6,615.6,547.1,573.1,547.1,520.8z" style="fill: rgb(75, 118, 153);"/>
	</g>
	<g>
		<path class="st3" d="M1034.6,775.2c0-68.6-55.6-124.2-124.2-124.2c-68.6,0-124.2,55.6-124.2,124.2c0,68.6,55.6,124.2,124.2,124.2&#10;&#9;&#9;&#9;C979,899.3,1034.6,843.7,1034.6,775.2z" style="fill: rgb(195, 95, 45);"/>
	</g>
	<g>
		<path class="st4" d="M1065.2,204.9c0-68.6-55.6-124.2-124.2-124.2c-68.6,0-124.2,55.6-124.2,124.2c0,68.6,55.6,124.2,124.2,124.2&#10;&#9;&#9;&#9;C1009.6,329,1065.2,273.4,1065.2,204.9z" style="fill: rgb(238, 172, 52);"/>
	</g>
	<g>
		<path class="st5" d="M652.5,724.5c0-34.6-28.1-62.7-62.7-62.7c-34.6,0-62.7,28.1-62.7,62.7c0,34.6,28.1,62.7,62.7,62.7&#10;&#9;&#9;&#9;C624.4,787.2,652.5,759.1,652.5,724.5z" style="fill: rgb(173, 187, 200);"/>
	</g>
	<g>
		<path class="st5" d="M1056.9,429.1c0-31.3-25.4-56.7-56.7-56.7c-31.3,0-56.7,25.4-56.7,56.7c0,31.3,25.4,56.7,56.7,56.7&#10;&#9;&#9;&#9;C1031.5,485.9,1056.9,460.5,1056.9,429.1z" style="fill: rgb(173, 187, 200);"/>
	</g>
	<g>
		<path class="st3" d="M1201.1,481.3c0-27.7-22.5-50.2-50.2-50.2c-27.7,0-50.2,22.5-50.2,50.2c0,27.7,22.5,50.2,50.2,50.2&#10;&#9;&#9;&#9;C1178.7,531.5,1201.1,509,1201.1,481.3z" style="fill: rgb(195, 95, 45);"/>
	</g>
	<g>
		<path class="st5" d="M744.6,356.5c0-24.5-19.8-44.3-44.3-44.3c-24.5,0-44.3,19.8-44.3,44.3c0,24.5,19.8,44.3,44.3,44.3&#10;&#9;&#9;&#9;C724.8,400.8,744.6,381,744.6,356.5z" style="fill: rgb(173, 187, 200);"/>
	</g>
	<g>
		<path class="st3" d="M691.5,549.2c0-24.5-19.8-44.3-44.3-44.3c-24.5,0-44.3,19.8-44.3,44.3c0,24.5,19.8,44.3,44.3,44.3&#10;&#9;&#9;&#9;C671.7,593.4,691.5,573.6,691.5,549.2z" style="fill: rgb(195, 95, 45);"/>
	</g>
	<path class="st1" d="M666.5,545.5c0-5.7-4.6-10.3-10.3-10.3c-3.9,0-7.3,2.2-9,5.4c-1.7-3.2-5.1-5.4-9-5.4&#10;&#9;&#9;c-5.7,0-10.3,4.6-10.3,10.3c0,0-1.2,12,19.3,21.4v-16.5c0,0,0,0,0,0c0,0,0,0,0,0v16.5C667.8,557.4,666.5,545.5,666.5,545.5z" style="fill: rgb(255, 255, 255);"/>
	<path class="st0" d="M611.8,695.2h-44c-4,0-7.3,3.3-7.3,7.3v44c0,4,3.3,7.3,7.3,7.3h44c4,0,7.3-3.3,7.3-7.3v-44&#10;&#9;&#9;C619.1,698.4,615.8,695.2,611.8,695.2z M589.8,712.7c6.5,0,11.8,5.3,11.8,11.8c0,6.5-5.3,11.8-11.8,11.8c-6.5,0-11.8-5.3-11.8-11.8&#10;&#9;&#9;C577.9,718,583.2,712.7,589.8,712.7z M612.1,744.1c0,1.6-1.3,2.9-2.9,2.9h-38.5c-1.6,0-2.9-1.3-2.9-2.9v-25h4.5&#10;&#9;&#9;c-0.5,1.7-0.8,3.5-0.8,5.3c0,10.1,8.2,18.3,18.3,18.3c10.1,0,18.3-8.2,18.3-18.3c0-1.9-0.3-3.6-0.8-5.3h4.9V744.1z M612.1,709.5&#10;&#9;&#9;c0,1.6-1.3,2.9-2.9,2.9h-4.4c-1.6,0-2.9-1.3-2.9-2.9v-4.9c0-1.6,1.3-2.9,2.9-2.9h4.4c1.6,0,2.9,1.3,2.9,2.9V709.5z" style="fill: rgb(36, 52, 67);"/>
	<path d="M 892.600025 489.899994 A 30.200001 30.200001 0 0 1 862.400024 520.099995 A 30.200001 30.200001 0 0 1 832.200024 489.899994 A 30.200001 30.200001 0 0 1 862.400024 459.699993 A 30.200001 30.200001 0 0 1 892.600025 489.899994 Z" class="st2" style="fill: rgb(75, 118, 153);"/>
	<path d="M 726.600025 151.699997 A 30.200001 30.200001 0 0 1 696.400024 181.899998 A 30.200001 30.200001 0 0 1 666.200024 151.699997 A 30.200001 30.200001 0 0 1 696.400024 121.499996 A 30.200001 30.200001 0 0 1 726.600025 151.699997 Z" class="st3" style="fill: rgb(195, 95, 45);"/>
	<path d="M 341.199997 792.599976 A 82.699997 82.699997 0 0 1 258.5 875.299973 A 82.699997 82.699997 0 0 1 175.800003 792.599976 A 82.699997 82.699997 0 0 1 258.5 709.899979 A 82.699997 82.699997 0 0 1 341.199997 792.599976 Z" class="st4" style="fill: rgb(238, 172, 52);"/>
	<path class="st3" d="M270.7,583.3c0,34.5-27.9,62.4-62.4,62.4c-34.5,0-62.4-27.9-62.4-62.4c0-34.5,27.9-62.4,62.4-62.4&#10;&#9;&#9;C242.7,520.9,270.7,548.8,270.7,583.3z" style="fill: rgb(195, 95, 45);"/>
	<path d="M 274.200005 425.899994 A 34.599998 34.599998 0 0 1 239.600006 460.499992 A 34.599998 34.599998 0 0 1 205.000008 425.899994 A 34.599998 34.599998 0 0 1 239.600006 391.299995 A 34.599998 34.599998 0 0 1 274.200005 425.899994 Z" class="st5" style="fill: rgb(173, 187, 200);"/>
	<path d="M 567.700012 153.800003 A 42.5 42.5 0 0 1 525.200012 196.300003 A 42.5 42.5 0 0 1 482.700012 153.800003 A 42.5 42.5 0 0 1 525.200012 111.300003 A 42.5 42.5 0 0 1 567.700012 153.800003 Z" class="st2" style="fill: rgb(75, 118, 153);"/>
	<path class="st2" d="M1254.1,645.7c0,37.5-30.4,67.8-67.8,67.8c-37.5,0-67.8-30.4-67.8-67.8c0-37.5,30.4-67.8,67.8-67.8&#10;&#9;&#9;C1223.8,577.8,1254.1,608.2,1254.1,645.7z" style="fill: rgb(75, 118, 153);"/>
	<g>
		<path class="st1" d="M471.6,465.8h-38.7c-6.3,0-11.4,5.1-11.4,11.4v87c0,6.3,5.1,11.4,11.4,11.4h38.7c6.3,0,11.4-5.1,11.4-11.4&#10;&#9;&#9;&#9;v-87C483,471,477.9,465.8,471.6,465.8z" style="fill: rgb(255, 255, 255);"/>
		<path class="st6" d="M445.2,469.2c0-0.4,0.6-0.7,1.4-0.7h11.2c0.8,0,1.4,0.3,1.4,0.7v0.4c0,0.4-0.6,0.7-1.4,0.7h-11.2&#10;&#9;&#9;&#9;c-0.8,0-1.4-0.3-1.4-0.7V469.2z" style="fill: rgb(230, 230, 230);"/>
		<path class="st6" d="M453.6,473.3c0,0.7-0.6,1.3-1.3,1.3c-0.7,0-1.3-0.6-1.3-1.3c0-0.7,0.6-1.3,1.3-1.3&#10;&#9;&#9;&#9;C453,472,453.6,472.6,453.6,473.3z" style="fill: rgb(230, 230, 230);"/>
		<path class="st6" d="M459.3,569.9c0,0.8-0.6,1.4-1.4,1.4h-11.2c-0.8,0-1.4-0.6-1.4-1.4v-0.7c0-0.8,0.6-1.4,1.4-1.4h11.2&#10;&#9;&#9;&#9;c0.8,0,1.4,0.6,1.4,1.4V569.9z" style="fill: rgb(230, 230, 230);"/>
		<path d="M 425 477.200012 H 478.299999 V 564.200012 H 425 V 477.200012 Z" class="st1" style="fill: rgb(255, 255, 255);"/>
	</g>
	<path d="M 425.600006 477.200012 H 478.900005 V 564.200012 H 425.600006 V 477.200012 Z" class="st0" style="fill: rgb(36, 52, 67);"/>
	<g>
		<path class="st3" d="M452.2,526.9l-4.3-3.7l-12.2,10.5c0.4,0.4,1,0.7,1.7,0.7H467c0.7,0,1.3-0.3,1.7-0.7l-12.2-10.5L452.2,526.9z" style="fill: rgb(195, 95, 45);"/>
		<path class="st3" d="M468.8,510.3c-0.4-0.4-1-0.7-1.7-0.7h-29.6c-0.7,0-1.3,0.3-1.7,0.7l16.5,14.1L468.8,510.3z" style="fill: rgb(195, 95, 45);"/>
		<path d="M 435 511.79998779296875 L 435 532.2999877929688 L 446.8999938964844 522.2000122070312 Z" class="st3" style="fill: rgb(195, 95, 45);"/>
		<path d="M 457.6000061035156 522.2000122070312 L 469.5 532.2999877929688 L 469.5 511.79998779296875 Z" class="st3" style="fill: rgb(195, 95, 45);"/>
	</g>
	<g id="icon_3_">
		<g>
			<path class="st0" d="M694.6,160.8c0-4-3.3-7.3-7.3-7.3l0,0c-0.9,0-1.6-0.7-1.6-1.6l0,0c0-0.9,0.7-1.6,1.6-1.6l0,0&#10;&#9;&#9;&#9;&#9;c5.8,0,10.4,4.7,10.5,10.4l0,0c0,0.9-0.7,1.6-1.6,1.6l0,0C695.3,162.4,694.6,161.7,694.6,160.8L694.6,160.8z" style="fill: rgb(36, 52, 67);"/>
		</g>
		<g>
			<path class="st0" d="M702.1,160.8c0-4.1-1.7-7.8-4.3-10.5l0,0c-2.7-2.7-6.4-4.3-10.5-4.3l0,0c-0.9,0-1.6-0.7-1.6-1.6l0,0&#10;&#9;&#9;&#9;&#9;c0-0.9,0.7-1.6,1.6-1.6l0,0c9.9,0,17.9,8,17.9,17.9l0,0c0,0.9-0.7,1.6-1.6,1.6l0,0C702.8,162.4,702.1,161.7,702.1,160.8&#10;&#9;&#9;&#9;&#9;L702.1,160.8z" style="fill: rgb(36, 52, 67);"/>
		</g>
		<g>
			<path class="st0" d="M709.6,160.8c0-6.2-2.5-11.7-6.5-15.8l0,0c-4-4-9.6-6.5-15.8-6.5l0,0c-0.9,0-1.6-0.7-1.6-1.6l0,0&#10;&#9;&#9;&#9;&#9;c0-0.9,0.7-1.6,1.6-1.6l0,0c14,0,25.4,11.4,25.4,25.4l0,0c0,0.9-0.7,1.6-1.6,1.6l0,0C710.3,162.4,709.6,161.7,709.6,160.8&#10;&#9;&#9;&#9;&#9;L709.6,160.8z" style="fill: rgb(36, 52, 67);"/>
		</g>
		<path d="M 691.000024 159.699997 A 2.6 2.6 0 0 1 688.400024 162.299997 A 2.6 2.6 0 0 1 685.800025 159.699997 A 2.6 2.6 0 0 1 688.400024 157.099997 A 2.6 2.6 0 0 1 691.000024 159.699997 Z" class="st0" style="fill: rgb(36, 52, 67);"/>
	</g>
	<path class="st1" d="M236.6,575.2h-3.9c-2.2,0-3.9-1.8-3.9-3.9v-1.3c0-10.4-8.4-18.9-18.9-18.9h-15.2c-10.4,0-18.9,8.4-18.9,18.9&#10;&#9;&#9;v26.7c0,10.4,8.4,18.9,18.9,18.9h26.9c10.4,0,18.9-8.4,18.9-18.9v-17.5C240.6,576.9,238.8,575.2,236.6,575.2z M196.8,567.3h11.5&#10;&#9;&#9;c2.2,0,3.9,1.8,3.9,3.9c0,2.2-1.8,3.9-3.9,3.9h-11.5c-2.2,0-3.9-1.8-3.9-3.9C192.9,569,194.6,567.3,196.8,567.3z M220,598.8h-23.2&#10;&#9;&#9;c-2.2,0-3.9-1.8-3.9-3.9c0-2.2,1.8-3.9,3.9-3.9H220c2.2,0,3.9,1.8,3.9,3.9C223.9,597,222.2,598.8,220,598.8z" style="fill: rgb(255, 255, 255);"/>
	<g>
		<path class="st7" d="M525.2,173.3c-9.8,0-20.6-0.1-23.2-2.7c-2.7-2.7-3.4-5.9-3.4-16.8c0-10.9,0.7-14.1,3.4-16.8&#10;&#9;&#9;&#9;c2.7-2.7,13.5-2.7,23.2-2.7c9.8,0,20.6,0.1,23.2,2.7c2.7,2.7,3.4,5.9,3.4,16.8c0,10.9-0.7,14.1-3.4,16.8&#10;&#9;&#9;&#9;C545.8,173.2,535,173.3,525.2,173.3L525.2,173.3z" style="fill-rule: evenodd; clip-rule: evenodd; fill: rgb(195, 95, 45);"/>
		<path class="st8" d="M519,163.2l15.6-9c0.4-0.2,0.4-0.6,0-0.9l-15.6-9c-0.4-0.2-0.7,0-0.7,0.4v18&#10;&#9;&#9;&#9;C518.3,163.2,518.6,163.4,519,163.2z" style="fill: rgb(241, 241, 242);"/>
	</g>
	<g>
		<path class="st9" d="M255.7,416.2h-2.5V442c0,2.7-1,3.7-3.7,3.7h-20.3c-2.4,0-3.3-1-3.3-3.4v-26.2h-2.5v-5h7.5v-5.1h17.4v5.1h7.5&#10;&#9;&#9;&#9;V416.2z M230.9,438.4h2.5v-20h-2.5V438.4z M235.9,438.4h2.5v-19.9h-2.5V438.4z M240.8,438.4h2.5v-19.9h-2.5V438.4z M233.4,411.1&#10;&#9;&#9;&#9;h12.4v-2.6h-12.4V411.1z M245.8,438.4h2.5v-20h-2.5V438.4z" style="fill-rule: evenodd; clip-rule: evenodd; fill: rgb(36, 52, 67);"/>
	</g>
	<g>
		<path d="M 992.700012 449.700012 H 1008.900013 V 452.500012 H 992.700012 V 449.700012 Z" class="st1" style="fill: rgb(255, 255, 255);"/>
		<path class="st1" d="M992.7,452.9l-0.7,1.5c0,0,0.1,0.4,0.4,0.4c0.3,0,16.7,0,17,0c0.3,0,0.3-0.4,0.3-0.4l-0.7-1.5H992.7z" style="fill: rgb(255, 255, 255);"/>
		<path class="st1" d="M1026.8,413.7v29.5v0.7v3.5c0,0.9-0.7,1.7-1.5,1.7h-50.1c-0.8,0-1.5-0.7-1.5-1.7v-3.5v-0.7v-29.5&#10;&#9;&#9;&#9;c0-0.8,0.7-1.5,1.5-1.5h50.1C1026.1,412.2,1026.8,412.9,1026.8,413.7z" style="fill: rgb(255, 255, 255);"/>
		<path d="M 976.599976 415.899994 H 1023.599976 V 442.499994 H 976.599976 V 415.899994 Z" class="st0" style="fill: rgb(36, 52, 67);"/>
		<path d="M 981.200012 422.100006 H 997.300013 V 436.700006 H 981.200012 V 422.100006 Z" class="st10" style="fill: rgb(241, 169, 59);"/>
		<g>
			<path d="M 984 424.100006 H 994.4 V 425.100006 H 984 V 424.100006 Z" class="st0" style="fill: rgb(36, 52, 67);"/>
			<path d="M 984 428.399994 H 994.4 V 429.399994 H 984 V 428.399994 Z" class="st0" style="fill: rgb(36, 52, 67);"/>
			<path d="M 984 426.299988 H 994.4 V 427.299988 H 984 V 426.299988 Z" class="st0" style="fill: rgb(36, 52, 67);"/>
			<path d="M 984 430.600006 H 989.9 V 431.600006 H 984 V 430.600006 Z" class="st0" style="fill: rgb(36, 52, 67);"/>
		</g>
	</g>
	<g>
		<path class="st11" d="M868.8,476.2L868.8,476.2l-10.7-3.4v0l-0.1,0l-0.1,0l0,0l-12.6,4.4v29.7l12.8-4.8V502l10.7,5l10.6-4.3v-29.9&#10;&#9;&#9;&#9;L868.8,476.2z M858.1,474.8L858.1,474.8l0-0.1L858.1,474.8z M847.5,479.2l8.5-2.8v23.9l-8.5,3.2V479.2z M866.7,503.2l-8.5-3.8&#10;&#9;&#9;&#9;v-23.8l8.5,2.9V503.2z M877.4,500.5l-8.5,3.5v-25.4l8.5-2.5V500.5z" style="fill-rule: evenodd; clip-rule: evenodd; fill: rgb(173, 187, 200);"/>
	</g>
	<g id="icon_1_">
		<path class="st12" d="M706,345.6c-0.1,0-0.1-0.1-0.2-0.1c-1.1-0.5-2.4,0.1-2.9,1.2c-0.5,1.1,0.1,2.4,1.2,2.9&#10;&#9;&#9;&#9;c0.3,0.1,0.6,0.2,0.9,0.2c0.9,0,1.7-0.5,2-1.4C707.5,347.3,707,346.1,706,345.6z" style="fill: rgb(189, 91, 84);"/>
		<path class="st0" d="M727.4,346.1c-0.7-4.8-2.4-9.5-6.5-12.6c-4.6-3.7-10.4-5-16.3-5.4c-6.1-0.1-12.4,1.5-17,5.6&#10;&#9;&#9;&#9;c-3,3.5-5.7,7.3-6.6,11.8c-0.2,1.5,1.4,2.3,0.8,3.8l-0.2,0.5c-2.3,2.5-4.7,5.1-7,7.5c-0.3,0.5-0.2,1.2,0.2,1.6&#10;&#9;&#9;&#9;c1,1.1,2.9,0.8,3.3,2.5c0.1,1.3-0.6,2.2-1.2,3.1c0,0.9,1.5,1.3,0.8,2.3c-0.3,0.4-1.1,0.6-0.9,1.2c2.5,2.2-1.1,4.3-0.2,6.8&#10;&#9;&#9;&#9;c0.5,1.2,1.9,1.3,2.9,1.6c2.6,0.6,5.5,0.3,7.8,1.7c2.2,1.6,2,4.4,2.2,6.9v0h26.1c0.1-0.7,0.1-7.4,0.3-10.1&#10;&#9;&#9;&#9;c1.3-7.3,8.8-11.9,10.7-19C727.7,352.8,727.8,349.4,727.4,346.1z M717.2,349.4l-1.7,0.1c-0.3,0-0.5,0.2-0.6,0.5&#10;&#9;&#9;&#9;c-0.1,0.3-0.2,0.6-0.3,0.9c-0.1,0.2,0,0.5,0.2,0.7l1.4,1c0.5,0.2,0.6,0.8,0.4,1.3c-0.1,0.3-0.4,0.4-0.7,0.5c-0.2,0-0.4,0-0.6-0.1&#10;&#9;&#9;&#9;l-0.9-0.4l-0.7-0.3c-0.3-0.1-0.5,0-0.7,0.2c-0.2,0.2-0.4,0.5-0.6,0.7c-0.1,0.2-0.2,0.5-0.1,0.7l0.9,1.5c0.3,0.4,0.2,1-0.2,1.3&#10;&#9;&#9;&#9;c-0.1,0.1-0.1,0.1-0.2,0.1c-0.4,0.2-0.8,0.1-1.1-0.3l-1-1l-0.2-0.2c-0.2-0.2-0.5-0.2-0.7-0.1c-0.3,0.1-0.5,0.3-0.8,0.4&#10;&#9;&#9;&#9;c-0.2,0.1-0.4,0.4-0.4,0.6l0.2,1.7c0.1,0.5-0.1,0.9-0.6,1.1c0,0-0.1,0-0.1,0.1c-0.5,0.1-1-0.2-1.1-0.7l-0.6-1.6&#10;&#9;&#9;&#9;c0,0-0.1-0.1-0.1-0.1c-0.1-0.2-0.3-0.3-0.5-0.3c-0.3,0-0.6,0-0.9,0c-0.2,0-0.5,0.2-0.6,0.4l-0.5,1.7c-0.1,0.3-0.3,0.6-0.6,0.7&#10;&#9;&#9;&#9;c-0.2,0.1-0.3,0.1-0.5,0.1c-0.5-0.1-0.9-0.6-0.8-1.1l0.1-1.7c0-0.3-0.2-0.5-0.4-0.6c-0.1,0-0.1,0-0.2-0.1c-0.1,0-0.2-0.1-0.3-0.1&#10;&#9;&#9;&#9;c-0.1-0.1-0.3-0.1-0.4-0.2c-0.2-0.1-0.5,0-0.7,0.2l-1.2,1.3c-0.1,0.2-0.3,0.3-0.4,0.3c-0.3,0.1-0.6,0.1-0.9-0.1&#10;&#9;&#9;&#9;c-0.4-0.3-0.5-0.9-0.2-1.3l0.8-1.6c0.1-0.2,0-0.5-0.1-0.7c-0.1-0.1-0.3-0.3-0.4-0.5c-0.1-0.1-0.1-0.1-0.2-0.2&#10;&#9;&#9;&#9;c-0.2-0.2-0.5-0.2-0.7-0.1l-1.6,0.7c0,0-0.1,0-0.1,0.1c-0.4,0.2-0.9,0-1.2-0.4c-0.3-0.4-0.1-1,0.3-1.3l1.4-1.1&#10;&#9;&#9;&#9;c0.2-0.2,0.3-0.5,0.2-0.7c-0.1-0.3-0.2-0.6-0.3-0.8c0-0.1-0.1-0.1-0.1-0.1c-0.1-0.1-0.3-0.3-0.5-0.3l-1.4,0l-0.3,0&#10;&#9;&#9;&#9;c-0.5,0.1-1-0.3-1.1-0.8c-0.1-0.5,0.3-1,0.8-1.1l1.7-0.4c0.2-0.1,0.4-0.3,0.5-0.6c0-0.3,0-0.6,0.1-0.9c0-0.2-0.1-0.5-0.4-0.6&#10;&#9;&#9;&#9;l-1.6-0.7c-0.5-0.1-0.8-0.7-0.6-1.2c0.1-0.5,0.7-0.8,1.2-0.6l1.7,0.3c0.3,0,0.5-0.1,0.7-0.3c0.1-0.3,0.3-0.5,0.4-0.8&#10;&#9;&#9;&#9;c0.1-0.2,0.1-0.5-0.1-0.7l-1.2-1.3c-0.4-0.3-0.4-0.9-0.1-1.3c0.3-0.4,0.9-0.4,1.3-0.1l0.2,0.1l1.3,0.8c0.2,0.1,0.5,0.1,0.7,0&#10;&#9;&#9;&#9;c0,0,0.1,0,0.1,0c0.2-0.2,0.5-0.4,0.7-0.5c0.2-0.2,0.3-0.4,0.2-0.7l-0.6-1.7c-0.2-0.5,0-1,0.4-1.3c0.4-0.2,0.9-0.1,1.1,0.3&#10;&#9;&#9;&#9;c0,0.1,0.1,0.1,0.1,0.2l1,1.5c0.2,0.2,0.5,0.3,0.7,0.3c0.1,0,0.2-0.1,0.3-0.1c0.2,0,0.4-0.1,0.5-0.1c0.2-0.1,0.4-0.3,0.5-0.6&#10;&#9;&#9;&#9;l0.2-1.7c0-0.5,0.4-1,0.9-1c0.3,0,0.6,0.1,0.7,0.3c0.1,0.2,0.2,0.3,0.2,0.6l0.3,1.7c0.1,0.2,0.3,0.4,0.5,0.5&#10;&#9;&#9;&#9;c0.3,0,0.6,0.1,0.9,0.2c0,0,0,0,0,0c0.2,0,0.5-0.1,0.7-0.3l0.9-1.5c0.2-0.5,0.7-0.7,1.2-0.5c0.1,0.1,0.3,0.2,0.4,0.3&#10;&#9;&#9;&#9;c0.2,0.3,0.3,0.6,0.2,1l-0.5,1.7c0,0.3,0.1,0.5,0.3,0.7c0.3,0.2,0.5,0.3,0.8,0.5c0.2,0.1,0.5,0.1,0.7,0c0,0,0,0,0,0l1.4-1&#10;&#9;&#9;&#9;c0.4-0.4,1-0.3,1.3,0c0,0,0,0,0,0.1c0.3,0.4,0.3,0.9-0.1,1.3l-1.1,1.4c-0.1,0.2-0.2,0.5,0,0.7c0.2,0.2,0.3,0.5,0.5,0.8&#10;&#9;&#9;&#9;c0.2,0.2,0.4,0.3,0.7,0.3l0.4-0.1l1.3-0.3c0.4-0.1,0.8,0,1,0.3c0.1,0.1,0.1,0.2,0.2,0.3c0.2,0.5-0.1,1-0.6,1.2l-1.6,0.8&#10;&#9;&#9;&#9;c-0.2,0.2-0.4,0.4-0.3,0.7c0.1,0.3,0.1,0.6,0.1,0.9c0.1,0.2,0.2,0.5,0.5,0.5l1,0.2l0.7,0.1c0.1,0,0.3,0.1,0.4,0.1&#10;&#9;&#9;&#9;c0.3,0.2,0.5,0.5,0.5,0.9C718.2,349.1,717.7,349.4,717.2,349.4z" style="fill: rgb(36, 52, 67);"/>
	</g>
	<g>
		<path class="st1" d="M1186.3,608c-19.4,0-35.2,13.7-35.2,30.6c0,16.9,15.8,30.6,35.2,30.6c1.1,0,2.2,0,3.3-0.1&#10;&#9;&#9;&#9;c-0.1,8-9.2,14.2-9.2,14.2c30.9-7.5,41.1-28.1,41.1-44.7C1221.5,621.7,1205.8,608,1186.3,608z" style="fill: rgb(255, 255, 255);"/>
		<path class="st13" d="M1167.3,643.1c-2.5,0-4.5-2-4.5-4.5c0-2.5,2-4.5,4.5-4.5c2.5,0,4.5,2,4.5,4.5&#10;&#9;&#9;&#9;C1171.8,641.1,1169.8,643.1,1167.3,643.1z" style="fill: rgb(69, 102, 133);"/>
		<path class="st13" d="M1186.3,643.1c-2.5,0-4.5-2-4.5-4.5c0-2.5,2-4.5,4.5-4.5c2.5,0,4.5,2,4.5,4.5&#10;&#9;&#9;&#9;C1190.8,641.1,1188.8,643.1,1186.3,643.1z" style="fill: rgb(69, 102, 133);"/>
		<path class="st13" d="M1205.3,643.1c-2.5,0-4.5-2-4.5-4.5c0-2.5,2-4.5,4.5-4.5s4.5,2,4.5,4.5&#10;&#9;&#9;&#9;C1209.8,641.1,1207.8,643.1,1205.3,643.1z" style="fill: rgb(69, 102, 133);"/>
	</g>
</g>
<g>
	<path class="st1" d="M123.3,132.7H90.8v-4.5h32.5V132.7z" style="fill: rgb(255, 255, 255);"/>
	<path class="st1" d="M126.2,89.5c0-2.4,2-4.5,4.3-4.5c2.4,0,4.3,2,4.3,4.5c0,2.4-1.9,4.4-4.3,4.4C128.1,93.9,126.2,92,126.2,89.5z&#10;&#9;&#9; M126.8,97.1h7.5v29.5h-7.5V97.1z" style="fill: rgb(255, 255, 255);"/>
	<path class="st1" d="M169.4,110.2v16.5h-7.5v-16.5c0-4.6-2.2-6.8-6.4-6.8c-2.7,0-4.8,0.9-6.5,2.3v20.9h-7.5V97.1h7.5V99&#10;&#9;&#9;c2.2-1.5,4.9-2.4,7.9-2.4C165.4,96.6,169.4,100.6,169.4,110.2z" style="fill: rgb(255, 255, 255);"/>
	<path class="st1" d="M185.4,103.4v10.4c0,5.3,0.9,6.8,4.7,6.8c1.3,0,2.4-0.2,3.5-0.3v5.6c-0.3,0.1-2.6,1.1-6.8,1.1&#10;&#9;&#9;c-4.9,0-8.9-3.1-8.9-9.3v-14.4h-4.2v-6.2h4.2V85.7h7.6v11.5h8.3v6.2H185.4z" style="fill: rgb(255, 255, 255);"/>
	<path class="st1" d="M203.9,114c0.8,3.9,3.9,6.6,8.4,6.6c3.1,0,6-1.4,7.6-3.6l4.8,4c-2.7,3.7-7.5,6.1-13.3,6.1&#10;&#9;&#9;c-8.9,0-15.1-6.8-15.1-15.2c0-8.5,6.2-15.3,15.1-15.3c9.1,0,14.3,6.6,14.3,15.7c0,0.6-0.1,1.2-0.1,1.7H203.9z M203.9,109.2h14.6&#10;&#9;&#9;c-0.3-3.4-2.1-6.6-7.1-6.6C207.4,102.6,204.6,105.5,203.9,109.2z" style="fill: rgb(255, 255, 255);"/>
	<path class="st1" d="M238.7,101.3c2-2.8,5.1-4.6,9.3-4.7c0.5,0,1.2,0.1,1.8,0.3v8.2c0,0-2.1-0.4-3.6-0.4c-5.4,0-7.5,3.9-7.5,7.7&#10;&#9;&#9;v14.2h-7.6V97.1h7.6V101.3z" style="fill: rgb(255, 255, 255);"/>
	<path class="st1" d="M282.8,110.2v16.5h-7.5v-16.5c0-4.6-2.2-6.8-6.4-6.8c-2.7,0-4.8,0.9-6.5,2.3v20.9h-7.5V97.1h7.5V99&#10;&#9;&#9;c2.2-1.5,4.9-2.4,7.9-2.4C278.8,96.6,282.8,100.6,282.8,110.2z" style="fill: rgb(255, 255, 255);"/>
	<path class="st1" d="M295.4,114c0.8,3.9,3.9,6.6,8.4,6.6c3.1,0,6-1.4,7.6-3.6l4.8,4c-2.7,3.7-7.5,6.1-13.3,6.1&#10;&#9;&#9;c-8.9,0-15.1-6.8-15.1-15.2c0-8.5,6.2-15.3,15.1-15.3c9.1,0,14.3,6.6,14.3,15.7c0,0.6-0.1,1.2-0.1,1.7H295.4z M295.5,109.2h14.6&#10;&#9;&#9;c-0.3-3.4-2.1-6.6-7.1-6.6C299,102.6,296.2,105.5,295.5,109.2z" style="fill: rgb(255, 255, 255);"/>
	<path class="st1" d="M332.2,103.4v10.4c0,5.3,0.9,6.8,4.7,6.8c1.3,0,2.4-0.2,3.5-0.3v5.6c-0.3,0.1-2.6,1.1-6.8,1.1&#10;&#9;&#9;c-4.9,0-8.9-3.1-8.9-9.3v-14.4h-4.2v-6.2h4.2V85.7h7.6v11.5h8.3v6.2H332.2z" style="fill: rgb(255, 255, 255);"/>
	<path class="st1" d="M125.1,160.7c0,8.4-7.2,15.2-16.1,15.2c-8.9,0-16.1-6.8-16.1-15.2c0-8.5,7.2-15.3,16.1-15.3&#10;&#9;&#9;C117.9,145.5,125.1,152.2,125.1,160.7z M117.7,160.7c0-4.7-3.9-8.5-8.7-8.5c-4.8,0-8.7,3.8-8.7,8.5c0,4.6,3.9,8.4,8.7,8.4&#10;&#9;&#9;C113.8,169.1,117.7,165.3,117.7,160.7z" style="fill: rgb(255, 255, 255);"/>
	<path class="st1" d="M147.9,140.8c-0.9-0.1-1.8-0.3-3.1-0.3c-4.5,0-5,1.9-5,5v0.4h7.9v6.2h-7.9v24.2c0,5.9-3.5,9.3-9.3,9.3&#10;&#9;&#9;c-1.7,0-3-0.2-4-0.4v-6c4.7,0,5.8-0.9,5.8-6.6v-20.5h-4.1V146h4.1v-1.9c0-7.4,4.2-9.9,9.2-9.9c3.8,0,6.1,0.9,6.5,1V140.8z" style="fill: rgb(255, 255, 255);"/>
	<path class="st1" d="M178.6,152.2v10.4c0,5.3,0.9,6.8,4.7,6.8c1.3,0,2.4-0.2,3.5-0.3v5.6c-0.3,0.1-2.6,1.1-6.8,1.1&#10;&#9;&#9;c-4.9,0-8.9-3.1-8.9-9.3v-14.4h-4.2V146h4.2v-11.5h7.6V146h8.3v6.2H178.6z" style="fill: rgb(255, 255, 255);"/>
	<path class="st1" d="M219.8,159v16.5h-7.5V159c0-4.6-2.2-6.8-6.4-6.8c-2.7,0-4.8,0.8-6.5,2.2v21h-7.5v-40.9h7.5v13&#10;&#9;&#9;c2.2-1.4,4.9-2.1,7.9-2.1C215.8,145.5,219.8,149.5,219.8,159z" style="fill: rgb(255, 255, 255);"/>
	<path class="st1" d="M225.8,138.4c0-2.4,2-4.5,4.3-4.5c2.4,0,4.3,2,4.3,4.5c0,2.4-1.9,4.4-4.3,4.4&#10;&#9;&#9;C227.7,142.8,225.8,140.8,225.8,138.4z M226.4,146h7.5v29.5h-7.5V146z" style="fill: rgb(255, 255, 255);"/>
	<path class="st1" d="M269,159v16.5h-7.5V159c0-4.6-2.2-6.8-6.4-6.8c-2.7,0-4.8,0.9-6.5,2.3v20.9H241V146h7.5v1.8&#10;&#9;&#9;c2.2-1.5,4.9-2.4,7.9-2.4C265,145.5,269,149.5,269,159z" style="fill: rgb(255, 255, 255);"/>
	<path class="st1" d="M305.2,146v23.8c0,7.6-4.2,15.9-15.4,15.9c-7.3,0-8.7-0.7-13.2-2l1.5-5.6c3.2,0.9,5.9,1.7,10,1.7&#10;&#9;&#9;c4.5,0,9.1-2.7,9.3-7.3c-2.4,1.3-5.2,2.1-8.3,2.1c-8.3,0-14.9-5.9-14.9-14.7c0-8.8,6.7-14.6,14.9-14.6c3.1,0,6.1,0.8,8.6,2.2V146&#10;&#9;&#9;H305.2z M290.4,167.9c2.9,0,5.5-0.9,7.3-2.4v-10.9c-1.8-1.5-4.4-2.4-7.3-2.4c-5,0-8.8,3.4-8.8,7.8&#10;&#9;&#9;C281.6,164.7,285.3,167.9,290.4,167.9z" style="fill: rgb(255, 255, 255);"/>
	<path class="st1" d="M313.3,167.5c3.6,1.6,6.4,2.4,10.1,2.4c3.5,0,4.8-1.3,4.8-2.8c0-1.7-1.7-2.4-6.2-3.4c-6.4-1.4-11-3.5-11-9.2&#10;&#9;&#9;c0-5.3,4.4-9,11.2-9c4.6,0,8.3,1.1,11.5,2.4l-2.5,5.5c-2.9-1.1-6.2-1.9-9.2-1.9c-2.9,0-4.3,1-4.3,2.6c0,1.6,1.8,2.4,6.5,3.4&#10;&#9;&#9;c6.8,1.4,10.8,3.8,10.8,9.2c0,5.6-4.3,9.3-11.8,9.3c-5.1,0-8.4-0.7-12.8-2.8L313.3,167.5z" style="fill: rgb(255, 255, 255);"/>
</g>
<g>
	<path class="st13" d="M303.3,799.9c0.5-3.2,0.7-6.5,0.5-9.8c-1.4-25-22.8-44.1-47.8-42.7c-3.4,0.2-6.6,0.7-9.7,1.6&#10;&#9;&#9;c-3.9-2-8.4-3.1-13.1-2.8c-13.9,0.8-24.5,12.6-23.7,26.5c0.3,4.7,1.8,9,4.3,12.7c-0.5,3.2-0.7,6.5-0.5,9.8&#10;&#9;&#9;c1.4,25,22.8,44.1,47.8,42.8c3.4-0.2,6.6-0.7,9.7-1.6c3.9,2,8.4,3.1,13.1,2.8c13.9-0.8,24.5-12.7,23.7-26.5&#10;&#9;&#9;C307.3,807.9,305.7,803.6,303.3,799.9z" style="fill: rgb(69, 102, 133);"/>
	<g>
		<path class="st1" d="M266.7,787.8c11.7,2,15.1,8.7,15.4,15.2c0.6,10.1-6.6,18-21.9,18.8c-16.1,0.9-23.7-6.7-24-12.8&#10;&#9;&#9;&#9;c-0.2-3.1,1.9-5.4,5-5.6c6.9-0.4,5.7,9.8,18.5,9c6.6-0.4,10-4.2,9.8-7.9c-0.1-2.2-1.3-4.7-5.7-5.5l-14.5-2.8&#10;&#9;&#9;&#9;c-11.7-2.3-14.1-8.5-14.5-14.5c-0.7-12.4,10.5-17.6,21.2-18.2c9.9-0.5,21.9,4.4,22.3,11.8c0.2,3.2-2.4,5.2-5.5,5.3&#10;&#9;&#9;&#9;c-5.9,0.3-5.2-8-17.1-7.3c-5.9,0.3-9,3.2-8.8,7.1c0.2,3.9,4.9,4.8,9,5.6L266.7,787.8z" style="fill: rgb(255, 255, 255);"/>
	</g>
</g>
<g>
	<path class="st1" d="M1163.6,458.8l9.8,9.8c1.8,1.8,1.8,4.7,0,6.5l-9.7,9.7c-1.8,1.8-4.7,1.8-6.5,0l-1.8-1.8l3.2-3.2l0.1,0.1&#10;&#9;&#9;c0.9,0.9,2.4,0.9,3.2,0l6.6-6.6c0.9-0.9,0.9-2.4,0-3.3l-6.4-6.4c-0.9-0.9-2.4-0.9-3.3,0l-6.6,6.6c-0.9,0.9-0.9,2.2-0.1,3.1&#10;&#9;&#9;l-3.2,3.2l-1.6-1.6c-1.8-1.8-1.8-4.7,0-6.5l9.7-9.7C1158.9,457,1161.8,457,1163.6,458.8z M1149,489.5L1149,489.5&#10;&#9;&#9;c0.9,0.9,0.9,2.4,0,3.3l-6.6,6.6c-0.9,0.9-2.4,0.9-3.3,0l-6.5-6.5c-0.9-0.9-0.9-2.4,0-3.3l6.6-6.6c0.9-0.9,2.4-0.9,3.3,0l3.2-3.2&#10;&#9;&#9;l-0.6-0.6c-2.4-2.4-6.2-2.4-8.6,0l-7.7,7.7c-2.4,2.4-2.4,6.2,0,8.6l7.7,7.7c2.4,2.4,6.2,2.4,8.6,0l7.7-7.7c2.4-2.4,2.4-6.2,0-8.6&#10;&#9;&#9;l-0.7-0.7L1149,489.5z M1142.4,489.4l0.2,0.2c0.9,0.9,2.3,0.9,3.2,0l13-13c0.9-0.9,0.9-2.3,0-3.2l-0.2-0.2c-0.9-0.9-2.3-0.9-3.2,0&#10;&#9;&#9;l-13,13C1141.5,487.1,1141.5,488.6,1142.4,489.4z" style="fill: rgb(255, 255, 255);"/>
</g>
<g>
	<g>
		<path d="M 886 148.800003 H 995.900002 V 177.400003 H 886 V 148.800003 Z" class="st0" style="fill: rgb(36, 52, 67);"/>
		<path class="st0" d="M996,180.5H886c-1.7,0-3.1-1.4-3.1-3.1v-28.6c0-1.7,1.4-3.1,3.1-3.1H996c1.7,0,3.1,1.4,3.1,3.1v28.6&#10;&#9;&#9;&#9;C999.1,179.1,997.7,180.5,996,180.5z M889.1,174.3h103.7v-22.4H889.1V174.3z" style="fill: rgb(36, 52, 67);"/>
	</g>
	<path class="st1" d="M908.3,163.1c0,3.6-2.9,6.5-6.5,6.5c-3.6,0-6.5-2.9-6.5-6.5c0-3.6,2.9-6.5,6.5-6.5&#10;&#9;&#9;C905.4,156.6,908.3,159.5,908.3,163.1z" style="fill: rgb(255, 255, 255);"/>
	<g>
		<path d="M 886 190.600006 H 995.900002 V 219.200006 H 886 V 190.600006 Z" class="st0" style="fill: rgb(36, 52, 67);"/>
		<path class="st0" d="M996,222.2H886c-1.7,0-3.1-1.4-3.1-3.1v-28.6c0-1.7,1.4-3.1,3.1-3.1H996c1.7,0,3.1,1.4,3.1,3.1v28.6&#10;&#9;&#9;&#9;C999.1,220.8,997.7,222.2,996,222.2z M889.1,216h103.7v-22.4H889.1V216z" style="fill: rgb(36, 52, 67);"/>
	</g>
	<path class="st1" d="M927.7,204.8c0,3.6-2.9,6.5-6.5,6.5c-3.6,0-6.5-2.9-6.5-6.5c0-3.6,2.9-6.5,6.5-6.5&#10;&#9;&#9;C924.8,198.3,927.7,201.2,927.7,204.8z" style="fill: rgb(255, 255, 255);"/>
	<path class="st1" d="M908.3,204.8c0,3.6-2.9,6.5-6.5,6.5c-3.6,0-6.5-2.9-6.5-6.5c0-3.6,2.9-6.5,6.5-6.5&#10;&#9;&#9;C905.4,198.3,908.3,201.2,908.3,204.8z" style="fill: rgb(255, 255, 255);"/>
	<g>
		<path d="M 886 232.300003 H 995.900002 V 260.900003 H 886 V 232.300003 Z" class="st0" style="fill: rgb(36, 52, 67);"/>
		<path class="st0" d="M996,264H886c-1.7,0-3.1-1.4-3.1-3.1v-28.6c0-1.7,1.4-3.1,3.1-3.1H996c1.7,0,3.1,1.4,3.1,3.1v28.6&#10;&#9;&#9;&#9;C999.1,262.6,997.7,264,996,264z M889.1,257.8h103.7v-22.4H889.1V257.8z" style="fill: rgb(36, 52, 67);"/>
	</g>
	<path class="st1" d="M927.7,246.6c0,3.6-2.9,6.5-6.5,6.5c-3.6,0-6.5-2.9-6.5-6.5c0-3.6,2.9-6.5,6.5-6.5&#10;&#9;&#9;C924.8,240.1,927.7,243,927.7,246.6z" style="fill: rgb(255, 255, 255);"/>
	<path class="st1" d="M947.1,246.6c0,3.6-2.9,6.5-6.5,6.5c-3.6,0-6.5-2.9-6.5-6.5c0-3.6,2.9-6.5,6.5-6.5&#10;&#9;&#9;C944.2,240.1,947.1,243,947.1,246.6z" style="fill: rgb(255, 255, 255);"/>
	<path class="st1" d="M908.3,246.6c0,3.6-2.9,6.5-6.5,6.5c-3.6,0-6.5-2.9-6.5-6.5c0-3.6,2.9-6.5,6.5-6.5&#10;&#9;&#9;C905.4,240.1,908.3,243,908.3,246.6z" style="fill: rgb(255, 255, 255);"/>
</g>
<g>
	<path class="st1" d="M967.7,732.2c-0.5-0.7-1.2-1.1-2-1.1h-80.5v-11.2c0-1.4-1.1-2.5-2.5-2.5h-27.5c-1.4,0-2.5,1.1-2.5,2.5v13.7&#10;&#9;&#9;c0,1.4,1.1,2.5,2.5,2.5h18.1v59.3c0,1.4,1.1,2.5,2.5,2.5h67.5c1.1,0,2-0.7,2.4-1.7l22.3-61.8C968.3,733.8,968.2,732.9,967.7,732.2z&#10;&#9;&#9;" style="fill: rgb(255, 255, 255);"/>
	<path class="st1" d="M885.9,806.9c-7,0-12.7,5.7-12.7,12.7c0,7,5.7,12.7,12.7,12.7c7,0,12.7-5.7,12.7-12.7&#10;&#9;&#9;C898.6,812.6,892.9,806.9,885.9,806.9z" style="fill: rgb(255, 255, 255);"/>
	<path class="st1" d="M927.2,806.5c-7.3,0-13.2,5.9-13.2,13.2c0,7.3,5.9,13.2,13.2,13.2c7.3,0,13.2-5.9,13.2-13.2&#10;&#9;&#9;C940.4,812.4,934.5,806.5,927.2,806.5z" style="fill: rgb(255, 255, 255);"/>
</g>
</svg>