<?xml version="1.0" encoding="utf-8"?>
<svg id="master-artboard" viewBox="0 0 1096 780" version="1.1" xmlns="http://www.w3.org/2000/svg" x="0px" y="0px" style="enable-background:new 0 0 1096 780;" width="1096px" height="780px">

<path d="M 0 0 H 1096 V 780 H 0 V 0 Z" class="st0" style="fill: rgb(35, 31, 32);" transform="matrix(0.9999999999999999, 0, 0, 0.9999999999999999, -2.842170943040401e-14, -7.105427357601002e-15)"/>
<g transform="matrix(0.9999999999999999, 0, 0, 0.9999999999999999, -2.842170943040401e-14, -7.105427357601002e-15)">
		<g>
			<g>
				<path class="st1" d="M344.5,286.5c-1.3,0-2.1,0-2.3,0c-6.1-0.3-10.8-5.5-10.5-11.6c0.3-6.1,5.5-10.9,11.6-10.5&#10;&#9;&#9;&#9;&#9;&#9;c0.5,0,29.3,1,45-16.5c9.5-10.6,12.7-26.4,9.4-47.1c-0.9-6.1,3.2-11.7,9.3-12.7c6.1-1,11.7,3.2,12.7,9.3&#10;&#9;&#9;&#9;&#9;&#9;c4.3,27.7-0.7,49.7-15,65.5C384.7,284.9,353.3,286.5,344.5,286.5z" style="fill: rgb(255, 210, 55);"/>
			</g>
		</g>
		<g>
			<g>
				<path class="st1" d="M189.7,286.5c1.3,0,2.1,0,2.3,0c6.1-0.3,10.8-5.5,10.5-11.6c-0.3-6.1-5.5-10.9-11.6-10.5&#10;&#9;&#9;&#9;&#9;&#9;c-0.5,0-29.3,1-45-16.5c-9.5-10.6-12.7-26.4-9.4-47.1c0.9-6.1-3.2-11.7-9.3-12.7c-6.1-1-11.7,3.2-12.7,9.3&#10;&#9;&#9;&#9;&#9;&#9;c-4.3,27.7,0.7,49.7,15,65.5C149.5,284.9,180.9,286.5,189.7,286.5z" style="fill: rgb(255, 210, 55);"/>
			</g>
		</g>
		<g>
			<path class="st2" d="M318.8,221.2c0,7.7-6.2,13.9-13.9,13.9h-75.6c-7.7,0-13.9-6.2-13.9-13.9v-76.3c0-7.7,6.2-13.9,13.9-13.9&#10;&#9;&#9;&#9;&#9;h75.6c7.7,0,13.9,6.2,13.9,13.9V221.2z" style="fill: rgb(79, 142, 186);"/>
		</g>
		<g>
			<path d="M 235.300003 239.699997 H 247.800003 V 251.299997 H 235.300003 V 239.699997 Z" class="st1" style="fill: rgb(255, 210, 55);"/>
		</g>
		<g>
			<path d="M 252.399994 239.699997 H 264.899994 V 251.299997 H 252.399994 V 239.699997 Z" class="st2" style="fill: rgb(79, 142, 186);"/>
		</g>
		<g>
			<path d="M 269.399994 239.699997 H 281.899994 V 251.299997 H 269.399994 V 239.699997 Z" class="st1" style="fill: rgb(255, 210, 55);"/>
		</g>
		<g>
			<path d="M 286.399994 239.699997 H 298.899994 V 251.299997 H 286.399994 V 239.699997 Z" class="st2" style="fill: rgb(79, 142, 186);"/>
		</g>
		<g>
			<path class="st1" d="M208,157.3h-1.8c-9.8,0-17.7,4.3-17.7,9.6v22.5c0,5.3,7.9,9.6,17.7,9.6h1.8V157.3z" style="fill: rgb(255, 210, 55);"/>
		</g>
		<g>
			<path class="st1" d="M326.3,199h1.8c9.8,0,17.7-4.3,17.7-9.6v-22.5c0-5.3-7.9-9.6-17.7-9.6h-1.8V199z" style="fill: rgb(255, 210, 55);"/>
		</g>
		<g>
			<g>
				<path class="st3" d="M208.7,153.9c2.7-29.9,27.9-53.4,58.4-53.4c30.6,0,55.8,23.5,58.4,53.4h8.4c-2.7-34.5-31.6-61.8-66.8-61.8&#10;&#9;&#9;&#9;&#9;&#9;c-35.2,0-64.1,27.3-66.8,61.8H208.7z" style="fill: rgb(55, 103, 136);"/>
			</g>
		</g>
		<g>
			<path d="M 299.000006 183 A 31.9 31.9 0 0 1 267.100006 214.9 A 31.9 31.9 0 0 1 235.200006 183 A 31.9 31.9 0 0 1 267.100006 151.1 A 31.9 31.9 0 0 1 299.000006 183 Z" class="st4" style="fill: rgb(255, 255, 255);"/>
		</g>
		<g>
			<path d="M 290.300007 183 A 23.200001 23.200001 0 0 1 267.100006 206.200001 A 23.200001 23.200001 0 0 1 243.900005 183 A 23.200001 23.200001 0 0 1 267.100006 159.799999 A 23.200001 23.200001 0 0 1 290.300007 183 Z" class="st1" style="fill: rgb(255, 210, 55);"/>
		</g>
		<g>
			<path d="M 278.500006 183 A 11.4 11.4 0 0 1 267.100006 194.4 A 11.4 11.4 0 0 1 255.700006 183 A 11.4 11.4 0 0 1 267.100006 171.6 A 11.4 11.4 0 0 1 278.500006 183 Z" class="st0" style="fill: rgb(35, 31, 32);"/>
		</g>
		<g>
			<path d="M 174.800003 259.100006 H 359.400009 V 321.200005 H 174.800003 V 259.100006 Z" class="st2" style="fill: rgb(79, 142, 186);"/>
		</g>
		<g>
			<path class="st3" d="M356.4,343.1c0,7.7-6.2,13.9-13.9,13.9H310c-7.7,0-13.9-6.2-13.9-13.9v-16.7c0-7.7,6.2-13.9,13.9-13.9h32.6&#10;&#9;&#9;&#9;&#9;c7.7,0,13.9,6.2,13.9,13.9V343.1z" style="fill: rgb(55, 103, 136);"/>
		</g>
		<g>
			<path class="st3" d="M238.2,343.1c0,7.7-6.2,13.9-13.9,13.9h-32.6c-7.7,0-13.9-6.2-13.9-13.9v-16.7c0-7.7,6.2-13.9,13.9-13.9&#10;&#9;&#9;&#9;&#9;h32.6c7.7,0,13.9,6.2,13.9,13.9V343.1z" style="fill: rgb(55, 103, 136);"/>
		</g>
		<g>
			<g>
				<path d="M 225.5 269.899994 H 308.800003 V 275.499994 H 225.5 V 269.899994 Z" class="st4" style="fill: rgb(255, 255, 255);"/>
			</g>
		</g>
		<g>
			<g>
				<path d="M 225.5 283.799988 H 308.800003 V 289.399988 H 225.5 V 283.799988 Z" class="st5" style="fill: rgb(220, 69, 58);"/>
			</g>
		</g>
		<g>
			<g>
				<path d="M 225.5 283.799988 H 308.800003 V 289.399988 H 225.5 V 283.799988 Z" class="st4" style="fill: rgb(255, 255, 255);"/>
			</g>
		</g>
		<g>
			<g>
				<path d="M 225.5 297.700012 H 308.800003 V 303.300012 H 225.5 V 297.700012 Z" class="st4" style="fill: rgb(255, 255, 255);"/>
			</g>
		</g>
	</g><g transform="matrix(1.000000014901161, 0, 0, 1.000000014901161, -8.526512829121202e-14, -7.105427357601002e-15)">
			<path d="M 472.799988 249.100006 H 484.799988 V 303.800007 H 472.799988 V 249.100006 Z" class="st6" style="fill: rgb(1, 118, 125);"/>
		</g><path d="M 645.799988 249.100006 H 657.799988 V 303.800007 H 645.799988 V 249.100006 Z" class="st6" style="fill: rgb(1, 118, 125);" transform="matrix(1.000000014901161, 0, 0, 1.000000014901161, -1.1368683772161603e-13, -7.105427357601002e-15)"/><path class="st7" d="M621.8,331.8c0,4.8-3.9,8.8-8.8,8.8h-20.6c-4.8,0-8.8-3.9-8.8-8.8v-10.5c0-4.8,3.9-8.8,8.8-8.8H613&#10;&#9;&#9;&#9;&#9;c4.8,0,8.8,3.9,8.8,8.8V331.8z" style="fill: rgb(239, 198, 54);" transform="matrix(1.000000014901161, 0, 0, 1.000000014901161, -1.1368683772161603e-13, -7.105427357601002e-15)"/><path class="st7" d="M547.1,331.8c0,4.8-3.9,8.8-8.8,8.8h-20.6c-4.8,0-8.8-3.9-8.8-8.8v-10.5c0-4.8,3.9-8.8,8.8-8.8h20.6&#10;&#9;&#9;&#9;&#9;c4.8,0,8.8,3.9,8.8,8.8V331.8z" style="fill: rgb(239, 198, 54);" transform="matrix(1.000000014901161, 0, 0, 1.000000014901161, -1.1368683772161603e-13, -7.105427357601002e-15)"/><path class="st1" d="M627.7,199.1c-5-29.9-31-52.7-62.3-52.7c-31.3,0-57.3,22.8-62.3,52.7H627.7z" style="fill: rgb(255, 210, 55);" transform="matrix(1.000000014901161, 0, 0, 1.000000014901161, -1.1368683772161603e-13, -7.105427357601002e-15)"/><path class="st8" d="M464.2,224.2c2,54.1,46.5,97.3,101.1,97.3c54.6,0,99.1-43.2,101.1-97.3H464.2z" style="fill: rgb(254, 248, 188);" transform="matrix(1.000000014901161, 0, 0, 1.000000014901161, -1.1368683772161603e-13, -7.105427357601002e-15)"/><path d="M 578.899988 249.100006 A 13.6 13.6 0 0 1 565.299988 262.700006 A 13.6 13.6 0 0 1 551.699987 249.100006 A 13.6 13.6 0 0 1 565.299988 235.500006 A 13.6 13.6 0 0 1 578.899988 249.100006 Z" class="st0" style="fill: rgb(35, 31, 32);" transform="matrix(1.000000014901161, 0, 0, 1.000000014901161, -1.1368683772161603e-13, -7.105427357601002e-15)"/><path d="M 578.899988 290.100006 A 13.6 13.6 0 0 1 565.299988 303.700006 A 13.6 13.6 0 0 1 551.699987 290.100006 A 13.6 13.6 0 0 1 565.299988 276.500006 A 13.6 13.6 0 0 1 578.899988 290.100006 Z" class="st0" style="fill: rgb(35, 31, 32);" transform="matrix(1.000000014901161, 0, 0, 1.000000014901161, -1.1368683772161603e-13, -7.105427357601002e-15)"/><path d="M 545.700012 159.800003 H 554.500012 V 187.900003 H 545.700012 V 159.800003 Z" class="st4" style="fill: rgb(255, 255, 255);" transform="matrix(1.000000014901161, 0, 0, 1.000000014901161, -1.1368683772161603e-13, -7.105427357601002e-15)"/><path d="M 576.200012 159.800003 H 585.000012 V 187.900003 H 576.200012 V 159.800003 Z" class="st4" style="fill: rgb(255, 255, 255);" transform="matrix(1.000000014901161, 0, 0, 1.000000014901161, -1.1368683772161603e-13, -7.105427357601002e-15)"/><g transform="matrix(1.000000014901161, 0, 0, 1.000000014901161, -8.526512829121202e-14, -7.105427357601002e-15)">
			<path class="st9" d="M888.2,331.8c0,4.8-3.9,8.8-8.8,8.8h-20.6c-4.8,0-8.8-3.9-8.8-8.8v-10.5c0-4.8,3.9-8.8,8.8-8.8h20.6&#10;&#9;&#9;&#9;&#9;c4.8,0,8.8,3.9,8.8,8.8V331.8z" style="fill: rgb(204, 64, 53);"/>
		</g><path class="st9" d="M813.4,331.8c0,4.8-3.9,8.8-8.8,8.8h-20.6c-4.8,0-8.8-3.9-8.8-8.8v-10.5c0-4.8,3.9-8.8,8.8-8.8h20.6&#10;&#9;&#9;&#9;&#9;c4.8,0,8.8,3.9,8.8,8.8V331.8z" style="fill: rgb(204, 64, 53);" transform="matrix(1.000000014901161, 0, 0, 1.000000014901161, -1.1368683772161603e-13, -7.105427357601002e-15)"/><g transform="matrix(1.000000014901161, 0, 0, 1.000000014901161, -1.1368683772161603e-13, -7.105427357601002e-15)">
				<path class="st6" d="M762.7,196.3c1,0,1.6,0,1.8,0c4.8,0.2,8.5,4.3,8.2,9.1c-0.2,4.8-4.3,8.6-9.1,8.2c-0.4,0-22.9-0.8-35.2,12.9&#10;&#9;&#9;&#9;&#9;&#9;c-7.4,8.3-9.9,20.7-7.4,36.8c0.7,4.7-2.5,9.2-7.2,9.9c-4.7,0.8-9.2-2.5-9.9-7.2c-3.4-21.6,0.6-38.9,11.7-51.2&#10;&#9;&#9;&#9;&#9;&#9;C731.2,197.5,755.8,196.3,762.7,196.3z" style="fill: rgb(1, 118, 125);"/>
			</g><g transform="matrix(1.000000014901161, 0, 0, 1.000000014901161, -1.1368683772161603e-13, -7.105427357601002e-15)">
				<path class="st6" d="M899.6,196.3c-1,0-1.6,0-1.8,0c-4.8,0.2-8.5,4.3-8.2,9.1c0.2,4.8,4.3,8.6,9.1,8.2c0.4,0,22.9-0.8,35.2,12.9&#10;&#9;&#9;&#9;&#9;&#9;c7.4,8.3,9.9,20.7,7.4,36.8c-0.7,4.7,2.5,9.2,7.2,9.9c4.7,0.8,9.2-2.5,9.9-7.2c3.4-21.6-0.6-38.9-11.7-51.2&#10;&#9;&#9;&#9;&#9;&#9;C931,197.5,906.4,196.3,899.6,196.3z" style="fill: rgb(1, 118, 125);"/>
			</g><path class="st5" d="M911.2,299.1c0,6.4-5.2,11.5-11.5,11.5H763.8c-6.4,0-11.5-5.2-11.5-11.5L736,151.7c0-7.7,6.2-13.9,13.9-13.9&#10;&#9;&#9;&#9;&#9;h163.6c7.7,0,13.9,6.2,13.9,13.9L911.2,299.1z" style="fill: rgb(220, 69, 58);" transform="matrix(1.000000014901161, 0, 0, 1.000000014901161, -1.1368683772161603e-13, -7.105427357601002e-15)"/><path class="st4" d="M867.8,205.1c0,7.7-6.2,13.9-13.9,13.9h-44.4c-7.7,0-13.9-6.2-13.9-13.9v-34.6c0-7.7,6.2-13.9,13.9-13.9&#10;&#9;&#9;&#9;&#9;h44.4c7.7,0,13.9,6.2,13.9,13.9V205.1z" style="fill: rgb(255, 255, 255);" transform="matrix(1.000000014901161, 0, 0, 1.000000014901161, -1.1368683772161603e-13, -7.105427357601002e-15)"/><path d="M 765.700012 236.5 H 889.600014 V 245.8 H 765.700012 V 236.5 Z" class="st4" style="fill: rgb(255, 255, 255);" transform="matrix(1.000000014901161, 0, 0, 1.000000014901161, -1.1368683772161603e-13, -7.105427357601002e-15)"/><path d="M 765.700012 253.5 H 852.000015 V 262.8 H 765.700012 V 253.5 Z" class="st4" style="fill: rgb(255, 255, 255);" transform="matrix(1.000000014901161, 0, 0, 1.000000014901161, -1.1368683772161603e-13, -7.105427357601002e-15)"/><path d="M 768 270.5 H 869.099998 V 279.8 H 768 V 270.5 Z" class="st4" style="fill: rgb(255, 255, 255);" transform="matrix(1.000000014901161, 0, 0, 1.000000014901161, -1.1368683772161603e-13, -7.105427357601002e-15)"/><path d="M 772.700012 287.5 H 842.900009 V 296.8 H 772.700012 V 287.5 Z" class="st4" style="fill: rgb(255, 255, 255);" transform="matrix(1.000000014901161, 0, 0, 1.000000014901161, -1.1368683772161603e-13, -7.105427357601002e-15)"/><path d="M 854.500011 187.899994 A 22.799999 22.799999 0 0 1 831.700012 210.699993 A 22.799999 22.799999 0 0 1 808.900013 187.899994 A 22.799999 22.799999 0 0 1 831.700012 165.099995 A 22.799999 22.799999 0 0 1 854.500011 187.899994 Z" class="st6" style="fill: rgb(1, 118, 125);" transform="matrix(1.000000014901161, 0, 0, 1.000000014901161, -1.1368683772161603e-13, -7.105427357601002e-15)"/><path d="M 842.900012 187.899994 A 11.2 11.2 0 0 1 831.700012 199.099994 A 11.2 11.2 0 0 1 820.500012 187.899994 A 11.2 11.2 0 0 1 831.700012 176.699994 A 11.2 11.2 0 0 1 842.900012 187.899994 Z" class="st0" style="fill: rgb(35, 31, 32);" transform="matrix(1.000000014901161, 0, 0, 1.000000014901161, -1.1368683772161603e-13, -7.105427357601002e-15)"/><path d="M 881.400024 623.5 H 900.500025 V 661.400002 H 881.400024 V 623.5 Z" class="st5" style="fill: rgb(220, 69, 58);" transform="matrix(1.000000014901161, 0, 0, 1.000000014901161, -8.526512829121202e-14, -7.105427357601002e-15)"/><path class="st6" d="M927,670.2c0,4.9-4,8.9-8.9,8.9H883c-4.9,0-8.9-4-8.9-8.9l0,0c0-4.9,4-8.9,8.9-8.9h35.1&#10;&#9;&#9;&#9;C923,661.4,927,665.3,927,670.2L927,670.2z" style="fill: rgb(1, 118, 125);" transform="matrix(1.000000014901161, 0, 0, 1.000000014901161, -8.526512829121202e-14, -7.105427357601002e-15)"/><path d="M 812.900024 623.5 H 832.000025 V 661.400002 H 812.900024 V 623.5 Z" class="st5" style="fill: rgb(220, 69, 58);" transform="matrix(1.000000014901161, 0, 0, 1.000000014901161, -8.526512829121202e-14, -7.105427357601002e-15)"/><path class="st6" d="M786.5,670.2c0,4.9,4,8.9,8.9,8.9h35.1c4.9,0,8.9-4,8.9-8.9l0,0c0-4.9-4-8.9-8.9-8.9h-35.1&#10;&#9;&#9;&#9;C790.4,661.4,786.5,665.3,786.5,670.2L786.5,670.2z" style="fill: rgb(1, 118, 125);" transform="matrix(1.000000014901161, 0, 0, 1.000000014901161, -8.526512829121202e-14, -7.105427357601002e-15)"/><g transform="matrix(1.000000014901161, 0, 0, 1.000000014901161, -8.526512829121202e-14, -7.105427357601002e-15)">
			<g>
				<path class="st1" d="M108.3,550.1c-2-27.8,4.1-48.9,18.2-62.8c19.4-19.1,46.5-17,47.6-16.9l-1.1,13c-0.2,0-22.4-1.7-37.4,13.2&#10;&#9;&#9;&#9;&#9;&#9;c-11.2,11.1-16,28.8-14.3,52.5L108.3,550.1z" style="fill: rgb(255, 210, 55);"/>
			</g>
		</g><g transform="matrix(1.000000014901161, 0, 0, 1.000000014901161, -1.1368683772161603e-13, -7.105427357601002e-15)">
				<path class="st1" d="M410.6,550.1c2-27.8-4.1-48.9-18.2-62.8c-19.4-19.1-46.5-17-47.6-16.9l1.1,13c0.2,0,22.4-1.7,37.4,13.2&#10;&#9;&#9;&#9;&#9;&#9;c11.2,11.1,16,28.8,14.3,52.5L410.6,550.1z" style="fill: rgb(255, 210, 55);"/>
			</g><path class="st10" d="M359.4,596c0,7.7-6.2,13.9-13.9,13.9H171.7c-7.7,0-13.9-6.2-13.9-13.9V454.4c0-7.7,6.2-13.9,13.9-13.9&#10;&#9;&#9;&#9;&#9;h173.8c7.7,0,13.9,6.2,13.9,13.9V596z" style="fill: rgb(163, 205, 57);" transform="matrix(1.000000014901161, 0, 0, 1.000000014901161, -1.1368683772161603e-13, -7.105427357601002e-15)"/><path class="st5" d="M339.7,575c0,9-7.3,16.3-16.3,16.3H193.9c-9,0-16.3-7.3-16.3-16.3v-99.6c0-9,7.3-16.3,16.3-16.3h129.4&#10;&#9;&#9;&#9;&#9;c9,0,16.3,7.3,16.3,16.3V575z" style="fill: rgb(220, 69, 58);" transform="matrix(1.000000014901161, 0, 0, 1.000000014901161, -1.1368683772161603e-13, -7.105427357601002e-15)"/><path d="M 198.899994 609.900024 H 224.799994 V 653.400024 H 198.899994 V 609.900024 Z" class="st4" style="fill: rgb(255, 255, 255);" transform="matrix(1.000000014901161, 0, 0, 1.000000014901161, -1.1368683772161603e-13, -7.105427357601002e-15)"/><path class="st11" d="M172.6,663.5c0,5.6,4.6,10.2,10.2,10.2H223c5.6,0,10.2-4.6,10.2-10.2l0,0c0-5.6-4.6-10.2-10.2-10.2h-40.2&#10;&#9;&#9;&#9;&#9;C177.1,653.3,172.6,657.9,172.6,663.5L172.6,663.5z" style="fill: rgb(208, 65, 54);" transform="matrix(1.000000014901161, 0, 0, 1.000000014901161, -1.1368683772161603e-13, -7.105427357601002e-15)"/><path d="M 292.399994 609.900024 H 318.299994 V 653.400024 H 292.399994 V 609.900024 Z" class="st4" style="fill: rgb(255, 255, 255);" transform="matrix(1.000000014901161, 0, 0, 1.000000014901161, -1.1368683772161603e-13, -7.105427357601002e-15)"/><path class="st11" d="M344.7,663.5c0,5.6-4.6,10.2-10.2,10.2h-40.2c-5.6,0-10.2-4.6-10.2-10.2l0,0c0-5.6,4.6-10.2,10.2-10.2h40.2&#10;&#9;&#9;&#9;&#9;C340.1,653.3,344.7,657.9,344.7,663.5L344.7,663.5z" style="fill: rgb(208, 65, 54);" transform="matrix(1.000000014901161, 0, 0, 1.000000014901161, -1.1368683772161603e-13, -7.105427357601002e-15)"/><path class="st0" d="M298.3,433.8c-5.3-16.9-21.1-29.1-39.7-29.1c-18.6,0-34.4,12.3-39.7,29.1H298.3z" style="fill: rgb(35, 31, 32);" transform="matrix(1.000000014901161, 0, 0, 1.000000014901161, -1.1368683772161603e-13, -7.105427357601002e-15)"/><g transform="matrix(1.000000014901161, 0, 0, 1.000000014901161, -1.1368683772161603e-13, -7.105427357601002e-15)">
				<path class="st4" d="M101.5,578.5c-1.6,0-3-1.2-3.2-2.8L94.5,550l42.6-4.5l7.1,24.5c0.5,1.7-0.5,3.5-2.2,4.1&#10;&#9;&#9;&#9;&#9;&#9;c-1.7,0.5-3.5-0.5-4-2.2l-5.6-19.2l-30.4,3.2l2.8,19c0.3,1.8-1,3.4-2.8,3.7C101.8,578.5,101.7,578.5,101.5,578.5z" style="fill: rgb(255, 255, 255);"/>
			</g><g transform="matrix(1.000000014901161, 0, 0, 1.000000014901161, -1.1368683772161603e-13, -7.105427357601002e-15)">
				<path class="st4" d="M420.7,578.5c1.6,0,3-1.2,3.2-2.8l3.8-25.7l-42.6-4.5l-7.1,24.5c-0.5,1.7,0.5,3.5,2.2,4.1&#10;&#9;&#9;&#9;&#9;&#9;c1.7,0.5,3.5-0.5,4-2.2l5.6-19.2l30.4,3.2l-2.8,19c-0.3,1.8,1,3.4,2.8,3.7C420.3,578.5,420.5,578.5,420.7,578.5z" style="fill: rgb(255, 255, 255);"/>
			</g><path d="M 848.5 503.100006 H 865 V 558.200005 H 848.5 V 503.100006 Z" class="st6" style="fill: rgb(1, 118, 125);" transform="matrix(1.000000014901161, 0, 0, 1.000000014901161, -8.526512829121202e-14, -7.105427357601002e-15)"/><g transform="matrix(1.000000014901161, 0, 0, 1.000000014901161, -8.526512829121202e-14, -7.105427357601002e-15)">
			<path class="st5" d="M908.9,562.9c-1.3-31.4,5.1-48.4,6.2-51c8.9-33,6.7-58.3-6.5-75.2c-18.2-23.3-51.5-22.9-51.8-22.9&#10;&#9;&#9;&#9;&#9;c-0.5,0-33.9-0.3-52,22.9c-13.2,16.9-15.4,42.2-6.5,75.2c1.1,2.6,7.5,19.7,6.2,51l-8.3-0.4c1.3-31.3-5.6-47.5-5.6-47.6l-0.2-0.6&#10;&#9;&#9;&#9;&#9;c-9.7-35.8-7.1-63.7,7.9-82.8c20.7-26.5,57-26.1,58.6-26.1c1.4,0,37.7-0.5,58.4,26.1c15,19.2,17.6,47,7.9,82.8l-0.2,0.6&#10;&#9;&#9;&#9;&#9;c-0.1,0.1-6.9,16.4-5.6,47.6L908.9,562.9z" style="fill: rgb(220, 69, 58);"/>
		</g><path class="st5" d="M925.6,578.8l-1.9-8.1c0.3-0.1,26.4-6.3,39.1-24.5l6.8,4.8C955,571.9,926.8,578.5,925.6,578.8z" style="fill: rgb(220, 69, 58);" transform="matrix(1.000000014901161, 0, 0, 1.000000014901161, -8.526512829121202e-14, -7.105427357601002e-15)"/><path class="st5" d="M787.9,578.8c-1.2-0.3-29.5-6.9-44-27.8l6.8-4.8c12.7,18.2,38.8,24.4,39.1,24.5L787.9,578.8z" style="fill: rgb(220, 69, 58);" transform="matrix(1.000000014901161, 0, 0, 1.000000014901161, -8.526512829121202e-14, -7.105427357601002e-15)"/><g transform="matrix(1.000000014901161, 0, 0, 1.000000014901161, -8.526512829121202e-14, -7.105427357601002e-15)">
			
				<path d="M 640.799988 582.400024 H 652.799988 V 637.100025 H 640.799988 V 582.400024 Z" transform="matrix(0.952 -0.3062 0.3062 0.952 -155.6455 227.3814)" class="st1" style="fill: rgb(255, 210, 55);"/>
		</g><path d="M 482.600006 582.400024 H 494.600006 V 637.100025 H 482.600006 V 582.400024 Z" transform="matrix(-0.952000050306321, -0.3062000365912923, 0.3062000365912923, -0.952000050306321, 767.017723054221, 1339.7599276232688)" class="st1" style="fill: rgb(255, 210, 55);"/><path d="M 648.600014 463.5 A 80.900002 51.5 0 0 1 567.700012 515 A 80.900002 51.5 0 0 1 486.800011 463.5 A 80.900002 51.5 0 0 1 567.700012 412 A 80.900002 51.5 0 0 1 648.600014 463.5 Z" class="st12" style="fill: rgb(158, 143, 202);" transform="matrix(1.000000014901161, 0, 0, 1.000000014901161, -1.1368683772161603e-13, -7.105427357601002e-15)"/><path class="st12" d="M664.3,587.1c0,7.7-6.2,13.9-13.9,13.9H480.2c-7.7,0-13.9-6.2-13.9-13.9V539c0-7.7,6.2-13.9,13.9-13.9&#10;&#9;&#9;&#9;&#9;h170.2c7.7,0,13.9,6.2,13.9,13.9V587.1z" style="fill: rgb(158, 143, 202);" transform="matrix(1.000000014901161, 0, 0, 1.000000014901161, -1.1368683772161603e-13, -7.105427357601002e-15)"/><path class="st12" d="M631.5,650.7c-1.9-22.9-20.9-41-44.4-41h-38.8c-23.4,0-42.4,18.1-44.4,41H631.5z" style="fill: rgb(158, 143, 202);" transform="matrix(1.000000014901161, 0, 0, 1.000000014901161, -1.1368683772161603e-13, -7.105427357601002e-15)"/><path class="st4" d="M625.7,450.9c0,8.3-6.7,15-15,15h-86c-8.3,0-15-6.7-15-15l0,0c0-8.3,6.7-15,15-15h86&#10;&#9;&#9;&#9;&#9;C619,436,625.7,442.7,625.7,450.9L625.7,450.9z" style="fill: rgb(255, 255, 255);" transform="matrix(1.000000014901161, 0, 0, 1.000000014901161, -1.1368683772161603e-13, -7.105427357601002e-15)"/><path class="st13" d="M524.7,460.4c-5.2,0-9.4-4.2-9.4-9.4c0-5.2,4.2-9.4,9.4-9.4h86c5.2,0,9.4,4.2,9.4,9.4&#10;&#9;&#9;&#9;&#9;c0,5.2-4.2,9.4-9.4,9.4H524.7z" style="fill: rgb(180, 211, 52);" transform="matrix(1.000000014901161, 0, 0, 1.000000014901161, -1.1368683772161603e-13, -7.105427357601002e-15)"/><path d="M 535.299988 476.899994 H 600.199989 V 503.299994 H 535.299988 V 476.899994 Z" class="st0" style="fill: rgb(35, 31, 32);" transform="matrix(1.000000014901161, 0, 0, 1.000000014901161, -1.1368683772161603e-13, -7.105427357601002e-15)"/><path d="M 493.399994 543.900024 H 600.099991 V 558.100024 H 493.399994 V 543.900024 Z" class="st14" style="fill: rgb(248, 244, 167);" transform="matrix(1.000000014901161, 0, 0, 1.000000014901161, -1.1368683772161603e-13, -7.105427357601002e-15)"/><path d="M 493.399994 568.5 H 625.699997 V 582.7 H 493.399994 V 568.5 Z" class="st14" style="fill: rgb(248, 244, 167);" transform="matrix(1.000000014901161, 0, 0, 1.000000014901161, -1.1368683772161603e-13, -7.105427357601002e-15)"/><path class="st0" d="M631.5,674.7c0,7.5-6.1,13.5-13.5,13.5H517.5c-7.5,0-13.5-6.1-13.5-13.5l0,0c0-7.5,6.1-13.5,13.5-13.5h100.4&#10;&#9;&#9;&#9;&#9;C625.4,661.1,631.5,667.2,631.5,674.7L631.5,674.7z" style="fill: rgb(35, 31, 32);" transform="matrix(1.000000014901161, 0, 0, 1.000000014901161, -1.1368683772161603e-13, -7.105427357601002e-15)"/><path class="st13" d="M535,674.7c0,4.2-3.4,7.6-7.6,7.6c-4.2,0-7.6-3.4-7.6-7.6c0-4.2,3.4-7.6,7.6-7.6&#10;&#9;&#9;&#9;&#9;C531.6,667,535,670.4,535,674.7z" style="fill: rgb(180, 211, 52);" transform="matrix(1.000000014901161, 0, 0, 1.000000014901161, -1.1368683772161603e-13, -7.105427357601002e-15)"/><path class="st13" d="M561.9,674.7c0,4.2-3.4,7.6-7.6,7.6c-4.2,0-7.6-3.4-7.6-7.6c0-4.2,3.4-7.6,7.6-7.6&#10;&#9;&#9;&#9;&#9;C558.5,667,561.9,670.4,561.9,674.7z" style="fill: rgb(180, 211, 52);" transform="matrix(1.000000014901161, 0, 0, 1.000000014901161, -1.1368683772161603e-13, -7.105427357601002e-15)"/><path class="st13" d="M588.8,674.7c0,4.2-3.4,7.6-7.6,7.6c-4.2,0-7.6-3.4-7.6-7.6c0-4.2,3.4-7.6,7.6-7.6&#10;&#9;&#9;&#9;&#9;C585.4,667,588.8,670.4,588.8,674.7z" style="fill: rgb(180, 211, 52);" transform="matrix(1.000000014901161, 0, 0, 1.000000014901161, -1.1368683772161603e-13, -7.105427357601002e-15)"/><path class="st13" d="M615.7,674.7c0,4.2-3.4,7.6-7.6,7.6c-4.2,0-7.6-3.4-7.6-7.6c0-4.2,3.4-7.6,7.6-7.6&#10;&#9;&#9;&#9;&#9;C612.3,667,615.7,670.4,615.7,674.7z" style="fill: rgb(180, 211, 52);" transform="matrix(1.000000014901161, 0, 0, 1.000000014901161, -1.1368683772161603e-13, -7.105427357601002e-15)"/><path d="M 552.699988 490.100006 A 5.9 5.9 0 0 1 546.799988 496.000006 A 5.9 5.9 0 0 1 540.899988 490.100006 A 5.9 5.9 0 0 1 546.799988 484.200006 A 5.9 5.9 0 0 1 552.699988 490.100006 Z" class="st14" style="fill: rgb(248, 244, 167);" transform="matrix(1.000000014901161, 0, 0, 1.000000014901161, -1.1368683772161603e-13, -7.105427357601002e-15)"/><path d="M 571.199988 490.100006 A 5.9 5.9 0 0 1 565.299988 496.000006 A 5.9 5.9 0 0 1 559.399988 490.100006 A 5.9 5.9 0 0 1 565.299988 484.200006 A 5.9 5.9 0 0 1 571.199988 490.100006 Z" class="st14" style="fill: rgb(248, 244, 167);" transform="matrix(1.000000014901161, 0, 0, 1.000000014901161, -1.1368683772161603e-13, -7.105427357601002e-15)"/><path d="M 589.800025 490.100006 A 5.9 5.9 0 0 1 583.900024 496.000006 A 5.9 5.9 0 0 1 578.000024 490.100006 A 5.9 5.9 0 0 1 583.900024 484.200006 A 5.9 5.9 0 0 1 589.800025 490.100006 Z" class="st14" style="fill: rgb(248, 244, 167);" transform="matrix(1.000000014901161, 0, 0, 1.000000014901161, -1.1368683772161603e-13, -7.105427357601002e-15)"/><path class="st4" d="M927.4,611.8c0,7.7-6.2,13.9-13.9,13.9H799.9c-7.7,0-13.9-6.2-13.9-13.9v-40.5c0-7.7,6.2-13.9,13.9-13.9&#10;&#9;&#9;&#9;h113.7c7.7,0,13.9,6.2,13.9,13.9V611.8z" style="fill: rgb(255, 255, 255);" transform="matrix(1.000000014901161, 0, 0, 1.000000014901161, -8.526512829121202e-14, -7.105427357601002e-15)"/><path d="M 827.400012 591.599976 A 11.2 11.2 0 0 1 816.200012 602.799975 A 11.2 11.2 0 0 1 805.000012 591.599976 A 11.2 11.2 0 0 1 816.200012 580.399976 A 11.2 11.2 0 0 1 827.400012 591.599976 Z" class="st5" style="fill: rgb(220, 69, 58);" transform="matrix(1.000000014901161, 0, 0, 1.000000014901161, -8.526512829121202e-14, -7.105427357601002e-15)"/><path d="M 867.900012 591.599976 A 11.2 11.2 0 0 1 856.700012 602.799975 A 11.2 11.2 0 0 1 845.500012 591.599976 A 11.2 11.2 0 0 1 856.700012 580.399976 A 11.2 11.2 0 0 1 867.900012 591.599976 Z" class="st5" style="fill: rgb(220, 69, 58);" transform="matrix(1.000000014901161, 0, 0, 1.000000014901161, -8.526512829121202e-14, -7.105427357601002e-15)"/><path d="M 887.600012 477.399994 A 30.9 30.9 0 0 1 856.700012 508.299994 A 30.9 30.9 0 0 1 825.800013 477.399994 A 30.9 30.9 0 0 1 856.700012 446.499994 A 30.9 30.9 0 0 1 887.600012 477.399994 Z" class="st4" style="fill: rgb(255, 255, 255);" transform="matrix(1.000000014901161, 0, 0, 1.000000014901161, -8.526512829121202e-14, -7.105427357601002e-15)"/><path d="M 882.400013 477.399994 A 25.700001 25.700001 0 0 1 856.700012 503.099995 A 25.700001 25.700001 0 0 1 831.000011 477.399994 A 25.700001 25.700001 0 0 1 856.700012 451.699993 A 25.700001 25.700001 0 0 1 882.400013 477.399994 Z" class="st5" style="fill: rgb(220, 69, 58);" transform="matrix(1.000000014901161, 0, 0, 1.000000014901161, -8.526512829121202e-14, -7.105427357601002e-15)"/><path d="M 872.000012 477.399994 A 15.3 15.3 0 0 1 856.700012 492.699994 A 15.3 15.3 0 0 1 841.400012 477.399994 A 15.3 15.3 0 0 1 856.700012 462.099994 A 15.3 15.3 0 0 1 872.000012 477.399994 Z" class="st1" style="fill: rgb(255, 210, 55);" transform="matrix(1.000000014901161, 0, 0, 1.000000014901161, -8.526512829121202e-14, -7.105427357601002e-15)"/><g transform="matrix(1.000000014901161, 0, 0, 1.000000014901161, -8.526512829121202e-14, -7.105427357601002e-15)">
			<path class="st4" d="M974.3,517.3c-1.2-1.1-3-1.2-4.3-0.2l-20.4,16.1l27.9,32.5l22-12.9c1.6-0.9,2.1-2.9,1.2-4.5&#10;&#9;&#9;&#9;&#9;c-0.9-1.6-2.9-2.1-4.5-1.2L979,557.3l-19.9-23.2l15-11.9c1.4-1.1,1.7-3.2,0.5-4.6C974.6,517.5,974.5,517.4,974.3,517.3z" style="fill: rgb(255, 255, 255);"/>
		</g><g transform="matrix(1.000000014901161, 0, 0, 1.000000014901161, -8.526512829121202e-14, -7.105427357601002e-15)">
			<path class="st4" d="M739.1,517.3c1.2-1.1,3-1.2,4.3-0.2l20.4,16.1l-27.9,32.5l-22-12.9c-1.6-0.9-2.1-2.9-1.2-4.5&#10;&#9;&#9;&#9;&#9;c0.9-1.6,2.9-2.1,4.5-1.2l17.3,10.1l19.9-23.2l-15-11.9c-1.4-1.1-1.7-3.2-0.5-4.6C738.9,517.5,739,517.4,739.1,517.3z" style="fill: rgb(255, 255, 255);"/>
		</g><path d="M 908.400012 591.599976 A 11.2 11.2 0 0 1 897.200012 602.799975 A 11.2 11.2 0 0 1 886.000012 591.599976 A 11.2 11.2 0 0 1 897.200012 580.399976 A 11.2 11.2 0 0 1 908.400012 591.599976 Z" class="st5" style="fill: rgb(220, 69, 58);" transform="matrix(1.000000014901161, 0, 0, 1.000000014901161, -8.526512829121202e-14, -7.105427357601002e-15)"/>
</svg>