<?xml version="1.0" encoding="utf-8"?>
<svg id="master-artboard" viewBox="0 0 1096 780" version="1.1" xmlns="http://www.w3.org/2000/svg" x="0px" y="0px" style="enable-background:new 0 0 1096 780;" width="1096px" height="780px">

<path d="M 0 0 H 1096 V 780 H 0 V 0 Z" class="st0" style="fill: rgb(0, 143, 213);" transform="matrix(0.9999999999999999, 0, 0, 0.9999999999999999, -2.842170943040401e-14, -7.105427357601002e-15)"/>
<g transform="matrix(0.9999999999999999, 0, 0, 0.9999999999999999, -2.842170943040401e-14, -7.105427357601002e-15)">
		<path class="st1" d="M287.2,188l56.9,56.9c7.2,7.2,18.8,7.2,26,0c7.2-7.2,7.2-18.8,0-26L313.2,162L287.2,188z" style="fill: rgb(209, 211, 212);"/>
		
			<path d="M 277 169.600006 H 331.299999 V 188.200006 H 277 V 169.600006 Z" transform="matrix(0.7071 -0.7071 0.7071 0.7071 -37.436 267.4666)" class="st2" style="fill: rgb(188, 190, 192);"/>
		<path d="M 328.499992 121.199997 A 82.099998 82.099998 0 0 1 246.399994 203.299995 A 82.099998 82.099998 0 0 1 164.299995 121.199997 A 82.099998 82.099998 0 0 1 246.399994 39.099998 A 82.099998 82.099998 0 0 1 328.499992 121.199997 Z" class="st3" style="fill: rgb(230, 231, 232);"/>
		<path class="st4" d="M292.2,75.3c25.3,25.3,25.3,66.4,0,91.7c-25.3,25.3-66.4,25.3-91.7,0c-25.3-25.3-25.3-66.4,0-91.7&#10;&#9;&#9;&#9;S266.9,50,292.2,75.3z" style="fill: rgb(142, 216, 248);"/>
		<g>
			<path class="st5" d="M279.5,124.4H261l15.9-11.2c2.1-1.5,2.6-4.4,1.1-6.5c-1.5-2.1-4.4-2.6-6.5-1.1l-19.4,13.7&#10;&#9;&#9;&#9;&#9;c0.2-4.7,0.1-10.4-1-16.1c1.3-5.9,3.8-11.4,8.2-14.6c2.1-1.5,2.5-4.5,0.9-6.5c-1.5-2.1-4.4-2.5-6.5-0.9c-3.1,2.3-5.5,5.2-7.4,8.5&#10;&#9;&#9;&#9;&#9;c-1.9-3.2-4.3-6.1-7.4-8.5c-2.1-1.5-5-1.1-6.5,0.9c-1.5,2.1-1.1,5,0.9,6.5c4.5,3.4,6.9,8.8,8.2,14.5c-1.1,5.8-1.2,11.6-1,16.3&#10;&#9;&#9;&#9;&#9;l-19.5-13.8c-2.1-1.5-5-1-6.5,1.1c-1.5,2.1-1,5,1.1,6.5l15.9,11.2l-18.5,0c-2.6,0-4.7,2.1-4.7,4.7c0,2.6,2.1,4.7,4.7,4.7l18.5,0&#10;&#9;&#9;&#9;&#9;l-15.9,11.2c-2.1,1.5-2.6,4.4-1.1,6.5c0.9,1.3,2.3,2,3.8,2c0.9,0,1.9-0.3,2.7-0.9l25.2-17.8l25.2,17.8c0.8,0.6,1.8,0.9,2.7,0.9&#10;&#9;&#9;&#9;&#9;c1.5,0,2.9-0.7,3.8-2c1.5-2.1,1-5-1.1-6.5L261,133.7h18.5c2.6,0,4.7-2.1,4.7-4.7C284.2,126.5,282.1,124.4,279.5,124.4z" style="fill: rgb(65, 64, 66);"/>
			<path class="st6" d="M270.3,129c0,16.6-7.3,30.1-23.9,30.1c-16.6,0-23.9-13.5-23.9-30.1c0-16.6,7.3-30.1,23.9-30.1&#10;&#9;&#9;&#9;&#9;C263,98.9,270.3,112.4,270.3,129z" style="fill: rgb(88, 89, 91);"/>
		</g>
	</g><path class="st3" d="M636.9,50.5H429.2c-6.6,0-12,5.4-12,12v23.1c0,6.6,5.4,12,12,12h207.7c6.6,0,12-5.4,12-12V62.5&#10;&#9;&#9;&#9;C648.9,55.9,643.5,50.5,636.9,50.5z" style="fill: rgb(230, 231, 232);" transform="matrix(1.000000014901161, 0, 0, 1.000000014901161, -8.526512829121202e-14, -7.105427357601002e-15)"/><path d="M 455.900012 74 A 9.7 9.7 0 0 1 446.200012 83.7 A 9.7 9.7 0 0 1 436.500012 74 A 9.7 9.7 0 0 1 446.200012 64.3 A 9.7 9.7 0 0 1 455.900012 74 Z" class="st7" style="fill: rgb(141, 198, 63);" transform="matrix(1.000000014901161, 0, 0, 1.000000014901161, -8.526512829121202e-14, -7.105427357601002e-15)"/><path d="M 494.499988 74 A 9.7 9.7 0 0 1 484.799988 83.7 A 9.7 9.7 0 0 1 475.099988 74 A 9.7 9.7 0 0 1 484.799988 64.3 A 9.7 9.7 0 0 1 494.499988 74 Z" class="st7" style="fill: rgb(141, 198, 63);" transform="matrix(1.000000014901161, 0, 0, 1.000000014901161, -8.526512829121202e-14, -7.105427357601002e-15)"/><path d="M 533.100024 74 A 9.7 9.7 0 0 1 523.400024 83.7 A 9.7 9.7 0 0 1 513.700025 74 A 9.7 9.7 0 0 1 523.400024 64.3 A 9.7 9.7 0 0 1 533.100024 74 Z" class="st8" style="fill: rgb(241, 91, 64);" transform="matrix(1.000000014901161, 0, 0, 1.000000014901161, -8.526512829121202e-14, -7.105427357601002e-15)"/><path class="st9" d="M636.9,97.5H429.2c-6.6,0-12,5.4-12,12v23.1c0,6.6,5.4,12,12,12h207.7c6.6,0,12-5.4,12-12v-23.1&#10;&#9;&#9;&#9;C648.9,102.9,643.5,97.5,636.9,97.5z" style="fill: rgb(220, 221, 222);" transform="matrix(1.000000014901161, 0, 0, 1.000000014901161, -8.526512829121202e-14, -7.105427357601002e-15)"/><path d="M 455.900012 121.099998 A 9.7 9.7 0 0 1 446.200012 130.799998 A 9.7 9.7 0 0 1 436.500012 121.099998 A 9.7 9.7 0 0 1 446.200012 111.399999 A 9.7 9.7 0 0 1 455.900012 121.099998 Z" class="st7" style="fill: rgb(141, 198, 63);" transform="matrix(1.000000014901161, 0, 0, 1.000000014901161, -8.526512829121202e-14, -7.105427357601002e-15)"/><path d="M 494.499988 121.099998 A 9.7 9.7 0 0 1 484.799988 130.799998 A 9.7 9.7 0 0 1 475.099988 121.099998 A 9.7 9.7 0 0 1 484.799988 111.399999 A 9.7 9.7 0 0 1 494.499988 121.099998 Z" class="st7" style="fill: rgb(141, 198, 63);" transform="matrix(1.000000014901161, 0, 0, 1.000000014901161, -8.526512829121202e-14, -7.105427357601002e-15)"/><path d="M 533.100024 121.099998 A 9.7 9.7 0 0 1 523.400024 130.799998 A 9.7 9.7 0 0 1 513.700025 121.099998 A 9.7 9.7 0 0 1 523.400024 111.399999 A 9.7 9.7 0 0 1 533.100024 121.099998 Z" class="st8" style="fill: rgb(241, 91, 64);" transform="matrix(1.000000014901161, 0, 0, 1.000000014901161, -8.526512829121202e-14, -7.105427357601002e-15)"/><path class="st3" d="M636.9,144.6H429.2c-6.6,0-12,5.4-12,12v23.1c0,6.6,5.4,12,12,12h207.7c6.6,0,12-5.4,12-12v-23.1&#10;&#9;&#9;&#9;C648.9,150,643.5,144.6,636.9,144.6z" style="fill: rgb(230, 231, 232);" transform="matrix(1.000000014901161, 0, 0, 1.000000014901161, -8.526512829121202e-14, -7.105427357601002e-15)"/><path d="M 455.900012 168.199997 A 9.7 9.7 0 0 1 446.200012 177.899997 A 9.7 9.7 0 0 1 436.500012 168.199997 A 9.7 9.7 0 0 1 446.200012 158.499997 A 9.7 9.7 0 0 1 455.900012 168.199997 Z" class="st7" style="fill: rgb(141, 198, 63);" transform="matrix(1.000000014901161, 0, 0, 1.000000014901161, -8.526512829121202e-14, -7.105427357601002e-15)"/><path d="M 494.499988 168.199997 A 9.7 9.7 0 0 1 484.799988 177.899997 A 9.7 9.7 0 0 1 475.099988 168.199997 A 9.7 9.7 0 0 1 484.799988 158.499997 A 9.7 9.7 0 0 1 494.499988 168.199997 Z" class="st7" style="fill: rgb(141, 198, 63);" transform="matrix(1.000000014901161, 0, 0, 1.000000014901161, -8.526512829121202e-14, -7.105427357601002e-15)"/><path d="M 533.100024 168.199997 A 9.7 9.7 0 0 1 523.400024 177.899997 A 9.7 9.7 0 0 1 513.700025 168.199997 A 9.7 9.7 0 0 1 523.400024 158.499997 A 9.7 9.7 0 0 1 533.100024 168.199997 Z" class="st8" style="fill: rgb(241, 91, 64);" transform="matrix(1.000000014901161, 0, 0, 1.000000014901161, -8.526512829121202e-14, -7.105427357601002e-15)"/><path class="st9" d="M636.9,191.7H429.2c-6.6,0-12,5.4-12,12v23.1c0,6.6,5.4,12,12,12h207.7c6.6,0,12-5.4,12-12v-23.1&#10;&#9;&#9;&#9;C648.9,197.1,643.5,191.7,636.9,191.7z" style="fill: rgb(220, 221, 222);" transform="matrix(1.000000014901161, 0, 0, 1.000000014901161, -8.526512829121202e-14, -7.105427357601002e-15)"/><path d="M 455.900012 215.300003 A 9.7 9.7 0 0 1 446.200012 225.000003 A 9.7 9.7 0 0 1 436.500012 215.300003 A 9.7 9.7 0 0 1 446.200012 205.600003 A 9.7 9.7 0 0 1 455.900012 215.300003 Z" class="st7" style="fill: rgb(141, 198, 63);" transform="matrix(1.000000014901161, 0, 0, 1.000000014901161, -8.526512829121202e-14, -7.105427357601002e-15)"/><path d="M 494.499988 215.300003 A 9.7 9.7 0 0 1 484.799988 225.000003 A 9.7 9.7 0 0 1 475.099988 215.300003 A 9.7 9.7 0 0 1 484.799988 205.600003 A 9.7 9.7 0 0 1 494.499988 215.300003 Z" class="st7" style="fill: rgb(141, 198, 63);" transform="matrix(1.000000014901161, 0, 0, 1.000000014901161, -8.526512829121202e-14, -7.105427357601002e-15)"/><path d="M 533.100024 215.300003 A 9.7 9.7 0 0 1 523.400024 225.000003 A 9.7 9.7 0 0 1 513.700025 215.300003 A 9.7 9.7 0 0 1 523.400024 205.600003 A 9.7 9.7 0 0 1 533.100024 215.300003 Z" class="st8" style="fill: rgb(241, 91, 64);" transform="matrix(1.000000014901161, 0, 0, 1.000000014901161, -8.526512829121202e-14, -7.105427357601002e-15)"/><path class="st10" d="M621.2,119.1h-63.7c-5.8,0-9,3.2-9,9v41.1c0,5.8,3.2,9,9,9h63.7c5.8,0,9-3.2,9-9v-41.1&#10;&#9;&#9;&#9;&#9;C630.2,122.3,627,119.1,621.2,119.1z" style="fill: rgb(255, 203, 5);" transform="matrix(1.000000014901161, 0, 0, 1.000000014901161, -1.1368683772161603e-13, -7.105427357601002e-15)"/><path class="st11" d="M599.4,141.7c0-5.5-4.5-10-10-10c-5.5,0-10,4.5-10,10c0,3.5,1.8,6.6,4.5,8.3l-2.6,15.9h16.3l-2.6-15.9&#10;&#9;&#9;&#9;&#9;C597.7,148.2,599.4,145.2,599.4,141.7z" style="fill: rgb(180, 75, 21);" transform="matrix(1.000000014901161, 0, 0, 1.000000014901161, -1.1368683772161603e-13, -7.105427357601002e-15)"/><path class="st2" d="M560.8,102.6c0-15.8,12.8-28.6,28.6-28.6S618,86.8,618,102.6v16.5h-9.7v-16.5c0-10.5-8.5-19-19-19&#10;&#9;&#9;&#9;&#9;c-10.5,0-19,8.5-19,19v16.5h-9.7V102.6z" style="fill: rgb(188, 190, 192);" transform="matrix(1.000000014901161, 0, 0, 1.000000014901161, -1.1368683772161603e-13, -7.105427357601002e-15)"/><g transform="matrix(1.000000014901161, 0, 0, 1.000000014901161, -8.526512829121202e-14, -7.105427357601002e-15)">
			<path class="st12" d="M755.7,49.4h-42.8c-2.8,0-5,2.2-5,5v15.3c0,2.8,2.2,5,5,5h42.8c2.8,0,5-2.2,5-5V54.4&#10;&#9;&#9;&#9;&#9;C760.7,51.6,758.5,49.4,755.7,49.4z" style="fill: rgb(247, 148, 30);"/>
			<path class="st12" d="M812.7,49.4H770c-2.8,0-5,2.2-5,5v15.3c0,2.8,2.2,5,5,5h42.8c2.8,0,5-2.2,5-5V54.4&#10;&#9;&#9;&#9;&#9;C817.7,51.6,815.5,49.4,812.7,49.4z" style="fill: rgb(247, 148, 30);"/>
			<path class="st12" d="M869.7,49.4H827c-2.7,0-5,2.2-5,5v15.3c0,2.8,2.3,5,5,5h42.8c2.8,0,5-2.2,5-5V54.4&#10;&#9;&#9;&#9;&#9;C874.7,51.6,872.5,49.4,869.7,49.4z" style="fill: rgb(247, 148, 30);"/>
			<path class="st12" d="M926.8,49.4H884c-2.8,0-5,2.2-5,5v15.3c0,2.8,2.2,5,5,5h42.8c2.8,0,5-2.2,5-5V54.4&#10;&#9;&#9;&#9;&#9;C931.8,51.6,929.5,49.4,926.8,49.4z" style="fill: rgb(247, 148, 30);"/>
		</g><path class="st12" d="M727.2,78.8h-14.3c-2.8,0-5,2.2-5,5v15.3c0,2.8,2.2,5,5,5h14.3c2.8,0,5-2.2,5-5V83.8&#10;&#9;&#9;&#9;&#9;C732.2,81,729.9,78.8,727.2,78.8z" style="fill: rgb(247, 148, 30);" transform="matrix(1.000000014901161, 0, 0, 1.000000014901161, -1.1368683772161603e-13, -7.105427357601002e-15)"/><path class="st12" d="M784.2,78.8h-42.8c-2.8,0-5,2.2-5,5v15.3c0,2.8,2.2,5,5,5h42.8c2.8,0,5-2.2,5-5V83.8&#10;&#9;&#9;&#9;&#9;C789.2,81,787,78.8,784.2,78.8z" style="fill: rgb(247, 148, 30);" transform="matrix(1.000000014901161, 0, 0, 1.000000014901161, -1.1368683772161603e-13, -7.105427357601002e-15)"/><path class="st12" d="M841.2,78.8h-42.8c-2.7,0-5,2.2-5,5v15.3c0,2.8,2.3,5,5,5h42.8c2.7,0,5-2.2,5-5V83.8&#10;&#9;&#9;&#9;&#9;C846.2,81,844,78.8,841.2,78.8z" style="fill: rgb(247, 148, 30);" transform="matrix(1.000000014901161, 0, 0, 1.000000014901161, -1.1368683772161603e-13, -7.105427357601002e-15)"/><path class="st12" d="M898.2,78.8h-42.8c-2.8,0-5,2.2-5,5v15.3c0,2.8,2.2,5,5,5h42.8c2.8,0,5-2.2,5-5V83.8&#10;&#9;&#9;&#9;&#9;C903.2,81,901,78.8,898.2,78.8z" style="fill: rgb(247, 148, 30);" transform="matrix(1.000000014901161, 0, 0, 1.000000014901161, -1.1368683772161603e-13, -7.105427357601002e-15)"/><path class="st12" d="M926.7,78.8h-14.3c-2.8,0-5,2.2-5,5v15.3c0,2.8,2.2,5,5,5h14.3c2.8,0,5-2.2,5-5V83.8&#10;&#9;&#9;&#9;&#9;C931.7,81,929.5,78.8,926.7,78.8z" style="fill: rgb(247, 148, 30);" transform="matrix(1.000000014901161, 0, 0, 1.000000014901161, -1.1368683772161603e-13, -7.105427357601002e-15)"/><path class="st12" d="M755.7,108.2h-42.8c-2.8,0-5,2.2-5,5v15.3c0,2.8,2.2,5,5,5h42.8c2.8,0,5-2.2,5-5v-15.3&#10;&#9;&#9;&#9;&#9;C760.7,110.5,758.5,108.2,755.7,108.2z" style="fill: rgb(247, 148, 30);" transform="matrix(1.000000014901161, 0, 0, 1.000000014901161, -1.1368683772161603e-13, -7.105427357601002e-15)"/><path class="st12" d="M812.7,108.2H770c-2.8,0-5,2.2-5,5v15.3c0,2.8,2.2,5,5,5h42.8c2.8,0,5-2.2,5-5v-15.3&#10;&#9;&#9;&#9;&#9;C817.7,110.5,815.5,108.2,812.7,108.2z" style="fill: rgb(247, 148, 30);" transform="matrix(1.000000014901161, 0, 0, 1.000000014901161, -1.1368683772161603e-13, -7.105427357601002e-15)"/><path class="st12" d="M869.7,108.2H827c-2.7,0-5,2.2-5,5v15.3c0,2.8,2.3,5,5,5h42.8c2.8,0,5-2.2,5-5v-15.3&#10;&#9;&#9;&#9;&#9;C874.7,110.5,872.5,108.2,869.7,108.2z" style="fill: rgb(247, 148, 30);" transform="matrix(1.000000014901161, 0, 0, 1.000000014901161, -1.1368683772161603e-13, -7.105427357601002e-15)"/><path class="st12" d="M926.8,108.2H884c-2.8,0-5,2.2-5,5v15.3c0,2.8,2.2,5,5,5h42.8c2.8,0,5-2.2,5-5v-15.3&#10;&#9;&#9;&#9;&#9;C931.8,110.5,929.5,108.2,926.8,108.2z" style="fill: rgb(247, 148, 30);" transform="matrix(1.000000014901161, 0, 0, 1.000000014901161, -1.1368683772161603e-13, -7.105427357601002e-15)"/><path class="st12" d="M727.2,137.6h-14.3c-2.8,0-5,2.2-5,5v15.3c0,2.8,2.2,5,5,5h14.3c2.8,0,5-2.2,5-5v-15.3&#10;&#9;&#9;&#9;&#9;C732.2,139.9,729.9,137.6,727.2,137.6z" style="fill: rgb(247, 148, 30);" transform="matrix(1.000000014901161, 0, 0, 1.000000014901161, -1.1368683772161603e-13, -7.105427357601002e-15)"/><path class="st12" d="M784.2,137.6h-42.8c-2.8,0-5,2.2-5,5v15.3c0,2.8,2.2,5,5,5h42.8c2.8,0,5-2.2,5-5v-15.3&#10;&#9;&#9;&#9;&#9;C789.2,139.9,787,137.6,784.2,137.6z" style="fill: rgb(247, 148, 30);" transform="matrix(1.000000014901161, 0, 0, 1.000000014901161, -1.1368683772161603e-13, -7.105427357601002e-15)"/><path class="st12" d="M841.2,137.6h-42.8c-2.7,0-5,2.2-5,5v15.3c0,2.8,2.3,5,5,5h42.8c2.7,0,5-2.2,5-5v-15.3&#10;&#9;&#9;&#9;&#9;C846.2,139.9,844,137.6,841.2,137.6z" style="fill: rgb(247, 148, 30);" transform="matrix(1.000000014901161, 0, 0, 1.000000014901161, -1.1368683772161603e-13, -7.105427357601002e-15)"/><path class="st12" d="M898.2,137.6h-42.8c-2.8,0-5,2.2-5,5v15.3c0,2.8,2.2,5,5,5h42.8c2.8,0,5-2.2,5-5v-15.3&#10;&#9;&#9;&#9;&#9;C903.2,139.9,901,137.6,898.2,137.6z" style="fill: rgb(247, 148, 30);" transform="matrix(1.000000014901161, 0, 0, 1.000000014901161, -1.1368683772161603e-13, -7.105427357601002e-15)"/><path class="st12" d="M926.7,137.6h-14.3c-2.8,0-5,2.2-5,5v15.3c0,2.8,2.2,5,5,5h14.3c2.8,0,5-2.2,5-5v-15.3&#10;&#9;&#9;&#9;&#9;C931.7,139.9,929.5,137.6,926.7,137.6z" style="fill: rgb(247, 148, 30);" transform="matrix(1.000000014901161, 0, 0, 1.000000014901161, -1.1368683772161603e-13, -7.105427357601002e-15)"/><path class="st12" d="M755.7,167h-42.8c-2.8,0-5,2.2-5,5v15.3c0,2.8,2.2,5,5,5h42.8c2.8,0,5-2.2,5-5V172&#10;&#9;&#9;&#9;&#9;C760.7,169.3,758.5,167,755.7,167z" style="fill: rgb(247, 148, 30);" transform="matrix(1.000000014901161, 0, 0, 1.000000014901161, -1.1368683772161603e-13, -7.105427357601002e-15)"/><path class="st12" d="M812.7,167H770c-2.8,0-5,2.2-5,5v15.3c0,2.8,2.2,5,5,5h42.8c2.8,0,5-2.2,5-5V172&#10;&#9;&#9;&#9;&#9;C817.7,169.3,815.5,167,812.7,167z" style="fill: rgb(247, 148, 30);" transform="matrix(1.000000014901161, 0, 0, 1.000000014901161, -1.1368683772161603e-13, -7.105427357601002e-15)"/><path class="st12" d="M869.7,167H827c-2.7,0-5,2.2-5,5v15.3c0,2.8,2.3,5,5,5h42.8c2.8,0,5-2.2,5-5V172&#10;&#9;&#9;&#9;&#9;C874.7,169.3,872.5,167,869.7,167z" style="fill: rgb(247, 148, 30);" transform="matrix(1.000000014901161, 0, 0, 1.000000014901161, -1.1368683772161603e-13, -7.105427357601002e-15)"/><path class="st12" d="M926.8,167H884c-2.8,0-5,2.2-5,5v15.3c0,2.8,2.2,5,5,5h42.8c2.8,0,5-2.2,5-5V172&#10;&#9;&#9;&#9;&#9;C931.8,169.3,929.5,167,926.8,167z" style="fill: rgb(247, 148, 30);" transform="matrix(1.000000014901161, 0, 0, 1.000000014901161, -1.1368683772161603e-13, -7.105427357601002e-15)"/><path class="st12" d="M727.2,196.4h-14.3c-2.8,0-5,2.2-5,5v15.3c0,2.8,2.2,5,5,5h14.3c2.8,0,5-2.2,5-5v-15.3&#10;&#9;&#9;&#9;&#9;C732.2,198.7,729.9,196.4,727.2,196.4z" style="fill: rgb(247, 148, 30);" transform="matrix(1.000000014901161, 0, 0, 1.000000014901161, -1.1368683772161603e-13, -7.105427357601002e-15)"/><path class="st12" d="M784.2,196.4h-42.8c-2.8,0-5,2.2-5,5v15.3c0,2.8,2.2,5,5,5h42.8c2.8,0,5-2.2,5-5v-15.3&#10;&#9;&#9;&#9;&#9;C789.2,198.7,787,196.4,784.2,196.4z" style="fill: rgb(247, 148, 30);" transform="matrix(1.000000014901161, 0, 0, 1.000000014901161, -1.1368683772161603e-13, -7.105427357601002e-15)"/><path class="st12" d="M841.2,196.4h-42.8c-2.7,0-5,2.2-5,5v15.3c0,2.8,2.3,5,5,5h42.8c2.7,0,5-2.2,5-5v-15.3&#10;&#9;&#9;&#9;&#9;C846.2,198.7,844,196.4,841.2,196.4z" style="fill: rgb(247, 148, 30);" transform="matrix(1.000000014901161, 0, 0, 1.000000014901161, -1.1368683772161603e-13, -7.105427357601002e-15)"/><path class="st12" d="M898.2,196.4h-42.8c-2.8,0-5,2.2-5,5v15.3c0,2.8,2.2,5,5,5h42.8c2.8,0,5-2.2,5-5v-15.3&#10;&#9;&#9;&#9;&#9;C903.2,198.7,901,196.4,898.2,196.4z" style="fill: rgb(247, 148, 30);" transform="matrix(1.000000014901161, 0, 0, 1.000000014901161, -1.1368683772161603e-13, -7.105427357601002e-15)"/><path class="st12" d="M926.7,196.4h-14.3c-2.8,0-5,2.2-5,5v15.3c0,2.8,2.2,5,5,5h14.3c2.8,0,5-2.2,5-5v-15.3&#10;&#9;&#9;&#9;&#9;C931.7,198.7,929.5,196.4,926.7,196.4z" style="fill: rgb(247, 148, 30);" transform="matrix(1.000000014901161, 0, 0, 1.000000014901161, -1.1368683772161603e-13, -7.105427357601002e-15)"/><path class="st13" d="M860.7,239.9c-35.8,0-60.3-29.9-60.3-63.4c0-33.6,15-42.1,15-42.1s4.6,18.4,19.9,31.1&#10;&#9;&#9;&#9;c2.8-39.6,20.3-30.2,14.8-64.2c0,0,36.1,9.1,36.1,64.2c15-15.7,16-31.1,16-31.1s18.9,10.9,18.9,42.1&#10;&#9;&#9;&#9;C921,210,896.5,239.9,860.7,239.9z" style="fill: rgb(255, 221, 0);" transform="matrix(1.000000014901161, 0, 0, 1.000000014901161, -8.526512829121202e-14, -7.105427357601002e-15)"/><path class="st10" d="M860.7,230.9c-16.2,0-30.7-6-39.5-21.4c-8.9-15.6-2-38.7-2-38.7s6.1,28.6,24.9,24.8&#10;&#9;&#9;&#9;c0-16.6,13.4-22.3,13.6-46.5c0,0,20.1,22.6,19.7,46.5c16.4,2.8,26.2-24.8,26.2-24.8s3.6,22.3-3.4,36.5&#10;&#9;&#9;&#9;C892.1,223.8,876.8,230.9,860.7,230.9z" style="fill: rgb(255, 203, 5);" transform="matrix(1.000000014901161, 0, 0, 1.000000014901161, -8.526512829121202e-14, -7.105427357601002e-15)"/><path class="st6" d="M365.6,418.2c0.2-2.5,0.3-5.1,0.3-7.7c0-2.6-0.1-5.1-0.3-7.7l-14.8-10.1c-0.5-2.5-1.2-4.9-2-7.3l7.8-16.2&#10;&#9;&#9;&#9;c-2.2-4.6-4.8-9.1-7.7-13.3l-17.9-1.3c-1.7-1.9-3.5-3.6-5.3-5.3l-1.3-17.9c-4.2-2.9-8.6-5.5-13.3-7.7l-16.2,7.8&#10;&#9;&#9;&#9;c-2.4-0.8-4.8-1.4-7.3-2l-10.1-14.8c-2.5-0.2-5.1-0.3-7.7-0.3c-2.6,0-5.1,0.1-7.7,0.3l-10.1,14.8c-2.5,0.5-4.9,1.2-7.3,2&#10;&#9;&#9;&#9;l-16.2-7.8c-4.6,2.2-9.1,4.8-13.3,7.7l-1.3,17.9c-1.9,1.7-3.6,3.5-5.3,5.3l-17.9,1.3c-2.9,4.2-5.5,8.6-7.7,13.3l7.8,16.2&#10;&#9;&#9;&#9;c-0.8,2.4-1.4,4.8-2,7.3l-14.8,10.1c-0.2,2.5-0.3,5.1-0.3,7.7c0,2.6,0.1,5.1,0.3,7.7l14.8,10.1c0.5,2.5,1.2,4.9,2,7.3l-7.8,16.2&#10;&#9;&#9;&#9;c2.2,4.6,4.8,9.1,7.7,13.3l17.9,1.3c1.7,1.9,3.5,3.6,5.3,5.3l1.3,17.9c4.2,2.9,8.6,5.5,13.3,7.7l16.2-7.8c2.4,0.8,4.8,1.4,7.3,2&#10;&#9;&#9;&#9;l10.1,14.8c2.5,0.2,5.1,0.3,7.7,0.3c2.6,0,5.1-0.1,7.7-0.3l10.1-14.8c2.5-0.5,4.9-1.2,7.3-2l16.2,7.8c4.6-2.2,9.1-4.8,13.3-7.7&#10;&#9;&#9;&#9;l1.3-17.9c1.9-1.7,3.6-3.5,5.3-5.3l17.9-1.3c2.9-4.2,5.5-8.6,7.7-13.3l-7.8-16.2c0.8-2.4,1.4-4.8,2-7.3L365.6,418.2z" style="fill: rgb(88, 89, 91);" transform="matrix(1.000000014901161, 0, 0, 1.000000014901161, -8.526512829121202e-14, -7.105427357601002e-15)"/><path class="st2" d="M202.1,410.5c0-37.4,30.3-67.7,67.7-67.7c37.4,0,67.7,30.3,67.7,67.7c0,37.4-30.3,67.7-67.7,67.7&#10;&#9;&#9;&#9;C232.4,478.3,202.1,447.9,202.1,410.5z" style="fill: rgb(188, 190, 192);" transform="matrix(1.000000014901161, 0, 0, 1.000000014901161, -8.526512829121202e-14, -7.105427357601002e-15)"/><path class="st6" d="M217,410.5c0-29.2,23.7-52.9,52.9-52.9c29.2,0,52.9,23.7,52.9,52.9c0,29.2-23.7,52.9-52.9,52.9&#10;&#9;&#9;&#9;C240.6,463.4,217,439.7,217,410.5z" style="fill: rgb(88, 89, 91);" transform="matrix(1.000000014901161, 0, 0, 1.000000014901161, -8.526512829121202e-14, -7.105427357601002e-15)"/><path class="st3" d="M228.1,410.5c0-23,18.7-41.7,41.7-41.7c23,0,41.7,18.7,41.7,41.7c0,23-18.7,41.7-41.7,41.7&#10;&#9;&#9;&#9;C246.8,452.2,228.1,433.6,228.1,410.5z" style="fill: rgb(230, 231, 232);" transform="matrix(1.000000014901161, 0, 0, 1.000000014901161, -8.526512829121202e-14, -7.105427357601002e-15)"/><path class="st6" d="M256.8,410.5c0-7.2,5.8-13.1,13.1-13.1c7.2,0,13.1,5.8,13.1,13.1c0,7.2-5.8,13.1-13.1,13.1&#10;&#9;&#9;&#9;C262.6,423.6,256.8,417.7,256.8,410.5z" style="fill: rgb(88, 89, 91);" transform="matrix(1.000000014901161, 0, 0, 1.000000014901161, -8.526512829121202e-14, -7.105427357601002e-15)"/><path class="st5" d="M578.4,374.8v-14.5c0-2.8-2.2-5-5-5h-48.1c-2.8,0-5,2.2-5,5v14.5c-26.3,11.3-44.7,37.4-44.7,67.8&#10;&#9;&#9;&#9;c0,40.7,33,73.8,73.7,73.8c40.7,0,73.8-33,73.8-73.8C623.1,412.2,604.7,386.1,578.4,374.8z" style="fill: rgb(65, 64, 66);" transform="matrix(1.000000014901161, 0, 0, 1.000000014901161, -8.526512829121202e-14, -7.105427357601002e-15)"/><path d="M470.4,362v-7.5c9.3,0,16.9-7.6,16.9-16.9c0-18.2,14.8-32.9,32.9-32.9c18.2,0,32.9,14.8,32.9,32.9v17.7h-7.5v-17.7&#10;&#9;&#9;&#9;c0-14-11.4-25.4-25.4-25.4c-14,0-25.4,11.4-25.4,25.4C494.8,351.1,483.8,362,470.4,362z" transform="matrix(1.000000014901161, 0, 0, 1.000000014901161, -8.526512829121202e-14, -7.105427357601002e-15)"/><path d="M 469.100006 330.899994 H 471.600006 V 345.799994 H 469.100006 V 330.899994 Z" class="st14" style="fill: rgb(237, 28, 36);" transform="matrix(1.000000014901161, 0, 0, 1.000000014901161, -8.526512829121202e-14, -7.105427357601002e-15)"/><path d="M 448.799988 342.899994 H 463.699987 V 345.399994 H 448.799988 V 342.899994 Z" transform="matrix(0.7070000382363802, 0.7072000118255614, -0.7072000118255614, 0.7070000382363802, 377.0646169502914, -221.8249120064052)" class="st14" style="fill: rgb(237, 28, 36);"/><path d="M 443 357 H 457.9 V 359.5 H 443 V 357 Z" class="st14" style="fill: rgb(237, 28, 36);" transform="matrix(1.000000014901161, 0, 0, 1.000000014901161, -8.526512829121202e-14, -7.105427357601002e-15)"/><path d="M 455 364.899994 H 457.5 V 379.799994 H 455 V 364.899994 Z" transform="matrix(0.7066999884456386, 0.7075000616163027, -0.7075000616163027, 0.7066999884456386, 397.2643245835397, -213.58710353336033)" class="st14" style="fill: rgb(237, 28, 36);"/><path d="M 469.100006 370.799988 H 471.600006 V 385.699987 H 469.100006 V 370.799988 Z" class="st14" style="fill: rgb(237, 28, 36);" transform="matrix(1.000000014901161, 0, 0, 1.000000014901161, -8.526512829121202e-14, -7.105427357601002e-15)"/><path d="M 594.900024 442.600006 A 45.5 45.5 0 0 1 549.400024 488.100006 A 45.5 45.5 0 0 1 503.900024 442.600006 A 45.5 45.5 0 0 1 549.400024 397.100006 A 45.5 45.5 0 0 1 594.900024 442.600006 Z" class="st6" style="fill: rgb(88, 89, 91);" transform="matrix(1.000000014901161, 0, 0, 1.000000014901161, -8.526512829121202e-14, -7.105427357601002e-15)"/><path class="st3" d="M586.9,442.6c0,20.7-16.8,37.6-37.6,37.6c-20.7,0-37.6-16.8-37.6-37.6c0-20.7,16.8-37.6,37.6-37.6&#10;&#9;&#9;&#9;C570.1,405.1,586.9,421.9,586.9,442.6z" style="fill: rgb(230, 231, 232);" transform="matrix(1.000000014901161, 0, 0, 1.000000014901161, -8.526512829121202e-14, -7.105427357601002e-15)"/><path class="st5" d="M558.7,433.5c5.1,5.1,5.1,13.4,0,18.5c-5.1,5.1-13.4,5.1-18.5,0c-14.1-14.1-14.4-33-14.4-33&#10;&#9;&#9;&#9;&#9;S544.6,419.4,558.7,433.5z" style="fill: rgb(65, 64, 66);" transform="matrix(1.000000014901161, 0, 0, 1.000000014901161, -1.1368683772161603e-13, -7.105427357601002e-15)"/><path class="st6" d="M558.6,452c-5.1,5.1-13.4,5.1-18.5,0c-5.1-5.1-5.1-13.4,0-18.5c9.4-9.4,28.1-9.6,28.1-9.6&#10;&#9;&#9;&#9;&#9;S568,442.6,558.6,452z" style="fill: rgb(88, 89, 91);" transform="matrix(1.000000014901161, 0, 0, 1.000000014901161, -1.1368683772161603e-13, -7.105427357601002e-15)"/><path d="M 554.499988 442.700012 A 5.2 5.2 0 0 1 549.299988 447.900012 A 5.2 5.2 0 0 1 544.099988 442.700012 A 5.2 5.2 0 0 1 549.299988 437.500012 A 5.2 5.2 0 0 1 554.499988 442.700012 Z" class="st3" style="fill: rgb(230, 231, 232);" transform="matrix(1.000000014901161, 0, 0, 1.000000014901161, -1.1368683772161603e-13, -7.105427357601002e-15)"/><path class="st10" d="M855.3,436.2l-61.2-61.2c-6.2-6.2-16.3-6.2-22.6,0l-43.2,43.2c-6.2,6.2-6.2,16.3,0,22.6l61.2,61.2&#10;&#9;&#9;&#9;c6.2,6.2,16.3,6.2,22.6,0l43.2-43.2C861.5,452.6,861.5,442.4,855.3,436.2z M788.3,451.4c-2.6,2.6-6.7,2.6-9.3,0&#10;&#9;&#9;&#9;c-2.6-2.6-2.6-6.7,0-9.3c2.6-2.6,6.7-2.6,9.3,0C790.9,444.6,790.9,448.8,788.3,451.4z" style="fill: rgb(255, 203, 5);" transform="matrix(1.000000014901161, 0, 0, 1.000000014901161, -8.526512829121202e-14, -7.105427357601002e-15)"/><path class="st13" d="M846.6,444.9l-61.2-61.2c-1.4-1.4-3.8-1.4-5.2,0L737,427c-1.4,1.4-1.4,3.8,0,5.2l61.2,61.2&#10;&#9;&#9;&#9;c1.4,1.4,3.8,1.4,5.2,0l43.2-43.2C848,448.7,848,446.3,846.6,444.9z M788.3,451.4c-2.6,2.6-6.7,2.6-9.3,0c-2.6-2.6-2.6-6.7,0-9.3&#10;&#9;&#9;&#9;c2.6-2.6,6.7-2.6,9.3,0C790.9,444.6,790.9,448.8,788.3,451.4z" style="fill: rgb(255, 221, 0);" transform="matrix(1.000000014901161, 0, 0, 1.000000014901161, -8.526512829121202e-14, -7.105427357601002e-15)"/><path d="M 874.2999877929688 314.3999938964844 L 803.9000244140625 384.79998779296875 L 841.5999755859375 422.6000061035156 L 848 416.20001220703125 L 853.2000122070312 418.79998779296875 L 861 411 L 858.4000244140625 405.79998779296875 L 866.2999877929688 398 L 871.5 400.6000061035156 L 879.2999877929688 392.70001220703125 L 876.7000122070312 387.5 L 884.5 379.70001220703125 L 889.7000122070312 382.29998779296875 L 897.5 374.5 L 894.9000244140625 369.29998779296875 L 902.7999877929688 361.3999938964844 L 908 364 L 916 356 L 909 321.29998779296875 Z" class="st3" style="fill: rgb(230, 231, 232);" transform="matrix(1.000000014901161, 0, 0, 1.000000014901161, -8.526512829121202e-14, -7.105427357601002e-15)"/><path d="M 886 316.70001220703125 L 810.9000244140625 391.79998779296875 L 818.7000122070312 399.6000061035156 L 899 319.29998779296875 Z" class="st1" style="fill: rgb(209, 211, 212);" transform="matrix(1.000000014901161, 0, 0, 1.000000014901161, -1.1368683772161603e-13, -7.105427357601002e-15)"/><path class="st10" d="M793.2,437.1c-5.3-5.3-13.9-5.3-19.1,0c-5.3,5.3-5.3,13.9,0,19.1c5.3,5.3,13.9,5.3,19.1,0&#10;&#9;&#9;&#9;C798.5,451,798.5,442.4,793.2,437.1z M788.3,451.4c-2.6,2.6-6.7,2.6-9.3,0c-2.6-2.6-2.6-6.7,0-9.3c2.6-2.6,6.7-2.6,9.3,0&#10;&#9;&#9;&#9;C790.9,444.6,790.9,448.8,788.3,451.4z" style="fill: rgb(255, 203, 5);" transform="matrix(1.000000014901161, 0, 0, 1.000000014901161, -8.526512829121202e-14, -7.105427357601002e-15)"/><path class="st5" d="M334.2,737.5H205.5c-11.4,0-20.1-4.2-24.5-11.8c-4.4-7.6-3.7-17.2,2-27.1l64.3-111.4&#10;&#9;&#9;&#9;c5.7-9.9,13.7-15.3,22.5-15.3c8.8,0,16.8,5.4,22.5,15.3l64.3,111.4c5.7,9.9,6.4,19.5,2,27.1C354.3,733.3,345.6,737.5,334.2,737.5z&#10;&#9;&#9;&#9;" style="fill: rgb(65, 64, 66);" transform="matrix(1.000000014901161, 0, 0, 1.000000014901161, -8.526512829121202e-14, -7.105427357601002e-15)"/><path class="st13" d="M269.8,584.3c-4.1,0-8.3,3.3-11.6,9.1l-64.3,111.4c-3.3,5.8-4.1,11.1-2,14.6c2,3.5,7,5.6,13.7,5.6h128.7&#10;&#9;&#9;&#9;c6.6,0,11.6-2,13.7-5.6c2-3.5,1.3-8.9-2-14.6l-64.3-111.4C278.2,587.6,273.9,584.3,269.8,584.3z" style="fill: rgb(255, 221, 0);" transform="matrix(1.000000014901161, 0, 0, 1.000000014901161, -8.526512829121202e-14, -7.105427357601002e-15)"/><path class="st5" d="M269.8,681.8c7.7,0,14-17.3,14-53.3c0-7.7-6.3-14-14-14c-7.7,0-14,6.3-14,14&#10;&#9;&#9;&#9;C255.8,664.5,262.1,681.8,269.8,681.8z M269.8,690.5c-6.1,0-11.1,5-11.1,11.1s5,11.1,11.1,11.1c6.1,0,11.1-5,11.1-11.1&#10;&#9;&#9;&#9;S276,690.5,269.8,690.5z" style="fill: rgb(65, 64, 66);" transform="matrix(1.000000014901161, 0, 0, 1.000000014901161, -8.526512829121202e-14, -7.105427357601002e-15)"/><g transform="matrix(1.000000014901161, 0, 0, 1.000000014901161, -8.526512829121202e-14, -7.105427357601002e-15)">
			<path d="M 535.9000244140625 646 L 581.7000122070312 646 L 581.7000122070312 604.7999877929688 L 535.9000244140625 596.5 Z" class="st3" style="fill: rgb(230, 231, 232);"/>
			<path d="M 530.2000122070312 646 L 530.2000122070312 596.5 L 484.3999938964844 604.7999877929688 L 484.3999938964844 646 Z" class="st13" style="fill: rgb(255, 221, 0);"/>
			<path class="st13" d="M535.9,651.7V710c4-2.4,9.5-4.3,15.2-6.2c21.7-7.2,30.5-11.7,30.5-26.4v-25.6H535.9z" style="fill: rgb(255, 221, 0);"/>
			<path class="st3" d="M530.2,651.7h-45.7v25.6c0,14.8,8.8,19.2,30.5,26.4c5.8,1.9,11.2,3.8,15.3,6.2V651.7z" style="fill: rgb(230, 231, 232);"/>
		</g><path class="st15" d="M533,734.9c-1.9,0-3.8-0.7-5.3-2.2c-0.9-0.9-2-1.7-3.3-2.5c-4.1-2.4-10-4.4-16.3-6.5c-19-6.3-45-15-45-46.6&#10;&#9;&#9;&#9;V593c0-3.6,2.6-6.8,6.2-7.4l62.4-11c0.9-0.2,1.8-0.2,2.6,0l62.4,11c3.6,0.6,6.2,3.7,6.2,7.4v84.2c0,31.5-26,40.2-45,46.6&#10;&#9;&#9;&#9;c-6.3,2.1-12.2,4.1-16.3,6.5c-1.3,0.8-2.4,1.6-3.3,2.5C536.9,734.1,535,734.9,533,734.9z M478.2,599.3v77.9&#10;&#9;&#9;&#9;c0,19.3,13.1,25.1,34.8,32.3c7.1,2.4,13.7,4.6,19.2,7.9c0.3,0.2,0.6,0.4,0.9,0.5c0.3-0.2,0.6-0.4,0.9-0.5&#10;&#9;&#9;&#9;c5.5-3.3,12.1-5.5,19.2-7.8c21.7-7.2,34.8-13,34.8-32.3v-77.9l-54.9-9.7L478.2,599.3z" style="fill: rgb(3, 191, 215);" transform="matrix(1.000000014901161, 0, 0, 1.000000014901161, -8.526512829121202e-14, -7.105427357601002e-15)"/><path class="st16" d="M746.8,590.1l-6.7-12.3c0,0,24.2-14.1,41.8-7.9c19.5,6.9,26,21.5,26,44.9l-15.8,7.6c0,0,2.1-26.6-12.3-35&#10;&#9;&#9;&#9;C765.3,578.9,746.8,590.1,746.8,590.1z" style="fill: rgb(151, 115, 72);" transform="matrix(1.000000014901161, 0, 0, 1.000000014901161, -8.526512829121202e-14, -7.105427357601002e-15)"/><path class="st16" d="M859.7,627c11.4-7.5,24.7-10.8,33.1,1.9c8.4,12.7-4.7,36.3,7.7,39.1c0,10.1-22.3,11.5-19.1-8.9&#10;&#9;&#9;&#9;c3.6-22.4,2.2-34.6-13.7-28.7L859.7,627z" style="fill: rgb(151, 115, 72);" transform="matrix(1.000000014901161, 0, 0, 1.000000014901161, -8.526512829121202e-14, -7.105427357601002e-15)"/><path class="st17" d="M865.8,712.9c0-19.6,10.7-54.7,10.7-67.4c0-15-7-22.8-23.3-22.8c-13.1,0-15.1,3.2-30.4,3.2&#10;&#9;&#9;&#9;c-15.3,0-25.1-2.8-25.1-2.8c0-24.7-7.6-42.9-27.8-42.9s-28.1,9.5-28.1,9.5l-2.7,42.2l14.4,2.7c0,0,6.1-15.6,11-15.6&#10;&#9;&#9;&#9;c4.9,0-3.3,28.5-3.3,35.4c0,6.8,5.5,22.4,5.5,26.6c0,4.2,0,32.9,0,32.9H783v-43.3c0,0,17,4.3,31.6,4.3c14.6,0,35.8-4.2,35.8-4.2&#10;&#9;&#9;&#9;v42.2H865.8z" style="fill: rgb(186, 151, 101);" transform="matrix(1.000000014901161, 0, 0, 1.000000014901161, -8.526512829121202e-14, -7.105427357601002e-15)"/><path d="M 739.099976 706.599976 H 889.299973 V 718.699976 H 739.099976 V 706.599976 Z" class="st16" style="fill: rgb(151, 115, 72);" transform="matrix(1.000000014901161, 0, 0, 1.000000014901161, -8.526512829121202e-14, -7.105427357601002e-15)"/><path class="st16" d="M757.7,602.2c0,2.2-1.8,4-4,4c-2.2,0-4-1.8-4-4s1.8-4,4-4C755.9,598.2,757.7,600,757.7,602.2z" style="fill: rgb(151, 115, 72);" transform="matrix(1.000000014901161, 0, 0, 1.000000014901161, -8.526512829121202e-14, -7.105427357601002e-15)"/><path class="st17" d="M790.9,725.3c0,8.7-7,15.7-15.7,15.7c-8.7,0-15.7-7-15.7-15.7c0-8.7,7-15.7,15.7-15.7&#10;&#9;&#9;&#9;C783.9,709.5,790.9,716.6,790.9,725.3z" style="fill: rgb(186, 151, 101);" transform="matrix(1.000000014901161, 0, 0, 1.000000014901161, -8.526512829121202e-14, -7.105427357601002e-15)"/><path d="M 765.400024 723 H 785.100025 V 727.5 H 765.400024 V 723 Z" class="st18" style="fill: rgb(120, 92, 55);" transform="matrix(1.000000014901161, 0, 0, 1.000000014901161, -8.526512829121202e-14, -7.105427357601002e-15)"/><path class="st17" d="M873.2,725.3c0,8.7-7,15.7-15.7,15.7c-8.7,0-15.7-7-15.7-15.7c0-8.7,7-15.7,15.7-15.7&#10;&#9;&#9;&#9;C866.2,709.5,873.2,716.6,873.2,725.3z" style="fill: rgb(186, 151, 101);" transform="matrix(1.000000014901161, 0, 0, 1.000000014901161, -8.526512829121202e-14, -7.105427357601002e-15)"/><path d="M 847.700012 723 H 867.400013 V 727.5 H 847.700012 V 723 Z" class="st18" style="fill: rgb(120, 92, 55);" transform="matrix(1.000000014901161, 0, 0, 1.000000014901161, -8.526512829121202e-14, -7.105427357601002e-15)"/><path class="st16" d="M781.4,725.3c0,3.4-2.8,6.2-6.2,6.2c-3.4,0-6.2-2.8-6.2-6.2c0-3.4,2.8-6.2,6.2-6.2&#10;&#9;&#9;&#9;C778.6,719.1,781.4,721.8,781.4,725.3z" style="fill: rgb(151, 115, 72);" transform="matrix(1.000000014901161, 0, 0, 1.000000014901161, -8.526512829121202e-14, -7.105427357601002e-15)"/><path class="st16" d="M863.7,725.3c0,3.4-2.8,6.2-6.2,6.2c-3.4,0-6.2-2.8-6.2-6.2c0-3.4,2.8-6.2,6.2-6.2&#10;&#9;&#9;&#9;C860.9,719.1,863.7,721.8,863.7,725.3z" style="fill: rgb(151, 115, 72);" transform="matrix(1.000000014901161, 0, 0, 1.000000014901161, -8.526512829121202e-14, -7.105427357601002e-15)"/>
</svg>